ISO-10303-21;
HEADER;
FILE_DESCRIPTION(('ViewDefinition[DesignTransferView]'),'2;1');
FILE_NAME('/dev/null','2026-09-13T15:45:09+02:00',(''),(''),'IfcOpenShell 0.8.5','IfcOpenShell 0.8.5','Nobody');
FILE_SCHEMA(('IFC4'));
ENDSEC;
DATA;
#1=IFCPERSON('catalog-pipeline','Pipeline','Catalog',$,$,$,$,$);
#2=IFCORGANIZATION('pragmaticBIM','pragmaticBIM',$,$,$);
#3=IFCPERSONANDORGANIZATION(#1,#2,$);
#4=IFCAPPLICATION(#2,'0.1.0','Catalog IFC Pipeline','catalog-ifc-pipeline');
#5=IFCOWNERHISTORY(#3,#4,.READWRITE.,.ADDED.,1789307109,#3,#4,1789307109);
#6=IFCPROJECT('3sRNch4TvB2B7WthrytJx0',#5,'footing-pad-01',$,$,$,$,(#15),#10);
#7=IFCSIUNIT(*,.LENGTHUNIT.,$,.METRE.);
#8=IFCSIUNIT(*,.AREAUNIT.,$,.SQUARE_METRE.);
#9=IFCSIUNIT(*,.VOLUMEUNIT.,$,.CUBIC_METRE.);
#10=IFCUNITASSIGNMENT((#9,#7,#8));
#11=IFCCARTESIANPOINT((0.,0.,0.));
#12=IFCDIRECTION((0.,0.,1.));
#13=IFCDIRECTION((1.,0.,0.));
#14=IFCAXIS2PLACEMENT3D(#11,#12,#13);
#15=IFCGEOMETRICREPRESENTATIONCONTEXT($,'Model',3,1.0000000000000001E-05,#14,$);
#16=IFCGEOMETRICREPRESENTATIONSUBCONTEXT('Body','Model',*,*,*,*,#15,$,.MODEL_VIEW.,$);
#17=IFCOWNERHISTORY(#3,#4,.READWRITE.,.MODIFIED.,1789307109,#3,#4,1789307109);
#18=IFCSITE('3PvHlkPoL6vB9JBMyuPyOC',#17,'Site',$,$,#29,$,$,$,$,$,$,$,$);
#19=IFCOWNERHISTORY(#3,#4,.READWRITE.,.MODIFIED.,1789307109,#3,#4,1789307109);
#20=IFCBUILDING('1jvxRdzwH4N86TYBFzZHeO',#19,'Building',$,$,#34,$,$,$,$,$,$);
#21=IFCOWNERHISTORY(#3,#4,.READWRITE.,.ADDED.,1789307109,#3,#4,1789307109);
#22=IFCRELAGGREGATES('1IIPM2QSb1ywcRBygkX$ar',#21,$,$,#6,(#18));
#23=IFCOWNERHISTORY(#3,#4,.READWRITE.,.ADDED.,1789307109,#3,#4,1789307109);
#24=IFCRELAGGREGATES('0saGH5GXvEVQQ4YGO4OPDi',#23,$,$,#18,(#20));
#25=IFCCARTESIANPOINT((0.,0.,0.));
#26=IFCDIRECTION((0.,0.,1.));
#27=IFCDIRECTION((1.,0.,0.));
#28=IFCAXIS2PLACEMENT3D(#25,#26,#27);
#29=IFCLOCALPLACEMENT($,#28);
#30=IFCCARTESIANPOINT((0.,0.,0.));
#31=IFCDIRECTION((0.,0.,1.));
#32=IFCDIRECTION((1.,0.,0.));
#33=IFCAXIS2PLACEMENT3D(#30,#31,#32);
#34=IFCLOCALPLACEMENT(#29,#33);
#35=IFCOWNERHISTORY(#3,#4,.READWRITE.,.MODIFIED.,1789307109,#3,#4,1789307109);
#36=IFCBUILDINGSTOREY('1PN2DV0kHBxuvMXVvzvljZ',#35,'FD',$,$,#43,$,$,$,0.);
#37=IFCOWNERHISTORY(#3,#4,.READWRITE.,.ADDED.,1789307109,#3,#4,1789307109);
#38=IFCRELAGGREGATES('3lQG808a149AxALd59P$Dj',#37,$,$,#20,(#36));
#39=IFCCARTESIANPOINT((0.,0.,0.));
#40=IFCDIRECTION((0.,0.,1.));
#41=IFCDIRECTION((1.,0.,0.));
#42=IFCAXIS2PLACEMENT3D(#39,#40,#41);
#43=IFCLOCALPLACEMENT(#34,#42);
#44=IFCOWNERHISTORY(#3,#4,.READWRITE.,.MODIFIED.,1789307109,#3,#4,1789307109);
#45=IFCFOOTING('2pGrtDsl97e9z4K1v$MZ90',#44,'F-01',$,$,#52,#67,$,.PAD_FOOTING.);
#46=IFCOWNERHISTORY(#3,#4,.READWRITE.,.MODIFIED.,1789307109,#3,#4,1789307109);
#47=IFCRELCONTAINEDINSPATIALSTRUCTURE('1fHaiZPJ1CffmizY6N4g5k',#46,$,$,(#45,#93,#69),#36);
#48=IFCCARTESIANPOINT((0.,0.,0.));
#49=IFCDIRECTION((0.,0.,1.));
#50=IFCDIRECTION((1.,0.,0.));
#51=IFCAXIS2PLACEMENT3D(#48,#49,#50);
#52=IFCLOCALPLACEMENT(#43,#51);
#53=IFCCARTESIANPOINT((2.5,2.5,0.));
#54=IFCCARTESIANPOINT((4.2999999999999998,2.5,0.));
#55=IFCCARTESIANPOINT((4.2999999999999998,4.2999999999999998,0.));
#56=IFCCARTESIANPOINT((2.5,4.2999999999999998,0.));
#57=IFCCARTESIANPOINT((2.5,2.5,0.));
#58=IFCPOLYLINE((#53,#54,#55,#56,#57));
#59=IFCARBITRARYCLOSEDPROFILEDEF(.AREA.,$,#58);
#60=IFCCARTESIANPOINT((0.,0.,0.));
#61=IFCDIRECTION((0.,0.,1.));
#62=IFCDIRECTION((1.,0.,0.));
#63=IFCAXIS2PLACEMENT3D(#60,#61,#62);
#64=IFCDIRECTION((0.,0.,1.));
#65=IFCEXTRUDEDAREASOLID(#59,#63,#64,0.55000000000000004);
#66=IFCSHAPEREPRESENTATION(#16,'Body','SweptSolid',(#65));
#67=IFCPRODUCTDEFINITIONSHAPE($,$,(#66));
#68=IFCOWNERHISTORY(#3,#4,.READWRITE.,.MODIFIED.,1789307109,#3,#4,1789307109);
#69=IFCSLAB('3_Ij1ly3PC6PfH7vCTVrD0',#68,'Bodenplatte',$,$,#74,#91,$,.BASESLAB.);
#70=IFCCARTESIANPOINT((0.,0.,0.55000000000000004));
#71=IFCDIRECTION((0.,0.,1.));
#72=IFCDIRECTION((1.,0.,0.));
#73=IFCAXIS2PLACEMENT3D(#70,#71,#72);
#74=IFCLOCALPLACEMENT(#43,#73);
#75=IFCCARTESIANPOINT((0.,0.,0.));
#76=IFCCARTESIANPOINT((4.,0.,0.));
#77=IFCCARTESIANPOINT((4.,3.3999999999999999,0.));
#78=IFCCARTESIANPOINT((3.3999999999999999,3.3999999999999999,0.));
#79=IFCCARTESIANPOINT((3.3999999999999999,4.,0.));
#80=IFCCARTESIANPOINT((0.,4.,0.));
#81=IFCCARTESIANPOINT((0.,0.,0.));
#82=IFCPOLYLINE((#75,#76,#77,#78,#79,#80,#81));
#83=IFCARBITRARYCLOSEDPROFILEDEF(.AREA.,$,#82);
#84=IFCCARTESIANPOINT((0.,0.,0.));
#85=IFCDIRECTION((0.,0.,1.));
#86=IFCDIRECTION((1.,0.,0.));
#87=IFCAXIS2PLACEMENT3D(#84,#85,#86);
#88=IFCDIRECTION((0.,0.,1.));
#89=IFCEXTRUDEDAREASOLID(#83,#87,#88,0.29999999999999999);
#90=IFCSHAPEREPRESENTATION(#16,'Body','SweptSolid',(#89));
#91=IFCPRODUCTDEFINITIONSHAPE($,$,(#90));
#92=IFCOWNERHISTORY(#3,#4,.READWRITE.,.MODIFIED.,1789307109,#3,#4,1789307109);
#93=IFCCOLUMN('1vfQ4sBoPAzOdqR_G_iOQZ',#92,'S-01',$,$,#98,#113,$,.COLUMN.);
#94=IFCCARTESIANPOINT((0.,0.,0.55000000000000004));
#95=IFCDIRECTION((0.,0.,1.));
#96=IFCDIRECTION((1.,0.,0.));
#97=IFCAXIS2PLACEMENT3D(#94,#95,#96);
#98=IFCLOCALPLACEMENT(#43,#97);
#99=IFCCARTESIANPOINT((3.2250000000000001,3.2250000000000001,0.));
#100=IFCCARTESIANPOINT((3.5750000000000002,3.2250000000000001,0.));
#101=IFCCARTESIANPOINT((3.5750000000000002,3.5750000000000002,0.));
#102=IFCCARTESIANPOINT((3.2250000000000001,3.5750000000000002,0.));
#103=IFCCARTESIANPOINT((3.2250000000000001,3.2250000000000001,0.));
#104=IFCPOLYLINE((#99,#100,#101,#102,#103));
#105=IFCARBITRARYCLOSEDPROFILEDEF(.AREA.,$,#104);
#106=IFCCARTESIANPOINT((0.,0.,0.));
#107=IFCDIRECTION((0.,0.,1.));
#108=IFCDIRECTION((1.,0.,0.));
#109=IFCAXIS2PLACEMENT3D(#106,#107,#108);
#110=IFCDIRECTION((0.,0.,1.));
#111=IFCEXTRUDEDAREASOLID(#105,#109,#110,2.7999999999999998);
#112=IFCSHAPEREPRESENTATION(#16,'Body','SweptSolid',(#111));
#113=IFCPRODUCTDEFINITIONSHAPE($,$,(#112));
#114=IFCOWNERHISTORY(#3,#4,.READWRITE.,.ADDED.,1789307109,#3,#4,1789307109);
#115=IFCPROPERTYSET('1wLkdcsS96CQgBaDyH3PEh',#114,'Pset_FootingCommon',$,(#118,#119));
#116=IFCOWNERHISTORY(#3,#4,.READWRITE.,.ADDED.,1789307109,#3,#4,1789307109);
#117=IFCRELDEFINESBYPROPERTIES('2lhZNIrtjEWQYYL6n_EZBm',#116,$,$,(#45),#115);
#118=IFCPROPERTYSINGLEVALUE('LoadBearing',$,IFCBOOLEAN(.T.),$);
#119=IFCPROPERTYSINGLEVALUE('Status',$,IFCLABEL('NEW'),$);
#120=IFCOWNERHISTORY(#3,#4,.READWRITE.,.ADDED.,1789307109,#3,#4,1789307109);
#121=IFCPROPERTYSET('0ONmqStaH19g0Dv82POf_c',#120,'ePset_Cost',$,(#124,#125,#126,#127,#128,#129));
#122=IFCOWNERHISTORY(#3,#4,.READWRITE.,.ADDED.,1789307109,#3,#4,1789307109);
#123=IFCRELDEFINESBYPROPERTIES('07mp0ewQ13rvqf4qr_uJil',#122,$,$,(#45),#121);
#124=IFCPROPERTYSINGLEVALUE('CostInterface',$,IFCLABEL('GAB'),$);
#125=IFCPROPERTYSINGLEVALUE('AwardInterface',$,IFCLABEL('211'),$);
#126=IFCPROPERTYSINGLEVALUE('PlanningInterface',$,IFCLABEL('031'),$);
#127=IFCPROPERTYSINGLEVALUE('BelowTerrain',$,IFCBOOLEAN(.T.),$);
#128=IFCPROPERTYSINGLEVALUE('eBKP',$,IFCLABEL('C01.02'),$);
#129=IFCPROPERTYSINGLEVALUE('CalculatedType',$,IFCLABEL('Fundament_Punkt_Beton'),$);
#130=IFCOWNERHISTORY(#3,#4,.READWRITE.,.ADDED.,1789307109,#3,#4,1789307109);
#131=IFCELEMENTQUANTITY('2kBxX9NRv0l82UavDDwrJW',#130,'Qto_FootingBaseQuantities',$,'BaseQuantities',(#134));
#132=IFCOWNERHISTORY(#3,#4,.READWRITE.,.ADDED.,1789307109,#3,#4,1789307109);
#133=IFCRELDEFINESBYPROPERTIES('0k0R9$08z10OOL_H9G5pFk',#132,$,$,(#45),#131);
#134=IFCQUANTITYVOLUME('GrossVolume',$,$,1.782,$);
ENDSEC;
END-ISO-10303-21;
