ISO-10303-21;
HEADER;
FILE_DESCRIPTION(('ViewDefinition[DesignTransferView]'),'2;1');
FILE_NAME('/dev/null','2026-09-23T07:58:45+02:00',(''),(''),'IfcOpenShell 0.8.5','IfcOpenShell 0.8.5','Nobody');
FILE_SCHEMA(('IFC4'));
ENDSEC;
DATA;
#1=IFCPERSON('catalog-pipeline','Pipeline','Catalog',$,$,$,$,$);
#2=IFCORGANIZATION('pragmaticBIM','pragmaticBIM',$,$,$);
#3=IFCPERSONANDORGANIZATION(#1,#2,$);
#4=IFCAPPLICATION(#2,'0.1.0','Catalog IFC Pipeline','catalog-ifc-pipeline');
#5=IFCOWNERHISTORY(#3,#4,.READWRITE.,.ADDED.,1790143125,#3,#4,1790143125);
#6=IFCPROJECT('1bydub6S10NvolVHxXB_iF',#5,'movement-clearance-01',$,$,$,$,(#15),#10);
#7=IFCSIUNIT(*,.LENGTHUNIT.,$,.METRE.);
#8=IFCSIUNIT(*,.AREAUNIT.,$,.SQUARE_METRE.);
#9=IFCSIUNIT(*,.VOLUMEUNIT.,$,.CUBIC_METRE.);
#10=IFCUNITASSIGNMENT((#8,#9,#7));
#11=IFCCARTESIANPOINT((0.,0.,0.));
#12=IFCDIRECTION((0.,0.,1.));
#13=IFCDIRECTION((1.,0.,0.));
#14=IFCAXIS2PLACEMENT3D(#11,#12,#13);
#15=IFCGEOMETRICREPRESENTATIONCONTEXT($,'Model',3,1.0000000000000001E-05,#14,$);
#16=IFCGEOMETRICREPRESENTATIONSUBCONTEXT('Body','Model',*,*,*,*,#15,$,.MODEL_VIEW.,$);
#17=IFCOWNERHISTORY(#3,#4,.READWRITE.,.MODIFIED.,1790143125,#3,#4,1790143125);
#18=IFCSITE('0rVpW1qdX8i9N$a6dsTu8Z',#17,'Site',$,$,#29,$,$,$,$,$,$,$,$);
#19=IFCOWNERHISTORY(#3,#4,.READWRITE.,.MODIFIED.,1790143125,#3,#4,1790143125);
#20=IFCBUILDING('09YaNwXNT1d9wgS2xxEWme',#19,'Building',$,$,#34,$,$,$,$,$,$);
#21=IFCOWNERHISTORY(#3,#4,.READWRITE.,.ADDED.,1790143125,#3,#4,1790143125);
#22=IFCRELAGGREGATES('2BiRhDfdPF78hML7qgZ$rX',#21,$,$,#6,(#18));
#23=IFCOWNERHISTORY(#3,#4,.READWRITE.,.ADDED.,1790143125,#3,#4,1790143125);
#24=IFCRELAGGREGATES('3s$MigaJH9DfqZR_4Si0bV',#23,$,$,#18,(#20));
#25=IFCCARTESIANPOINT((0.,0.,0.));
#26=IFCDIRECTION((0.,0.,1.));
#27=IFCDIRECTION((1.,0.,0.));
#28=IFCAXIS2PLACEMENT3D(#25,#26,#27);
#29=IFCLOCALPLACEMENT($,#28);
#30=IFCCARTESIANPOINT((0.,0.,0.));
#31=IFCDIRECTION((0.,0.,1.));
#32=IFCDIRECTION((1.,0.,0.));
#33=IFCAXIS2PLACEMENT3D(#30,#31,#32);
#34=IFCLOCALPLACEMENT(#29,#33);
#35=IFCOWNERHISTORY(#3,#4,.READWRITE.,.MODIFIED.,1790143125,#3,#4,1790143125);
#36=IFCBUILDINGSTOREY('2JC3yWOaP7FOg8wTwI5810',#35,'EG',$,$,#43,$,$,$,0.);
#37=IFCOWNERHISTORY(#3,#4,.READWRITE.,.ADDED.,1790143125,#3,#4,1790143125);
#38=IFCRELAGGREGATES('3sq9seCGj0mPpYrRWBBIg5',#37,$,$,#20,(#36));
#39=IFCCARTESIANPOINT((0.,0.,0.));
#40=IFCDIRECTION((0.,0.,1.));
#41=IFCDIRECTION((1.,0.,0.));
#42=IFCAXIS2PLACEMENT3D(#39,#40,#41);
#43=IFCLOCALPLACEMENT(#34,#42);
#44=IFCOWNERHISTORY(#3,#4,.READWRITE.,.MODIFIED.,1790143125,#3,#4,1790143125);
#45=IFCSLAB('3iincI45jCcxLOooN8Hoom',#44,'Bodenplatte',$,$,#52,#67,$,.FLOOR.);
#46=IFCOWNERHISTORY(#3,#4,.READWRITE.,.MODIFIED.,1790143125,#3,#4,1790143125);
#47=IFCRELCONTAINEDINSPATIALSTRUCTURE('1DH8C4p$z5DuEZRQtvkk9p',#46,$,$,(#149,#127,#45,#193,#171,#215,#83,#105),#36);
#48=IFCCARTESIANPOINT((0.,0.,-0.20000000000000001));
#49=IFCDIRECTION((0.,0.,1.));
#50=IFCDIRECTION((1.,0.,0.));
#51=IFCAXIS2PLACEMENT3D(#48,#49,#50);
#52=IFCLOCALPLACEMENT(#43,#51);
#53=IFCCARTESIANPOINT((0.,0.,0.));
#54=IFCCARTESIANPOINT((2.0649999999999999,0.,0.));
#55=IFCCARTESIANPOINT((2.0649999999999999,2.1999999999999997,0.));
#56=IFCCARTESIANPOINT((0.,2.1999999999999997,0.));
#57=IFCCARTESIANPOINT((0.,0.,0.));
#58=IFCPOLYLINE((#53,#54,#55,#56,#57));
#59=IFCARBITRARYCLOSEDPROFILEDEF(.AREA.,$,#58);
#60=IFCCARTESIANPOINT((0.,0.,0.));
#61=IFCDIRECTION((0.,0.,1.));
#62=IFCDIRECTION((1.,0.,0.));
#63=IFCAXIS2PLACEMENT3D(#60,#61,#62);
#64=IFCDIRECTION((0.,0.,1.));
#65=IFCEXTRUDEDAREASOLID(#59,#63,#64,0.20000000000000001);
#66=IFCSHAPEREPRESENTATION(#16,'Body','CSG',(#81));
#67=IFCPRODUCTDEFINITIONSHAPE($,$,(#66));
#68=IFCCARTESIANPOINT((0.085000000000000006,1.0499999999999998,0.));
#69=IFCCARTESIANPOINT((1.2349999999999999,1.0499999999999998,0.));
#70=IFCCARTESIANPOINT((1.2349999999999999,2.1999999999999997,0.));
#71=IFCCARTESIANPOINT((0.085000000000000006,2.1999999999999997,0.));
#72=IFCCARTESIANPOINT((0.085000000000000006,1.0499999999999998,0.));
#73=IFCPOLYLINE((#68,#69,#70,#71,#72));
#74=IFCARBITRARYCLOSEDPROFILEDEF(.AREA.,$,#73);
#75=IFCCARTESIANPOINT((0.,0.,0.18000000000000002));
#76=IFCDIRECTION((0.,0.,1.));
#77=IFCDIRECTION((1.,0.,0.));
#78=IFCAXIS2PLACEMENT3D(#75,#76,#77);
#79=IFCDIRECTION((0.,0.,1.));
#80=IFCEXTRUDEDAREASOLID(#74,#78,#79,0.029999999999999999);
#81=IFCBOOLEANRESULT(.DIFFERENCE.,#65,#80);
#82=IFCOWNERHISTORY(#3,#4,.READWRITE.,.MODIFIED.,1790143125,#3,#4,1790143125);
#83=IFCWALL('1ydvqB5VH8JPOr$fbGJ1Bm',#82,'Rueckwand',$,$,#88,#103,$,.PARTITIONING.);
#84=IFCCARTESIANPOINT((0.,0.,0.));
#85=IFCDIRECTION((0.,0.,1.));
#86=IFCDIRECTION((1.,0.,0.));
#87=IFCAXIS2PLACEMENT3D(#84,#85,#86);
#88=IFCLOCALPLACEMENT(#43,#87);
#89=IFCCARTESIANPOINT((0.,0.,0.));
#90=IFCCARTESIANPOINT((2.0649999999999999,0.,0.));
#91=IFCCARTESIANPOINT((2.0649999999999999,0.050000000000000003,0.));
#92=IFCCARTESIANPOINT((0.,0.050000000000000003,0.));
#93=IFCCARTESIANPOINT((0.,0.,0.));
#94=IFCPOLYLINE((#89,#90,#91,#92,#93));
#95=IFCARBITRARYCLOSEDPROFILEDEF(.AREA.,$,#94);
#96=IFCCARTESIANPOINT((0.,0.,0.));
#97=IFCDIRECTION((0.,0.,1.));
#98=IFCDIRECTION((1.,0.,0.));
#99=IFCAXIS2PLACEMENT3D(#96,#97,#98);
#100=IFCDIRECTION((0.,0.,1.));
#101=IFCEXTRUDEDAREASOLID(#95,#99,#100,2.3999999999999999);
#102=IFCSHAPEREPRESENTATION(#16,'Body','SweptSolid',(#101));
#103=IFCPRODUCTDEFINITIONSHAPE($,$,(#102));
#104=IFCOWNERHISTORY(#3,#4,.READWRITE.,.MODIFIED.,1790143125,#3,#4,1790143125);
#105=IFCWALL('2wS_bJNQrC9OvsUpplysO9',#104,'Seitenwand-Links',$,$,#110,#125,$,.PARTITIONING.);
#106=IFCCARTESIANPOINT((0.,2.1999999999999997,0.));
#107=IFCDIRECTION((0.,0.,1.));
#108=IFCDIRECTION((0.,-1.,0.));
#109=IFCAXIS2PLACEMENT3D(#106,#107,#108);
#110=IFCLOCALPLACEMENT(#43,#109);
#111=IFCCARTESIANPOINT((0.,0.,0.));
#112=IFCCARTESIANPOINT((2.1499999999999999,0.,0.));
#113=IFCCARTESIANPOINT((2.1499999999999999,0.085000000000000006,0.));
#114=IFCCARTESIANPOINT((0.,0.085000000000000006,0.));
#115=IFCCARTESIANPOINT((0.,0.,0.));
#116=IFCPOLYLINE((#111,#112,#113,#114,#115));
#117=IFCARBITRARYCLOSEDPROFILEDEF(.AREA.,$,#116);
#118=IFCCARTESIANPOINT((0.,0.,0.));
#119=IFCDIRECTION((0.,0.,1.));
#120=IFCDIRECTION((1.,0.,0.));
#121=IFCAXIS2PLACEMENT3D(#118,#119,#120);
#122=IFCDIRECTION((0.,0.,1.));
#123=IFCEXTRUDEDAREASOLID(#117,#121,#122,2.3999999999999999);
#124=IFCSHAPEREPRESENTATION(#16,'Body','SweptSolid',(#123));
#125=IFCPRODUCTDEFINITIONSHAPE($,$,(#124));
#126=IFCOWNERHISTORY(#3,#4,.READWRITE.,.MODIFIED.,1790143125,#3,#4,1790143125);
#127=IFCBUILDINGELEMENTPROXY('19dPOZgVbCDvBeW1LEm9f7',#126,'Waschbecken',$,$,#132,#147,$,.USERDEFINED.);
#128=IFCCARTESIANPOINT((0.,0.,0.70999999999999996));
#129=IFCDIRECTION((0.,0.,1.));
#130=IFCDIRECTION((1.,0.,0.));
#131=IFCAXIS2PLACEMENT3D(#128,#129,#130);
#132=IFCLOCALPLACEMENT(#43,#131);
#133=IFCCARTESIANPOINT((0.16500000000000001,0.050000000000000003,0.));
#134=IFCCARTESIANPOINT((0.71500000000000008,0.050000000000000003,0.));
#135=IFCCARTESIANPOINT((0.71500000000000008,0.46999999999999997,0.));
#136=IFCCARTESIANPOINT((0.16500000000000001,0.46999999999999997,0.));
#137=IFCCARTESIANPOINT((0.16500000000000001,0.050000000000000003,0.));
#138=IFCPOLYLINE((#133,#134,#135,#136,#137));
#139=IFCARBITRARYCLOSEDPROFILEDEF(.AREA.,$,#138);
#140=IFCCARTESIANPOINT((0.,0.,0.));
#141=IFCDIRECTION((0.,0.,1.));
#142=IFCDIRECTION((1.,0.,0.));
#143=IFCAXIS2PLACEMENT3D(#140,#141,#142);
#144=IFCDIRECTION((0.,0.,1.));
#145=IFCEXTRUDEDAREASOLID(#139,#143,#144,0.14000000000000001);
#146=IFCSHAPEREPRESENTATION(#16,'Body','SweptSolid',(#145));
#147=IFCPRODUCTDEFINITIONSHAPE($,$,(#146));
#148=IFCOWNERHISTORY(#3,#4,.READWRITE.,.MODIFIED.,1790143125,#3,#4,1790143125);
#149=IFCBUILDINGELEMENTPROXY('0bU49QxZz9wPb8EVNe1li6',#148,'Dusche',$,$,#154,#169,$,.USERDEFINED.);
#150=IFCCARTESIANPOINT((0.,0.,-0.02));
#151=IFCDIRECTION((0.,0.,1.));
#152=IFCDIRECTION((1.,0.,0.));
#153=IFCAXIS2PLACEMENT3D(#150,#151,#152);
#154=IFCLOCALPLACEMENT(#43,#153);
#155=IFCCARTESIANPOINT((0.085000000000000006,1.0499999999999998,0.));
#156=IFCCARTESIANPOINT((1.2349999999999999,1.0499999999999998,0.));
#157=IFCCARTESIANPOINT((1.2349999999999999,2.1999999999999997,0.));
#158=IFCCARTESIANPOINT((0.085000000000000006,2.1999999999999997,0.));
#159=IFCCARTESIANPOINT((0.085000000000000006,1.0499999999999998,0.));
#160=IFCPOLYLINE((#155,#156,#157,#158,#159));
#161=IFCARBITRARYCLOSEDPROFILEDEF(.AREA.,$,#160);
#162=IFCCARTESIANPOINT((0.,0.,0.));
#163=IFCDIRECTION((0.,0.,1.));
#164=IFCDIRECTION((1.,0.,0.));
#165=IFCAXIS2PLACEMENT3D(#162,#163,#164);
#166=IFCDIRECTION((0.,0.,1.));
#167=IFCEXTRUDEDAREASOLID(#161,#165,#166,0.02);
#168=IFCSHAPEREPRESENTATION(#16,'Body','SweptSolid',(#167));
#169=IFCPRODUCTDEFINITIONSHAPE($,$,(#168));
#170=IFCOWNERHISTORY(#3,#4,.READWRITE.,.MODIFIED.,1790143125,#3,#4,1790143125);
#171=IFCBUILDINGELEMENTPROXY('136nvIqTPFXOZPZGUnkFng',#170,'WC-Spuelkasten',$,$,#176,#191,$,.USERDEFINED.);
#172=IFCCARTESIANPOINT((0.,0.,0.));
#173=IFCDIRECTION((0.,0.,1.));
#174=IFCDIRECTION((1.,0.,0.));
#175=IFCAXIS2PLACEMENT3D(#172,#173,#174);
#176=IFCLOCALPLACEMENT(#43,#175);
#177=IFCCARTESIANPOINT((1.2949999999999999,1.9999999999999998,0.));
#178=IFCCARTESIANPOINT((1.7749999999999999,1.9999999999999998,0.));
#179=IFCCARTESIANPOINT((1.7749999999999999,2.1599999999999997,0.));
#180=IFCCARTESIANPOINT((1.2949999999999999,2.1599999999999997,0.));
#181=IFCCARTESIANPOINT((1.2949999999999999,1.9999999999999998,0.));
#182=IFCPOLYLINE((#177,#178,#179,#180,#181));
#183=IFCARBITRARYCLOSEDPROFILEDEF(.AREA.,$,#182);
#184=IFCCARTESIANPOINT((0.,0.,0.));
#185=IFCDIRECTION((0.,0.,1.));
#186=IFCDIRECTION((1.,0.,0.));
#187=IFCAXIS2PLACEMENT3D(#184,#185,#186);
#188=IFCDIRECTION((0.,0.,1.));
#189=IFCEXTRUDEDAREASOLID(#183,#187,#188,0.80000000000000004);
#190=IFCSHAPEREPRESENTATION(#16,'Body','SweptSolid',(#189));
#191=IFCPRODUCTDEFINITIONSHAPE($,$,(#190));
#192=IFCOWNERHISTORY(#3,#4,.READWRITE.,.MODIFIED.,1790143125,#3,#4,1790143125);
#193=IFCBUILDINGELEMENTPROXY('3MLXJ69fv3nwvpkdk2TPkc',#192,'WC',$,$,#198,#213,$,.USERDEFINED.);
#194=IFCCARTESIANPOINT((0.,0.,0.));
#195=IFCDIRECTION((0.,0.,1.));
#196=IFCDIRECTION((1.,0.,0.));
#197=IFCAXIS2PLACEMENT3D(#194,#195,#196);
#198=IFCLOCALPLACEMENT(#43,#197);
#199=IFCCARTESIANPOINT((1.355,1.4799999999999998,0.));
#200=IFCCARTESIANPOINT((1.7149999999999999,1.4799999999999998,0.));
#201=IFCCARTESIANPOINT((1.7149999999999999,1.9999999999999998,0.));
#202=IFCCARTESIANPOINT((1.355,1.9999999999999998,0.));
#203=IFCCARTESIANPOINT((1.355,1.4799999999999998,0.));
#204=IFCPOLYLINE((#199,#200,#201,#202,#203));
#205=IFCARBITRARYCLOSEDPROFILEDEF(.AREA.,$,#204);
#206=IFCCARTESIANPOINT((0.,0.,0.));
#207=IFCDIRECTION((0.,0.,1.));
#208=IFCDIRECTION((1.,0.,0.));
#209=IFCAXIS2PLACEMENT3D(#206,#207,#208);
#210=IFCDIRECTION((0.,0.,1.));
#211=IFCEXTRUDEDAREASOLID(#205,#209,#210,0.40000000000000002);
#212=IFCSHAPEREPRESENTATION(#16,'Body','SweptSolid',(#211));
#213=IFCPRODUCTDEFINITIONSHAPE($,$,(#212));
#214=IFCOWNERHISTORY(#3,#4,.READWRITE.,.MODIFIED.,1790143125,#3,#4,1790143125);
#215=IFCBUILDINGELEMENTPROXY('3r9DZjcYrCrv0aT6JBcymb',#214,'Wendefl\X2\00E4\X0\che',$,'Bewegungsfl\X2\00E4\X0\che',#220,#235,$,.USERDEFINED.);
#216=IFCCARTESIANPOINT((0.,0.,0.));
#217=IFCDIRECTION((0.,0.,1.));
#218=IFCDIRECTION((1.,0.,0.));
#219=IFCAXIS2PLACEMENT3D(#216,#217,#218);
#220=IFCLOCALPLACEMENT(#43,#219);
#221=IFCCARTESIANPOINT((0.085000000000000006,0.47999999999999998,0.));
#222=IFCCARTESIANPOINT((1.2849999999999999,0.47999999999999998,0.));
#223=IFCCARTESIANPOINT((1.2849999999999999,1.6799999999999999,0.));
#224=IFCCARTESIANPOINT((0.085000000000000006,1.6799999999999999,0.));
#225=IFCCARTESIANPOINT((0.085000000000000006,0.47999999999999998,0.));
#226=IFCPOLYLINE((#221,#222,#223,#224,#225));
#227=IFCARBITRARYCLOSEDPROFILEDEF(.AREA.,$,#226);
#228=IFCCARTESIANPOINT((0.,0.,0.));
#229=IFCDIRECTION((0.,0.,1.));
#230=IFCDIRECTION((1.,0.,0.));
#231=IFCAXIS2PLACEMENT3D(#228,#229,#230);
#232=IFCDIRECTION((0.,0.,1.));
#233=IFCEXTRUDEDAREASOLID(#227,#231,#232,1.5);
#234=IFCSHAPEREPRESENTATION(#16,'Body','SweptSolid',(#233));
#235=IFCPRODUCTDEFINITIONSHAPE($,$,(#234));
ENDSEC;
END-ISO-10303-21;
