ISO-10303-21;
HEADER;
FILE_DESCRIPTION(('ViewDefinition[DesignTransferView]'),'2;1');
FILE_NAME('/dev/null','2026-09-13T15:44:52+02:00',(''),(''),'IfcOpenShell 0.8.5','IfcOpenShell 0.8.5','Nobody');
FILE_SCHEMA(('IFC4'));
ENDSEC;
DATA;
#1=IFCPERSON('catalog-pipeline','Pipeline','Catalog',$,$,$,$,$);
#2=IFCORGANIZATION('pragmaticBIM','pragmaticBIM',$,$,$);
#3=IFCPERSONANDORGANIZATION(#1,#2,$);
#4=IFCAPPLICATION(#2,'0.1.0','Catalog IFC Pipeline','catalog-ifc-pipeline');
#5=IFCOWNERHISTORY(#3,#4,.READWRITE.,.ADDED.,1789307092,#3,#4,1789307092);
#6=IFCPROJECT('30AbBdAtDD4Pv7Eb7eOh3H',#5,'Catalog \X2\2014\X0\ beam-01',$,$,$,$,(#15),#10);
#7=IFCSIUNIT(*,.LENGTHUNIT.,$,.METRE.);
#8=IFCSIUNIT(*,.AREAUNIT.,$,.SQUARE_METRE.);
#9=IFCSIUNIT(*,.VOLUMEUNIT.,$,.CUBIC_METRE.);
#10=IFCUNITASSIGNMENT((#9,#7,#8));
#11=IFCCARTESIANPOINT((0.,0.,0.));
#12=IFCDIRECTION((0.,0.,1.));
#13=IFCDIRECTION((1.,0.,0.));
#14=IFCAXIS2PLACEMENT3D(#11,#12,#13);
#15=IFCGEOMETRICREPRESENTATIONCONTEXT($,'Model',3,1.0000000000000001E-05,#14,$);
#16=IFCGEOMETRICREPRESENTATIONSUBCONTEXT('Body','Model',*,*,*,*,#15,$,.MODEL_VIEW.,$);
#17=IFCOWNERHISTORY(#3,#4,.READWRITE.,.MODIFIED.,1789307092,#3,#4,1789307092);
#18=IFCSITE('0I6Z71I4D6BuApg3hbWsV6',#17,'Site',$,$,#29,$,$,$,$,$,$,$,$);
#19=IFCOWNERHISTORY(#3,#4,.READWRITE.,.MODIFIED.,1789307092,#3,#4,1789307092);
#20=IFCBUILDING('1E68dbVYjBkfxDI1CbGt2B',#19,'Building',$,$,#34,$,$,$,$,$,$);
#21=IFCOWNERHISTORY(#3,#4,.READWRITE.,.ADDED.,1789307092,#3,#4,1789307092);
#22=IFCRELAGGREGATES('0cTZjJFeDCIBPwMPLs6ii9',#21,$,$,#6,(#18));
#23=IFCOWNERHISTORY(#3,#4,.READWRITE.,.ADDED.,1789307092,#3,#4,1789307092);
#24=IFCRELAGGREGATES('1p8jBjLFTCjhk2fjQfS0q9',#23,$,$,#18,(#20));
#25=IFCCARTESIANPOINT((0.,0.,0.));
#26=IFCDIRECTION((0.,0.,1.));
#27=IFCDIRECTION((1.,0.,0.));
#28=IFCAXIS2PLACEMENT3D(#25,#26,#27);
#29=IFCLOCALPLACEMENT($,#28);
#30=IFCCARTESIANPOINT((0.,0.,0.));
#31=IFCDIRECTION((0.,0.,1.));
#32=IFCDIRECTION((1.,0.,0.));
#33=IFCAXIS2PLACEMENT3D(#30,#31,#32);
#34=IFCLOCALPLACEMENT(#29,#33);
#35=IFCOWNERHISTORY(#3,#4,.READWRITE.,.MODIFIED.,1789307092,#3,#4,1789307092);
#36=IFCBUILDINGSTOREY('2K2o2uKDnFjQ_7pLHL3VSZ',#35,'Level 0',$,$,#43,$,$,$,0.);
#37=IFCOWNERHISTORY(#3,#4,.READWRITE.,.ADDED.,1789307092,#3,#4,1789307092);
#38=IFCRELAGGREGATES('1UkstPuoTDoh9tAqXGfIQD',#37,$,$,#20,(#36));
#39=IFCCARTESIANPOINT((0.,0.,0.));
#40=IFCDIRECTION((0.,0.,1.));
#41=IFCDIRECTION((1.,0.,0.));
#42=IFCAXIS2PLACEMENT3D(#39,#40,#41);
#43=IFCLOCALPLACEMENT(#34,#42);
#44=IFCOWNERHISTORY(#3,#4,.READWRITE.,.MODIFIED.,1789307092,#3,#4,1789307092);
#45=IFCSPACE('1$THDTnn13pRKuSANTVTkS',#44,'101',$,$,#52,#67,'Buero',$,.INTERNAL.,$);
#46=IFCOWNERHISTORY(#3,#4,.READWRITE.,.MODIFIED.,1789307092,#3,#4,1789307092);
#47=IFCRELAGGREGATES('12v5vBsN91OhQ9B1StjE48',#46,$,$,#36,(#449,#45,#385,#111));
#48=IFCCARTESIANPOINT((0.,0.,0.));
#49=IFCDIRECTION((0.,0.,1.));
#50=IFCDIRECTION((1.,0.,0.));
#51=IFCAXIS2PLACEMENT3D(#48,#49,#50);
#52=IFCLOCALPLACEMENT(#43,#51);
#53=IFCCARTESIANPOINT((0.,0.,0.));
#54=IFCCARTESIANPOINT((4.,0.,0.));
#55=IFCCARTESIANPOINT((4.,5.,0.));
#56=IFCCARTESIANPOINT((0.,5.,0.));
#57=IFCCARTESIANPOINT((0.,0.,0.));
#58=IFCPOLYLINE((#53,#54,#55,#56,#57));
#59=IFCARBITRARYCLOSEDPROFILEDEF(.AREA.,$,#58);
#60=IFCCARTESIANPOINT((0.,0.,0.));
#61=IFCDIRECTION((0.,0.,1.));
#62=IFCDIRECTION((1.,0.,0.));
#63=IFCAXIS2PLACEMENT3D(#60,#61,#62);
#64=IFCDIRECTION((0.,0.,1.));
#65=IFCEXTRUDEDAREASOLID(#59,#63,#64,2.7999999999999998);
#66=IFCSHAPEREPRESENTATION(#16,'Body','SweptSolid',(#65));
#67=IFCPRODUCTDEFINITIONSHAPE($,$,(#66));
#68=IFCOWNERHISTORY(#3,#4,.READWRITE.,.ADDED.,1789307092,#3,#4,1789307092);
#69=IFCELEMENTQUANTITY('3wLMY2Qw9Fnw52U$dIKJ$B',#68,'Qto_SpaceBaseQuantities',$,'BaseQuantities',(#72,#73,#74,#75,#76));
#70=IFCOWNERHISTORY(#3,#4,.READWRITE.,.ADDED.,1789307092,#3,#4,1789307092);
#71=IFCRELDEFINESBYPROPERTIES('1LOHmrmNP8TwB3_hdaqLFv',#70,$,$,(#45),#69);
#72=IFCQUANTITYAREA('NetFloorArea',$,$,20.,$);
#73=IFCQUANTITYLENGTH('Height',$,$,2.7999999999999998,$);
#74=IFCQUANTITYLENGTH('FinishCeilingHeight',$,$,2.7999999999999998,$);
#75=IFCQUANTITYAREA('GrossFloorArea',$,$,20.,$);
#76=IFCQUANTITYVOLUME('GrossVolume',$,$,56.,$);
#77=IFCOWNERHISTORY(#3,#4,.READWRITE.,.ADDED.,1789307092,#3,#4,1789307092);
#78=IFCPROPERTYSET('1n9RLagYLBDf$DL_7cTvRd',#77,'ePset_Space',$,(#81));
#79=IFCOWNERHISTORY(#3,#4,.READWRITE.,.ADDED.,1789307092,#3,#4,1789307092);
#80=IFCRELDEFINESBYPROPERTIES('0qzhW3CyvBaw2Gg5aamNxI',#79,$,$,(#45),#78);
#81=IFCPROPERTYSINGLEVALUE('SignageRoomNumber',$,IFCIDENTIFIER('101'),$);
#82=IFCOWNERHISTORY(#3,#4,.READWRITE.,.ADDED.,1789307092,#3,#4,1789307092);
#83=IFCPROPERTYSET('18QfW1MNH8ZAw1MPZ77Cbf',#82,'Pset_SpaceCommon',$,(#86,#87));
#84=IFCOWNERHISTORY(#3,#4,.READWRITE.,.ADDED.,1789307092,#3,#4,1789307092);
#85=IFCRELDEFINESBYPROPERTIES('3cHtLVAxbDiBGJwOPGGvbJ',#84,$,$,(#45),#83);
#86=IFCPROPERTYSINGLEVALUE('Reference',$,IFCIDENTIFIER('HNF'),$);
#87=IFCPROPERTYSINGLEVALUE('IsExternal',$,IFCBOOLEAN(.F.),$);
#88=IFCOWNERHISTORY(#3,#4,.READWRITE.,.ADDED.,1789307092,#3,#4,1789307092);
#89=IFCPROPERTYSET('39UuxqDzrArPgzdkBiK9h9',#88,'Pset_SpaceCoveringRequirements',$,(#92));
#90=IFCOWNERHISTORY(#3,#4,.READWRITE.,.ADDED.,1789307092,#3,#4,1789307092);
#91=IFCRELDEFINESBYPROPERTIES('2kbJRVI$59dxxdgPYJ_0Kl',#90,$,$,(#45),#89);
#92=IFCPROPERTYSINGLEVALUE('FloorCovering',$,IFCLABEL('Teppich'),$);
#93=IFCOWNERHISTORY(#3,#4,.READWRITE.,.ADDED.,1789307092,#3,#4,1789307092);
#94=IFCPROPERTYSET('0OIp9cxX193Qb3uuhD9lzR',#93,'Pset_SpaceThermalDesign',$,(#97));
#95=IFCOWNERHISTORY(#3,#4,.READWRITE.,.ADDED.,1789307092,#3,#4,1789307092);
#96=IFCRELDEFINESBYPROPERTIES('0Cl7wfWwX2LAV31ikqFb2Y',#95,$,$,(#45),#94);
#97=IFCPROPERTYSINGLEVALUE('TotalHeatLoss',$,IFCPOWERMEASURE(1.),$);
#98=IFCOWNERHISTORY(#3,#4,.READWRITE.,.ADDED.,1789307092,#3,#4,1789307092);
#99=IFCPROPERTYSET('0f23hhO9z31xTmpY$EOjtX',#98,'ePset_SpaceRequirement',$,(#102,#103,#104));
#100=IFCOWNERHISTORY(#3,#4,.READWRITE.,.ADDED.,1789307092,#3,#4,1789307092);
#101=IFCRELDEFINESBYPROPERTIES('1CoXObf1X5Yg1uGuCGykjR',#100,$,$,(#45),#99);
#102=IFCPROPERTYSINGLEVALUE('DesignAreaLoad',$,IFCREAL(3.),$);
#103=IFCPROPERTYSINGLEVALUE('DesignPointLoad',$,IFCREAL(2.),$);
#104=IFCPROPERTYSINGLEVALUE('VibrationRequirements',$,IFCLABEL('ISO Office'),$);
#105=IFCOWNERHISTORY(#3,#4,.READWRITE.,.ADDED.,1789307092,#3,#4,1789307092);
#106=IFCPROPERTYSET('0ztR566UrFaOp2$tcyT6aC',#105,'ePset_Space',$,(#109));
#107=IFCOWNERHISTORY(#3,#4,.READWRITE.,.ADDED.,1789307092,#3,#4,1789307092);
#108=IFCRELDEFINESBYPROPERTIES('2x7el8NufCV8jtzXf44Ff1',#107,$,$,(#45),#106);
#109=IFCPROPERTYSINGLEVALUE('Checkliste',$,IFCTEXT('Bodenbelag; Elektro; Beleuchtung'),$);
#110=IFCOWNERHISTORY(#3,#4,.READWRITE.,.MODIFIED.,1789307092,#3,#4,1789307092);
#111=IFCSPACE('2JqzuuV6rAvg9ceCPYXClq',#110,'LR-01',$,'Luftraum',#116,#131,'Luftraum',$,.USERDEFINED.,$);
#112=IFCCARTESIANPOINT((0.,0.,2.7999999999999998));
#113=IFCDIRECTION((0.,0.,1.));
#114=IFCDIRECTION((1.,0.,0.));
#115=IFCAXIS2PLACEMENT3D(#112,#113,#114);
#116=IFCLOCALPLACEMENT(#43,#115);
#117=IFCCARTESIANPOINT((0.,0.,0.));
#118=IFCCARTESIANPOINT((2.5,0.,0.));
#119=IFCCARTESIANPOINT((2.5,5.,0.));
#120=IFCCARTESIANPOINT((0.,5.,0.));
#121=IFCCARTESIANPOINT((0.,0.,0.));
#122=IFCPOLYLINE((#117,#118,#119,#120,#121));
#123=IFCARBITRARYCLOSEDPROFILEDEF(.AREA.,$,#122);
#124=IFCCARTESIANPOINT((0.,0.,0.));
#125=IFCDIRECTION((0.,0.,1.));
#126=IFCDIRECTION((1.,0.,0.));
#127=IFCAXIS2PLACEMENT3D(#124,#125,#126);
#128=IFCDIRECTION((0.,0.,1.));
#129=IFCEXTRUDEDAREASOLID(#123,#127,#128,3.5);
#130=IFCSHAPEREPRESENTATION(#16,'Body','SweptSolid',(#129));
#131=IFCPRODUCTDEFINITIONSHAPE($,$,(#130));
#132=IFCOWNERHISTORY(#3,#4,.READWRITE.,.ADDED.,1789307092,#3,#4,1789307092);
#133=IFCELEMENTQUANTITY('1vTk05qtXCehU4f6NytbGx',#132,'Qto_SpaceBaseQuantities',$,'BaseQuantities',(#136,#137,#138,#139));
#134=IFCOWNERHISTORY(#3,#4,.READWRITE.,.ADDED.,1789307092,#3,#4,1789307092);
#135=IFCRELDEFINESBYPROPERTIES('21sBua5EH8AgbGbVEhyu0M',#134,$,$,(#111),#133);
#136=IFCQUANTITYAREA('GrossFloorArea',$,$,12.5,$);
#137=IFCQUANTITYVOLUME('GrossVolume',$,$,43.75,$);
#138=IFCQUANTITYLENGTH('Height',$,$,3.5,$);
#139=IFCQUANTITYAREA('NetFloorArea',$,$,12.5,$);
#140=IFCOWNERHISTORY(#3,#4,.READWRITE.,.MODIFIED.,1789307092,#3,#4,1789307092);
#141=IFCSLAB('0eotoOrzf4$fS7C$nUB6iQ',#140,'LR-01-FloorSlab',$,$,#148,#163,$,.FLOOR.);
#142=IFCOWNERHISTORY(#3,#4,.READWRITE.,.MODIFIED.,1789307092,#3,#4,1789307092);
#143=IFCRELCONTAINEDINSPATIALSTRUCTURE('2Ns32O7OHEnBIWDCODgT0t',#142,$,$,(#275,#297,#319,#165,#187,#209,#341,#363,#141,#231,#253),#36);
#144=IFCCARTESIANPOINT((0.,0.,-0.40000000000000002));
#145=IFCDIRECTION((0.,0.,1.));
#146=IFCDIRECTION((1.,0.,0.));
#147=IFCAXIS2PLACEMENT3D(#144,#145,#146);
#148=IFCLOCALPLACEMENT(#43,#147);
#149=IFCCARTESIANPOINT((0.,0.,0.));
#150=IFCCARTESIANPOINT((7.2000000000000002,0.,0.));
#151=IFCCARTESIANPOINT((7.2000000000000002,5.,0.));
#152=IFCCARTESIANPOINT((0.,5.,0.));
#153=IFCCARTESIANPOINT((0.,0.,0.));
#154=IFCPOLYLINE((#149,#150,#151,#152,#153));
#155=IFCARBITRARYCLOSEDPROFILEDEF(.AREA.,$,#154);
#156=IFCCARTESIANPOINT((0.,0.,0.));
#157=IFCDIRECTION((0.,0.,1.));
#158=IFCDIRECTION((1.,0.,0.));
#159=IFCAXIS2PLACEMENT3D(#156,#157,#158);
#160=IFCDIRECTION((0.,0.,1.));
#161=IFCEXTRUDEDAREASOLID(#155,#159,#160,0.29999999999999999);
#162=IFCSHAPEREPRESENTATION(#16,'Body','SweptSolid',(#161));
#163=IFCPRODUCTDEFINITIONSHAPE($,$,(#162));
#164=IFCOWNERHISTORY(#3,#4,.READWRITE.,.MODIFIED.,1789307092,#3,#4,1789307092);
#165=IFCCOVERING('3G_yrs5A98DRTuXM0oPIYv',#164,'LR-01-FloorCovering',$,$,#170,#185,$,.FLOORING.);
#166=IFCCARTESIANPOINT((0.,0.,-0.10000000000000001));
#167=IFCDIRECTION((0.,0.,1.));
#168=IFCDIRECTION((1.,0.,0.));
#169=IFCAXIS2PLACEMENT3D(#166,#167,#168);
#170=IFCLOCALPLACEMENT(#43,#169);
#171=IFCCARTESIANPOINT((0.,0.,0.));
#172=IFCCARTESIANPOINT((4.,0.,0.));
#173=IFCCARTESIANPOINT((4.,5.,0.));
#174=IFCCARTESIANPOINT((0.,5.,0.));
#175=IFCCARTESIANPOINT((0.,0.,0.));
#176=IFCPOLYLINE((#171,#172,#173,#174,#175));
#177=IFCARBITRARYCLOSEDPROFILEDEF(.AREA.,$,#176);
#178=IFCCARTESIANPOINT((0.,0.,0.));
#179=IFCDIRECTION((0.,0.,1.));
#180=IFCDIRECTION((1.,0.,0.));
#181=IFCAXIS2PLACEMENT3D(#178,#179,#180);
#182=IFCDIRECTION((0.,0.,1.));
#183=IFCEXTRUDEDAREASOLID(#177,#181,#182,0.10000000000000001);
#184=IFCSHAPEREPRESENTATION(#16,'Body','SweptSolid',(#183));
#185=IFCPRODUCTDEFINITIONSHAPE($,$,(#184));
#186=IFCOWNERHISTORY(#3,#4,.READWRITE.,.MODIFIED.,1789307092,#3,#4,1789307092);
#187=IFCCOVERING('3fMgy$JOf4CuLWsGP_jieI',#186,'LR-01-N-FloorCovering',$,$,#192,#207,$,.FLOORING.);
#188=IFCCARTESIANPOINT((0.,0.,-0.10000000000000001));
#189=IFCDIRECTION((0.,0.,1.));
#190=IFCDIRECTION((1.,0.,0.));
#191=IFCAXIS2PLACEMENT3D(#188,#189,#190);
#192=IFCLOCALPLACEMENT(#43,#191);
#193=IFCCARTESIANPOINT((4.2000000000000002,0.,0.));
#194=IFCCARTESIANPOINT((7.2000000000000002,0.,0.));
#195=IFCCARTESIANPOINT((7.2000000000000002,5.,0.));
#196=IFCCARTESIANPOINT((4.2000000000000002,5.,0.));
#197=IFCCARTESIANPOINT((4.2000000000000002,0.,0.));
#198=IFCPOLYLINE((#193,#194,#195,#196,#197));
#199=IFCARBITRARYCLOSEDPROFILEDEF(.AREA.,$,#198);
#200=IFCCARTESIANPOINT((0.,0.,0.));
#201=IFCDIRECTION((0.,0.,1.));
#202=IFCDIRECTION((1.,0.,0.));
#203=IFCAXIS2PLACEMENT3D(#200,#201,#202);
#204=IFCDIRECTION((0.,0.,1.));
#205=IFCEXTRUDEDAREASOLID(#199,#203,#204,0.10000000000000001);
#206=IFCSHAPEREPRESENTATION(#16,'Body','SweptSolid',(#205));
#207=IFCPRODUCTDEFINITIONSHAPE($,$,(#206));
#208=IFCOWNERHISTORY(#3,#4,.READWRITE.,.MODIFIED.,1789307092,#3,#4,1789307092);
#209=IFCSLAB('1fvISJqon7GwPEVfMuB87_',#208,'LR-01-MidSlab',$,$,#214,#229,$,.FLOOR.);
#210=IFCCARTESIANPOINT((0.,0.,2.7999999999999998));
#211=IFCDIRECTION((0.,0.,1.));
#212=IFCDIRECTION((1.,0.,0.));
#213=IFCAXIS2PLACEMENT3D(#210,#211,#212);
#214=IFCLOCALPLACEMENT(#43,#213);
#215=IFCCARTESIANPOINT((2.5,0.,0.));
#216=IFCCARTESIANPOINT((7.2000000000000002,0.,0.));
#217=IFCCARTESIANPOINT((7.2000000000000002,5.,0.));
#218=IFCCARTESIANPOINT((2.5,5.,0.));
#219=IFCCARTESIANPOINT((2.5,0.,0.));
#220=IFCPOLYLINE((#215,#216,#217,#218,#219));
#221=IFCARBITRARYCLOSEDPROFILEDEF(.AREA.,$,#220);
#222=IFCCARTESIANPOINT((0.,0.,0.));
#223=IFCDIRECTION((0.,0.,1.));
#224=IFCDIRECTION((1.,0.,0.));
#225=IFCAXIS2PLACEMENT3D(#222,#223,#224);
#226=IFCDIRECTION((0.,0.,1.));
#227=IFCEXTRUDEDAREASOLID(#221,#225,#226,0.29999999999999999);
#228=IFCSHAPEREPRESENTATION(#16,'Body','SweptSolid',(#227));
#229=IFCPRODUCTDEFINITIONSHAPE($,$,(#228));
#230=IFCOWNERHISTORY(#3,#4,.READWRITE.,.MODIFIED.,1789307092,#3,#4,1789307092);
#231=IFCCOVERING('0mUSOPM3b4CPbwK5BtbVUt',#230,'LR-01-N-UpperFloorCovering',$,$,#236,#251,$,.FLOORING.);
#232=IFCCARTESIANPOINT((0.,0.,3.0999999999999996));
#233=IFCDIRECTION((0.,0.,1.));
#234=IFCDIRECTION((1.,0.,0.));
#235=IFCAXIS2PLACEMENT3D(#232,#233,#234);
#236=IFCLOCALPLACEMENT(#43,#235);
#237=IFCCARTESIANPOINT((2.5,0.,0.));
#238=IFCCARTESIANPOINT((7.2000000000000002,0.,0.));
#239=IFCCARTESIANPOINT((7.2000000000000002,5.,0.));
#240=IFCCARTESIANPOINT((2.5,5.,0.));
#241=IFCCARTESIANPOINT((2.5,0.,0.));
#242=IFCPOLYLINE((#237,#238,#239,#240,#241));
#243=IFCARBITRARYCLOSEDPROFILEDEF(.AREA.,$,#242);
#244=IFCCARTESIANPOINT((0.,0.,0.));
#245=IFCDIRECTION((0.,0.,1.));
#246=IFCDIRECTION((1.,0.,0.));
#247=IFCAXIS2PLACEMENT3D(#244,#245,#246);
#248=IFCDIRECTION((0.,0.,1.));
#249=IFCEXTRUDEDAREASOLID(#243,#247,#248,0.10000000000000001);
#250=IFCSHAPEREPRESENTATION(#16,'Body','SweptSolid',(#249));
#251=IFCPRODUCTDEFINITIONSHAPE($,$,(#250));
#252=IFCOWNERHISTORY(#3,#4,.READWRITE.,.MODIFIED.,1789307092,#3,#4,1789307092);
#253=IFCSLAB('0J6GbaTyXDueS82XU8NZM5',#252,'LR-01-TopSlab',$,$,#258,#273,$,.FLOOR.);
#254=IFCCARTESIANPOINT((0.,0.,6.2999999999999998));
#255=IFCDIRECTION((0.,0.,1.));
#256=IFCDIRECTION((1.,0.,0.));
#257=IFCAXIS2PLACEMENT3D(#254,#255,#256);
#258=IFCLOCALPLACEMENT(#43,#257);
#259=IFCCARTESIANPOINT((3.6000000000000001,0.,0.));
#260=IFCCARTESIANPOINT((7.2000000000000002,0.,0.));
#261=IFCCARTESIANPOINT((7.2000000000000002,5.,0.));
#262=IFCCARTESIANPOINT((3.6000000000000001,5.,0.));
#263=IFCCARTESIANPOINT((3.6000000000000001,0.,0.));
#264=IFCPOLYLINE((#259,#260,#261,#262,#263));
#265=IFCARBITRARYCLOSEDPROFILEDEF(.AREA.,$,#264);
#266=IFCCARTESIANPOINT((0.,0.,0.));
#267=IFCDIRECTION((0.,0.,1.));
#268=IFCDIRECTION((1.,0.,0.));
#269=IFCAXIS2PLACEMENT3D(#266,#267,#268);
#270=IFCDIRECTION((0.,0.,1.));
#271=IFCEXTRUDEDAREASOLID(#265,#269,#270,0.29999999999999999);
#272=IFCSHAPEREPRESENTATION(#16,'Body','SweptSolid',(#271));
#273=IFCPRODUCTDEFINITIONSHAPE($,$,(#272));
#274=IFCOWNERHISTORY(#3,#4,.READWRITE.,.MODIFIED.,1789307092,#3,#4,1789307092);
#275=IFCBEAM('31UtQuImn64fpPd15R_fnf',#274,'U-01-01',$,$,#280,#295,$,.BEAM.);
#276=IFCCARTESIANPOINT((0.,0.,5.7999999999999998));
#277=IFCDIRECTION((0.,0.,1.));
#278=IFCDIRECTION((1.,0.,0.));
#279=IFCAXIS2PLACEMENT3D(#276,#277,#278);
#280=IFCLOCALPLACEMENT(#43,#279);
#281=IFCCARTESIANPOINT((0.,0.875,0.));
#282=IFCCARTESIANPOINT((7.2000000000000002,0.875,0.));
#283=IFCCARTESIANPOINT((7.2000000000000002,1.125,0.));
#284=IFCCARTESIANPOINT((0.,1.125,0.));
#285=IFCCARTESIANPOINT((0.,0.875,0.));
#286=IFCPOLYLINE((#281,#282,#283,#284,#285));
#287=IFCARBITRARYCLOSEDPROFILEDEF(.AREA.,$,#286);
#288=IFCCARTESIANPOINT((0.,0.,0.));
#289=IFCDIRECTION((0.,0.,1.));
#290=IFCDIRECTION((1.,0.,0.));
#291=IFCAXIS2PLACEMENT3D(#288,#289,#290);
#292=IFCDIRECTION((0.,0.,1.));
#293=IFCEXTRUDEDAREASOLID(#287,#291,#292,0.5);
#294=IFCSHAPEREPRESENTATION(#16,'Body','SweptSolid',(#293));
#295=IFCPRODUCTDEFINITIONSHAPE($,$,(#294));
#296=IFCOWNERHISTORY(#3,#4,.READWRITE.,.MODIFIED.,1789307092,#3,#4,1789307092);
#297=IFCBEAM('3HrNyQ8sDBc96hxPwgs6ZP',#296,'U-01-02',$,$,#302,#317,$,.BEAM.);
#298=IFCCARTESIANPOINT((0.,0.,5.7999999999999998));
#299=IFCDIRECTION((0.,0.,1.));
#300=IFCDIRECTION((1.,0.,0.));
#301=IFCAXIS2PLACEMENT3D(#298,#299,#300);
#302=IFCLOCALPLACEMENT(#43,#301);
#303=IFCCARTESIANPOINT((0.,1.875,0.));
#304=IFCCARTESIANPOINT((7.2000000000000002,1.875,0.));
#305=IFCCARTESIANPOINT((7.2000000000000002,2.125,0.));
#306=IFCCARTESIANPOINT((0.,2.125,0.));
#307=IFCCARTESIANPOINT((0.,1.875,0.));
#308=IFCPOLYLINE((#303,#304,#305,#306,#307));
#309=IFCARBITRARYCLOSEDPROFILEDEF(.AREA.,$,#308);
#310=IFCCARTESIANPOINT((0.,0.,0.));
#311=IFCDIRECTION((0.,0.,1.));
#312=IFCDIRECTION((1.,0.,0.));
#313=IFCAXIS2PLACEMENT3D(#310,#311,#312);
#314=IFCDIRECTION((0.,0.,1.));
#315=IFCEXTRUDEDAREASOLID(#309,#313,#314,0.5);
#316=IFCSHAPEREPRESENTATION(#16,'Body','SweptSolid',(#315));
#317=IFCPRODUCTDEFINITIONSHAPE($,$,(#316));
#318=IFCOWNERHISTORY(#3,#4,.READWRITE.,.MODIFIED.,1789307092,#3,#4,1789307092);
#319=IFCBEAM('22QI5bKYj6sw$qbz$jfaKW',#318,'U-01-03',$,$,#324,#339,$,.BEAM.);
#320=IFCCARTESIANPOINT((0.,0.,5.7999999999999998));
#321=IFCDIRECTION((0.,0.,1.));
#322=IFCDIRECTION((1.,0.,0.));
#323=IFCAXIS2PLACEMENT3D(#320,#321,#322);
#324=IFCLOCALPLACEMENT(#43,#323);
#325=IFCCARTESIANPOINT((0.,2.875,0.));
#326=IFCCARTESIANPOINT((7.2000000000000002,2.875,0.));
#327=IFCCARTESIANPOINT((7.2000000000000002,3.125,0.));
#328=IFCCARTESIANPOINT((0.,3.125,0.));
#329=IFCCARTESIANPOINT((0.,2.875,0.));
#330=IFCPOLYLINE((#325,#326,#327,#328,#329));
#331=IFCARBITRARYCLOSEDPROFILEDEF(.AREA.,$,#330);
#332=IFCCARTESIANPOINT((0.,0.,0.));
#333=IFCDIRECTION((0.,0.,1.));
#334=IFCDIRECTION((1.,0.,0.));
#335=IFCAXIS2PLACEMENT3D(#332,#333,#334);
#336=IFCDIRECTION((0.,0.,1.));
#337=IFCEXTRUDEDAREASOLID(#331,#335,#336,0.5);
#338=IFCSHAPEREPRESENTATION(#16,'Body','SweptSolid',(#337));
#339=IFCPRODUCTDEFINITIONSHAPE($,$,(#338));
#340=IFCOWNERHISTORY(#3,#4,.READWRITE.,.MODIFIED.,1789307092,#3,#4,1789307092);
#341=IFCBEAM('3rfuf6RtnAJAE83awCrmYY',#340,'U-01-04',$,$,#346,#361,$,.BEAM.);
#342=IFCCARTESIANPOINT((0.,0.,5.7999999999999998));
#343=IFCDIRECTION((0.,0.,1.));
#344=IFCDIRECTION((1.,0.,0.));
#345=IFCAXIS2PLACEMENT3D(#342,#343,#344);
#346=IFCLOCALPLACEMENT(#43,#345);
#347=IFCCARTESIANPOINT((0.,3.875,0.));
#348=IFCCARTESIANPOINT((7.2000000000000002,3.875,0.));
#349=IFCCARTESIANPOINT((7.2000000000000002,4.125,0.));
#350=IFCCARTESIANPOINT((0.,4.125,0.));
#351=IFCCARTESIANPOINT((0.,3.875,0.));
#352=IFCPOLYLINE((#347,#348,#349,#350,#351));
#353=IFCARBITRARYCLOSEDPROFILEDEF(.AREA.,$,#352);
#354=IFCCARTESIANPOINT((0.,0.,0.));
#355=IFCDIRECTION((0.,0.,1.));
#356=IFCDIRECTION((1.,0.,0.));
#357=IFCAXIS2PLACEMENT3D(#354,#355,#356);
#358=IFCDIRECTION((0.,0.,1.));
#359=IFCEXTRUDEDAREASOLID(#353,#357,#358,0.5);
#360=IFCSHAPEREPRESENTATION(#16,'Body','SweptSolid',(#359));
#361=IFCPRODUCTDEFINITIONSHAPE($,$,(#360));
#362=IFCOWNERHISTORY(#3,#4,.READWRITE.,.MODIFIED.,1789307092,#3,#4,1789307092);
#363=IFCWALL('0VEIejBmXEWAG6_wdA5bEQ',#362,'LR-01-Partition',$,$,#368,#383,$,.PARTITIONING.);
#364=IFCCARTESIANPOINT((4.2000000000000002,0.,-0.10000000000000001));
#365=IFCDIRECTION((0.,0.,1.));
#366=IFCDIRECTION((0.,1.,0.));
#367=IFCAXIS2PLACEMENT3D(#364,#365,#366);
#368=IFCLOCALPLACEMENT(#43,#367);
#369=IFCCARTESIANPOINT((0.,0.,0.));
#370=IFCCARTESIANPOINT((5.,0.,0.));
#371=IFCCARTESIANPOINT((5.,0.20000000000000001,0.));
#372=IFCCARTESIANPOINT((0.,0.20000000000000001,0.));
#373=IFCCARTESIANPOINT((0.,0.,0.));
#374=IFCPOLYLINE((#369,#370,#371,#372,#373));
#375=IFCARBITRARYCLOSEDPROFILEDEF(.AREA.,$,#374);
#376=IFCCARTESIANPOINT((0.,0.,0.));
#377=IFCDIRECTION((0.,0.,1.));
#378=IFCDIRECTION((1.,0.,0.));
#379=IFCAXIS2PLACEMENT3D(#376,#377,#378);
#380=IFCDIRECTION((0.,0.,1.));
#381=IFCEXTRUDEDAREASOLID(#375,#379,#380,2.8999999999999999);
#382=IFCSHAPEREPRESENTATION(#16,'Body','SweptSolid',(#381));
#383=IFCPRODUCTDEFINITIONSHAPE($,$,(#382));
#384=IFCOWNERHISTORY(#3,#4,.READWRITE.,.MODIFIED.,1789307092,#3,#4,1789307092);
#385=IFCSPACE('3o$Mqwo0DCXhb8kJDT_36g',#384,'102',$,$,#390,#405,'Flur',$,.INTERNAL.,$);
#386=IFCCARTESIANPOINT((0.,0.,0.));
#387=IFCDIRECTION((0.,0.,1.));
#388=IFCDIRECTION((1.,0.,0.));
#389=IFCAXIS2PLACEMENT3D(#386,#387,#388);
#390=IFCLOCALPLACEMENT(#43,#389);
#391=IFCCARTESIANPOINT((4.2000000000000002,0.,0.));
#392=IFCCARTESIANPOINT((7.2000000000000002,0.,0.));
#393=IFCCARTESIANPOINT((7.2000000000000002,5.,0.));
#394=IFCCARTESIANPOINT((4.2000000000000002,5.,0.));
#395=IFCCARTESIANPOINT((4.2000000000000002,0.,0.));
#396=IFCPOLYLINE((#391,#392,#393,#394,#395));
#397=IFCARBITRARYCLOSEDPROFILEDEF(.AREA.,$,#396);
#398=IFCCARTESIANPOINT((0.,0.,0.));
#399=IFCDIRECTION((0.,0.,1.));
#400=IFCDIRECTION((1.,0.,0.));
#401=IFCAXIS2PLACEMENT3D(#398,#399,#400);
#402=IFCDIRECTION((0.,0.,1.));
#403=IFCEXTRUDEDAREASOLID(#397,#401,#402,2.7999999999999998);
#404=IFCSHAPEREPRESENTATION(#16,'Body','SweptSolid',(#403));
#405=IFCPRODUCTDEFINITIONSHAPE($,$,(#404));
#406=IFCOWNERHISTORY(#3,#4,.READWRITE.,.ADDED.,1789307092,#3,#4,1789307092);
#407=IFCELEMENTQUANTITY('1tIFwOszD1vQZCZjUvTle1',#406,'Qto_SpaceBaseQuantities',$,'BaseQuantities',(#410,#411,#412,#413,#414));
#408=IFCOWNERHISTORY(#3,#4,.READWRITE.,.ADDED.,1789307092,#3,#4,1789307092);
#409=IFCRELDEFINESBYPROPERTIES('1L3fFwP9rCrg95L790ueqN',#408,$,$,(#385),#407);
#410=IFCQUANTITYAREA('NetFloorArea',$,$,15.,$);
#411=IFCQUANTITYLENGTH('Height',$,$,2.7999999999999998,$);
#412=IFCQUANTITYLENGTH('FinishCeilingHeight',$,$,2.7999999999999998,$);
#413=IFCQUANTITYAREA('GrossFloorArea',$,$,15.,$);
#414=IFCQUANTITYVOLUME('GrossVolume',$,$,42.,$);
#415=IFCOWNERHISTORY(#3,#4,.READWRITE.,.ADDED.,1789307092,#3,#4,1789307092);
#416=IFCPROPERTYSET('3_xwy_8LTDouIvNSEDNCp9',#415,'ePset_Space',$,(#419));
#417=IFCOWNERHISTORY(#3,#4,.READWRITE.,.ADDED.,1789307092,#3,#4,1789307092);
#418=IFCRELDEFINESBYPROPERTIES('33gStTevr74Rdqca1K21IK',#417,$,$,(#385),#416);
#419=IFCPROPERTYSINGLEVALUE('SignageRoomNumber',$,IFCIDENTIFIER('102'),$);
#420=IFCOWNERHISTORY(#3,#4,.READWRITE.,.ADDED.,1789307092,#3,#4,1789307092);
#421=IFCPROPERTYSET('186KSt9PH0nArZPNioeeD8',#420,'Pset_SpaceCommon',$,(#424,#425));
#422=IFCOWNERHISTORY(#3,#4,.READWRITE.,.ADDED.,1789307092,#3,#4,1789307092);
#423=IFCRELDEFINESBYPROPERTIES('0DeQcchfb0QeQvBcXiWMl_',#422,$,$,(#385),#421);
#424=IFCPROPERTYSINGLEVALUE('Reference',$,IFCIDENTIFIER('VF'),$);
#425=IFCPROPERTYSINGLEVALUE('IsExternal',$,IFCBOOLEAN(.F.),$);
#426=IFCOWNERHISTORY(#3,#4,.READWRITE.,.ADDED.,1789307092,#3,#4,1789307092);
#427=IFCPROPERTYSET('2XVSC9GLbEOBENX5Myh_5j',#426,'Pset_SpaceCoveringRequirements',$,(#430));
#428=IFCOWNERHISTORY(#3,#4,.READWRITE.,.ADDED.,1789307092,#3,#4,1789307092);
#429=IFCRELDEFINESBYPROPERTIES('0md$0zAwj58gg2Z2EX8flx',#428,$,$,(#385),#427);
#430=IFCPROPERTYSINGLEVALUE('FloorCovering',$,IFCLABEL('PVC'),$);
#431=IFCOWNERHISTORY(#3,#4,.READWRITE.,.ADDED.,1789307092,#3,#4,1789307092);
#432=IFCPROPERTYSET('0I$aPBrX9CSwJ9lOY1rYXy',#431,'Pset_SpaceThermalDesign',$,(#435));
#433=IFCOWNERHISTORY(#3,#4,.READWRITE.,.ADDED.,1789307092,#3,#4,1789307092);
#434=IFCRELDEFINESBYPROPERTIES('05PZfQhCj76OppBCdnqIFB',#433,$,$,(#385),#432);
#435=IFCPROPERTYSINGLEVALUE('TotalHeatLoss',$,IFCPOWERMEASURE(1.),$);
#436=IFCOWNERHISTORY(#3,#4,.READWRITE.,.ADDED.,1789307092,#3,#4,1789307092);
#437=IFCPROPERTYSET('30WU7riV168PL1KJRGE1Pf',#436,'ePset_SpaceRequirement',$,(#440,#441,#442));
#438=IFCOWNERHISTORY(#3,#4,.READWRITE.,.ADDED.,1789307092,#3,#4,1789307092);
#439=IFCRELDEFINESBYPROPERTIES('0EU$$tpQ5BcBAlDkxymEnK',#438,$,$,(#385),#437);
#440=IFCPROPERTYSINGLEVALUE('DesignAreaLoad',$,IFCREAL(2.),$);
#441=IFCPROPERTYSINGLEVALUE('DesignPointLoad',$,IFCREAL(1.5),$);
#442=IFCPROPERTYSINGLEVALUE('VibrationRequirements',$,IFCLABEL('ISO Workshop'),$);
#443=IFCOWNERHISTORY(#3,#4,.READWRITE.,.ADDED.,1789307092,#3,#4,1789307092);
#444=IFCPROPERTYSET('1ZO1xDytTBofMXdDqI8vQV',#443,'ePset_Space',$,(#447));
#445=IFCOWNERHISTORY(#3,#4,.READWRITE.,.ADDED.,1789307092,#3,#4,1789307092);
#446=IFCRELDEFINESBYPROPERTIES('3LL5I3uXr7LhUWI9oynvOf',#445,$,$,(#385),#444);
#447=IFCPROPERTYSINGLEVALUE('Checkliste',$,IFCTEXT('Bodenbelag; Beleuchtung'),$);
#448=IFCOWNERHISTORY(#3,#4,.READWRITE.,.MODIFIED.,1789307092,#3,#4,1789307092);
#449=IFCSPACE('14DGemNn51SR3zPE0AnDBm',#448,'201',$,$,#454,#469,'Buero',$,.INTERNAL.,$);
#450=IFCCARTESIANPOINT((0.,0.,3.1999999999999997));
#451=IFCDIRECTION((0.,0.,1.));
#452=IFCDIRECTION((1.,0.,0.));
#453=IFCAXIS2PLACEMENT3D(#450,#451,#452);
#454=IFCLOCALPLACEMENT(#43,#453);
#455=IFCCARTESIANPOINT((2.5,0.,0.));
#456=IFCCARTESIANPOINT((7.2000000000000002,0.,0.));
#457=IFCCARTESIANPOINT((7.2000000000000002,5.,0.));
#458=IFCCARTESIANPOINT((2.5,5.,0.));
#459=IFCCARTESIANPOINT((2.5,0.,0.));
#460=IFCPOLYLINE((#455,#456,#457,#458,#459));
#461=IFCARBITRARYCLOSEDPROFILEDEF(.AREA.,$,#460);
#462=IFCCARTESIANPOINT((0.,0.,0.));
#463=IFCDIRECTION((0.,0.,1.));
#464=IFCDIRECTION((1.,0.,0.));
#465=IFCAXIS2PLACEMENT3D(#462,#463,#464);
#466=IFCDIRECTION((0.,0.,1.));
#467=IFCEXTRUDEDAREASOLID(#461,#465,#466,3.1000000000000001);
#468=IFCSHAPEREPRESENTATION(#16,'Body','SweptSolid',(#467));
#469=IFCPRODUCTDEFINITIONSHAPE($,$,(#468));
#470=IFCOWNERHISTORY(#3,#4,.READWRITE.,.ADDED.,1789307092,#3,#4,1789307092);
#471=IFCELEMENTQUANTITY('2zsDPS3bbBo8jq2icLTg$a',#470,'Qto_SpaceBaseQuantities',$,'BaseQuantities',(#474,#475,#476,#477,#478));
#472=IFCOWNERHISTORY(#3,#4,.READWRITE.,.ADDED.,1789307092,#3,#4,1789307092);
#473=IFCRELDEFINESBYPROPERTIES('3umPEnlIn7Sg9kT$FLVVw6',#472,$,$,(#449),#471);
#474=IFCQUANTITYAREA('NetFloorArea',$,$,23.5,$);
#475=IFCQUANTITYLENGTH('Height',$,$,3.1000000000000001,$);
#476=IFCQUANTITYLENGTH('FinishCeilingHeight',$,$,3.1000000000000001,$);
#477=IFCQUANTITYAREA('GrossFloorArea',$,$,23.5,$);
#478=IFCQUANTITYVOLUME('GrossVolume',$,$,72.849999999999994,$);
#479=IFCOWNERHISTORY(#3,#4,.READWRITE.,.ADDED.,1789307092,#3,#4,1789307092);
#480=IFCPROPERTYSET('02hAiTzg12y8nyrtm5kY7C',#479,'ePset_Space',$,(#483));
#481=IFCOWNERHISTORY(#3,#4,.READWRITE.,.ADDED.,1789307092,#3,#4,1789307092);
#482=IFCRELDEFINESBYPROPERTIES('2G7JZsxu58Bun4tke5f_6O',#481,$,$,(#449),#480);
#483=IFCPROPERTYSINGLEVALUE('SignageRoomNumber',$,IFCIDENTIFIER('201'),$);
#484=IFCOWNERHISTORY(#3,#4,.READWRITE.,.ADDED.,1789307092,#3,#4,1789307092);
#485=IFCPROPERTYSET('1OvfHwJUz4fBmES3VirN1m',#484,'Pset_SpaceCommon',$,(#488,#489));
#486=IFCOWNERHISTORY(#3,#4,.READWRITE.,.ADDED.,1789307092,#3,#4,1789307092);
#487=IFCRELDEFINESBYPROPERTIES('1PvjXw2TP9AxhoPSD1toVb',#486,$,$,(#449),#485);
#488=IFCPROPERTYSINGLEVALUE('Reference',$,IFCIDENTIFIER('HNF'),$);
#489=IFCPROPERTYSINGLEVALUE('IsExternal',$,IFCBOOLEAN(.F.),$);
#490=IFCOWNERHISTORY(#3,#4,.READWRITE.,.ADDED.,1789307092,#3,#4,1789307092);
#491=IFCPROPERTYSET('3HQYmgO3f8ZP7RClmyc7Ct',#490,'Pset_SpaceCoveringRequirements',$,(#494));
#492=IFCOWNERHISTORY(#3,#4,.READWRITE.,.ADDED.,1789307092,#3,#4,1789307092);
#493=IFCRELDEFINESBYPROPERTIES('2arIO_DprCXBiJCCHtX4PJ',#492,$,$,(#449),#491);
#494=IFCPROPERTYSINGLEVALUE('FloorCovering',$,IFCLABEL('PVC'),$);
#495=IFCOWNERHISTORY(#3,#4,.READWRITE.,.ADDED.,1789307092,#3,#4,1789307092);
#496=IFCPROPERTYSET('3vQ5mm8Wn5tAIhB05kyQXe',#495,'Pset_SpaceThermalDesign',$,(#499));
#497=IFCOWNERHISTORY(#3,#4,.READWRITE.,.ADDED.,1789307092,#3,#4,1789307092);
#498=IFCRELDEFINESBYPROPERTIES('3LE5Hs8zXA594R0Ba9KhS8',#497,$,$,(#449),#496);
#499=IFCPROPERTYSINGLEVALUE('TotalHeatLoss',$,IFCPOWERMEASURE(1.),$);
#500=IFCOWNERHISTORY(#3,#4,.READWRITE.,.ADDED.,1789307092,#3,#4,1789307092);
#501=IFCPROPERTYSET('2TXXuWPUTCShrBXCf3$05N',#500,'ePset_SpaceRequirement',$,(#504,#505,#506));
#502=IFCOWNERHISTORY(#3,#4,.READWRITE.,.ADDED.,1789307092,#3,#4,1789307092);
#503=IFCRELDEFINESBYPROPERTIES('1LcphThJr9Bedvr65uLJev',#502,$,$,(#449),#501);
#504=IFCPROPERTYSINGLEVALUE('DesignAreaLoad',$,IFCREAL(2.),$);
#505=IFCPROPERTYSINGLEVALUE('DesignPointLoad',$,IFCREAL(1.5),$);
#506=IFCPROPERTYSINGLEVALUE('VibrationRequirements',$,IFCLABEL('ISO Office'),$);
#507=IFCOWNERHISTORY(#3,#4,.READWRITE.,.ADDED.,1789307092,#3,#4,1789307092);
#508=IFCPROPERTYSET('25PsW7hzTFnvg_bLKiNeB2',#507,'ePset_Space',$,(#511));
#509=IFCOWNERHISTORY(#3,#4,.READWRITE.,.ADDED.,1789307092,#3,#4,1789307092);
#510=IFCRELDEFINESBYPROPERTIES('3pTLY1iKv8D9e_ie2jQWKe',#509,$,$,(#449),#508);
#511=IFCPROPERTYSINGLEVALUE('Checkliste',$,IFCTEXT('Bodenbelag; Beleuchtung'),$);
#512=IFCOWNERHISTORY(#3,#4,.READWRITE.,.ADDED.,1789307092,#3,#4,1789307092);
#513=IFCELEMENTQUANTITY('00jydh99538g9451lCKry5',#512,'Qto_BeamBaseQuantities',$,'BaseQuantities',(#516));
#514=IFCOWNERHISTORY(#3,#4,.READWRITE.,.ADDED.,1789307092,#3,#4,1789307092);
#515=IFCRELDEFINESBYPROPERTIES('26aFf9Dkj6wBxHjnc1uO4r',#514,$,$,(#275),#513);
#516=IFCQUANTITYVOLUME('GrossVolume',$,$,0.90000000000000002,$);
#517=IFCOWNERHISTORY(#3,#4,.READWRITE.,.ADDED.,1789307092,#3,#4,1789307092);
#518=IFCPROPERTYSET('3TTtxTqqL1UhD5WLeIC4kZ',#517,'Pset_BeamCommon',$,(#521,#522,#523));
#519=IFCOWNERHISTORY(#3,#4,.READWRITE.,.ADDED.,1789307092,#3,#4,1789307092);
#520=IFCRELDEFINESBYPROPERTIES('1edW39SUj2ZBsGDJfqVOAd',#519,$,$,(#275),#518);
#521=IFCPROPERTYSINGLEVALUE('LoadBearing',$,IFCBOOLEAN(.T.),$);
#522=IFCPROPERTYSINGLEVALUE('Status',$,IFCLABEL('NEW'),$);
#523=IFCPROPERTYSINGLEVALUE('FireRating',$,IFCLABEL('R 90'),$);
#524=IFCOWNERHISTORY(#3,#4,.READWRITE.,.ADDED.,1789307092,#3,#4,1789307092);
#525=IFCPROPERTYSET('1539ObB$j8$fseRYbr5t5n',#524,'ePset_Cost',$,(#528,#529,#530,#531,#532));
#526=IFCOWNERHISTORY(#3,#4,.READWRITE.,.ADDED.,1789307092,#3,#4,1789307092);
#527=IFCRELDEFINESBYPROPERTIES('2PR4NMKqbEpQ_xgELpGz4l',#526,$,$,(#275),#525);
#528=IFCPROPERTYSINGLEVALUE('CostInterface',$,IFCLABEL('GAB'),$);
#529=IFCPROPERTYSINGLEVALUE('AwardInterface',$,IFCLABEL('211'),$);
#530=IFCPROPERTYSINGLEVALUE('PlanningInterface',$,IFCLABEL('031'),$);
#531=IFCPROPERTYSINGLEVALUE('eBKP',$,IFCLABEL('C04.01'),$);
#532=IFCPROPERTYSINGLEVALUE('CalculatedType',$,IFCLABEL('Tr\X2\00E4\X0\ger_Stahl_HEA200'),$);
#533=IFCOWNERHISTORY(#3,#4,.READWRITE.,.ADDED.,1789307092,#3,#4,1789307092);
#534=IFCELEMENTQUANTITY('2wl1NCfTf9iuY4UU5qAPMj',#533,'Qto_BeamBaseQuantities',$,'BaseQuantities',(#537));
#535=IFCOWNERHISTORY(#3,#4,.READWRITE.,.ADDED.,1789307092,#3,#4,1789307092);
#536=IFCRELDEFINESBYPROPERTIES('1JfFqa7XPCrflqcWYci0iL',#535,$,$,(#297),#534);
#537=IFCQUANTITYVOLUME('GrossVolume',$,$,0.90000000000000002,$);
#538=IFCOWNERHISTORY(#3,#4,.READWRITE.,.ADDED.,1789307092,#3,#4,1789307092);
#539=IFCPROPERTYSET('3W0oChFDvCNPLQE2Ee3gtk',#538,'Pset_BeamCommon',$,(#542,#543,#544));
#540=IFCOWNERHISTORY(#3,#4,.READWRITE.,.ADDED.,1789307092,#3,#4,1789307092);
#541=IFCRELDEFINESBYPROPERTIES('1$bD3NwvHFPuTvHl2MrYMX',#540,$,$,(#297),#539);
#542=IFCPROPERTYSINGLEVALUE('LoadBearing',$,IFCBOOLEAN(.T.),$);
#543=IFCPROPERTYSINGLEVALUE('Status',$,IFCLABEL('NEW'),$);
#544=IFCPROPERTYSINGLEVALUE('FireRating',$,IFCLABEL('R 90'),$);
#545=IFCOWNERHISTORY(#3,#4,.READWRITE.,.ADDED.,1789307092,#3,#4,1789307092);
#546=IFCPROPERTYSET('141nfyWKf6mwVxEhLSAEEa',#545,'ePset_Cost',$,(#549,#550,#551,#552,#553));
#547=IFCOWNERHISTORY(#3,#4,.READWRITE.,.ADDED.,1789307092,#3,#4,1789307092);
#548=IFCRELDEFINESBYPROPERTIES('2riAcLCHr2M9dsh8IuYViN',#547,$,$,(#297),#546);
#549=IFCPROPERTYSINGLEVALUE('CostInterface',$,IFCLABEL('GAB'),$);
#550=IFCPROPERTYSINGLEVALUE('AwardInterface',$,IFCLABEL('211'),$);
#551=IFCPROPERTYSINGLEVALUE('PlanningInterface',$,IFCLABEL('031'),$);
#552=IFCPROPERTYSINGLEVALUE('eBKP',$,IFCLABEL('C04.01'),$);
#553=IFCPROPERTYSINGLEVALUE('CalculatedType',$,IFCLABEL('Tr\X2\00E4\X0\ger_Stahl_HEA200'),$);
#554=IFCOWNERHISTORY(#3,#4,.READWRITE.,.ADDED.,1789307092,#3,#4,1789307092);
#555=IFCELEMENTQUANTITY('3176tcr5j3VBrY887jZKou',#554,'Qto_BeamBaseQuantities',$,'BaseQuantities',(#558));
#556=IFCOWNERHISTORY(#3,#4,.READWRITE.,.ADDED.,1789307092,#3,#4,1789307092);
#557=IFCRELDEFINESBYPROPERTIES('3$xuaqKdv1AQybDPaWU6LJ',#556,$,$,(#319),#555);
#558=IFCQUANTITYVOLUME('GrossVolume',$,$,0.90000000000000002,$);
#559=IFCOWNERHISTORY(#3,#4,.READWRITE.,.ADDED.,1789307092,#3,#4,1789307092);
#560=IFCPROPERTYSET('2$g6b1JIjF08xeytlQh7Hf',#559,'Pset_BeamCommon',$,(#563,#564,#565));
#561=IFCOWNERHISTORY(#3,#4,.READWRITE.,.ADDED.,1789307092,#3,#4,1789307092);
#562=IFCRELDEFINESBYPROPERTIES('1LS0A$cpD5rfpsJfPE9rX3',#561,$,$,(#319),#560);
#563=IFCPROPERTYSINGLEVALUE('LoadBearing',$,IFCBOOLEAN(.T.),$);
#564=IFCPROPERTYSINGLEVALUE('Status',$,IFCLABEL('NEW'),$);
#565=IFCPROPERTYSINGLEVALUE('FireRating',$,IFCLABEL('R 90'),$);
#566=IFCOWNERHISTORY(#3,#4,.READWRITE.,.ADDED.,1789307092,#3,#4,1789307092);
#567=IFCPROPERTYSET('1q85tPNEbADPE$IZig_U6a',#566,'ePset_Cost',$,(#570,#571,#572,#573,#574));
#568=IFCOWNERHISTORY(#3,#4,.READWRITE.,.ADDED.,1789307092,#3,#4,1789307092);
#569=IFCRELDEFINESBYPROPERTIES('2ahl1cVof2B9v92fHjsLMb',#568,$,$,(#319),#567);
#570=IFCPROPERTYSINGLEVALUE('CostInterface',$,IFCLABEL('GAB'),$);
#571=IFCPROPERTYSINGLEVALUE('AwardInterface',$,IFCLABEL('211'),$);
#572=IFCPROPERTYSINGLEVALUE('PlanningInterface',$,IFCLABEL('031'),$);
#573=IFCPROPERTYSINGLEVALUE('eBKP',$,IFCLABEL('C04.01'),$);
#574=IFCPROPERTYSINGLEVALUE('CalculatedType',$,IFCLABEL('Tr\X2\00E4\X0\ger_Stahl_HEA200'),$);
#575=IFCOWNERHISTORY(#3,#4,.READWRITE.,.ADDED.,1789307092,#3,#4,1789307092);
#576=IFCELEMENTQUANTITY('2W8yj7u2TCbuCXny_8EvRQ',#575,'Qto_BeamBaseQuantities',$,'BaseQuantities',(#579));
#577=IFCOWNERHISTORY(#3,#4,.READWRITE.,.ADDED.,1789307092,#3,#4,1789307092);
#578=IFCRELDEFINESBYPROPERTIES('2G6KapGl96h98S_H1B_zTq',#577,$,$,(#341),#576);
#579=IFCQUANTITYVOLUME('GrossVolume',$,$,0.90000000000000002,$);
#580=IFCOWNERHISTORY(#3,#4,.READWRITE.,.ADDED.,1789307092,#3,#4,1789307092);
#581=IFCPROPERTYSET('1bKQRXv3z7KfSKeDKHv_iN',#580,'Pset_BeamCommon',$,(#584,#585,#586));
#582=IFCOWNERHISTORY(#3,#4,.READWRITE.,.ADDED.,1789307092,#3,#4,1789307092);
#583=IFCRELDEFINESBYPROPERTIES('0xkIp2znLF_RTW0d_eYI0Q',#582,$,$,(#341),#581);
#584=IFCPROPERTYSINGLEVALUE('LoadBearing',$,IFCBOOLEAN(.T.),$);
#585=IFCPROPERTYSINGLEVALUE('Status',$,IFCLABEL('NEW'),$);
#586=IFCPROPERTYSINGLEVALUE('FireRating',$,IFCLABEL('R 90'),$);
#587=IFCOWNERHISTORY(#3,#4,.READWRITE.,.ADDED.,1789307092,#3,#4,1789307092);
#588=IFCPROPERTYSET('1a1Oy3TOf1BRUEiUuHq20i',#587,'ePset_Cost',$,(#591,#592,#593,#594,#595));
#589=IFCOWNERHISTORY(#3,#4,.READWRITE.,.ADDED.,1789307092,#3,#4,1789307092);
#590=IFCRELDEFINESBYPROPERTIES('3bg8dcW1bF2B2WUnwtacbU',#589,$,$,(#341),#588);
#591=IFCPROPERTYSINGLEVALUE('CostInterface',$,IFCLABEL('GAB'),$);
#592=IFCPROPERTYSINGLEVALUE('AwardInterface',$,IFCLABEL('211'),$);
#593=IFCPROPERTYSINGLEVALUE('PlanningInterface',$,IFCLABEL('031'),$);
#594=IFCPROPERTYSINGLEVALUE('eBKP',$,IFCLABEL('C04.01'),$);
#595=IFCPROPERTYSINGLEVALUE('CalculatedType',$,IFCLABEL('Tr\X2\00E4\X0\ger_Stahl_HEA200'),$);
ENDSEC;
END-ISO-10303-21;
