ISO-10303-21;
HEADER;
FILE_DESCRIPTION(('ViewDefinition[DesignTransferView]'),'2;1');
FILE_NAME('/dev/null','2026-09-13T15:44:59+02:00',(''),(''),'IfcOpenShell 0.8.5','IfcOpenShell 0.8.5','Nobody');
FILE_SCHEMA(('IFC4'));
ENDSEC;
DATA;
#1=IFCPERSON('catalog-pipeline','Pipeline','Catalog',$,$,$,$,$);
#2=IFCORGANIZATION('pragmaticBIM','pragmaticBIM',$,$,$);
#3=IFCPERSONANDORGANIZATION(#1,#2,$);
#4=IFCAPPLICATION(#2,'0.1.0','Catalog IFC Pipeline','catalog-ifc-pipeline');
#5=IFCOWNERHISTORY(#3,#4,.READWRITE.,.ADDED.,1789307099,#3,#4,1789307099);
#6=IFCPROJECT('0iqYxcFoT0LvlWRvmCWvxp',#5,'Catalog \X2\2014\X0\ 201',$,$,$,$,(#15),#10);
#7=IFCSIUNIT(*,.LENGTHUNIT.,$,.METRE.);
#8=IFCSIUNIT(*,.AREAUNIT.,$,.SQUARE_METRE.);
#9=IFCSIUNIT(*,.VOLUMEUNIT.,$,.CUBIC_METRE.);
#10=IFCUNITASSIGNMENT((#9,#7,#8));
#11=IFCCARTESIANPOINT((0.,0.,0.));
#12=IFCDIRECTION((0.,0.,1.));
#13=IFCDIRECTION((1.,0.,0.));
#14=IFCAXIS2PLACEMENT3D(#11,#12,#13);
#15=IFCGEOMETRICREPRESENTATIONCONTEXT($,'Model',3,1.0000000000000001E-05,#14,$);
#16=IFCGEOMETRICREPRESENTATIONSUBCONTEXT('Body','Model',*,*,*,*,#15,$,.MODEL_VIEW.,$);
#17=IFCOWNERHISTORY(#3,#4,.READWRITE.,.MODIFIED.,1789307099,#3,#4,1789307099);
#18=IFCSITE('1Q_2PrK5D4leAyit01CgGZ',#17,'Site',$,$,#29,$,$,$,$,$,$,$,$);
#19=IFCOWNERHISTORY(#3,#4,.READWRITE.,.MODIFIED.,1789307099,#3,#4,1789307099);
#20=IFCBUILDING('2EcAiLRq93oOYMVUTq7a6p',#19,'Building',$,$,#34,$,$,$,$,$,$);
#21=IFCOWNERHISTORY(#3,#4,.READWRITE.,.ADDED.,1789307099,#3,#4,1789307099);
#22=IFCRELAGGREGATES('2JeMd_ncPAa8NXWmzHRXO7',#21,$,$,#6,(#18));
#23=IFCOWNERHISTORY(#3,#4,.READWRITE.,.ADDED.,1789307099,#3,#4,1789307099);
#24=IFCRELAGGREGATES('2sjW_MiJfBMfneabEwZheg',#23,$,$,#18,(#20));
#25=IFCCARTESIANPOINT((0.,0.,0.));
#26=IFCDIRECTION((0.,0.,1.));
#27=IFCDIRECTION((1.,0.,0.));
#28=IFCAXIS2PLACEMENT3D(#25,#26,#27);
#29=IFCLOCALPLACEMENT($,#28);
#30=IFCCARTESIANPOINT((0.,0.,0.));
#31=IFCDIRECTION((0.,0.,1.));
#32=IFCDIRECTION((1.,0.,0.));
#33=IFCAXIS2PLACEMENT3D(#30,#31,#32);
#34=IFCLOCALPLACEMENT(#29,#33);
#35=IFCOWNERHISTORY(#3,#4,.READWRITE.,.MODIFIED.,1789307099,#3,#4,1789307099);
#36=IFCBUILDINGSTOREY('3NrsIrL$T5MxO3W7VolVO_',#35,'Level 0',$,$,#43,$,$,$,0.);
#37=IFCOWNERHISTORY(#3,#4,.READWRITE.,.ADDED.,1789307099,#3,#4,1789307099);
#38=IFCRELAGGREGATES('1tfM_F5UT4SeocRBse0MEq',#37,$,$,#20,(#36));
#39=IFCCARTESIANPOINT((0.,0.,0.));
#40=IFCDIRECTION((0.,0.,1.));
#41=IFCDIRECTION((1.,0.,0.));
#42=IFCAXIS2PLACEMENT3D(#39,#40,#41);
#43=IFCLOCALPLACEMENT(#34,#42);
#44=IFCOWNERHISTORY(#3,#4,.READWRITE.,.MODIFIED.,1789307099,#3,#4,1789307099);
#45=IFCSLAB('2Uk64cZwXAJBTJdODDkCR2',#44,'201-FloorSlab',$,$,#52,#67,$,.FLOOR.);
#46=IFCOWNERHISTORY(#3,#4,.READWRITE.,.MODIFIED.,1789307099,#3,#4,1789307099);
#47=IFCRELCONTAINEDINSPATIALSTRUCTURE('3CsCK$wajDMvPFSabFH7oM',#46,$,$,(#251,#45,#374,#386,#69,#91,#113,#492),#36);
#48=IFCCARTESIANPOINT((0.,0.,-0.29999999999999999));
#49=IFCDIRECTION((0.,0.,1.));
#50=IFCDIRECTION((1.,0.,0.));
#51=IFCAXIS2PLACEMENT3D(#48,#49,#50);
#52=IFCLOCALPLACEMENT(#43,#51);
#53=IFCCARTESIANPOINT((0.,0.,0.));
#54=IFCCARTESIANPOINT((2.3599999999999999,0.,0.));
#55=IFCCARTESIANPOINT((2.3599999999999999,5.,0.));
#56=IFCCARTESIANPOINT((0.,5.,0.));
#57=IFCCARTESIANPOINT((0.,0.,0.));
#58=IFCPOLYLINE((#53,#54,#55,#56,#57));
#59=IFCARBITRARYCLOSEDPROFILEDEF(.AREA.,$,#58);
#60=IFCCARTESIANPOINT((0.,0.,0.));
#61=IFCDIRECTION((0.,0.,1.));
#62=IFCDIRECTION((1.,0.,0.));
#63=IFCAXIS2PLACEMENT3D(#60,#61,#62);
#64=IFCDIRECTION((0.,0.,1.));
#65=IFCEXTRUDEDAREASOLID(#59,#63,#64,0.29999999999999999);
#66=IFCSHAPEREPRESENTATION(#16,'Body','SweptSolid',(#65));
#67=IFCPRODUCTDEFINITIONSHAPE($,$,(#66));
#68=IFCOWNERHISTORY(#3,#4,.READWRITE.,.MODIFIED.,1789307099,#3,#4,1789307099);
#69=IFCSLAB('2LBRgvrE12PQOuvh6N1jVL',#68,'201-BalconySlab',$,$,#74,#89,$,.FLOOR.);
#70=IFCCARTESIANPOINT((0.,0.,-0.29999999999999999));
#71=IFCDIRECTION((0.,0.,1.));
#72=IFCDIRECTION((1.,0.,0.));
#73=IFCAXIS2PLACEMENT3D(#70,#71,#72);
#74=IFCLOCALPLACEMENT(#43,#73);
#75=IFCCARTESIANPOINT((2.3599999999999999,0.,0.));
#76=IFCCARTESIANPOINT((3.9199999999999999,0.,0.));
#77=IFCCARTESIANPOINT((3.9199999999999999,5.,0.));
#78=IFCCARTESIANPOINT((2.3599999999999999,5.,0.));
#79=IFCCARTESIANPOINT((2.3599999999999999,0.,0.));
#80=IFCPOLYLINE((#75,#76,#77,#78,#79));
#81=IFCARBITRARYCLOSEDPROFILEDEF(.AREA.,$,#80);
#82=IFCCARTESIANPOINT((0.,0.,0.));
#83=IFCDIRECTION((0.,0.,1.));
#84=IFCDIRECTION((1.,0.,0.));
#85=IFCAXIS2PLACEMENT3D(#82,#83,#84);
#86=IFCDIRECTION((0.,0.,1.));
#87=IFCEXTRUDEDAREASOLID(#81,#85,#86,0.29999999999999999);
#88=IFCSHAPEREPRESENTATION(#16,'Body','SweptSolid',(#87));
#89=IFCPRODUCTDEFINITIONSHAPE($,$,(#88));
#90=IFCOWNERHISTORY(#3,#4,.READWRITE.,.MODIFIED.,1789307099,#3,#4,1789307099);
#91=IFCWALL('05vod8Cov4XBqbfhyhp6uv',#90,'201-ExteriorWall',$,$,#96,#111,$,.SOLIDWALL.);
#92=IFCCARTESIANPOINT((2.3599999999999999,0.,0.));
#93=IFCDIRECTION((0.,0.,1.));
#94=IFCDIRECTION((0.,1.,0.));
#95=IFCAXIS2PLACEMENT3D(#92,#93,#94);
#96=IFCLOCALPLACEMENT(#43,#95);
#97=IFCCARTESIANPOINT((0.,0.,0.));
#98=IFCCARTESIANPOINT((5.,0.,0.));
#99=IFCCARTESIANPOINT((5.,0.35999999999999999,0.));
#100=IFCCARTESIANPOINT((0.,0.35999999999999999,0.));
#101=IFCCARTESIANPOINT((0.,0.,0.));
#102=IFCPOLYLINE((#97,#98,#99,#100,#101));
#103=IFCARBITRARYCLOSEDPROFILEDEF(.AREA.,$,#102);
#104=IFCCARTESIANPOINT((0.,0.,0.));
#105=IFCDIRECTION((0.,0.,1.));
#106=IFCDIRECTION((1.,0.,0.));
#107=IFCAXIS2PLACEMENT3D(#104,#105,#106);
#108=IFCDIRECTION((0.,0.,1.));
#109=IFCEXTRUDEDAREASOLID(#103,#107,#108,2.7999999999999998);
#110=IFCSHAPEREPRESENTATION(#16,'Body','SweptSolid',(#109));
#111=IFCPRODUCTDEFINITIONSHAPE($,$,(#110));
#112=IFCOWNERHISTORY(#3,#4,.READWRITE.,.MODIFIED.,1789307099,#3,#4,1789307099);
#113=IFCCOVERING('3UiBQ8WfH3iuPkz9ruODmu',#112,'FB-01',$,$,#118,#133,$,.CLADDING.);
#114=IFCCARTESIANPOINT((2.4199999999999995,0.,0.));
#115=IFCDIRECTION((0.,0.,1.));
#116=IFCDIRECTION((0.,1.,0.));
#117=IFCAXIS2PLACEMENT3D(#114,#115,#116);
#118=IFCLOCALPLACEMENT(#43,#117);
#119=IFCCARTESIANPOINT((0.,0.,0.));
#120=IFCCARTESIANPOINT((5.,0.,0.));
#121=IFCCARTESIANPOINT((5.,0.050000000000000003,0.));
#122=IFCCARTESIANPOINT((0.,0.050000000000000003,0.));
#123=IFCCARTESIANPOINT((0.,0.,0.));
#124=IFCPOLYLINE((#119,#120,#121,#122,#123));
#125=IFCARBITRARYCLOSEDPROFILEDEF(.AREA.,$,#124);
#126=IFCCARTESIANPOINT((0.,0.,0.));
#127=IFCDIRECTION((0.,0.,1.));
#128=IFCDIRECTION((1.,0.,0.));
#129=IFCAXIS2PLACEMENT3D(#126,#127,#128);
#130=IFCDIRECTION((0.,0.,1.));
#131=IFCEXTRUDEDAREASOLID(#125,#129,#130,2.7999999999999998);
#132=IFCSHAPEREPRESENTATION(#16,'Body','SweptSolid',(#131));
#133=IFCPRODUCTDEFINITIONSHAPE($,$,(#132));
#134=IFCOWNERHISTORY(#3,#4,.READWRITE.,.MODIFIED.,1789307099,#3,#4,1789307099);
#135=IFCOPENINGELEMENT('2pO5n8oC58cu72o3EyM$$D',#134,'201-DoorOpening',$,$,#162,#155,$,.OPENING.);
#141=IFCCARTESIANPOINT((3.6999999999999997,-0.01,0.));
#142=IFCCARTESIANPOINT((4.5999999999999996,-0.01,0.));
#143=IFCCARTESIANPOINT((4.5999999999999996,0.38,0.));
#144=IFCCARTESIANPOINT((3.6999999999999997,0.38,0.));
#145=IFCCARTESIANPOINT((3.6999999999999997,-0.01,0.));
#146=IFCPOLYLINE((#141,#142,#143,#144,#145));
#147=IFCARBITRARYCLOSEDPROFILEDEF(.AREA.,$,#146);
#148=IFCCARTESIANPOINT((0.,0.,0.));
#149=IFCDIRECTION((0.,0.,1.));
#150=IFCDIRECTION((1.,0.,0.));
#151=IFCAXIS2PLACEMENT3D(#148,#149,#150);
#152=IFCDIRECTION((0.,0.,1.));
#153=IFCEXTRUDEDAREASOLID(#147,#151,#152,2.1000000000000001);
#154=IFCSHAPEREPRESENTATION(#16,'Body','SweptSolid',(#153));
#155=IFCPRODUCTDEFINITIONSHAPE($,$,(#154));
#156=IFCOWNERHISTORY(#3,#4,.READWRITE.,.ADDED.,1789307099,#3,#4,1789307099);
#157=IFCRELVOIDSELEMENT('1U9RpRv151vfi5fAz8vCBB',#156,$,$,#91,#135);
#158=IFCCARTESIANPOINT((0.,0.,0.));
#159=IFCDIRECTION((0.,0.,1.));
#160=IFCDIRECTION((1.,0.,0.));
#161=IFCAXIS2PLACEMENT3D(#158,#159,#160);
#162=IFCLOCALPLACEMENT(#96,#161);
#163=IFCOWNERHISTORY(#3,#4,.READWRITE.,.MODIFIED.,1789307099,#3,#4,1789307099);
#164=IFCOPENINGELEMENT('0jT6pSlaTD690nSC0WGtuG',#163,'201-WindowOpening',$,$,#191,#184,$,.OPENING.);
#170=IFCCARTESIANPOINT((0.40000000000000002,-0.01,0.));
#171=IFCCARTESIANPOINT((1.6000000000000001,-0.01,0.));
#172=IFCCARTESIANPOINT((1.6000000000000001,0.38,0.));
#173=IFCCARTESIANPOINT((0.40000000000000002,0.38,0.));
#174=IFCCARTESIANPOINT((0.40000000000000002,-0.01,0.));
#175=IFCPOLYLINE((#170,#171,#172,#173,#174));
#176=IFCARBITRARYCLOSEDPROFILEDEF(.AREA.,$,#175);
#177=IFCCARTESIANPOINT((0.,0.,0.90000000000000002));
#178=IFCDIRECTION((0.,0.,1.));
#179=IFCDIRECTION((1.,0.,0.));
#180=IFCAXIS2PLACEMENT3D(#177,#178,#179);
#181=IFCDIRECTION((0.,0.,1.));
#182=IFCEXTRUDEDAREASOLID(#176,#180,#181,1.3999999999999999);
#183=IFCSHAPEREPRESENTATION(#16,'Body','SweptSolid',(#182));
#184=IFCPRODUCTDEFINITIONSHAPE($,$,(#183));
#185=IFCOWNERHISTORY(#3,#4,.READWRITE.,.ADDED.,1789307099,#3,#4,1789307099);
#186=IFCRELVOIDSELEMENT('00_4ID0Kn1oPx6t1AyKV4O',#185,$,$,#91,#164);
#187=IFCCARTESIANPOINT((0.,0.,0.));
#188=IFCDIRECTION((0.,0.,1.));
#189=IFCDIRECTION((1.,0.,0.));
#190=IFCAXIS2PLACEMENT3D(#187,#188,#189);
#191=IFCLOCALPLACEMENT(#96,#190);
#192=IFCOWNERHISTORY(#3,#4,.READWRITE.,.MODIFIED.,1789307099,#3,#4,1789307099);
#193=IFCOPENINGELEMENT('1zIzgkAFjD8h$s0NvnOM$F',#192,'201-DoorOpening-Cladding',$,$,#220,#213,$,.OPENING.);
#199=IFCCARTESIANPOINT((3.6999999999999997,-0.01,0.));
#200=IFCCARTESIANPOINT((4.5999999999999996,-0.01,0.));
#201=IFCCARTESIANPOINT((4.5999999999999996,0.070000000000000007,0.));
#202=IFCCARTESIANPOINT((3.6999999999999997,0.070000000000000007,0.));
#203=IFCCARTESIANPOINT((3.6999999999999997,-0.01,0.));
#204=IFCPOLYLINE((#199,#200,#201,#202,#203));
#205=IFCARBITRARYCLOSEDPROFILEDEF(.AREA.,$,#204);
#206=IFCCARTESIANPOINT((0.,0.,0.));
#207=IFCDIRECTION((0.,0.,1.));
#208=IFCDIRECTION((1.,0.,0.));
#209=IFCAXIS2PLACEMENT3D(#206,#207,#208);
#210=IFCDIRECTION((0.,0.,1.));
#211=IFCEXTRUDEDAREASOLID(#205,#209,#210,2.1000000000000001);
#212=IFCSHAPEREPRESENTATION(#16,'Body','SweptSolid',(#211));
#213=IFCPRODUCTDEFINITIONSHAPE($,$,(#212));
#214=IFCOWNERHISTORY(#3,#4,.READWRITE.,.ADDED.,1789307099,#3,#4,1789307099);
#215=IFCRELVOIDSELEMENT('3bLDI_gJrE8AWed4UI0fjk',#214,$,$,#113,#193);
#216=IFCCARTESIANPOINT((0.,0.,0.));
#217=IFCDIRECTION((0.,0.,1.));
#218=IFCDIRECTION((1.,0.,0.));
#219=IFCAXIS2PLACEMENT3D(#216,#217,#218);
#220=IFCLOCALPLACEMENT(#118,#219);
#221=IFCOWNERHISTORY(#3,#4,.READWRITE.,.MODIFIED.,1789307099,#3,#4,1789307099);
#222=IFCOPENINGELEMENT('1cuIdsM6rBRuHnsQHYs7IH',#221,'201-WindowOpening-Cladding',$,$,#249,#242,$,.OPENING.);
#228=IFCCARTESIANPOINT((0.40000000000000002,-0.01,0.));
#229=IFCCARTESIANPOINT((1.6000000000000001,-0.01,0.));
#230=IFCCARTESIANPOINT((1.6000000000000001,0.070000000000000007,0.));
#231=IFCCARTESIANPOINT((0.40000000000000002,0.070000000000000007,0.));
#232=IFCCARTESIANPOINT((0.40000000000000002,-0.01,0.));
#233=IFCPOLYLINE((#228,#229,#230,#231,#232));
#234=IFCARBITRARYCLOSEDPROFILEDEF(.AREA.,$,#233);
#235=IFCCARTESIANPOINT((0.,0.,0.90000000000000002));
#236=IFCDIRECTION((0.,0.,1.));
#237=IFCDIRECTION((1.,0.,0.));
#238=IFCAXIS2PLACEMENT3D(#235,#236,#237);
#239=IFCDIRECTION((0.,0.,1.));
#240=IFCEXTRUDEDAREASOLID(#234,#238,#239,1.3999999999999999);
#241=IFCSHAPEREPRESENTATION(#16,'Body','SweptSolid',(#240));
#242=IFCPRODUCTDEFINITIONSHAPE($,$,(#241));
#243=IFCOWNERHISTORY(#3,#4,.READWRITE.,.ADDED.,1789307099,#3,#4,1789307099);
#244=IFCRELVOIDSELEMENT('242G1NcI13eBDgJBYV25Wc',#243,$,$,#113,#222);
#245=IFCCARTESIANPOINT((0.,0.,0.));
#246=IFCDIRECTION((0.,0.,1.));
#247=IFCDIRECTION((1.,0.,0.));
#248=IFCAXIS2PLACEMENT3D(#245,#246,#247);
#249=IFCLOCALPLACEMENT(#118,#248);
#250=IFCOWNERHISTORY(#3,#4,.READWRITE.,.MODIFIED.,1789307099,#3,#4,1789307099);
#251=IFCDOOR('2Ks6ps3Sj4VBl$e8z9KMRo',#250,'201-Door',$,$,#256,#363,$,$,$,.DOOR.,$,$);
#252=IFCCARTESIANPOINT((2.3599999999999999,0.,0.));
#253=IFCDIRECTION((0.,0.,1.));
#254=IFCDIRECTION((0.,1.,0.));
#255=IFCAXIS2PLACEMENT3D(#252,#253,#254);
#256=IFCLOCALPLACEMENT(#43,#255);
#257=IFCCARTESIANPOINT((3.6999999999999997,-0.,0.));
#258=IFCCARTESIANPOINT((3.7999999999999998,-0.,0.));
#259=IFCCARTESIANPOINT((3.7999999999999998,0.19800000000000001,0.));
#260=IFCCARTESIANPOINT((3.6999999999999997,0.19800000000000001,0.));
#261=IFCCARTESIANPOINT((3.6999999999999997,-0.,0.));
#262=IFCPOLYLINE((#257,#258,#259,#260,#261));
#263=IFCARBITRARYCLOSEDPROFILEDEF(.AREA.,$,#262);
#264=IFCCARTESIANPOINT((0.,0.,0.));
#265=IFCDIRECTION((0.,0.,1.));
#266=IFCDIRECTION((1.,0.,0.));
#267=IFCAXIS2PLACEMENT3D(#264,#265,#266);
#268=IFCDIRECTION((0.,0.,1.));
#269=IFCEXTRUDEDAREASOLID(#263,#267,#268,2.1000000000000001);
#270=IFCCARTESIANPOINT((4.5,-0.,0.));
#271=IFCCARTESIANPOINT((4.5999999999999996,-0.,0.));
#272=IFCCARTESIANPOINT((4.5999999999999996,0.19800000000000001,0.));
#273=IFCCARTESIANPOINT((4.5,0.19800000000000001,0.));
#274=IFCCARTESIANPOINT((4.5,-0.,0.));
#275=IFCPOLYLINE((#270,#271,#272,#273,#274));
#276=IFCARBITRARYCLOSEDPROFILEDEF(.AREA.,$,#275);
#277=IFCCARTESIANPOINT((0.,0.,0.));
#278=IFCDIRECTION((0.,0.,1.));
#279=IFCDIRECTION((1.,0.,0.));
#280=IFCAXIS2PLACEMENT3D(#277,#278,#279);
#281=IFCDIRECTION((0.,0.,1.));
#282=IFCEXTRUDEDAREASOLID(#276,#280,#281,2.1000000000000001);
#283=IFCCARTESIANPOINT((3.7999999999999998,-0.,0.));
#284=IFCCARTESIANPOINT((4.5,-0.,0.));
#285=IFCCARTESIANPOINT((4.5,0.19800000000000001,0.));
#286=IFCCARTESIANPOINT((3.7999999999999998,0.19800000000000001,0.));
#287=IFCCARTESIANPOINT((3.7999999999999998,-0.,0.));
#288=IFCPOLYLINE((#283,#284,#285,#286,#287));
#289=IFCARBITRARYCLOSEDPROFILEDEF(.AREA.,$,#288);
#290=IFCCARTESIANPOINT((0.,0.,2.));
#291=IFCDIRECTION((0.,0.,1.));
#292=IFCDIRECTION((1.,0.,0.));
#293=IFCAXIS2PLACEMENT3D(#290,#291,#292);
#294=IFCDIRECTION((0.,0.,1.));
#295=IFCEXTRUDEDAREASOLID(#289,#293,#294,0.10000000000000009);
#296=IFCCARTESIANPOINT((3.7999999999999998,-0.,0.));
#297=IFCCARTESIANPOINT((4.5,-0.,0.));
#298=IFCCARTESIANPOINT((4.5,0.19800000000000001,0.));
#299=IFCCARTESIANPOINT((3.7999999999999998,0.19800000000000001,0.));
#300=IFCCARTESIANPOINT((3.7999999999999998,-0.,0.));
#301=IFCPOLYLINE((#296,#297,#298,#299,#300));
#302=IFCARBITRARYCLOSEDPROFILEDEF(.AREA.,$,#301);
#303=IFCCARTESIANPOINT((0.,0.,0.));
#304=IFCDIRECTION((0.,0.,1.));
#305=IFCDIRECTION((1.,0.,0.));
#306=IFCAXIS2PLACEMENT3D(#303,#304,#305);
#307=IFCDIRECTION((0.,0.,1.));
#308=IFCEXTRUDEDAREASOLID(#302,#306,#307,0.025000000000000001);
#309=IFCCARTESIANPOINT((3.7999999999999998,-0.,0.));
#310=IFCCARTESIANPOINT((4.5,-0.,0.));
#311=IFCCARTESIANPOINT((4.5,0.19800000000000001,0.));
#312=IFCCARTESIANPOINT((3.7999999999999998,0.19800000000000001,0.));
#313=IFCCARTESIANPOINT((3.7999999999999998,-0.,0.));
#314=IFCPOLYLINE((#309,#310,#311,#312,#313));
#315=IFCARBITRARYCLOSEDPROFILEDEF(.AREA.,$,#314);
#316=IFCCARTESIANPOINT((0.,0.,1.0662500000000001));
#317=IFCDIRECTION((0.,0.,1.));
#318=IFCDIRECTION((1.,0.,0.));
#319=IFCAXIS2PLACEMENT3D(#316,#317,#318);
#320=IFCDIRECTION((0.,0.,1.));
#321=IFCEXTRUDEDAREASOLID(#315,#319,#320,0.089999999999999858);
#322=IFCCARTESIANPOINT((3.7999999999999998,0.014999999999999999,0.));
#323=IFCCARTESIANPOINT((4.5,0.014999999999999999,0.));
#324=IFCCARTESIANPOINT((4.5,0.055,0.));
#325=IFCCARTESIANPOINT((3.7999999999999998,0.055,0.));
#326=IFCCARTESIANPOINT((3.7999999999999998,0.014999999999999999,0.));
#327=IFCPOLYLINE((#322,#323,#324,#325,#326));
#328=IFCARBITRARYCLOSEDPROFILEDEF(.AREA.,$,#327);
#329=IFCCARTESIANPOINT((0.,0.,0.025000000000000001));
#330=IFCDIRECTION((0.,0.,1.));
#331=IFCDIRECTION((1.,0.,0.));
#332=IFCAXIS2PLACEMENT3D(#329,#330,#331);
#333=IFCDIRECTION((0.,0.,1.));
#334=IFCEXTRUDEDAREASOLID(#328,#332,#333,1.0412500000000002);
#335=IFCCARTESIANPOINT((3.7999999999999998,0.014999999999999999,0.));
#336=IFCCARTESIANPOINT((4.5,0.014999999999999999,0.));
#337=IFCCARTESIANPOINT((4.5,0.055,0.));
#338=IFCCARTESIANPOINT((3.7999999999999998,0.055,0.));
#339=IFCCARTESIANPOINT((3.7999999999999998,0.014999999999999999,0.));
#340=IFCPOLYLINE((#335,#336,#337,#338,#339));
#341=IFCARBITRARYCLOSEDPROFILEDEF(.AREA.,$,#340);
#342=IFCCARTESIANPOINT((0.,0.,1.15625));
#343=IFCDIRECTION((0.,0.,1.));
#344=IFCDIRECTION((1.,0.,0.));
#345=IFCAXIS2PLACEMENT3D(#342,#343,#344);
#346=IFCDIRECTION((0.,0.,1.));
#347=IFCEXTRUDEDAREASOLID(#341,#345,#346,0.84375);
#348=IFCSURFACESTYLE('Frame',.BOTH.,(#349));
#349=IFCSURFACESTYLESHADING(#350,0.);
#350=IFCCOLOURRGB($,1.,1.,1.);
#351=IFCSURFACESTYLE('Glass',.BOTH.,(#352));
#352=IFCSURFACESTYLESHADING(#353,0.69999999999999996);
#353=IFCCOLOURRGB($,0.69999999999999996,0.84999999999999998,0.94999999999999996);
#354=IFCMATERIAL('Frame',$,'metal');
#355=IFCMATERIAL('Glass',$,'glass');
#356=IFCSTYLEDITEM($,(#348),'Frame');
#357=IFCSTYLEDREPRESENTATION(#16,'Body',$,(#356));
#358=IFCMATERIALDEFINITIONREPRESENTATION($,$,(#357),#354);
#359=IFCSTYLEDITEM($,(#351),'Glass');
#360=IFCSTYLEDREPRESENTATION(#16,'Body',$,(#359));
#361=IFCMATERIALDEFINITIONREPRESENTATION($,$,(#360),#355);
#362=IFCSHAPEREPRESENTATION(#16,'Body','SweptSolid',(#269,#282,#295,#308,#321,#334));
#363=IFCPRODUCTDEFINITIONSHAPE($,$,(#362));
#364=IFCSTYLEDITEM(#269,(#348),$);
#365=IFCSTYLEDITEM(#282,(#348),$);
#366=IFCSTYLEDITEM(#295,(#348),$);
#367=IFCSTYLEDITEM(#308,(#348),$);
#368=IFCSTYLEDITEM(#321,(#348),$);
#369=IFCSTYLEDITEM(#334,(#348),$);
#370=IFCOWNERHISTORY(#3,#4,.READWRITE.,.MODIFIED.,1789307099,#3,#4,1789307099);
#371=IFCRELASSOCIATESMATERIAL('0IEpvb4UDCuQdHE01luINQ',#370,$,$,(#251,#386),#354);
#372=IFCRELFILLSELEMENT('0NTnGKk7P05uvxuvns1L5B',$,$,$,#135,#251);
#373=IFCOWNERHISTORY(#3,#4,.READWRITE.,.MODIFIED.,1789307099,#3,#4,1789307099);
#374=IFCPLATE('0_1abAdJHCPvb_IGzlWjbH',#373,'201-Door-Glass',$,'Glass',#379,#381,$,.CURTAIN_PANEL.);
#375=IFCCARTESIANPOINT((2.3599999999999999,0.,0.));
#376=IFCDIRECTION((0.,0.,1.));
#377=IFCDIRECTION((0.,1.,0.));
#378=IFCAXIS2PLACEMENT3D(#375,#376,#377);
#379=IFCLOCALPLACEMENT(#43,#378);
#380=IFCSHAPEREPRESENTATION(#16,'Body','SweptSolid',(#347));
#381=IFCPRODUCTDEFINITIONSHAPE($,$,(#380));
#382=IFCSTYLEDITEM(#347,(#351),$);
#383=IFCOWNERHISTORY(#3,#4,.READWRITE.,.MODIFIED.,1789307099,#3,#4,1789307099);
#384=IFCRELASSOCIATESMATERIAL('1izEjxmpX0bAhiNoVzfPDl',#383,$,$,(#374,#492),#355);
#385=IFCOWNERHISTORY(#3,#4,.READWRITE.,.MODIFIED.,1789307099,#3,#4,1789307099);
#386=IFCWINDOW('2KHec0kDL8KeZP4gkYfT2z',#385,'201-Window',$,$,#391,#484,$,$,$,.WINDOW.,$,$);
#387=IFCCARTESIANPOINT((2.3599999999999999,0.,0.));
#388=IFCDIRECTION((0.,0.,1.));
#389=IFCDIRECTION((0.,1.,0.));
#390=IFCAXIS2PLACEMENT3D(#387,#388,#389);
#391=IFCLOCALPLACEMENT(#43,#390);
#392=IFCCARTESIANPOINT((0.40000000000000002,-0.,0.));
#393=IFCCARTESIANPOINT((0.5,-0.,0.));
#394=IFCCARTESIANPOINT((0.5,0.19800000000000001,0.));
#395=IFCCARTESIANPOINT((0.40000000000000002,0.19800000000000001,0.));
#396=IFCCARTESIANPOINT((0.40000000000000002,-0.,0.));
#397=IFCPOLYLINE((#392,#393,#394,#395,#396));
#398=IFCARBITRARYCLOSEDPROFILEDEF(.AREA.,$,#397);
#399=IFCCARTESIANPOINT((0.,0.,0.90000000000000002));
#400=IFCDIRECTION((0.,0.,1.));
#401=IFCDIRECTION((1.,0.,0.));
#402=IFCAXIS2PLACEMENT3D(#399,#400,#401);
#403=IFCDIRECTION((0.,0.,1.));
#404=IFCEXTRUDEDAREASOLID(#398,#402,#403,1.3999999999999999);
#405=IFCCARTESIANPOINT((1.5,-0.,0.));
#406=IFCCARTESIANPOINT((1.6000000000000001,-0.,0.));
#407=IFCCARTESIANPOINT((1.6000000000000001,0.19800000000000001,0.));
#408=IFCCARTESIANPOINT((1.5,0.19800000000000001,0.));
#409=IFCCARTESIANPOINT((1.5,-0.,0.));
#410=IFCPOLYLINE((#405,#406,#407,#408,#409));
#411=IFCARBITRARYCLOSEDPROFILEDEF(.AREA.,$,#410);
#412=IFCCARTESIANPOINT((0.,0.,0.90000000000000002));
#413=IFCDIRECTION((0.,0.,1.));
#414=IFCDIRECTION((1.,0.,0.));
#415=IFCAXIS2PLACEMENT3D(#412,#413,#414);
#416=IFCDIRECTION((0.,0.,1.));
#417=IFCEXTRUDEDAREASOLID(#411,#415,#416,1.3999999999999999);
#418=IFCCARTESIANPOINT((0.5,-0.,0.));
#419=IFCCARTESIANPOINT((1.5,-0.,0.));
#420=IFCCARTESIANPOINT((1.5,0.19800000000000001,0.));
#421=IFCCARTESIANPOINT((0.5,0.19800000000000001,0.));
#422=IFCCARTESIANPOINT((0.5,-0.,0.));
#423=IFCPOLYLINE((#418,#419,#420,#421,#422));
#424=IFCARBITRARYCLOSEDPROFILEDEF(.AREA.,$,#423);
#425=IFCCARTESIANPOINT((0.,0.,2.1999999999999997));
#426=IFCDIRECTION((0.,0.,1.));
#427=IFCDIRECTION((1.,0.,0.));
#428=IFCAXIS2PLACEMENT3D(#425,#426,#427);
#429=IFCDIRECTION((0.,0.,1.));
#430=IFCEXTRUDEDAREASOLID(#424,#428,#429,0.10000000000000009);
#431=IFCCARTESIANPOINT((0.5,-0.,0.));
#432=IFCCARTESIANPOINT((1.5,-0.,0.));
#433=IFCCARTESIANPOINT((1.5,0.19800000000000001,0.));
#434=IFCCARTESIANPOINT((0.5,0.19800000000000001,0.));
#435=IFCCARTESIANPOINT((0.5,-0.,0.));
#436=IFCPOLYLINE((#431,#432,#433,#434,#435));
#437=IFCARBITRARYCLOSEDPROFILEDEF(.AREA.,$,#436);
#438=IFCCARTESIANPOINT((0.,0.,0.90000000000000002));
#439=IFCDIRECTION((0.,0.,1.));
#440=IFCDIRECTION((1.,0.,0.));
#441=IFCAXIS2PLACEMENT3D(#438,#439,#440);
#442=IFCDIRECTION((0.,0.,1.));
#443=IFCEXTRUDEDAREASOLID(#437,#441,#442,0.099999999999999978);
#444=IFCCARTESIANPOINT((0.95999999999999996,-0.,0.));
#445=IFCCARTESIANPOINT((1.04,-0.,0.));
#446=IFCCARTESIANPOINT((1.04,0.19800000000000001,0.));
#447=IFCCARTESIANPOINT((0.95999999999999996,0.19800000000000001,0.));
#448=IFCCARTESIANPOINT((0.95999999999999996,-0.,0.));
#449=IFCPOLYLINE((#444,#445,#446,#447,#448));
#450=IFCARBITRARYCLOSEDPROFILEDEF(.AREA.,$,#449);
#451=IFCCARTESIANPOINT((0.,0.,1.));
#452=IFCDIRECTION((0.,0.,1.));
#453=IFCDIRECTION((1.,0.,0.));
#454=IFCAXIS2PLACEMENT3D(#451,#452,#453);
#455=IFCDIRECTION((0.,0.,1.));
#456=IFCEXTRUDEDAREASOLID(#450,#454,#455,1.1999999999999997);
#457=IFCCARTESIANPOINT((0.5,0.014999999999999999,0.));
#458=IFCCARTESIANPOINT((0.95999999999999996,0.014999999999999999,0.));
#459=IFCCARTESIANPOINT((0.95999999999999996,0.055,0.));
#460=IFCCARTESIANPOINT((0.5,0.055,0.));
#461=IFCCARTESIANPOINT((0.5,0.014999999999999999,0.));
#462=IFCPOLYLINE((#457,#458,#459,#460,#461));
#463=IFCARBITRARYCLOSEDPROFILEDEF(.AREA.,$,#462);
#464=IFCCARTESIANPOINT((0.,0.,1.));
#465=IFCDIRECTION((0.,0.,1.));
#466=IFCDIRECTION((1.,0.,0.));
#467=IFCAXIS2PLACEMENT3D(#464,#465,#466);
#468=IFCDIRECTION((0.,0.,1.));
#469=IFCEXTRUDEDAREASOLID(#463,#467,#468,1.1999999999999997);
#470=IFCCARTESIANPOINT((1.04,0.014999999999999999,0.));
#471=IFCCARTESIANPOINT((1.5,0.014999999999999999,0.));
#472=IFCCARTESIANPOINT((1.5,0.055,0.));
#473=IFCCARTESIANPOINT((1.04,0.055,0.));
#474=IFCCARTESIANPOINT((1.04,0.014999999999999999,0.));
#475=IFCPOLYLINE((#470,#471,#472,#473,#474));
#476=IFCARBITRARYCLOSEDPROFILEDEF(.AREA.,$,#475);
#477=IFCCARTESIANPOINT((0.,0.,1.));
#478=IFCDIRECTION((0.,0.,1.));
#479=IFCDIRECTION((1.,0.,0.));
#480=IFCAXIS2PLACEMENT3D(#477,#478,#479);
#481=IFCDIRECTION((0.,0.,1.));
#482=IFCEXTRUDEDAREASOLID(#476,#480,#481,1.1999999999999997);
#483=IFCSHAPEREPRESENTATION(#16,'Body','SweptSolid',(#404,#417,#430,#443,#456));
#484=IFCPRODUCTDEFINITIONSHAPE($,$,(#483));
#485=IFCSTYLEDITEM(#404,(#348),$);
#486=IFCSTYLEDITEM(#417,(#348),$);
#487=IFCSTYLEDITEM(#430,(#348),$);
#488=IFCSTYLEDITEM(#443,(#348),$);
#489=IFCSTYLEDITEM(#456,(#348),$);
#490=IFCRELFILLSELEMENT('2CxRzN5bvDEQEolkYSqz$P',$,$,$,#164,#386);
#491=IFCOWNERHISTORY(#3,#4,.READWRITE.,.MODIFIED.,1789307099,#3,#4,1789307099);
#492=IFCPLATE('3hhfKbOrPEx99UQqHG4cqC',#491,'201-Window-Glass',$,'Glass',#497,#499,$,.CURTAIN_PANEL.);
#493=IFCCARTESIANPOINT((2.3599999999999999,0.,0.));
#494=IFCDIRECTION((0.,0.,1.));
#495=IFCDIRECTION((0.,1.,0.));
#496=IFCAXIS2PLACEMENT3D(#493,#494,#495);
#497=IFCLOCALPLACEMENT(#43,#496);
#498=IFCSHAPEREPRESENTATION(#16,'Body','SweptSolid',(#469,#482));
#499=IFCPRODUCTDEFINITIONSHAPE($,$,(#498));
#500=IFCSTYLEDITEM(#469,(#351),$);
#501=IFCSTYLEDITEM(#482,(#351),$);
#502=IFCOWNERHISTORY(#3,#4,.READWRITE.,.ADDED.,1789307099,#3,#4,1789307099);
#503=IFCELEMENTQUANTITY('0e09ddyEzEu8ReX5GsOB10',#502,'Qto_CoveringBaseQuantities',$,'BaseQuantities',(#506));
#504=IFCOWNERHISTORY(#3,#4,.READWRITE.,.ADDED.,1789307099,#3,#4,1789307099);
#505=IFCRELDEFINESBYPROPERTIES('2rWUHKltD0SApXXnmwUMPp',#504,$,$,(#113),#503);
#506=IFCQUANTITYAREA('NetArea',$,$,0.25,$);
#507=IFCOWNERHISTORY(#3,#4,.READWRITE.,.ADDED.,1789307099,#3,#4,1789307099);
#508=IFCPROPERTYSET('0ARpF3HEL75OGqHlErNYoQ',#507,'Pset_CoveringCommon',$,(#511,#512,#513));
#509=IFCOWNERHISTORY(#3,#4,.READWRITE.,.ADDED.,1789307099,#3,#4,1789307099);
#510=IFCRELDEFINESBYPROPERTIES('0qnxviQ4513ON8g1osAccl',#509,$,$,(#113),#508);
#511=IFCPROPERTYSINGLEVALUE('IsExternal',$,IFCBOOLEAN(.T.),$);
#512=IFCPROPERTYSINGLEVALUE('Reference',$,IFCIDENTIFIER('Putzfassade'),$);
#513=IFCPROPERTYSINGLEVALUE('Status',$,IFCLABEL('NEW'),$);
#514=IFCOWNERHISTORY(#3,#4,.READWRITE.,.ADDED.,1789307099,#3,#4,1789307099);
#515=IFCPROPERTYSET('2GlyGsQFv3uA1vAuhpG$Uy',#514,'ePset_Cost',$,(#518,#519,#520,#521,#522));
#516=IFCOWNERHISTORY(#3,#4,.READWRITE.,.ADDED.,1789307099,#3,#4,1789307099);
#517=IFCRELDEFINESBYPROPERTIES('02gFj3q7XFRfwJ$TEFrQ3y',#516,$,$,(#113),#515);
#518=IFCPROPERTYSINGLEVALUE('CostInterface',$,IFCLABEL('GAB'),$);
#519=IFCPROPERTYSINGLEVALUE('AwardInterface',$,IFCLABEL('273'),$);
#520=IFCPROPERTYSINGLEVALUE('PlanningInterface',$,IFCLABEL('092'),$);
#521=IFCPROPERTYSINGLEVALUE('BelowTerrain',$,IFCBOOLEAN(.F.),$);
#522=IFCPROPERTYSINGLEVALUE('eBKP',$,IFCLABEL('E02'),$);
ENDSEC;
END-ISO-10303-21;
