ISO-10303-21;
HEADER;
FILE_DESCRIPTION(('ViewDefinition[DesignTransferView]'),'2;1');
FILE_NAME('/dev/null','2026-09-19T05:51:00+02:00',(''),(''),'IfcOpenShell 0.8.5','IfcOpenShell 0.8.5','Nobody');
FILE_SCHEMA(('IFC4'));
ENDSEC;
DATA;
#1=IFCPERSON('catalog-pipeline','Pipeline','Catalog',$,$,$,$,$);
#2=IFCORGANIZATION('pragmaticBIM','pragmaticBIM',$,$,$);
#3=IFCPERSONANDORGANIZATION(#1,#2,$);
#4=IFCAPPLICATION(#2,'0.1.0','Catalog IFC Pipeline','catalog-ifc-pipeline');
#5=IFCOWNERHISTORY(#3,#4,.READWRITE.,.ADDED.,1789789860,#3,#4,1789789860);
#6=IFCPROJECT('054nCjrxXA$QWAVaeJB_qx',#5,'stair-01',$,$,$,$,(#15),#10);
#7=IFCSIUNIT(*,.LENGTHUNIT.,$,.METRE.);
#8=IFCSIUNIT(*,.AREAUNIT.,$,.SQUARE_METRE.);
#9=IFCSIUNIT(*,.VOLUMEUNIT.,$,.CUBIC_METRE.);
#10=IFCUNITASSIGNMENT((#9,#7,#8));
#11=IFCCARTESIANPOINT((0.,0.,0.));
#12=IFCDIRECTION((0.,0.,1.));
#13=IFCDIRECTION((1.,0.,0.));
#14=IFCAXIS2PLACEMENT3D(#11,#12,#13);
#15=IFCGEOMETRICREPRESENTATIONCONTEXT($,'Model',3,1.0000000000000001E-05,#14,$);
#16=IFCGEOMETRICREPRESENTATIONSUBCONTEXT('Body','Model',*,*,*,*,#15,$,.MODEL_VIEW.,$);
#17=IFCOWNERHISTORY(#3,#4,.READWRITE.,.MODIFIED.,1789789860,#3,#4,1789789860);
#18=IFCSITE('2lE$vP0RL2KARensDJ8TNS',#17,'Site',$,$,#29,$,$,$,$,$,$,$,$);
#19=IFCOWNERHISTORY(#3,#4,.READWRITE.,.MODIFIED.,1789789860,#3,#4,1789789860);
#20=IFCBUILDING('0rNY3XeXT16hq94nv8xFqt',#19,'Building',$,$,#34,$,$,$,$,$,$);
#21=IFCOWNERHISTORY(#3,#4,.READWRITE.,.ADDED.,1789789860,#3,#4,1789789860);
#22=IFCRELAGGREGATES('0ULmZEPDv90B6$b4Vazire',#21,$,$,#6,(#18));
#23=IFCOWNERHISTORY(#3,#4,.READWRITE.,.ADDED.,1789789860,#3,#4,1789789860);
#24=IFCRELAGGREGATES('0fsMlQtFv1afw10IITvvIO',#23,$,$,#18,(#20));
#25=IFCCARTESIANPOINT((0.,0.,0.));
#26=IFCDIRECTION((0.,0.,1.));
#27=IFCDIRECTION((1.,0.,0.));
#28=IFCAXIS2PLACEMENT3D(#25,#26,#27);
#29=IFCLOCALPLACEMENT($,#28);
#30=IFCCARTESIANPOINT((0.,0.,0.));
#31=IFCDIRECTION((0.,0.,1.));
#32=IFCDIRECTION((1.,0.,0.));
#33=IFCAXIS2PLACEMENT3D(#30,#31,#32);
#34=IFCLOCALPLACEMENT(#29,#33);
#35=IFCOWNERHISTORY(#3,#4,.READWRITE.,.MODIFIED.,1789789860,#3,#4,1789789860);
#36=IFCBUILDINGSTOREY('0UVcSDdl16cQ0b0Laq1L2G',#35,'EG',$,$,#43,$,$,$,0.);
#37=IFCOWNERHISTORY(#3,#4,.READWRITE.,.MODIFIED.,1789789860,#3,#4,1789789860);
#38=IFCRELAGGREGATES('2YeBBF3ErCxRr1AAIK$0Pv',#37,$,$,#20,(#36,#45,#52));
#39=IFCCARTESIANPOINT((0.,0.,0.));
#40=IFCDIRECTION((0.,0.,1.));
#41=IFCDIRECTION((1.,0.,0.));
#42=IFCAXIS2PLACEMENT3D(#39,#40,#41);
#43=IFCLOCALPLACEMENT(#34,#42);
#44=IFCOWNERHISTORY(#3,#4,.READWRITE.,.MODIFIED.,1789789860,#3,#4,1789789860);
#45=IFCBUILDINGSTOREY('37apjE4Kf9qwYGFyxxXkEV',#44,'1.OG',$,$,#50,$,$,$,3.);
#46=IFCCARTESIANPOINT((0.,0.,3.));
#47=IFCDIRECTION((0.,0.,1.));
#48=IFCDIRECTION((1.,0.,0.));
#49=IFCAXIS2PLACEMENT3D(#46,#47,#48);
#50=IFCLOCALPLACEMENT(#34,#49);
#51=IFCOWNERHISTORY(#3,#4,.READWRITE.,.MODIFIED.,1789789860,#3,#4,1789789860);
#52=IFCBUILDINGSTOREY('3ds9bXAOX0p9v__JEjuxYC',#51,'2.OG',$,$,#57,$,$,$,6.);
#53=IFCCARTESIANPOINT((0.,0.,6.));
#54=IFCDIRECTION((0.,0.,1.));
#55=IFCDIRECTION((1.,0.,0.));
#56=IFCAXIS2PLACEMENT3D(#53,#54,#55);
#57=IFCLOCALPLACEMENT(#34,#56);
#58=IFCCARTESIANPOINT((0.,0.,0.16666666666666666));
#59=IFCCARTESIANPOINT((0.,0.33333333333333331,0.16666666666666666));
#60=IFCCARTESIANPOINT((0.,0.33333333333333331,0.33333333333333331));
#61=IFCCARTESIANPOINT((0.,0.66666666666666663,0.33333333333333331));
#62=IFCCARTESIANPOINT((0.,0.66666666666666663,0.5));
#63=IFCCARTESIANPOINT((0.,1.,0.5));
#64=IFCCARTESIANPOINT((0.,1.,0.66666666666666663));
#65=IFCCARTESIANPOINT((0.,1.3333333333333333,0.66666666666666663));
#66=IFCCARTESIANPOINT((0.,1.3333333333333333,0.83333333333333326));
#67=IFCCARTESIANPOINT((0.,1.6666666666666665,0.83333333333333326));
#68=IFCCARTESIANPOINT((0.,1.6666666666666665,1.));
#69=IFCCARTESIANPOINT((0.,2.,1.));
#70=IFCCARTESIANPOINT((0.,2.,1.1666666666666665));
#71=IFCCARTESIANPOINT((0.,2.333333333333333,1.1666666666666665));
#72=IFCCARTESIANPOINT((0.,2.333333333333333,1.3333333333333333));
#73=IFCCARTESIANPOINT((0.,2.6666666666666665,1.3333333333333333));
#74=IFCCARTESIANPOINT((0.,2.6666666666666665,1.5));
#75=IFCCARTESIANPOINT((0.,3.,1.5));
#76=IFCCARTESIANPOINT((0.,3.,1.1799999999999999));
#77=IFCCARTESIANPOINT((0.,0.,-0.15333333333333335));
#78=IFCCARTESIANPOINT((1.1000000000000001,0.,0.16666666666666666));
#79=IFCCARTESIANPOINT((1.1000000000000001,0.33333333333333331,0.16666666666666666));
#80=IFCCARTESIANPOINT((1.1000000000000001,0.33333333333333331,0.33333333333333331));
#81=IFCCARTESIANPOINT((1.1000000000000001,0.66666666666666663,0.33333333333333331));
#82=IFCCARTESIANPOINT((1.1000000000000001,0.66666666666666663,0.5));
#83=IFCCARTESIANPOINT((1.1000000000000001,1.,0.5));
#84=IFCCARTESIANPOINT((1.1000000000000001,1.,0.66666666666666663));
#85=IFCCARTESIANPOINT((1.1000000000000001,1.3333333333333333,0.66666666666666663));
#86=IFCCARTESIANPOINT((1.1000000000000001,1.3333333333333333,0.83333333333333326));
#87=IFCCARTESIANPOINT((1.1000000000000001,1.6666666666666665,0.83333333333333326));
#88=IFCCARTESIANPOINT((1.1000000000000001,1.6666666666666665,1.));
#89=IFCCARTESIANPOINT((1.1000000000000001,2.,1.));
#90=IFCCARTESIANPOINT((1.1000000000000001,2.,1.1666666666666665));
#91=IFCCARTESIANPOINT((1.1000000000000001,2.333333333333333,1.1666666666666665));
#92=IFCCARTESIANPOINT((1.1000000000000001,2.333333333333333,1.3333333333333333));
#93=IFCCARTESIANPOINT((1.1000000000000001,2.6666666666666665,1.3333333333333333));
#94=IFCCARTESIANPOINT((1.1000000000000001,2.6666666666666665,1.5));
#95=IFCCARTESIANPOINT((1.1000000000000001,3.,1.5));
#96=IFCCARTESIANPOINT((1.1000000000000001,3.,1.1799999999999999));
#97=IFCCARTESIANPOINT((1.1000000000000001,0.,-0.15333333333333335));
#98=IFCPOLYLOOP((#58,#59,#60,#61,#62,#63,#64,#65,#66,#67,#68,#69,#70,#71,#72,#73,#74,#75,#76,#77));
#99=IFCFACEOUTERBOUND(#98,.T.);
#100=IFCFACE((#99));
#101=IFCPOLYLOOP((#97,#96,#95,#94,#93,#92,#91,#90,#89,#88,#87,#86,#85,#84,#83,#82,#81,#80,#79,#78));
#102=IFCFACEOUTERBOUND(#101,.T.);
#103=IFCFACE((#102));
#104=IFCPOLYLOOP((#58,#78,#79,#59));
#105=IFCFACEOUTERBOUND(#104,.T.);
#106=IFCFACE((#105));
#107=IFCPOLYLOOP((#59,#79,#80,#60));
#108=IFCFACEOUTERBOUND(#107,.T.);
#109=IFCFACE((#108));
#110=IFCPOLYLOOP((#60,#80,#81,#61));
#111=IFCFACEOUTERBOUND(#110,.T.);
#112=IFCFACE((#111));
#113=IFCPOLYLOOP((#61,#81,#82,#62));
#114=IFCFACEOUTERBOUND(#113,.T.);
#115=IFCFACE((#114));
#116=IFCPOLYLOOP((#62,#82,#83,#63));
#117=IFCFACEOUTERBOUND(#116,.T.);
#118=IFCFACE((#117));
#119=IFCPOLYLOOP((#63,#83,#84,#64));
#120=IFCFACEOUTERBOUND(#119,.T.);
#121=IFCFACE((#120));
#122=IFCPOLYLOOP((#64,#84,#85,#65));
#123=IFCFACEOUTERBOUND(#122,.T.);
#124=IFCFACE((#123));
#125=IFCPOLYLOOP((#65,#85,#86,#66));
#126=IFCFACEOUTERBOUND(#125,.T.);
#127=IFCFACE((#126));
#128=IFCPOLYLOOP((#66,#86,#87,#67));
#129=IFCFACEOUTERBOUND(#128,.T.);
#130=IFCFACE((#129));
#131=IFCPOLYLOOP((#67,#87,#88,#68));
#132=IFCFACEOUTERBOUND(#131,.T.);
#133=IFCFACE((#132));
#134=IFCPOLYLOOP((#68,#88,#89,#69));
#135=IFCFACEOUTERBOUND(#134,.T.);
#136=IFCFACE((#135));
#137=IFCPOLYLOOP((#69,#89,#90,#70));
#138=IFCFACEOUTERBOUND(#137,.T.);
#139=IFCFACE((#138));
#140=IFCPOLYLOOP((#70,#90,#91,#71));
#141=IFCFACEOUTERBOUND(#140,.T.);
#142=IFCFACE((#141));
#143=IFCPOLYLOOP((#71,#91,#92,#72));
#144=IFCFACEOUTERBOUND(#143,.T.);
#145=IFCFACE((#144));
#146=IFCPOLYLOOP((#72,#92,#93,#73));
#147=IFCFACEOUTERBOUND(#146,.T.);
#148=IFCFACE((#147));
#149=IFCPOLYLOOP((#73,#93,#94,#74));
#150=IFCFACEOUTERBOUND(#149,.T.);
#151=IFCFACE((#150));
#152=IFCPOLYLOOP((#74,#94,#95,#75));
#153=IFCFACEOUTERBOUND(#152,.T.);
#154=IFCFACE((#153));
#155=IFCPOLYLOOP((#75,#95,#96,#76));
#156=IFCFACEOUTERBOUND(#155,.T.);
#157=IFCFACE((#156));
#158=IFCPOLYLOOP((#76,#96,#97,#77));
#159=IFCFACEOUTERBOUND(#158,.T.);
#160=IFCFACE((#159));
#161=IFCPOLYLOOP((#77,#97,#78,#58));
#162=IFCFACEOUTERBOUND(#161,.T.);
#163=IFCFACE((#162));
#164=IFCCLOSEDSHELL((#100,#103,#106,#109,#112,#115,#118,#121,#124,#127,#130,#133,#136,#139,#142,#145,#148,#151,#154,#157,#160,#163));
#165=IFCFACETEDBREP(#164);
#166=IFCCARTESIANPOINT((1.28,0.,3.));
#167=IFCCARTESIANPOINT((1.28,0.33333333333333331,3.));
#168=IFCCARTESIANPOINT((1.28,0.33333333333333331,2.8333333333333335));
#169=IFCCARTESIANPOINT((1.28,0.66666666666666663,2.8333333333333335));
#170=IFCCARTESIANPOINT((1.28,0.66666666666666663,2.6666666666666665));
#171=IFCCARTESIANPOINT((1.28,1.,2.6666666666666665));
#172=IFCCARTESIANPOINT((1.28,1.,2.5));
#173=IFCCARTESIANPOINT((1.28,1.3333333333333333,2.5));
#174=IFCCARTESIANPOINT((1.28,1.3333333333333333,2.3333333333333335));
#175=IFCCARTESIANPOINT((1.28,1.6666666666666665,2.3333333333333335));
#176=IFCCARTESIANPOINT((1.28,1.6666666666666665,2.166666666666667));
#177=IFCCARTESIANPOINT((1.28,2.,2.166666666666667));
#178=IFCCARTESIANPOINT((1.28,2.,2.));
#179=IFCCARTESIANPOINT((1.28,2.333333333333333,2.));
#180=IFCCARTESIANPOINT((1.28,2.333333333333333,1.8333333333333335));
#181=IFCCARTESIANPOINT((1.28,2.6666666666666665,1.8333333333333335));
#182=IFCCARTESIANPOINT((1.28,2.6666666666666665,1.6666666666666667));
#183=IFCCARTESIANPOINT((1.28,3.,1.6666666666666667));
#184=IFCCARTESIANPOINT((1.28,3.,1.3466666666666669));
#185=IFCCARTESIANPOINT((1.28,0.,2.6799999999999997));
#186=IFCCARTESIANPOINT((2.3799999999999999,0.,3.));
#187=IFCCARTESIANPOINT((2.3799999999999999,0.33333333333333331,3.));
#188=IFCCARTESIANPOINT((2.3799999999999999,0.33333333333333331,2.8333333333333335));
#189=IFCCARTESIANPOINT((2.3799999999999999,0.66666666666666663,2.8333333333333335));
#190=IFCCARTESIANPOINT((2.3799999999999999,0.66666666666666663,2.6666666666666665));
#191=IFCCARTESIANPOINT((2.3799999999999999,1.,2.6666666666666665));
#192=IFCCARTESIANPOINT((2.3799999999999999,1.,2.5));
#193=IFCCARTESIANPOINT((2.3799999999999999,1.3333333333333333,2.5));
#194=IFCCARTESIANPOINT((2.3799999999999999,1.3333333333333333,2.3333333333333335));
#195=IFCCARTESIANPOINT((2.3799999999999999,1.6666666666666665,2.3333333333333335));
#196=IFCCARTESIANPOINT((2.3799999999999999,1.6666666666666665,2.166666666666667));
#197=IFCCARTESIANPOINT((2.3799999999999999,2.,2.166666666666667));
#198=IFCCARTESIANPOINT((2.3799999999999999,2.,2.));
#199=IFCCARTESIANPOINT((2.3799999999999999,2.333333333333333,2.));
#200=IFCCARTESIANPOINT((2.3799999999999999,2.333333333333333,1.8333333333333335));
#201=IFCCARTESIANPOINT((2.3799999999999999,2.6666666666666665,1.8333333333333335));
#202=IFCCARTESIANPOINT((2.3799999999999999,2.6666666666666665,1.6666666666666667));
#203=IFCCARTESIANPOINT((2.3799999999999999,3.,1.6666666666666667));
#204=IFCCARTESIANPOINT((2.3799999999999999,3.,1.3466666666666669));
#205=IFCCARTESIANPOINT((2.3799999999999999,0.,2.6799999999999997));
#206=IFCPOLYLOOP((#166,#167,#168,#169,#170,#171,#172,#173,#174,#175,#176,#177,#178,#179,#180,#181,#182,#183,#184,#185));
#207=IFCFACEOUTERBOUND(#206,.T.);
#208=IFCFACE((#207));
#209=IFCPOLYLOOP((#205,#204,#203,#202,#201,#200,#199,#198,#197,#196,#195,#194,#193,#192,#191,#190,#189,#188,#187,#186));
#210=IFCFACEOUTERBOUND(#209,.T.);
#211=IFCFACE((#210));
#212=IFCPOLYLOOP((#166,#186,#187,#167));
#213=IFCFACEOUTERBOUND(#212,.T.);
#214=IFCFACE((#213));
#215=IFCPOLYLOOP((#167,#187,#188,#168));
#216=IFCFACEOUTERBOUND(#215,.T.);
#217=IFCFACE((#216));
#218=IFCPOLYLOOP((#168,#188,#189,#169));
#219=IFCFACEOUTERBOUND(#218,.T.);
#220=IFCFACE((#219));
#221=IFCPOLYLOOP((#169,#189,#190,#170));
#222=IFCFACEOUTERBOUND(#221,.T.);
#223=IFCFACE((#222));
#224=IFCPOLYLOOP((#170,#190,#191,#171));
#225=IFCFACEOUTERBOUND(#224,.T.);
#226=IFCFACE((#225));
#227=IFCPOLYLOOP((#171,#191,#192,#172));
#228=IFCFACEOUTERBOUND(#227,.T.);
#229=IFCFACE((#228));
#230=IFCPOLYLOOP((#172,#192,#193,#173));
#231=IFCFACEOUTERBOUND(#230,.T.);
#232=IFCFACE((#231));
#233=IFCPOLYLOOP((#173,#193,#194,#174));
#234=IFCFACEOUTERBOUND(#233,.T.);
#235=IFCFACE((#234));
#236=IFCPOLYLOOP((#174,#194,#195,#175));
#237=IFCFACEOUTERBOUND(#236,.T.);
#238=IFCFACE((#237));
#239=IFCPOLYLOOP((#175,#195,#196,#176));
#240=IFCFACEOUTERBOUND(#239,.T.);
#241=IFCFACE((#240));
#242=IFCPOLYLOOP((#176,#196,#197,#177));
#243=IFCFACEOUTERBOUND(#242,.T.);
#244=IFCFACE((#243));
#245=IFCPOLYLOOP((#177,#197,#198,#178));
#246=IFCFACEOUTERBOUND(#245,.T.);
#247=IFCFACE((#246));
#248=IFCPOLYLOOP((#178,#198,#199,#179));
#249=IFCFACEOUTERBOUND(#248,.T.);
#250=IFCFACE((#249));
#251=IFCPOLYLOOP((#179,#199,#200,#180));
#252=IFCFACEOUTERBOUND(#251,.T.);
#253=IFCFACE((#252));
#254=IFCPOLYLOOP((#180,#200,#201,#181));
#255=IFCFACEOUTERBOUND(#254,.T.);
#256=IFCFACE((#255));
#257=IFCPOLYLOOP((#181,#201,#202,#182));
#258=IFCFACEOUTERBOUND(#257,.T.);
#259=IFCFACE((#258));
#260=IFCPOLYLOOP((#182,#202,#203,#183));
#261=IFCFACEOUTERBOUND(#260,.T.);
#262=IFCFACE((#261));
#263=IFCPOLYLOOP((#183,#203,#204,#184));
#264=IFCFACEOUTERBOUND(#263,.T.);
#265=IFCFACE((#264));
#266=IFCPOLYLOOP((#184,#204,#205,#185));
#267=IFCFACEOUTERBOUND(#266,.T.);
#268=IFCFACE((#267));
#269=IFCPOLYLOOP((#185,#205,#186,#166));
#270=IFCFACEOUTERBOUND(#269,.T.);
#271=IFCFACE((#270));
#272=IFCCLOSEDSHELL((#208,#211,#214,#217,#220,#223,#226,#229,#232,#235,#238,#241,#244,#247,#250,#253,#256,#259,#262,#265,#268,#271));
#273=IFCFACETEDBREP(#272);
#274=IFCCARTESIANPOINT((0.,0.,3.1666666666666665));
#275=IFCCARTESIANPOINT((0.,0.33333333333333331,3.1666666666666665));
#276=IFCCARTESIANPOINT((0.,0.33333333333333331,3.3333333333333335));
#277=IFCCARTESIANPOINT((0.,0.66666666666666663,3.3333333333333335));
#278=IFCCARTESIANPOINT((0.,0.66666666666666663,3.5));
#279=IFCCARTESIANPOINT((0.,1.,3.5));
#280=IFCCARTESIANPOINT((0.,1.,3.6666666666666665));
#281=IFCCARTESIANPOINT((0.,1.3333333333333333,3.6666666666666665));
#282=IFCCARTESIANPOINT((0.,1.3333333333333333,3.833333333333333));
#283=IFCCARTESIANPOINT((0.,1.6666666666666665,3.833333333333333));
#284=IFCCARTESIANPOINT((0.,1.6666666666666665,4.));
#285=IFCCARTESIANPOINT((0.,2.,4.));
#286=IFCCARTESIANPOINT((0.,2.,4.1666666666666661));
#287=IFCCARTESIANPOINT((0.,2.333333333333333,4.1666666666666661));
#288=IFCCARTESIANPOINT((0.,2.333333333333333,4.333333333333333));
#289=IFCCARTESIANPOINT((0.,2.6666666666666665,4.333333333333333));
#290=IFCCARTESIANPOINT((0.,2.6666666666666665,4.5));
#291=IFCCARTESIANPOINT((0.,3.,4.5));
#292=IFCCARTESIANPOINT((0.,3.,4.1800000000000006));
#293=IFCCARTESIANPOINT((0.,0.,2.8466666666666662));
#294=IFCCARTESIANPOINT((1.1000000000000001,0.,3.1666666666666665));
#295=IFCCARTESIANPOINT((1.1000000000000001,0.33333333333333331,3.1666666666666665));
#296=IFCCARTESIANPOINT((1.1000000000000001,0.33333333333333331,3.3333333333333335));
#297=IFCCARTESIANPOINT((1.1000000000000001,0.66666666666666663,3.3333333333333335));
#298=IFCCARTESIANPOINT((1.1000000000000001,0.66666666666666663,3.5));
#299=IFCCARTESIANPOINT((1.1000000000000001,1.,3.5));
#300=IFCCARTESIANPOINT((1.1000000000000001,1.,3.6666666666666665));
#301=IFCCARTESIANPOINT((1.1000000000000001,1.3333333333333333,3.6666666666666665));
#302=IFCCARTESIANPOINT((1.1000000000000001,1.3333333333333333,3.833333333333333));
#303=IFCCARTESIANPOINT((1.1000000000000001,1.6666666666666665,3.833333333333333));
#304=IFCCARTESIANPOINT((1.1000000000000001,1.6666666666666665,4.));
#305=IFCCARTESIANPOINT((1.1000000000000001,2.,4.));
#306=IFCCARTESIANPOINT((1.1000000000000001,2.,4.1666666666666661));
#307=IFCCARTESIANPOINT((1.1000000000000001,2.333333333333333,4.1666666666666661));
#308=IFCCARTESIANPOINT((1.1000000000000001,2.333333333333333,4.333333333333333));
#309=IFCCARTESIANPOINT((1.1000000000000001,2.6666666666666665,4.333333333333333));
#310=IFCCARTESIANPOINT((1.1000000000000001,2.6666666666666665,4.5));
#311=IFCCARTESIANPOINT((1.1000000000000001,3.,4.5));
#312=IFCCARTESIANPOINT((1.1000000000000001,3.,4.1800000000000006));
#313=IFCCARTESIANPOINT((1.1000000000000001,0.,2.8466666666666662));
#314=IFCPOLYLOOP((#274,#275,#276,#277,#278,#279,#280,#281,#282,#283,#284,#285,#286,#287,#288,#289,#290,#291,#292,#293));
#315=IFCFACEOUTERBOUND(#314,.T.);
#316=IFCFACE((#315));
#317=IFCPOLYLOOP((#313,#312,#311,#310,#309,#308,#307,#306,#305,#304,#303,#302,#301,#300,#299,#298,#297,#296,#295,#294));
#318=IFCFACEOUTERBOUND(#317,.T.);
#319=IFCFACE((#318));
#320=IFCPOLYLOOP((#274,#294,#295,#275));
#321=IFCFACEOUTERBOUND(#320,.T.);
#322=IFCFACE((#321));
#323=IFCPOLYLOOP((#275,#295,#296,#276));
#324=IFCFACEOUTERBOUND(#323,.T.);
#325=IFCFACE((#324));
#326=IFCPOLYLOOP((#276,#296,#297,#277));
#327=IFCFACEOUTERBOUND(#326,.T.);
#328=IFCFACE((#327));
#329=IFCPOLYLOOP((#277,#297,#298,#278));
#330=IFCFACEOUTERBOUND(#329,.T.);
#331=IFCFACE((#330));
#332=IFCPOLYLOOP((#278,#298,#299,#279));
#333=IFCFACEOUTERBOUND(#332,.T.);
#334=IFCFACE((#333));
#335=IFCPOLYLOOP((#279,#299,#300,#280));
#336=IFCFACEOUTERBOUND(#335,.T.);
#337=IFCFACE((#336));
#338=IFCPOLYLOOP((#280,#300,#301,#281));
#339=IFCFACEOUTERBOUND(#338,.T.);
#340=IFCFACE((#339));
#341=IFCPOLYLOOP((#281,#301,#302,#282));
#342=IFCFACEOUTERBOUND(#341,.T.);
#343=IFCFACE((#342));
#344=IFCPOLYLOOP((#282,#302,#303,#283));
#345=IFCFACEOUTERBOUND(#344,.T.);
#346=IFCFACE((#345));
#347=IFCPOLYLOOP((#283,#303,#304,#284));
#348=IFCFACEOUTERBOUND(#347,.T.);
#349=IFCFACE((#348));
#350=IFCPOLYLOOP((#284,#304,#305,#285));
#351=IFCFACEOUTERBOUND(#350,.T.);
#352=IFCFACE((#351));
#353=IFCPOLYLOOP((#285,#305,#306,#286));
#354=IFCFACEOUTERBOUND(#353,.T.);
#355=IFCFACE((#354));
#356=IFCPOLYLOOP((#286,#306,#307,#287));
#357=IFCFACEOUTERBOUND(#356,.T.);
#358=IFCFACE((#357));
#359=IFCPOLYLOOP((#287,#307,#308,#288));
#360=IFCFACEOUTERBOUND(#359,.T.);
#361=IFCFACE((#360));
#362=IFCPOLYLOOP((#288,#308,#309,#289));
#363=IFCFACEOUTERBOUND(#362,.T.);
#364=IFCFACE((#363));
#365=IFCPOLYLOOP((#289,#309,#310,#290));
#366=IFCFACEOUTERBOUND(#365,.T.);
#367=IFCFACE((#366));
#368=IFCPOLYLOOP((#290,#310,#311,#291));
#369=IFCFACEOUTERBOUND(#368,.T.);
#370=IFCFACE((#369));
#371=IFCPOLYLOOP((#291,#311,#312,#292));
#372=IFCFACEOUTERBOUND(#371,.T.);
#373=IFCFACE((#372));
#374=IFCPOLYLOOP((#292,#312,#313,#293));
#375=IFCFACEOUTERBOUND(#374,.T.);
#376=IFCFACE((#375));
#377=IFCPOLYLOOP((#293,#313,#294,#274));
#378=IFCFACEOUTERBOUND(#377,.T.);
#379=IFCFACE((#378));
#380=IFCCLOSEDSHELL((#316,#319,#322,#325,#328,#331,#334,#337,#340,#343,#346,#349,#352,#355,#358,#361,#364,#367,#370,#373,#376,#379));
#381=IFCFACETEDBREP(#380);
#382=IFCCARTESIANPOINT((1.28,0.,6.));
#383=IFCCARTESIANPOINT((1.28,0.33333333333333331,6.));
#384=IFCCARTESIANPOINT((1.28,0.33333333333333331,5.8333333333333339));
#385=IFCCARTESIANPOINT((1.28,0.66666666666666663,5.8333333333333339));
#386=IFCCARTESIANPOINT((1.28,0.66666666666666663,5.6666666666666661));
#387=IFCCARTESIANPOINT((1.28,1.,5.6666666666666661));
#388=IFCCARTESIANPOINT((1.28,1.,5.5));
#389=IFCCARTESIANPOINT((1.28,1.3333333333333333,5.5));
#390=IFCCARTESIANPOINT((1.28,1.3333333333333333,5.3333333333333339));
#391=IFCCARTESIANPOINT((1.28,1.6666666666666665,5.3333333333333339));
#392=IFCCARTESIANPOINT((1.28,1.6666666666666665,5.166666666666667));
#393=IFCCARTESIANPOINT((1.28,2.,5.166666666666667));
#394=IFCCARTESIANPOINT((1.28,2.,5.));
#395=IFCCARTESIANPOINT((1.28,2.333333333333333,5.));
#396=IFCCARTESIANPOINT((1.28,2.333333333333333,4.8333333333333339));
#397=IFCCARTESIANPOINT((1.28,2.6666666666666665,4.8333333333333339));
#398=IFCCARTESIANPOINT((1.28,2.6666666666666665,4.666666666666667));
#399=IFCCARTESIANPOINT((1.28,3.,4.666666666666667));
#400=IFCCARTESIANPOINT((1.28,3.,4.3466666666666676));
#401=IFCCARTESIANPOINT((1.28,0.,5.6800000000000006));
#402=IFCCARTESIANPOINT((2.3799999999999999,0.,6.));
#403=IFCCARTESIANPOINT((2.3799999999999999,0.33333333333333331,6.));
#404=IFCCARTESIANPOINT((2.3799999999999999,0.33333333333333331,5.8333333333333339));
#405=IFCCARTESIANPOINT((2.3799999999999999,0.66666666666666663,5.8333333333333339));
#406=IFCCARTESIANPOINT((2.3799999999999999,0.66666666666666663,5.6666666666666661));
#407=IFCCARTESIANPOINT((2.3799999999999999,1.,5.6666666666666661));
#408=IFCCARTESIANPOINT((2.3799999999999999,1.,5.5));
#409=IFCCARTESIANPOINT((2.3799999999999999,1.3333333333333333,5.5));
#410=IFCCARTESIANPOINT((2.3799999999999999,1.3333333333333333,5.3333333333333339));
#411=IFCCARTESIANPOINT((2.3799999999999999,1.6666666666666665,5.3333333333333339));
#412=IFCCARTESIANPOINT((2.3799999999999999,1.6666666666666665,5.166666666666667));
#413=IFCCARTESIANPOINT((2.3799999999999999,2.,5.166666666666667));
#414=IFCCARTESIANPOINT((2.3799999999999999,2.,5.));
#415=IFCCARTESIANPOINT((2.3799999999999999,2.333333333333333,5.));
#416=IFCCARTESIANPOINT((2.3799999999999999,2.333333333333333,4.8333333333333339));
#417=IFCCARTESIANPOINT((2.3799999999999999,2.6666666666666665,4.8333333333333339));
#418=IFCCARTESIANPOINT((2.3799999999999999,2.6666666666666665,4.666666666666667));
#419=IFCCARTESIANPOINT((2.3799999999999999,3.,4.666666666666667));
#420=IFCCARTESIANPOINT((2.3799999999999999,3.,4.3466666666666676));
#421=IFCCARTESIANPOINT((2.3799999999999999,0.,5.6800000000000006));
#422=IFCPOLYLOOP((#382,#383,#384,#385,#386,#387,#388,#389,#390,#391,#392,#393,#394,#395,#396,#397,#398,#399,#400,#401));
#423=IFCFACEOUTERBOUND(#422,.T.);
#424=IFCFACE((#423));
#425=IFCPOLYLOOP((#421,#420,#419,#418,#417,#416,#415,#414,#413,#412,#411,#410,#409,#408,#407,#406,#405,#404,#403,#402));
#426=IFCFACEOUTERBOUND(#425,.T.);
#427=IFCFACE((#426));
#428=IFCPOLYLOOP((#382,#402,#403,#383));
#429=IFCFACEOUTERBOUND(#428,.T.);
#430=IFCFACE((#429));
#431=IFCPOLYLOOP((#383,#403,#404,#384));
#432=IFCFACEOUTERBOUND(#431,.T.);
#433=IFCFACE((#432));
#434=IFCPOLYLOOP((#384,#404,#405,#385));
#435=IFCFACEOUTERBOUND(#434,.T.);
#436=IFCFACE((#435));
#437=IFCPOLYLOOP((#385,#405,#406,#386));
#438=IFCFACEOUTERBOUND(#437,.T.);
#439=IFCFACE((#438));
#440=IFCPOLYLOOP((#386,#406,#407,#387));
#441=IFCFACEOUTERBOUND(#440,.T.);
#442=IFCFACE((#441));
#443=IFCPOLYLOOP((#387,#407,#408,#388));
#444=IFCFACEOUTERBOUND(#443,.T.);
#445=IFCFACE((#444));
#446=IFCPOLYLOOP((#388,#408,#409,#389));
#447=IFCFACEOUTERBOUND(#446,.T.);
#448=IFCFACE((#447));
#449=IFCPOLYLOOP((#389,#409,#410,#390));
#450=IFCFACEOUTERBOUND(#449,.T.);
#451=IFCFACE((#450));
#452=IFCPOLYLOOP((#390,#410,#411,#391));
#453=IFCFACEOUTERBOUND(#452,.T.);
#454=IFCFACE((#453));
#455=IFCPOLYLOOP((#391,#411,#412,#392));
#456=IFCFACEOUTERBOUND(#455,.T.);
#457=IFCFACE((#456));
#458=IFCPOLYLOOP((#392,#412,#413,#393));
#459=IFCFACEOUTERBOUND(#458,.T.);
#460=IFCFACE((#459));
#461=IFCPOLYLOOP((#393,#413,#414,#394));
#462=IFCFACEOUTERBOUND(#461,.T.);
#463=IFCFACE((#462));
#464=IFCPOLYLOOP((#394,#414,#415,#395));
#465=IFCFACEOUTERBOUND(#464,.T.);
#466=IFCFACE((#465));
#467=IFCPOLYLOOP((#395,#415,#416,#396));
#468=IFCFACEOUTERBOUND(#467,.T.);
#469=IFCFACE((#468));
#470=IFCPOLYLOOP((#396,#416,#417,#397));
#471=IFCFACEOUTERBOUND(#470,.T.);
#472=IFCFACE((#471));
#473=IFCPOLYLOOP((#397,#417,#418,#398));
#474=IFCFACEOUTERBOUND(#473,.T.);
#475=IFCFACE((#474));
#476=IFCPOLYLOOP((#398,#418,#419,#399));
#477=IFCFACEOUTERBOUND(#476,.T.);
#478=IFCFACE((#477));
#479=IFCPOLYLOOP((#399,#419,#420,#400));
#480=IFCFACEOUTERBOUND(#479,.T.);
#481=IFCFACE((#480));
#482=IFCPOLYLOOP((#400,#420,#421,#401));
#483=IFCFACEOUTERBOUND(#482,.T.);
#484=IFCFACE((#483));
#485=IFCPOLYLOOP((#401,#421,#402,#382));
#486=IFCFACEOUTERBOUND(#485,.T.);
#487=IFCFACE((#486));
#488=IFCCLOSEDSHELL((#424,#427,#430,#433,#436,#439,#442,#445,#448,#451,#454,#457,#460,#463,#466,#469,#472,#475,#478,#481,#484,#487));
#489=IFCFACETEDBREP(#488);
#490=IFCOWNERHISTORY(#3,#4,.READWRITE.,.MODIFIED.,1789789860,#3,#4,1789789860);
#491=IFCSTAIR('2DgyECzGL9xwOtg_5Vo$xY',#490,'TR-01',$,$,#498,#500,$,.HALF_TURN_STAIR.);
#492=IFCOWNERHISTORY(#3,#4,.READWRITE.,.MODIFIED.,1789789860,#3,#4,1789789860);
#493=IFCRELCONTAINEDINSPATIALSTRUCTURE('0ZixH2OlH89g3rMK7KozgZ',#492,$,$,(#675,#491),#36);
#494=IFCCARTESIANPOINT((0.,0.,0.));
#495=IFCDIRECTION((0.,0.,1.));
#496=IFCDIRECTION((1.,0.,0.));
#497=IFCAXIS2PLACEMENT3D(#494,#495,#496);
#498=IFCLOCALPLACEMENT(#43,#497);
#499=IFCSHAPEREPRESENTATION(#16,'Body','SurfaceOrSolidModel',(#165));
#500=IFCPRODUCTDEFINITIONSHAPE($,$,(#499));
#501=IFCCARTESIANPOINT((0.,3.,0.));
#502=IFCCARTESIANPOINT((2.3799999999999999,3.,0.));
#503=IFCCARTESIANPOINT((2.3799999999999999,4.,0.));
#504=IFCCARTESIANPOINT((0.,4.,0.));
#505=IFCCARTESIANPOINT((0.,3.,0.));
#506=IFCPOLYLINE((#501,#502,#503,#504,#505));
#507=IFCARBITRARYCLOSEDPROFILEDEF(.AREA.,$,#506);
#508=IFCCARTESIANPOINT((0.,0.,1.3599999999999999));
#509=IFCDIRECTION((0.,0.,1.));
#510=IFCDIRECTION((1.,0.,0.));
#511=IFCAXIS2PLACEMENT3D(#508,#509,#510);
#512=IFCDIRECTION((0.,0.,1.));
#513=IFCEXTRUDEDAREASOLID(#507,#511,#512,0.14000000000000001);
#514=IFCOWNERHISTORY(#3,#4,.READWRITE.,.MODIFIED.,1789789860,#3,#4,1789789860);
#515=IFCSLAB('2rfxjtGSb9MRch0sz0gcbJ',#514,'Zwischenpodest (1.OG)',$,$,#522,#524,$,.LANDING.);
#516=IFCOWNERHISTORY(#3,#4,.READWRITE.,.MODIFIED.,1789789860,#3,#4,1789789860);
#517=IFCRELCONTAINEDINSPATIALSTRUCTURE('216$npvu58xRrDszvUc9jc',#516,$,$,(#535,#515,#526),#45);
#518=IFCCARTESIANPOINT((0.,0.,-3.));
#519=IFCDIRECTION((0.,0.,1.));
#520=IFCDIRECTION((1.,0.,0.));
#521=IFCAXIS2PLACEMENT3D(#518,#519,#520);
#522=IFCLOCALPLACEMENT(#50,#521);
#523=IFCSHAPEREPRESENTATION(#16,'Body','SweptSolid',(#513));
#524=IFCPRODUCTDEFINITIONSHAPE($,$,(#523));
#525=IFCOWNERHISTORY(#3,#4,.READWRITE.,.MODIFIED.,1789789860,#3,#4,1789789860);
#526=IFCSTAIR('1Hz6pMDvPExfX9YiPQKLtb',#525,'Oberer Treppenlauf (1.OG)',$,$,#531,#533,$,.HALF_TURN_STAIR.);
#527=IFCCARTESIANPOINT((0.,0.,-3.));
#528=IFCDIRECTION((0.,0.,1.));
#529=IFCDIRECTION((1.,0.,0.));
#530=IFCAXIS2PLACEMENT3D(#527,#528,#529);
#531=IFCLOCALPLACEMENT(#50,#530);
#532=IFCSHAPEREPRESENTATION(#16,'Body','SurfaceOrSolidModel',(#273));
#533=IFCPRODUCTDEFINITIONSHAPE($,$,(#532));
#534=IFCOWNERHISTORY(#3,#4,.READWRITE.,.MODIFIED.,1789789860,#3,#4,1789789860);
#535=IFCSTAIR('3JTWt48gX94On$iZCM_StC',#534,'Unterer Treppenlauf 1.OG\X2\2013\X0\2.OG',$,$,#540,#542,$,.HALF_TURN_STAIR.);
#536=IFCCARTESIANPOINT((0.,0.,-3.));
#537=IFCDIRECTION((0.,0.,1.));
#538=IFCDIRECTION((1.,0.,0.));
#539=IFCAXIS2PLACEMENT3D(#536,#537,#538);
#540=IFCLOCALPLACEMENT(#50,#539);
#541=IFCSHAPEREPRESENTATION(#16,'Body','SurfaceOrSolidModel',(#381));
#542=IFCPRODUCTDEFINITIONSHAPE($,$,(#541));
#543=IFCCARTESIANPOINT((0.,3.,0.));
#544=IFCCARTESIANPOINT((2.3799999999999999,3.,0.));
#545=IFCCARTESIANPOINT((2.3799999999999999,4.,0.));
#546=IFCCARTESIANPOINT((0.,4.,0.));
#547=IFCCARTESIANPOINT((0.,3.,0.));
#548=IFCPOLYLINE((#543,#544,#545,#546,#547));
#549=IFCARBITRARYCLOSEDPROFILEDEF(.AREA.,$,#548);
#550=IFCCARTESIANPOINT((0.,0.,4.3600000000000003));
#551=IFCDIRECTION((0.,0.,1.));
#552=IFCDIRECTION((1.,0.,0.));
#553=IFCAXIS2PLACEMENT3D(#550,#551,#552);
#554=IFCDIRECTION((0.,0.,1.));
#555=IFCEXTRUDEDAREASOLID(#549,#553,#554,0.14000000000000001);
#556=IFCOWNERHISTORY(#3,#4,.READWRITE.,.MODIFIED.,1789789860,#3,#4,1789789860);
#557=IFCSLAB('37VB6gtJ98TxJ6OQtcmdH8',#556,'Zwischenpodest (2.OG)',$,$,#564,#566,$,.LANDING.);
#558=IFCOWNERHISTORY(#3,#4,.READWRITE.,.MODIFIED.,1789789860,#3,#4,1789789860);
#559=IFCRELCONTAINEDINSPATIALSTRUCTURE('1scriPjvv78hX43bXlHjur',#558,$,$,(#568,#557),#52);
#560=IFCCARTESIANPOINT((0.,0.,-6.));
#561=IFCDIRECTION((0.,0.,1.));
#562=IFCDIRECTION((1.,0.,0.));
#563=IFCAXIS2PLACEMENT3D(#560,#561,#562);
#564=IFCLOCALPLACEMENT(#57,#563);
#565=IFCSHAPEREPRESENTATION(#16,'Body','SweptSolid',(#555));
#566=IFCPRODUCTDEFINITIONSHAPE($,$,(#565));
#567=IFCOWNERHISTORY(#3,#4,.READWRITE.,.MODIFIED.,1789789860,#3,#4,1789789860);
#568=IFCSTAIR('26JEbEGqj2mQKaMWFjcnxM',#567,'Oberer Treppenlauf (2.OG)',$,$,#573,#575,$,.HALF_TURN_STAIR.);
#569=IFCCARTESIANPOINT((0.,0.,-6.));
#570=IFCDIRECTION((0.,0.,1.));
#571=IFCDIRECTION((1.,0.,0.));
#572=IFCAXIS2PLACEMENT3D(#569,#570,#571);
#573=IFCLOCALPLACEMENT(#57,#572);
#574=IFCSHAPEREPRESENTATION(#16,'Body','SurfaceOrSolidModel',(#489));
#575=IFCPRODUCTDEFINITIONSHAPE($,$,(#574));
#576=IFCCARTESIANPOINT((1.28,0.60999999999999999,0.));
#577=IFCCARTESIANPOINT((2.3799999999999999,0.60999999999999999,0.));
#578=IFCCARTESIANPOINT((2.3799999999999999,4.,0.));
#579=IFCCARTESIANPOINT((0.,4.,0.));
#580=IFCCARTESIANPOINT((0.,3.,0.));
#581=IFCCARTESIANPOINT((1.28,3.,0.));
#582=IFCCARTESIANPOINT((1.28,0.60999999999999999,0.));
#583=IFCPOLYLINE((#576,#577,#578,#579,#580,#581,#582));
#584=IFCARBITRARYCLOSEDPROFILEDEF(.AREA.,$,#583);
#585=IFCCARTESIANPOINT((0.,0.,0.));
#586=IFCDIRECTION((0.,0.,1.));
#587=IFCDIRECTION((1.,0.,0.));
#588=IFCAXIS2PLACEMENT3D(#585,#586,#587);
#589=IFCDIRECTION((0.,0.,1.));
#590=IFCEXTRUDEDAREASOLID(#584,#588,#589,1.3599999999999999);
#591=IFCOWNERHISTORY(#3,#4,.READWRITE.,.MODIFIED.,1789789860,#3,#4,1789789860);
#592=IFCSPACE('34uPeEOmb1qg_3Cyl7lbEG',#591,'Raum unter oberem Treppenlauf und Podest',$,$,#599,#601,$,$,.INTERNAL.,$);
#593=IFCOWNERHISTORY(#3,#4,.READWRITE.,.ADDED.,1789789860,#3,#4,1789789860);
#594=IFCRELAGGREGATES('24yQJP$r17kOxHBYmQcA5j',#593,$,$,#36,(#592));
#595=IFCCARTESIANPOINT((0.,0.,0.));
#596=IFCDIRECTION((0.,0.,1.));
#597=IFCDIRECTION((1.,0.,0.));
#598=IFCAXIS2PLACEMENT3D(#595,#596,#597);
#599=IFCLOCALPLACEMENT(#43,#598);
#600=IFCSHAPEREPRESENTATION(#16,'Body','SweptSolid',(#590));
#601=IFCPRODUCTDEFINITIONSHAPE($,$,(#600));
#602=IFCCARTESIANPOINT((0.,0.,0.));
#603=IFCCARTESIANPOINT((2.3799999999999999,0.,0.));
#604=IFCCARTESIANPOINT((2.3799999999999999,4.,0.));
#605=IFCCARTESIANPOINT((0.,4.,0.));
#606=IFCCARTESIANPOINT((0.,0.,0.));
#607=IFCPOLYLINE((#602,#603,#604,#605,#606));
#608=IFCARBITRARYCLOSEDPROFILEDEF(.AREA.,$,#607);
#609=IFCCARTESIANPOINT((0.,0.,1.5));
#610=IFCDIRECTION((0.,0.,1.));
#611=IFCDIRECTION((1.,0.,0.));
#612=IFCAXIS2PLACEMENT3D(#609,#610,#611);
#613=IFCDIRECTION((0.,0.,1.));
#614=IFCEXTRUDEDAREASOLID(#608,#612,#613,2.8599999999999999);
#615=IFCOWNERHISTORY(#3,#4,.READWRITE.,.MODIFIED.,1789789860,#3,#4,1789789860);
#616=IFCSPACE('1jFa0AmPb8Rua75DqFGVvt',#615,'Treppenraum 1.OG \X2\2013\X0\ Podest bis Podest',$,$,#623,#625,$,$,.INTERNAL.,$);
#617=IFCOWNERHISTORY(#3,#4,.READWRITE.,.ADDED.,1789789860,#3,#4,1789789860);
#618=IFCRELAGGREGATES('0_Ok4clbjFWxkO_vKkSmJl',#617,$,$,#45,(#616));
#619=IFCCARTESIANPOINT((0.,0.,-3.));
#620=IFCDIRECTION((0.,0.,1.));
#621=IFCDIRECTION((1.,0.,0.));
#622=IFCAXIS2PLACEMENT3D(#619,#620,#621);
#623=IFCLOCALPLACEMENT(#50,#622);
#624=IFCSHAPEREPRESENTATION(#16,'Body','SweptSolid',(#614));
#625=IFCPRODUCTDEFINITIONSHAPE($,$,(#624));
#626=IFCCARTESIANPOINT((1.28,0.45000000000000001,0.));
#627=IFCCARTESIANPOINT((1.4550000000000001,0.45000000000000001,0.));
#628=IFCCARTESIANPOINT((1.4550000000000001,0.45000000000000001,2.0499999999999998));
#629=IFCCARTESIANPOINT((2.2050000000000001,0.45000000000000001,2.0499999999999998));
#630=IFCCARTESIANPOINT((2.2050000000000001,0.45000000000000001,0.));
#631=IFCCARTESIANPOINT((2.3799999999999999,0.45000000000000001,0.));
#632=IFCCARTESIANPOINT((2.3799999999999999,0.45000000000000001,2.3749999999999996));
#633=IFCCARTESIANPOINT((1.28,0.45000000000000001,2.3749999999999996));
#634=IFCCARTESIANPOINT((1.28,0.60999999999999999,0.));
#635=IFCCARTESIANPOINT((1.4550000000000001,0.60999999999999999,0.));
#636=IFCCARTESIANPOINT((1.4550000000000001,0.60999999999999999,2.0499999999999998));
#637=IFCCARTESIANPOINT((2.2050000000000001,0.60999999999999999,2.0499999999999998));
#638=IFCCARTESIANPOINT((2.2050000000000001,0.60999999999999999,0.));
#639=IFCCARTESIANPOINT((2.3799999999999999,0.60999999999999999,0.));
#640=IFCCARTESIANPOINT((2.3799999999999999,0.60999999999999999,2.3749999999999996));
#641=IFCCARTESIANPOINT((1.28,0.60999999999999999,2.3749999999999996));
#642=IFCPOLYLOOP((#626,#627,#628,#629,#630,#631,#632,#633));
#643=IFCFACEOUTERBOUND(#642,.T.);
#644=IFCFACE((#643));
#645=IFCPOLYLOOP((#641,#640,#639,#638,#637,#636,#635,#634));
#646=IFCFACEOUTERBOUND(#645,.T.);
#647=IFCFACE((#646));
#648=IFCPOLYLOOP((#626,#634,#635,#627));
#649=IFCFACEOUTERBOUND(#648,.T.);
#650=IFCFACE((#649));
#651=IFCPOLYLOOP((#627,#635,#636,#628));
#652=IFCFACEOUTERBOUND(#651,.T.);
#653=IFCFACE((#652));
#654=IFCPOLYLOOP((#628,#636,#637,#629));
#655=IFCFACEOUTERBOUND(#654,.T.);
#656=IFCFACE((#655));
#657=IFCPOLYLOOP((#629,#637,#638,#630));
#658=IFCFACEOUTERBOUND(#657,.T.);
#659=IFCFACE((#658));
#660=IFCPOLYLOOP((#630,#638,#639,#631));
#661=IFCFACEOUTERBOUND(#660,.T.);
#662=IFCFACE((#661));
#663=IFCPOLYLOOP((#631,#639,#640,#632));
#664=IFCFACEOUTERBOUND(#663,.T.);
#665=IFCFACE((#664));
#666=IFCPOLYLOOP((#632,#640,#641,#633));
#667=IFCFACEOUTERBOUND(#666,.T.);
#668=IFCFACE((#667));
#669=IFCPOLYLOOP((#633,#641,#634,#626));
#670=IFCFACEOUTERBOUND(#669,.T.);
#671=IFCFACE((#670));
#672=IFCCLOSEDSHELL((#644,#647,#650,#653,#656,#659,#662,#665,#668,#671));
#673=IFCFACETEDBREP(#672);
#674=IFCOWNERHISTORY(#3,#4,.READWRITE.,.MODIFIED.,1789789860,#3,#4,1789789860);
#675=IFCWALL('3umddHfavBah0bV_dP4_4p',#674,'Wand unter oberem Treppenlauf',$,$,#680,#682,$,.PARTITIONING.);
#676=IFCCARTESIANPOINT((0.,0.,0.));
#677=IFCDIRECTION((0.,0.,1.));
#678=IFCDIRECTION((1.,0.,0.));
#679=IFCAXIS2PLACEMENT3D(#676,#677,#678);
#680=IFCLOCALPLACEMENT(#43,#679);
#681=IFCSHAPEREPRESENTATION(#16,'Body','SurfaceOrSolidModel',(#673));
#682=IFCPRODUCTDEFINITIONSHAPE($,$,(#681));
#683=IFCOWNERHISTORY(#3,#4,.READWRITE.,.MODIFIED.,1789789860,#3,#4,1789789860);
#684=IFCOPENINGELEMENT('1DldByj1zEXwbTrB3vbST1',#683,'T\X2\00FC\X0\r\X2\00F6\X0\ffnung unter Treppe',$,$,#711,#704,$,.OPENING.);
#690=IFCCARTESIANPOINT((0.17500000000000004,-0.01,0.));
#691=IFCCARTESIANPOINT((0.92500000000000004,-0.01,0.));
#692=IFCCARTESIANPOINT((0.92500000000000004,0.17999999999999999,0.));
#693=IFCCARTESIANPOINT((0.17500000000000004,0.17999999999999999,0.));
#694=IFCCARTESIANPOINT((0.17500000000000004,-0.01,0.));
#695=IFCPOLYLINE((#690,#691,#692,#693,#694));
#696=IFCARBITRARYCLOSEDPROFILEDEF(.AREA.,$,#695);
#697=IFCCARTESIANPOINT((0.,0.,0.));
#698=IFCDIRECTION((0.,0.,1.));
#699=IFCDIRECTION((1.,0.,0.));
#700=IFCAXIS2PLACEMENT3D(#697,#698,#699);
#701=IFCDIRECTION((0.,0.,1.));
#702=IFCEXTRUDEDAREASOLID(#696,#700,#701,2.0499999999999998);
#703=IFCSHAPEREPRESENTATION(#16,'Body','SweptSolid',(#702));
#704=IFCPRODUCTDEFINITIONSHAPE($,$,(#703));
#705=IFCOWNERHISTORY(#3,#4,.READWRITE.,.ADDED.,1789789860,#3,#4,1789789860);
#706=IFCRELVOIDSELEMENT('3eCs62d5PCMQ1wKoNFmtG4',#705,$,$,#675,#684);
#707=IFCCARTESIANPOINT((1.28,0.45000000000000001,0.));
#708=IFCDIRECTION((0.,0.,1.));
#709=IFCDIRECTION((1.,0.,0.));
#710=IFCAXIS2PLACEMENT3D(#707,#708,#709);
#711=IFCLOCALPLACEMENT(#680,#710);
#712=IFCOWNERHISTORY(#3,#4,.READWRITE.,.ADDED.,1789789860,#3,#4,1789789860);
#713=IFCPROPERTYSET('0jvI6diSP4Hx1a9VecmvmZ',#712,'Pset_StairCommon',$,(#716,#717));
#714=IFCOWNERHISTORY(#3,#4,.READWRITE.,.ADDED.,1789789860,#3,#4,1789789860);
#715=IFCRELDEFINESBYPROPERTIES('2N8X8n72jBKA_DhIoW7hsR',#714,$,$,(#491),#713);
#716=IFCPROPERTYSINGLEVALUE('IsExternal',$,IFCBOOLEAN(.F.),$);
#717=IFCPROPERTYSINGLEVALUE('Status',$,IFCLABEL('NEW'),$);
#718=IFCOWNERHISTORY(#3,#4,.READWRITE.,.ADDED.,1789789860,#3,#4,1789789860);
#719=IFCPROPERTYSET('1_Nn9ter51S84LnVJlbdM5',#718,'ePset_Cost',$,(#722,#723,#724,#725,#726,#727,#728));
#720=IFCOWNERHISTORY(#3,#4,.READWRITE.,.ADDED.,1789789860,#3,#4,1789789860);
#721=IFCRELDEFINESBYPROPERTIES('0q$lyP3k9FZvFMrAAYSCn9',#720,$,$,(#491),#719);
#722=IFCPROPERTYSINGLEVALUE('eBKP',$,IFCLABEL('C04.02'),$);
#723=IFCPROPERTYSINGLEVALUE('Width',$,IFCLENGTHMEASURE(1.),$);
#724=IFCPROPERTYSINGLEVALUE('Height',$,IFCLENGTHMEASURE(3.),$);
#725=IFCPROPERTYSINGLEVALUE('CalculatedType',$,IFCLABEL('Treppe_U-Treppe'),$);
#726=IFCPROPERTYSINGLEVALUE('ProductClass',$,IFCLABEL('SRP-STEEL'),$);
#727=IFCPROPERTYSINGLEVALUE('UnitPrice',$,IFCLABEL('UnitPrice'),$);
#728=IFCPROPERTYSINGLEVALUE('ReferenceQuantity',$,IFCLABEL('ReferenceQuantity'),$);
#729=IFCOWNERHISTORY(#3,#4,.READWRITE.,.ADDED.,1789789860,#3,#4,1789789860);
#730=IFCSTAIRTYPE('0GWn5AMEn0gvqF5Ma2Qqpo',#729,'TR-01 Type',$,$,(#734),$,$,$,.NOTDEFINED.);
#731=IFCOWNERHISTORY(#3,#4,.READWRITE.,.ADDED.,1789789860,#3,#4,1789789860);
#732=IFCRELDEFINESBYTYPE('1mBkIw$MT20BdGAo7VsWoi',#731,$,$,(#491),#730);
#733=IFCOWNERHISTORY(#3,#4,.READWRITE.,.ADDED.,1789789860,#3,#4,1789789860);
#734=IFCPROPERTYSET('1w_1_sbaH2jhQ6c_cn9PSt',#733,'Pset_ManufacturerTypeInformation',$,(#735));
#735=IFCPROPERTYSINGLEVALUE('GlobalTradeItemNumber',$,IFCIDENTIFIER('07612345000015'),$);
#736=IFCOWNERHISTORY(#3,#4,.READWRITE.,.ADDED.,1789789860,#3,#4,1789789860);
#737=IFCPROPERTYSET('37NGHoC4PBnxJg0c4NdRcy',#736,'Pset_ManufacturerOccurrence',$,(#740));
#738=IFCOWNERHISTORY(#3,#4,.READWRITE.,.ADDED.,1789789860,#3,#4,1789789860);
#739=IFCRELDEFINESBYPROPERTIES('2zl_0kerv0ZxwWN146h6yg',#738,$,$,(#491),#737);
#740=IFCPROPERTYSINGLEVALUE('SerialNumber',$,IFCIDENTIFIER('SN-000001'),$);
#741=IFCOWNERHISTORY(#3,#4,.READWRITE.,.ADDED.,1789789860,#3,#4,1789789860);
#742=IFCELEMENTQUANTITY('1wHsr7rNvDEeE$KdJEf0kX',#741,'Qto_StairBaseQuantities',$,'BaseQuantities',(#745));
#743=IFCOWNERHISTORY(#3,#4,.READWRITE.,.ADDED.,1789789860,#3,#4,1789789860);
#744=IFCRELDEFINESBYPROPERTIES('3o7500QmDDDBsz2PtoQgxg',#743,$,$,(#491),#742);
#745=IFCQUANTITYVOLUME('GrossVolume',$,$,2.4449999999999998,$);
ENDSEC;
END-ISO-10303-21;
