ISO-10303-21;
HEADER;
FILE_DESCRIPTION(('ViewDefinition[DesignTransferView]'),'2;1');
FILE_NAME('/dev/null','2026-09-13T15:45:01+02:00',(''),(''),'IfcOpenShell 0.8.5','IfcOpenShell 0.8.5','Nobody');
FILE_SCHEMA(('IFC4'));
ENDSEC;
DATA;
#1=IFCPERSON('catalog-pipeline','Pipeline','Catalog',$,$,$,$,$);
#2=IFCORGANIZATION('pragmaticBIM','pragmaticBIM',$,$,$);
#3=IFCPERSONANDORGANIZATION(#1,#2,$);
#4=IFCAPPLICATION(#2,'0.1.0','Catalog IFC Pipeline','catalog-ifc-pipeline');
#5=IFCOWNERHISTORY(#3,#4,.READWRITE.,.ADDED.,1789307101,#3,#4,1789307101);
#6=IFCPROJECT('3AoXYcew15y9s$N6m5g3pJ',#5,'Catalog \X2\2014\X0\ 101',$,$,$,$,(#15),#10);
#7=IFCSIUNIT(*,.LENGTHUNIT.,$,.METRE.);
#8=IFCSIUNIT(*,.AREAUNIT.,$,.SQUARE_METRE.);
#9=IFCSIUNIT(*,.VOLUMEUNIT.,$,.CUBIC_METRE.);
#10=IFCUNITASSIGNMENT((#8,#9,#7));
#11=IFCCARTESIANPOINT((0.,0.,0.));
#12=IFCDIRECTION((0.,0.,1.));
#13=IFCDIRECTION((1.,0.,0.));
#14=IFCAXIS2PLACEMENT3D(#11,#12,#13);
#15=IFCGEOMETRICREPRESENTATIONCONTEXT($,'Model',3,1.0000000000000001E-05,#14,$);
#16=IFCGEOMETRICREPRESENTATIONSUBCONTEXT('Body','Model',*,*,*,*,#15,$,.MODEL_VIEW.,$);
#17=IFCOWNERHISTORY(#3,#4,.READWRITE.,.MODIFIED.,1789307101,#3,#4,1789307101);
#18=IFCSITE('0NaIyVGGz66wgqXnEwsXww',#17,'Site',$,$,#29,$,$,$,$,$,$,$,$);
#19=IFCOWNERHISTORY(#3,#4,.READWRITE.,.MODIFIED.,1789307101,#3,#4,1789307101);
#20=IFCBUILDING('0g6VKQqBfA4875NGK_wG2Y',#19,'Building',$,$,#34,$,$,$,$,$,$);
#21=IFCOWNERHISTORY(#3,#4,.READWRITE.,.ADDED.,1789307101,#3,#4,1789307101);
#22=IFCRELAGGREGATES('2XHfvo12z7wwXF8plQ0Ira',#21,$,$,#6,(#18));
#23=IFCOWNERHISTORY(#3,#4,.READWRITE.,.ADDED.,1789307101,#3,#4,1789307101);
#24=IFCRELAGGREGATES('19lDuW5S93dPSGmnxjx9v3',#23,$,$,#18,(#20));
#25=IFCCARTESIANPOINT((0.,0.,0.));
#26=IFCDIRECTION((0.,0.,1.));
#27=IFCDIRECTION((1.,0.,0.));
#28=IFCAXIS2PLACEMENT3D(#25,#26,#27);
#29=IFCLOCALPLACEMENT($,#28);
#30=IFCCARTESIANPOINT((0.,0.,0.));
#31=IFCDIRECTION((0.,0.,1.));
#32=IFCDIRECTION((1.,0.,0.));
#33=IFCAXIS2PLACEMENT3D(#30,#31,#32);
#34=IFCLOCALPLACEMENT(#29,#33);
#35=IFCOWNERHISTORY(#3,#4,.READWRITE.,.MODIFIED.,1789307101,#3,#4,1789307101);
#36=IFCBUILDINGSTOREY('0q6fQkUP9EAO5RzGmu9f_9',#35,'Level 0',$,$,#43,$,$,$,0.);
#37=IFCOWNERHISTORY(#3,#4,.READWRITE.,.ADDED.,1789307101,#3,#4,1789307101);
#38=IFCRELAGGREGATES('0aCeYbhPLAxQBZmQ4xEAo8',#37,$,$,#20,(#36));
#39=IFCCARTESIANPOINT((0.,0.,0.));
#40=IFCDIRECTION((0.,0.,1.));
#41=IFCDIRECTION((1.,0.,0.));
#42=IFCAXIS2PLACEMENT3D(#39,#40,#41);
#43=IFCLOCALPLACEMENT(#34,#42);
#44=IFCOWNERHISTORY(#3,#4,.READWRITE.,.MODIFIED.,1789307101,#3,#4,1789307101);
#45=IFCSPACE('26dau0dbD09A_NjscZKdtK',#44,'101',$,$,#52,#67,'Buero',$,.INTERNAL.,$);
#46=IFCOWNERHISTORY(#3,#4,.READWRITE.,.MODIFIED.,1789307101,#3,#4,1789307101);
#47=IFCRELAGGREGATES('1fOkzp_z54uPhFsUMxE5pb',#46,$,$,#36,(#245,#45));
#48=IFCCARTESIANPOINT((0.,0.,0.));
#49=IFCDIRECTION((0.,0.,1.));
#50=IFCDIRECTION((1.,0.,0.));
#51=IFCAXIS2PLACEMENT3D(#48,#49,#50);
#52=IFCLOCALPLACEMENT(#43,#51);
#53=IFCCARTESIANPOINT((0.,0.,0.));
#54=IFCCARTESIANPOINT((4.,0.,0.));
#55=IFCCARTESIANPOINT((4.,5.,0.));
#56=IFCCARTESIANPOINT((0.,5.,0.));
#57=IFCCARTESIANPOINT((0.,0.,0.));
#58=IFCPOLYLINE((#53,#54,#55,#56,#57));
#59=IFCARBITRARYCLOSEDPROFILEDEF(.AREA.,$,#58);
#60=IFCCARTESIANPOINT((0.,0.,0.));
#61=IFCDIRECTION((0.,0.,1.));
#62=IFCDIRECTION((1.,0.,0.));
#63=IFCAXIS2PLACEMENT3D(#60,#61,#62);
#64=IFCDIRECTION((0.,0.,1.));
#65=IFCEXTRUDEDAREASOLID(#59,#63,#64,2.7999999999999998);
#66=IFCSHAPEREPRESENTATION(#16,'Body','SweptSolid',(#65));
#67=IFCPRODUCTDEFINITIONSHAPE($,$,(#66));
#68=IFCOWNERHISTORY(#3,#4,.READWRITE.,.ADDED.,1789307101,#3,#4,1789307101);
#69=IFCELEMENTQUANTITY('0Fdqee0PbDIumwa6HBE8rZ',#68,'Qto_SpaceBaseQuantities',$,'BaseQuantities',(#72,#73,#74,#75,#76));
#70=IFCOWNERHISTORY(#3,#4,.READWRITE.,.ADDED.,1789307101,#3,#4,1789307101);
#71=IFCRELDEFINESBYPROPERTIES('10iuvMGT19NRVIqsoz4Cmd',#70,$,$,(#45),#69);
#72=IFCQUANTITYAREA('NetFloorArea',$,$,20.,$);
#73=IFCQUANTITYLENGTH('Height',$,$,2.7999999999999998,$);
#74=IFCQUANTITYLENGTH('FinishCeilingHeight',$,$,2.6000000000000001,$);
#75=IFCQUANTITYAREA('GrossFloorArea',$,$,20.,$);
#76=IFCQUANTITYVOLUME('GrossVolume',$,$,56.,$);
#77=IFCOWNERHISTORY(#3,#4,.READWRITE.,.ADDED.,1789307101,#3,#4,1789307101);
#78=IFCPROPERTYSET('1$caej3r16bg_ilidp$FdI',#77,'ePset_Space',$,(#81));
#79=IFCOWNERHISTORY(#3,#4,.READWRITE.,.ADDED.,1789307101,#3,#4,1789307101);
#80=IFCRELDEFINESBYPROPERTIES('2vuZQ5PXT0PhMCZWI384w7',#79,$,$,(#45),#78);
#81=IFCPROPERTYSINGLEVALUE('SignageRoomNumber',$,IFCIDENTIFIER('101'),$);
#82=IFCOWNERHISTORY(#3,#4,.READWRITE.,.ADDED.,1789307101,#3,#4,1789307101);
#83=IFCPROPERTYSET('2Sevjy0bj59v9VgcIAg45M',#82,'Pset_SpaceCommon',$,(#86,#87));
#84=IFCOWNERHISTORY(#3,#4,.READWRITE.,.ADDED.,1789307101,#3,#4,1789307101);
#85=IFCRELDEFINESBYPROPERTIES('1o4KjfyvH2IhHDH2czGlys',#84,$,$,(#45),#83);
#86=IFCPROPERTYSINGLEVALUE('Reference',$,IFCIDENTIFIER('HNF'),$);
#87=IFCPROPERTYSINGLEVALUE('IsExternal',$,IFCBOOLEAN(.F.),$);
#88=IFCOWNERHISTORY(#3,#4,.READWRITE.,.ADDED.,1789307101,#3,#4,1789307101);
#89=IFCPROPERTYSET('0lA$X59SP8kfYvGOgxFA44',#88,'Pset_SpaceCoveringRequirements',$,(#92));
#90=IFCOWNERHISTORY(#3,#4,.READWRITE.,.ADDED.,1789307101,#3,#4,1789307101);
#91=IFCRELDEFINESBYPROPERTIES('2XMC3_Jv9DdBp8PSot_68h',#90,$,$,(#45),#89);
#92=IFCPROPERTYSINGLEVALUE('FloorCovering',$,IFCLABEL('Teppich'),$);
#93=IFCOWNERHISTORY(#3,#4,.READWRITE.,.ADDED.,1789307101,#3,#4,1789307101);
#94=IFCPROPERTYSET('2tQFSSBYn0LBybO1NqlfiX',#93,'Pset_SpaceThermalDesign',$,(#97));
#95=IFCOWNERHISTORY(#3,#4,.READWRITE.,.ADDED.,1789307101,#3,#4,1789307101);
#96=IFCRELDEFINESBYPROPERTIES('3tfpglw2L4$hSkbcy_$8NA',#95,$,$,(#45),#94);
#97=IFCPROPERTYSINGLEVALUE('TotalHeatLoss',$,IFCPOWERMEASURE(1.),$);
#98=IFCOWNERHISTORY(#3,#4,.READWRITE.,.ADDED.,1789307101,#3,#4,1789307101);
#99=IFCPROPERTYSET('1oyo811U1AgOGiTJKwh5mc',#98,'ePset_SpaceRequirement',$,(#102,#103,#104));
#100=IFCOWNERHISTORY(#3,#4,.READWRITE.,.ADDED.,1789307101,#3,#4,1789307101);
#101=IFCRELDEFINESBYPROPERTIES('3t7tGXCmrA5fkIM86ClppE',#100,$,$,(#45),#99);
#102=IFCPROPERTYSINGLEVALUE('DesignAreaLoad',$,IFCREAL(3.),$);
#103=IFCPROPERTYSINGLEVALUE('DesignPointLoad',$,IFCREAL(2.),$);
#104=IFCPROPERTYSINGLEVALUE('VibrationRequirements',$,IFCLABEL('ISO Office'),$);
#105=IFCOWNERHISTORY(#3,#4,.READWRITE.,.ADDED.,1789307101,#3,#4,1789307101);
#106=IFCPROPERTYSET('1pTQy0DaP7QeGyapgIXelF',#105,'ePset_Space',$,(#109));
#107=IFCOWNERHISTORY(#3,#4,.READWRITE.,.ADDED.,1789307101,#3,#4,1789307101);
#108=IFCRELDEFINESBYPROPERTIES('0VBYSfQmXB3evlxbLm7UMV',#107,$,$,(#45),#106);
#109=IFCPROPERTYSINGLEVALUE('Checkliste',$,IFCTEXT('Bodenbelag; Elektro; Beleuchtung'),$);
#110=IFCOWNERHISTORY(#3,#4,.READWRITE.,.MODIFIED.,1789307101,#3,#4,1789307101);
#111=IFCSLAB('0zZtCVekX22fuP5UqDZPUK',#110,'101-FloorSlab',$,$,#118,#133,$,.FLOOR.);
#112=IFCOWNERHISTORY(#3,#4,.READWRITE.,.MODIFIED.,1789307101,#3,#4,1789307101);
#113=IFCRELCONTAINEDINSPATIALSTRUCTURE('3c97a$xwn3wPPEBBBdYzWo',#112,$,$,(#223,#135,#179,#201,#157,#111),#36);
#114=IFCCARTESIANPOINT((0.,0.,-0.40000000000000002));
#115=IFCDIRECTION((0.,0.,1.));
#116=IFCDIRECTION((1.,0.,0.));
#117=IFCAXIS2PLACEMENT3D(#114,#115,#116);
#118=IFCLOCALPLACEMENT(#43,#117);
#119=IFCCARTESIANPOINT((0.,0.,0.));
#120=IFCCARTESIANPOINT((7.2000000000000002,0.,0.));
#121=IFCCARTESIANPOINT((7.2000000000000002,5.,0.));
#122=IFCCARTESIANPOINT((0.,5.,0.));
#123=IFCCARTESIANPOINT((0.,0.,0.));
#124=IFCPOLYLINE((#119,#120,#121,#122,#123));
#125=IFCARBITRARYCLOSEDPROFILEDEF(.AREA.,$,#124);
#126=IFCCARTESIANPOINT((0.,0.,0.));
#127=IFCDIRECTION((0.,0.,1.));
#128=IFCDIRECTION((1.,0.,0.));
#129=IFCAXIS2PLACEMENT3D(#126,#127,#128);
#130=IFCDIRECTION((0.,0.,1.));
#131=IFCEXTRUDEDAREASOLID(#125,#129,#130,0.29999999999999999);
#132=IFCSHAPEREPRESENTATION(#16,'Body','SweptSolid',(#131));
#133=IFCPRODUCTDEFINITIONSHAPE($,$,(#132));
#134=IFCOWNERHISTORY(#3,#4,.READWRITE.,.MODIFIED.,1789307101,#3,#4,1789307101);
#135=IFCCOVERING('0s9Xe8pkb7igTH4og3NFSr',#134,'Bodenaufbau',$,$,#140,#155,$,.FLOORING.);
#136=IFCCARTESIANPOINT((0.,0.,-0.10000000000000001));
#137=IFCDIRECTION((0.,0.,1.));
#138=IFCDIRECTION((1.,0.,0.));
#139=IFCAXIS2PLACEMENT3D(#136,#137,#138);
#140=IFCLOCALPLACEMENT(#43,#139);
#141=IFCCARTESIANPOINT((0.,0.,0.));
#142=IFCCARTESIANPOINT((4.,0.,0.));
#143=IFCCARTESIANPOINT((4.,5.,0.));
#144=IFCCARTESIANPOINT((0.,5.,0.));
#145=IFCCARTESIANPOINT((0.,0.,0.));
#146=IFCPOLYLINE((#141,#142,#143,#144,#145));
#147=IFCARBITRARYCLOSEDPROFILEDEF(.AREA.,$,#146);
#148=IFCCARTESIANPOINT((0.,0.,0.));
#149=IFCDIRECTION((0.,0.,1.));
#150=IFCDIRECTION((1.,0.,0.));
#151=IFCAXIS2PLACEMENT3D(#148,#149,#150);
#152=IFCDIRECTION((0.,0.,1.));
#153=IFCEXTRUDEDAREASOLID(#147,#151,#152,0.10000000000000001);
#154=IFCSHAPEREPRESENTATION(#16,'Body','SweptSolid',(#153));
#155=IFCPRODUCTDEFINITIONSHAPE($,$,(#154));
#156=IFCOWNERHISTORY(#3,#4,.READWRITE.,.MODIFIED.,1789307101,#3,#4,1789307101);
#157=IFCCOVERING('2hyk5Ylgn2ixmCRJe73uPa',#156,'101-N-FloorCovering',$,$,#162,#177,$,.FLOORING.);
#158=IFCCARTESIANPOINT((0.,0.,-0.10000000000000001));
#159=IFCDIRECTION((0.,0.,1.));
#160=IFCDIRECTION((1.,0.,0.));
#161=IFCAXIS2PLACEMENT3D(#158,#159,#160);
#162=IFCLOCALPLACEMENT(#43,#161);
#163=IFCCARTESIANPOINT((4.2000000000000002,0.,0.));
#164=IFCCARTESIANPOINT((7.2000000000000002,0.,0.));
#165=IFCCARTESIANPOINT((7.2000000000000002,5.,0.));
#166=IFCCARTESIANPOINT((4.2000000000000002,5.,0.));
#167=IFCCARTESIANPOINT((4.2000000000000002,0.,0.));
#168=IFCPOLYLINE((#163,#164,#165,#166,#167));
#169=IFCARBITRARYCLOSEDPROFILEDEF(.AREA.,$,#168);
#170=IFCCARTESIANPOINT((0.,0.,0.));
#171=IFCDIRECTION((0.,0.,1.));
#172=IFCDIRECTION((1.,0.,0.));
#173=IFCAXIS2PLACEMENT3D(#170,#171,#172);
#174=IFCDIRECTION((0.,0.,1.));
#175=IFCEXTRUDEDAREASOLID(#169,#173,#174,0.10000000000000001);
#176=IFCSHAPEREPRESENTATION(#16,'Body','SweptSolid',(#175));
#177=IFCPRODUCTDEFINITIONSHAPE($,$,(#176));
#178=IFCOWNERHISTORY(#3,#4,.READWRITE.,.MODIFIED.,1789307101,#3,#4,1789307101);
#179=IFCCOVERING('34HbP4TKvDNxo3rLzVOf6D',#178,'101-CeilingCovering',$,$,#184,#199,$,.CEILING.);
#180=IFCCARTESIANPOINT((0.,0.,2.6000000000000001));
#181=IFCDIRECTION((0.,0.,1.));
#182=IFCDIRECTION((1.,0.,0.));
#183=IFCAXIS2PLACEMENT3D(#180,#181,#182);
#184=IFCLOCALPLACEMENT(#43,#183);
#185=IFCCARTESIANPOINT((0.,0.,0.));
#186=IFCCARTESIANPOINT((4.,0.,0.));
#187=IFCCARTESIANPOINT((4.,5.,0.));
#188=IFCCARTESIANPOINT((0.,5.,0.));
#189=IFCCARTESIANPOINT((0.,0.,0.));
#190=IFCPOLYLINE((#185,#186,#187,#188,#189));
#191=IFCARBITRARYCLOSEDPROFILEDEF(.AREA.,$,#190);
#192=IFCCARTESIANPOINT((0.,0.,0.));
#193=IFCDIRECTION((0.,0.,1.));
#194=IFCDIRECTION((1.,0.,0.));
#195=IFCAXIS2PLACEMENT3D(#192,#193,#194);
#196=IFCDIRECTION((0.,0.,1.));
#197=IFCEXTRUDEDAREASOLID(#191,#195,#196,0.10000000000000001);
#198=IFCSHAPEREPRESENTATION(#16,'Body','SweptSolid',(#197));
#199=IFCPRODUCTDEFINITIONSHAPE($,$,(#198));
#200=IFCOWNERHISTORY(#3,#4,.READWRITE.,.MODIFIED.,1789307101,#3,#4,1789307101);
#201=IFCSLAB('2RBtwKeQL8of8kq4TfjBXH',#200,'101-CeilingSlab',$,$,#206,#221,$,.FLOOR.);
#202=IFCCARTESIANPOINT((0.,0.,2.7999999999999998));
#203=IFCDIRECTION((0.,0.,1.));
#204=IFCDIRECTION((1.,0.,0.));
#205=IFCAXIS2PLACEMENT3D(#202,#203,#204);
#206=IFCLOCALPLACEMENT(#43,#205);
#207=IFCCARTESIANPOINT((0.,0.,0.));
#208=IFCCARTESIANPOINT((7.2000000000000002,0.,0.));
#209=IFCCARTESIANPOINT((7.2000000000000002,5.,0.));
#210=IFCCARTESIANPOINT((0.,5.,0.));
#211=IFCCARTESIANPOINT((0.,0.,0.));
#212=IFCPOLYLINE((#207,#208,#209,#210,#211));
#213=IFCARBITRARYCLOSEDPROFILEDEF(.AREA.,$,#212);
#214=IFCCARTESIANPOINT((0.,0.,0.));
#215=IFCDIRECTION((0.,0.,1.));
#216=IFCDIRECTION((1.,0.,0.));
#217=IFCAXIS2PLACEMENT3D(#214,#215,#216);
#218=IFCDIRECTION((0.,0.,1.));
#219=IFCEXTRUDEDAREASOLID(#213,#217,#218,0.29999999999999999);
#220=IFCSHAPEREPRESENTATION(#16,'Body','SweptSolid',(#219));
#221=IFCPRODUCTDEFINITIONSHAPE($,$,(#220));
#222=IFCOWNERHISTORY(#3,#4,.READWRITE.,.MODIFIED.,1789307101,#3,#4,1789307101);
#223=IFCWALL('1Z5TB6c5L5TfQMPo303MkL',#222,'101-Partition',$,$,#228,#243,$,.PARTITIONING.);
#224=IFCCARTESIANPOINT((4.2000000000000002,0.,-0.10000000000000001));
#225=IFCDIRECTION((0.,0.,1.));
#226=IFCDIRECTION((0.,1.,0.));
#227=IFCAXIS2PLACEMENT3D(#224,#225,#226);
#228=IFCLOCALPLACEMENT(#43,#227);
#229=IFCCARTESIANPOINT((0.,0.,0.));
#230=IFCCARTESIANPOINT((5.,0.,0.));
#231=IFCCARTESIANPOINT((5.,0.20000000000000001,0.));
#232=IFCCARTESIANPOINT((0.,0.20000000000000001,0.));
#233=IFCCARTESIANPOINT((0.,0.,0.));
#234=IFCPOLYLINE((#229,#230,#231,#232,#233));
#235=IFCARBITRARYCLOSEDPROFILEDEF(.AREA.,$,#234);
#236=IFCCARTESIANPOINT((0.,0.,0.));
#237=IFCDIRECTION((0.,0.,1.));
#238=IFCDIRECTION((1.,0.,0.));
#239=IFCAXIS2PLACEMENT3D(#236,#237,#238);
#240=IFCDIRECTION((0.,0.,1.));
#241=IFCEXTRUDEDAREASOLID(#235,#239,#240,2.8999999999999999);
#242=IFCSHAPEREPRESENTATION(#16,'Body','SweptSolid',(#241));
#243=IFCPRODUCTDEFINITIONSHAPE($,$,(#242));
#244=IFCOWNERHISTORY(#3,#4,.READWRITE.,.MODIFIED.,1789307101,#3,#4,1789307101);
#245=IFCSPACE('1tLdS35Yr4n95juQZ0YCYf',#244,'102',$,$,#250,#265,'Flur',$,.INTERNAL.,$);
#246=IFCCARTESIANPOINT((0.,0.,0.));
#247=IFCDIRECTION((0.,0.,1.));
#248=IFCDIRECTION((1.,0.,0.));
#249=IFCAXIS2PLACEMENT3D(#246,#247,#248);
#250=IFCLOCALPLACEMENT(#43,#249);
#251=IFCCARTESIANPOINT((4.2000000000000002,0.,0.));
#252=IFCCARTESIANPOINT((7.2000000000000002,0.,0.));
#253=IFCCARTESIANPOINT((7.2000000000000002,5.,0.));
#254=IFCCARTESIANPOINT((4.2000000000000002,5.,0.));
#255=IFCCARTESIANPOINT((4.2000000000000002,0.,0.));
#256=IFCPOLYLINE((#251,#252,#253,#254,#255));
#257=IFCARBITRARYCLOSEDPROFILEDEF(.AREA.,$,#256);
#258=IFCCARTESIANPOINT((0.,0.,0.));
#259=IFCDIRECTION((0.,0.,1.));
#260=IFCDIRECTION((1.,0.,0.));
#261=IFCAXIS2PLACEMENT3D(#258,#259,#260);
#262=IFCDIRECTION((0.,0.,1.));
#263=IFCEXTRUDEDAREASOLID(#257,#261,#262,2.7999999999999998);
#264=IFCSHAPEREPRESENTATION(#16,'Body','SweptSolid',(#263));
#265=IFCPRODUCTDEFINITIONSHAPE($,$,(#264));
#266=IFCOWNERHISTORY(#3,#4,.READWRITE.,.ADDED.,1789307101,#3,#4,1789307101);
#267=IFCELEMENTQUANTITY('00SPyNfmn568i7RlS05jPm',#266,'Qto_SpaceBaseQuantities',$,'BaseQuantities',(#270,#271,#272,#273,#274));
#268=IFCOWNERHISTORY(#3,#4,.READWRITE.,.ADDED.,1789307101,#3,#4,1789307101);
#269=IFCRELDEFINESBYPROPERTIES('2nTy3maxD1Mvw0bBgvbhv2',#268,$,$,(#245),#267);
#270=IFCQUANTITYAREA('NetFloorArea',$,$,15.,$);
#271=IFCQUANTITYLENGTH('Height',$,$,2.7999999999999998,$);
#272=IFCQUANTITYLENGTH('FinishCeilingHeight',$,$,2.7999999999999998,$);
#273=IFCQUANTITYAREA('GrossFloorArea',$,$,15.,$);
#274=IFCQUANTITYVOLUME('GrossVolume',$,$,42.,$);
#275=IFCOWNERHISTORY(#3,#4,.READWRITE.,.ADDED.,1789307101,#3,#4,1789307101);
#276=IFCPROPERTYSET('1tR8JoKen3wRmzRVzr1cnC',#275,'ePset_Space',$,(#279));
#277=IFCOWNERHISTORY(#3,#4,.READWRITE.,.ADDED.,1789307101,#3,#4,1789307101);
#278=IFCRELDEFINESBYPROPERTIES('3iCN_hE_L9RuMY72H7T9eg',#277,$,$,(#245),#276);
#279=IFCPROPERTYSINGLEVALUE('SignageRoomNumber',$,IFCIDENTIFIER('102'),$);
#280=IFCOWNERHISTORY(#3,#4,.READWRITE.,.ADDED.,1789307101,#3,#4,1789307101);
#281=IFCPROPERTYSET('1dTrvekZbFEQvkWwpRV0kN',#280,'Pset_SpaceCommon',$,(#284,#285));
#282=IFCOWNERHISTORY(#3,#4,.READWRITE.,.ADDED.,1789307101,#3,#4,1789307101);
#283=IFCRELDEFINESBYPROPERTIES('32duoEFWb4JPLB9FHRv04o',#282,$,$,(#245),#281);
#284=IFCPROPERTYSINGLEVALUE('Reference',$,IFCIDENTIFIER('VF'),$);
#285=IFCPROPERTYSINGLEVALUE('IsExternal',$,IFCBOOLEAN(.F.),$);
#286=IFCOWNERHISTORY(#3,#4,.READWRITE.,.ADDED.,1789307101,#3,#4,1789307101);
#287=IFCPROPERTYSET('1EuCTOXVz8Q9QeWdIEOne8',#286,'Pset_SpaceCoveringRequirements',$,(#290));
#288=IFCOWNERHISTORY(#3,#4,.READWRITE.,.ADDED.,1789307101,#3,#4,1789307101);
#289=IFCRELDEFINESBYPROPERTIES('19fzHbYJ57Ex3Pl2nn6wDI',#288,$,$,(#245),#287);
#290=IFCPROPERTYSINGLEVALUE('FloorCovering',$,IFCLABEL('PVC'),$);
#291=IFCOWNERHISTORY(#3,#4,.READWRITE.,.ADDED.,1789307101,#3,#4,1789307101);
#292=IFCPROPERTYSET('04XqXbiEr1OBgYpml9GDAP',#291,'Pset_SpaceThermalDesign',$,(#295));
#293=IFCOWNERHISTORY(#3,#4,.READWRITE.,.ADDED.,1789307101,#3,#4,1789307101);
#294=IFCRELDEFINESBYPROPERTIES('2bdCmgbs14tQzEsoTaZesw',#293,$,$,(#245),#292);
#295=IFCPROPERTYSINGLEVALUE('TotalHeatLoss',$,IFCPOWERMEASURE(1.),$);
#296=IFCOWNERHISTORY(#3,#4,.READWRITE.,.ADDED.,1789307101,#3,#4,1789307101);
#297=IFCPROPERTYSET('3sEaAcxLDDMhBW1NrIWv5G',#296,'ePset_SpaceRequirement',$,(#300,#301,#302));
#298=IFCOWNERHISTORY(#3,#4,.READWRITE.,.ADDED.,1789307101,#3,#4,1789307101);
#299=IFCRELDEFINESBYPROPERTIES('3xCgaA18LDiPpNzgMydbnp',#298,$,$,(#245),#297);
#300=IFCPROPERTYSINGLEVALUE('DesignAreaLoad',$,IFCREAL(2.),$);
#301=IFCPROPERTYSINGLEVALUE('DesignPointLoad',$,IFCREAL(1.5),$);
#302=IFCPROPERTYSINGLEVALUE('VibrationRequirements',$,IFCLABEL('ISO Workshop'),$);
#303=IFCOWNERHISTORY(#3,#4,.READWRITE.,.ADDED.,1789307101,#3,#4,1789307101);
#304=IFCPROPERTYSET('1P5JbmZCH2OwFWvBSeuKIk',#303,'ePset_Space',$,(#307));
#305=IFCOWNERHISTORY(#3,#4,.READWRITE.,.ADDED.,1789307101,#3,#4,1789307101);
#306=IFCRELDEFINESBYPROPERTIES('1qCP8$jf52_BgIH6nCnpYO',#305,$,$,(#245),#304);
#307=IFCPROPERTYSINGLEVALUE('Checkliste',$,IFCTEXT('Bodenbelag; Beleuchtung'),$);
#308=IFCOWNERHISTORY(#3,#4,.READWRITE.,.ADDED.,1789307101,#3,#4,1789307101);
#309=IFCELEMENTQUANTITY('3gXZTfwOr6M92rHPefJoXY',#308,'Qto_CoveringBaseQuantities',$,'BaseQuantities',(#312));
#310=IFCOWNERHISTORY(#3,#4,.READWRITE.,.ADDED.,1789307101,#3,#4,1789307101);
#311=IFCRELDEFINESBYPROPERTIES('1yHuQg9xjA2wDBxJGF06h7',#310,$,$,(#135),#309);
#312=IFCQUANTITYAREA('NetArea',$,$,20.,$);
#313=IFCOWNERHISTORY(#3,#4,.READWRITE.,.ADDED.,1789307101,#3,#4,1789307101);
#314=IFCPROPERTYSET('2NLjcJ0q1DdBkgZPcbgm_w',#313,'Pset_CoveringCommon',$,(#317,#318));
#315=IFCOWNERHISTORY(#3,#4,.READWRITE.,.ADDED.,1789307101,#3,#4,1789307101);
#316=IFCRELDEFINESBYPROPERTIES('15dFNnHBrFTwUrnvEYRlH$',#315,$,$,(#135),#314);
#317=IFCPROPERTYSINGLEVALUE('Finish',$,IFCTEXT('Teppich'),$);
#318=IFCPROPERTYSINGLEVALUE('Status',$,IFCLABEL('NEW'),$);
#319=IFCOWNERHISTORY(#3,#4,.READWRITE.,.ADDED.,1789307101,#3,#4,1789307101);
#320=IFCPROPERTYSET('2S0Td2XCH8guII7MiIteNq',#319,'ePset_CoveringFlooring',$,(#323));
#321=IFCOWNERHISTORY(#3,#4,.READWRITE.,.ADDED.,1789307101,#3,#4,1789307101);
#322=IFCRELDEFINESBYPROPERTIES('0Unemj2s1AgBeO3ppIi1RD',#321,$,$,(#135),#320);
#323=IFCPROPERTYSINGLEVALUE('SubfloorType',$,IFCLABEL('Zement-UB'),$);
#324=IFCOWNERHISTORY(#3,#4,.READWRITE.,.ADDED.,1789307101,#3,#4,1789307101);
#325=IFCPROPERTYSET('2pU6H9hL97o8FeCpYAh7t2',#324,'ePset_Cost',$,(#328,#329,#330,#331,#332));
#326=IFCOWNERHISTORY(#3,#4,.READWRITE.,.ADDED.,1789307101,#3,#4,1789307101);
#327=IFCRELDEFINESBYPROPERTIES('2MIjInqZn8I8UCQ52DJ5vZ',#326,$,$,(#135),#325);
#328=IFCPROPERTYSINGLEVALUE('CostInterface',$,IFCLABEL('GAB'),$);
#329=IFCPROPERTYSINGLEVALUE('AwardInterface',$,IFCLABEL('273'),$);
#330=IFCPROPERTYSINGLEVALUE('PlanningInterface',$,IFCLABEL('092'),$);
#331=IFCPROPERTYSINGLEVALUE('BelowTerrain',$,IFCBOOLEAN(.F.),$);
#332=IFCPROPERTYSINGLEVALUE('eBKP',$,IFCLABEL('G02.02'),$);
ENDSEC;
END-ISO-10303-21;
