ISO-10303-21;
HEADER;
FILE_DESCRIPTION(('ViewDefinition[DesignTransferView]'),'2;1');
FILE_NAME('/dev/null','2026-09-13T15:45:01+02:00',(''),(''),'IfcOpenShell 0.8.5','IfcOpenShell 0.8.5','Nobody');
FILE_SCHEMA(('IFC4'));
ENDSEC;
DATA;
#1=IFCPERSON('catalog-pipeline','Pipeline','Catalog',$,$,$,$,$);
#2=IFCORGANIZATION('pragmaticBIM','pragmaticBIM',$,$,$);
#3=IFCPERSONANDORGANIZATION(#1,#2,$);
#4=IFCAPPLICATION(#2,'0.1.0','Catalog IFC Pipeline','catalog-ifc-pipeline');
#5=IFCOWNERHISTORY(#3,#4,.READWRITE.,.ADDED.,1789307101,#3,#4,1789307101);
#6=IFCPROJECT('2vxeXNxIbEdvpx8GamLLxu',#5,'Catalog \X2\2014\X0\ ceiling-suspended-01',$,$,$,$,(#15),#10);
#7=IFCSIUNIT(*,.LENGTHUNIT.,$,.METRE.);
#8=IFCSIUNIT(*,.AREAUNIT.,$,.SQUARE_METRE.);
#9=IFCSIUNIT(*,.VOLUMEUNIT.,$,.CUBIC_METRE.);
#10=IFCUNITASSIGNMENT((#9,#7,#8));
#11=IFCCARTESIANPOINT((0.,0.,0.));
#12=IFCDIRECTION((0.,0.,1.));
#13=IFCDIRECTION((1.,0.,0.));
#14=IFCAXIS2PLACEMENT3D(#11,#12,#13);
#15=IFCGEOMETRICREPRESENTATIONCONTEXT($,'Model',3,1.0000000000000001E-05,#14,$);
#16=IFCGEOMETRICREPRESENTATIONSUBCONTEXT('Body','Model',*,*,*,*,#15,$,.MODEL_VIEW.,$);
#17=IFCOWNERHISTORY(#3,#4,.READWRITE.,.MODIFIED.,1789307101,#3,#4,1789307101);
#18=IFCSITE('2bBRqwn8f1j9XRCjCEuu6K',#17,'Site',$,$,#29,$,$,$,$,$,$,$,$);
#19=IFCOWNERHISTORY(#3,#4,.READWRITE.,.MODIFIED.,1789307101,#3,#4,1789307101);
#20=IFCBUILDING('21tEawxMDEKORVj1V9Jwe8',#19,'Building',$,$,#34,$,$,$,$,$,$);
#21=IFCOWNERHISTORY(#3,#4,.READWRITE.,.ADDED.,1789307101,#3,#4,1789307101);
#22=IFCRELAGGREGATES('26MGEa4wv1LQrWovsMX1oE',#21,$,$,#6,(#18));
#23=IFCOWNERHISTORY(#3,#4,.READWRITE.,.ADDED.,1789307101,#3,#4,1789307101);
#24=IFCRELAGGREGATES('3Vzg5ox5n7Vh_aJDZb5USH',#23,$,$,#18,(#20));
#25=IFCCARTESIANPOINT((0.,0.,0.));
#26=IFCDIRECTION((0.,0.,1.));
#27=IFCDIRECTION((1.,0.,0.));
#28=IFCAXIS2PLACEMENT3D(#25,#26,#27);
#29=IFCLOCALPLACEMENT($,#28);
#30=IFCCARTESIANPOINT((0.,0.,0.));
#31=IFCDIRECTION((0.,0.,1.));
#32=IFCDIRECTION((1.,0.,0.));
#33=IFCAXIS2PLACEMENT3D(#30,#31,#32);
#34=IFCLOCALPLACEMENT(#29,#33);
#35=IFCOWNERHISTORY(#3,#4,.READWRITE.,.MODIFIED.,1789307101,#3,#4,1789307101);
#36=IFCBUILDINGSTOREY('21za97cgnDzeWP3EhDIfqN',#35,'Level 0',$,$,#43,$,$,$,0.);
#37=IFCOWNERHISTORY(#3,#4,.READWRITE.,.ADDED.,1789307101,#3,#4,1789307101);
#38=IFCRELAGGREGATES('1gqJXuB956JuNuPvkCjhB9',#37,$,$,#20,(#36));
#39=IFCCARTESIANPOINT((0.,0.,0.));
#40=IFCDIRECTION((0.,0.,1.));
#41=IFCDIRECTION((1.,0.,0.));
#42=IFCAXIS2PLACEMENT3D(#39,#40,#41);
#43=IFCLOCALPLACEMENT(#34,#42);
#44=IFCOWNERHISTORY(#3,#4,.READWRITE.,.MODIFIED.,1789307101,#3,#4,1789307101);
#45=IFCSPACE('26eFLekpn8ZBomD41LKc_l',#44,'101',$,$,#52,#67,'Buero',$,.INTERNAL.,$);
#46=IFCOWNERHISTORY(#3,#4,.READWRITE.,.MODIFIED.,1789307101,#3,#4,1789307101);
#47=IFCRELAGGREGATES('2pqp$643n8qeFCQoiwSOGo',#46,$,$,#36,(#45,#111,#471,#407));
#48=IFCCARTESIANPOINT((0.,0.,0.));
#49=IFCDIRECTION((0.,0.,1.));
#50=IFCDIRECTION((1.,0.,0.));
#51=IFCAXIS2PLACEMENT3D(#48,#49,#50);
#52=IFCLOCALPLACEMENT(#43,#51);
#53=IFCCARTESIANPOINT((0.,0.,0.));
#54=IFCCARTESIANPOINT((4.,0.,0.));
#55=IFCCARTESIANPOINT((4.,5.,0.));
#56=IFCCARTESIANPOINT((0.,5.,0.));
#57=IFCCARTESIANPOINT((0.,0.,0.));
#58=IFCPOLYLINE((#53,#54,#55,#56,#57));
#59=IFCARBITRARYCLOSEDPROFILEDEF(.AREA.,$,#58);
#60=IFCCARTESIANPOINT((0.,0.,0.));
#61=IFCDIRECTION((0.,0.,1.));
#62=IFCDIRECTION((1.,0.,0.));
#63=IFCAXIS2PLACEMENT3D(#60,#61,#62);
#64=IFCDIRECTION((0.,0.,1.));
#65=IFCEXTRUDEDAREASOLID(#59,#63,#64,2.7999999999999998);
#66=IFCSHAPEREPRESENTATION(#16,'Body','SweptSolid',(#65));
#67=IFCPRODUCTDEFINITIONSHAPE($,$,(#66));
#68=IFCOWNERHISTORY(#3,#4,.READWRITE.,.ADDED.,1789307101,#3,#4,1789307101);
#69=IFCELEMENTQUANTITY('3eo1kFNVD8zhS$Bt8QPwW4',#68,'Qto_SpaceBaseQuantities',$,'BaseQuantities',(#72,#73,#74,#75,#76));
#70=IFCOWNERHISTORY(#3,#4,.READWRITE.,.ADDED.,1789307101,#3,#4,1789307101);
#71=IFCRELDEFINESBYPROPERTIES('0LN1_MLkX45QAWelo8IB92',#70,$,$,(#45),#69);
#72=IFCQUANTITYAREA('NetFloorArea',$,$,20.,$);
#73=IFCQUANTITYLENGTH('Height',$,$,2.7999999999999998,$);
#74=IFCQUANTITYLENGTH('FinishCeilingHeight',$,$,2.7999999999999998,$);
#75=IFCQUANTITYAREA('GrossFloorArea',$,$,20.,$);
#76=IFCQUANTITYVOLUME('GrossVolume',$,$,56.,$);
#77=IFCOWNERHISTORY(#3,#4,.READWRITE.,.ADDED.,1789307101,#3,#4,1789307101);
#78=IFCPROPERTYSET('2DqjKQTpP7cR95wULeMDz5',#77,'ePset_Space',$,(#81));
#79=IFCOWNERHISTORY(#3,#4,.READWRITE.,.ADDED.,1789307101,#3,#4,1789307101);
#80=IFCRELDEFINESBYPROPERTIES('3AnUH7C6TDs8KQ1DFzPyNP',#79,$,$,(#45),#78);
#81=IFCPROPERTYSINGLEVALUE('SignageRoomNumber',$,IFCIDENTIFIER('101'),$);
#82=IFCOWNERHISTORY(#3,#4,.READWRITE.,.ADDED.,1789307101,#3,#4,1789307101);
#83=IFCPROPERTYSET('0KzSY_iPr4AfoRZ$Tdmud5',#82,'Pset_SpaceCommon',$,(#86,#87));
#84=IFCOWNERHISTORY(#3,#4,.READWRITE.,.ADDED.,1789307101,#3,#4,1789307101);
#85=IFCRELDEFINESBYPROPERTIES('3B8lZnSs17384TpFT3o8Ru',#84,$,$,(#45),#83);
#86=IFCPROPERTYSINGLEVALUE('Reference',$,IFCIDENTIFIER('HNF'),$);
#87=IFCPROPERTYSINGLEVALUE('IsExternal',$,IFCBOOLEAN(.F.),$);
#88=IFCOWNERHISTORY(#3,#4,.READWRITE.,.ADDED.,1789307101,#3,#4,1789307101);
#89=IFCPROPERTYSET('2IVrt$OTP4Qx4LMdvszQMt',#88,'Pset_SpaceCoveringRequirements',$,(#92));
#90=IFCOWNERHISTORY(#3,#4,.READWRITE.,.ADDED.,1789307101,#3,#4,1789307101);
#91=IFCRELDEFINESBYPROPERTIES('1D_qm6VQLDYgGjcOeGJXrO',#90,$,$,(#45),#89);
#92=IFCPROPERTYSINGLEVALUE('FloorCovering',$,IFCLABEL('Teppich'),$);
#93=IFCOWNERHISTORY(#3,#4,.READWRITE.,.ADDED.,1789307101,#3,#4,1789307101);
#94=IFCPROPERTYSET('1KX1pkSaz3Du4xTe7qsZU7',#93,'Pset_SpaceThermalDesign',$,(#97));
#95=IFCOWNERHISTORY(#3,#4,.READWRITE.,.ADDED.,1789307101,#3,#4,1789307101);
#96=IFCRELDEFINESBYPROPERTIES('3LICzg5TX2yxrImfT5nGmO',#95,$,$,(#45),#94);
#97=IFCPROPERTYSINGLEVALUE('TotalHeatLoss',$,IFCPOWERMEASURE(1.),$);
#98=IFCOWNERHISTORY(#3,#4,.READWRITE.,.ADDED.,1789307101,#3,#4,1789307101);
#99=IFCPROPERTYSET('3v$Ur9Zej0dgVigM4Ygpf3',#98,'ePset_SpaceRequirement',$,(#102,#103,#104));
#100=IFCOWNERHISTORY(#3,#4,.READWRITE.,.ADDED.,1789307101,#3,#4,1789307101);
#101=IFCRELDEFINESBYPROPERTIES('0azUoBrgr96ew3jfRCtfhk',#100,$,$,(#45),#99);
#102=IFCPROPERTYSINGLEVALUE('DesignAreaLoad',$,IFCREAL(3.),$);
#103=IFCPROPERTYSINGLEVALUE('DesignPointLoad',$,IFCREAL(2.),$);
#104=IFCPROPERTYSINGLEVALUE('VibrationRequirements',$,IFCLABEL('ISO Office'),$);
#105=IFCOWNERHISTORY(#3,#4,.READWRITE.,.ADDED.,1789307101,#3,#4,1789307101);
#106=IFCPROPERTYSET('0rRhfSTTX5hukdaJKKOkgD',#105,'ePset_Space',$,(#109));
#107=IFCOWNERHISTORY(#3,#4,.READWRITE.,.ADDED.,1789307101,#3,#4,1789307101);
#108=IFCRELDEFINESBYPROPERTIES('0MkmuduND9MxiXYrLClk$i',#107,$,$,(#45),#106);
#109=IFCPROPERTYSINGLEVALUE('Checkliste',$,IFCTEXT('Bodenbelag; Elektro; Beleuchtung'),$);
#110=IFCOWNERHISTORY(#3,#4,.READWRITE.,.MODIFIED.,1789307101,#3,#4,1789307101);
#111=IFCSPACE('2yef5ulhX6ehmNC82LpOgv',#110,'LR-01',$,'Luftraum',#116,#131,'Luftraum',$,.USERDEFINED.,$);
#112=IFCCARTESIANPOINT((0.,0.,2.7999999999999998));
#113=IFCDIRECTION((0.,0.,1.));
#114=IFCDIRECTION((1.,0.,0.));
#115=IFCAXIS2PLACEMENT3D(#112,#113,#114);
#116=IFCLOCALPLACEMENT(#43,#115);
#117=IFCCARTESIANPOINT((0.,0.,0.));
#118=IFCCARTESIANPOINT((2.5,0.,0.));
#119=IFCCARTESIANPOINT((2.5,5.,0.));
#120=IFCCARTESIANPOINT((0.,5.,0.));
#121=IFCCARTESIANPOINT((0.,0.,0.));
#122=IFCPOLYLINE((#117,#118,#119,#120,#121));
#123=IFCARBITRARYCLOSEDPROFILEDEF(.AREA.,$,#122);
#124=IFCCARTESIANPOINT((0.,0.,0.));
#125=IFCDIRECTION((0.,0.,1.));
#126=IFCDIRECTION((1.,0.,0.));
#127=IFCAXIS2PLACEMENT3D(#124,#125,#126);
#128=IFCDIRECTION((0.,0.,1.));
#129=IFCEXTRUDEDAREASOLID(#123,#127,#128,3.5);
#130=IFCSHAPEREPRESENTATION(#16,'Body','SweptSolid',(#129));
#131=IFCPRODUCTDEFINITIONSHAPE($,$,(#130));
#132=IFCOWNERHISTORY(#3,#4,.READWRITE.,.ADDED.,1789307101,#3,#4,1789307101);
#133=IFCELEMENTQUANTITY('0Xqovbpsb4A82u_RIEbGzb',#132,'Qto_SpaceBaseQuantities',$,'BaseQuantities',(#136,#137,#138,#139));
#134=IFCOWNERHISTORY(#3,#4,.READWRITE.,.ADDED.,1789307101,#3,#4,1789307101);
#135=IFCRELDEFINESBYPROPERTIES('2csC_GES937Q1hW$v1EDdc',#134,$,$,(#111),#133);
#136=IFCQUANTITYAREA('GrossFloorArea',$,$,12.5,$);
#137=IFCQUANTITYVOLUME('GrossVolume',$,$,43.75,$);
#138=IFCQUANTITYLENGTH('Height',$,$,3.5,$);
#139=IFCQUANTITYAREA('NetFloorArea',$,$,12.5,$);
#140=IFCOWNERHISTORY(#3,#4,.READWRITE.,.MODIFIED.,1789307101,#3,#4,1789307101);
#141=IFCSLAB('2Juh$rOFXAgRZZwxT2$VEe',#140,'LR-01-FloorSlab',$,$,#148,#163,$,.FLOOR.);
#142=IFCOWNERHISTORY(#3,#4,.READWRITE.,.MODIFIED.,1789307101,#3,#4,1789307101);
#143=IFCRELCONTAINEDINSPATIALSTRUCTURE('0K8CjRYKb92uJBXOk5sQ$Q',#142,$,$,(#297,#341,#165,#319,#141,#363,#385,#231,#187,#209,#253,#275),#36);
#144=IFCCARTESIANPOINT((0.,0.,-0.40000000000000002));
#145=IFCDIRECTION((0.,0.,1.));
#146=IFCDIRECTION((1.,0.,0.));
#147=IFCAXIS2PLACEMENT3D(#144,#145,#146);
#148=IFCLOCALPLACEMENT(#43,#147);
#149=IFCCARTESIANPOINT((0.,0.,0.));
#150=IFCCARTESIANPOINT((7.2000000000000002,0.,0.));
#151=IFCCARTESIANPOINT((7.2000000000000002,5.,0.));
#152=IFCCARTESIANPOINT((0.,5.,0.));
#153=IFCCARTESIANPOINT((0.,0.,0.));
#154=IFCPOLYLINE((#149,#150,#151,#152,#153));
#155=IFCARBITRARYCLOSEDPROFILEDEF(.AREA.,$,#154);
#156=IFCCARTESIANPOINT((0.,0.,0.));
#157=IFCDIRECTION((0.,0.,1.));
#158=IFCDIRECTION((1.,0.,0.));
#159=IFCAXIS2PLACEMENT3D(#156,#157,#158);
#160=IFCDIRECTION((0.,0.,1.));
#161=IFCEXTRUDEDAREASOLID(#155,#159,#160,0.29999999999999999);
#162=IFCSHAPEREPRESENTATION(#16,'Body','SweptSolid',(#161));
#163=IFCPRODUCTDEFINITIONSHAPE($,$,(#162));
#164=IFCOWNERHISTORY(#3,#4,.READWRITE.,.MODIFIED.,1789307101,#3,#4,1789307101);
#165=IFCCOVERING('1kp59wRCXCghznueIAYZvt',#164,'LR-01-FloorCovering',$,$,#170,#185,$,.FLOORING.);
#166=IFCCARTESIANPOINT((0.,0.,-0.10000000000000001));
#167=IFCDIRECTION((0.,0.,1.));
#168=IFCDIRECTION((1.,0.,0.));
#169=IFCAXIS2PLACEMENT3D(#166,#167,#168);
#170=IFCLOCALPLACEMENT(#43,#169);
#171=IFCCARTESIANPOINT((0.,0.,0.));
#172=IFCCARTESIANPOINT((4.,0.,0.));
#173=IFCCARTESIANPOINT((4.,5.,0.));
#174=IFCCARTESIANPOINT((0.,5.,0.));
#175=IFCCARTESIANPOINT((0.,0.,0.));
#176=IFCPOLYLINE((#171,#172,#173,#174,#175));
#177=IFCARBITRARYCLOSEDPROFILEDEF(.AREA.,$,#176);
#178=IFCCARTESIANPOINT((0.,0.,0.));
#179=IFCDIRECTION((0.,0.,1.));
#180=IFCDIRECTION((1.,0.,0.));
#181=IFCAXIS2PLACEMENT3D(#178,#179,#180);
#182=IFCDIRECTION((0.,0.,1.));
#183=IFCEXTRUDEDAREASOLID(#177,#181,#182,0.10000000000000001);
#184=IFCSHAPEREPRESENTATION(#16,'Body','SweptSolid',(#183));
#185=IFCPRODUCTDEFINITIONSHAPE($,$,(#184));
#186=IFCOWNERHISTORY(#3,#4,.READWRITE.,.MODIFIED.,1789307101,#3,#4,1789307101);
#187=IFCCOVERING('2XzEhEW4r6NOEM2ED7jGjS',#186,'LR-01-N-FloorCovering',$,$,#192,#207,$,.FLOORING.);
#188=IFCCARTESIANPOINT((0.,0.,-0.10000000000000001));
#189=IFCDIRECTION((0.,0.,1.));
#190=IFCDIRECTION((1.,0.,0.));
#191=IFCAXIS2PLACEMENT3D(#188,#189,#190);
#192=IFCLOCALPLACEMENT(#43,#191);
#193=IFCCARTESIANPOINT((4.2000000000000002,0.,0.));
#194=IFCCARTESIANPOINT((7.2000000000000002,0.,0.));
#195=IFCCARTESIANPOINT((7.2000000000000002,5.,0.));
#196=IFCCARTESIANPOINT((4.2000000000000002,5.,0.));
#197=IFCCARTESIANPOINT((4.2000000000000002,0.,0.));
#198=IFCPOLYLINE((#193,#194,#195,#196,#197));
#199=IFCARBITRARYCLOSEDPROFILEDEF(.AREA.,$,#198);
#200=IFCCARTESIANPOINT((0.,0.,0.));
#201=IFCDIRECTION((0.,0.,1.));
#202=IFCDIRECTION((1.,0.,0.));
#203=IFCAXIS2PLACEMENT3D(#200,#201,#202);
#204=IFCDIRECTION((0.,0.,1.));
#205=IFCEXTRUDEDAREASOLID(#199,#203,#204,0.10000000000000001);
#206=IFCSHAPEREPRESENTATION(#16,'Body','SweptSolid',(#205));
#207=IFCPRODUCTDEFINITIONSHAPE($,$,(#206));
#208=IFCOWNERHISTORY(#3,#4,.READWRITE.,.MODIFIED.,1789307101,#3,#4,1789307101);
#209=IFCSLAB('0EyEr1TtX358jw44c6Bi36',#208,'LR-01-MidSlab',$,$,#214,#229,$,.FLOOR.);
#210=IFCCARTESIANPOINT((0.,0.,2.7999999999999998));
#211=IFCDIRECTION((0.,0.,1.));
#212=IFCDIRECTION((1.,0.,0.));
#213=IFCAXIS2PLACEMENT3D(#210,#211,#212);
#214=IFCLOCALPLACEMENT(#43,#213);
#215=IFCCARTESIANPOINT((2.5,0.,0.));
#216=IFCCARTESIANPOINT((7.2000000000000002,0.,0.));
#217=IFCCARTESIANPOINT((7.2000000000000002,5.,0.));
#218=IFCCARTESIANPOINT((2.5,5.,0.));
#219=IFCCARTESIANPOINT((2.5,0.,0.));
#220=IFCPOLYLINE((#215,#216,#217,#218,#219));
#221=IFCARBITRARYCLOSEDPROFILEDEF(.AREA.,$,#220);
#222=IFCCARTESIANPOINT((0.,0.,0.));
#223=IFCDIRECTION((0.,0.,1.));
#224=IFCDIRECTION((1.,0.,0.));
#225=IFCAXIS2PLACEMENT3D(#222,#223,#224);
#226=IFCDIRECTION((0.,0.,1.));
#227=IFCEXTRUDEDAREASOLID(#221,#225,#226,0.29999999999999999);
#228=IFCSHAPEREPRESENTATION(#16,'Body','SweptSolid',(#227));
#229=IFCPRODUCTDEFINITIONSHAPE($,$,(#228));
#230=IFCOWNERHISTORY(#3,#4,.READWRITE.,.MODIFIED.,1789307101,#3,#4,1789307101);
#231=IFCCOVERING('1j$WEryADA0e9bb$RdXDaa',#230,'LR-01-N-UpperFloorCovering',$,$,#236,#251,$,.FLOORING.);
#232=IFCCARTESIANPOINT((0.,0.,3.0999999999999996));
#233=IFCDIRECTION((0.,0.,1.));
#234=IFCDIRECTION((1.,0.,0.));
#235=IFCAXIS2PLACEMENT3D(#232,#233,#234);
#236=IFCLOCALPLACEMENT(#43,#235);
#237=IFCCARTESIANPOINT((2.5,0.,0.));
#238=IFCCARTESIANPOINT((7.2000000000000002,0.,0.));
#239=IFCCARTESIANPOINT((7.2000000000000002,5.,0.));
#240=IFCCARTESIANPOINT((2.5,5.,0.));
#241=IFCCARTESIANPOINT((2.5,0.,0.));
#242=IFCPOLYLINE((#237,#238,#239,#240,#241));
#243=IFCARBITRARYCLOSEDPROFILEDEF(.AREA.,$,#242);
#244=IFCCARTESIANPOINT((0.,0.,0.));
#245=IFCDIRECTION((0.,0.,1.));
#246=IFCDIRECTION((1.,0.,0.));
#247=IFCAXIS2PLACEMENT3D(#244,#245,#246);
#248=IFCDIRECTION((0.,0.,1.));
#249=IFCEXTRUDEDAREASOLID(#243,#247,#248,0.10000000000000001);
#250=IFCSHAPEREPRESENTATION(#16,'Body','SweptSolid',(#249));
#251=IFCPRODUCTDEFINITIONSHAPE($,$,(#250));
#252=IFCOWNERHISTORY(#3,#4,.READWRITE.,.MODIFIED.,1789307101,#3,#4,1789307101);
#253=IFCSLAB('3PSilnkdjDU8DN5C5fs8eJ',#252,'LR-01-TopSlab',$,$,#258,#273,$,.FLOOR.);
#254=IFCCARTESIANPOINT((0.,0.,6.2999999999999998));
#255=IFCDIRECTION((0.,0.,1.));
#256=IFCDIRECTION((1.,0.,0.));
#257=IFCAXIS2PLACEMENT3D(#254,#255,#256);
#258=IFCLOCALPLACEMENT(#43,#257);
#259=IFCCARTESIANPOINT((0.,0.,0.));
#260=IFCCARTESIANPOINT((7.2000000000000002,0.,0.));
#261=IFCCARTESIANPOINT((7.2000000000000002,5.,0.));
#262=IFCCARTESIANPOINT((0.,5.,0.));
#263=IFCCARTESIANPOINT((0.,0.,0.));
#264=IFCPOLYLINE((#259,#260,#261,#262,#263));
#265=IFCARBITRARYCLOSEDPROFILEDEF(.AREA.,$,#264);
#266=IFCCARTESIANPOINT((0.,0.,0.));
#267=IFCDIRECTION((0.,0.,1.));
#268=IFCDIRECTION((1.,0.,0.));
#269=IFCAXIS2PLACEMENT3D(#266,#267,#268);
#270=IFCDIRECTION((0.,0.,1.));
#271=IFCEXTRUDEDAREASOLID(#265,#269,#270,0.29999999999999999);
#272=IFCSHAPEREPRESENTATION(#16,'Body','SweptSolid',(#271));
#273=IFCPRODUCTDEFINITIONSHAPE($,$,(#272));
#274=IFCOWNERHISTORY(#3,#4,.READWRITE.,.MODIFIED.,1789307101,#3,#4,1789307101);
#275=IFCBEAM('2xcWa1__H2sRM9mADlLedZ',#274,'LR-01-Beam-01',$,$,#280,#295,$,.BEAM.);
#276=IFCCARTESIANPOINT((0.,0.,5.7999999999999998));
#277=IFCDIRECTION((0.,0.,1.));
#278=IFCDIRECTION((1.,0.,0.));
#279=IFCAXIS2PLACEMENT3D(#276,#277,#278);
#280=IFCLOCALPLACEMENT(#43,#279);
#281=IFCCARTESIANPOINT((0.,0.875,0.));
#282=IFCCARTESIANPOINT((7.2000000000000002,0.875,0.));
#283=IFCCARTESIANPOINT((7.2000000000000002,1.125,0.));
#284=IFCCARTESIANPOINT((0.,1.125,0.));
#285=IFCCARTESIANPOINT((0.,0.875,0.));
#286=IFCPOLYLINE((#281,#282,#283,#284,#285));
#287=IFCARBITRARYCLOSEDPROFILEDEF(.AREA.,$,#286);
#288=IFCCARTESIANPOINT((0.,0.,0.));
#289=IFCDIRECTION((0.,0.,1.));
#290=IFCDIRECTION((1.,0.,0.));
#291=IFCAXIS2PLACEMENT3D(#288,#289,#290);
#292=IFCDIRECTION((0.,0.,1.));
#293=IFCEXTRUDEDAREASOLID(#287,#291,#292,0.5);
#294=IFCSHAPEREPRESENTATION(#16,'Body','SweptSolid',(#293));
#295=IFCPRODUCTDEFINITIONSHAPE($,$,(#294));
#296=IFCOWNERHISTORY(#3,#4,.READWRITE.,.MODIFIED.,1789307101,#3,#4,1789307101);
#297=IFCBEAM('1kl8ZWLzrEx84JFhdg6RQO',#296,'LR-01-Beam-02',$,$,#302,#317,$,.BEAM.);
#298=IFCCARTESIANPOINT((0.,0.,5.7999999999999998));
#299=IFCDIRECTION((0.,0.,1.));
#300=IFCDIRECTION((1.,0.,0.));
#301=IFCAXIS2PLACEMENT3D(#298,#299,#300);
#302=IFCLOCALPLACEMENT(#43,#301);
#303=IFCCARTESIANPOINT((0.,1.875,0.));
#304=IFCCARTESIANPOINT((7.2000000000000002,1.875,0.));
#305=IFCCARTESIANPOINT((7.2000000000000002,2.125,0.));
#306=IFCCARTESIANPOINT((0.,2.125,0.));
#307=IFCCARTESIANPOINT((0.,1.875,0.));
#308=IFCPOLYLINE((#303,#304,#305,#306,#307));
#309=IFCARBITRARYCLOSEDPROFILEDEF(.AREA.,$,#308);
#310=IFCCARTESIANPOINT((0.,0.,0.));
#311=IFCDIRECTION((0.,0.,1.));
#312=IFCDIRECTION((1.,0.,0.));
#313=IFCAXIS2PLACEMENT3D(#310,#311,#312);
#314=IFCDIRECTION((0.,0.,1.));
#315=IFCEXTRUDEDAREASOLID(#309,#313,#314,0.5);
#316=IFCSHAPEREPRESENTATION(#16,'Body','SweptSolid',(#315));
#317=IFCPRODUCTDEFINITIONSHAPE($,$,(#316));
#318=IFCOWNERHISTORY(#3,#4,.READWRITE.,.MODIFIED.,1789307101,#3,#4,1789307101);
#319=IFCBEAM('1Xk8x0gvz308fG6f7sf5SS',#318,'LR-01-Beam-03',$,$,#324,#339,$,.BEAM.);
#320=IFCCARTESIANPOINT((0.,0.,5.7999999999999998));
#321=IFCDIRECTION((0.,0.,1.));
#322=IFCDIRECTION((1.,0.,0.));
#323=IFCAXIS2PLACEMENT3D(#320,#321,#322);
#324=IFCLOCALPLACEMENT(#43,#323);
#325=IFCCARTESIANPOINT((0.,2.875,0.));
#326=IFCCARTESIANPOINT((7.2000000000000002,2.875,0.));
#327=IFCCARTESIANPOINT((7.2000000000000002,3.125,0.));
#328=IFCCARTESIANPOINT((0.,3.125,0.));
#329=IFCCARTESIANPOINT((0.,2.875,0.));
#330=IFCPOLYLINE((#325,#326,#327,#328,#329));
#331=IFCARBITRARYCLOSEDPROFILEDEF(.AREA.,$,#330);
#332=IFCCARTESIANPOINT((0.,0.,0.));
#333=IFCDIRECTION((0.,0.,1.));
#334=IFCDIRECTION((1.,0.,0.));
#335=IFCAXIS2PLACEMENT3D(#332,#333,#334);
#336=IFCDIRECTION((0.,0.,1.));
#337=IFCEXTRUDEDAREASOLID(#331,#335,#336,0.5);
#338=IFCSHAPEREPRESENTATION(#16,'Body','SweptSolid',(#337));
#339=IFCPRODUCTDEFINITIONSHAPE($,$,(#338));
#340=IFCOWNERHISTORY(#3,#4,.READWRITE.,.MODIFIED.,1789307101,#3,#4,1789307101);
#341=IFCBEAM('3W8WsWeL1EaQTm5JHr8b7J',#340,'LR-01-Beam-04',$,$,#346,#361,$,.BEAM.);
#342=IFCCARTESIANPOINT((0.,0.,5.7999999999999998));
#343=IFCDIRECTION((0.,0.,1.));
#344=IFCDIRECTION((1.,0.,0.));
#345=IFCAXIS2PLACEMENT3D(#342,#343,#344);
#346=IFCLOCALPLACEMENT(#43,#345);
#347=IFCCARTESIANPOINT((0.,3.875,0.));
#348=IFCCARTESIANPOINT((7.2000000000000002,3.875,0.));
#349=IFCCARTESIANPOINT((7.2000000000000002,4.125,0.));
#350=IFCCARTESIANPOINT((0.,4.125,0.));
#351=IFCCARTESIANPOINT((0.,3.875,0.));
#352=IFCPOLYLINE((#347,#348,#349,#350,#351));
#353=IFCARBITRARYCLOSEDPROFILEDEF(.AREA.,$,#352);
#354=IFCCARTESIANPOINT((0.,0.,0.));
#355=IFCDIRECTION((0.,0.,1.));
#356=IFCDIRECTION((1.,0.,0.));
#357=IFCAXIS2PLACEMENT3D(#354,#355,#356);
#358=IFCDIRECTION((0.,0.,1.));
#359=IFCEXTRUDEDAREASOLID(#353,#357,#358,0.5);
#360=IFCSHAPEREPRESENTATION(#16,'Body','SweptSolid',(#359));
#361=IFCPRODUCTDEFINITIONSHAPE($,$,(#360));
#362=IFCOWNERHISTORY(#3,#4,.READWRITE.,.MODIFIED.,1789307101,#3,#4,1789307101);
#363=IFCCOVERING('266y4j8y19Ng9GKNiCSZp3',#362,'Abhangdecke',$,$,#368,#383,$,.CEILING.);
#364=IFCCARTESIANPOINT((0.,0.,5.5999999999999996));
#365=IFCDIRECTION((0.,0.,1.));
#366=IFCDIRECTION((1.,0.,0.));
#367=IFCAXIS2PLACEMENT3D(#364,#365,#366);
#368=IFCLOCALPLACEMENT(#43,#367);
#369=IFCCARTESIANPOINT((0.,0.,0.));
#370=IFCCARTESIANPOINT((7.2000000000000002,0.,0.));
#371=IFCCARTESIANPOINT((7.2000000000000002,5.,0.));
#372=IFCCARTESIANPOINT((0.,5.,0.));
#373=IFCCARTESIANPOINT((0.,0.,0.));
#374=IFCPOLYLINE((#369,#370,#371,#372,#373));
#375=IFCARBITRARYCLOSEDPROFILEDEF(.AREA.,$,#374);
#376=IFCCARTESIANPOINT((0.,0.,0.));
#377=IFCDIRECTION((0.,0.,1.));
#378=IFCDIRECTION((1.,0.,0.));
#379=IFCAXIS2PLACEMENT3D(#376,#377,#378);
#380=IFCDIRECTION((0.,0.,1.));
#381=IFCEXTRUDEDAREASOLID(#375,#379,#380,0.10000000000000001);
#382=IFCSHAPEREPRESENTATION(#16,'Body','SweptSolid',(#381));
#383=IFCPRODUCTDEFINITIONSHAPE($,$,(#382));
#384=IFCOWNERHISTORY(#3,#4,.READWRITE.,.MODIFIED.,1789307101,#3,#4,1789307101);
#385=IFCWALL('0cxu4cVkn13umSNpTDmVCp',#384,'LR-01-Partition',$,$,#390,#405,$,.PARTITIONING.);
#386=IFCCARTESIANPOINT((4.2000000000000002,0.,-0.10000000000000001));
#387=IFCDIRECTION((0.,0.,1.));
#388=IFCDIRECTION((0.,1.,0.));
#389=IFCAXIS2PLACEMENT3D(#386,#387,#388);
#390=IFCLOCALPLACEMENT(#43,#389);
#391=IFCCARTESIANPOINT((0.,0.,0.));
#392=IFCCARTESIANPOINT((5.,0.,0.));
#393=IFCCARTESIANPOINT((5.,0.20000000000000001,0.));
#394=IFCCARTESIANPOINT((0.,0.20000000000000001,0.));
#395=IFCCARTESIANPOINT((0.,0.,0.));
#396=IFCPOLYLINE((#391,#392,#393,#394,#395));
#397=IFCARBITRARYCLOSEDPROFILEDEF(.AREA.,$,#396);
#398=IFCCARTESIANPOINT((0.,0.,0.));
#399=IFCDIRECTION((0.,0.,1.));
#400=IFCDIRECTION((1.,0.,0.));
#401=IFCAXIS2PLACEMENT3D(#398,#399,#400);
#402=IFCDIRECTION((0.,0.,1.));
#403=IFCEXTRUDEDAREASOLID(#397,#401,#402,2.8999999999999999);
#404=IFCSHAPEREPRESENTATION(#16,'Body','SweptSolid',(#403));
#405=IFCPRODUCTDEFINITIONSHAPE($,$,(#404));
#406=IFCOWNERHISTORY(#3,#4,.READWRITE.,.MODIFIED.,1789307101,#3,#4,1789307101);
#407=IFCSPACE('2mop4Gd8rBOQNc$UjCzsW2',#406,'102',$,$,#412,#427,'Flur',$,.INTERNAL.,$);
#408=IFCCARTESIANPOINT((0.,0.,0.));
#409=IFCDIRECTION((0.,0.,1.));
#410=IFCDIRECTION((1.,0.,0.));
#411=IFCAXIS2PLACEMENT3D(#408,#409,#410);
#412=IFCLOCALPLACEMENT(#43,#411);
#413=IFCCARTESIANPOINT((4.2000000000000002,0.,0.));
#414=IFCCARTESIANPOINT((7.2000000000000002,0.,0.));
#415=IFCCARTESIANPOINT((7.2000000000000002,5.,0.));
#416=IFCCARTESIANPOINT((4.2000000000000002,5.,0.));
#417=IFCCARTESIANPOINT((4.2000000000000002,0.,0.));
#418=IFCPOLYLINE((#413,#414,#415,#416,#417));
#419=IFCARBITRARYCLOSEDPROFILEDEF(.AREA.,$,#418);
#420=IFCCARTESIANPOINT((0.,0.,0.));
#421=IFCDIRECTION((0.,0.,1.));
#422=IFCDIRECTION((1.,0.,0.));
#423=IFCAXIS2PLACEMENT3D(#420,#421,#422);
#424=IFCDIRECTION((0.,0.,1.));
#425=IFCEXTRUDEDAREASOLID(#419,#423,#424,2.7999999999999998);
#426=IFCSHAPEREPRESENTATION(#16,'Body','SweptSolid',(#425));
#427=IFCPRODUCTDEFINITIONSHAPE($,$,(#426));
#428=IFCOWNERHISTORY(#3,#4,.READWRITE.,.ADDED.,1789307101,#3,#4,1789307101);
#429=IFCELEMENTQUANTITY('0z96IaIO55JOKf2xN0hU95',#428,'Qto_SpaceBaseQuantities',$,'BaseQuantities',(#432,#433,#434,#435,#436));
#430=IFCOWNERHISTORY(#3,#4,.READWRITE.,.ADDED.,1789307101,#3,#4,1789307101);
#431=IFCRELDEFINESBYPROPERTIES('11$34D__r56vv7QfeHp3rD',#430,$,$,(#407),#429);
#432=IFCQUANTITYAREA('NetFloorArea',$,$,15.,$);
#433=IFCQUANTITYLENGTH('Height',$,$,2.7999999999999998,$);
#434=IFCQUANTITYLENGTH('FinishCeilingHeight',$,$,2.7999999999999998,$);
#435=IFCQUANTITYAREA('GrossFloorArea',$,$,15.,$);
#436=IFCQUANTITYVOLUME('GrossVolume',$,$,42.,$);
#437=IFCOWNERHISTORY(#3,#4,.READWRITE.,.ADDED.,1789307101,#3,#4,1789307101);
#438=IFCPROPERTYSET('3YWvABM_fC6R7MNSQQx8hk',#437,'ePset_Space',$,(#441));
#439=IFCOWNERHISTORY(#3,#4,.READWRITE.,.ADDED.,1789307101,#3,#4,1789307101);
#440=IFCRELDEFINESBYPROPERTIES('2i9B6UUI1CBB9rh6yDQ$aE',#439,$,$,(#407),#438);
#441=IFCPROPERTYSINGLEVALUE('SignageRoomNumber',$,IFCIDENTIFIER('102'),$);
#442=IFCOWNERHISTORY(#3,#4,.READWRITE.,.ADDED.,1789307101,#3,#4,1789307101);
#443=IFCPROPERTYSET('1X7AwPrCjEFAupwEnefedO',#442,'Pset_SpaceCommon',$,(#446,#447));
#444=IFCOWNERHISTORY(#3,#4,.READWRITE.,.ADDED.,1789307101,#3,#4,1789307101);
#445=IFCRELDEFINESBYPROPERTIES('0CUevY$DL9cgFJXQG4FW1A',#444,$,$,(#407),#443);
#446=IFCPROPERTYSINGLEVALUE('Reference',$,IFCIDENTIFIER('VF'),$);
#447=IFCPROPERTYSINGLEVALUE('IsExternal',$,IFCBOOLEAN(.F.),$);
#448=IFCOWNERHISTORY(#3,#4,.READWRITE.,.ADDED.,1789307101,#3,#4,1789307101);
#449=IFCPROPERTYSET('0d8iCyGkj9oeJqS8O4ThW9',#448,'Pset_SpaceCoveringRequirements',$,(#452));
#450=IFCOWNERHISTORY(#3,#4,.READWRITE.,.ADDED.,1789307101,#3,#4,1789307101);
#451=IFCRELDEFINESBYPROPERTIES('35hiXaYOnCY8MTo1Rjx7nX',#450,$,$,(#407),#449);
#452=IFCPROPERTYSINGLEVALUE('FloorCovering',$,IFCLABEL('PVC'),$);
#453=IFCOWNERHISTORY(#3,#4,.READWRITE.,.ADDED.,1789307101,#3,#4,1789307101);
#454=IFCPROPERTYSET('0Qxjm_E6L9iuNNLc6yEmKE',#453,'Pset_SpaceThermalDesign',$,(#457));
#455=IFCOWNERHISTORY(#3,#4,.READWRITE.,.ADDED.,1789307101,#3,#4,1789307101);
#456=IFCRELDEFINESBYPROPERTIES('12H0YvDVn3Q88H65vElKRu',#455,$,$,(#407),#454);
#457=IFCPROPERTYSINGLEVALUE('TotalHeatLoss',$,IFCPOWERMEASURE(1.),$);
#458=IFCOWNERHISTORY(#3,#4,.READWRITE.,.ADDED.,1789307101,#3,#4,1789307101);
#459=IFCPROPERTYSET('2rp9_9q0T1ogRZpVuI1CLG',#458,'ePset_SpaceRequirement',$,(#462,#463,#464));
#460=IFCOWNERHISTORY(#3,#4,.READWRITE.,.ADDED.,1789307101,#3,#4,1789307101);
#461=IFCRELDEFINESBYPROPERTIES('1QnClckOLBKer704F1RwqN',#460,$,$,(#407),#459);
#462=IFCPROPERTYSINGLEVALUE('DesignAreaLoad',$,IFCREAL(2.),$);
#463=IFCPROPERTYSINGLEVALUE('DesignPointLoad',$,IFCREAL(1.5),$);
#464=IFCPROPERTYSINGLEVALUE('VibrationRequirements',$,IFCLABEL('ISO Workshop'),$);
#465=IFCOWNERHISTORY(#3,#4,.READWRITE.,.ADDED.,1789307101,#3,#4,1789307101);
#466=IFCPROPERTYSET('3JszOnn6H3Vvva43OXgS3l',#465,'ePset_Space',$,(#469));
#467=IFCOWNERHISTORY(#3,#4,.READWRITE.,.ADDED.,1789307101,#3,#4,1789307101);
#468=IFCRELDEFINESBYPROPERTIES('0tijrD7911nuvq1c3Zh$uX',#467,$,$,(#407),#466);
#469=IFCPROPERTYSINGLEVALUE('Checkliste',$,IFCTEXT('Bodenbelag; Beleuchtung'),$);
#470=IFCOWNERHISTORY(#3,#4,.READWRITE.,.MODIFIED.,1789307101,#3,#4,1789307101);
#471=IFCSPACE('0hgn2Ckbf1JhTWZwDwJvFq',#470,'201',$,$,#476,#491,'Buero',$,.INTERNAL.,$);
#472=IFCCARTESIANPOINT((0.,0.,3.1999999999999997));
#473=IFCDIRECTION((0.,0.,1.));
#474=IFCDIRECTION((1.,0.,0.));
#475=IFCAXIS2PLACEMENT3D(#472,#473,#474);
#476=IFCLOCALPLACEMENT(#43,#475);
#477=IFCCARTESIANPOINT((2.5,0.,0.));
#478=IFCCARTESIANPOINT((7.2000000000000002,0.,0.));
#479=IFCCARTESIANPOINT((7.2000000000000002,5.,0.));
#480=IFCCARTESIANPOINT((2.5,5.,0.));
#481=IFCCARTESIANPOINT((2.5,0.,0.));
#482=IFCPOLYLINE((#477,#478,#479,#480,#481));
#483=IFCARBITRARYCLOSEDPROFILEDEF(.AREA.,$,#482);
#484=IFCCARTESIANPOINT((0.,0.,0.));
#485=IFCDIRECTION((0.,0.,1.));
#486=IFCDIRECTION((1.,0.,0.));
#487=IFCAXIS2PLACEMENT3D(#484,#485,#486);
#488=IFCDIRECTION((0.,0.,1.));
#489=IFCEXTRUDEDAREASOLID(#483,#487,#488,3.1000000000000001);
#490=IFCSHAPEREPRESENTATION(#16,'Body','SweptSolid',(#489));
#491=IFCPRODUCTDEFINITIONSHAPE($,$,(#490));
#492=IFCOWNERHISTORY(#3,#4,.READWRITE.,.ADDED.,1789307101,#3,#4,1789307101);
#493=IFCELEMENTQUANTITY('28mrMKC2f79fRBF2YTwr48',#492,'Qto_SpaceBaseQuantities',$,'BaseQuantities',(#496,#497,#498,#499,#500));
#494=IFCOWNERHISTORY(#3,#4,.READWRITE.,.ADDED.,1789307101,#3,#4,1789307101);
#495=IFCRELDEFINESBYPROPERTIES('1ksKOBfFP27ArGGBXmFsWA',#494,$,$,(#471),#493);
#496=IFCQUANTITYAREA('NetFloorArea',$,$,23.5,$);
#497=IFCQUANTITYLENGTH('Height',$,$,3.1000000000000001,$);
#498=IFCQUANTITYLENGTH('FinishCeilingHeight',$,$,3.1000000000000001,$);
#499=IFCQUANTITYAREA('GrossFloorArea',$,$,23.5,$);
#500=IFCQUANTITYVOLUME('GrossVolume',$,$,72.849999999999994,$);
#501=IFCOWNERHISTORY(#3,#4,.READWRITE.,.ADDED.,1789307101,#3,#4,1789307101);
#502=IFCPROPERTYSET('1Fvog3lKzD6Rn3esstFrvu',#501,'ePset_Space',$,(#505));
#503=IFCOWNERHISTORY(#3,#4,.READWRITE.,.ADDED.,1789307101,#3,#4,1789307101);
#504=IFCRELDEFINESBYPROPERTIES('2SUM7A9oT1Y8H$gaN2PXeO',#503,$,$,(#471),#502);
#505=IFCPROPERTYSINGLEVALUE('SignageRoomNumber',$,IFCIDENTIFIER('201'),$);
#506=IFCOWNERHISTORY(#3,#4,.READWRITE.,.ADDED.,1789307101,#3,#4,1789307101);
#507=IFCPROPERTYSET('0lymZHY$968Aw9QLf4tn25',#506,'Pset_SpaceCommon',$,(#510,#511));
#508=IFCOWNERHISTORY(#3,#4,.READWRITE.,.ADDED.,1789307101,#3,#4,1789307101);
#509=IFCRELDEFINESBYPROPERTIES('0UQ4JER8P8HAleHyrLhA37',#508,$,$,(#471),#507);
#510=IFCPROPERTYSINGLEVALUE('Reference',$,IFCIDENTIFIER('HNF'),$);
#511=IFCPROPERTYSINGLEVALUE('IsExternal',$,IFCBOOLEAN(.F.),$);
#512=IFCOWNERHISTORY(#3,#4,.READWRITE.,.ADDED.,1789307101,#3,#4,1789307101);
#513=IFCPROPERTYSET('1F9fjfWQ96OeKqyEXl4NC5',#512,'Pset_SpaceCoveringRequirements',$,(#516));
#514=IFCOWNERHISTORY(#3,#4,.READWRITE.,.ADDED.,1789307101,#3,#4,1789307101);
#515=IFCRELDEFINESBYPROPERTIES('0IjqkBFJT5nvTu8FFS5x2p',#514,$,$,(#471),#513);
#516=IFCPROPERTYSINGLEVALUE('FloorCovering',$,IFCLABEL('PVC'),$);
#517=IFCOWNERHISTORY(#3,#4,.READWRITE.,.ADDED.,1789307101,#3,#4,1789307101);
#518=IFCPROPERTYSET('13E9$06mb3gQyZopQ5ay$8',#517,'Pset_SpaceThermalDesign',$,(#521));
#519=IFCOWNERHISTORY(#3,#4,.READWRITE.,.ADDED.,1789307101,#3,#4,1789307101);
#520=IFCRELDEFINESBYPROPERTIES('0IMzApE3f6_RiKSkF3Q7mJ',#519,$,$,(#471),#518);
#521=IFCPROPERTYSINGLEVALUE('TotalHeatLoss',$,IFCPOWERMEASURE(1.),$);
#522=IFCOWNERHISTORY(#3,#4,.READWRITE.,.ADDED.,1789307101,#3,#4,1789307101);
#523=IFCPROPERTYSET('0rocFChkTEJ8DN6ZY4_ij9',#522,'ePset_SpaceRequirement',$,(#526,#527,#528));
#524=IFCOWNERHISTORY(#3,#4,.READWRITE.,.ADDED.,1789307101,#3,#4,1789307101);
#525=IFCRELDEFINESBYPROPERTIES('3AkfgcW1TEH9IEPVg3FO0V',#524,$,$,(#471),#523);
#526=IFCPROPERTYSINGLEVALUE('DesignAreaLoad',$,IFCREAL(2.),$);
#527=IFCPROPERTYSINGLEVALUE('DesignPointLoad',$,IFCREAL(1.5),$);
#528=IFCPROPERTYSINGLEVALUE('VibrationRequirements',$,IFCLABEL('ISO Office'),$);
#529=IFCOWNERHISTORY(#3,#4,.READWRITE.,.ADDED.,1789307101,#3,#4,1789307101);
#530=IFCPROPERTYSET('0XLhN58GzAd8qqUeWoQ245',#529,'ePset_Space',$,(#533));
#531=IFCOWNERHISTORY(#3,#4,.READWRITE.,.ADDED.,1789307101,#3,#4,1789307101);
#532=IFCRELDEFINESBYPROPERTIES('0UiuYsQ4D8Ae9Q6rdwifqO',#531,$,$,(#471),#530);
#533=IFCPROPERTYSINGLEVALUE('Checkliste',$,IFCTEXT('Bodenbelag; Beleuchtung'),$);
#534=IFCOWNERHISTORY(#3,#4,.READWRITE.,.ADDED.,1789307101,#3,#4,1789307101);
#535=IFCELEMENTQUANTITY('2A3lwYOTT5Re5jLizfRheT',#534,'Qto_CoveringBaseQuantities',$,'BaseQuantities',(#538));
#536=IFCOWNERHISTORY(#3,#4,.READWRITE.,.ADDED.,1789307101,#3,#4,1789307101);
#537=IFCRELDEFINESBYPROPERTIES('3r5Ry8ODb5xAGxRFXENssZ',#536,$,$,(#363),#535);
#538=IFCQUANTITYAREA('NetArea',$,$,36.,$);
#539=IFCOWNERHISTORY(#3,#4,.READWRITE.,.ADDED.,1789307101,#3,#4,1789307101);
#540=IFCPROPERTYSET('3cGwd1p2v4lhP9Vk9UpoWu',#539,'Pset_CoveringCommon',$,(#543,#544));
#541=IFCOWNERHISTORY(#3,#4,.READWRITE.,.ADDED.,1789307101,#3,#4,1789307101);
#542=IFCRELDEFINESBYPROPERTIES('1sgAm3y1H8EfazKRupoTK7',#541,$,$,(#363),#540);
#543=IFCPROPERTYSINGLEVALUE('IsExternal',$,IFCBOOLEAN(.F.),$);
#544=IFCPROPERTYSINGLEVALUE('Status',$,IFCLABEL('NEW'),$);
#545=IFCOWNERHISTORY(#3,#4,.READWRITE.,.ADDED.,1789307101,#3,#4,1789307101);
#546=IFCPROPERTYSET('3jI7Vc_LPC28q6yQKl1xx7',#545,'ePset_Cost',$,(#549,#550,#551,#552,#553));
#547=IFCOWNERHISTORY(#3,#4,.READWRITE.,.ADDED.,1789307101,#3,#4,1789307101);
#548=IFCRELDEFINESBYPROPERTIES('1$w7s0iibEsepvLWkbDZp8',#547,$,$,(#363),#546);
#549=IFCPROPERTYSINGLEVALUE('CostInterface',$,IFCLABEL('GAB'),$);
#550=IFCPROPERTYSINGLEVALUE('AwardInterface',$,IFCLABEL('273'),$);
#551=IFCPROPERTYSINGLEVALUE('PlanningInterface',$,IFCLABEL('092'),$);
#552=IFCPROPERTYSINGLEVALUE('BelowTerrain',$,IFCBOOLEAN(.F.),$);
#553=IFCPROPERTYSINGLEVALUE('eBKP',$,IFCLABEL('G04.02'),$);
ENDSEC;
END-ISO-10303-21;
