ISO-10303-21;
HEADER;
FILE_DESCRIPTION(('ViewDefinition[DesignTransferView]'),'2;1');
FILE_NAME('/dev/null','2026-09-13T15:44:57+02:00',(''),(''),'IfcOpenShell 0.8.5','IfcOpenShell 0.8.5','Nobody');
FILE_SCHEMA(('IFC4'));
ENDSEC;
DATA;
#1=IFCPERSON('catalog-pipeline','Pipeline','Catalog',$,$,$,$,$);
#2=IFCORGANIZATION('pragmaticBIM','pragmaticBIM',$,$,$);
#3=IFCPERSONANDORGANIZATION(#1,#2,$);
#4=IFCAPPLICATION(#2,'0.1.0','Catalog IFC Pipeline','catalog-ifc-pipeline');
#5=IFCOWNERHISTORY(#3,#4,.READWRITE.,.ADDED.,1789307097,#3,#4,1789307097);
#6=IFCPROJECT('2BN382rfjByAonNjwQ6tAs',#5,'Catalog \X2\2014\X0\ 201',$,$,$,$,(#15),#10);
#7=IFCSIUNIT(*,.LENGTHUNIT.,$,.METRE.);
#8=IFCSIUNIT(*,.AREAUNIT.,$,.SQUARE_METRE.);
#9=IFCSIUNIT(*,.VOLUMEUNIT.,$,.CUBIC_METRE.);
#10=IFCUNITASSIGNMENT((#7,#8,#9));
#11=IFCCARTESIANPOINT((0.,0.,0.));
#12=IFCDIRECTION((0.,0.,1.));
#13=IFCDIRECTION((1.,0.,0.));
#14=IFCAXIS2PLACEMENT3D(#11,#12,#13);
#15=IFCGEOMETRICREPRESENTATIONCONTEXT($,'Model',3,1.0000000000000001E-05,#14,$);
#16=IFCGEOMETRICREPRESENTATIONSUBCONTEXT('Body','Model',*,*,*,*,#15,$,.MODEL_VIEW.,$);
#17=IFCOWNERHISTORY(#3,#4,.READWRITE.,.MODIFIED.,1789307097,#3,#4,1789307097);
#18=IFCSITE('0exQSboHnAwgWQd7KUf4Y8',#17,'Site',$,$,#29,$,$,$,$,$,$,$,$);
#19=IFCOWNERHISTORY(#3,#4,.READWRITE.,.MODIFIED.,1789307097,#3,#4,1789307097);
#20=IFCBUILDING('2qJjIroRXBDhugbvRtYoSH',#19,'Building',$,$,#34,$,$,$,$,$,$);
#21=IFCOWNERHISTORY(#3,#4,.READWRITE.,.ADDED.,1789307097,#3,#4,1789307097);
#22=IFCRELAGGREGATES('3Q0kBmM6D7l917uI_xha3s',#21,$,$,#6,(#18));
#23=IFCOWNERHISTORY(#3,#4,.READWRITE.,.ADDED.,1789307097,#3,#4,1789307097);
#24=IFCRELAGGREGATES('1YgPzTT0z4ahdcQYDVUfND',#23,$,$,#18,(#20));
#25=IFCCARTESIANPOINT((0.,0.,0.));
#26=IFCDIRECTION((0.,0.,1.));
#27=IFCDIRECTION((1.,0.,0.));
#28=IFCAXIS2PLACEMENT3D(#25,#26,#27);
#29=IFCLOCALPLACEMENT($,#28);
#30=IFCCARTESIANPOINT((0.,0.,0.));
#31=IFCDIRECTION((0.,0.,1.));
#32=IFCDIRECTION((1.,0.,0.));
#33=IFCAXIS2PLACEMENT3D(#30,#31,#32);
#34=IFCLOCALPLACEMENT(#29,#33);
#35=IFCOWNERHISTORY(#3,#4,.READWRITE.,.MODIFIED.,1789307097,#3,#4,1789307097);
#36=IFCBUILDINGSTOREY('29DUi11CX97u70QxifrKqO',#35,'Level 0',$,$,#43,$,$,$,0.);
#37=IFCOWNERHISTORY(#3,#4,.READWRITE.,.ADDED.,1789307097,#3,#4,1789307097);
#38=IFCRELAGGREGATES('0p1bNQBoH1u9$qfyu4XlwK',#37,$,$,#20,(#36));
#39=IFCCARTESIANPOINT((0.,0.,0.));
#40=IFCDIRECTION((0.,0.,1.));
#41=IFCDIRECTION((1.,0.,0.));
#42=IFCAXIS2PLACEMENT3D(#39,#40,#41);
#43=IFCLOCALPLACEMENT(#34,#42);
#44=IFCOWNERHISTORY(#3,#4,.READWRITE.,.MODIFIED.,1789307097,#3,#4,1789307097);
#45=IFCSLAB('0hqgGLLWPDhBuTrdWW8tsN',#44,'201-FloorSlab',$,$,#52,#67,$,.FLOOR.);
#46=IFCOWNERHISTORY(#3,#4,.READWRITE.,.MODIFIED.,1789307097,#3,#4,1789307097);
#47=IFCRELCONTAINEDINSPATIALSTRUCTURE('1z36OD1Cr2x9PZkRihJTvu',#46,$,$,(#306,#45,#412,#171,#294,#69,#91),#36);
#48=IFCCARTESIANPOINT((0.,0.,-0.29999999999999999));
#49=IFCDIRECTION((0.,0.,1.));
#50=IFCDIRECTION((1.,0.,0.));
#51=IFCAXIS2PLACEMENT3D(#48,#49,#50);
#52=IFCLOCALPLACEMENT(#43,#51);
#53=IFCCARTESIANPOINT((0.,0.,0.));
#54=IFCCARTESIANPOINT((2.3599999999999999,0.,0.));
#55=IFCCARTESIANPOINT((2.3599999999999999,5.,0.));
#56=IFCCARTESIANPOINT((0.,5.,0.));
#57=IFCCARTESIANPOINT((0.,0.,0.));
#58=IFCPOLYLINE((#53,#54,#55,#56,#57));
#59=IFCARBITRARYCLOSEDPROFILEDEF(.AREA.,$,#58);
#60=IFCCARTESIANPOINT((0.,0.,0.));
#61=IFCDIRECTION((0.,0.,1.));
#62=IFCDIRECTION((1.,0.,0.));
#63=IFCAXIS2PLACEMENT3D(#60,#61,#62);
#64=IFCDIRECTION((0.,0.,1.));
#65=IFCEXTRUDEDAREASOLID(#59,#63,#64,0.29999999999999999);
#66=IFCSHAPEREPRESENTATION(#16,'Body','SweptSolid',(#65));
#67=IFCPRODUCTDEFINITIONSHAPE($,$,(#66));
#68=IFCOWNERHISTORY(#3,#4,.READWRITE.,.MODIFIED.,1789307097,#3,#4,1789307097);
#69=IFCSLAB('1Le3ZLKb1DiPMPlQf1Y3Eh',#68,'201-BalconySlab',$,$,#74,#89,$,.FLOOR.);
#70=IFCCARTESIANPOINT((0.,0.,-0.29999999999999999));
#71=IFCDIRECTION((0.,0.,1.));
#72=IFCDIRECTION((1.,0.,0.));
#73=IFCAXIS2PLACEMENT3D(#70,#71,#72);
#74=IFCLOCALPLACEMENT(#43,#73);
#75=IFCCARTESIANPOINT((2.3599999999999999,0.,0.));
#76=IFCCARTESIANPOINT((3.8599999999999999,0.,0.));
#77=IFCCARTESIANPOINT((3.8599999999999999,5.,0.));
#78=IFCCARTESIANPOINT((2.3599999999999999,5.,0.));
#79=IFCCARTESIANPOINT((2.3599999999999999,0.,0.));
#80=IFCPOLYLINE((#75,#76,#77,#78,#79));
#81=IFCARBITRARYCLOSEDPROFILEDEF(.AREA.,$,#80);
#82=IFCCARTESIANPOINT((0.,0.,0.));
#83=IFCDIRECTION((0.,0.,1.));
#84=IFCDIRECTION((1.,0.,0.));
#85=IFCAXIS2PLACEMENT3D(#82,#83,#84);
#86=IFCDIRECTION((0.,0.,1.));
#87=IFCEXTRUDEDAREASOLID(#81,#85,#86,0.29999999999999999);
#88=IFCSHAPEREPRESENTATION(#16,'Body','SweptSolid',(#87));
#89=IFCPRODUCTDEFINITIONSHAPE($,$,(#88));
#90=IFCOWNERHISTORY(#3,#4,.READWRITE.,.MODIFIED.,1789307097,#3,#4,1789307097);
#91=IFCWALL('1N3WXVg1v7hgOqHr3TnfVR',#90,'AW-01',$,$,#96,#111,$,.SOLIDWALL.);
#92=IFCCARTESIANPOINT((2.3599999999999999,0.,0.));
#93=IFCDIRECTION((0.,0.,1.));
#94=IFCDIRECTION((0.,1.,0.));
#95=IFCAXIS2PLACEMENT3D(#92,#93,#94);
#96=IFCLOCALPLACEMENT(#43,#95);
#97=IFCCARTESIANPOINT((0.,0.,0.));
#98=IFCCARTESIANPOINT((5.,0.,0.));
#99=IFCCARTESIANPOINT((5.,0.35999999999999999,0.));
#100=IFCCARTESIANPOINT((0.,0.35999999999999999,0.));
#101=IFCCARTESIANPOINT((0.,0.,0.));
#102=IFCPOLYLINE((#97,#98,#99,#100,#101));
#103=IFCARBITRARYCLOSEDPROFILEDEF(.AREA.,$,#102);
#104=IFCCARTESIANPOINT((0.,0.,0.));
#105=IFCDIRECTION((0.,0.,1.));
#106=IFCDIRECTION((1.,0.,0.));
#107=IFCAXIS2PLACEMENT3D(#104,#105,#106);
#108=IFCDIRECTION((0.,0.,1.));
#109=IFCEXTRUDEDAREASOLID(#103,#107,#108,2.7999999999999998);
#110=IFCSHAPEREPRESENTATION(#16,'Body','SweptSolid',(#109));
#111=IFCPRODUCTDEFINITIONSHAPE($,$,(#110));
#112=IFCOWNERHISTORY(#3,#4,.READWRITE.,.MODIFIED.,1789307097,#3,#4,1789307097);
#113=IFCOPENINGELEMENT('2yB6rHxvj95h5xHUjTmO4w',#112,'201-DoorOpening',$,$,#140,#133,$,.OPENING.);
#119=IFCCARTESIANPOINT((3.6999999999999997,-0.01,0.));
#120=IFCCARTESIANPOINT((4.5999999999999996,-0.01,0.));
#121=IFCCARTESIANPOINT((4.5999999999999996,0.38,0.));
#122=IFCCARTESIANPOINT((3.6999999999999997,0.38,0.));
#123=IFCCARTESIANPOINT((3.6999999999999997,-0.01,0.));
#124=IFCPOLYLINE((#119,#120,#121,#122,#123));
#125=IFCARBITRARYCLOSEDPROFILEDEF(.AREA.,$,#124);
#126=IFCCARTESIANPOINT((0.,0.,0.));
#127=IFCDIRECTION((0.,0.,1.));
#128=IFCDIRECTION((1.,0.,0.));
#129=IFCAXIS2PLACEMENT3D(#126,#127,#128);
#130=IFCDIRECTION((0.,0.,1.));
#131=IFCEXTRUDEDAREASOLID(#125,#129,#130,2.1000000000000001);
#132=IFCSHAPEREPRESENTATION(#16,'Body','SweptSolid',(#131));
#133=IFCPRODUCTDEFINITIONSHAPE($,$,(#132));
#134=IFCOWNERHISTORY(#3,#4,.READWRITE.,.ADDED.,1789307097,#3,#4,1789307097);
#135=IFCRELVOIDSELEMENT('0FA8gYMl9EJAhd3xE5e9wj',#134,$,$,#91,#113);
#136=IFCCARTESIANPOINT((0.,0.,0.));
#137=IFCDIRECTION((0.,0.,1.));
#138=IFCDIRECTION((1.,0.,0.));
#139=IFCAXIS2PLACEMENT3D(#136,#137,#138);
#140=IFCLOCALPLACEMENT(#96,#139);
#141=IFCOWNERHISTORY(#3,#4,.READWRITE.,.MODIFIED.,1789307097,#3,#4,1789307097);
#142=IFCOPENINGELEMENT('3EWkNih11CV9yhNvd9rTpr',#141,'201-WindowOpening',$,$,#169,#162,$,.OPENING.);
#148=IFCCARTESIANPOINT((0.40000000000000002,-0.01,0.));
#149=IFCCARTESIANPOINT((1.6000000000000001,-0.01,0.));
#150=IFCCARTESIANPOINT((1.6000000000000001,0.38,0.));
#151=IFCCARTESIANPOINT((0.40000000000000002,0.38,0.));
#152=IFCCARTESIANPOINT((0.40000000000000002,-0.01,0.));
#153=IFCPOLYLINE((#148,#149,#150,#151,#152));
#154=IFCARBITRARYCLOSEDPROFILEDEF(.AREA.,$,#153);
#155=IFCCARTESIANPOINT((0.,0.,0.90000000000000002));
#156=IFCDIRECTION((0.,0.,1.));
#157=IFCDIRECTION((1.,0.,0.));
#158=IFCAXIS2PLACEMENT3D(#155,#156,#157);
#159=IFCDIRECTION((0.,0.,1.));
#160=IFCEXTRUDEDAREASOLID(#154,#158,#159,1.3999999999999999);
#161=IFCSHAPEREPRESENTATION(#16,'Body','SweptSolid',(#160));
#162=IFCPRODUCTDEFINITIONSHAPE($,$,(#161));
#163=IFCOWNERHISTORY(#3,#4,.READWRITE.,.ADDED.,1789307097,#3,#4,1789307097);
#164=IFCRELVOIDSELEMENT('07_UImKx9CuvgAjQIHa5vX',#163,$,$,#91,#142);
#165=IFCCARTESIANPOINT((0.,0.,0.));
#166=IFCDIRECTION((0.,0.,1.));
#167=IFCDIRECTION((1.,0.,0.));
#168=IFCAXIS2PLACEMENT3D(#165,#166,#167);
#169=IFCLOCALPLACEMENT(#96,#168);
#170=IFCOWNERHISTORY(#3,#4,.READWRITE.,.MODIFIED.,1789307097,#3,#4,1789307097);
#171=IFCDOOR('27N4PMwujA68DATn9awet1',#170,'201-Door',$,$,#176,#283,$,$,$,.DOOR.,$,$);
#172=IFCCARTESIANPOINT((2.3599999999999999,0.,0.));
#173=IFCDIRECTION((0.,0.,1.));
#174=IFCDIRECTION((0.,1.,0.));
#175=IFCAXIS2PLACEMENT3D(#172,#173,#174);
#176=IFCLOCALPLACEMENT(#43,#175);
#177=IFCCARTESIANPOINT((3.6999999999999997,-0.,0.));
#178=IFCCARTESIANPOINT((3.7999999999999998,-0.,0.));
#179=IFCCARTESIANPOINT((3.7999999999999998,0.19800000000000001,0.));
#180=IFCCARTESIANPOINT((3.6999999999999997,0.19800000000000001,0.));
#181=IFCCARTESIANPOINT((3.6999999999999997,-0.,0.));
#182=IFCPOLYLINE((#177,#178,#179,#180,#181));
#183=IFCARBITRARYCLOSEDPROFILEDEF(.AREA.,$,#182);
#184=IFCCARTESIANPOINT((0.,0.,0.));
#185=IFCDIRECTION((0.,0.,1.));
#186=IFCDIRECTION((1.,0.,0.));
#187=IFCAXIS2PLACEMENT3D(#184,#185,#186);
#188=IFCDIRECTION((0.,0.,1.));
#189=IFCEXTRUDEDAREASOLID(#183,#187,#188,2.1000000000000001);
#190=IFCCARTESIANPOINT((4.5,-0.,0.));
#191=IFCCARTESIANPOINT((4.5999999999999996,-0.,0.));
#192=IFCCARTESIANPOINT((4.5999999999999996,0.19800000000000001,0.));
#193=IFCCARTESIANPOINT((4.5,0.19800000000000001,0.));
#194=IFCCARTESIANPOINT((4.5,-0.,0.));
#195=IFCPOLYLINE((#190,#191,#192,#193,#194));
#196=IFCARBITRARYCLOSEDPROFILEDEF(.AREA.,$,#195);
#197=IFCCARTESIANPOINT((0.,0.,0.));
#198=IFCDIRECTION((0.,0.,1.));
#199=IFCDIRECTION((1.,0.,0.));
#200=IFCAXIS2PLACEMENT3D(#197,#198,#199);
#201=IFCDIRECTION((0.,0.,1.));
#202=IFCEXTRUDEDAREASOLID(#196,#200,#201,2.1000000000000001);
#203=IFCCARTESIANPOINT((3.7999999999999998,-0.,0.));
#204=IFCCARTESIANPOINT((4.5,-0.,0.));
#205=IFCCARTESIANPOINT((4.5,0.19800000000000001,0.));
#206=IFCCARTESIANPOINT((3.7999999999999998,0.19800000000000001,0.));
#207=IFCCARTESIANPOINT((3.7999999999999998,-0.,0.));
#208=IFCPOLYLINE((#203,#204,#205,#206,#207));
#209=IFCARBITRARYCLOSEDPROFILEDEF(.AREA.,$,#208);
#210=IFCCARTESIANPOINT((0.,0.,2.));
#211=IFCDIRECTION((0.,0.,1.));
#212=IFCDIRECTION((1.,0.,0.));
#213=IFCAXIS2PLACEMENT3D(#210,#211,#212);
#214=IFCDIRECTION((0.,0.,1.));
#215=IFCEXTRUDEDAREASOLID(#209,#213,#214,0.10000000000000009);
#216=IFCCARTESIANPOINT((3.7999999999999998,-0.,0.));
#217=IFCCARTESIANPOINT((4.5,-0.,0.));
#218=IFCCARTESIANPOINT((4.5,0.19800000000000001,0.));
#219=IFCCARTESIANPOINT((3.7999999999999998,0.19800000000000001,0.));
#220=IFCCARTESIANPOINT((3.7999999999999998,-0.,0.));
#221=IFCPOLYLINE((#216,#217,#218,#219,#220));
#222=IFCARBITRARYCLOSEDPROFILEDEF(.AREA.,$,#221);
#223=IFCCARTESIANPOINT((0.,0.,0.));
#224=IFCDIRECTION((0.,0.,1.));
#225=IFCDIRECTION((1.,0.,0.));
#226=IFCAXIS2PLACEMENT3D(#223,#224,#225);
#227=IFCDIRECTION((0.,0.,1.));
#228=IFCEXTRUDEDAREASOLID(#222,#226,#227,0.025000000000000001);
#229=IFCCARTESIANPOINT((3.7999999999999998,-0.,0.));
#230=IFCCARTESIANPOINT((4.5,-0.,0.));
#231=IFCCARTESIANPOINT((4.5,0.19800000000000001,0.));
#232=IFCCARTESIANPOINT((3.7999999999999998,0.19800000000000001,0.));
#233=IFCCARTESIANPOINT((3.7999999999999998,-0.,0.));
#234=IFCPOLYLINE((#229,#230,#231,#232,#233));
#235=IFCARBITRARYCLOSEDPROFILEDEF(.AREA.,$,#234);
#236=IFCCARTESIANPOINT((0.,0.,1.0662500000000001));
#237=IFCDIRECTION((0.,0.,1.));
#238=IFCDIRECTION((1.,0.,0.));
#239=IFCAXIS2PLACEMENT3D(#236,#237,#238);
#240=IFCDIRECTION((0.,0.,1.));
#241=IFCEXTRUDEDAREASOLID(#235,#239,#240,0.089999999999999858);
#242=IFCCARTESIANPOINT((3.7999999999999998,0.014999999999999999,0.));
#243=IFCCARTESIANPOINT((4.5,0.014999999999999999,0.));
#244=IFCCARTESIANPOINT((4.5,0.055,0.));
#245=IFCCARTESIANPOINT((3.7999999999999998,0.055,0.));
#246=IFCCARTESIANPOINT((3.7999999999999998,0.014999999999999999,0.));
#247=IFCPOLYLINE((#242,#243,#244,#245,#246));
#248=IFCARBITRARYCLOSEDPROFILEDEF(.AREA.,$,#247);
#249=IFCCARTESIANPOINT((0.,0.,0.025000000000000001));
#250=IFCDIRECTION((0.,0.,1.));
#251=IFCDIRECTION((1.,0.,0.));
#252=IFCAXIS2PLACEMENT3D(#249,#250,#251);
#253=IFCDIRECTION((0.,0.,1.));
#254=IFCEXTRUDEDAREASOLID(#248,#252,#253,1.0412500000000002);
#255=IFCCARTESIANPOINT((3.7999999999999998,0.014999999999999999,0.));
#256=IFCCARTESIANPOINT((4.5,0.014999999999999999,0.));
#257=IFCCARTESIANPOINT((4.5,0.055,0.));
#258=IFCCARTESIANPOINT((3.7999999999999998,0.055,0.));
#259=IFCCARTESIANPOINT((3.7999999999999998,0.014999999999999999,0.));
#260=IFCPOLYLINE((#255,#256,#257,#258,#259));
#261=IFCARBITRARYCLOSEDPROFILEDEF(.AREA.,$,#260);
#262=IFCCARTESIANPOINT((0.,0.,1.15625));
#263=IFCDIRECTION((0.,0.,1.));
#264=IFCDIRECTION((1.,0.,0.));
#265=IFCAXIS2PLACEMENT3D(#262,#263,#264);
#266=IFCDIRECTION((0.,0.,1.));
#267=IFCEXTRUDEDAREASOLID(#261,#265,#266,0.84375);
#268=IFCSURFACESTYLE('Frame',.BOTH.,(#269));
#269=IFCSURFACESTYLESHADING(#270,0.);
#270=IFCCOLOURRGB($,1.,1.,1.);
#271=IFCSURFACESTYLE('Glass',.BOTH.,(#272));
#272=IFCSURFACESTYLESHADING(#273,0.69999999999999996);
#273=IFCCOLOURRGB($,0.69999999999999996,0.84999999999999998,0.94999999999999996);
#274=IFCMATERIAL('Frame',$,'metal');
#275=IFCMATERIAL('Glass',$,'glass');
#276=IFCSTYLEDITEM($,(#268),'Frame');
#277=IFCSTYLEDREPRESENTATION(#16,'Body',$,(#276));
#278=IFCMATERIALDEFINITIONREPRESENTATION($,$,(#277),#274);
#279=IFCSTYLEDITEM($,(#271),'Glass');
#280=IFCSTYLEDREPRESENTATION(#16,'Body',$,(#279));
#281=IFCMATERIALDEFINITIONREPRESENTATION($,$,(#280),#275);
#282=IFCSHAPEREPRESENTATION(#16,'Body','SweptSolid',(#189,#202,#215,#228,#241,#254));
#283=IFCPRODUCTDEFINITIONSHAPE($,$,(#282));
#284=IFCSTYLEDITEM(#189,(#268),$);
#285=IFCSTYLEDITEM(#202,(#268),$);
#286=IFCSTYLEDITEM(#215,(#268),$);
#287=IFCSTYLEDITEM(#228,(#268),$);
#288=IFCSTYLEDITEM(#241,(#268),$);
#289=IFCSTYLEDITEM(#254,(#268),$);
#290=IFCOWNERHISTORY(#3,#4,.READWRITE.,.MODIFIED.,1789307097,#3,#4,1789307097);
#291=IFCRELASSOCIATESMATERIAL('0xiY8IwaPCNuu8npTyqegk',#290,$,$,(#306,#171),#274);
#292=IFCRELFILLSELEMENT('1qbx1VydX558dxsshtvVt_',$,$,$,#113,#171);
#293=IFCOWNERHISTORY(#3,#4,.READWRITE.,.MODIFIED.,1789307097,#3,#4,1789307097);
#294=IFCPLATE('0oxjrmPL92BhSHnfC4AU9W',#293,'201-Door-Glass',$,'Glass',#299,#301,$,.CURTAIN_PANEL.);
#295=IFCCARTESIANPOINT((2.3599999999999999,0.,0.));
#296=IFCDIRECTION((0.,0.,1.));
#297=IFCDIRECTION((0.,1.,0.));
#298=IFCAXIS2PLACEMENT3D(#295,#296,#297);
#299=IFCLOCALPLACEMENT(#43,#298);
#300=IFCSHAPEREPRESENTATION(#16,'Body','SweptSolid',(#267));
#301=IFCPRODUCTDEFINITIONSHAPE($,$,(#300));
#302=IFCSTYLEDITEM(#267,(#271),$);
#303=IFCOWNERHISTORY(#3,#4,.READWRITE.,.MODIFIED.,1789307097,#3,#4,1789307097);
#304=IFCRELASSOCIATESMATERIAL('1cY3LZpuDF$hvUf1nP5jT5',#303,$,$,(#412,#294),#275);
#305=IFCOWNERHISTORY(#3,#4,.READWRITE.,.MODIFIED.,1789307097,#3,#4,1789307097);
#306=IFCWINDOW('2wZrL$9aL7ewAuEkkBxzdU',#305,'201-Window',$,$,#311,#404,$,$,$,.WINDOW.,$,$);
#307=IFCCARTESIANPOINT((2.3599999999999999,0.,0.));
#308=IFCDIRECTION((0.,0.,1.));
#309=IFCDIRECTION((0.,1.,0.));
#310=IFCAXIS2PLACEMENT3D(#307,#308,#309);
#311=IFCLOCALPLACEMENT(#43,#310);
#312=IFCCARTESIANPOINT((0.40000000000000002,-0.,0.));
#313=IFCCARTESIANPOINT((0.5,-0.,0.));
#314=IFCCARTESIANPOINT((0.5,0.19800000000000001,0.));
#315=IFCCARTESIANPOINT((0.40000000000000002,0.19800000000000001,0.));
#316=IFCCARTESIANPOINT((0.40000000000000002,-0.,0.));
#317=IFCPOLYLINE((#312,#313,#314,#315,#316));
#318=IFCARBITRARYCLOSEDPROFILEDEF(.AREA.,$,#317);
#319=IFCCARTESIANPOINT((0.,0.,0.90000000000000002));
#320=IFCDIRECTION((0.,0.,1.));
#321=IFCDIRECTION((1.,0.,0.));
#322=IFCAXIS2PLACEMENT3D(#319,#320,#321);
#323=IFCDIRECTION((0.,0.,1.));
#324=IFCEXTRUDEDAREASOLID(#318,#322,#323,1.3999999999999999);
#325=IFCCARTESIANPOINT((1.5,-0.,0.));
#326=IFCCARTESIANPOINT((1.6000000000000001,-0.,0.));
#327=IFCCARTESIANPOINT((1.6000000000000001,0.19800000000000001,0.));
#328=IFCCARTESIANPOINT((1.5,0.19800000000000001,0.));
#329=IFCCARTESIANPOINT((1.5,-0.,0.));
#330=IFCPOLYLINE((#325,#326,#327,#328,#329));
#331=IFCARBITRARYCLOSEDPROFILEDEF(.AREA.,$,#330);
#332=IFCCARTESIANPOINT((0.,0.,0.90000000000000002));
#333=IFCDIRECTION((0.,0.,1.));
#334=IFCDIRECTION((1.,0.,0.));
#335=IFCAXIS2PLACEMENT3D(#332,#333,#334);
#336=IFCDIRECTION((0.,0.,1.));
#337=IFCEXTRUDEDAREASOLID(#331,#335,#336,1.3999999999999999);
#338=IFCCARTESIANPOINT((0.5,-0.,0.));
#339=IFCCARTESIANPOINT((1.5,-0.,0.));
#340=IFCCARTESIANPOINT((1.5,0.19800000000000001,0.));
#341=IFCCARTESIANPOINT((0.5,0.19800000000000001,0.));
#342=IFCCARTESIANPOINT((0.5,-0.,0.));
#343=IFCPOLYLINE((#338,#339,#340,#341,#342));
#344=IFCARBITRARYCLOSEDPROFILEDEF(.AREA.,$,#343);
#345=IFCCARTESIANPOINT((0.,0.,2.1999999999999997));
#346=IFCDIRECTION((0.,0.,1.));
#347=IFCDIRECTION((1.,0.,0.));
#348=IFCAXIS2PLACEMENT3D(#345,#346,#347);
#349=IFCDIRECTION((0.,0.,1.));
#350=IFCEXTRUDEDAREASOLID(#344,#348,#349,0.10000000000000009);
#351=IFCCARTESIANPOINT((0.5,-0.,0.));
#352=IFCCARTESIANPOINT((1.5,-0.,0.));
#353=IFCCARTESIANPOINT((1.5,0.19800000000000001,0.));
#354=IFCCARTESIANPOINT((0.5,0.19800000000000001,0.));
#355=IFCCARTESIANPOINT((0.5,-0.,0.));
#356=IFCPOLYLINE((#351,#352,#353,#354,#355));
#357=IFCARBITRARYCLOSEDPROFILEDEF(.AREA.,$,#356);
#358=IFCCARTESIANPOINT((0.,0.,0.90000000000000002));
#359=IFCDIRECTION((0.,0.,1.));
#360=IFCDIRECTION((1.,0.,0.));
#361=IFCAXIS2PLACEMENT3D(#358,#359,#360);
#362=IFCDIRECTION((0.,0.,1.));
#363=IFCEXTRUDEDAREASOLID(#357,#361,#362,0.099999999999999978);
#364=IFCCARTESIANPOINT((0.95999999999999996,-0.,0.));
#365=IFCCARTESIANPOINT((1.04,-0.,0.));
#366=IFCCARTESIANPOINT((1.04,0.19800000000000001,0.));
#367=IFCCARTESIANPOINT((0.95999999999999996,0.19800000000000001,0.));
#368=IFCCARTESIANPOINT((0.95999999999999996,-0.,0.));
#369=IFCPOLYLINE((#364,#365,#366,#367,#368));
#370=IFCARBITRARYCLOSEDPROFILEDEF(.AREA.,$,#369);
#371=IFCCARTESIANPOINT((0.,0.,1.));
#372=IFCDIRECTION((0.,0.,1.));
#373=IFCDIRECTION((1.,0.,0.));
#374=IFCAXIS2PLACEMENT3D(#371,#372,#373);
#375=IFCDIRECTION((0.,0.,1.));
#376=IFCEXTRUDEDAREASOLID(#370,#374,#375,1.1999999999999997);
#377=IFCCARTESIANPOINT((0.5,0.014999999999999999,0.));
#378=IFCCARTESIANPOINT((0.95999999999999996,0.014999999999999999,0.));
#379=IFCCARTESIANPOINT((0.95999999999999996,0.055,0.));
#380=IFCCARTESIANPOINT((0.5,0.055,0.));
#381=IFCCARTESIANPOINT((0.5,0.014999999999999999,0.));
#382=IFCPOLYLINE((#377,#378,#379,#380,#381));
#383=IFCARBITRARYCLOSEDPROFILEDEF(.AREA.,$,#382);
#384=IFCCARTESIANPOINT((0.,0.,1.));
#385=IFCDIRECTION((0.,0.,1.));
#386=IFCDIRECTION((1.,0.,0.));
#387=IFCAXIS2PLACEMENT3D(#384,#385,#386);
#388=IFCDIRECTION((0.,0.,1.));
#389=IFCEXTRUDEDAREASOLID(#383,#387,#388,1.1999999999999997);
#390=IFCCARTESIANPOINT((1.04,0.014999999999999999,0.));
#391=IFCCARTESIANPOINT((1.5,0.014999999999999999,0.));
#392=IFCCARTESIANPOINT((1.5,0.055,0.));
#393=IFCCARTESIANPOINT((1.04,0.055,0.));
#394=IFCCARTESIANPOINT((1.04,0.014999999999999999,0.));
#395=IFCPOLYLINE((#390,#391,#392,#393,#394));
#396=IFCARBITRARYCLOSEDPROFILEDEF(.AREA.,$,#395);
#397=IFCCARTESIANPOINT((0.,0.,1.));
#398=IFCDIRECTION((0.,0.,1.));
#399=IFCDIRECTION((1.,0.,0.));
#400=IFCAXIS2PLACEMENT3D(#397,#398,#399);
#401=IFCDIRECTION((0.,0.,1.));
#402=IFCEXTRUDEDAREASOLID(#396,#400,#401,1.1999999999999997);
#403=IFCSHAPEREPRESENTATION(#16,'Body','SweptSolid',(#324,#337,#350,#363,#376));
#404=IFCPRODUCTDEFINITIONSHAPE($,$,(#403));
#405=IFCSTYLEDITEM(#324,(#268),$);
#406=IFCSTYLEDITEM(#337,(#268),$);
#407=IFCSTYLEDITEM(#350,(#268),$);
#408=IFCSTYLEDITEM(#363,(#268),$);
#409=IFCSTYLEDITEM(#376,(#268),$);
#410=IFCRELFILLSELEMENT('3wDTDhC0z3eAKjTpJMTvPC',$,$,$,#142,#306);
#411=IFCOWNERHISTORY(#3,#4,.READWRITE.,.MODIFIED.,1789307097,#3,#4,1789307097);
#412=IFCPLATE('0wYOQrqvzCXR_pA5GPVV4Z',#411,'201-Window-Glass',$,'Glass',#417,#419,$,.CURTAIN_PANEL.);
#413=IFCCARTESIANPOINT((2.3599999999999999,0.,0.));
#414=IFCDIRECTION((0.,0.,1.));
#415=IFCDIRECTION((0.,1.,0.));
#416=IFCAXIS2PLACEMENT3D(#413,#414,#415);
#417=IFCLOCALPLACEMENT(#43,#416);
#418=IFCSHAPEREPRESENTATION(#16,'Body','SweptSolid',(#389,#402));
#419=IFCPRODUCTDEFINITIONSHAPE($,$,(#418));
#420=IFCSTYLEDITEM(#389,(#271),$);
#421=IFCSTYLEDITEM(#402,(#271),$);
#422=IFCOWNERHISTORY(#3,#4,.READWRITE.,.ADDED.,1789307097,#3,#4,1789307097);
#423=IFCELEMENTQUANTITY('0iS12298nDMxcnpI0Xs12o',#422,'Qto_WallBaseQuantities',$,'BaseQuantities',(#426));
#424=IFCOWNERHISTORY(#3,#4,.READWRITE.,.ADDED.,1789307097,#3,#4,1789307097);
#425=IFCRELDEFINESBYPROPERTIES('2eQ_cHFvHD698JnqjyIlpK',#424,$,$,(#91),#423);
#426=IFCQUANTITYAREA('NetSideArea',$,$,1.,$);
#427=IFCOWNERHISTORY(#3,#4,.READWRITE.,.ADDED.,1789307097,#3,#4,1789307097);
#428=IFCPROPERTYSET('3fhDq44Mr4b8vl2n3$ceGo',#427,'Pset_WallCommon',$,(#431,#432,#433,#434,#435));
#429=IFCOWNERHISTORY(#3,#4,.READWRITE.,.ADDED.,1789307097,#3,#4,1789307097);
#430=IFCRELDEFINESBYPROPERTIES('2gQ7p0qHj2DvIFBRI4d1fZ',#429,$,$,(#91),#428);
#431=IFCPROPERTYSINGLEVALUE('IsExternal',$,IFCBOOLEAN(.T.),$);
#432=IFCPROPERTYSINGLEVALUE('Reference',$,IFCIDENTIFIER('AW-01'),$);
#433=IFCPROPERTYSINGLEVALUE('Status',$,IFCLABEL('NEW'),$);
#434=IFCPROPERTYSINGLEVALUE('FireRating',$,IFCLABEL('R 30'),$);
#435=IFCPROPERTYSINGLEVALUE('AcousticRating',$,IFCLABEL('AcousticRating'),$);
#436=IFCOWNERHISTORY(#3,#4,.READWRITE.,.ADDED.,1789307097,#3,#4,1789307097);
#437=IFCPROPERTYSET('2eW9pXDHv8QP_Y3FIKXfwz',#436,'ePset_Cost',$,(#440,#441,#442,#443,#444,#445));
#438=IFCOWNERHISTORY(#3,#4,.READWRITE.,.ADDED.,1789307097,#3,#4,1789307097);
#439=IFCRELDEFINESBYPROPERTIES('1HYqr1O_v4eORrCV0tp6iO',#438,$,$,(#91),#437);
#440=IFCPROPERTYSINGLEVALUE('CostInterface',$,IFCLABEL('GAB'),$);
#441=IFCPROPERTYSINGLEVALUE('AwardInterface',$,IFCLABEL('211'),$);
#442=IFCPROPERTYSINGLEVALUE('PlanningInterface',$,IFCLABEL('031'),$);
#443=IFCPROPERTYSINGLEVALUE('BelowTerrain',$,IFCBOOLEAN(.F.),$);
#444=IFCPROPERTYSINGLEVALUE('eBKP',$,IFCLABEL('C02.01'),$);
#445=IFCPROPERTYSINGLEVALUE('CalculatedType',$,IFCLABEL('Wand_Aussen_Oberirdisch_Beton'),$);
ENDSEC;
END-ISO-10303-21;
