ISO-10303-21;
HEADER;
FILE_DESCRIPTION(('ViewDefinition[DesignTransferView]'),'2;1');
FILE_NAME('/dev/null','2026-09-13T15:45:06+02:00',(''),(''),'IfcOpenShell 0.8.5','IfcOpenShell 0.8.5','Nobody');
FILE_SCHEMA(('IFC4'));
ENDSEC;
DATA;
#1=IFCPERSON('catalog-pipeline','Pipeline','Catalog',$,$,$,$,$);
#2=IFCORGANIZATION('pragmaticBIM','pragmaticBIM',$,$,$);
#3=IFCPERSONANDORGANIZATION(#1,#2,$);
#4=IFCAPPLICATION(#2,'0.1.0','Catalog IFC Pipeline','catalog-ifc-pipeline');
#5=IFCOWNERHISTORY(#3,#4,.READWRITE.,.ADDED.,1789307106,#3,#4,1789307106);
#6=IFCPROJECT('1uZbpKUKDDSxsIyQjS8rzx',#5,'Musterprojekt',$,$,$,'32',(#15),#10);
#7=IFCSIUNIT(*,.LENGTHUNIT.,$,.METRE.);
#8=IFCSIUNIT(*,.AREAUNIT.,$,.SQUARE_METRE.);
#9=IFCSIUNIT(*,.VOLUMEUNIT.,$,.CUBIC_METRE.);
#10=IFCUNITASSIGNMENT((#9,#7,#8));
#11=IFCCARTESIANPOINT((0.,0.,0.));
#12=IFCDIRECTION((0.,0.,1.));
#13=IFCDIRECTION((1.,0.,0.));
#14=IFCAXIS2PLACEMENT3D(#11,#12,#13);
#15=IFCGEOMETRICREPRESENTATIONCONTEXT($,'Model',3,1.0000000000000001E-05,#14,$);
#16=IFCGEOMETRICREPRESENTATIONSUBCONTEXT('Body','Model',*,*,*,*,#15,$,.MODEL_VIEW.,$);
#17=IFCOWNERHISTORY(#3,#4,.READWRITE.,.MODIFIED.,1789307106,#3,#4,1789307106);
#18=IFCSITE('2wMIXMBNj6afGTpFPe_7jZ',#17,'Planungsperimeter',$,$,#62,#82,$,$,$,$,$,$,$);
#19=IFCOWNERHISTORY(#3,#4,.READWRITE.,.MODIFIED.,1789307106,#3,#4,1789307106);
#20=IFCBUILDING('1BALfx3Mr6L9IFgQJWWs4I',#19,'Gebaeude A',$,$,#67,$,$,$,$,$,$);
#21=IFCOWNERHISTORY(#3,#4,.READWRITE.,.ADDED.,1789307106,#3,#4,1789307106);
#22=IFCRELAGGREGATES('0ufgIZswPBcO7Zl4r5TOEC',#21,$,$,#6,(#18));
#23=IFCOWNERHISTORY(#3,#4,.READWRITE.,.ADDED.,1789307106,#3,#4,1789307106);
#24=IFCRELAGGREGATES('32zH049kfAbQHD73A2ec_H',#23,$,$,#18,(#20));
#35=IFCOWNERHISTORY(#3,#4,.READWRITE.,.MODIFIED.,1789307106,#3,#4,1789307106);
#36=IFCBUILDINGSTOREY('1j28JIosL21B_b7Xghds4e',#35,'EG',$,$,#43,$,$,$,0.);
#37=IFCOWNERHISTORY(#3,#4,.READWRITE.,.MODIFIED.,1789307106,#3,#4,1789307106);
#38=IFCRELAGGREGATES('1i7xdf6qX7hBc38FUdLLMR',#37,$,$,#20,(#45,#52,#36));
#39=IFCCARTESIANPOINT((0.,0.,0.));
#40=IFCDIRECTION((0.,0.,1.));
#41=IFCDIRECTION((1.,0.,0.));
#42=IFCAXIS2PLACEMENT3D(#39,#40,#41);
#43=IFCLOCALPLACEMENT(#67,#42);
#44=IFCOWNERHISTORY(#3,#4,.READWRITE.,.MODIFIED.,1789307106,#3,#4,1789307106);
#45=IFCBUILDINGSTOREY('0R4rQmKbLCZgVmSVZ27fsx',#44,'01',$,$,#50,$,$,$,3.);
#46=IFCCARTESIANPOINT((0.,0.,3.));
#47=IFCDIRECTION((0.,0.,1.));
#48=IFCDIRECTION((1.,0.,0.));
#49=IFCAXIS2PLACEMENT3D(#46,#47,#48);
#50=IFCLOCALPLACEMENT(#67,#49);
#51=IFCOWNERHISTORY(#3,#4,.READWRITE.,.MODIFIED.,1789307106,#3,#4,1789307106);
#52=IFCBUILDINGSTOREY('19h0BJ4vH1Xf3NyV8Q4Bf6',#51,'02',$,$,#57,$,$,$,6.);
#53=IFCCARTESIANPOINT((0.,0.,6.));
#54=IFCDIRECTION((0.,0.,1.));
#55=IFCDIRECTION((1.,0.,0.));
#56=IFCAXIS2PLACEMENT3D(#53,#54,#55);
#57=IFCLOCALPLACEMENT(#67,#56);
#58=IFCCARTESIANPOINT((0.,0.,-0.20000000000000001));
#59=IFCDIRECTION((0.,0.,1.));
#60=IFCDIRECTION((1.,0.,0.));
#61=IFCAXIS2PLACEMENT3D(#58,#59,#60);
#62=IFCLOCALPLACEMENT($,#61);
#63=IFCCARTESIANPOINT((0.,0.,0.20000000000000001));
#64=IFCDIRECTION((0.,0.,1.));
#65=IFCDIRECTION((1.,0.,0.));
#66=IFCAXIS2PLACEMENT3D(#63,#64,#65);
#67=IFCLOCALPLACEMENT(#62,#66);
#68=IFCCARTESIANPOINT((0.,0.,0.));
#69=IFCCARTESIANPOINT((16.,0.,0.));
#70=IFCCARTESIANPOINT((16.,14.,0.));
#71=IFCCARTESIANPOINT((0.,14.,0.));
#72=IFCCARTESIANPOINT((0.,0.,0.));
#73=IFCPOLYLINE((#68,#69,#70,#71,#72));
#74=IFCARBITRARYCLOSEDPROFILEDEF(.AREA.,$,#73);
#75=IFCCARTESIANPOINT((0.,0.,0.));
#76=IFCDIRECTION((0.,0.,1.));
#77=IFCDIRECTION((1.,0.,0.));
#78=IFCAXIS2PLACEMENT3D(#75,#76,#77);
#79=IFCDIRECTION((0.,0.,1.));
#80=IFCEXTRUDEDAREASOLID(#74,#78,#79,0.20000000000000001);
#81=IFCSHAPEREPRESENTATION(#16,'Body','SweptSolid',(#80));
#82=IFCPRODUCTDEFINITIONSHAPE($,$,(#81));
#83=IFCOWNERHISTORY(#3,#4,.READWRITE.,.MODIFIED.,1789307106,#3,#4,1789307106);
#84=IFCSLAB('0phXndLC14RQpDdaD99kZ2',#83,'Bodenplatte',$,$,#91,#106,$,.BASESLAB.);
#85=IFCOWNERHISTORY(#3,#4,.READWRITE.,.ADDED.,1789307106,#3,#4,1789307106);
#86=IFCRELCONTAINEDINSPATIALSTRUCTURE('2ev6Gg$LHDxw_kFvkDWsFX',#85,$,$,(#84),#36);
#87=IFCCARTESIANPOINT((0.,0.,0.));
#88=IFCDIRECTION((0.,0.,1.));
#89=IFCDIRECTION((1.,0.,0.));
#90=IFCAXIS2PLACEMENT3D(#87,#88,#89);
#91=IFCLOCALPLACEMENT(#43,#90);
#92=IFCCARTESIANPOINT((4.,4.,0.));
#93=IFCCARTESIANPOINT((12.,4.,0.));
#94=IFCCARTESIANPOINT((12.,10.,0.));
#95=IFCCARTESIANPOINT((4.,10.,0.));
#96=IFCCARTESIANPOINT((4.,4.,0.));
#97=IFCPOLYLINE((#92,#93,#94,#95,#96));
#98=IFCARBITRARYCLOSEDPROFILEDEF(.AREA.,$,#97);
#99=IFCCARTESIANPOINT((0.,0.,0.));
#100=IFCDIRECTION((0.,0.,1.));
#101=IFCDIRECTION((1.,0.,0.));
#102=IFCAXIS2PLACEMENT3D(#99,#100,#101);
#103=IFCDIRECTION((0.,0.,1.));
#104=IFCEXTRUDEDAREASOLID(#98,#102,#103,0.34999999999999998);
#105=IFCSHAPEREPRESENTATION(#16,'Body','SweptSolid',(#104));
#106=IFCPRODUCTDEFINITIONSHAPE($,$,(#105));
#107=IFCOWNERHISTORY(#3,#4,.READWRITE.,.ADDED.,1789307106,#3,#4,1789307106);
#108=IFCPROPERTYSET('1CqbC$T1z18vltUnDexrVL',#107,'Pset_SlabCommon',$,(#111,#112));
#109=IFCOWNERHISTORY(#3,#4,.READWRITE.,.ADDED.,1789307106,#3,#4,1789307106);
#110=IFCRELDEFINESBYPROPERTIES('3NVLXxMWX6SgsUOL$16Gam',#109,$,$,(#84),#108);
#111=IFCPROPERTYSINGLEVALUE('LoadBearing',$,IFCBOOLEAN(.T.),$);
#112=IFCPROPERTYSINGLEVALUE('Status',$,IFCLABEL('NEW'),$);
#113=IFCOWNERHISTORY(#3,#4,.READWRITE.,.ADDED.,1789307106,#3,#4,1789307106);
#114=IFCPROPERTYSET('2nmzFluovA8PMjs27uYDDS',#113,'ePset_Cost',$,(#117,#118,#119,#120,#121,#122));
#115=IFCOWNERHISTORY(#3,#4,.READWRITE.,.ADDED.,1789307106,#3,#4,1789307106);
#116=IFCRELDEFINESBYPROPERTIES('24c4ljqzj4Xes1QGDxZUsB',#115,$,$,(#84),#114);
#117=IFCPROPERTYSINGLEVALUE('CostInterface',$,IFCLABEL('GAB'),$);
#118=IFCPROPERTYSINGLEVALUE('AwardInterface',$,IFCLABEL('211'),$);
#119=IFCPROPERTYSINGLEVALUE('PlanningInterface',$,IFCLABEL('031'),$);
#120=IFCPROPERTYSINGLEVALUE('BelowTerrain',$,IFCBOOLEAN(.T.),$);
#121=IFCPROPERTYSINGLEVALUE('eBKP',$,IFCLABEL('C01.03'),$);
#122=IFCPROPERTYSINGLEVALUE('CalculatedType',$,IFCLABEL('Bodenplatte_Beton'),$);
#123=IFCOWNERHISTORY(#3,#4,.READWRITE.,.ADDED.,1789307106,#3,#4,1789307106);
#124=IFCELEMENTQUANTITY('3eg$WvVIfAG8gQoXRw5agB',#123,'Qto_SlabBaseQuantities',$,'BaseQuantities',(#127));
#125=IFCOWNERHISTORY(#3,#4,.READWRITE.,.ADDED.,1789307106,#3,#4,1789307106);
#126=IFCRELDEFINESBYPROPERTIES('2O1nQ8Jg9EvhDuY3RthbWj',#125,$,$,(#84),#124);
#127=IFCQUANTITYVOLUME('GrossVolume',$,$,16.800000000000001,$);
#128=IFCOWNERHISTORY(#3,#4,.READWRITE.,.MODIFIED.,1789307106,#3,#4,1789307106);
#129=IFCSLAB('1oBEgy7CvCoAL5PFxgqcQy',#128,'D-01',$,$,#136,#151,$,.FLOOR.);
#130=IFCOWNERHISTORY(#3,#4,.READWRITE.,.MODIFIED.,1789307106,#3,#4,1789307106);
#131=IFCRELCONTAINEDINSPATIALSTRUCTURE('2gUbXs_6v0x9VePJq6qt8q',#130,$,$,(#129,#223),#45);
#132=IFCCARTESIANPOINT((0.,0.,0.));
#133=IFCDIRECTION((0.,0.,1.));
#134=IFCDIRECTION((1.,0.,0.));
#135=IFCAXIS2PLACEMENT3D(#132,#133,#134);
#136=IFCLOCALPLACEMENT(#50,#135);
#137=IFCCARTESIANPOINT((4.,4.,0.));
#138=IFCCARTESIANPOINT((12.,4.,0.));
#139=IFCCARTESIANPOINT((12.,10.,0.));
#140=IFCCARTESIANPOINT((4.,10.,0.));
#141=IFCCARTESIANPOINT((4.,4.,0.));
#142=IFCPOLYLINE((#137,#138,#139,#140,#141));
#143=IFCARBITRARYCLOSEDPROFILEDEF(.AREA.,$,#142);
#144=IFCCARTESIANPOINT((0.,0.,0.));
#145=IFCDIRECTION((0.,0.,1.));
#146=IFCDIRECTION((1.,0.,0.));
#147=IFCAXIS2PLACEMENT3D(#144,#145,#146);
#148=IFCDIRECTION((0.,0.,1.));
#149=IFCEXTRUDEDAREASOLID(#143,#147,#148,0.34999999999999998);
#150=IFCSHAPEREPRESENTATION(#16,'Body','SweptSolid',(#149));
#151=IFCPRODUCTDEFINITIONSHAPE($,$,(#150));
#152=IFCOWNERHISTORY(#3,#4,.READWRITE.,.ADDED.,1789307106,#3,#4,1789307106);
#153=IFCPROPERTYSET('3QtYeZE713eOa7NoDKpLh9',#152,'Pset_SlabCommon',$,(#156,#157,#158,#159));
#154=IFCOWNERHISTORY(#3,#4,.READWRITE.,.ADDED.,1789307106,#3,#4,1789307106);
#155=IFCRELDEFINESBYPROPERTIES('1VjU1fO2T0deCPWTykOo4n',#154,$,$,(#129),#153);
#156=IFCPROPERTYSINGLEVALUE('LoadBearing',$,IFCBOOLEAN(.T.),$);
#157=IFCPROPERTYSINGLEVALUE('Status',$,IFCLABEL('NEW'),$);
#158=IFCPROPERTYSINGLEVALUE('FireRating',$,IFCLABEL('REI 90'),$);
#159=IFCPROPERTYSINGLEVALUE('AcousticRating',$,IFCLABEL('53'),$);
#160=IFCOWNERHISTORY(#3,#4,.READWRITE.,.ADDED.,1789307106,#3,#4,1789307106);
#161=IFCPROPERTYSET('0VNaUbWmjCC9nxz1JKo2UB',#160,'ePset_Cost',$,(#164,#165,#166,#167,#168,#169));
#162=IFCOWNERHISTORY(#3,#4,.READWRITE.,.ADDED.,1789307106,#3,#4,1789307106);
#163=IFCRELDEFINESBYPROPERTIES('3lHbte4bDF0u6YDcab90xq',#162,$,$,(#129),#161);
#164=IFCPROPERTYSINGLEVALUE('CostInterface',$,IFCLABEL('GAB'),$);
#165=IFCPROPERTYSINGLEVALUE('AwardInterface',$,IFCLABEL('211'),$);
#166=IFCPROPERTYSINGLEVALUE('PlanningInterface',$,IFCLABEL('031'),$);
#167=IFCPROPERTYSINGLEVALUE('BelowTerrain',$,IFCBOOLEAN(.F.),$);
#168=IFCPROPERTYSINGLEVALUE('eBKP',$,IFCLABEL('C04.01'),$);
#169=IFCPROPERTYSINGLEVALUE('CalculatedType',$,IFCLABEL('Decke_Beton_REI90_53'),$);
#170=IFCOWNERHISTORY(#3,#4,.READWRITE.,.ADDED.,1789307106,#3,#4,1789307106);
#171=IFCELEMENTQUANTITY('2EwzNt17LAQuPqhbKTDLjB',#170,'Qto_SlabBaseQuantities',$,'BaseQuantities',(#174));
#172=IFCOWNERHISTORY(#3,#4,.READWRITE.,.ADDED.,1789307106,#3,#4,1789307106);
#173=IFCRELDEFINESBYPROPERTIES('1w3r5qpVr3WvO1AjjpA5k6',#172,$,$,(#129),#171);
#174=IFCQUANTITYVOLUME('GrossVolume',$,$,16.800000000000001,$);
#175=IFCOWNERHISTORY(#3,#4,.READWRITE.,.MODIFIED.,1789307106,#3,#4,1789307106);
#176=IFCSLAB('2jycy10Mz8y93xAj0worBp',#175,'FD-01',$,$,#183,#198,$,.ROOF.);
#177=IFCOWNERHISTORY(#3,#4,.READWRITE.,.ADDED.,1789307106,#3,#4,1789307106);
#178=IFCRELCONTAINEDINSPATIALSTRUCTURE('0AolSqdRvFjA7mc4xtZUx8',#177,$,$,(#176),#52);
#179=IFCCARTESIANPOINT((0.,0.,0.));
#180=IFCDIRECTION((0.,0.,1.));
#181=IFCDIRECTION((1.,0.,0.));
#182=IFCAXIS2PLACEMENT3D(#179,#180,#181);
#183=IFCLOCALPLACEMENT(#57,#182);
#184=IFCCARTESIANPOINT((4.,4.,0.));
#185=IFCCARTESIANPOINT((12.,4.,0.));
#186=IFCCARTESIANPOINT((12.,10.,0.));
#187=IFCCARTESIANPOINT((4.,10.,0.));
#188=IFCCARTESIANPOINT((4.,4.,0.));
#189=IFCPOLYLINE((#184,#185,#186,#187,#188));
#190=IFCARBITRARYCLOSEDPROFILEDEF(.AREA.,$,#189);
#191=IFCCARTESIANPOINT((0.,0.,0.));
#192=IFCDIRECTION((0.,0.,1.));
#193=IFCDIRECTION((1.,0.,0.));
#194=IFCAXIS2PLACEMENT3D(#191,#192,#193);
#195=IFCDIRECTION((0.,0.,1.));
#196=IFCEXTRUDEDAREASOLID(#190,#194,#195,0.34999999999999998);
#197=IFCSHAPEREPRESENTATION(#16,'Body','SweptSolid',(#196));
#198=IFCPRODUCTDEFINITIONSHAPE($,$,(#197));
#199=IFCOWNERHISTORY(#3,#4,.READWRITE.,.ADDED.,1789307106,#3,#4,1789307106);
#200=IFCPROPERTYSET('12hJV_98TEnO_nHxlZ2lGz',#199,'Pset_SlabCommon',$,(#203,#204,#205));
#201=IFCOWNERHISTORY(#3,#4,.READWRITE.,.ADDED.,1789307106,#3,#4,1789307106);
#202=IFCRELDEFINESBYPROPERTIES('1LAjp6OLz8uO_xB5v9dr1M',#201,$,$,(#176),#200);
#203=IFCPROPERTYSINGLEVALUE('IsExternal',$,IFCBOOLEAN(.T.),$);
#204=IFCPROPERTYSINGLEVALUE('LoadBearing',$,IFCBOOLEAN(.T.),$);
#205=IFCPROPERTYSINGLEVALUE('Status',$,IFCLABEL('NEW'),$);
#206=IFCOWNERHISTORY(#3,#4,.READWRITE.,.ADDED.,1789307106,#3,#4,1789307106);
#207=IFCPROPERTYSET('0WjRscBnHCrBYW0tNAl6eN',#206,'ePset_Cost',$,(#210,#211,#212,#213,#214,#215));
#208=IFCOWNERHISTORY(#3,#4,.READWRITE.,.ADDED.,1789307106,#3,#4,1789307106);
#209=IFCRELDEFINESBYPROPERTIES('0Ca0hpWtvCQPP5UfPqQCsg',#208,$,$,(#176),#207);
#210=IFCPROPERTYSINGLEVALUE('CostInterface',$,IFCLABEL('GAB'),$);
#211=IFCPROPERTYSINGLEVALUE('AwardInterface',$,IFCLABEL('211'),$);
#212=IFCPROPERTYSINGLEVALUE('PlanningInterface',$,IFCLABEL('031'),$);
#213=IFCPROPERTYSINGLEVALUE('BelowTerrain',$,IFCBOOLEAN(.F.),$);
#214=IFCPROPERTYSINGLEVALUE('eBKP',$,IFCLABEL('C04.04'),$);
#215=IFCPROPERTYSINGLEVALUE('CalculatedType',$,IFCLABEL('Dach_Beton'),$);
#216=IFCOWNERHISTORY(#3,#4,.READWRITE.,.ADDED.,1789307106,#3,#4,1789307106);
#217=IFCELEMENTQUANTITY('04anIQGrvB2vNyV4fkPwV4',#216,'Qto_SlabBaseQuantities',$,'BaseQuantities',(#220,#221));
#218=IFCOWNERHISTORY(#3,#4,.READWRITE.,.ADDED.,1789307106,#3,#4,1789307106);
#219=IFCRELDEFINESBYPROPERTIES('18HajQU2PARe19eHsirzwH',#218,$,$,(#176),#217);
#220=IFCQUANTITYVOLUME('GrossVolume',$,$,16.800000000000001,$);
#221=IFCQUANTITYAREA('GrossArea',$,$,48.,$);
#222=IFCOWNERHISTORY(#3,#4,.READWRITE.,.MODIFIED.,1789307106,#3,#4,1789307106);
#223=IFCSLAB('1p_LLei2LE38A7Ljd_KpHY',#222,'Balkon',$,$,#228,#243,$,.FLOOR.);
#224=IFCCARTESIANPOINT((0.,0.,0.));
#225=IFCDIRECTION((0.,0.,1.));
#226=IFCDIRECTION((1.,0.,0.));
#227=IFCAXIS2PLACEMENT3D(#224,#225,#226);
#228=IFCLOCALPLACEMENT(#50,#227);
#229=IFCCARTESIANPOINT((6.,10.,0.));
#230=IFCCARTESIANPOINT((10.,10.,0.));
#231=IFCCARTESIANPOINT((10.,11.5,0.));
#232=IFCCARTESIANPOINT((6.,11.5,0.));
#233=IFCCARTESIANPOINT((6.,10.,0.));
#234=IFCPOLYLINE((#229,#230,#231,#232,#233));
#235=IFCARBITRARYCLOSEDPROFILEDEF(.AREA.,$,#234);
#236=IFCCARTESIANPOINT((0.,0.,0.));
#237=IFCDIRECTION((0.,0.,1.));
#238=IFCDIRECTION((1.,0.,0.));
#239=IFCAXIS2PLACEMENT3D(#236,#237,#238);
#240=IFCDIRECTION((0.,0.,1.));
#241=IFCEXTRUDEDAREASOLID(#235,#239,#240,0.34999999999999998);
#242=IFCSHAPEREPRESENTATION(#16,'Body','SweptSolid',(#241));
#243=IFCPRODUCTDEFINITIONSHAPE($,$,(#242));
#244=IFCOWNERHISTORY(#3,#4,.READWRITE.,.ADDED.,1789307106,#3,#4,1789307106);
#245=IFCPROPERTYSET('3XEJ$7eLHApQjtEcHvpXtq',#244,'Pset_SlabCommon',$,(#248,#249,#250,#251));
#246=IFCOWNERHISTORY(#3,#4,.READWRITE.,.ADDED.,1789307106,#3,#4,1789307106);
#247=IFCRELDEFINESBYPROPERTIES('0OrSlSzz53ZfY57XciRLR5',#246,$,$,(#223),#245);
#248=IFCPROPERTYSINGLEVALUE('IsExternal',$,IFCBOOLEAN(.T.),$);
#249=IFCPROPERTYSINGLEVALUE('LoadBearing',$,IFCBOOLEAN(.T.),$);
#250=IFCPROPERTYSINGLEVALUE('Status',$,IFCLABEL('NEW'),$);
#251=IFCPROPERTYSINGLEVALUE('FireRating',$,IFCLABEL('REI 90'),$);
#252=IFCOWNERHISTORY(#3,#4,.READWRITE.,.ADDED.,1789307106,#3,#4,1789307106);
#253=IFCPROPERTYSET('2nSFOGjZbD6wzdHb_5LLHp',#252,'ePset_Cost',$,(#256,#257,#258,#259,#260,#261));
#254=IFCOWNERHISTORY(#3,#4,.READWRITE.,.ADDED.,1789307106,#3,#4,1789307106);
#255=IFCRELDEFINESBYPROPERTIES('0QK5as4vn5sPOGlaNBCl_J',#254,$,$,(#223),#253);
#256=IFCPROPERTYSINGLEVALUE('CostInterface',$,IFCLABEL('GAB'),$);
#257=IFCPROPERTYSINGLEVALUE('AwardInterface',$,IFCLABEL('211'),$);
#258=IFCPROPERTYSINGLEVALUE('PlanningInterface',$,IFCLABEL('031'),$);
#259=IFCPROPERTYSINGLEVALUE('BelowTerrain',$,IFCBOOLEAN(.F.),$);
#260=IFCPROPERTYSINGLEVALUE('eBKP',$,IFCLABEL('C04.07'),$);
#261=IFCPROPERTYSINGLEVALUE('CalculatedType',$,IFCLABEL('Balkon_Beton_REI90'),$);
#262=IFCOWNERHISTORY(#3,#4,.READWRITE.,.ADDED.,1789307106,#3,#4,1789307106);
#263=IFCELEMENTQUANTITY('0shLAwoHr8CBI10Rh1IteY',#262,'Qto_SlabBaseQuantities',$,'BaseQuantities',(#266,#267));
#264=IFCOWNERHISTORY(#3,#4,.READWRITE.,.ADDED.,1789307106,#3,#4,1789307106);
#265=IFCRELDEFINESBYPROPERTIES('1UEVvAbkz3BvmWJb4BnOfj',#264,$,$,(#223),#263);
#266=IFCQUANTITYVOLUME('GrossVolume',$,$,2.1000000000000001,$);
#267=IFCQUANTITYAREA('GrossArea',$,$,6.,$);
ENDSEC;
END-ISO-10303-21;
