ISO-10303-21;
HEADER;
FILE_DESCRIPTION(('ViewDefinition[DesignTransferView]'),'2;1');
FILE_NAME('/dev/null','2026-09-22T07:11:10+02:00',(''),(''),'IfcOpenShell 0.8.5','IfcOpenShell 0.8.5','Nobody');
FILE_SCHEMA(('IFC4'));
ENDSEC;
DATA;
#1=IFCPERSON('catalog-pipeline','Pipeline','Catalog',$,$,$,$,$);
#2=IFCORGANIZATION('pragmaticBIM','pragmaticBIM',$,$,$);
#3=IFCPERSONANDORGANIZATION(#1,#2,$);
#4=IFCAPPLICATION(#2,'0.1.0','Catalog IFC Pipeline','catalog-ifc-pipeline');
#5=IFCOWNERHISTORY(#3,#4,.READWRITE.,.ADDED.,1790053870,#3,#4,1790053870);
#6=IFCPROJECT('3pqdCG4kv3Mfg5GYeSiSrh',#5,'surrounding-building-01',$,$,$,$,(#15),#10);
#7=IFCSIUNIT(*,.LENGTHUNIT.,$,.METRE.);
#8=IFCSIUNIT(*,.AREAUNIT.,$,.SQUARE_METRE.);
#9=IFCSIUNIT(*,.VOLUMEUNIT.,$,.CUBIC_METRE.);
#10=IFCUNITASSIGNMENT((#9,#7,#8));
#11=IFCCARTESIANPOINT((0.,0.,0.));
#12=IFCDIRECTION((0.,0.,1.));
#13=IFCDIRECTION((1.,0.,0.));
#14=IFCAXIS2PLACEMENT3D(#11,#12,#13);
#15=IFCGEOMETRICREPRESENTATIONCONTEXT($,'Model',3,1.0000000000000001E-05,#14,$);
#16=IFCGEOMETRICREPRESENTATIONSUBCONTEXT('Body','Model',*,*,*,*,#15,$,.MODEL_VIEW.,$);
#17=IFCOWNERHISTORY(#3,#4,.READWRITE.,.MODIFIED.,1790053870,#3,#4,1790053870);
#18=IFCSITE('1nGIIA_Xf6OwtDJ2Jf4DJu',#17,'Site',$,$,#62,#68,$,$,$,$,$,$,$);
#19=IFCOWNERHISTORY(#3,#4,.READWRITE.,.MODIFIED.,1790053870,#3,#4,1790053870);
#20=IFCBUILDING('11NJ7fe8P7XO1aesHPzYKr',#19,'Building',$,$,#67,$,$,$,$,$,$);
#21=IFCOWNERHISTORY(#3,#4,.READWRITE.,.ADDED.,1790053870,#3,#4,1790053870);
#22=IFCRELAGGREGATES('2JIDEls3XDcQvvXCx99hcy',#21,$,$,#6,(#18));
#23=IFCOWNERHISTORY(#3,#4,.READWRITE.,.ADDED.,1790053870,#3,#4,1790053870);
#24=IFCRELAGGREGATES('2tu5s8TGzDH80ht3Bv8U7j',#23,$,$,#18,(#20));
#35=IFCOWNERHISTORY(#3,#4,.READWRITE.,.MODIFIED.,1790053870,#3,#4,1790053870);
#36=IFCBUILDINGSTOREY('1DhCIbJ0DC7wzHDsmc6nQi',#35,'Level 0',$,$,#43,$,$,$,0.);
#37=IFCOWNERHISTORY(#3,#4,.READWRITE.,.ADDED.,1790053870,#3,#4,1790053870);
#38=IFCRELAGGREGATES('1G2hBJN69Drwkhl6ihWbWS',#37,$,$,#20,(#36));
#39=IFCCARTESIANPOINT((0.,0.,0.));
#40=IFCDIRECTION((0.,0.,1.));
#41=IFCDIRECTION((1.,0.,0.));
#42=IFCAXIS2PLACEMENT3D(#39,#40,#41);
#43=IFCLOCALPLACEMENT(#67,#42);
#44=IFCCARTESIANPOINT((-14.,-2.,0.));
#45=IFCCARTESIANPOINT((19.,-2.,0.));
#46=IFCCARTESIANPOINT((19.,17.,0.));
#47=IFCCARTESIANPOINT((-14.,17.,0.));
#48=IFCCARTESIANPOINT((-14.,-2.,0.));
#49=IFCPOLYLINE((#44,#45,#46,#47,#48));
#50=IFCARBITRARYCLOSEDPROFILEDEF(.AREA.,$,#49);
#51=IFCCARTESIANPOINT((0.,0.,0.));
#52=IFCDIRECTION((0.,0.,1.));
#53=IFCDIRECTION((1.,0.,0.));
#54=IFCAXIS2PLACEMENT3D(#51,#52,#53);
#55=IFCDIRECTION((0.,0.,1.));
#56=IFCEXTRUDEDAREASOLID(#50,#54,#55,0.20000000000000001);
#57=IFCSHAPEREPRESENTATION(#16,'Body','SweptSolid',(#56));
#58=IFCCARTESIANPOINT((0.,0.,-0.20000000000000001));
#59=IFCDIRECTION((0.,0.,1.));
#60=IFCDIRECTION((1.,0.,0.));
#61=IFCAXIS2PLACEMENT3D(#58,#59,#60);
#62=IFCLOCALPLACEMENT($,#61);
#63=IFCCARTESIANPOINT((0.,0.,0.20000000000000001));
#64=IFCDIRECTION((0.,0.,1.));
#65=IFCDIRECTION((1.,0.,0.));
#66=IFCAXIS2PLACEMENT3D(#63,#64,#65);
#67=IFCLOCALPLACEMENT(#62,#66);
#68=IFCPRODUCTDEFINITIONSHAPE($,$,(#57));
#69=IFCOWNERHISTORY(#3,#4,.READWRITE.,.MODIFIED.,1790053870,#3,#4,1790053870);
#70=IFCSLAB('31WQNgqCzAlPwS6SLnYbfq',#69,'Projektvolumen',$,$,#77,#92,$,.FLOOR.);
#71=IFCOWNERHISTORY(#3,#4,.READWRITE.,.MODIFIED.,1790053870,#3,#4,1790053870);
#72=IFCRELCONTAINEDINSPATIALSTRUCTURE('3y30IgDrL2PeifzuyJ1REL',#71,$,$,(#158,#126,#94,#70),#18);
#73=IFCCARTESIANPOINT((0.,0.,0.20000000000000001));
#74=IFCDIRECTION((0.,0.,1.));
#75=IFCDIRECTION((1.,0.,0.));
#76=IFCAXIS2PLACEMENT3D(#73,#74,#75);
#77=IFCLOCALPLACEMENT(#62,#76);
#78=IFCCARTESIANPOINT((0.,0.,0.));
#79=IFCCARTESIANPOINT((8.,0.,0.));
#80=IFCCARTESIANPOINT((8.,7.,0.));
#81=IFCCARTESIANPOINT((0.,7.,0.));
#82=IFCCARTESIANPOINT((0.,0.,0.));
#83=IFCPOLYLINE((#78,#79,#80,#81,#82));
#84=IFCARBITRARYCLOSEDPROFILEDEF(.AREA.,$,#83);
#85=IFCCARTESIANPOINT((0.,0.,0.));
#86=IFCDIRECTION((0.,0.,1.));
#87=IFCDIRECTION((1.,0.,0.));
#88=IFCAXIS2PLACEMENT3D(#85,#86,#87);
#89=IFCDIRECTION((0.,0.,1.));
#90=IFCEXTRUDEDAREASOLID(#84,#88,#89,9.);
#91=IFCSHAPEREPRESENTATION(#16,'Body','SweptSolid',(#90));
#92=IFCPRODUCTDEFINITIONSHAPE($,$,(#91));
#93=IFCOWNERHISTORY(#3,#4,.READWRITE.,.MODIFIED.,1790053870,#3,#4,1790053870);
#94=IFCBUILDINGELEMENTPROXY('0xbh8bbjT3rv5BvzgD4Wa5',#93,'N001',$,'Umgebungsbau',#99,#114,$,.USERDEFINED.);
#95=IFCCARTESIANPOINT((0.,0.,0.20000000000000001));
#96=IFCDIRECTION((0.,0.,1.));
#97=IFCDIRECTION((1.,0.,0.));
#98=IFCAXIS2PLACEMENT3D(#95,#96,#97);
#99=IFCLOCALPLACEMENT(#62,#98);
#100=IFCCARTESIANPOINT((-14.,0.,0.));
#101=IFCCARTESIANPOINT((-4.,0.,0.));
#102=IFCCARTESIANPOINT((-4.,7.,0.));
#103=IFCCARTESIANPOINT((-14.,7.,0.));
#104=IFCCARTESIANPOINT((-14.,0.,0.));
#105=IFCPOLYLINE((#100,#101,#102,#103,#104));
#106=IFCARBITRARYCLOSEDPROFILEDEF(.AREA.,$,#105);
#107=IFCCARTESIANPOINT((0.,0.,0.));
#108=IFCDIRECTION((0.,0.,1.));
#109=IFCDIRECTION((1.,0.,0.));
#110=IFCAXIS2PLACEMENT3D(#107,#108,#109);
#111=IFCDIRECTION((0.,0.,1.));
#112=IFCEXTRUDEDAREASOLID(#106,#110,#111,12.);
#113=IFCSHAPEREPRESENTATION(#16,'Body','SweptSolid',(#112));
#114=IFCPRODUCTDEFINITIONSHAPE($,$,(#113));
#115=IFCOWNERHISTORY(#3,#4,.READWRITE.,.ADDED.,1790053870,#3,#4,1790053870);
#116=IFCPROPERTYSET('3tT1lXDe9DwfNOf4jwqXOp',#115,'Pset_UmgebungCommon',$,(#119));
#117=IFCOWNERHISTORY(#3,#4,.READWRITE.,.ADDED.,1790053870,#3,#4,1790053870);
#118=IFCRELDEFINESBYPROPERTIES('1pBYhGMTbATf15gNdpltVV',#117,$,$,(#94),#116);
#119=IFCPROPERTYSINGLEVALUE('EinspracheRisiko',$,IFCLABEL('HOCH'),$);
#120=IFCOWNERHISTORY(#3,#4,.READWRITE.,.ADDED.,1790053870,#3,#4,1790053870);
#121=IFCELEMENTQUANTITY('1sja202zP4jfFgPmFBbHQJ',#120,'Qto_BuildingElementProxyBaseQuantities',$,'BaseQuantities',(#124));
#122=IFCOWNERHISTORY(#3,#4,.READWRITE.,.ADDED.,1790053870,#3,#4,1790053870);
#123=IFCRELDEFINESBYPROPERTIES('2mJiDHKXr3dBHOZmWvkyIA',#122,$,$,(#94),#121);
#124=IFCQUANTITYVOLUME('GrossVolume',$,$,840.,$);
#125=IFCOWNERHISTORY(#3,#4,.READWRITE.,.MODIFIED.,1790053870,#3,#4,1790053870);
#126=IFCBUILDINGELEMENTPROXY('3TaNKpyRrEfvXYF9SwoZmA',#125,'N002',$,'Umgebungsbau',#131,#146,$,.USERDEFINED.);
#127=IFCCARTESIANPOINT((0.,0.,0.20000000000000001));
#128=IFCDIRECTION((0.,0.,1.));
#129=IFCDIRECTION((1.,0.,0.));
#130=IFCAXIS2PLACEMENT3D(#127,#128,#129);
#131=IFCLOCALPLACEMENT(#62,#130);
#132=IFCCARTESIANPOINT((0.80000000000000004,11.,0.));
#133=IFCCARTESIANPOINT((8.8000000000000007,11.,0.));
#134=IFCCARTESIANPOINT((8.8000000000000007,17.,0.));
#135=IFCCARTESIANPOINT((0.80000000000000004,17.,0.));
#136=IFCCARTESIANPOINT((0.80000000000000004,11.,0.));
#137=IFCPOLYLINE((#132,#133,#134,#135,#136));
#138=IFCARBITRARYCLOSEDPROFILEDEF(.AREA.,$,#137);
#139=IFCCARTESIANPOINT((0.,0.,0.));
#140=IFCDIRECTION((0.,0.,1.));
#141=IFCDIRECTION((1.,0.,0.));
#142=IFCAXIS2PLACEMENT3D(#139,#140,#141);
#143=IFCDIRECTION((0.,0.,1.));
#144=IFCEXTRUDEDAREASOLID(#138,#142,#143,8.);
#145=IFCSHAPEREPRESENTATION(#16,'Body','SweptSolid',(#144));
#146=IFCPRODUCTDEFINITIONSHAPE($,$,(#145));
#147=IFCOWNERHISTORY(#3,#4,.READWRITE.,.ADDED.,1790053870,#3,#4,1790053870);
#148=IFCPROPERTYSET('0sq2iRdMP7XePfpX7Q1VhS',#147,'Pset_UmgebungCommon',$,(#151));
#149=IFCOWNERHISTORY(#3,#4,.READWRITE.,.ADDED.,1790053870,#3,#4,1790053870);
#150=IFCRELDEFINESBYPROPERTIES('0NftJI3Bn6CeU6M8Q$h0B2',#149,$,$,(#126),#148);
#151=IFCPROPERTYSINGLEVALUE('EinspracheRisiko',$,IFCLABEL('MITTEL'),$);
#152=IFCOWNERHISTORY(#3,#4,.READWRITE.,.ADDED.,1790053870,#3,#4,1790053870);
#153=IFCELEMENTQUANTITY('1nFYCEhMT7vBVUxGk4Vn5i',#152,'Qto_BuildingElementProxyBaseQuantities',$,'BaseQuantities',(#156));
#154=IFCOWNERHISTORY(#3,#4,.READWRITE.,.ADDED.,1790053870,#3,#4,1790053870);
#155=IFCRELDEFINESBYPROPERTIES('1NrULTJDb8Qg$DlZfNM1iR',#154,$,$,(#126),#153);
#156=IFCQUANTITYVOLUME('GrossVolume',$,$,384.,$);
#157=IFCOWNERHISTORY(#3,#4,.READWRITE.,.MODIFIED.,1790053870,#3,#4,1790053870);
#158=IFCBUILDINGELEMENTPROXY('0HAOQv4cjBLB4rxKNHRjW8',#157,'N003',$,'Umgebungsbau',#163,#178,$,.USERDEFINED.);
#159=IFCCARTESIANPOINT((0.,0.,0.20000000000000001));
#160=IFCDIRECTION((0.,0.,1.));
#161=IFCDIRECTION((1.,0.,0.));
#162=IFCAXIS2PLACEMENT3D(#159,#160,#161);
#163=IFCLOCALPLACEMENT(#62,#162);
#164=IFCCARTESIANPOINT((12.,1.05,0.));
#165=IFCCARTESIANPOINT((19.,1.05,0.));
#166=IFCCARTESIANPOINT((19.,6.5499999999999998,0.));
#167=IFCCARTESIANPOINT((12.,6.5499999999999998,0.));
#168=IFCCARTESIANPOINT((12.,1.05,0.));
#169=IFCPOLYLINE((#164,#165,#166,#167,#168));
#170=IFCARBITRARYCLOSEDPROFILEDEF(.AREA.,$,#169);
#171=IFCCARTESIANPOINT((0.,0.,0.));
#172=IFCDIRECTION((0.,0.,1.));
#173=IFCDIRECTION((1.,0.,0.));
#174=IFCAXIS2PLACEMENT3D(#171,#172,#173);
#175=IFCDIRECTION((0.,0.,1.));
#176=IFCEXTRUDEDAREASOLID(#170,#174,#175,6.);
#177=IFCSHAPEREPRESENTATION(#16,'Body','SweptSolid',(#176));
#178=IFCPRODUCTDEFINITIONSHAPE($,$,(#177));
#179=IFCOWNERHISTORY(#3,#4,.READWRITE.,.ADDED.,1790053870,#3,#4,1790053870);
#180=IFCPROPERTYSET('1dXKCoszf3rezGBQuKyz75',#179,'Pset_UmgebungCommon',$,(#183));
#181=IFCOWNERHISTORY(#3,#4,.READWRITE.,.ADDED.,1790053870,#3,#4,1790053870);
#182=IFCRELDEFINESBYPROPERTIES('37_q$CnVP5Ag7CCv2NGep$',#181,$,$,(#158),#180);
#183=IFCPROPERTYSINGLEVALUE('EinspracheRisiko',$,IFCLABEL('TIEF'),$);
#184=IFCOWNERHISTORY(#3,#4,.READWRITE.,.ADDED.,1790053870,#3,#4,1790053870);
#185=IFCELEMENTQUANTITY('3PwXGpL4zCWBQFEZVJG63W',#184,'Qto_BuildingElementProxyBaseQuantities',$,'BaseQuantities',(#188));
#186=IFCOWNERHISTORY(#3,#4,.READWRITE.,.ADDED.,1790053870,#3,#4,1790053870);
#187=IFCRELDEFINESBYPROPERTIES('2YoIlYz051s8KcXAswMLIX',#186,$,$,(#158),#185);
#188=IFCQUANTITYVOLUME('GrossVolume',$,$,231.,$);
ENDSEC;
END-ISO-10303-21;
