ISO-10303-21;
HEADER;
FILE_DESCRIPTION(('ViewDefinition[DesignTransferView]'),'2;1');
FILE_NAME('/dev/null','2026-09-18T10:37:14+02:00',(''),(''),'IfcOpenShell 0.8.5','IfcOpenShell 0.8.5','Nobody');
FILE_SCHEMA(('IFC4'));
ENDSEC;
DATA;
#1=IFCPERSON('catalog-pipeline','Pipeline','Catalog',$,$,$,$,$);
#2=IFCORGANIZATION('pragmaticBIM','pragmaticBIM',$,$,$);
#3=IFCPERSONANDORGANIZATION(#1,#2,$);
#4=IFCAPPLICATION(#2,'0.1.0','Catalog IFC Pipeline','catalog-ifc-pipeline');
#5=IFCOWNERHISTORY(#3,#4,.READWRITE.,.ADDED.,1789720634,#3,#4,1789720634);
#6=IFCPROJECT('3pPkvWdgPCjOYodG76yHbR',#5,'built-in-furniture-kitchen-01',$,$,$,$,(#15),#10);
#7=IFCSIUNIT(*,.LENGTHUNIT.,$,.METRE.);
#8=IFCSIUNIT(*,.AREAUNIT.,$,.SQUARE_METRE.);
#9=IFCSIUNIT(*,.VOLUMEUNIT.,$,.CUBIC_METRE.);
#10=IFCUNITASSIGNMENT((#7,#8,#9));
#11=IFCCARTESIANPOINT((0.,0.,0.));
#12=IFCDIRECTION((0.,0.,1.));
#13=IFCDIRECTION((1.,0.,0.));
#14=IFCAXIS2PLACEMENT3D(#11,#12,#13);
#15=IFCGEOMETRICREPRESENTATIONCONTEXT($,'Model',3,1.0000000000000001E-05,#14,$);
#16=IFCGEOMETRICREPRESENTATIONSUBCONTEXT('Body','Model',*,*,*,*,#15,$,.MODEL_VIEW.,$);
#17=IFCOWNERHISTORY(#3,#4,.READWRITE.,.MODIFIED.,1789720634,#3,#4,1789720634);
#18=IFCSITE('2acRalhfzA4hzAQL0Bledm',#17,'Site',$,$,#29,$,$,$,$,$,$,$,$);
#19=IFCOWNERHISTORY(#3,#4,.READWRITE.,.MODIFIED.,1789720634,#3,#4,1789720634);
#20=IFCBUILDING('1hIqvZ8h1FiO3rJn0HVtwR',#19,'Building',$,$,#34,$,$,$,$,$,$);
#21=IFCOWNERHISTORY(#3,#4,.READWRITE.,.ADDED.,1789720634,#3,#4,1789720634);
#22=IFCRELAGGREGATES('006kmmSx1DyQEY0U3BKy05',#21,$,$,#6,(#18));
#23=IFCOWNERHISTORY(#3,#4,.READWRITE.,.ADDED.,1789720634,#3,#4,1789720634);
#24=IFCRELAGGREGATES('3gHuuhASrERAm8M2RjJ2yz',#23,$,$,#18,(#20));
#25=IFCCARTESIANPOINT((0.,0.,0.));
#26=IFCDIRECTION((0.,0.,1.));
#27=IFCDIRECTION((1.,0.,0.));
#28=IFCAXIS2PLACEMENT3D(#25,#26,#27);
#29=IFCLOCALPLACEMENT($,#28);
#30=IFCCARTESIANPOINT((0.,0.,0.));
#31=IFCDIRECTION((0.,0.,1.));
#32=IFCDIRECTION((1.,0.,0.));
#33=IFCAXIS2PLACEMENT3D(#30,#31,#32);
#34=IFCLOCALPLACEMENT(#29,#33);
#35=IFCOWNERHISTORY(#3,#4,.READWRITE.,.MODIFIED.,1789720634,#3,#4,1789720634);
#36=IFCBUILDINGSTOREY('13BZPlqLD2SxU6Fh619NVF',#35,'EG',$,$,#43,$,$,$,0.);
#37=IFCOWNERHISTORY(#3,#4,.READWRITE.,.ADDED.,1789720634,#3,#4,1789720634);
#38=IFCRELAGGREGATES('2Gj5x1pdD7_xoHUvRg7zas',#37,$,$,#20,(#36));
#39=IFCCARTESIANPOINT((0.,0.,0.));
#40=IFCDIRECTION((0.,0.,1.));
#41=IFCDIRECTION((1.,0.,0.));
#42=IFCAXIS2PLACEMENT3D(#39,#40,#41);
#43=IFCLOCALPLACEMENT(#34,#42);
#44=IFCOWNERHISTORY(#3,#4,.READWRITE.,.MODIFIED.,1789720634,#3,#4,1789720634);
#45=IFCSLAB('2vcP_yMi555wE62AQgpTkv',#44,'Bodenplatte',$,$,#52,#67,$,.FLOOR.);
#46=IFCOWNERHISTORY(#3,#4,.READWRITE.,.MODIFIED.,1789720634,#3,#4,1789720634);
#47=IFCRELCONTAINEDINSPATIALSTRUCTURE('10u7Ao_8H6FR1hNrl7xjM_',#46,$,$,(#307,#291,#275,#69,#45,#243,#259,#211,#195,#227),#36);
#48=IFCCARTESIANPOINT((0.,0.,-0.29999999999999999));
#49=IFCDIRECTION((0.,0.,1.));
#50=IFCDIRECTION((1.,0.,0.));
#51=IFCAXIS2PLACEMENT3D(#48,#49,#50);
#52=IFCLOCALPLACEMENT(#43,#51);
#53=IFCCARTESIANPOINT((0.,0.,0.));
#54=IFCCARTESIANPOINT((3.2000000000000002,0.,0.));
#55=IFCCARTESIANPOINT((3.2000000000000002,3.5,0.));
#56=IFCCARTESIANPOINT((0.,3.5,0.));
#57=IFCCARTESIANPOINT((0.,0.,0.));
#58=IFCPOLYLINE((#53,#54,#55,#56,#57));
#59=IFCARBITRARYCLOSEDPROFILEDEF(.AREA.,$,#58);
#60=IFCCARTESIANPOINT((0.,0.,0.));
#61=IFCDIRECTION((0.,0.,1.));
#62=IFCDIRECTION((1.,0.,0.));
#63=IFCAXIS2PLACEMENT3D(#60,#61,#62);
#64=IFCDIRECTION((0.,0.,1.));
#65=IFCEXTRUDEDAREASOLID(#59,#63,#64,0.29999999999999999);
#66=IFCSHAPEREPRESENTATION(#16,'Body','SweptSolid',(#65));
#67=IFCPRODUCTDEFINITIONSHAPE($,$,(#66));
#68=IFCOWNERHISTORY(#3,#4,.READWRITE.,.MODIFIED.,1789720634,#3,#4,1789720634);
#69=IFCWALL('1MdNpfBrT4b9Ns8XZZkH6H',#68,'Wand',$,$,#74,#89,$,.PARTITIONING.);
#70=IFCCARTESIANPOINT((0.,0.,0.));
#71=IFCDIRECTION((0.,0.,1.));
#72=IFCDIRECTION((1.,0.,0.));
#73=IFCAXIS2PLACEMENT3D(#70,#71,#72);
#74=IFCLOCALPLACEMENT(#43,#73);
#75=IFCCARTESIANPOINT((0.,0.,0.));
#76=IFCCARTESIANPOINT((3.2000000000000002,0.,0.));
#77=IFCCARTESIANPOINT((3.2000000000000002,0.20000000000000001,0.));
#78=IFCCARTESIANPOINT((0.,0.20000000000000001,0.));
#79=IFCCARTESIANPOINT((0.,0.,0.));
#80=IFCPOLYLINE((#75,#76,#77,#78,#79));
#81=IFCARBITRARYCLOSEDPROFILEDEF(.AREA.,$,#80);
#82=IFCCARTESIANPOINT((0.,0.,0.));
#83=IFCDIRECTION((0.,0.,1.));
#84=IFCDIRECTION((1.,0.,0.));
#85=IFCAXIS2PLACEMENT3D(#82,#83,#84);
#86=IFCDIRECTION((0.,0.,1.));
#87=IFCEXTRUDEDAREASOLID(#81,#85,#86,2.7999999999999998);
#88=IFCSHAPEREPRESENTATION(#16,'Body','SweptSolid',(#87));
#89=IFCPRODUCTDEFINITIONSHAPE($,$,(#88));
#90=IFCCARTESIANPOINT((0.40000000000000013,0.20000000000000001,0.));
#91=IFCCARTESIANPOINT((1.,0.20000000000000001,0.));
#92=IFCCARTESIANPOINT((1.,0.80000000000000004,0.));
#93=IFCCARTESIANPOINT((0.40000000000000013,0.80000000000000004,0.));
#94=IFCCARTESIANPOINT((0.40000000000000013,0.20000000000000001,0.));
#95=IFCPOLYLINE((#90,#91,#92,#93,#94));
#96=IFCARBITRARYCLOSEDPROFILEDEF(.AREA.,$,#95);
#97=IFCCARTESIANPOINT((0.,0.,0.));
#98=IFCDIRECTION((0.,0.,1.));
#99=IFCDIRECTION((1.,0.,0.));
#100=IFCAXIS2PLACEMENT3D(#97,#98,#99);
#101=IFCDIRECTION((0.,0.,1.));
#102=IFCEXTRUDEDAREASOLID(#96,#100,#101,2.2000000000000002);
#103=IFCCARTESIANPOINT((1.,0.20000000000000001,0.));
#104=IFCCARTESIANPOINT((1.6000000000000001,0.20000000000000001,0.));
#105=IFCCARTESIANPOINT((1.6000000000000001,0.80000000000000004,0.));
#106=IFCCARTESIANPOINT((1.,0.80000000000000004,0.));
#107=IFCCARTESIANPOINT((1.,0.20000000000000001,0.));
#108=IFCPOLYLINE((#103,#104,#105,#106,#107));
#109=IFCARBITRARYCLOSEDPROFILEDEF(.AREA.,$,#108);
#110=IFCCARTESIANPOINT((0.,0.,0.));
#111=IFCDIRECTION((0.,0.,1.));
#112=IFCDIRECTION((1.,0.,0.));
#113=IFCAXIS2PLACEMENT3D(#110,#111,#112);
#114=IFCDIRECTION((0.,0.,1.));
#115=IFCEXTRUDEDAREASOLID(#109,#113,#114,0.85999999999999999);
#116=IFCCARTESIANPOINT((1.6000000000000001,0.20000000000000001,0.));
#117=IFCCARTESIANPOINT((2.2000000000000002,0.20000000000000001,0.));
#118=IFCCARTESIANPOINT((2.2000000000000002,0.80000000000000004,0.));
#119=IFCCARTESIANPOINT((1.6000000000000001,0.80000000000000004,0.));
#120=IFCCARTESIANPOINT((1.6000000000000001,0.20000000000000001,0.));
#121=IFCPOLYLINE((#116,#117,#118,#119,#120));
#122=IFCARBITRARYCLOSEDPROFILEDEF(.AREA.,$,#121);
#123=IFCCARTESIANPOINT((0.,0.,0.));
#124=IFCDIRECTION((0.,0.,1.));
#125=IFCDIRECTION((1.,0.,0.));
#126=IFCAXIS2PLACEMENT3D(#123,#124,#125);
#127=IFCDIRECTION((0.,0.,1.));
#128=IFCEXTRUDEDAREASOLID(#122,#126,#127,0.85999999999999999);
#129=IFCCARTESIANPOINT((2.2000000000000002,0.20000000000000001,0.));
#130=IFCCARTESIANPOINT((2.8000000000000003,0.20000000000000001,0.));
#131=IFCCARTESIANPOINT((2.8000000000000003,0.80000000000000004,0.));
#132=IFCCARTESIANPOINT((2.2000000000000002,0.80000000000000004,0.));
#133=IFCCARTESIANPOINT((2.2000000000000002,0.20000000000000001,0.));
#134=IFCPOLYLINE((#129,#130,#131,#132,#133));
#135=IFCARBITRARYCLOSEDPROFILEDEF(.AREA.,$,#134);
#136=IFCCARTESIANPOINT((0.,0.,0.));
#137=IFCDIRECTION((0.,0.,1.));
#138=IFCDIRECTION((1.,0.,0.));
#139=IFCAXIS2PLACEMENT3D(#136,#137,#138);
#140=IFCDIRECTION((0.,0.,1.));
#141=IFCEXTRUDEDAREASOLID(#135,#139,#140,0.85999999999999999);
#142=IFCCARTESIANPOINT((1.,0.20000000000000001,0.));
#143=IFCCARTESIANPOINT((2.7999999999999998,0.20000000000000001,0.));
#144=IFCCARTESIANPOINT((2.7999999999999998,0.80000000000000004,0.));
#145=IFCCARTESIANPOINT((1.,0.80000000000000004,0.));
#146=IFCCARTESIANPOINT((1.,0.20000000000000001,0.));
#147=IFCPOLYLINE((#142,#143,#144,#145,#146));
#148=IFCARBITRARYCLOSEDPROFILEDEF(.AREA.,$,#147);
#149=IFCCARTESIANPOINT((0.,0.,0.85999999999999999));
#150=IFCDIRECTION((0.,0.,1.));
#151=IFCDIRECTION((1.,0.,0.));
#152=IFCAXIS2PLACEMENT3D(#149,#150,#151);
#153=IFCDIRECTION((0.,0.,1.));
#154=IFCEXTRUDEDAREASOLID(#148,#152,#153,0.040000000000000001);
#155=IFCCARTESIANPOINT((1.,0.20000000000000001,0.));
#156=IFCCARTESIANPOINT((1.6000000000000001,0.20000000000000001,0.));
#157=IFCCARTESIANPOINT((1.6000000000000001,0.54800000000000004,0.));
#158=IFCCARTESIANPOINT((1.,0.54800000000000004,0.));
#159=IFCCARTESIANPOINT((1.,0.20000000000000001,0.));
#160=IFCPOLYLINE((#155,#156,#157,#158,#159));
#161=IFCARBITRARYCLOSEDPROFILEDEF(.AREA.,$,#160);
#162=IFCCARTESIANPOINT((0.,0.,1.4199999999999999));
#163=IFCDIRECTION((0.,0.,1.));
#164=IFCDIRECTION((1.,0.,0.));
#165=IFCAXIS2PLACEMENT3D(#162,#163,#164);
#166=IFCDIRECTION((0.,0.,1.));
#167=IFCEXTRUDEDAREASOLID(#161,#165,#166,0.71999999999999997);
#168=IFCCARTESIANPOINT((1.6000000000000001,0.20000000000000001,0.));
#169=IFCCARTESIANPOINT((2.2000000000000002,0.20000000000000001,0.));
#170=IFCCARTESIANPOINT((2.2000000000000002,0.54800000000000004,0.));
#171=IFCCARTESIANPOINT((1.6000000000000001,0.54800000000000004,0.));
#172=IFCCARTESIANPOINT((1.6000000000000001,0.20000000000000001,0.));
#173=IFCPOLYLINE((#168,#169,#170,#171,#172));
#174=IFCARBITRARYCLOSEDPROFILEDEF(.AREA.,$,#173);
#175=IFCCARTESIANPOINT((0.,0.,1.4199999999999999));
#176=IFCDIRECTION((0.,0.,1.));
#177=IFCDIRECTION((1.,0.,0.));
#178=IFCAXIS2PLACEMENT3D(#175,#176,#177);
#179=IFCDIRECTION((0.,0.,1.));
#180=IFCEXTRUDEDAREASOLID(#174,#178,#179,0.71999999999999997);
#181=IFCCARTESIANPOINT((2.2000000000000002,0.20000000000000001,0.));
#182=IFCCARTESIANPOINT((2.8000000000000003,0.20000000000000001,0.));
#183=IFCCARTESIANPOINT((2.8000000000000003,0.54800000000000004,0.));
#184=IFCCARTESIANPOINT((2.2000000000000002,0.54800000000000004,0.));
#185=IFCCARTESIANPOINT((2.2000000000000002,0.20000000000000001,0.));
#186=IFCPOLYLINE((#181,#182,#183,#184,#185));
#187=IFCARBITRARYCLOSEDPROFILEDEF(.AREA.,$,#186);
#188=IFCCARTESIANPOINT((0.,0.,1.4199999999999999));
#189=IFCDIRECTION((0.,0.,1.));
#190=IFCDIRECTION((1.,0.,0.));
#191=IFCAXIS2PLACEMENT3D(#188,#189,#190);
#192=IFCDIRECTION((0.,0.,1.));
#193=IFCEXTRUDEDAREASOLID(#187,#191,#192,0.71999999999999997);
#194=IFCOWNERHISTORY(#3,#4,.READWRITE.,.MODIFIED.,1789720634,#3,#4,1789720634);
#195=IFCFURNITURE('0NWhrjMgf8Lgv5SPV7eVKG',#194,'Hochschrank-01',$,'Einbaum\X2\00F6\X0\bel',#200,#202,$,.USERDEFINED.);
#196=IFCCARTESIANPOINT((0.,0.,0.));
#197=IFCDIRECTION((0.,0.,1.));
#198=IFCDIRECTION((1.,0.,0.));
#199=IFCAXIS2PLACEMENT3D(#196,#197,#198);
#200=IFCLOCALPLACEMENT(#43,#199);
#201=IFCSHAPEREPRESENTATION(#16,'Body','SweptSolid',(#102));
#202=IFCPRODUCTDEFINITIONSHAPE($,$,(#201));
#203=IFCOWNERHISTORY(#3,#4,.READWRITE.,.ADDED.,1789720634,#3,#4,1789720634);
#204=IFCPROPERTYSET('2ducUDJRv86Bz769cxbnHJ',#203,'ePset_Cost',$,(#207,#208,#209));
#205=IFCOWNERHISTORY(#3,#4,.READWRITE.,.ADDED.,1789720634,#3,#4,1789720634);
#206=IFCRELDEFINESBYPROPERTIES('1t43JriUf23ucKYK3DMvOI',#205,$,$,(#195),#204);
#207=IFCPROPERTYSINGLEVALUE('CostInterface',$,IFCLABEL('GAB'),$);
#208=IFCPROPERTYSINGLEVALUE('AwardInterface',$,IFCLABEL('258'),$);
#209=IFCPROPERTYSINGLEVALUE('PlanningInterface',$,IFCLABEL('091'),$);
#210=IFCOWNERHISTORY(#3,#4,.READWRITE.,.MODIFIED.,1789720634,#3,#4,1789720634);
#211=IFCFURNITURE('2hvphxGN19uBgD1LIR30nY',#210,'Unterschrank-Sp\X2\00FC\X0\le',$,'Einbaum\X2\00F6\X0\bel',#216,#218,$,.USERDEFINED.);
#212=IFCCARTESIANPOINT((0.,0.,0.));
#213=IFCDIRECTION((0.,0.,1.));
#214=IFCDIRECTION((1.,0.,0.));
#215=IFCAXIS2PLACEMENT3D(#212,#213,#214);
#216=IFCLOCALPLACEMENT(#43,#215);
#217=IFCSHAPEREPRESENTATION(#16,'Body','SweptSolid',(#115));
#218=IFCPRODUCTDEFINITIONSHAPE($,$,(#217));
#219=IFCOWNERHISTORY(#3,#4,.READWRITE.,.ADDED.,1789720634,#3,#4,1789720634);
#220=IFCPROPERTYSET('2eblQeEeL3ABoko8YTw$mV',#219,'ePset_Cost',$,(#223,#224,#225));
#221=IFCOWNERHISTORY(#3,#4,.READWRITE.,.ADDED.,1789720634,#3,#4,1789720634);
#222=IFCRELDEFINESBYPROPERTIES('1jS6$r1IvBzBZ4DSHGHzLB',#221,$,$,(#211),#220);
#223=IFCPROPERTYSINGLEVALUE('CostInterface',$,IFCLABEL('GAB'),$);
#224=IFCPROPERTYSINGLEVALUE('AwardInterface',$,IFCLABEL('258'),$);
#225=IFCPROPERTYSINGLEVALUE('PlanningInterface',$,IFCLABEL('091'),$);
#226=IFCOWNERHISTORY(#3,#4,.READWRITE.,.MODIFIED.,1789720634,#3,#4,1789720634);
#227=IFCFURNITURE('0zpKcCWz53Fh9xbXQHYRK3',#226,'Unterschrank-Arbeitsfl\X2\00E4\X0\che',$,'Einbaum\X2\00F6\X0\bel',#232,#234,$,.USERDEFINED.);
#228=IFCCARTESIANPOINT((0.,0.,0.));
#229=IFCDIRECTION((0.,0.,1.));
#230=IFCDIRECTION((1.,0.,0.));
#231=IFCAXIS2PLACEMENT3D(#228,#229,#230);
#232=IFCLOCALPLACEMENT(#43,#231);
#233=IFCSHAPEREPRESENTATION(#16,'Body','SweptSolid',(#128));
#234=IFCPRODUCTDEFINITIONSHAPE($,$,(#233));
#235=IFCOWNERHISTORY(#3,#4,.READWRITE.,.ADDED.,1789720634,#3,#4,1789720634);
#236=IFCPROPERTYSET('3hwqyXmBjCrOCXSrAHcqc9',#235,'ePset_Cost',$,(#239,#240,#241));
#237=IFCOWNERHISTORY(#3,#4,.READWRITE.,.ADDED.,1789720634,#3,#4,1789720634);
#238=IFCRELDEFINESBYPROPERTIES('0$oL9bYUP2tQ0Szrd8GS9N',#237,$,$,(#227),#236);
#239=IFCPROPERTYSINGLEVALUE('CostInterface',$,IFCLABEL('GAB'),$);
#240=IFCPROPERTYSINGLEVALUE('AwardInterface',$,IFCLABEL('258'),$);
#241=IFCPROPERTYSINGLEVALUE('PlanningInterface',$,IFCLABEL('091'),$);
#242=IFCOWNERHISTORY(#3,#4,.READWRITE.,.MODIFIED.,1789720634,#3,#4,1789720634);
#243=IFCFURNITURE('0wtlgrGDz8IPUNKozdgkW1',#242,'Unterschrank-Kochfeld',$,'Einbaum\X2\00F6\X0\bel',#248,#250,$,.USERDEFINED.);
#244=IFCCARTESIANPOINT((0.,0.,0.));
#245=IFCDIRECTION((0.,0.,1.));
#246=IFCDIRECTION((1.,0.,0.));
#247=IFCAXIS2PLACEMENT3D(#244,#245,#246);
#248=IFCLOCALPLACEMENT(#43,#247);
#249=IFCSHAPEREPRESENTATION(#16,'Body','SweptSolid',(#141));
#250=IFCPRODUCTDEFINITIONSHAPE($,$,(#249));
#251=IFCOWNERHISTORY(#3,#4,.READWRITE.,.ADDED.,1789720634,#3,#4,1789720634);
#252=IFCPROPERTYSET('2UDFw74eP1H8xFDyJmIrRZ',#251,'ePset_Cost',$,(#255,#256,#257));
#253=IFCOWNERHISTORY(#3,#4,.READWRITE.,.ADDED.,1789720634,#3,#4,1789720634);
#254=IFCRELDEFINESBYPROPERTIES('1qUhHK9XXFuBoYSn0WzSON',#253,$,$,(#243),#252);
#255=IFCPROPERTYSINGLEVALUE('CostInterface',$,IFCLABEL('GAB'),$);
#256=IFCPROPERTYSINGLEVALUE('AwardInterface',$,IFCLABEL('258'),$);
#257=IFCPROPERTYSINGLEVALUE('PlanningInterface',$,IFCLABEL('091'),$);
#258=IFCOWNERHISTORY(#3,#4,.READWRITE.,.MODIFIED.,1789720634,#3,#4,1789720634);
#259=IFCFURNITURE('0RkoBwG2n2xRd57vHYTnGm',#258,'Arbeitsplatte-01',$,'Einbaum\X2\00F6\X0\bel',#264,#266,$,.USERDEFINED.);
#260=IFCCARTESIANPOINT((0.,0.,0.));
#261=IFCDIRECTION((0.,0.,1.));
#262=IFCDIRECTION((1.,0.,0.));
#263=IFCAXIS2PLACEMENT3D(#260,#261,#262);
#264=IFCLOCALPLACEMENT(#43,#263);
#265=IFCSHAPEREPRESENTATION(#16,'Body','SweptSolid',(#154));
#266=IFCPRODUCTDEFINITIONSHAPE($,$,(#265));
#267=IFCOWNERHISTORY(#3,#4,.READWRITE.,.ADDED.,1789720634,#3,#4,1789720634);
#268=IFCPROPERTYSET('3a8Gpp5Tv2YPienbENcBAj',#267,'ePset_Cost',$,(#271,#272,#273));
#269=IFCOWNERHISTORY(#3,#4,.READWRITE.,.ADDED.,1789720634,#3,#4,1789720634);
#270=IFCRELDEFINESBYPROPERTIES('1pL1_8_xjCQA7hoXpEFc0R',#269,$,$,(#259),#268);
#271=IFCPROPERTYSINGLEVALUE('CostInterface',$,IFCLABEL('GAB'),$);
#272=IFCPROPERTYSINGLEVALUE('AwardInterface',$,IFCLABEL('258'),$);
#273=IFCPROPERTYSINGLEVALUE('PlanningInterface',$,IFCLABEL('091'),$);
#274=IFCOWNERHISTORY(#3,#4,.READWRITE.,.MODIFIED.,1789720634,#3,#4,1789720634);
#275=IFCFURNITURE('3uYrZKQsb1Furqt9O1$UNe',#274,'Oberschrank-01',$,'Einbaum\X2\00F6\X0\bel',#280,#282,$,.USERDEFINED.);
#276=IFCCARTESIANPOINT((0.,0.,0.));
#277=IFCDIRECTION((0.,0.,1.));
#278=IFCDIRECTION((1.,0.,0.));
#279=IFCAXIS2PLACEMENT3D(#276,#277,#278);
#280=IFCLOCALPLACEMENT(#43,#279);
#281=IFCSHAPEREPRESENTATION(#16,'Body','SweptSolid',(#167));
#282=IFCPRODUCTDEFINITIONSHAPE($,$,(#281));
#283=IFCOWNERHISTORY(#3,#4,.READWRITE.,.ADDED.,1789720634,#3,#4,1789720634);
#284=IFCPROPERTYSET('2$XwrBUo9BJvjJO_7zcej7',#283,'ePset_Cost',$,(#287,#288,#289));
#285=IFCOWNERHISTORY(#3,#4,.READWRITE.,.ADDED.,1789720634,#3,#4,1789720634);
#286=IFCRELDEFINESBYPROPERTIES('2eDE2aUOnB0R_HAA6Ewk7a',#285,$,$,(#275),#284);
#287=IFCPROPERTYSINGLEVALUE('CostInterface',$,IFCLABEL('GAB'),$);
#288=IFCPROPERTYSINGLEVALUE('AwardInterface',$,IFCLABEL('258'),$);
#289=IFCPROPERTYSINGLEVALUE('PlanningInterface',$,IFCLABEL('091'),$);
#290=IFCOWNERHISTORY(#3,#4,.READWRITE.,.MODIFIED.,1789720634,#3,#4,1789720634);
#291=IFCFURNITURE('3jKm_dX8TDmP6FXZnxqrdg',#290,'Oberschrank-02',$,'Einbaum\X2\00F6\X0\bel',#296,#298,$,.USERDEFINED.);
#292=IFCCARTESIANPOINT((0.,0.,0.));
#293=IFCDIRECTION((0.,0.,1.));
#294=IFCDIRECTION((1.,0.,0.));
#295=IFCAXIS2PLACEMENT3D(#292,#293,#294);
#296=IFCLOCALPLACEMENT(#43,#295);
#297=IFCSHAPEREPRESENTATION(#16,'Body','SweptSolid',(#180));
#298=IFCPRODUCTDEFINITIONSHAPE($,$,(#297));
#299=IFCOWNERHISTORY(#3,#4,.READWRITE.,.ADDED.,1789720634,#3,#4,1789720634);
#300=IFCPROPERTYSET('22L6QG4$nD5u7OOh7VkJDb',#299,'ePset_Cost',$,(#303,#304,#305));
#301=IFCOWNERHISTORY(#3,#4,.READWRITE.,.ADDED.,1789720634,#3,#4,1789720634);
#302=IFCRELDEFINESBYPROPERTIES('1lCNxduMv5KuucOtxdMOaG',#301,$,$,(#291),#300);
#303=IFCPROPERTYSINGLEVALUE('CostInterface',$,IFCLABEL('GAB'),$);
#304=IFCPROPERTYSINGLEVALUE('AwardInterface',$,IFCLABEL('258'),$);
#305=IFCPROPERTYSINGLEVALUE('PlanningInterface',$,IFCLABEL('091'),$);
#306=IFCOWNERHISTORY(#3,#4,.READWRITE.,.MODIFIED.,1789720634,#3,#4,1789720634);
#307=IFCFURNITURE('1yjs5$rsT2I97anlIjdmBR',#306,'Oberschrank-03',$,'Einbaum\X2\00F6\X0\bel',#312,#314,$,.USERDEFINED.);
#308=IFCCARTESIANPOINT((0.,0.,0.));
#309=IFCDIRECTION((0.,0.,1.));
#310=IFCDIRECTION((1.,0.,0.));
#311=IFCAXIS2PLACEMENT3D(#308,#309,#310);
#312=IFCLOCALPLACEMENT(#43,#311);
#313=IFCSHAPEREPRESENTATION(#16,'Body','SweptSolid',(#193));
#314=IFCPRODUCTDEFINITIONSHAPE($,$,(#313));
#315=IFCOWNERHISTORY(#3,#4,.READWRITE.,.ADDED.,1789720634,#3,#4,1789720634);
#316=IFCPROPERTYSET('3_sr5eMh14NOAfUiThw1Ri',#315,'ePset_Cost',$,(#319,#320,#321));
#317=IFCOWNERHISTORY(#3,#4,.READWRITE.,.ADDED.,1789720634,#3,#4,1789720634);
#318=IFCRELDEFINESBYPROPERTIES('1TtAkHPB160u8JwYVQTtyA',#317,$,$,(#307),#316);
#319=IFCPROPERTYSINGLEVALUE('CostInterface',$,IFCLABEL('GAB'),$);
#320=IFCPROPERTYSINGLEVALUE('AwardInterface',$,IFCLABEL('258'),$);
#321=IFCPROPERTYSINGLEVALUE('PlanningInterface',$,IFCLABEL('091'),$);
ENDSEC;
END-ISO-10303-21;
