ISO-10303-21;
HEADER;
FILE_DESCRIPTION(('ViewDefinition[DesignTransferView]'),'2;1');
FILE_NAME('/dev/null','2026-09-15T15:28:17+02:00',(''),(''),'IfcOpenShell 0.8.5','IfcOpenShell 0.8.5','Nobody');
FILE_SCHEMA(('IFC4'));
ENDSEC;
DATA;
#1=IFCPERSON('catalog-pipeline','Pipeline','Catalog',$,$,$,$,$);
#2=IFCORGANIZATION('pragmaticBIM','pragmaticBIM',$,$,$);
#3=IFCPERSONANDORGANIZATION(#1,#2,$);
#4=IFCAPPLICATION(#2,'0.1.0','Catalog IFC Pipeline','catalog-ifc-pipeline');
#5=IFCOWNERHISTORY(#3,#4,.READWRITE.,.ADDED.,1789478897,#3,#4,1789478897);
#6=IFCPROJECT('3DD9yicDz4i9BPbZTmk4fw',#5,'construction-logistics-01',$,$,$,$,(#15),#10);
#7=IFCSIUNIT(*,.LENGTHUNIT.,$,.METRE.);
#8=IFCSIUNIT(*,.AREAUNIT.,$,.SQUARE_METRE.);
#9=IFCSIUNIT(*,.VOLUMEUNIT.,$,.CUBIC_METRE.);
#10=IFCUNITASSIGNMENT((#9,#7,#8));
#11=IFCCARTESIANPOINT((0.,0.,0.));
#12=IFCDIRECTION((0.,0.,1.));
#13=IFCDIRECTION((1.,0.,0.));
#14=IFCAXIS2PLACEMENT3D(#11,#12,#13);
#15=IFCGEOMETRICREPRESENTATIONCONTEXT($,'Model',3,1.0000000000000001E-05,#14,$);
#16=IFCGEOMETRICREPRESENTATIONSUBCONTEXT('Body','Model',*,*,*,*,#15,$,.MODEL_VIEW.,$);
#17=IFCOWNERHISTORY(#3,#4,.READWRITE.,.MODIFIED.,1789478898,#3,#4,1789478897);
#18=IFCSITE('2_Q3otw992Le3r9WJyWglh',#17,'Site',$,$,#62,#68,$,$,$,$,$,$,$);
#19=IFCOWNERHISTORY(#3,#4,.READWRITE.,.MODIFIED.,1789478898,#3,#4,1789478897);
#20=IFCBUILDING('1S6De8tmH97uwI_uos1TDX',#19,'Building',$,$,#67,$,$,$,$,$,$);
#21=IFCOWNERHISTORY(#3,#4,.READWRITE.,.ADDED.,1789478898,#3,#4,1789478898);
#22=IFCRELAGGREGATES('1yX0FIOTP4XeR1R7RRp11z',#21,$,$,#6,(#18));
#23=IFCOWNERHISTORY(#3,#4,.READWRITE.,.ADDED.,1789478898,#3,#4,1789478898);
#24=IFCRELAGGREGATES('1QCNqovEz9zxnY6bpWhdYf',#23,$,$,#18,(#20));
#35=IFCOWNERHISTORY(#3,#4,.READWRITE.,.MODIFIED.,1789478898,#3,#4,1789478898);
#36=IFCBUILDINGSTOREY('0ssZCVtFnBv9coWy5$6AL4',#35,'Level 0',$,$,#43,$,$,$,0.);
#37=IFCOWNERHISTORY(#3,#4,.READWRITE.,.ADDED.,1789478898,#3,#4,1789478898);
#38=IFCRELAGGREGATES('0cdSOmijLAm85gBpvtNwtx',#37,$,$,#20,(#36));
#39=IFCCARTESIANPOINT((0.,0.,0.));
#40=IFCDIRECTION((0.,0.,1.));
#41=IFCDIRECTION((1.,0.,0.));
#42=IFCAXIS2PLACEMENT3D(#39,#40,#41);
#43=IFCLOCALPLACEMENT(#67,#42);
#44=IFCCARTESIANPOINT((-6.,0.,0.));
#45=IFCCARTESIANPOINT((14.,0.,0.));
#46=IFCCARTESIANPOINT((14.,16.,0.));
#47=IFCCARTESIANPOINT((-6.,16.,0.));
#48=IFCCARTESIANPOINT((-6.,0.,0.));
#49=IFCPOLYLINE((#44,#45,#46,#47,#48));
#50=IFCARBITRARYCLOSEDPROFILEDEF(.AREA.,$,#49);
#51=IFCCARTESIANPOINT((0.,0.,0.));
#52=IFCDIRECTION((0.,0.,1.));
#53=IFCDIRECTION((1.,0.,0.));
#54=IFCAXIS2PLACEMENT3D(#51,#52,#53);
#55=IFCDIRECTION((0.,0.,1.));
#56=IFCEXTRUDEDAREASOLID(#50,#54,#55,0.20000000000000001);
#57=IFCSHAPEREPRESENTATION(#16,'Body','SweptSolid',(#56));
#58=IFCCARTESIANPOINT((0.,0.,-0.20000000000000001));
#59=IFCDIRECTION((0.,0.,1.));
#60=IFCDIRECTION((1.,0.,0.));
#61=IFCAXIS2PLACEMENT3D(#58,#59,#60);
#62=IFCLOCALPLACEMENT($,#61);
#63=IFCCARTESIANPOINT((0.,0.,0.20000000000000001));
#64=IFCDIRECTION((0.,0.,1.));
#65=IFCDIRECTION((1.,0.,0.));
#66=IFCAXIS2PLACEMENT3D(#63,#64,#65);
#67=IFCLOCALPLACEMENT(#62,#66);
#68=IFCPRODUCTDEFINITIONSHAPE($,$,(#57));
#69=IFCOWNERHISTORY(#3,#4,.READWRITE.,.MODIFIED.,1789478898,#3,#4,1789478898);
#70=IFCSLAB('3YDzkdPxz4oAVSZh_$V$uO',#69,'Geb\X2\00E4\X0\udevolumen',$,$,#77,#92,$,.FLOOR.);
#71=IFCOWNERHISTORY(#3,#4,.READWRITE.,.MODIFIED.,1789478898,#3,#4,1789478898);
#72=IFCRELCONTAINEDINSPATIALSTRUCTURE('1s$bPYRYf6wR8EcsqzIMYK',#71,$,$,(#182,#204,#94,#116,#138,#160,#70),#18);
#73=IFCCARTESIANPOINT((0.,0.,0.20000000000000001));
#74=IFCDIRECTION((0.,0.,1.));
#75=IFCDIRECTION((1.,0.,0.));
#76=IFCAXIS2PLACEMENT3D(#73,#74,#75);
#77=IFCLOCALPLACEMENT(#62,#76);
#78=IFCCARTESIANPOINT((0.,10.,0.));
#79=IFCCARTESIANPOINT((8.,10.,0.));
#80=IFCCARTESIANPOINT((8.,16.,0.));
#81=IFCCARTESIANPOINT((0.,16.,0.));
#82=IFCCARTESIANPOINT((0.,10.,0.));
#83=IFCPOLYLINE((#78,#79,#80,#81,#82));
#84=IFCARBITRARYCLOSEDPROFILEDEF(.AREA.,$,#83);
#85=IFCCARTESIANPOINT((0.,0.,0.));
#86=IFCDIRECTION((0.,0.,1.));
#87=IFCDIRECTION((1.,0.,0.));
#88=IFCAXIS2PLACEMENT3D(#85,#86,#87);
#89=IFCDIRECTION((0.,0.,1.));
#90=IFCEXTRUDEDAREASOLID(#84,#88,#89,7.);
#91=IFCSHAPEREPRESENTATION(#16,'Body','SweptSolid',(#90));
#92=IFCPRODUCTDEFINITIONSHAPE($,$,(#91));
#93=IFCOWNERHISTORY(#3,#4,.READWRITE.,.MODIFIED.,1789478898,#3,#4,1789478898);
#94=IFCBUILDINGELEMENTPROXY('0ndwwM44f8EOkPzCS67l$Q',#93,'Zaun',$,'Baustelleneinricht',#99,#114,$,.USERDEFINED.);
#95=IFCCARTESIANPOINT((0.,0.,0.20000000000000001));
#96=IFCDIRECTION((0.,0.,1.));
#97=IFCDIRECTION((1.,0.,0.));
#98=IFCAXIS2PLACEMENT3D(#95,#96,#97);
#99=IFCLOCALPLACEMENT(#62,#98);
#100=IFCCARTESIANPOINT((-6.,0.,0.));
#101=IFCCARTESIANPOINT((14.,0.,0.));
#102=IFCCARTESIANPOINT((14.,0.14999999999999999,0.));
#103=IFCCARTESIANPOINT((-6.,0.14999999999999999,0.));
#104=IFCCARTESIANPOINT((-6.,0.,0.));
#105=IFCPOLYLINE((#100,#101,#102,#103,#104));
#106=IFCARBITRARYCLOSEDPROFILEDEF(.AREA.,$,#105);
#107=IFCCARTESIANPOINT((0.,0.,0.));
#108=IFCDIRECTION((0.,0.,1.));
#109=IFCDIRECTION((1.,0.,0.));
#110=IFCAXIS2PLACEMENT3D(#107,#108,#109);
#111=IFCDIRECTION((0.,0.,1.));
#112=IFCEXTRUDEDAREASOLID(#106,#110,#111,2.);
#113=IFCSHAPEREPRESENTATION(#16,'Body','SweptSolid',(#112));
#114=IFCPRODUCTDEFINITIONSHAPE($,$,(#113));
#115=IFCOWNERHISTORY(#3,#4,.READWRITE.,.MODIFIED.,1789478898,#3,#4,1789478898);
#116=IFCBUILDINGELEMENTPROXY('0BVTv6$793C9zNG45J1hRN',#115,'Container',$,'Baustelleneinricht',#121,#136,$,.USERDEFINED.);
#117=IFCCARTESIANPOINT((0.,0.,0.20000000000000001));
#118=IFCDIRECTION((0.,0.,1.));
#119=IFCDIRECTION((1.,0.,0.));
#120=IFCAXIS2PLACEMENT3D(#117,#118,#119);
#121=IFCLOCALPLACEMENT(#62,#120);
#122=IFCCARTESIANPOINT((-5.5,1.5,0.));
#123=IFCCARTESIANPOINT((-3.1000000000000001,1.5,0.));
#124=IFCCARTESIANPOINT((-3.1000000000000001,7.5,0.));
#125=IFCCARTESIANPOINT((-5.5,7.5,0.));
#126=IFCCARTESIANPOINT((-5.5,1.5,0.));
#127=IFCPOLYLINE((#122,#123,#124,#125,#126));
#128=IFCARBITRARYCLOSEDPROFILEDEF(.AREA.,$,#127);
#129=IFCCARTESIANPOINT((0.,0.,0.));
#130=IFCDIRECTION((0.,0.,1.));
#131=IFCDIRECTION((1.,0.,0.));
#132=IFCAXIS2PLACEMENT3D(#129,#130,#131);
#133=IFCDIRECTION((0.,0.,1.));
#134=IFCEXTRUDEDAREASOLID(#128,#132,#133,2.6000000000000001);
#135=IFCSHAPEREPRESENTATION(#16,'Body','SweptSolid',(#134));
#136=IFCPRODUCTDEFINITIONSHAPE($,$,(#135));
#137=IFCOWNERHISTORY(#3,#4,.READWRITE.,.MODIFIED.,1789478898,#3,#4,1789478898);
#138=IFCBUILDINGELEMENTPROXY('2zp8yMcxf48fa9gurXXAxR',#137,'Kranfundament',$,'Baustelleneinricht',#143,#158,$,.USERDEFINED.);
#139=IFCCARTESIANPOINT((0.,0.,0.20000000000000001));
#140=IFCDIRECTION((0.,0.,1.));
#141=IFCDIRECTION((1.,0.,0.));
#142=IFCAXIS2PLACEMENT3D(#139,#140,#141);
#143=IFCLOCALPLACEMENT(#62,#142);
#144=IFCCARTESIANPOINT((8.8000000000000007,2.5,0.));
#145=IFCCARTESIANPOINT((12.800000000000001,2.5,0.));
#146=IFCCARTESIANPOINT((12.800000000000001,6.5,0.));
#147=IFCCARTESIANPOINT((8.8000000000000007,6.5,0.));
#148=IFCCARTESIANPOINT((8.8000000000000007,2.5,0.));
#149=IFCPOLYLINE((#144,#145,#146,#147,#148));
#150=IFCARBITRARYCLOSEDPROFILEDEF(.AREA.,$,#149);
#151=IFCCARTESIANPOINT((0.,0.,0.));
#152=IFCDIRECTION((0.,0.,1.));
#153=IFCDIRECTION((1.,0.,0.));
#154=IFCAXIS2PLACEMENT3D(#151,#152,#153);
#155=IFCDIRECTION((0.,0.,1.));
#156=IFCEXTRUDEDAREASOLID(#150,#154,#155,0.5);
#157=IFCSHAPEREPRESENTATION(#16,'Body','SweptSolid',(#156));
#158=IFCPRODUCTDEFINITIONSHAPE($,$,(#157));
#159=IFCOWNERHISTORY(#3,#4,.READWRITE.,.MODIFIED.,1789478898,#3,#4,1789478898);
#160=IFCBUILDINGELEMENTPROXY('3AtI_oXk11xOYQZcAJTGjR',#159,'Kran',$,'Baustelleneinricht',#165,#180,$,.USERDEFINED.);
#161=IFCCARTESIANPOINT((0.,0.,0.69999999999999996));
#162=IFCDIRECTION((0.,0.,1.));
#163=IFCDIRECTION((1.,0.,0.));
#164=IFCAXIS2PLACEMENT3D(#161,#162,#163);
#165=IFCLOCALPLACEMENT(#62,#164);
#166=IFCCARTESIANPOINT((10.5,4.2000000000000002,0.));
#167=IFCCARTESIANPOINT((11.1,4.2000000000000002,0.));
#168=IFCCARTESIANPOINT((11.1,4.7999999999999998,0.));
#169=IFCCARTESIANPOINT((10.5,4.7999999999999998,0.));
#170=IFCCARTESIANPOINT((10.5,4.2000000000000002,0.));
#171=IFCPOLYLINE((#166,#167,#168,#169,#170));
#172=IFCARBITRARYCLOSEDPROFILEDEF(.AREA.,$,#171);
#173=IFCCARTESIANPOINT((0.,0.,0.));
#174=IFCDIRECTION((0.,0.,1.));
#175=IFCDIRECTION((1.,0.,0.));
#176=IFCAXIS2PLACEMENT3D(#173,#174,#175);
#177=IFCDIRECTION((0.,0.,1.));
#178=IFCEXTRUDEDAREASOLID(#172,#176,#177,12.);
#179=IFCSHAPEREPRESENTATION(#16,'Body','SweptSolid',(#178));
#180=IFCPRODUCTDEFINITIONSHAPE($,$,(#179));
#181=IFCOWNERHISTORY(#3,#4,.READWRITE.,.MODIFIED.,1789478898,#3,#4,1789478898);
#182=IFCBUILDINGELEMENTPROXY('0L3LzNdXX1cv5nr0NRx2sp',#181,'Kran',$,'Baustelleneinricht',#187,#202,$,.USERDEFINED.);
#183=IFCCARTESIANPOINT((0.,0.,12.199999999999999));
#184=IFCDIRECTION((0.,0.,1.));
#185=IFCDIRECTION((1.,0.,0.));
#186=IFCAXIS2PLACEMENT3D(#183,#184,#185);
#187=IFCLOCALPLACEMENT(#62,#186);
#188=IFCCARTESIANPOINT((1.0999999999999996,4.25,0.));
#189=IFCCARTESIANPOINT((11.1,4.25,0.));
#190=IFCCARTESIANPOINT((11.1,4.75,0.));
#191=IFCCARTESIANPOINT((1.0999999999999996,4.75,0.));
#192=IFCCARTESIANPOINT((1.0999999999999996,4.25,0.));
#193=IFCPOLYLINE((#188,#189,#190,#191,#192));
#194=IFCARBITRARYCLOSEDPROFILEDEF(.AREA.,$,#193);
#195=IFCCARTESIANPOINT((0.,0.,0.));
#196=IFCDIRECTION((0.,0.,1.));
#197=IFCDIRECTION((1.,0.,0.));
#198=IFCAXIS2PLACEMENT3D(#195,#196,#197);
#199=IFCDIRECTION((0.,0.,1.));
#200=IFCEXTRUDEDAREASOLID(#194,#198,#199,0.5);
#201=IFCSHAPEREPRESENTATION(#16,'Body','SweptSolid',(#200));
#202=IFCPRODUCTDEFINITIONSHAPE($,$,(#201));
#203=IFCOWNERHISTORY(#3,#4,.READWRITE.,.MODIFIED.,1789478898,#3,#4,1789478898);
#204=IFCBUILDINGELEMENTPROXY('1anAWA6mzDtQNF50dF90vn',#203,'Lagerfl\X2\00E4\X0\che',$,'Baustelleneinricht',#209,#224,$,.USERDEFINED.);
#205=IFCCARTESIANPOINT((0.,0.,0.20000000000000001));
#206=IFCDIRECTION((0.,0.,1.));
#207=IFCDIRECTION((1.,0.,0.));
#208=IFCAXIS2PLACEMENT3D(#205,#206,#207);
#209=IFCLOCALPLACEMENT(#62,#208);
#210=IFCCARTESIANPOINT((-2.1000000000000001,2.,0.));
#211=IFCCARTESIANPOINT((2.8999999999999999,2.,0.));
#212=IFCCARTESIANPOINT((2.8999999999999999,6.,0.));
#213=IFCCARTESIANPOINT((-2.1000000000000001,6.,0.));
#214=IFCCARTESIANPOINT((-2.1000000000000001,2.,0.));
#215=IFCPOLYLINE((#210,#211,#212,#213,#214));
#216=IFCARBITRARYCLOSEDPROFILEDEF(.AREA.,$,#215);
#217=IFCCARTESIANPOINT((0.,0.,0.));
#218=IFCDIRECTION((0.,0.,1.));
#219=IFCDIRECTION((1.,0.,0.));
#220=IFCAXIS2PLACEMENT3D(#217,#218,#219);
#221=IFCDIRECTION((0.,0.,1.));
#222=IFCEXTRUDEDAREASOLID(#216,#220,#221,1.2);
#223=IFCSHAPEREPRESENTATION(#16,'Body','SweptSolid',(#222));
#224=IFCPRODUCTDEFINITIONSHAPE($,$,(#223));
#225=IFCOWNERHISTORY(#3,#4,.READWRITE.,.ADDED.,1789478898,#3,#4,1789478898);
#226=IFCPROPERTYSET('03B6m6x99278aTgY9lxxpR',#225,'ePset_SiteLogistics',$,(#229));
#227=IFCOWNERHISTORY(#3,#4,.READWRITE.,.ADDED.,1789478898,#3,#4,1789478898);
#228=IFCRELDEFINESBYPROPERTIES('3RBb9YimzCNBD8xDnCW1UW',#227,$,$,(#94),#226);
#229=IFCPROPERTYSINGLEVALUE('LogisticsPhase',$,IFCLABEL('1'),$);
#230=IFCOWNERHISTORY(#3,#4,.READWRITE.,.ADDED.,1789478898,#3,#4,1789478898);
#231=IFCELEMENTQUANTITY('0jYj0Qshz8B93kJzLG7IZV',#230,'Qto_BuildingElementProxyBaseQuantities',$,'BaseQuantities',(#234));
#232=IFCOWNERHISTORY(#3,#4,.READWRITE.,.ADDED.,1789478898,#3,#4,1789478898);
#233=IFCRELDEFINESBYPROPERTIES('3Xv$qvnhn9yAiQHOOJHS$a',#232,$,$,(#94),#231);
#234=IFCQUANTITYVOLUME('GrossVolume',$,$,6.,$);
#235=IFCOWNERHISTORY(#3,#4,.READWRITE.,.ADDED.,1789478898,#3,#4,1789478898);
#236=IFCPROPERTYSET('26Q8Wwq056mf2kRFvbeLBk',#235,'ePset_SiteLogistics',$,(#239));
#237=IFCOWNERHISTORY(#3,#4,.READWRITE.,.ADDED.,1789478898,#3,#4,1789478898);
#238=IFCRELDEFINESBYPROPERTIES('1PdNhLRUH0Tw$3YAVkKOMY',#237,$,$,(#116),#236);
#239=IFCPROPERTYSINGLEVALUE('LogisticsPhase',$,IFCLABEL('1'),$);
#240=IFCOWNERHISTORY(#3,#4,.READWRITE.,.ADDED.,1789478898,#3,#4,1789478898);
#241=IFCELEMENTQUANTITY('21ZJqdBgX8cOj4$99ctrRE',#240,'Qto_BuildingElementProxyBaseQuantities',$,'BaseQuantities',(#244));
#242=IFCOWNERHISTORY(#3,#4,.READWRITE.,.ADDED.,1789478898,#3,#4,1789478898);
#243=IFCRELDEFINESBYPROPERTIES('30i_6yTvf8WBaoS1EXfUvV',#242,$,$,(#116),#241);
#244=IFCQUANTITYVOLUME('GrossVolume',$,$,37.439999999999998,$);
#245=IFCOWNERHISTORY(#3,#4,.READWRITE.,.ADDED.,1789478898,#3,#4,1789478898);
#246=IFCPROPERTYSET('0D6PBVox5EfRmSsUEWKqZ0',#245,'ePset_SiteLogistics',$,(#249));
#247=IFCOWNERHISTORY(#3,#4,.READWRITE.,.ADDED.,1789478898,#3,#4,1789478898);
#248=IFCRELDEFINESBYPROPERTIES('2$v0KIBRbCwOCdWBWJgdZN',#247,$,$,(#204),#246);
#249=IFCPROPERTYSINGLEVALUE('LogisticsPhase',$,IFCLABEL('1'),$);
#250=IFCOWNERHISTORY(#3,#4,.READWRITE.,.ADDED.,1789478898,#3,#4,1789478898);
#251=IFCELEMENTQUANTITY('0BmNL8llPEpf8kGzxAujhH',#250,'Qto_BuildingElementProxyBaseQuantities',$,'BaseQuantities',(#254));
#252=IFCOWNERHISTORY(#3,#4,.READWRITE.,.ADDED.,1789478898,#3,#4,1789478898);
#253=IFCRELDEFINESBYPROPERTIES('2ISlbNaT12Xg9C9Bl6C2aL',#252,$,$,(#204),#251);
#254=IFCQUANTITYVOLUME('GrossVolume',$,$,24.,$);
#255=IFCOWNERHISTORY(#3,#4,.READWRITE.,.ADDED.,1789478898,#3,#4,1789478898);
#256=IFCPROPERTYSET('2ZtxCbqRn0nQ$wlNbdp5Un',#255,'ePset_SiteLogistics',$,(#259));
#257=IFCOWNERHISTORY(#3,#4,.READWRITE.,.ADDED.,1789478898,#3,#4,1789478898);
#258=IFCRELDEFINESBYPROPERTIES('1RklKXckD4kB1h68CxDoQJ',#257,$,$,(#138),#256);
#259=IFCPROPERTYSINGLEVALUE('LogisticsPhase',$,IFCLABEL('1'),$);
#260=IFCOWNERHISTORY(#3,#4,.READWRITE.,.ADDED.,1789478898,#3,#4,1789478898);
#261=IFCELEMENTQUANTITY('0YXPoElrT2ehO6CW34Ogj3',#260,'Qto_BuildingElementProxyBaseQuantities',$,'BaseQuantities',(#264));
#262=IFCOWNERHISTORY(#3,#4,.READWRITE.,.ADDED.,1789478898,#3,#4,1789478898);
#263=IFCRELDEFINESBYPROPERTIES('3hh4Aric5EOxUstMAYw79c',#262,$,$,(#138),#261);
#264=IFCQUANTITYVOLUME('GrossVolume',$,$,8.,$);
#265=IFCOWNERHISTORY(#3,#4,.READWRITE.,.ADDED.,1789478898,#3,#4,1789478898);
#266=IFCPROPERTYSET('2HV_TqVT5B88bigYTHbkpe',#265,'ePset_SiteLogistics',$,(#269));
#267=IFCOWNERHISTORY(#3,#4,.READWRITE.,.ADDED.,1789478898,#3,#4,1789478898);
#268=IFCRELDEFINESBYPROPERTIES('3CqJ$lzYDD6e8BZ$gnmHBo',#267,$,$,(#160),#266);
#269=IFCPROPERTYSINGLEVALUE('LogisticsPhase',$,IFCLABEL('1'),$);
#270=IFCOWNERHISTORY(#3,#4,.READWRITE.,.ADDED.,1789478898,#3,#4,1789478898);
#271=IFCELEMENTQUANTITY('1kVrn2ZGf84QUqLMwYx7j8',#270,'Qto_BuildingElementProxyBaseQuantities',$,'BaseQuantities',(#274));
#272=IFCOWNERHISTORY(#3,#4,.READWRITE.,.ADDED.,1789478898,#3,#4,1789478898);
#273=IFCRELDEFINESBYPROPERTIES('0ZhfZ729zE_Ppvni9F5gr6',#272,$,$,(#160),#271);
#274=IFCQUANTITYVOLUME('GrossVolume',$,$,4.3200000000000003,$);
#275=IFCOWNERHISTORY(#3,#4,.READWRITE.,.ADDED.,1789478898,#3,#4,1789478898);
#276=IFCPROPERTYSET('2gGtl$PMDBE8AMiisDq2Sc',#275,'ePset_SiteLogistics',$,(#279));
#277=IFCOWNERHISTORY(#3,#4,.READWRITE.,.ADDED.,1789478898,#3,#4,1789478898);
#278=IFCRELDEFINESBYPROPERTIES('3J7sNOTPr16QF18yMW5bhc',#277,$,$,(#182),#276);
#279=IFCPROPERTYSINGLEVALUE('LogisticsPhase',$,IFCLABEL('1'),$);
#280=IFCOWNERHISTORY(#3,#4,.READWRITE.,.ADDED.,1789478898,#3,#4,1789478898);
#281=IFCELEMENTQUANTITY('1N0Kz_6BnAAPCVQCVWeN6_',#280,'Qto_BuildingElementProxyBaseQuantities',$,'BaseQuantities',(#284));
#282=IFCOWNERHISTORY(#3,#4,.READWRITE.,.ADDED.,1789478898,#3,#4,1789478898);
#283=IFCRELDEFINESBYPROPERTIES('0kUzIAFP9FBgEfVBJDNQwF',#282,$,$,(#182),#281);
#284=IFCQUANTITYVOLUME('GrossVolume',$,$,2.5,$);
ENDSEC;
END-ISO-10303-21;
