ISO-10303-21;
HEADER;
FILE_DESCRIPTION(('ViewDefinition[DesignTransferView]'),'2;1');
FILE_NAME('/dev/null','2026-09-18T12:28:43+02:00',(''),(''),'IfcOpenShell 0.8.5','IfcOpenShell 0.8.5','Nobody');
FILE_SCHEMA(('IFC4'));
ENDSEC;
DATA;
#1=IFCPERSON('catalog-pipeline','Pipeline','Catalog',$,$,$,$,$);
#2=IFCORGANIZATION('pragmaticBIM','pragmaticBIM',$,$,$);
#3=IFCPERSONANDORGANIZATION(#1,#2,$);
#4=IFCAPPLICATION(#2,'0.1.0','Catalog IFC Pipeline','catalog-ifc-pipeline');
#5=IFCOWNERHISTORY(#3,#4,.READWRITE.,.ADDED.,1789727323,#3,#4,1789727323);
#6=IFCPROJECT('29zi8uGK18NwtrTQ1kFV48',#5,'turning-radius-01',$,$,$,$,(#15),#10);
#7=IFCSIUNIT(*,.LENGTHUNIT.,$,.METRE.);
#8=IFCSIUNIT(*,.AREAUNIT.,$,.SQUARE_METRE.);
#9=IFCSIUNIT(*,.VOLUMEUNIT.,$,.CUBIC_METRE.);
#10=IFCUNITASSIGNMENT((#8,#9,#7));
#11=IFCCARTESIANPOINT((0.,0.,0.));
#12=IFCDIRECTION((0.,0.,1.));
#13=IFCDIRECTION((1.,0.,0.));
#14=IFCAXIS2PLACEMENT3D(#11,#12,#13);
#15=IFCGEOMETRICREPRESENTATIONCONTEXT($,'Model',3,1.0000000000000001E-05,#14,$);
#16=IFCGEOMETRICREPRESENTATIONSUBCONTEXT('Body','Model',*,*,*,*,#15,$,.MODEL_VIEW.,$);
#17=IFCOWNERHISTORY(#3,#4,.READWRITE.,.MODIFIED.,1789727323,#3,#4,1789727323);
#18=IFCSITE('0_T3vHI_9AnQQvRp8HvqFt',#17,'Site',$,$,#29,$,$,$,$,$,$,$,$);
#19=IFCOWNERHISTORY(#3,#4,.READWRITE.,.MODIFIED.,1789727323,#3,#4,1789727323);
#20=IFCBUILDING('2RPiSbJM5EvwlHfJ5CzfNn',#19,'Building',$,$,#34,$,$,$,$,$,$);
#21=IFCOWNERHISTORY(#3,#4,.READWRITE.,.ADDED.,1789727323,#3,#4,1789727323);
#22=IFCRELAGGREGATES('0oqzRS3wn7desIIgADk2fy',#21,$,$,#6,(#18));
#23=IFCOWNERHISTORY(#3,#4,.READWRITE.,.ADDED.,1789727323,#3,#4,1789727323);
#24=IFCRELAGGREGATES('1Mn4SZfar0DuGg0URGVjC4',#23,$,$,#18,(#20));
#25=IFCCARTESIANPOINT((0.,0.,0.));
#26=IFCDIRECTION((0.,0.,1.));
#27=IFCDIRECTION((1.,0.,0.));
#28=IFCAXIS2PLACEMENT3D(#25,#26,#27);
#29=IFCLOCALPLACEMENT($,#28);
#30=IFCCARTESIANPOINT((0.,0.,0.));
#31=IFCDIRECTION((0.,0.,1.));
#32=IFCDIRECTION((1.,0.,0.));
#33=IFCAXIS2PLACEMENT3D(#30,#31,#32);
#34=IFCLOCALPLACEMENT(#29,#33);
#35=IFCOWNERHISTORY(#3,#4,.READWRITE.,.MODIFIED.,1789727323,#3,#4,1789727323);
#36=IFCBUILDINGSTOREY('3_dHuFbbT0U9m_l0WcTF1C',#35,'EG',$,$,#43,$,$,$,0.);
#37=IFCOWNERHISTORY(#3,#4,.READWRITE.,.ADDED.,1789727323,#3,#4,1789727323);
#38=IFCRELAGGREGATES('0aKrUp7OHECAl26uYmok0m',#37,$,$,#20,(#36));
#39=IFCCARTESIANPOINT((0.,0.,0.));
#40=IFCDIRECTION((0.,0.,1.));
#41=IFCDIRECTION((1.,0.,0.));
#42=IFCAXIS2PLACEMENT3D(#39,#40,#41);
#43=IFCLOCALPLACEMENT(#34,#42);
#44=IFCOWNERHISTORY(#3,#4,.READWRITE.,.MODIFIED.,1789727323,#3,#4,1789727323);
#45=IFCSLAB('1tVooTZmX9uvma8zbEfVql',#44,'Strasse-Bodenplatte',$,$,#52,#67,$,.FLOOR.);
#46=IFCOWNERHISTORY(#3,#4,.READWRITE.,.MODIFIED.,1789727323,#3,#4,1789727323);
#47=IFCRELCONTAINEDINSPATIALSTRUCTURE('3Gg_RKKV51$Pq7U$M7sq2E',#46,$,$,(#179,#69,#45,#157),#36);
#48=IFCCARTESIANPOINT((0.,0.,-0.29999999999999999));
#49=IFCDIRECTION((0.,0.,1.));
#50=IFCDIRECTION((1.,0.,0.));
#51=IFCAXIS2PLACEMENT3D(#48,#49,#50);
#52=IFCLOCALPLACEMENT(#43,#51);
#53=IFCCARTESIANPOINT((-10.611626970967631,-8.7377121099700243,0.));
#54=IFCCARTESIANPOINT((13.,-8.7377121099700243,0.));
#55=IFCCARTESIANPOINT((13.,12.996852936781332,0.));
#56=IFCCARTESIANPOINT((-10.611626970967631,12.996852936781332,0.));
#57=IFCCARTESIANPOINT((-10.611626970967631,-8.7377121099700243,0.));
#58=IFCPOLYLINE((#53,#54,#55,#56,#57));
#59=IFCARBITRARYCLOSEDPROFILEDEF(.AREA.,$,#58);
#60=IFCCARTESIANPOINT((0.,0.,0.));
#61=IFCDIRECTION((0.,0.,1.));
#62=IFCDIRECTION((1.,0.,0.));
#63=IFCAXIS2PLACEMENT3D(#60,#61,#62);
#64=IFCDIRECTION((0.,0.,1.));
#65=IFCEXTRUDEDAREASOLID(#59,#63,#64,0.29999999999999999);
#66=IFCSHAPEREPRESENTATION(#16,'Body','SweptSolid',(#65));
#67=IFCPRODUCTDEFINITIONSHAPE($,$,(#66));
#68=IFCOWNERHISTORY(#3,#4,.READWRITE.,.MODIFIED.,1789727323,#3,#4,1789727323);
#69=IFCCOVERING('3Jg$5$ydXFCR6P8VsMCQkl',#68,'Fahrbahn',$,$,#74,#155,$,.FLOORING.);
#70=IFCCARTESIANPOINT((0.,0.,0.));
#71=IFCDIRECTION((0.,0.,1.));
#72=IFCDIRECTION((1.,0.,0.));
#73=IFCAXIS2PLACEMENT3D(#70,#71,#72);
#74=IFCLOCALPLACEMENT(#43,#73);
#75=IFCCARTESIANPOINT((9.3000000000000007,-5.,0.));
#76=IFCCARTESIANPOINT((9.3000000000000007,0.,0.));
#77=IFCCARTESIANPOINT((9.2748012471118191,0.68415044147690707,0.));
#78=IFCCARTESIANPOINT((9.1993415426724638,1.3645934124348644,0.));
#79=IFCCARTESIANPOINT((9.0740298093583167,2.0376415334588893,0.));
#80=IFCCARTESIANPOINT((8.8995451223095419,2.6996474984664998,0.));
#81=IFCCARTESIANPOINT((8.6768330291630722,3.3470238397753898,0.));
#82=IFCCARTESIANPOINT((8.4071004260480233,3.9762623689016237,0.));
#83=IFCCARTESIANPOINT((8.091809017311018,4.5839531877369923,0.));
#84=IFCCARTESIANPOINT((7.7326673944136717,5.1668031670823007,0.));
#85=IFCCARTESIANPOINT((7.3316217769274399,5.7216537923998301,0.));
#86=IFCCARTESIANPOINT((6.89084546580112,6.2454982800772711,0.));
#87=IFCCARTESIANPOINT((6.4127270660547229,6.7354978714486426,0.));
#88=IFCCARTESIANPOINT((5.8998575427219038,7.1889972162734548,0.));
#89=IFCCARTESIANPOINT((5.3550161801859621,7.6035387623097295,0.));
#90=IFCCARTESIANPOINT((4.7811555209969621,7.976876073002531,0.));
#91=IFCCARTESIANPOINT((4.1813853657878415,8.3069860011182932,0.));
#92=IFCCARTESIANPOINT((3.5589559209953356,8.5920796523549665,0.));
#93=IFCCARTESIANPOINT((2.9172401857096917,8.830612079515241,0.));
#94=IFCCARTESIANPOINT((2.2597156731003554,9.0212906547092597,0.));
#95=IFCCARTESIANPOINT((1.5899455654708028,9.1630820742171544,0.));
#96=IFCCARTESIANPOINT((0.91155940506491528,9.255217958051432,0.));
#97=IFCCARTESIANPOINT((0.22823342526308407,9.2971990138746996,0.));
#98=IFCCARTESIANPOINT((-0.45632937124498751,9.2887977427081037,0.));
#99=IFCCARTESIANPOINT((-1.1384192793527104,9.2300596717680037,0.));
#100=IFCCARTESIANPOINT((-1.8143399947499923,9.1213031077500428,0.));
#101=IFCCARTESIANPOINT((-2.4804286445165546,8.963117411897592,0.));
#102=IFCCARTESIANPOINT((-3.1330756365476455,8.7563598062020933,0.));
#103=IFCCARTESIANPOINT((-3.768744220246405,8.5021507280428352,0.));
#104=IFCCARTESIANPOINT((-4.3839896524817785,8.2018677584397022,0.));
#105=IFCCARTESIANPOINT((-4.9754778649500029,7.8571381568222778,0.));
#106=IFCCARTESIANPOINT((-5.5400035317796306,7.4698300427699982,0.));
#107=IFCCARTESIANPOINT((-6.0745074394701222,7.042042272510308,0.));
#108=IFCCARTESIANPOINT((-6.5760930650348923,6.5760930650348932,0.));
#109=IFCCARTESIANPOINT((-10.111626970967631,3.0405591591021559,0.));
#110=IFCCARTESIANPOINT((-7.6367532368147133,0.56568542494923824,0.));
#111=IFCCARTESIANPOINT((-4.1012193308819755,4.1012193308819755,0.));
#112=IFCCARTESIANPOINT((-3.7884024891319039,4.3918113097376112,0.));
#113=IFCCARTESIANPOINT((-3.4550559660561135,4.6586036825877404,0.));
#114=IFCCARTESIANPOINT((-3.1029861953451627,4.900150678448302,0.));
#115=IFCCARTESIANPOINT((-2.7341010735907867,5.115143333220459,0.));
#116=IFCCARTESIANPOINT((-2.3503996212289406,5.3024165830804781,0.));
#117=IFCCARTESIANPOINT((-1.9539611496748757,5.4609555780615207,0.));
#118=IFCCARTESIANPOINT((-1.5469339933544102,5.5899011816135511,0.));
#119=IFCCARTESIANPOINT((-1.1315238676935435,5.6885546263387363,0.));
#120=IFCCARTESIANPOINT((-0.7099819161554537,5.7563813006725173,0.));
#121=IFCCARTESIANPOINT((-0.28459251109902445,5.7930136459899995,0.));
#122=IFCCARTESIANPOINT((0.14233912543289112,5.7982531484379844,0.));
#123=IFCCARTESIANPOINT((0.56849941391145242,5.7720714146987415,0.));
#124=IFCCARTESIANPOINT((0.99157895480974656,5.7146103258558592,0.));
#125=IFCCARTESIANPOINT((1.409285043438931,5.626181268528355,0.));
#126=IFCCARTESIANPOINT((1.8193540943135711,5.5072634474396125,0.));
#127=IFCCARTESIANPOINT((2.2195639077175211,5.3585012885654626,0.));
#128=IFCCARTESIANPOINT((2.607745711996718,5.1807009469339889,0.));
#129=IFCCARTESIANPOINT((2.9817959163206855,4.9748259380015778,0.));
#130=IFCCARTESIANPOINT((3.3396875102235022,4.7419919162791855,0.));
#131=IFCCARTESIANPOINT((3.6794810481491438,4.4834606295038748,0.));
#132=IFCCARTESIANPOINT((3.9993351594749886,4.2006330811185082,0.));
#133=IFCCARTESIANPOINT((4.2975165270587627,3.8950419381127062,0.));
#134=IFCCARTESIANPOINT((4.572409280234317,3.5683432253676353,0.));
#135=IFCCARTESIANPOINT((4.8225237513547619,3.2223073515136926,0.));
#136=IFCCARTESIANPOINT((5.0465045484305264,2.8588095149327475,0.));
#137=IFCCARTESIANPOINT((5.243137900115971,2.4798195418956364,0.));
#138=IFCCARTESIANPOINT((5.4113582332414856,2.0873912119029314,0.));
#139=IFCCARTESIANPOINT((5.5502539472468113,1.6836511280758812,0.));
#140=IFCCARTESIANPOINT((5.6590723542234658,1.2707871929098455,0.));
#141=IFCCARTESIANPOINT((5.7372237577957295,0.85103675184109784,0.));
#142=IFCCARTESIANPOINT((5.7842846487364028,0.4266744688780722,0.));
#143=IFCCARTESIANPOINT((5.7999999999999998,0.,0.));
#144=IFCCARTESIANPOINT((5.7999999999999998,-5.,0.));
#145=IFCCARTESIANPOINT((9.3000000000000007,-5.,0.));
#146=IFCPOLYLINE((#75,#76,#77,#78,#79,#80,#81,#82,#83,#84,#85,#86,#87,#88,#89,#90,#91,#92,#93,#94,#95,#96,#97,#98,#99,#100,#101,#102,#103,#104,#105,#106,#107,#108,#109,#110,#111,#112,#113,#114,#115,#116,#117,#118,#119,#120,#121,#122,#123,#124,#125,#126,#127,#128,#129,#130,#131,#132,#133,#134,#135,#136,#137,#138,#139,#140,#141,#142,#143,#144,#145));
#147=IFCARBITRARYCLOSEDPROFILEDEF(.AREA.,$,#146);
#148=IFCCARTESIANPOINT((0.,0.,0.));
#149=IFCDIRECTION((0.,0.,1.));
#150=IFCDIRECTION((1.,0.,0.));
#151=IFCAXIS2PLACEMENT3D(#148,#149,#150);
#152=IFCDIRECTION((0.,0.,1.));
#153=IFCEXTRUDEDAREASOLID(#147,#151,#152,0.10000000000000001);
#154=IFCSHAPEREPRESENTATION(#16,'Body','SweptSolid',(#153));
#155=IFCPRODUCTDEFINITIONSHAPE($,$,(#154));
#156=IFCOWNERHISTORY(#3,#4,.READWRITE.,.MODIFIED.,1789727323,#3,#4,1789727323);
#157=IFCBUILDINGELEMENTPROXY('2H4Ql2zG59BBYdVpVeVWjg',#156,'Gebaeudeecke',$,'Kontext',#162,#177,$,.USERDEFINED.);
#158=IFCCARTESIANPOINT((0.,0.,0.10000000000000001));
#159=IFCDIRECTION((0.,0.,1.));
#160=IFCDIRECTION((1.,0.,0.));
#161=IFCAXIS2PLACEMENT3D(#158,#159,#160);
#162=IFCLOCALPLACEMENT(#43,#161);
#163=IFCCARTESIANPOINT((0.,0.,0.));
#164=IFCCARTESIANPOINT((4.,0.,0.));
#165=IFCCARTESIANPOINT((4.,4.,0.));
#166=IFCCARTESIANPOINT((0.,4.,0.));
#167=IFCCARTESIANPOINT((0.,0.,0.));
#168=IFCPOLYLINE((#163,#164,#165,#166,#167));
#169=IFCARBITRARYCLOSEDPROFILEDEF(.AREA.,$,#168);
#170=IFCCARTESIANPOINT((0.,0.,0.));
#171=IFCDIRECTION((0.,0.,1.));
#172=IFCDIRECTION((1.,0.,0.));
#173=IFCAXIS2PLACEMENT3D(#170,#171,#172);
#174=IFCDIRECTION((0.,0.,1.));
#175=IFCEXTRUDEDAREASOLID(#169,#173,#174,2.7999999999999998);
#176=IFCSHAPEREPRESENTATION(#16,'Body','SweptSolid',(#175));
#177=IFCPRODUCTDEFINITIONSHAPE($,$,(#176));
#178=IFCOWNERHISTORY(#3,#4,.READWRITE.,.MODIFIED.,1789727323,#3,#4,1789727323);
#179=IFCBUILDINGELEMENTPROXY('1cO40ma$DEOeOCpgzbfAV_',#178,'WR-01','LKW-Schleppkurve / Wenderadius als Proxy-Volumen','Wenderadius',#184,#217,$,.USERDEFINED.);
#180=IFCCARTESIANPOINT((0.,0.,0.10000000000000001));
#181=IFCDIRECTION((0.,0.,1.));
#182=IFCDIRECTION((1.,0.,0.));
#183=IFCAXIS2PLACEMENT3D(#180,#181,#182);
#184=IFCLOCALPLACEMENT(#43,#183);
#185=IFCCARTESIANPOINT((-7.606431811047262,7.2057983416302553,0.));
#186=IFCCARTESIANPOINT((-8.8388347648318426,8.8388347648318444,0.));
#187=IFCCARTESIANPOINT((-8.536369775060086,9.1312863860159723,0.));
#188=IFCCARTESIANPOINT((-5.7994848022229251,11.073209834044748,0.));
#189=IFCCARTESIANPOINT((-2.231961184982957,12.299119857482872,0.));
#190=IFCCARTESIANPOINT((0.28047580369756253,12.496852936781332,0.));
#191=IFCCARTESIANPOINT((2.7815116744539305,12.186598902272795,0.));
#192=IFCCARTESIANPOINT((5.5495633003810267,11.200551199609064,0.));
#193=IFCCARTESIANPOINT((7.6834826589559659,9.8597207987611366,0.));
#194=IFCCARTESIANPOINT((10.275025943098875,7.1185561646056481,0.));
#195=IFCCARTESIANPOINT((12.049535758698166,3.3254605695834392,0.));
#196=IFCCARTESIANPOINT((12.492919479169167,0.4206695698474241,0.));
#197=IFCCARTESIANPOINT((12.5,-8.,0.));
#198=IFCCARTESIANPOINT((9.9499999999999993,-8.,0.));
#199=IFCCARTESIANPOINT((9.9499999999999993,-5.2711915008197963,0.));
#200=IFCCARTESIANPOINT((7.5994159334571947,-8.2377121099700243,0.));
#201=IFCCARTESIANPOINT((5.6007840665428024,-6.654054741548971,0.));
#202=IFCCARTESIANPOINT((6.1748254709836843,-3.9103218668533599,0.));
#203=IFCCARTESIANPOINT((5.5018857557926335,-0.7621656838623454,0.));
#204=IFCCARTESIANPOINT((3.7058753207459332,1.9237588876440419,0.));
#205=IFCCARTESIANPOINT((0.95832394194039594,4.67479865438,0.));
#206=IFCCARTESIANPOINT((-0.49358905773020739,5.3783676170093608,0.));
#207=IFCCARTESIANPOINT((-7.606431811047262,7.2057983416302553,0.));
#208=IFCPOLYLINE((#185,#186,#187,#188,#189,#190,#191,#192,#193,#194,#195,#196,#197,#198,#199,#200,#201,#202,#203,#204,#205,#206,#207));
#209=IFCARBITRARYCLOSEDPROFILEDEF(.AREA.,$,#208);
#210=IFCCARTESIANPOINT((0.,0.,0.));
#211=IFCDIRECTION((0.,0.,1.));
#212=IFCDIRECTION((1.,0.,0.));
#213=IFCAXIS2PLACEMENT3D(#210,#211,#212);
#214=IFCDIRECTION((0.,0.,1.));
#215=IFCEXTRUDEDAREASOLID(#209,#213,#214,4.);
#216=IFCSHAPEREPRESENTATION(#16,'Body','SweptSolid',(#215));
#217=IFCPRODUCTDEFINITIONSHAPE($,$,(#216));
#218=IFCOWNERHISTORY(#3,#4,.READWRITE.,.ADDED.,1789727323,#3,#4,1789727323);
#219=IFCELEMENTQUANTITY('16sTTGgLj9mfpSNJxt1usA',#218,'Qto_BuildingElementProxyBaseQuantities',$,'BaseQuantities',(#222));
#220=IFCOWNERHISTORY(#3,#4,.READWRITE.,.ADDED.,1789727323,#3,#4,1789727323);
#221=IFCRELDEFINESBYPROPERTIES('0knkB7C59Eh8Hh44csh0HU',#220,$,$,(#179),#219);
#222=IFCQUANTITYVOLUME('GrossVolume',$,$,794.53300000000002,$);
ENDSEC;
END-ISO-10303-21;
