ISO-10303-21;
HEADER;
FILE_DESCRIPTION(('ViewDefinition[DesignTransferView]'),'2;1');
FILE_NAME('/dev/null','2026-09-22T04:46:11+02:00',(''),(''),'IfcOpenShell 0.8.5','IfcOpenShell 0.8.5','Nobody');
FILE_SCHEMA(('IFC4'));
ENDSEC;
DATA;
#1=IFCPERSON('catalog-pipeline','Pipeline','Catalog',$,$,$,$,$);
#2=IFCORGANIZATION('pragmaticBIM','pragmaticBIM',$,$,$);
#3=IFCPERSONANDORGANIZATION(#1,#2,$);
#4=IFCAPPLICATION(#2,'0.1.0','Catalog IFC Pipeline','catalog-ifc-pipeline');
#5=IFCOWNERHISTORY(#3,#4,.READWRITE.,.ADDED.,1790045171,#3,#4,1790045171);
#6=IFCPROJECT('1rkmNv9QXCtA8MLRro0XlT',#5,'decision-volume-01',$,$,$,$,(#15),#10);
#7=IFCSIUNIT(*,.LENGTHUNIT.,$,.METRE.);
#8=IFCSIUNIT(*,.AREAUNIT.,$,.SQUARE_METRE.);
#9=IFCSIUNIT(*,.VOLUMEUNIT.,$,.CUBIC_METRE.);
#10=IFCUNITASSIGNMENT((#8,#9,#7));
#11=IFCCARTESIANPOINT((0.,0.,0.));
#12=IFCDIRECTION((0.,0.,1.));
#13=IFCDIRECTION((1.,0.,0.));
#14=IFCAXIS2PLACEMENT3D(#11,#12,#13);
#15=IFCGEOMETRICREPRESENTATIONCONTEXT($,'Model',3,1.0000000000000001E-05,#14,$);
#16=IFCGEOMETRICREPRESENTATIONSUBCONTEXT('Body','Model',*,*,*,*,#15,$,.MODEL_VIEW.,$);
#17=IFCOWNERHISTORY(#3,#4,.READWRITE.,.MODIFIED.,1790045171,#3,#4,1790045171);
#18=IFCSITE('13sZxH1cn1zhJaNkEd_vTN',#17,'Site',$,$,#29,$,$,$,$,$,$,$,$);
#19=IFCOWNERHISTORY(#3,#4,.READWRITE.,.MODIFIED.,1790045171,#3,#4,1790045171);
#20=IFCBUILDING('3ZwlfHdJL6j8nC0VlYYFpa',#19,'Building',$,$,#34,$,$,$,$,$,$);
#21=IFCOWNERHISTORY(#3,#4,.READWRITE.,.ADDED.,1790045171,#3,#4,1790045171);
#22=IFCRELAGGREGATES('0ZbOg5xgr8UfJYQTdfXGrF',#21,$,$,#6,(#18));
#23=IFCOWNERHISTORY(#3,#4,.READWRITE.,.ADDED.,1790045171,#3,#4,1790045171);
#24=IFCRELAGGREGATES('36iukkte9AcgaxqFRlHMc9',#23,$,$,#18,(#20));
#25=IFCCARTESIANPOINT((0.,0.,0.));
#26=IFCDIRECTION((0.,0.,1.));
#27=IFCDIRECTION((1.,0.,0.));
#28=IFCAXIS2PLACEMENT3D(#25,#26,#27);
#29=IFCLOCALPLACEMENT($,#28);
#30=IFCCARTESIANPOINT((0.,0.,0.));
#31=IFCDIRECTION((0.,0.,1.));
#32=IFCDIRECTION((1.,0.,0.));
#33=IFCAXIS2PLACEMENT3D(#30,#31,#32);
#34=IFCLOCALPLACEMENT(#29,#33);
#35=IFCOWNERHISTORY(#3,#4,.READWRITE.,.MODIFIED.,1790045171,#3,#4,1790045171);
#36=IFCBUILDINGSTOREY('3fFwMVfTr85OS$er1iDOk8',#35,'EG',$,$,#43,$,$,$,0.);
#37=IFCOWNERHISTORY(#3,#4,.READWRITE.,.ADDED.,1790045171,#3,#4,1790045171);
#38=IFCRELAGGREGATES('3rqpVRujnF4P1AFTaqdpNm',#37,$,$,#20,(#36));
#39=IFCCARTESIANPOINT((0.,0.,0.));
#40=IFCDIRECTION((0.,0.,1.));
#41=IFCDIRECTION((1.,0.,0.));
#42=IFCAXIS2PLACEMENT3D(#39,#40,#41);
#43=IFCLOCALPLACEMENT(#34,#42);
#44=IFCOWNERHISTORY(#3,#4,.READWRITE.,.MODIFIED.,1790045171,#3,#4,1790045171);
#45=IFCSLAB('2aabbthb5AjP8LVyxVhdSN',#44,'Geschossplatte',$,$,#52,#67,$,.FLOOR.);
#46=IFCOWNERHISTORY(#3,#4,.READWRITE.,.MODIFIED.,1790045171,#3,#4,1790045171);
#47=IFCRELCONTAINEDINSPATIALSTRUCTURE('0H$4PqCZL6cfoSooRDPR7I',#46,$,$,(#359,#113,#230,#45,#208,#303,#331,#69,#91,#135,#157,#252),#36);
#48=IFCCARTESIANPOINT((0.,0.,-0.28000000000000003));
#49=IFCDIRECTION((0.,0.,1.));
#50=IFCDIRECTION((1.,0.,0.));
#51=IFCAXIS2PLACEMENT3D(#48,#49,#50);
#52=IFCLOCALPLACEMENT(#43,#51);
#53=IFCCARTESIANPOINT((0.,0.,0.));
#54=IFCCARTESIANPOINT((9.,0.,0.));
#55=IFCCARTESIANPOINT((9.,6.7999999999999998,0.));
#56=IFCCARTESIANPOINT((0.,6.7999999999999998,0.));
#57=IFCCARTESIANPOINT((0.,0.,0.));
#58=IFCPOLYLINE((#53,#54,#55,#56,#57));
#59=IFCARBITRARYCLOSEDPROFILEDEF(.AREA.,$,#58);
#60=IFCCARTESIANPOINT((0.,0.,0.));
#61=IFCDIRECTION((0.,0.,1.));
#62=IFCDIRECTION((1.,0.,0.));
#63=IFCAXIS2PLACEMENT3D(#60,#61,#62);
#64=IFCDIRECTION((0.,0.,1.));
#65=IFCEXTRUDEDAREASOLID(#59,#63,#64,0.28000000000000003);
#66=IFCSHAPEREPRESENTATION(#16,'Body','SweptSolid',(#65));
#67=IFCPRODUCTDEFINITIONSHAPE($,$,(#66));
#68=IFCOWNERHISTORY(#3,#4,.READWRITE.,.MODIFIED.,1790045171,#3,#4,1790045171);
#69=IFCWALL('1k27rJgL58JPAk7zDU_OxC',#68,'Aussenwand-Hinten',$,$,#74,#89,$,.SOLIDWALL.);
#70=IFCCARTESIANPOINT((0.,0.,0.));
#71=IFCDIRECTION((0.,0.,1.));
#72=IFCDIRECTION((1.,0.,0.));
#73=IFCAXIS2PLACEMENT3D(#70,#71,#72);
#74=IFCLOCALPLACEMENT(#43,#73);
#75=IFCCARTESIANPOINT((0.,0.,0.));
#76=IFCCARTESIANPOINT((9.,0.,0.));
#77=IFCCARTESIANPOINT((9.,0.16,0.));
#78=IFCCARTESIANPOINT((0.,0.16,0.));
#79=IFCCARTESIANPOINT((0.,0.,0.));
#80=IFCPOLYLINE((#75,#76,#77,#78,#79));
#81=IFCARBITRARYCLOSEDPROFILEDEF(.AREA.,$,#80);
#82=IFCCARTESIANPOINT((0.,0.,0.));
#83=IFCDIRECTION((0.,0.,1.));
#84=IFCDIRECTION((1.,0.,0.));
#85=IFCAXIS2PLACEMENT3D(#82,#83,#84);
#86=IFCDIRECTION((0.,0.,1.));
#87=IFCEXTRUDEDAREASOLID(#81,#85,#86,2.5);
#88=IFCSHAPEREPRESENTATION(#16,'Body','SweptSolid',(#87));
#89=IFCPRODUCTDEFINITIONSHAPE($,$,(#88));
#90=IFCOWNERHISTORY(#3,#4,.READWRITE.,.MODIFIED.,1790045171,#3,#4,1790045171);
#91=IFCWALL('1gXwgSHKTE9QAG9wwNoYlb',#90,'Aussenwand-Vorne',$,$,#96,#111,$,.SOLIDWALL.);
#92=IFCCARTESIANPOINT((9.,6.7999999999999998,0.));
#93=IFCDIRECTION((0.,0.,1.));
#94=IFCDIRECTION((-1.,0.,0.));
#95=IFCAXIS2PLACEMENT3D(#92,#93,#94);
#96=IFCLOCALPLACEMENT(#43,#95);
#97=IFCCARTESIANPOINT((0.,0.,0.));
#98=IFCCARTESIANPOINT((9.,0.,0.));
#99=IFCCARTESIANPOINT((9.,0.16,0.));
#100=IFCCARTESIANPOINT((0.,0.16,0.));
#101=IFCCARTESIANPOINT((0.,0.,0.));
#102=IFCPOLYLINE((#97,#98,#99,#100,#101));
#103=IFCARBITRARYCLOSEDPROFILEDEF(.AREA.,$,#102);
#104=IFCCARTESIANPOINT((0.,0.,0.));
#105=IFCDIRECTION((0.,0.,1.));
#106=IFCDIRECTION((1.,0.,0.));
#107=IFCAXIS2PLACEMENT3D(#104,#105,#106);
#108=IFCDIRECTION((0.,0.,1.));
#109=IFCEXTRUDEDAREASOLID(#103,#107,#108,2.5);
#110=IFCSHAPEREPRESENTATION(#16,'Body','SweptSolid',(#109));
#111=IFCPRODUCTDEFINITIONSHAPE($,$,(#110));
#112=IFCOWNERHISTORY(#3,#4,.READWRITE.,.MODIFIED.,1790045171,#3,#4,1790045171);
#113=IFCWALL('0tuGFnlWz3bhtopm39bIR0',#112,'Aussenwand-Links',$,$,#118,#133,$,.SOLIDWALL.);
#114=IFCCARTESIANPOINT((0.,6.6399999999999997,0.));
#115=IFCDIRECTION((0.,0.,1.));
#116=IFCDIRECTION((0.,-1.,0.));
#117=IFCAXIS2PLACEMENT3D(#114,#115,#116);
#118=IFCLOCALPLACEMENT(#43,#117);
#119=IFCCARTESIANPOINT((0.,0.,0.));
#120=IFCCARTESIANPOINT((6.4799999999999995,0.,0.));
#121=IFCCARTESIANPOINT((6.4799999999999995,0.16,0.));
#122=IFCCARTESIANPOINT((0.,0.16,0.));
#123=IFCCARTESIANPOINT((0.,0.,0.));
#124=IFCPOLYLINE((#119,#120,#121,#122,#123));
#125=IFCARBITRARYCLOSEDPROFILEDEF(.AREA.,$,#124);
#126=IFCCARTESIANPOINT((0.,0.,0.));
#127=IFCDIRECTION((0.,0.,1.));
#128=IFCDIRECTION((1.,0.,0.));
#129=IFCAXIS2PLACEMENT3D(#126,#127,#128);
#130=IFCDIRECTION((0.,0.,1.));
#131=IFCEXTRUDEDAREASOLID(#125,#129,#130,2.5);
#132=IFCSHAPEREPRESENTATION(#16,'Body','SweptSolid',(#131));
#133=IFCPRODUCTDEFINITIONSHAPE($,$,(#132));
#134=IFCOWNERHISTORY(#3,#4,.READWRITE.,.MODIFIED.,1790045171,#3,#4,1790045171);
#135=IFCWALL('1QUfFQlZ16VAwc_xzQkpba',#134,'Aussenwand-Rechts',$,$,#140,#155,$,.SOLIDWALL.);
#136=IFCCARTESIANPOINT((9.,0.16,0.));
#137=IFCDIRECTION((0.,0.,1.));
#138=IFCDIRECTION((0.,1.,0.));
#139=IFCAXIS2PLACEMENT3D(#136,#137,#138);
#140=IFCLOCALPLACEMENT(#43,#139);
#141=IFCCARTESIANPOINT((0.,0.,0.));
#142=IFCCARTESIANPOINT((6.4799999999999995,0.,0.));
#143=IFCCARTESIANPOINT((6.4799999999999995,0.16,0.));
#144=IFCCARTESIANPOINT((0.,0.16,0.));
#145=IFCCARTESIANPOINT((0.,0.,0.));
#146=IFCPOLYLINE((#141,#142,#143,#144,#145));
#147=IFCARBITRARYCLOSEDPROFILEDEF(.AREA.,$,#146);
#148=IFCCARTESIANPOINT((0.,0.,0.));
#149=IFCDIRECTION((0.,0.,1.));
#150=IFCDIRECTION((1.,0.,0.));
#151=IFCAXIS2PLACEMENT3D(#148,#149,#150);
#152=IFCDIRECTION((0.,0.,1.));
#153=IFCEXTRUDEDAREASOLID(#147,#151,#152,2.5);
#154=IFCSHAPEREPRESENTATION(#16,'Body','SweptSolid',(#153));
#155=IFCPRODUCTDEFINITIONSHAPE($,$,(#154));
#156=IFCOWNERHISTORY(#3,#4,.READWRITE.,.MODIFIED.,1790045171,#3,#4,1790045171);
#157=IFCWALL('27BLsZzmzDa9ha51TKqCkU',#156,'Trennwand-Quer',$,$,#162,#177,$,.PARTITIONING.);
#158=IFCCARTESIANPOINT((0.16,3.2000000000000002,0.));
#159=IFCDIRECTION((0.,0.,1.));
#160=IFCDIRECTION((1.,0.,0.));
#161=IFCAXIS2PLACEMENT3D(#158,#159,#160);
#162=IFCLOCALPLACEMENT(#43,#161);
#163=IFCCARTESIANPOINT((0.,0.,0.));
#164=IFCCARTESIANPOINT((5.04,0.,0.));
#165=IFCCARTESIANPOINT((5.04,0.16,0.));
#166=IFCCARTESIANPOINT((0.,0.16,0.));
#167=IFCCARTESIANPOINT((0.,0.,0.));
#168=IFCPOLYLINE((#163,#164,#165,#166,#167));
#169=IFCARBITRARYCLOSEDPROFILEDEF(.AREA.,$,#168);
#170=IFCCARTESIANPOINT((0.,0.,0.));
#171=IFCDIRECTION((0.,0.,1.));
#172=IFCDIRECTION((1.,0.,0.));
#173=IFCAXIS2PLACEMENT3D(#170,#171,#172);
#174=IFCDIRECTION((0.,0.,1.));
#175=IFCEXTRUDEDAREASOLID(#169,#173,#174,2.5);
#176=IFCSHAPEREPRESENTATION(#16,'Body','SweptSolid',(#175));
#177=IFCPRODUCTDEFINITIONSHAPE($,$,(#176));
#178=IFCOWNERHISTORY(#3,#4,.READWRITE.,.MODIFIED.,1790045171,#3,#4,1790045171);
#179=IFCOPENINGELEMENT('0N7_R7DpnEtubqSBKn6UuR',#178,'Tuer-Schlafzimmer',$,$,#206,#199,$,.OPENING.);
#185=IFCCARTESIANPOINT((2.1168,-0.01,0.));
#186=IFCCARTESIANPOINT((3.0167999999999999,-0.01,0.));
#187=IFCCARTESIANPOINT((3.0167999999999999,0.17999999999999999,0.));
#188=IFCCARTESIANPOINT((2.1168,0.17999999999999999,0.));
#189=IFCCARTESIANPOINT((2.1168,-0.01,0.));
#190=IFCPOLYLINE((#185,#186,#187,#188,#189));
#191=IFCARBITRARYCLOSEDPROFILEDEF(.AREA.,$,#190);
#192=IFCCARTESIANPOINT((0.,0.,0.));
#193=IFCDIRECTION((0.,0.,1.));
#194=IFCDIRECTION((1.,0.,0.));
#195=IFCAXIS2PLACEMENT3D(#192,#193,#194);
#196=IFCDIRECTION((0.,0.,1.));
#197=IFCEXTRUDEDAREASOLID(#191,#195,#196,2.1000000000000001);
#198=IFCSHAPEREPRESENTATION(#16,'Body','SweptSolid',(#197));
#199=IFCPRODUCTDEFINITIONSHAPE($,$,(#198));
#200=IFCOWNERHISTORY(#3,#4,.READWRITE.,.ADDED.,1790045171,#3,#4,1790045171);
#201=IFCRELVOIDSELEMENT('3c$3hW80v7UgBbQHCVqmVM',#200,$,$,#157,#179);
#202=IFCCARTESIANPOINT((0.,0.,0.));
#203=IFCDIRECTION((0.,0.,1.));
#204=IFCDIRECTION((1.,0.,0.));
#205=IFCAXIS2PLACEMENT3D(#202,#203,#204);
#206=IFCLOCALPLACEMENT(#162,#205);
#207=IFCOWNERHISTORY(#3,#4,.READWRITE.,.MODIFIED.,1790045171,#3,#4,1790045171);
#208=IFCWALL('3Y6zk$vV58_QcCXPWnBJtG',#207,'Trennwand-Quer-Rechts',$,$,#213,#228,$,.PARTITIONING.);
#209=IFCCARTESIANPOINT((5.3600000000000003,3.2000000000000002,0.));
#210=IFCDIRECTION((0.,0.,1.));
#211=IFCDIRECTION((1.,0.,0.));
#212=IFCAXIS2PLACEMENT3D(#209,#210,#211);
#213=IFCLOCALPLACEMENT(#43,#212);
#214=IFCCARTESIANPOINT((0.,0.,0.));
#215=IFCCARTESIANPOINT((3.48,0.,0.));
#216=IFCCARTESIANPOINT((3.48,0.16,0.));
#217=IFCCARTESIANPOINT((0.,0.16,0.));
#218=IFCCARTESIANPOINT((0.,0.,0.));
#219=IFCPOLYLINE((#214,#215,#216,#217,#218));
#220=IFCARBITRARYCLOSEDPROFILEDEF(.AREA.,$,#219);
#221=IFCCARTESIANPOINT((0.,0.,0.));
#222=IFCDIRECTION((0.,0.,1.));
#223=IFCDIRECTION((1.,0.,0.));
#224=IFCAXIS2PLACEMENT3D(#221,#222,#223);
#225=IFCDIRECTION((0.,0.,1.));
#226=IFCEXTRUDEDAREASOLID(#220,#224,#225,2.5);
#227=IFCSHAPEREPRESENTATION(#16,'Body','SweptSolid',(#226));
#228=IFCPRODUCTDEFINITIONSHAPE($,$,(#227));
#229=IFCOWNERHISTORY(#3,#4,.READWRITE.,.MODIFIED.,1790045171,#3,#4,1790045171);
#230=IFCWALL('2aABz8v8r2UePeSVzQFwW8',#229,'Trennwand-Laengs',$,$,#235,#250,$,.PARTITIONING.);
#231=IFCCARTESIANPOINT((5.3600000000000003,0.16,0.));
#232=IFCDIRECTION((0.,0.,1.));
#233=IFCDIRECTION((0.,1.,0.));
#234=IFCAXIS2PLACEMENT3D(#231,#232,#233);
#235=IFCLOCALPLACEMENT(#43,#234);
#236=IFCCARTESIANPOINT((0.,0.,0.));
#237=IFCCARTESIANPOINT((3.04,0.,0.));
#238=IFCCARTESIANPOINT((3.04,0.16,0.));
#239=IFCCARTESIANPOINT((0.,0.16,0.));
#240=IFCCARTESIANPOINT((0.,0.,0.));
#241=IFCPOLYLINE((#236,#237,#238,#239,#240));
#242=IFCARBITRARYCLOSEDPROFILEDEF(.AREA.,$,#241);
#243=IFCCARTESIANPOINT((0.,0.,0.));
#244=IFCDIRECTION((0.,0.,1.));
#245=IFCDIRECTION((1.,0.,0.));
#246=IFCAXIS2PLACEMENT3D(#243,#244,#245);
#247=IFCDIRECTION((0.,0.,1.));
#248=IFCEXTRUDEDAREASOLID(#242,#246,#247,2.5);
#249=IFCSHAPEREPRESENTATION(#16,'Body','SweptSolid',(#248));
#250=IFCPRODUCTDEFINITIONSHAPE($,$,(#249));
#251=IFCOWNERHISTORY(#3,#4,.READWRITE.,.MODIFIED.,1790045171,#3,#4,1790045171);
#252=IFCWALL('2fW9$ZjcHFERsN__3zr7zD',#251,'Trennwand-Laengs-Vorne',$,$,#257,#272,$,.PARTITIONING.);
#253=IFCCARTESIANPOINT((5.3600000000000003,3.3600000000000003,0.));
#254=IFCDIRECTION((0.,0.,1.));
#255=IFCDIRECTION((0.,1.,0.));
#256=IFCAXIS2PLACEMENT3D(#253,#254,#255);
#257=IFCLOCALPLACEMENT(#43,#256);
#258=IFCCARTESIANPOINT((0.,0.,0.));
#259=IFCCARTESIANPOINT((3.2799999999999998,0.,0.));
#260=IFCCARTESIANPOINT((3.2799999999999998,0.16,0.));
#261=IFCCARTESIANPOINT((0.,0.16,0.));
#262=IFCCARTESIANPOINT((0.,0.,0.));
#263=IFCPOLYLINE((#258,#259,#260,#261,#262));
#264=IFCARBITRARYCLOSEDPROFILEDEF(.AREA.,$,#263);
#265=IFCCARTESIANPOINT((0.,0.,0.));
#266=IFCDIRECTION((0.,0.,1.));
#267=IFCDIRECTION((1.,0.,0.));
#268=IFCAXIS2PLACEMENT3D(#265,#266,#267);
#269=IFCDIRECTION((0.,0.,1.));
#270=IFCEXTRUDEDAREASOLID(#264,#268,#269,2.5);
#271=IFCSHAPEREPRESENTATION(#16,'Body','SweptSolid',(#270));
#272=IFCPRODUCTDEFINITIONSHAPE($,$,(#271));
#273=IFCOWNERHISTORY(#3,#4,.READWRITE.,.MODIFIED.,1790045171,#3,#4,1790045171);
#274=IFCOPENINGELEMENT('3UL1q7A_9BwA4SfJaOvevn',#273,'Tuer-Kueche',$,$,#301,#294,$,.OPENING.);
#280=IFCCARTESIANPOINT((0.55000000000000004,-0.01,0.));
#281=IFCCARTESIANPOINT((1.4500000000000002,-0.01,0.));
#282=IFCCARTESIANPOINT((1.4500000000000002,0.17999999999999999,0.));
#283=IFCCARTESIANPOINT((0.55000000000000004,0.17999999999999999,0.));
#284=IFCCARTESIANPOINT((0.55000000000000004,-0.01,0.));
#285=IFCPOLYLINE((#280,#281,#282,#283,#284));
#286=IFCARBITRARYCLOSEDPROFILEDEF(.AREA.,$,#285);
#287=IFCCARTESIANPOINT((0.,0.,0.));
#288=IFCDIRECTION((0.,0.,1.));
#289=IFCDIRECTION((1.,0.,0.));
#290=IFCAXIS2PLACEMENT3D(#287,#288,#289);
#291=IFCDIRECTION((0.,0.,1.));
#292=IFCEXTRUDEDAREASOLID(#286,#290,#291,2.1000000000000001);
#293=IFCSHAPEREPRESENTATION(#16,'Body','SweptSolid',(#292));
#294=IFCPRODUCTDEFINITIONSHAPE($,$,(#293));
#295=IFCOWNERHISTORY(#3,#4,.READWRITE.,.ADDED.,1790045171,#3,#4,1790045171);
#296=IFCRELVOIDSELEMENT('0e8TWOewn46fRsnoV0bMPe',#295,$,$,#252,#274);
#297=IFCCARTESIANPOINT((0.,0.,0.));
#298=IFCDIRECTION((0.,0.,1.));
#299=IFCDIRECTION((1.,0.,0.));
#300=IFCAXIS2PLACEMENT3D(#297,#298,#299);
#301=IFCLOCALPLACEMENT(#257,#300);
#302=IFCOWNERHISTORY(#3,#4,.READWRITE.,.MODIFIED.,1790045171,#3,#4,1790045171);
#303=IFCBUILDINGELEMENTPROXY('0mzv4UkTn2NBqDqYiKi0yg',#302,'Wandfarbe','G\X2\00FC\X0\ltigkeitsbereich der Wandfarbe im Wohnen','Entscheidungsk\X2\00F6\X0\rper',#308,#323,$,.USERDEFINED.);
#304=IFCCARTESIANPOINT((0.,0.,0.));
#305=IFCDIRECTION((0.,0.,1.));
#306=IFCDIRECTION((1.,0.,0.));
#307=IFCAXIS2PLACEMENT3D(#304,#305,#306);
#308=IFCLOCALPLACEMENT(#43,#307);
#309=IFCCARTESIANPOINT((0.35999999999999999,3.9100000000000006,0.));
#310=IFCCARTESIANPOINT((5.,3.9100000000000006,0.));
#311=IFCCARTESIANPOINT((5.,6.2899999999999991,0.));
#312=IFCCARTESIANPOINT((0.35999999999999999,6.2899999999999991,0.));
#313=IFCCARTESIANPOINT((0.35999999999999999,3.9100000000000006,0.));
#314=IFCPOLYLINE((#309,#310,#311,#312,#313));
#315=IFCARBITRARYCLOSEDPROFILEDEF(.AREA.,$,#314);
#316=IFCCARTESIANPOINT((0.,0.,0.));
#317=IFCDIRECTION((0.,0.,1.));
#318=IFCDIRECTION((1.,0.,0.));
#319=IFCAXIS2PLACEMENT3D(#316,#317,#318);
#320=IFCDIRECTION((0.,0.,1.));
#321=IFCEXTRUDEDAREASOLID(#315,#319,#320,2.2000000000000002);
#322=IFCSHAPEREPRESENTATION(#16,'Body','SweptSolid',(#321));
#323=IFCPRODUCTDEFINITIONSHAPE($,$,(#322));
#324=IFCOWNERHISTORY(#3,#4,.READWRITE.,.ADDED.,1790045171,#3,#4,1790045171);
#325=IFCPROPERTYSET('1xNiZAriD3jhqSPJYU1Fj$',#324,'ePset_Decision',$,(#328,#329));
#326=IFCOWNERHISTORY(#3,#4,.READWRITE.,.ADDED.,1790045171,#3,#4,1790045171);
#327=IFCRELDEFINESBYPROPERTIES('2lX_PMyDrDig6AJvNqroE_',#326,$,$,(#303),#325);
#328=IFCPROPERTYSINGLEVALUE('DecisionReference',$,IFCIDENTIFIER('E-014'),$);
#329=IFCPROPERTYSINGLEVALUE('DecisionStatus',$,IFCLABEL('OPEN'),$);
#330=IFCOWNERHISTORY(#3,#4,.READWRITE.,.MODIFIED.,1790045171,#3,#4,1790045171);
#331=IFCBUILDINGELEMENTPROXY('047xRN$erApBG6U6dOKtCm',#330,'Bodenbelag','G\X2\00FC\X0\ltigkeitsbereich des Bodenbelags im Schlafen','Entscheidungsk\X2\00F6\X0\rper',#336,#351,$,.USERDEFINED.);
#332=IFCCARTESIANPOINT((0.,0.,0.));
#333=IFCDIRECTION((0.,0.,1.));
#334=IFCDIRECTION((1.,0.,0.));
#335=IFCAXIS2PLACEMENT3D(#332,#333,#334);
#336=IFCLOCALPLACEMENT(#43,#335);
#337=IFCCARTESIANPOINT((0.35999999999999999,0.35999999999999999,0.));
#338=IFCCARTESIANPOINT((5.,0.35999999999999999,0.));
#339=IFCCARTESIANPOINT((5.,3.,0.));
#340=IFCCARTESIANPOINT((0.35999999999999999,3.,0.));
#341=IFCCARTESIANPOINT((0.35999999999999999,0.35999999999999999,0.));
#342=IFCPOLYLINE((#337,#338,#339,#340,#341));
#343=IFCARBITRARYCLOSEDPROFILEDEF(.AREA.,$,#342);
#344=IFCCARTESIANPOINT((0.,0.,0.));
#345=IFCDIRECTION((0.,0.,1.));
#346=IFCDIRECTION((1.,0.,0.));
#347=IFCAXIS2PLACEMENT3D(#344,#345,#346);
#348=IFCDIRECTION((0.,0.,1.));
#349=IFCEXTRUDEDAREASOLID(#343,#347,#348,2.2000000000000002);
#350=IFCSHAPEREPRESENTATION(#16,'Body','SweptSolid',(#349));
#351=IFCPRODUCTDEFINITIONSHAPE($,$,(#350));
#352=IFCOWNERHISTORY(#3,#4,.READWRITE.,.ADDED.,1790045171,#3,#4,1790045171);
#353=IFCPROPERTYSET('2EmD_ERSf7NAYDSm8Ult4d',#352,'ePset_Decision',$,(#356,#357));
#354=IFCOWNERHISTORY(#3,#4,.READWRITE.,.ADDED.,1790045171,#3,#4,1790045171);
#355=IFCRELDEFINESBYPROPERTIES('0x0CfBlX98JvL1x6Q7yRgN',#354,$,$,(#331),#353);
#356=IFCPROPERTYSINGLEVALUE('DecisionReference',$,IFCIDENTIFIER('E-021'),$);
#357=IFCPROPERTYSINGLEVALUE('DecisionStatus',$,IFCLABEL('APPROVED'),$);
#358=IFCOWNERHISTORY(#3,#4,.READWRITE.,.MODIFIED.,1790045171,#3,#4,1790045171);
#359=IFCBUILDINGELEMENTPROXY('1FBJXDOsP8Rv1KwQeg6Sk2',#358,'K\X2\00FC\X0\chenfront','Abgel\X2\00F6\X0\ster Entscheid zur K\X2\00FC\X0\chenfront','Entscheidungsk\X2\00F6\X0\rper',#364,#379,$,.USERDEFINED.);
#360=IFCCARTESIANPOINT((0.,0.,0.));
#361=IFCDIRECTION((0.,0.,1.));
#362=IFCDIRECTION((1.,0.,0.));
#363=IFCAXIS2PLACEMENT3D(#360,#361,#362);
#364=IFCLOCALPLACEMENT(#43,#363);
#365=IFCCARTESIANPOINT((7.0900000000000007,3.8100000000000005,0.));
#366=IFCCARTESIANPOINT((8.6400000000000006,3.8100000000000005,0.));
#367=IFCCARTESIANPOINT((8.6400000000000006,6.2399999999999993,0.));
#368=IFCCARTESIANPOINT((7.0900000000000007,6.2399999999999993,0.));
#369=IFCCARTESIANPOINT((7.0900000000000007,3.8100000000000005,0.));
#370=IFCPOLYLINE((#365,#366,#367,#368,#369));
#371=IFCARBITRARYCLOSEDPROFILEDEF(.AREA.,$,#370);
#372=IFCCARTESIANPOINT((0.,0.,0.));
#373=IFCDIRECTION((0.,0.,1.));
#374=IFCDIRECTION((1.,0.,0.));
#375=IFCAXIS2PLACEMENT3D(#372,#373,#374);
#376=IFCDIRECTION((0.,0.,1.));
#377=IFCEXTRUDEDAREASOLID(#371,#375,#376,2.0499999999999998);
#378=IFCSHAPEREPRESENTATION(#16,'Body','SweptSolid',(#377));
#379=IFCPRODUCTDEFINITIONSHAPE($,$,(#378));
#380=IFCOWNERHISTORY(#3,#4,.READWRITE.,.ADDED.,1790045171,#3,#4,1790045171);
#381=IFCPROPERTYSET('3$HUsWNRT4KQ0Sn8txnIUn',#380,'ePset_Decision',$,(#384,#385));
#382=IFCOWNERHISTORY(#3,#4,.READWRITE.,.ADDED.,1790045171,#3,#4,1790045171);
#383=IFCRELDEFINESBYPROPERTIES('3yFQct4k52APTzS8JkWr8j',#382,$,$,(#359),#381);
#384=IFCPROPERTYSINGLEVALUE('DecisionReference',$,IFCIDENTIFIER('E-008'),$);
#385=IFCPROPERTYSINGLEVALUE('DecisionStatus',$,IFCLABEL('SUPERSEDED'),$);
ENDSEC;
END-ISO-10303-21;
