ISO-10303-21;
HEADER;
FILE_DESCRIPTION(('ViewDefinition[DesignTransferView]'),'2;1');
FILE_NAME('/dev/null','2026-09-29T08:54:46+02:00',(''),(''),'IfcOpenShell 0.8.5','IfcOpenShell 0.8.5','Nobody');
FILE_SCHEMA(('IFC4'));
ENDSEC;
DATA;
#1=IFCPERSON('catalog-pipeline','Pipeline','Catalog',$,$,$,$,$);
#2=IFCORGANIZATION('pragmaticBIM','pragmaticBIM',$,$,$);
#3=IFCPERSONANDORGANIZATION(#1,#2,$);
#4=IFCAPPLICATION(#2,'0.1.0','Catalog IFC Pipeline','catalog-ifc-pipeline');
#5=IFCOWNERHISTORY(#3,#4,.READWRITE.,.ADDED.,1790664886,#3,#4,1790664886);
#6=IFCPROJECT('2l6pB5g5T6T8Fa5EETr5Ai',#5,'Catalog \X2\2014\X0\ 201',$,$,$,$,(#15),#10);
#7=IFCSIUNIT(*,.LENGTHUNIT.,$,.METRE.);
#8=IFCSIUNIT(*,.AREAUNIT.,$,.SQUARE_METRE.);
#9=IFCSIUNIT(*,.VOLUMEUNIT.,$,.CUBIC_METRE.);
#10=IFCUNITASSIGNMENT((#8,#9,#7));
#11=IFCCARTESIANPOINT((0.,0.,0.));
#12=IFCDIRECTION((0.,0.,1.));
#13=IFCDIRECTION((1.,0.,0.));
#14=IFCAXIS2PLACEMENT3D(#11,#12,#13);
#15=IFCGEOMETRICREPRESENTATIONCONTEXT($,'Model',3,1.0000000000000001E-05,#14,$);
#16=IFCGEOMETRICREPRESENTATIONSUBCONTEXT('Body','Model',*,*,*,*,#15,$,.MODEL_VIEW.,$);
#17=IFCOWNERHISTORY(#3,#4,.READWRITE.,.MODIFIED.,1790664886,#3,#4,1790664886);
#18=IFCSITE('087sG0UGv6dO0ee5FWtsgm',#17,'Site',$,$,#29,$,$,$,$,$,$,$,$);
#19=IFCOWNERHISTORY(#3,#4,.READWRITE.,.MODIFIED.,1790664886,#3,#4,1790664886);
#20=IFCBUILDING('0lJHdUSgf30wolzRGn4RaA',#19,'Building',$,$,#34,$,$,$,$,$,$);
#21=IFCOWNERHISTORY(#3,#4,.READWRITE.,.ADDED.,1790664886,#3,#4,1790664886);
#22=IFCRELAGGREGATES('2SDBchDc1Dpgn2sdxQRhYi',#21,$,$,#6,(#18));
#23=IFCOWNERHISTORY(#3,#4,.READWRITE.,.ADDED.,1790664886,#3,#4,1790664886);
#24=IFCRELAGGREGATES('1oZkRuC5b2J95vGbtFihbo',#23,$,$,#18,(#20));
#25=IFCCARTESIANPOINT((0.,0.,0.));
#26=IFCDIRECTION((0.,0.,1.));
#27=IFCDIRECTION((1.,0.,0.));
#28=IFCAXIS2PLACEMENT3D(#25,#26,#27);
#29=IFCLOCALPLACEMENT($,#28);
#30=IFCCARTESIANPOINT((0.,0.,0.));
#31=IFCDIRECTION((0.,0.,1.));
#32=IFCDIRECTION((1.,0.,0.));
#33=IFCAXIS2PLACEMENT3D(#30,#31,#32);
#34=IFCLOCALPLACEMENT(#29,#33);
#35=IFCOWNERHISTORY(#3,#4,.READWRITE.,.MODIFIED.,1790664886,#3,#4,1790664886);
#36=IFCBUILDINGSTOREY('1vYqwemKL7zxLNVAlrYi9R',#35,'Level 0',$,$,#43,$,$,$,0.);
#37=IFCOWNERHISTORY(#3,#4,.READWRITE.,.ADDED.,1790664886,#3,#4,1790664886);
#38=IFCRELAGGREGATES('13T2R0Rr97tR_Uunpy4lMH',#37,$,$,#20,(#36));
#39=IFCCARTESIANPOINT((0.,0.,0.));
#40=IFCDIRECTION((0.,0.,1.));
#41=IFCDIRECTION((1.,0.,0.));
#42=IFCAXIS2PLACEMENT3D(#39,#40,#41);
#43=IFCLOCALPLACEMENT(#34,#42);
#44=IFCOWNERHISTORY(#3,#4,.READWRITE.,.MODIFIED.,1790664886,#3,#4,1790664886);
#45=IFCSLAB('1oKFrY265Ff8VtO8hwFtnN',#44,'201-FloorSlab',$,$,#52,#67,$,.FLOOR.);
#46=IFCOWNERHISTORY(#3,#4,.READWRITE.,.MODIFIED.,1790664886,#3,#4,1790664886);
#47=IFCRELCONTAINEDINSPATIALSTRUCTURE('1gOl2QaBv1$wWaTjOdj2yJ',#46,$,$,(#396,#408,#69,#273,#135,#91,#113,#603,#514,#45),#36);
#48=IFCCARTESIANPOINT((0.,0.,-0.29999999999999999));
#49=IFCDIRECTION((0.,0.,1.));
#50=IFCDIRECTION((1.,0.,0.));
#51=IFCAXIS2PLACEMENT3D(#48,#49,#50);
#52=IFCLOCALPLACEMENT(#43,#51);
#53=IFCCARTESIANPOINT((0.,0.,0.));
#54=IFCCARTESIANPOINT((2.3599999999999999,0.,0.));
#55=IFCCARTESIANPOINT((2.3599999999999999,5.,0.));
#56=IFCCARTESIANPOINT((0.,5.,0.));
#57=IFCCARTESIANPOINT((0.,0.,0.));
#58=IFCPOLYLINE((#53,#54,#55,#56,#57));
#59=IFCARBITRARYCLOSEDPROFILEDEF(.AREA.,$,#58);
#60=IFCCARTESIANPOINT((0.,0.,0.));
#61=IFCDIRECTION((0.,0.,1.));
#62=IFCDIRECTION((1.,0.,0.));
#63=IFCAXIS2PLACEMENT3D(#60,#61,#62);
#64=IFCDIRECTION((0.,0.,1.));
#65=IFCEXTRUDEDAREASOLID(#59,#63,#64,0.29999999999999999);
#66=IFCSHAPEREPRESENTATION(#16,'Body','SweptSolid',(#65));
#67=IFCPRODUCTDEFINITIONSHAPE($,$,(#66));
#68=IFCOWNERHISTORY(#3,#4,.READWRITE.,.MODIFIED.,1790664886,#3,#4,1790664886);
#69=IFCCOVERING('11BWVNl9n4SQYaMSa7lsY4',#68,'201-CeilingCovering',$,$,#74,#89,$,.CEILING.);
#70=IFCCARTESIANPOINT((0.,0.,2.6000000000000001));
#71=IFCDIRECTION((0.,0.,1.));
#72=IFCDIRECTION((1.,0.,0.));
#73=IFCAXIS2PLACEMENT3D(#70,#71,#72);
#74=IFCLOCALPLACEMENT(#43,#73);
#75=IFCCARTESIANPOINT((0.,0.,0.));
#76=IFCCARTESIANPOINT((2.,0.,0.));
#77=IFCCARTESIANPOINT((2.,5.,0.));
#78=IFCCARTESIANPOINT((0.,5.,0.));
#79=IFCCARTESIANPOINT((0.,0.,0.));
#80=IFCPOLYLINE((#75,#76,#77,#78,#79));
#81=IFCARBITRARYCLOSEDPROFILEDEF(.AREA.,$,#80);
#82=IFCCARTESIANPOINT((0.,0.,0.));
#83=IFCDIRECTION((0.,0.,1.));
#84=IFCDIRECTION((1.,0.,0.));
#85=IFCAXIS2PLACEMENT3D(#82,#83,#84);
#86=IFCDIRECTION((0.,0.,1.));
#87=IFCEXTRUDEDAREASOLID(#81,#85,#86,0.10000000000000001);
#88=IFCSHAPEREPRESENTATION(#16,'Body','SweptSolid',(#87));
#89=IFCPRODUCTDEFINITIONSHAPE($,$,(#88));
#90=IFCOWNERHISTORY(#3,#4,.READWRITE.,.MODIFIED.,1790664886,#3,#4,1790664886);
#91=IFCSLAB('2H$Wy_eFL1l9Mcnzqis_fw',#90,'201-CeilingSlab',$,$,#96,#111,$,.FLOOR.);
#92=IFCCARTESIANPOINT((0.,0.,2.7999999999999998));
#93=IFCDIRECTION((0.,0.,1.));
#94=IFCDIRECTION((1.,0.,0.));
#95=IFCAXIS2PLACEMENT3D(#92,#93,#94);
#96=IFCLOCALPLACEMENT(#43,#95);
#97=IFCCARTESIANPOINT((0.,0.,0.));
#98=IFCCARTESIANPOINT((2.3599999999999999,0.,0.));
#99=IFCCARTESIANPOINT((2.3599999999999999,5.,0.));
#100=IFCCARTESIANPOINT((0.,5.,0.));
#101=IFCCARTESIANPOINT((0.,0.,0.));
#102=IFCPOLYLINE((#97,#98,#99,#100,#101));
#103=IFCARBITRARYCLOSEDPROFILEDEF(.AREA.,$,#102);
#104=IFCCARTESIANPOINT((0.,0.,0.));
#105=IFCDIRECTION((0.,0.,1.));
#106=IFCDIRECTION((1.,0.,0.));
#107=IFCAXIS2PLACEMENT3D(#104,#105,#106);
#108=IFCDIRECTION((0.,0.,1.));
#109=IFCEXTRUDEDAREASOLID(#103,#107,#108,0.29999999999999999);
#110=IFCSHAPEREPRESENTATION(#16,'Body','SweptSolid',(#109));
#111=IFCPRODUCTDEFINITIONSHAPE($,$,(#110));
#112=IFCOWNERHISTORY(#3,#4,.READWRITE.,.MODIFIED.,1790664886,#3,#4,1790664886);
#113=IFCWALL('0TUawSARLEDhShFhvHRHld',#112,'201-ExteriorWall',$,$,#118,#133,$,.SOLIDWALL.);
#114=IFCCARTESIANPOINT((2.3599999999999999,0.,0.));
#115=IFCDIRECTION((0.,0.,1.));
#116=IFCDIRECTION((0.,1.,0.));
#117=IFCAXIS2PLACEMENT3D(#114,#115,#116);
#118=IFCLOCALPLACEMENT(#43,#117);
#119=IFCCARTESIANPOINT((0.,0.,0.));
#120=IFCCARTESIANPOINT((5.,0.,0.));
#121=IFCCARTESIANPOINT((5.,0.35999999999999999,0.));
#122=IFCCARTESIANPOINT((0.,0.35999999999999999,0.));
#123=IFCCARTESIANPOINT((0.,0.,0.));
#124=IFCPOLYLINE((#119,#120,#121,#122,#123));
#125=IFCARBITRARYCLOSEDPROFILEDEF(.AREA.,$,#124);
#126=IFCCARTESIANPOINT((0.,0.,0.));
#127=IFCDIRECTION((0.,0.,1.));
#128=IFCDIRECTION((1.,0.,0.));
#129=IFCAXIS2PLACEMENT3D(#126,#127,#128);
#130=IFCDIRECTION((0.,0.,1.));
#131=IFCEXTRUDEDAREASOLID(#125,#129,#130,2.7999999999999998);
#132=IFCSHAPEREPRESENTATION(#16,'Body','SweptSolid',(#131));
#133=IFCPRODUCTDEFINITIONSHAPE($,$,(#132));
#134=IFCOWNERHISTORY(#3,#4,.READWRITE.,.MODIFIED.,1790664886,#3,#4,1790664886);
#135=IFCCOVERING('2yW7yMvKz8Quxv2H4q2s3N',#134,'201-Cladding',$,$,#140,#155,$,.CLADDING.);
#136=IFCCARTESIANPOINT((2.4199999999999995,0.,-0.29999999999999999));
#137=IFCDIRECTION((0.,0.,1.));
#138=IFCDIRECTION((0.,1.,0.));
#139=IFCAXIS2PLACEMENT3D(#136,#137,#138);
#140=IFCLOCALPLACEMENT(#43,#139);
#141=IFCCARTESIANPOINT((0.,0.,0.));
#142=IFCCARTESIANPOINT((5.,0.,0.));
#143=IFCCARTESIANPOINT((5.,0.050000000000000003,0.));
#144=IFCCARTESIANPOINT((0.,0.050000000000000003,0.));
#145=IFCCARTESIANPOINT((0.,0.,0.));
#146=IFCPOLYLINE((#141,#142,#143,#144,#145));
#147=IFCARBITRARYCLOSEDPROFILEDEF(.AREA.,$,#146);
#148=IFCCARTESIANPOINT((0.,0.,0.));
#149=IFCDIRECTION((0.,0.,1.));
#150=IFCDIRECTION((1.,0.,0.));
#151=IFCAXIS2PLACEMENT3D(#148,#149,#150);
#152=IFCDIRECTION((0.,0.,1.));
#153=IFCEXTRUDEDAREASOLID(#147,#151,#152,3.3999999999999999);
#154=IFCSHAPEREPRESENTATION(#16,'Body','SweptSolid',(#153));
#155=IFCPRODUCTDEFINITIONSHAPE($,$,(#154));
#156=IFCOWNERHISTORY(#3,#4,.READWRITE.,.MODIFIED.,1790664886,#3,#4,1790664886);
#157=IFCOPENINGELEMENT('1GwXhNTyD3YgIEQIWa1nMW',#156,'201-DoorOpening',$,$,#184,#177,$,.OPENING.);
#163=IFCCARTESIANPOINT((3.6999999999999997,-0.01,0.));
#164=IFCCARTESIANPOINT((4.5999999999999996,-0.01,0.));
#165=IFCCARTESIANPOINT((4.5999999999999996,0.38,0.));
#166=IFCCARTESIANPOINT((3.6999999999999997,0.38,0.));
#167=IFCCARTESIANPOINT((3.6999999999999997,-0.01,0.));
#168=IFCPOLYLINE((#163,#164,#165,#166,#167));
#169=IFCARBITRARYCLOSEDPROFILEDEF(.AREA.,$,#168);
#170=IFCCARTESIANPOINT((0.,0.,0.));
#171=IFCDIRECTION((0.,0.,1.));
#172=IFCDIRECTION((1.,0.,0.));
#173=IFCAXIS2PLACEMENT3D(#170,#171,#172);
#174=IFCDIRECTION((0.,0.,1.));
#175=IFCEXTRUDEDAREASOLID(#169,#173,#174,2.1000000000000001);
#176=IFCSHAPEREPRESENTATION(#16,'Body','SweptSolid',(#175));
#177=IFCPRODUCTDEFINITIONSHAPE($,$,(#176));
#178=IFCOWNERHISTORY(#3,#4,.READWRITE.,.ADDED.,1790664886,#3,#4,1790664886);
#179=IFCRELVOIDSELEMENT('1jKBLNZMXFUPie$8zcg4aI',#178,$,$,#113,#157);
#180=IFCCARTESIANPOINT((0.,0.,0.));
#181=IFCDIRECTION((0.,0.,1.));
#182=IFCDIRECTION((1.,0.,0.));
#183=IFCAXIS2PLACEMENT3D(#180,#181,#182);
#184=IFCLOCALPLACEMENT(#118,#183);
#185=IFCOWNERHISTORY(#3,#4,.READWRITE.,.MODIFIED.,1790664886,#3,#4,1790664886);
#186=IFCOPENINGELEMENT('0lQolotOTEohzavN$vIEvC',#185,'201-WindowOpening',$,$,#213,#206,$,.OPENING.);
#192=IFCCARTESIANPOINT((0.40000000000000002,-0.01,0.));
#193=IFCCARTESIANPOINT((1.6000000000000001,-0.01,0.));
#194=IFCCARTESIANPOINT((1.6000000000000001,0.38,0.));
#195=IFCCARTESIANPOINT((0.40000000000000002,0.38,0.));
#196=IFCCARTESIANPOINT((0.40000000000000002,-0.01,0.));
#197=IFCPOLYLINE((#192,#193,#194,#195,#196));
#198=IFCARBITRARYCLOSEDPROFILEDEF(.AREA.,$,#197);
#199=IFCCARTESIANPOINT((0.,0.,0.90000000000000002));
#200=IFCDIRECTION((0.,0.,1.));
#201=IFCDIRECTION((1.,0.,0.));
#202=IFCAXIS2PLACEMENT3D(#199,#200,#201);
#203=IFCDIRECTION((0.,0.,1.));
#204=IFCEXTRUDEDAREASOLID(#198,#202,#203,1.3999999999999999);
#205=IFCSHAPEREPRESENTATION(#16,'Body','SweptSolid',(#204));
#206=IFCPRODUCTDEFINITIONSHAPE($,$,(#205));
#207=IFCOWNERHISTORY(#3,#4,.READWRITE.,.ADDED.,1790664886,#3,#4,1790664886);
#208=IFCRELVOIDSELEMENT('1pZLuUFErDAwUgIdiQO8wn',#207,$,$,#113,#186);
#209=IFCCARTESIANPOINT((0.,0.,0.));
#210=IFCDIRECTION((0.,0.,1.));
#211=IFCDIRECTION((1.,0.,0.));
#212=IFCAXIS2PLACEMENT3D(#209,#210,#211);
#213=IFCLOCALPLACEMENT(#118,#212);
#214=IFCOWNERHISTORY(#3,#4,.READWRITE.,.MODIFIED.,1790664886,#3,#4,1790664886);
#215=IFCOPENINGELEMENT('09Xjgs2pvCSOsSLJOt4Fk_',#214,'201-DoorOpening-Cladding',$,$,#242,#235,$,.OPENING.);
#221=IFCCARTESIANPOINT((3.6999999999999997,-0.01,0.));
#222=IFCCARTESIANPOINT((4.5999999999999996,-0.01,0.));
#223=IFCCARTESIANPOINT((4.5999999999999996,0.070000000000000007,0.));
#224=IFCCARTESIANPOINT((3.6999999999999997,0.070000000000000007,0.));
#225=IFCCARTESIANPOINT((3.6999999999999997,-0.01,0.));
#226=IFCPOLYLINE((#221,#222,#223,#224,#225));
#227=IFCARBITRARYCLOSEDPROFILEDEF(.AREA.,$,#226);
#228=IFCCARTESIANPOINT((0.,0.,0.29999999999999999));
#229=IFCDIRECTION((0.,0.,1.));
#230=IFCDIRECTION((1.,0.,0.));
#231=IFCAXIS2PLACEMENT3D(#228,#229,#230);
#232=IFCDIRECTION((0.,0.,1.));
#233=IFCEXTRUDEDAREASOLID(#227,#231,#232,2.1000000000000001);
#234=IFCSHAPEREPRESENTATION(#16,'Body','SweptSolid',(#233));
#235=IFCPRODUCTDEFINITIONSHAPE($,$,(#234));
#236=IFCOWNERHISTORY(#3,#4,.READWRITE.,.ADDED.,1790664886,#3,#4,1790664886);
#237=IFCRELVOIDSELEMENT('1KOtC7$Hj6$A5ir6rmFcRI',#236,$,$,#135,#215);
#238=IFCCARTESIANPOINT((0.,0.,0.));
#239=IFCDIRECTION((0.,0.,1.));
#240=IFCDIRECTION((1.,0.,0.));
#241=IFCAXIS2PLACEMENT3D(#238,#239,#240);
#242=IFCLOCALPLACEMENT(#140,#241);
#243=IFCOWNERHISTORY(#3,#4,.READWRITE.,.MODIFIED.,1790664886,#3,#4,1790664886);
#244=IFCOPENINGELEMENT('1reeUOR5D5BejrGwTHuHFa',#243,'201-WindowOpening-Cladding',$,$,#271,#264,$,.OPENING.);
#250=IFCCARTESIANPOINT((0.40000000000000002,-0.01,0.));
#251=IFCCARTESIANPOINT((1.6000000000000001,-0.01,0.));
#252=IFCCARTESIANPOINT((1.6000000000000001,0.070000000000000007,0.));
#253=IFCCARTESIANPOINT((0.40000000000000002,0.070000000000000007,0.));
#254=IFCCARTESIANPOINT((0.40000000000000002,-0.01,0.));
#255=IFCPOLYLINE((#250,#251,#252,#253,#254));
#256=IFCARBITRARYCLOSEDPROFILEDEF(.AREA.,$,#255);
#257=IFCCARTESIANPOINT((0.,0.,1.2));
#258=IFCDIRECTION((0.,0.,1.));
#259=IFCDIRECTION((1.,0.,0.));
#260=IFCAXIS2PLACEMENT3D(#257,#258,#259);
#261=IFCDIRECTION((0.,0.,1.));
#262=IFCEXTRUDEDAREASOLID(#256,#260,#261,1.3999999999999999);
#263=IFCSHAPEREPRESENTATION(#16,'Body','SweptSolid',(#262));
#264=IFCPRODUCTDEFINITIONSHAPE($,$,(#263));
#265=IFCOWNERHISTORY(#3,#4,.READWRITE.,.ADDED.,1790664886,#3,#4,1790664886);
#266=IFCRELVOIDSELEMENT('3M82_hxrP95gZOi5pFlSm4',#265,$,$,#135,#244);
#267=IFCCARTESIANPOINT((0.,0.,0.));
#268=IFCDIRECTION((0.,0.,1.));
#269=IFCDIRECTION((1.,0.,0.));
#270=IFCAXIS2PLACEMENT3D(#267,#268,#269);
#271=IFCLOCALPLACEMENT(#140,#270);
#272=IFCOWNERHISTORY(#3,#4,.READWRITE.,.MODIFIED.,1790664886,#3,#4,1790664886);
#273=IFCDOOR('1n0hYS47rEgRP3SaKuA$04',#272,'201-Door',$,$,#278,#385,$,$,$,.DOOR.,$,$);
#274=IFCCARTESIANPOINT((2.3599999999999999,0.,0.));
#275=IFCDIRECTION((0.,0.,1.));
#276=IFCDIRECTION((0.,1.,0.));
#277=IFCAXIS2PLACEMENT3D(#274,#275,#276);
#278=IFCLOCALPLACEMENT(#43,#277);
#279=IFCCARTESIANPOINT((3.6999999999999997,-0.,0.));
#280=IFCCARTESIANPOINT((3.7999999999999998,-0.,0.));
#281=IFCCARTESIANPOINT((3.7999999999999998,0.19800000000000001,0.));
#282=IFCCARTESIANPOINT((3.6999999999999997,0.19800000000000001,0.));
#283=IFCCARTESIANPOINT((3.6999999999999997,-0.,0.));
#284=IFCPOLYLINE((#279,#280,#281,#282,#283));
#285=IFCARBITRARYCLOSEDPROFILEDEF(.AREA.,$,#284);
#286=IFCCARTESIANPOINT((0.,0.,0.));
#287=IFCDIRECTION((0.,0.,1.));
#288=IFCDIRECTION((1.,0.,0.));
#289=IFCAXIS2PLACEMENT3D(#286,#287,#288);
#290=IFCDIRECTION((0.,0.,1.));
#291=IFCEXTRUDEDAREASOLID(#285,#289,#290,2.1000000000000001);
#292=IFCCARTESIANPOINT((4.5,-0.,0.));
#293=IFCCARTESIANPOINT((4.5999999999999996,-0.,0.));
#294=IFCCARTESIANPOINT((4.5999999999999996,0.19800000000000001,0.));
#295=IFCCARTESIANPOINT((4.5,0.19800000000000001,0.));
#296=IFCCARTESIANPOINT((4.5,-0.,0.));
#297=IFCPOLYLINE((#292,#293,#294,#295,#296));
#298=IFCARBITRARYCLOSEDPROFILEDEF(.AREA.,$,#297);
#299=IFCCARTESIANPOINT((0.,0.,0.));
#300=IFCDIRECTION((0.,0.,1.));
#301=IFCDIRECTION((1.,0.,0.));
#302=IFCAXIS2PLACEMENT3D(#299,#300,#301);
#303=IFCDIRECTION((0.,0.,1.));
#304=IFCEXTRUDEDAREASOLID(#298,#302,#303,2.1000000000000001);
#305=IFCCARTESIANPOINT((3.7999999999999998,-0.,0.));
#306=IFCCARTESIANPOINT((4.5,-0.,0.));
#307=IFCCARTESIANPOINT((4.5,0.19800000000000001,0.));
#308=IFCCARTESIANPOINT((3.7999999999999998,0.19800000000000001,0.));
#309=IFCCARTESIANPOINT((3.7999999999999998,-0.,0.));
#310=IFCPOLYLINE((#305,#306,#307,#308,#309));
#311=IFCARBITRARYCLOSEDPROFILEDEF(.AREA.,$,#310);
#312=IFCCARTESIANPOINT((0.,0.,2.));
#313=IFCDIRECTION((0.,0.,1.));
#314=IFCDIRECTION((1.,0.,0.));
#315=IFCAXIS2PLACEMENT3D(#312,#313,#314);
#316=IFCDIRECTION((0.,0.,1.));
#317=IFCEXTRUDEDAREASOLID(#311,#315,#316,0.10000000000000009);
#318=IFCCARTESIANPOINT((3.7999999999999998,-0.,0.));
#319=IFCCARTESIANPOINT((4.5,-0.,0.));
#320=IFCCARTESIANPOINT((4.5,0.19800000000000001,0.));
#321=IFCCARTESIANPOINT((3.7999999999999998,0.19800000000000001,0.));
#322=IFCCARTESIANPOINT((3.7999999999999998,-0.,0.));
#323=IFCPOLYLINE((#318,#319,#320,#321,#322));
#324=IFCARBITRARYCLOSEDPROFILEDEF(.AREA.,$,#323);
#325=IFCCARTESIANPOINT((0.,0.,0.));
#326=IFCDIRECTION((0.,0.,1.));
#327=IFCDIRECTION((1.,0.,0.));
#328=IFCAXIS2PLACEMENT3D(#325,#326,#327);
#329=IFCDIRECTION((0.,0.,1.));
#330=IFCEXTRUDEDAREASOLID(#324,#328,#329,0.025000000000000001);
#331=IFCCARTESIANPOINT((3.7999999999999998,-0.,0.));
#332=IFCCARTESIANPOINT((4.5,-0.,0.));
#333=IFCCARTESIANPOINT((4.5,0.19800000000000001,0.));
#334=IFCCARTESIANPOINT((3.7999999999999998,0.19800000000000001,0.));
#335=IFCCARTESIANPOINT((3.7999999999999998,-0.,0.));
#336=IFCPOLYLINE((#331,#332,#333,#334,#335));
#337=IFCARBITRARYCLOSEDPROFILEDEF(.AREA.,$,#336);
#338=IFCCARTESIANPOINT((0.,0.,1.0662500000000001));
#339=IFCDIRECTION((0.,0.,1.));
#340=IFCDIRECTION((1.,0.,0.));
#341=IFCAXIS2PLACEMENT3D(#338,#339,#340);
#342=IFCDIRECTION((0.,0.,1.));
#343=IFCEXTRUDEDAREASOLID(#337,#341,#342,0.089999999999999858);
#344=IFCCARTESIANPOINT((3.7999999999999998,0.014999999999999999,0.));
#345=IFCCARTESIANPOINT((4.5,0.014999999999999999,0.));
#346=IFCCARTESIANPOINT((4.5,0.055,0.));
#347=IFCCARTESIANPOINT((3.7999999999999998,0.055,0.));
#348=IFCCARTESIANPOINT((3.7999999999999998,0.014999999999999999,0.));
#349=IFCPOLYLINE((#344,#345,#346,#347,#348));
#350=IFCARBITRARYCLOSEDPROFILEDEF(.AREA.,$,#349);
#351=IFCCARTESIANPOINT((0.,0.,0.025000000000000001));
#352=IFCDIRECTION((0.,0.,1.));
#353=IFCDIRECTION((1.,0.,0.));
#354=IFCAXIS2PLACEMENT3D(#351,#352,#353);
#355=IFCDIRECTION((0.,0.,1.));
#356=IFCEXTRUDEDAREASOLID(#350,#354,#355,1.0412500000000002);
#357=IFCCARTESIANPOINT((3.7999999999999998,0.014999999999999999,0.));
#358=IFCCARTESIANPOINT((4.5,0.014999999999999999,0.));
#359=IFCCARTESIANPOINT((4.5,0.055,0.));
#360=IFCCARTESIANPOINT((3.7999999999999998,0.055,0.));
#361=IFCCARTESIANPOINT((3.7999999999999998,0.014999999999999999,0.));
#362=IFCPOLYLINE((#357,#358,#359,#360,#361));
#363=IFCARBITRARYCLOSEDPROFILEDEF(.AREA.,$,#362);
#364=IFCCARTESIANPOINT((0.,0.,1.15625));
#365=IFCDIRECTION((0.,0.,1.));
#366=IFCDIRECTION((1.,0.,0.));
#367=IFCAXIS2PLACEMENT3D(#364,#365,#366);
#368=IFCDIRECTION((0.,0.,1.));
#369=IFCEXTRUDEDAREASOLID(#363,#367,#368,0.84375);
#370=IFCSURFACESTYLE('Frame',.BOTH.,(#371));
#371=IFCSURFACESTYLESHADING(#372,0.);
#372=IFCCOLOURRGB($,1.,1.,1.);
#373=IFCSURFACESTYLE('Glass',.BOTH.,(#374));
#374=IFCSURFACESTYLESHADING(#375,0.69999999999999996);
#375=IFCCOLOURRGB($,0.69999999999999996,0.84999999999999998,0.94999999999999996);
#376=IFCMATERIAL('Frame',$,'metal');
#377=IFCMATERIAL('Glass',$,'glass');
#378=IFCSTYLEDITEM($,(#370),'Frame');
#379=IFCSTYLEDREPRESENTATION(#16,'Body',$,(#378));
#380=IFCMATERIALDEFINITIONREPRESENTATION($,$,(#379),#376);
#381=IFCSTYLEDITEM($,(#373),'Glass');
#382=IFCSTYLEDREPRESENTATION(#16,'Body',$,(#381));
#383=IFCMATERIALDEFINITIONREPRESENTATION($,$,(#382),#377);
#384=IFCSHAPEREPRESENTATION(#16,'Body','SweptSolid',(#291,#304,#317,#330,#343,#356));
#385=IFCPRODUCTDEFINITIONSHAPE($,$,(#384));
#386=IFCSTYLEDITEM(#291,(#370),$);
#387=IFCSTYLEDITEM(#304,(#370),$);
#388=IFCSTYLEDITEM(#317,(#370),$);
#389=IFCSTYLEDITEM(#330,(#370),$);
#390=IFCSTYLEDITEM(#343,(#370),$);
#391=IFCSTYLEDITEM(#356,(#370),$);
#392=IFCOWNERHISTORY(#3,#4,.READWRITE.,.MODIFIED.,1790664886,#3,#4,1790664886);
#393=IFCRELASSOCIATESMATERIAL('0akWMJaH9DSvnCnSRRL9NY',#392,$,$,(#408,#273),#376);
#394=IFCRELFILLSELEMENT('1jN3UCt517jh5QFaFtCmv_',$,$,$,#157,#273);
#395=IFCOWNERHISTORY(#3,#4,.READWRITE.,.MODIFIED.,1790664886,#3,#4,1790664886);
#396=IFCPLATE('0dN$FFGJTFL8Ddxt5A7wF6',#395,'201-Door-Glass',$,'Glass',#401,#403,$,.CURTAIN_PANEL.);
#397=IFCCARTESIANPOINT((2.3599999999999999,0.,0.));
#398=IFCDIRECTION((0.,0.,1.));
#399=IFCDIRECTION((0.,1.,0.));
#400=IFCAXIS2PLACEMENT3D(#397,#398,#399);
#401=IFCLOCALPLACEMENT(#43,#400);
#402=IFCSHAPEREPRESENTATION(#16,'Body','SweptSolid',(#369));
#403=IFCPRODUCTDEFINITIONSHAPE($,$,(#402));
#404=IFCSTYLEDITEM(#369,(#373),$);
#405=IFCOWNERHISTORY(#3,#4,.READWRITE.,.MODIFIED.,1790664886,#3,#4,1790664886);
#406=IFCRELASSOCIATESMATERIAL('2ERDIBIeD22g6mx1Tpi4_T',#405,$,$,(#396,#514),#377);
#407=IFCOWNERHISTORY(#3,#4,.READWRITE.,.MODIFIED.,1790664886,#3,#4,1790664886);
#408=IFCWINDOW('1nS6u8K0PAqPVe7w0kuCiV',#407,'201-Window',$,$,#413,#506,$,$,$,.WINDOW.,$,$);
#409=IFCCARTESIANPOINT((2.3599999999999999,0.,0.));
#410=IFCDIRECTION((0.,0.,1.));
#411=IFCDIRECTION((0.,1.,0.));
#412=IFCAXIS2PLACEMENT3D(#409,#410,#411);
#413=IFCLOCALPLACEMENT(#43,#412);
#414=IFCCARTESIANPOINT((0.40000000000000002,-0.,0.));
#415=IFCCARTESIANPOINT((0.5,-0.,0.));
#416=IFCCARTESIANPOINT((0.5,0.19800000000000001,0.));
#417=IFCCARTESIANPOINT((0.40000000000000002,0.19800000000000001,0.));
#418=IFCCARTESIANPOINT((0.40000000000000002,-0.,0.));
#419=IFCPOLYLINE((#414,#415,#416,#417,#418));
#420=IFCARBITRARYCLOSEDPROFILEDEF(.AREA.,$,#419);
#421=IFCCARTESIANPOINT((0.,0.,0.90000000000000002));
#422=IFCDIRECTION((0.,0.,1.));
#423=IFCDIRECTION((1.,0.,0.));
#424=IFCAXIS2PLACEMENT3D(#421,#422,#423);
#425=IFCDIRECTION((0.,0.,1.));
#426=IFCEXTRUDEDAREASOLID(#420,#424,#425,1.3999999999999999);
#427=IFCCARTESIANPOINT((1.5,-0.,0.));
#428=IFCCARTESIANPOINT((1.6000000000000001,-0.,0.));
#429=IFCCARTESIANPOINT((1.6000000000000001,0.19800000000000001,0.));
#430=IFCCARTESIANPOINT((1.5,0.19800000000000001,0.));
#431=IFCCARTESIANPOINT((1.5,-0.,0.));
#432=IFCPOLYLINE((#427,#428,#429,#430,#431));
#433=IFCARBITRARYCLOSEDPROFILEDEF(.AREA.,$,#432);
#434=IFCCARTESIANPOINT((0.,0.,0.90000000000000002));
#435=IFCDIRECTION((0.,0.,1.));
#436=IFCDIRECTION((1.,0.,0.));
#437=IFCAXIS2PLACEMENT3D(#434,#435,#436);
#438=IFCDIRECTION((0.,0.,1.));
#439=IFCEXTRUDEDAREASOLID(#433,#437,#438,1.3999999999999999);
#440=IFCCARTESIANPOINT((0.5,-0.,0.));
#441=IFCCARTESIANPOINT((1.5,-0.,0.));
#442=IFCCARTESIANPOINT((1.5,0.19800000000000001,0.));
#443=IFCCARTESIANPOINT((0.5,0.19800000000000001,0.));
#444=IFCCARTESIANPOINT((0.5,-0.,0.));
#445=IFCPOLYLINE((#440,#441,#442,#443,#444));
#446=IFCARBITRARYCLOSEDPROFILEDEF(.AREA.,$,#445);
#447=IFCCARTESIANPOINT((0.,0.,2.1999999999999997));
#448=IFCDIRECTION((0.,0.,1.));
#449=IFCDIRECTION((1.,0.,0.));
#450=IFCAXIS2PLACEMENT3D(#447,#448,#449);
#451=IFCDIRECTION((0.,0.,1.));
#452=IFCEXTRUDEDAREASOLID(#446,#450,#451,0.10000000000000009);
#453=IFCCARTESIANPOINT((0.5,-0.,0.));
#454=IFCCARTESIANPOINT((1.5,-0.,0.));
#455=IFCCARTESIANPOINT((1.5,0.19800000000000001,0.));
#456=IFCCARTESIANPOINT((0.5,0.19800000000000001,0.));
#457=IFCCARTESIANPOINT((0.5,-0.,0.));
#458=IFCPOLYLINE((#453,#454,#455,#456,#457));
#459=IFCARBITRARYCLOSEDPROFILEDEF(.AREA.,$,#458);
#460=IFCCARTESIANPOINT((0.,0.,0.90000000000000002));
#461=IFCDIRECTION((0.,0.,1.));
#462=IFCDIRECTION((1.,0.,0.));
#463=IFCAXIS2PLACEMENT3D(#460,#461,#462);
#464=IFCDIRECTION((0.,0.,1.));
#465=IFCEXTRUDEDAREASOLID(#459,#463,#464,0.099999999999999978);
#466=IFCCARTESIANPOINT((0.95999999999999996,-0.,0.));
#467=IFCCARTESIANPOINT((1.04,-0.,0.));
#468=IFCCARTESIANPOINT((1.04,0.19800000000000001,0.));
#469=IFCCARTESIANPOINT((0.95999999999999996,0.19800000000000001,0.));
#470=IFCCARTESIANPOINT((0.95999999999999996,-0.,0.));
#471=IFCPOLYLINE((#466,#467,#468,#469,#470));
#472=IFCARBITRARYCLOSEDPROFILEDEF(.AREA.,$,#471);
#473=IFCCARTESIANPOINT((0.,0.,1.));
#474=IFCDIRECTION((0.,0.,1.));
#475=IFCDIRECTION((1.,0.,0.));
#476=IFCAXIS2PLACEMENT3D(#473,#474,#475);
#477=IFCDIRECTION((0.,0.,1.));
#478=IFCEXTRUDEDAREASOLID(#472,#476,#477,1.1999999999999997);
#479=IFCCARTESIANPOINT((0.5,0.014999999999999999,0.));
#480=IFCCARTESIANPOINT((0.95999999999999996,0.014999999999999999,0.));
#481=IFCCARTESIANPOINT((0.95999999999999996,0.055,0.));
#482=IFCCARTESIANPOINT((0.5,0.055,0.));
#483=IFCCARTESIANPOINT((0.5,0.014999999999999999,0.));
#484=IFCPOLYLINE((#479,#480,#481,#482,#483));
#485=IFCARBITRARYCLOSEDPROFILEDEF(.AREA.,$,#484);
#486=IFCCARTESIANPOINT((0.,0.,1.));
#487=IFCDIRECTION((0.,0.,1.));
#488=IFCDIRECTION((1.,0.,0.));
#489=IFCAXIS2PLACEMENT3D(#486,#487,#488);
#490=IFCDIRECTION((0.,0.,1.));
#491=IFCEXTRUDEDAREASOLID(#485,#489,#490,1.1999999999999997);
#492=IFCCARTESIANPOINT((1.04,0.014999999999999999,0.));
#493=IFCCARTESIANPOINT((1.5,0.014999999999999999,0.));
#494=IFCCARTESIANPOINT((1.5,0.055,0.));
#495=IFCCARTESIANPOINT((1.04,0.055,0.));
#496=IFCCARTESIANPOINT((1.04,0.014999999999999999,0.));
#497=IFCPOLYLINE((#492,#493,#494,#495,#496));
#498=IFCARBITRARYCLOSEDPROFILEDEF(.AREA.,$,#497);
#499=IFCCARTESIANPOINT((0.,0.,1.));
#500=IFCDIRECTION((0.,0.,1.));
#501=IFCDIRECTION((1.,0.,0.));
#502=IFCAXIS2PLACEMENT3D(#499,#500,#501);
#503=IFCDIRECTION((0.,0.,1.));
#504=IFCEXTRUDEDAREASOLID(#498,#502,#503,1.1999999999999997);
#505=IFCSHAPEREPRESENTATION(#16,'Body','SweptSolid',(#426,#439,#452,#465,#478));
#506=IFCPRODUCTDEFINITIONSHAPE($,$,(#505));
#507=IFCSTYLEDITEM(#426,(#370),$);
#508=IFCSTYLEDITEM(#439,(#370),$);
#509=IFCSTYLEDITEM(#452,(#370),$);
#510=IFCSTYLEDITEM(#465,(#370),$);
#511=IFCSTYLEDITEM(#478,(#370),$);
#512=IFCRELFILLSELEMENT('2Hu9B4kdr0GPEPcImsnGRh',$,$,$,#186,#408);
#513=IFCOWNERHISTORY(#3,#4,.READWRITE.,.MODIFIED.,1790664886,#3,#4,1790664886);
#514=IFCPLATE('23dIdV6tLACfiuqHpdDwJL',#513,'201-Window-Glass',$,'Glass',#519,#521,$,.CURTAIN_PANEL.);
#515=IFCCARTESIANPOINT((2.3599999999999999,0.,0.));
#516=IFCDIRECTION((0.,0.,1.));
#517=IFCDIRECTION((0.,1.,0.));
#518=IFCAXIS2PLACEMENT3D(#515,#516,#517);
#519=IFCLOCALPLACEMENT(#43,#518);
#520=IFCSHAPEREPRESENTATION(#16,'Body','SweptSolid',(#491,#504));
#521=IFCPRODUCTDEFINITIONSHAPE($,$,(#520));
#522=IFCSTYLEDITEM(#491,(#373),$);
#523=IFCSTYLEDITEM(#504,(#373),$);
#524=IFCCARTESIANPOINT((2.4199999999999999,0.40000000000000002,0.));
#525=IFCCARTESIANPOINT((3.4199999999999999,0.40000000000000002,0.));
#526=IFCCARTESIANPOINT((3.4199999999999999,0.44,0.));
#527=IFCCARTESIANPOINT((2.4199999999999999,0.44,0.));
#528=IFCCARTESIANPOINT((2.4199999999999999,0.40000000000000002,0.));
#529=IFCPOLYLINE((#524,#525,#526,#527,#528));
#530=IFCARBITRARYCLOSEDPROFILEDEF(.AREA.,$,#529);
#531=IFCCARTESIANPOINT((0.,0.,2.2999999999999998));
#532=IFCDIRECTION((0.,0.,1.));
#533=IFCDIRECTION((1.,0.,0.));
#534=IFCAXIS2PLACEMENT3D(#531,#532,#533);
#535=IFCDIRECTION((0.,0.,1.));
#536=IFCEXTRUDEDAREASOLID(#530,#534,#535,0.5);
#537=IFCCARTESIANPOINT((2.4199999999999999,0.63200000000000012,0.));
#538=IFCCARTESIANPOINT((3.4199999999999999,0.63200000000000012,0.));
#539=IFCCARTESIANPOINT((3.4199999999999999,0.67200000000000015,0.));
#540=IFCCARTESIANPOINT((2.4199999999999999,0.67200000000000015,0.));
#541=IFCCARTESIANPOINT((2.4199999999999999,0.63200000000000012,0.));
#542=IFCPOLYLINE((#537,#538,#539,#540,#541));
#543=IFCARBITRARYCLOSEDPROFILEDEF(.AREA.,$,#542);
#544=IFCCARTESIANPOINT((0.,0.,2.2999999999999998));
#545=IFCDIRECTION((0.,0.,1.));
#546=IFCDIRECTION((1.,0.,0.));
#547=IFCAXIS2PLACEMENT3D(#544,#545,#546);
#548=IFCDIRECTION((0.,0.,1.));
#549=IFCEXTRUDEDAREASOLID(#543,#547,#548,0.5);
#550=IFCCARTESIANPOINT((2.4199999999999999,0.8640000000000001,0.));
#551=IFCCARTESIANPOINT((3.4199999999999999,0.8640000000000001,0.));
#552=IFCCARTESIANPOINT((3.4199999999999999,0.90400000000000014,0.));
#553=IFCCARTESIANPOINT((2.4199999999999999,0.90400000000000014,0.));
#554=IFCCARTESIANPOINT((2.4199999999999999,0.8640000000000001,0.));
#555=IFCPOLYLINE((#550,#551,#552,#553,#554));
#556=IFCARBITRARYCLOSEDPROFILEDEF(.AREA.,$,#555);
#557=IFCCARTESIANPOINT((0.,0.,2.2999999999999998));
#558=IFCDIRECTION((0.,0.,1.));
#559=IFCDIRECTION((1.,0.,0.));
#560=IFCAXIS2PLACEMENT3D(#557,#558,#559);
#561=IFCDIRECTION((0.,0.,1.));
#562=IFCEXTRUDEDAREASOLID(#556,#560,#561,0.5);
#563=IFCCARTESIANPOINT((2.4199999999999999,1.0960000000000001,0.));
#564=IFCCARTESIANPOINT((3.4199999999999999,1.0960000000000001,0.));
#565=IFCCARTESIANPOINT((3.4199999999999999,1.1360000000000001,0.));
#566=IFCCARTESIANPOINT((2.4199999999999999,1.1360000000000001,0.));
#567=IFCCARTESIANPOINT((2.4199999999999999,1.0960000000000001,0.));
#568=IFCPOLYLINE((#563,#564,#565,#566,#567));
#569=IFCARBITRARYCLOSEDPROFILEDEF(.AREA.,$,#568);
#570=IFCCARTESIANPOINT((0.,0.,2.2999999999999998));
#571=IFCDIRECTION((0.,0.,1.));
#572=IFCDIRECTION((1.,0.,0.));
#573=IFCAXIS2PLACEMENT3D(#570,#571,#572);
#574=IFCDIRECTION((0.,0.,1.));
#575=IFCEXTRUDEDAREASOLID(#569,#573,#574,0.5);
#576=IFCCARTESIANPOINT((2.4199999999999999,1.3280000000000003,0.));
#577=IFCCARTESIANPOINT((3.4199999999999999,1.3280000000000003,0.));
#578=IFCCARTESIANPOINT((3.4199999999999999,1.3680000000000003,0.));
#579=IFCCARTESIANPOINT((2.4199999999999999,1.3680000000000003,0.));
#580=IFCCARTESIANPOINT((2.4199999999999999,1.3280000000000003,0.));
#581=IFCPOLYLINE((#576,#577,#578,#579,#580));
#582=IFCARBITRARYCLOSEDPROFILEDEF(.AREA.,$,#581);
#583=IFCCARTESIANPOINT((0.,0.,2.2999999999999998));
#584=IFCDIRECTION((0.,0.,1.));
#585=IFCDIRECTION((1.,0.,0.));
#586=IFCAXIS2PLACEMENT3D(#583,#584,#585);
#587=IFCDIRECTION((0.,0.,1.));
#588=IFCEXTRUDEDAREASOLID(#582,#586,#587,0.5);
#589=IFCCARTESIANPOINT((2.4199999999999999,1.5600000000000001,0.));
#590=IFCCARTESIANPOINT((3.4199999999999999,1.5600000000000001,0.));
#591=IFCCARTESIANPOINT((3.4199999999999999,1.6000000000000001,0.));
#592=IFCCARTESIANPOINT((2.4199999999999999,1.6000000000000001,0.));
#593=IFCCARTESIANPOINT((2.4199999999999999,1.5600000000000001,0.));
#594=IFCPOLYLINE((#589,#590,#591,#592,#593));
#595=IFCARBITRARYCLOSEDPROFILEDEF(.AREA.,$,#594);
#596=IFCCARTESIANPOINT((0.,0.,2.2999999999999998));
#597=IFCDIRECTION((0.,0.,1.));
#598=IFCDIRECTION((1.,0.,0.));
#599=IFCAXIS2PLACEMENT3D(#596,#597,#598);
#600=IFCDIRECTION((0.,0.,1.));
#601=IFCEXTRUDEDAREASOLID(#595,#599,#600,0.5);
#602=IFCOWNERHISTORY(#3,#4,.READWRITE.,.MODIFIED.,1790664886,#3,#4,1790664886);
#603=IFCSHADINGDEVICE('2A9_a6xgT1aRklCZ4njiy3',#602,'SS-01',$,$,#608,#610,$,.JALOUSIE.);
#604=IFCCARTESIANPOINT((0.,0.,0.));
#605=IFCDIRECTION((0.,0.,1.));
#606=IFCDIRECTION((1.,0.,0.));
#607=IFCAXIS2PLACEMENT3D(#604,#605,#606);
#608=IFCLOCALPLACEMENT(#43,#607);
#609=IFCSHAPEREPRESENTATION(#16,'Body','SweptSolid',(#536,#549,#562,#575,#588,#601));
#610=IFCPRODUCTDEFINITIONSHAPE($,$,(#609));
#611=IFCOWNERHISTORY(#3,#4,.READWRITE.,.ADDED.,1790664886,#3,#4,1790664886);
#612=IFCPROPERTYSET('1f$UrkPs1BKBSlGBIV$yZI',#611,'Pset_ShadingDeviceCommon',$,(#615,#616));
#613=IFCOWNERHISTORY(#3,#4,.READWRITE.,.ADDED.,1790664886,#3,#4,1790664886);
#614=IFCRELDEFINESBYPROPERTIES('1IE2Kl$BT6lwPSElmp1iAF',#613,$,$,(#603),#612);
#615=IFCPROPERTYSINGLEVALUE('IsExternal',$,IFCBOOLEAN(.T.),$);
#616=IFCPROPERTYSINGLEVALUE('Status',$,IFCLABEL('NEW'),$);
#617=IFCOWNERHISTORY(#3,#4,.READWRITE.,.ADDED.,1790664886,#3,#4,1790664886);
#618=IFCPROPERTYSET('0yZo_cA2bDQhRSY0Gt3qF6',#617,'ePset_Cost',$,(#621));
#619=IFCOWNERHISTORY(#3,#4,.READWRITE.,.ADDED.,1790664886,#3,#4,1790664886);
#620=IFCRELDEFINESBYPROPERTIES('2Y2aLW4AH3_wmda$MtTS1B',#619,$,$,(#603),#618);
#621=IFCPROPERTYSINGLEVALUE('eBKP',$,IFCLABEL('E03.04'),$);
ENDSEC;
END-ISO-10303-21;
