ISO-10303-21;
HEADER;
FILE_DESCRIPTION(('ViewDefinition[DesignTransferView]'),'2;1');
FILE_NAME('/dev/null','2026-09-18T11:50:00+02:00',(''),(''),'IfcOpenShell 0.8.5','IfcOpenShell 0.8.5','Nobody');
FILE_SCHEMA(('IFC4'));
ENDSEC;
DATA;
#1=IFCPERSON('catalog-pipeline','Pipeline','Catalog',$,$,$,$,$);
#2=IFCORGANIZATION('pragmaticBIM','pragmaticBIM',$,$,$);
#3=IFCPERSONANDORGANIZATION(#1,#2,$);
#4=IFCAPPLICATION(#2,'0.1.0','Catalog IFC Pipeline','catalog-ifc-pipeline');
#5=IFCOWNERHISTORY(#3,#4,.READWRITE.,.ADDED.,1789725000,#3,#4,1789725000);
#6=IFCPROJECT('3mT5kvy6r4GuS0sQIcfRz1',#5,'Catalog \X2\2014\X0\ 101',$,$,$,$,(#15),#10);
#7=IFCSIUNIT(*,.LENGTHUNIT.,$,.METRE.);
#8=IFCSIUNIT(*,.AREAUNIT.,$,.SQUARE_METRE.);
#9=IFCSIUNIT(*,.VOLUMEUNIT.,$,.CUBIC_METRE.);
#10=IFCUNITASSIGNMENT((#8,#9,#7));
#11=IFCCARTESIANPOINT((0.,0.,0.));
#12=IFCDIRECTION((0.,0.,1.));
#13=IFCDIRECTION((1.,0.,0.));
#14=IFCAXIS2PLACEMENT3D(#11,#12,#13);
#15=IFCGEOMETRICREPRESENTATIONCONTEXT($,'Model',3,1.0000000000000001E-05,#14,$);
#16=IFCGEOMETRICREPRESENTATIONSUBCONTEXT('Body','Model',*,*,*,*,#15,$,.MODEL_VIEW.,$);
#17=IFCOWNERHISTORY(#3,#4,.READWRITE.,.MODIFIED.,1789725000,#3,#4,1789725000);
#18=IFCSITE('0XpxpKhGj3NOYWP7bf0kj4',#17,'Site',$,$,#29,$,$,$,$,$,$,$,$);
#19=IFCOWNERHISTORY(#3,#4,.READWRITE.,.MODIFIED.,1789725000,#3,#4,1789725000);
#20=IFCBUILDING('2YAAm9MUL6jAkzpnh2nDcq',#19,'Building',$,$,#34,$,$,$,$,$,$);
#21=IFCOWNERHISTORY(#3,#4,.READWRITE.,.ADDED.,1789725000,#3,#4,1789725000);
#22=IFCRELAGGREGATES('1viE$mIqv6GeKTgTE2YKbz',#21,$,$,#6,(#18));
#23=IFCOWNERHISTORY(#3,#4,.READWRITE.,.ADDED.,1789725000,#3,#4,1789725000);
#24=IFCRELAGGREGATES('36_FwuQSb1zu7qX0PJ3MJB',#23,$,$,#18,(#20));
#25=IFCCARTESIANPOINT((0.,0.,0.));
#26=IFCDIRECTION((0.,0.,1.));
#27=IFCDIRECTION((1.,0.,0.));
#28=IFCAXIS2PLACEMENT3D(#25,#26,#27);
#29=IFCLOCALPLACEMENT($,#28);
#30=IFCCARTESIANPOINT((0.,0.,0.));
#31=IFCDIRECTION((0.,0.,1.));
#32=IFCDIRECTION((1.,0.,0.));
#33=IFCAXIS2PLACEMENT3D(#30,#31,#32);
#34=IFCLOCALPLACEMENT(#29,#33);
#35=IFCOWNERHISTORY(#3,#4,.READWRITE.,.MODIFIED.,1789725000,#3,#4,1789725000);
#36=IFCBUILDINGSTOREY('2baRTaKTbFwRaCLfmy$jpw',#35,'Level 0',$,$,#43,$,$,$,0.);
#37=IFCOWNERHISTORY(#3,#4,.READWRITE.,.ADDED.,1789725000,#3,#4,1789725000);
#38=IFCRELAGGREGATES('1_6zxXW11Aqu5_9hoYu40R',#37,$,$,#20,(#36));
#39=IFCCARTESIANPOINT((0.,0.,0.));
#40=IFCDIRECTION((0.,0.,1.));
#41=IFCDIRECTION((1.,0.,0.));
#42=IFCAXIS2PLACEMENT3D(#39,#40,#41);
#43=IFCLOCALPLACEMENT(#34,#42);
#44=IFCOWNERHISTORY(#3,#4,.READWRITE.,.MODIFIED.,1789725000,#3,#4,1789725000);
#45=IFCSLAB('2nnLsW4Sn9Vwo16wo7EjeQ',#44,'101-FloorSlab',$,$,#52,#67,$,.FLOOR.);
#46=IFCOWNERHISTORY(#3,#4,.READWRITE.,.MODIFIED.,1789725000,#3,#4,1789725000);
#47=IFCRELCONTAINEDINSPATIALSTRUCTURE('3US8zUPW91Xuuyy7gpCTrI',#46,$,$,(#135,#113,#157,#45,#69,#91),#36);
#48=IFCCARTESIANPOINT((0.,0.,-0.40000000000000002));
#49=IFCDIRECTION((0.,0.,1.));
#50=IFCDIRECTION((1.,0.,0.));
#51=IFCAXIS2PLACEMENT3D(#48,#49,#50);
#52=IFCLOCALPLACEMENT(#43,#51);
#53=IFCCARTESIANPOINT((0.,0.,0.));
#54=IFCCARTESIANPOINT((7.2000000000000002,0.,0.));
#55=IFCCARTESIANPOINT((7.2000000000000002,5.,0.));
#56=IFCCARTESIANPOINT((0.,5.,0.));
#57=IFCCARTESIANPOINT((0.,0.,0.));
#58=IFCPOLYLINE((#53,#54,#55,#56,#57));
#59=IFCARBITRARYCLOSEDPROFILEDEF(.AREA.,$,#58);
#60=IFCCARTESIANPOINT((0.,0.,0.));
#61=IFCDIRECTION((0.,0.,1.));
#62=IFCDIRECTION((1.,0.,0.));
#63=IFCAXIS2PLACEMENT3D(#60,#61,#62);
#64=IFCDIRECTION((0.,0.,1.));
#65=IFCEXTRUDEDAREASOLID(#59,#63,#64,0.29999999999999999);
#66=IFCSHAPEREPRESENTATION(#16,'Body','SweptSolid',(#65));
#67=IFCPRODUCTDEFINITIONSHAPE($,$,(#66));
#68=IFCOWNERHISTORY(#3,#4,.READWRITE.,.MODIFIED.,1789725000,#3,#4,1789725000);
#69=IFCCOVERING('1OOGlbgp94uwWuIxO_GyAN',#68,'101-FloorCovering',$,$,#74,#89,$,.FLOORING.);
#70=IFCCARTESIANPOINT((0.,0.,-0.10000000000000001));
#71=IFCDIRECTION((0.,0.,1.));
#72=IFCDIRECTION((1.,0.,0.));
#73=IFCAXIS2PLACEMENT3D(#70,#71,#72);
#74=IFCLOCALPLACEMENT(#43,#73);
#75=IFCCARTESIANPOINT((0.,0.,0.));
#76=IFCCARTESIANPOINT((4.,0.,0.));
#77=IFCCARTESIANPOINT((4.,5.,0.));
#78=IFCCARTESIANPOINT((0.,5.,0.));
#79=IFCCARTESIANPOINT((0.,0.,0.));
#80=IFCPOLYLINE((#75,#76,#77,#78,#79));
#81=IFCARBITRARYCLOSEDPROFILEDEF(.AREA.,$,#80);
#82=IFCCARTESIANPOINT((0.,0.,0.));
#83=IFCDIRECTION((0.,0.,1.));
#84=IFCDIRECTION((1.,0.,0.));
#85=IFCAXIS2PLACEMENT3D(#82,#83,#84);
#86=IFCDIRECTION((0.,0.,1.));
#87=IFCEXTRUDEDAREASOLID(#81,#85,#86,0.10000000000000001);
#88=IFCSHAPEREPRESENTATION(#16,'Body','SweptSolid',(#87));
#89=IFCPRODUCTDEFINITIONSHAPE($,$,(#88));
#90=IFCOWNERHISTORY(#3,#4,.READWRITE.,.MODIFIED.,1789725000,#3,#4,1789725000);
#91=IFCCOVERING('0XcBIKuD57HPf1qUNKVCcJ',#90,'101-N-FloorCovering',$,$,#96,#111,$,.FLOORING.);
#92=IFCCARTESIANPOINT((0.,0.,-0.10000000000000001));
#93=IFCDIRECTION((0.,0.,1.));
#94=IFCDIRECTION((1.,0.,0.));
#95=IFCAXIS2PLACEMENT3D(#92,#93,#94);
#96=IFCLOCALPLACEMENT(#43,#95);
#97=IFCCARTESIANPOINT((4.2000000000000002,0.,0.));
#98=IFCCARTESIANPOINT((7.2000000000000002,0.,0.));
#99=IFCCARTESIANPOINT((7.2000000000000002,5.,0.));
#100=IFCCARTESIANPOINT((4.2000000000000002,5.,0.));
#101=IFCCARTESIANPOINT((4.2000000000000002,0.,0.));
#102=IFCPOLYLINE((#97,#98,#99,#100,#101));
#103=IFCARBITRARYCLOSEDPROFILEDEF(.AREA.,$,#102);
#104=IFCCARTESIANPOINT((0.,0.,0.));
#105=IFCDIRECTION((0.,0.,1.));
#106=IFCDIRECTION((1.,0.,0.));
#107=IFCAXIS2PLACEMENT3D(#104,#105,#106);
#108=IFCDIRECTION((0.,0.,1.));
#109=IFCEXTRUDEDAREASOLID(#103,#107,#108,0.10000000000000001);
#110=IFCSHAPEREPRESENTATION(#16,'Body','SweptSolid',(#109));
#111=IFCPRODUCTDEFINITIONSHAPE($,$,(#110));
#112=IFCOWNERHISTORY(#3,#4,.READWRITE.,.MODIFIED.,1789725000,#3,#4,1789725000);
#113=IFCWALL('271RVZOhb7agzJDdJ0SkwE',#112,'101-Partition',$,$,#118,#133,$,.PARTITIONING.);
#114=IFCCARTESIANPOINT((4.2000000000000002,0.,-0.10000000000000001));
#115=IFCDIRECTION((0.,0.,1.));
#116=IFCDIRECTION((0.,1.,0.));
#117=IFCAXIS2PLACEMENT3D(#114,#115,#116);
#118=IFCLOCALPLACEMENT(#43,#117);
#119=IFCCARTESIANPOINT((0.,0.,0.));
#120=IFCCARTESIANPOINT((5.,0.,0.));
#121=IFCCARTESIANPOINT((5.,0.20000000000000001,0.));
#122=IFCCARTESIANPOINT((0.,0.20000000000000001,0.));
#123=IFCCARTESIANPOINT((0.,0.,0.));
#124=IFCPOLYLINE((#119,#120,#121,#122,#123));
#125=IFCARBITRARYCLOSEDPROFILEDEF(.AREA.,$,#124);
#126=IFCCARTESIANPOINT((0.,0.,0.));
#127=IFCDIRECTION((0.,0.,1.));
#128=IFCDIRECTION((1.,0.,0.));
#129=IFCAXIS2PLACEMENT3D(#126,#127,#128);
#130=IFCDIRECTION((0.,0.,1.));
#131=IFCEXTRUDEDAREASOLID(#125,#129,#130,2.8999999999999999);
#132=IFCSHAPEREPRESENTATION(#16,'Body','SweptSolid',(#131));
#133=IFCPRODUCTDEFINITIONSHAPE($,$,(#132));
#134=IFCOWNERHISTORY(#3,#4,.READWRITE.,.MODIFIED.,1789725000,#3,#4,1789725000);
#135=IFCCOVERING('3rLju23h18AuB06qI_Q4mb',#134,'WB-01',$,$,#140,#155,$,.CLADDING.);
#136=IFCCARTESIANPOINT((4.2299999999999995,3.,0.));
#137=IFCDIRECTION((0.,0.,1.));
#138=IFCDIRECTION((0.,1.,0.));
#139=IFCAXIS2PLACEMENT3D(#136,#137,#138);
#140=IFCLOCALPLACEMENT(#43,#139);
#141=IFCCARTESIANPOINT((0.,0.,0.));
#142=IFCCARTESIANPOINT((1.2,0.,0.));
#143=IFCCARTESIANPOINT((1.2,0.02,0.));
#144=IFCCARTESIANPOINT((0.,0.02,0.));
#145=IFCCARTESIANPOINT((0.,0.,0.));
#146=IFCPOLYLINE((#141,#142,#143,#144,#145));
#147=IFCARBITRARYCLOSEDPROFILEDEF(.AREA.,$,#146);
#148=IFCCARTESIANPOINT((0.,0.,0.));
#149=IFCDIRECTION((0.,0.,1.));
#150=IFCDIRECTION((1.,0.,0.));
#151=IFCAXIS2PLACEMENT3D(#148,#149,#150);
#152=IFCDIRECTION((0.,0.,1.));
#153=IFCEXTRUDEDAREASOLID(#147,#151,#152,2.4500000000000002);
#154=IFCSHAPEREPRESENTATION(#16,'Body','SweptSolid',(#153));
#155=IFCPRODUCTDEFINITIONSHAPE($,$,(#154));
#156=IFCOWNERHISTORY(#3,#4,.READWRITE.,.MODIFIED.,1789725000,#3,#4,1789725000);
#157=IFCBUILDINGELEMENTPROXY('2x5SruR9103wAqFwTUMk$g',#156,'Waschbecken',$,'Waschbecken',#162,#177,$,.USERDEFINED.);
#158=IFCCARTESIANPOINT((0.,0.,0.68999999999999995));
#159=IFCDIRECTION((0.,0.,1.));
#160=IFCDIRECTION((1.,0.,0.));
#161=IFCAXIS2PLACEMENT3D(#158,#159,#160);
#162=IFCLOCALPLACEMENT(#43,#161);
#163=IFCCARTESIANPOINT((4.2399999999999993,3.3000000000000003,0.));
#164=IFCCARTESIANPOINT((4.6999999999999993,3.3000000000000003,0.));
#165=IFCCARTESIANPOINT((4.6999999999999993,3.8999999999999999,0.));
#166=IFCCARTESIANPOINT((4.2399999999999993,3.8999999999999999,0.));
#167=IFCCARTESIANPOINT((4.2399999999999993,3.3000000000000003,0.));
#168=IFCPOLYLINE((#163,#164,#165,#166,#167));
#169=IFCARBITRARYCLOSEDPROFILEDEF(.AREA.,$,#168);
#170=IFCCARTESIANPOINT((0.,0.,0.));
#171=IFCDIRECTION((0.,0.,1.));
#172=IFCDIRECTION((1.,0.,0.));
#173=IFCAXIS2PLACEMENT3D(#170,#171,#172);
#174=IFCDIRECTION((0.,0.,1.));
#175=IFCEXTRUDEDAREASOLID(#169,#173,#174,0.16);
#176=IFCSHAPEREPRESENTATION(#16,'Body','SweptSolid',(#175));
#177=IFCPRODUCTDEFINITIONSHAPE($,$,(#176));
#178=IFCOWNERHISTORY(#3,#4,.READWRITE.,.ADDED.,1789725000,#3,#4,1789725000);
#179=IFCELEMENTQUANTITY('2L0YBiFAj189TIZt5XWuS_',#178,'Qto_CoveringBaseQuantities',$,'BaseQuantities',(#182));
#180=IFCOWNERHISTORY(#3,#4,.READWRITE.,.ADDED.,1789725000,#3,#4,1789725000);
#181=IFCRELDEFINESBYPROPERTIES('0q695N4ebCGw0kgpJe4HCA',#180,$,$,(#135),#179);
#182=IFCQUANTITYAREA('NetArea',$,$,2.9399999999999999,$);
#183=IFCOWNERHISTORY(#3,#4,.READWRITE.,.ADDED.,1789725000,#3,#4,1789725000);
#184=IFCPROPERTYSET('24A1bLmSr3huWpi3jXQBl$',#183,'Pset_CoveringCommon',$,(#187,#188,#189));
#185=IFCOWNERHISTORY(#3,#4,.READWRITE.,.ADDED.,1789725000,#3,#4,1789725000);
#186=IFCRELDEFINESBYPROPERTIES('2z4ks2mJr8i8RpBgufX14r',#185,$,$,(#135),#184);
#187=IFCPROPERTYSINGLEVALUE('Reference',$,IFCIDENTIFIER('Plattenbelag'),$);
#188=IFCPROPERTYSINGLEVALUE('IsExternal',$,IFCBOOLEAN(.F.),$);
#189=IFCPROPERTYSINGLEVALUE('Status',$,IFCLABEL('NEW'),$);
#190=IFCOWNERHISTORY(#3,#4,.READWRITE.,.ADDED.,1789725000,#3,#4,1789725000);
#191=IFCPROPERTYSET('1fvP8BOA14APeRkCaxGw4Z',#190,'ePset_Cost',$,(#194,#195,#196,#197,#198,#199,#200,#201));
#192=IFCOWNERHISTORY(#3,#4,.READWRITE.,.ADDED.,1789725000,#3,#4,1789725000);
#193=IFCRELDEFINESBYPROPERTIES('3Dse0oooD1d9alyvByH9pP',#192,$,$,(#135),#191);
#194=IFCPROPERTYSINGLEVALUE('CostInterface',$,IFCLABEL('GAB'),$);
#195=IFCPROPERTYSINGLEVALUE('AwardInterface',$,IFCLABEL('273'),$);
#196=IFCPROPERTYSINGLEVALUE('PlanningInterface',$,IFCLABEL('092'),$);
#197=IFCPROPERTYSINGLEVALUE('BelowTerrain',$,IFCBOOLEAN(.F.),$);
#198=IFCPROPERTYSINGLEVALUE('eBKP',$,IFCLABEL('G03.02'),$);
#199=IFCPROPERTYSINGLEVALUE('ProductClass',$,IFCLABEL('WCP-SEAMLESS-COATING'),$);
#200=IFCPROPERTYSINGLEVALUE('UnitPrice',$,IFCLABEL('UnitPrice'),$);
#201=IFCPROPERTYSINGLEVALUE('ReferenceQuantity',$,IFCLABEL('ReferenceQuantity'),$);
#202=IFCOWNERHISTORY(#3,#4,.READWRITE.,.ADDED.,1789725000,#3,#4,1789725000);
#203=IFCPROPERTYSET('0n2IUXgkL2t9B1ao98eiT_',#202,'ePset_Circularity',$,(#206,#207,#208,#209,#210));
#204=IFCOWNERHISTORY(#3,#4,.READWRITE.,.ADDED.,1789725000,#3,#4,1789725000);
#205=IFCRELDEFINESBYPROPERTIES('3veNMx4Mf2phKvtztc17NE',#204,$,$,(#135),#203);
#206=IFCPROPERTYSINGLEVALUE('Connection',$,IFCTEXT('DryConnection'),$);
#207=IFCPROPERTYSINGLEVALUE('Accessibility',$,IFCTEXT('Accessible'),$);
#208=IFCPROPERTYSINGLEVALUE('Reuse',$,IFCREAL(1.),$);
#209=IFCPROPERTYSINGLEVALUE('MaterialOrProductId',$,IFCTEXT('MaterialOrProductId'),$);
#210=IFCPROPERTYSINGLEVALUE('WasteCodes',$,IFCTEXT('WasteCodes'),$);
#211=IFCOWNERHISTORY(#3,#4,.READWRITE.,.ADDED.,1789725000,#3,#4,1789725000);
#212=IFCPROPERTYSET('2ST_8KkfDBm8MaeLiby$1a',#211,'ePset_HazardousMaterial',$,(#215,#216));
#213=IFCOWNERHISTORY(#3,#4,.READWRITE.,.ADDED.,1789725000,#3,#4,1789725000);
#214=IFCRELDEFINESBYPROPERTIES('2ZqvHRjLPD7fl9YOyk8Vje',#213,$,$,(#135),#212);
#215=IFCPROPERTYSINGLEVALUE('HazardType',$,IFCTEXT('Asbestos'),$);
#216=IFCPROPERTYSINGLEVALUE('RemovalCategory',$,IFCTEXT('Immediate'),$);
#217=IFCOWNERHISTORY(#3,#4,.READWRITE.,.ADDED.,1789725000,#3,#4,1789725000);
#218=IFCCOVERINGTYPE('0U9dZ__Uj5zBBNTgh4juoF',#217,'WB-01 Type',$,$,(#222),$,$,$,.NOTDEFINED.);
#219=IFCOWNERHISTORY(#3,#4,.READWRITE.,.ADDED.,1789725000,#3,#4,1789725000);
#220=IFCRELDEFINESBYTYPE('2DQBVX8A56vvlysKi5mPyg',#219,$,$,(#135),#218);
#221=IFCOWNERHISTORY(#3,#4,.READWRITE.,.ADDED.,1789725000,#3,#4,1789725000);
#222=IFCPROPERTYSET('30j7hYkMf8H9lXtD8ZBZNn',#221,'Pset_ManufacturerTypeInformation',$,(#223));
#223=IFCPROPERTYSINGLEVALUE('GlobalTradeItemNumber',$,IFCIDENTIFIER('07612345000015'),$);
#224=IFCOWNERHISTORY(#3,#4,.READWRITE.,.ADDED.,1789725000,#3,#4,1789725000);
#225=IFCPROPERTYSET('0UEvv7O$DCzBd9VTSsCmC9',#224,'Pset_ManufacturerOccurrence',$,(#228));
#226=IFCOWNERHISTORY(#3,#4,.READWRITE.,.ADDED.,1789725000,#3,#4,1789725000);
#227=IFCRELDEFINESBYPROPERTIES('3Q$Jdj3Hb3DfBmY0MeFdQ0',#226,$,$,(#135),#225);
#228=IFCPROPERTYSINGLEVALUE('SerialNumber',$,IFCIDENTIFIER('SN-000001'),$);
ENDSEC;
END-ISO-10303-21;
