ISO-10303-21;
HEADER;
FILE_DESCRIPTION(('ViewDefinition[DesignTransferView]'),'2;1');
FILE_NAME('/dev/null','2026-09-23T06:39:22+02:00',(''),(''),'IfcOpenShell 0.8.5','IfcOpenShell 0.8.5','Nobody');
FILE_SCHEMA(('IFC4'));
ENDSEC;
DATA;
#1=IFCPERSON('catalog-pipeline','Pipeline','Catalog',$,$,$,$,$);
#2=IFCORGANIZATION('pragmaticBIM','pragmaticBIM',$,$,$);
#3=IFCPERSONANDORGANIZATION(#1,#2,$);
#4=IFCAPPLICATION(#2,'0.1.0','Catalog IFC Pipeline','catalog-ifc-pipeline');
#5=IFCOWNERHISTORY(#3,#4,.READWRITE.,.ADDED.,1790138362,#3,#4,1790138362);
#6=IFCPROJECT('1occCZ37bEnQ5AnZcYX5E6',#5,'Catalog \X2\2014\X0\ 201',$,$,$,$,(#15),#10);
#7=IFCSIUNIT(*,.LENGTHUNIT.,$,.METRE.);
#8=IFCSIUNIT(*,.AREAUNIT.,$,.SQUARE_METRE.);
#9=IFCSIUNIT(*,.VOLUMEUNIT.,$,.CUBIC_METRE.);
#10=IFCUNITASSIGNMENT((#9,#7,#8));
#11=IFCCARTESIANPOINT((0.,0.,0.));
#12=IFCDIRECTION((0.,0.,1.));
#13=IFCDIRECTION((1.,0.,0.));
#14=IFCAXIS2PLACEMENT3D(#11,#12,#13);
#15=IFCGEOMETRICREPRESENTATIONCONTEXT($,'Model',3,1.0000000000000001E-05,#14,$);
#16=IFCGEOMETRICREPRESENTATIONSUBCONTEXT('Body','Model',*,*,*,*,#15,$,.MODEL_VIEW.,$);
#17=IFCOWNERHISTORY(#3,#4,.READWRITE.,.MODIFIED.,1790138362,#3,#4,1790138362);
#18=IFCSITE('1tVCKwlSX2UhZohmpa4x8g',#17,'Site',$,$,#29,$,$,$,$,$,$,$,$);
#19=IFCOWNERHISTORY(#3,#4,.READWRITE.,.MODIFIED.,1790138362,#3,#4,1790138362);
#20=IFCBUILDING('35j6YMY3v0KBl6SoeJj4m_',#19,'Building',$,$,#34,$,$,$,$,$,$);
#21=IFCOWNERHISTORY(#3,#4,.READWRITE.,.ADDED.,1790138362,#3,#4,1790138362);
#22=IFCRELAGGREGATES('1NOsMFouzFGBoxGFtcmOAP',#21,$,$,#6,(#18));
#23=IFCOWNERHISTORY(#3,#4,.READWRITE.,.ADDED.,1790138362,#3,#4,1790138362);
#24=IFCRELAGGREGATES('3g_in_iwj3LAOICUotvo_J',#23,$,$,#18,(#20));
#25=IFCCARTESIANPOINT((0.,0.,0.));
#26=IFCDIRECTION((0.,0.,1.));
#27=IFCDIRECTION((1.,0.,0.));
#28=IFCAXIS2PLACEMENT3D(#25,#26,#27);
#29=IFCLOCALPLACEMENT($,#28);
#30=IFCCARTESIANPOINT((0.,0.,0.));
#31=IFCDIRECTION((0.,0.,1.));
#32=IFCDIRECTION((1.,0.,0.));
#33=IFCAXIS2PLACEMENT3D(#30,#31,#32);
#34=IFCLOCALPLACEMENT(#29,#33);
#35=IFCOWNERHISTORY(#3,#4,.READWRITE.,.MODIFIED.,1790138362,#3,#4,1790138362);
#36=IFCBUILDINGSTOREY('3JOLILFFj2ghRiym3sBU78',#35,'Level 0',$,$,#43,$,$,$,0.);
#37=IFCOWNERHISTORY(#3,#4,.READWRITE.,.ADDED.,1790138362,#3,#4,1790138362);
#38=IFCRELAGGREGATES('1nmGqJXpLD$AgTooBy3ZtF',#37,$,$,#20,(#36));
#39=IFCCARTESIANPOINT((0.,0.,0.));
#40=IFCDIRECTION((0.,0.,1.));
#41=IFCDIRECTION((1.,0.,0.));
#42=IFCAXIS2PLACEMENT3D(#39,#40,#41);
#43=IFCLOCALPLACEMENT(#34,#42);
#44=IFCOWNERHISTORY(#3,#4,.READWRITE.,.MODIFIED.,1790138362,#3,#4,1790138362);
#45=IFCSPACE('0je35Tf0z1v8BxV5fwyoE5',#44,'201',$,$,#109,#67,'Balkon',$,.SPACE.,$);
#46=IFCOWNERHISTORY(#3,#4,.READWRITE.,.MODIFIED.,1790138362,#3,#4,1790138362);
#47=IFCRELAGGREGATES('1EtH5fS7HDU9IdGU6JP_rZ',#46,$,$,#36,(#45,#635));
#53=IFCCARTESIANPOINT((2.4199999999999995,0.,0.));
#54=IFCCARTESIANPOINT((4.4199999999999999,0.,0.));
#55=IFCCARTESIANPOINT((4.4199999999999999,4.,0.));
#56=IFCCARTESIANPOINT((2.4199999999999995,4.,0.));
#57=IFCCARTESIANPOINT((2.4199999999999995,0.,0.));
#58=IFCPOLYLINE((#53,#54,#55,#56,#57));
#59=IFCARBITRARYCLOSEDPROFILEDEF(.AREA.,$,#58);
#60=IFCCARTESIANPOINT((0.,0.,0.));
#61=IFCDIRECTION((0.,0.,1.));
#62=IFCDIRECTION((1.,0.,0.));
#63=IFCAXIS2PLACEMENT3D(#60,#61,#62);
#64=IFCDIRECTION((0.,0.,1.));
#65=IFCEXTRUDEDAREASOLID(#59,#63,#64,1.);
#66=IFCSHAPEREPRESENTATION(#16,'Body','SweptSolid',(#65));
#67=IFCPRODUCTDEFINITIONSHAPE($,$,(#66));
#68=IFCOWNERHISTORY(#3,#4,.READWRITE.,.ADDED.,1790138362,#3,#4,1790138362);
#69=IFCELEMENTQUANTITY('0d75TcEj51jguCGjlkSh4I',#68,'Qto_SpaceBaseQuantities',$,'BaseQuantities',(#72,#73,#74,#75));
#70=IFCOWNERHISTORY(#3,#4,.READWRITE.,.ADDED.,1790138362,#3,#4,1790138362);
#71=IFCRELDEFINESBYPROPERTIES('0gr1M08wH6NAXxlEOo4wGm',#70,$,$,(#45),#69);
#72=IFCQUANTITYAREA('NetFloorArea',$,$,8.,$);
#73=IFCQUANTITYLENGTH('Height',$,$,1.,$);
#74=IFCQUANTITYAREA('GrossFloorArea',$,$,8.,$);
#75=IFCQUANTITYVOLUME('GrossVolume',$,$,8.,$);
#76=IFCOWNERHISTORY(#3,#4,.READWRITE.,.ADDED.,1790138362,#3,#4,1790138362);
#77=IFCPROPERTYSET('3tb4HgFNXE2RAJkvU6GMH7',#76,'Pset_SpaceCommon',$,(#80,#81,#82));
#78=IFCOWNERHISTORY(#3,#4,.READWRITE.,.ADDED.,1790138362,#3,#4,1790138362);
#79=IFCRELDEFINESBYPROPERTIES('3kTY1xmpv218OkaXAzgWdM',#78,$,$,(#45),#77);
#80=IFCPROPERTYSINGLEVALUE('Reference',$,IFCIDENTIFIER('AGF'),$);
#81=IFCPROPERTYSINGLEVALUE('IsExternal',$,IFCBOOLEAN(.T.),$);
#82=IFCPROPERTYSINGLEVALUE('NetPlannedArea',$,IFCAREAMEASURE(1.),$);
#83=IFCOWNERHISTORY(#3,#4,.READWRITE.,.ADDED.,1790138362,#3,#4,1790138362);
#84=IFCPROPERTYSET('2JprYep_z9VvrmCux7V2H_',#83,'ePset_Space',$,(#87,#88,#89,#90,#91,#92));
#85=IFCOWNERHISTORY(#3,#4,.READWRITE.,.ADDED.,1790138362,#3,#4,1790138362);
#86=IFCRELDEFINESBYPROPERTIES('08qNCouHH0HfaaIIIoXBDI',#85,$,$,(#45),#84);
#87=IFCPROPERTYSINGLEVALUE('SignageRoomNumber',$,IFCIDENTIFIER('201'),$);
#88=IFCPROPERTYSINGLEVALUE('DesignAreaLoad',$,IFCREAL(3.),$);
#89=IFCPROPERTYSINGLEVALUE('DesignPointLoad',$,IFCREAL(2.),$);
#90=IFCPROPERTYSINGLEVALUE('VibrationRequirements',$,IFCLABEL('ISO Residential (Night)'),$);
#91=IFCPROPERTYSINGLEVALUE('UsageUnitReference',$,IFCIDENTIFIER('UsageUnitReference'),$);
#92=IFCPROPERTYSINGLEVALUE('Checkliste',$,IFCTEXT('Checkliste'),$);
#93=IFCOWNERHISTORY(#3,#4,.READWRITE.,.ADDED.,1790138362,#3,#4,1790138362);
#94=IFCPROPERTYSET('2WoMWqpjn3qgmDiYekaGq0',#93,'ePset_SpaceRequirement',$,(#97,#98,#99));
#95=IFCOWNERHISTORY(#3,#4,.READWRITE.,.ADDED.,1790138362,#3,#4,1790138362);
#96=IFCRELDEFINESBYPROPERTIES('0Vp_btkF5BfBOZThqpSG09',#95,$,$,(#45),#94);
#97=IFCPROPERTYSINGLEVALUE('DesignAreaLoad',$,IFCREAL(3.),$);
#98=IFCPROPERTYSINGLEVALUE('DesignPointLoad',$,IFCREAL(2.),$);
#99=IFCPROPERTYSINGLEVALUE('VibrationRequirements',$,IFCLABEL('ISO Residential (Night)'),$);
#100=IFCOWNERHISTORY(#3,#4,.READWRITE.,.ADDED.,1790138362,#3,#4,1790138362);
#101=IFCPROPERTYSET('1jeaqGNDr5qeNKE_4dHJBZ',#100,'Pset_SpaceCoveringRequirements',$,(#104));
#102=IFCOWNERHISTORY(#3,#4,.READWRITE.,.ADDED.,1790138362,#3,#4,1790138362);
#103=IFCRELDEFINESBYPROPERTIES('3O6ifwc_T1RBgXdb1UNORG',#102,$,$,(#45),#101);
#104=IFCPROPERTYSINGLEVALUE('FloorCovering',$,IFCLABEL('Beton'),$);
#105=IFCCARTESIANPOINT((0.,0.,0.002));
#106=IFCDIRECTION((0.,0.,1.));
#107=IFCDIRECTION((1.,0.,0.));
#108=IFCAXIS2PLACEMENT3D(#105,#106,#107);
#109=IFCLOCALPLACEMENT(#43,#108);
#110=IFCOWNERHISTORY(#3,#4,.READWRITE.,.MODIFIED.,1790138362,#3,#4,1790138362);
#111=IFCSLAB('3f4mbKeWnAW8jDvFvqz8n5',#110,'201-FloorSlab',$,$,#118,#133,$,.FLOOR.);
#112=IFCOWNERHISTORY(#3,#4,.READWRITE.,.MODIFIED.,1790138362,#3,#4,1790138362);
#113=IFCRELCONTAINEDINSPATIALSTRUCTURE('1UezxjqUz6ZgueUjWdiXyT',#112,$,$,(#179,#383,#506,#135,#111,#157,#223,#245,#624,#518,#201),#36);
#114=IFCCARTESIANPOINT((0.,0.,-0.29999999999999999));
#115=IFCDIRECTION((0.,0.,1.));
#116=IFCDIRECTION((1.,0.,0.));
#117=IFCAXIS2PLACEMENT3D(#114,#115,#116);
#118=IFCLOCALPLACEMENT(#43,#117);
#119=IFCCARTESIANPOINT((0.,0.,0.));
#120=IFCCARTESIANPOINT((2.3599999999999999,0.,0.));
#121=IFCCARTESIANPOINT((2.3599999999999999,4.,0.));
#122=IFCCARTESIANPOINT((0.,4.,0.));
#123=IFCCARTESIANPOINT((0.,0.,0.));
#124=IFCPOLYLINE((#119,#120,#121,#122,#123));
#125=IFCARBITRARYCLOSEDPROFILEDEF(.AREA.,$,#124);
#126=IFCCARTESIANPOINT((0.,0.,0.));
#127=IFCDIRECTION((0.,0.,1.));
#128=IFCDIRECTION((1.,0.,0.));
#129=IFCAXIS2PLACEMENT3D(#126,#127,#128);
#130=IFCDIRECTION((0.,0.,1.));
#131=IFCEXTRUDEDAREASOLID(#125,#129,#130,0.29999999999999999);
#132=IFCSHAPEREPRESENTATION(#16,'Body','SweptSolid',(#131));
#133=IFCPRODUCTDEFINITIONSHAPE($,$,(#132));
#134=IFCOWNERHISTORY(#3,#4,.READWRITE.,.MODIFIED.,1790138362,#3,#4,1790138362);
#135=IFCCOVERING('2eMYHkiHjD4hd$GcZBOxkA',#134,'201-CeilingCovering',$,$,#140,#155,$,.CEILING.);
#136=IFCCARTESIANPOINT((0.,0.,2.6000000000000001));
#137=IFCDIRECTION((0.,0.,1.));
#138=IFCDIRECTION((1.,0.,0.));
#139=IFCAXIS2PLACEMENT3D(#136,#137,#138);
#140=IFCLOCALPLACEMENT(#43,#139);
#141=IFCCARTESIANPOINT((0.,0.,0.));
#142=IFCCARTESIANPOINT((2.,0.,0.));
#143=IFCCARTESIANPOINT((2.,4.,0.));
#144=IFCCARTESIANPOINT((0.,4.,0.));
#145=IFCCARTESIANPOINT((0.,0.,0.));
#146=IFCPOLYLINE((#141,#142,#143,#144,#145));
#147=IFCARBITRARYCLOSEDPROFILEDEF(.AREA.,$,#146);
#148=IFCCARTESIANPOINT((0.,0.,0.));
#149=IFCDIRECTION((0.,0.,1.));
#150=IFCDIRECTION((1.,0.,0.));
#151=IFCAXIS2PLACEMENT3D(#148,#149,#150);
#152=IFCDIRECTION((0.,0.,1.));
#153=IFCEXTRUDEDAREASOLID(#147,#151,#152,0.10000000000000001);
#154=IFCSHAPEREPRESENTATION(#16,'Body','SweptSolid',(#153));
#155=IFCPRODUCTDEFINITIONSHAPE($,$,(#154));
#156=IFCOWNERHISTORY(#3,#4,.READWRITE.,.MODIFIED.,1790138362,#3,#4,1790138362);
#157=IFCSLAB('2NSN9bx2DAkegLG3woWfkx',#156,'201-CeilingSlab',$,$,#162,#177,$,.FLOOR.);
#158=IFCCARTESIANPOINT((0.,0.,2.7999999999999998));
#159=IFCDIRECTION((0.,0.,1.));
#160=IFCDIRECTION((1.,0.,0.));
#161=IFCAXIS2PLACEMENT3D(#158,#159,#160);
#162=IFCLOCALPLACEMENT(#43,#161);
#163=IFCCARTESIANPOINT((0.,0.,0.));
#164=IFCCARTESIANPOINT((2.3599999999999999,0.,0.));
#165=IFCCARTESIANPOINT((2.3599999999999999,4.,0.));
#166=IFCCARTESIANPOINT((0.,4.,0.));
#167=IFCCARTESIANPOINT((0.,0.,0.));
#168=IFCPOLYLINE((#163,#164,#165,#166,#167));
#169=IFCARBITRARYCLOSEDPROFILEDEF(.AREA.,$,#168);
#170=IFCCARTESIANPOINT((0.,0.,0.));
#171=IFCDIRECTION((0.,0.,1.));
#172=IFCDIRECTION((1.,0.,0.));
#173=IFCAXIS2PLACEMENT3D(#170,#171,#172);
#174=IFCDIRECTION((0.,0.,1.));
#175=IFCEXTRUDEDAREASOLID(#169,#173,#174,0.29999999999999999);
#176=IFCSHAPEREPRESENTATION(#16,'Body','SweptSolid',(#175));
#177=IFCPRODUCTDEFINITIONSHAPE($,$,(#176));
#178=IFCOWNERHISTORY(#3,#4,.READWRITE.,.MODIFIED.,1790138362,#3,#4,1790138362);
#179=IFCSLAB('0ZCkPFNjbBKBPbugLjgAu3',#178,'201-BalconySlab',$,$,#184,#199,$,.FLOOR.);
#180=IFCCARTESIANPOINT((0.,0.,-0.29999999999999999));
#181=IFCDIRECTION((0.,0.,1.));
#182=IFCDIRECTION((1.,0.,0.));
#183=IFCAXIS2PLACEMENT3D(#180,#181,#182);
#184=IFCLOCALPLACEMENT(#43,#183);
#185=IFCCARTESIANPOINT((2.3599999999999999,0.,0.));
#186=IFCCARTESIANPOINT((4.4199999999999999,0.,0.));
#187=IFCCARTESIANPOINT((4.4199999999999999,4.,0.));
#188=IFCCARTESIANPOINT((2.3599999999999999,4.,0.));
#189=IFCCARTESIANPOINT((2.3599999999999999,0.,0.));
#190=IFCPOLYLINE((#185,#186,#187,#188,#189));
#191=IFCARBITRARYCLOSEDPROFILEDEF(.AREA.,$,#190);
#192=IFCCARTESIANPOINT((0.,0.,0.));
#193=IFCDIRECTION((0.,0.,1.));
#194=IFCDIRECTION((1.,0.,0.));
#195=IFCAXIS2PLACEMENT3D(#192,#193,#194);
#196=IFCDIRECTION((0.,0.,1.));
#197=IFCEXTRUDEDAREASOLID(#191,#195,#196,0.29999999999999999);
#198=IFCSHAPEREPRESENTATION(#16,'Body','SweptSolid',(#197));
#199=IFCPRODUCTDEFINITIONSHAPE($,$,(#198));
#200=IFCOWNERHISTORY(#3,#4,.READWRITE.,.MODIFIED.,1790138362,#3,#4,1790138362);
#201=IFCCOVERING('0Do1HRlcr4ePTMKi8ODMyL',#200,'Bodenbelag-Aussen',$,$,#206,#221,$,.FLOORING.);
#202=IFCCARTESIANPOINT((0.,0.,0.));
#203=IFCDIRECTION((0.,0.,1.));
#204=IFCDIRECTION((1.,0.,0.));
#205=IFCAXIS2PLACEMENT3D(#202,#203,#204);
#206=IFCLOCALPLACEMENT(#43,#205);
#207=IFCCARTESIANPOINT((2.3599999999999999,0.,0.));
#208=IFCCARTESIANPOINT((4.4199999999999999,0.,0.));
#209=IFCCARTESIANPOINT((4.4199999999999999,4.,0.));
#210=IFCCARTESIANPOINT((2.3599999999999999,4.,0.));
#211=IFCCARTESIANPOINT((2.3599999999999999,0.,0.));
#212=IFCPOLYLINE((#207,#208,#209,#210,#211));
#213=IFCARBITRARYCLOSEDPROFILEDEF(.AREA.,$,#212);
#214=IFCCARTESIANPOINT((0.,0.,0.));
#215=IFCDIRECTION((0.,0.,1.));
#216=IFCDIRECTION((1.,0.,0.));
#217=IFCAXIS2PLACEMENT3D(#214,#215,#216);
#218=IFCDIRECTION((0.,0.,1.));
#219=IFCEXTRUDEDAREASOLID(#213,#217,#218,0.10000000000000001);
#220=IFCSHAPEREPRESENTATION(#16,'Body','SweptSolid',(#219));
#221=IFCPRODUCTDEFINITIONSHAPE($,$,(#220));
#222=IFCOWNERHISTORY(#3,#4,.READWRITE.,.MODIFIED.,1790138362,#3,#4,1790138362);
#223=IFCWALL('1upsk2P2X60R5pfIokJZn8',#222,'201-ExteriorWall',$,$,#228,#243,$,.SOLIDWALL.);
#224=IFCCARTESIANPOINT((2.3599999999999999,0.,0.));
#225=IFCDIRECTION((0.,0.,1.));
#226=IFCDIRECTION((0.,1.,0.));
#227=IFCAXIS2PLACEMENT3D(#224,#225,#226);
#228=IFCLOCALPLACEMENT(#43,#227);
#229=IFCCARTESIANPOINT((0.,0.,0.));
#230=IFCCARTESIANPOINT((4.,0.,0.));
#231=IFCCARTESIANPOINT((4.,0.35999999999999999,0.));
#232=IFCCARTESIANPOINT((0.,0.35999999999999999,0.));
#233=IFCCARTESIANPOINT((0.,0.,0.));
#234=IFCPOLYLINE((#229,#230,#231,#232,#233));
#235=IFCARBITRARYCLOSEDPROFILEDEF(.AREA.,$,#234);
#236=IFCCARTESIANPOINT((0.,0.,0.));
#237=IFCDIRECTION((0.,0.,1.));
#238=IFCDIRECTION((1.,0.,0.));
#239=IFCAXIS2PLACEMENT3D(#236,#237,#238);
#240=IFCDIRECTION((0.,0.,1.));
#241=IFCEXTRUDEDAREASOLID(#235,#239,#240,2.7999999999999998);
#242=IFCSHAPEREPRESENTATION(#16,'Body','SweptSolid',(#241));
#243=IFCPRODUCTDEFINITIONSHAPE($,$,(#242));
#244=IFCOWNERHISTORY(#3,#4,.READWRITE.,.MODIFIED.,1790138362,#3,#4,1790138362);
#245=IFCCOVERING('20yuvsY4f9SweS_6yQj01n',#244,'201-Cladding',$,$,#250,#265,$,.CLADDING.);
#246=IFCCARTESIANPOINT((2.4199999999999995,0.,0.));
#247=IFCDIRECTION((0.,0.,1.));
#248=IFCDIRECTION((0.,1.,0.));
#249=IFCAXIS2PLACEMENT3D(#246,#247,#248);
#250=IFCLOCALPLACEMENT(#43,#249);
#251=IFCCARTESIANPOINT((0.,0.,0.));
#252=IFCCARTESIANPOINT((4.,0.,0.));
#253=IFCCARTESIANPOINT((4.,0.050000000000000003,0.));
#254=IFCCARTESIANPOINT((0.,0.050000000000000003,0.));
#255=IFCCARTESIANPOINT((0.,0.,0.));
#256=IFCPOLYLINE((#251,#252,#253,#254,#255));
#257=IFCARBITRARYCLOSEDPROFILEDEF(.AREA.,$,#256);
#258=IFCCARTESIANPOINT((0.,0.,0.));
#259=IFCDIRECTION((0.,0.,1.));
#260=IFCDIRECTION((1.,0.,0.));
#261=IFCAXIS2PLACEMENT3D(#258,#259,#260);
#262=IFCDIRECTION((0.,0.,1.));
#263=IFCEXTRUDEDAREASOLID(#257,#261,#262,3.0999999999999996);
#264=IFCSHAPEREPRESENTATION(#16,'Body','SweptSolid',(#263));
#265=IFCPRODUCTDEFINITIONSHAPE($,$,(#264));
#266=IFCOWNERHISTORY(#3,#4,.READWRITE.,.MODIFIED.,1790138362,#3,#4,1790138362);
#267=IFCOPENINGELEMENT('0O_LtBVqz7ZhcBtbECKhrv',#266,'201-DoorOpening',$,$,#294,#287,$,.OPENING.);
#273=IFCCARTESIANPOINT((2.7000000000000002,-0.01,0.));
#274=IFCCARTESIANPOINT((3.6000000000000001,-0.01,0.));
#275=IFCCARTESIANPOINT((3.6000000000000001,0.38,0.));
#276=IFCCARTESIANPOINT((2.7000000000000002,0.38,0.));
#277=IFCCARTESIANPOINT((2.7000000000000002,-0.01,0.));
#278=IFCPOLYLINE((#273,#274,#275,#276,#277));
#279=IFCARBITRARYCLOSEDPROFILEDEF(.AREA.,$,#278);
#280=IFCCARTESIANPOINT((0.,0.,0.));
#281=IFCDIRECTION((0.,0.,1.));
#282=IFCDIRECTION((1.,0.,0.));
#283=IFCAXIS2PLACEMENT3D(#280,#281,#282);
#284=IFCDIRECTION((0.,0.,1.));
#285=IFCEXTRUDEDAREASOLID(#279,#283,#284,2.1000000000000001);
#286=IFCSHAPEREPRESENTATION(#16,'Body','SweptSolid',(#285));
#287=IFCPRODUCTDEFINITIONSHAPE($,$,(#286));
#288=IFCOWNERHISTORY(#3,#4,.READWRITE.,.ADDED.,1790138362,#3,#4,1790138362);
#289=IFCRELVOIDSELEMENT('1iGP5pVjP7GRbTSkwlxd0G',#288,$,$,#223,#267);
#290=IFCCARTESIANPOINT((0.,0.,0.));
#291=IFCDIRECTION((0.,0.,1.));
#292=IFCDIRECTION((1.,0.,0.));
#293=IFCAXIS2PLACEMENT3D(#290,#291,#292);
#294=IFCLOCALPLACEMENT(#228,#293);
#295=IFCOWNERHISTORY(#3,#4,.READWRITE.,.MODIFIED.,1790138362,#3,#4,1790138362);
#296=IFCOPENINGELEMENT('3xhV01Nyv3SB3X01lxBBXM',#295,'201-WindowOpening',$,$,#323,#316,$,.OPENING.);
#302=IFCCARTESIANPOINT((0.40000000000000002,-0.01,0.));
#303=IFCCARTESIANPOINT((1.6000000000000001,-0.01,0.));
#304=IFCCARTESIANPOINT((1.6000000000000001,0.38,0.));
#305=IFCCARTESIANPOINT((0.40000000000000002,0.38,0.));
#306=IFCCARTESIANPOINT((0.40000000000000002,-0.01,0.));
#307=IFCPOLYLINE((#302,#303,#304,#305,#306));
#308=IFCARBITRARYCLOSEDPROFILEDEF(.AREA.,$,#307);
#309=IFCCARTESIANPOINT((0.,0.,0.90000000000000002));
#310=IFCDIRECTION((0.,0.,1.));
#311=IFCDIRECTION((1.,0.,0.));
#312=IFCAXIS2PLACEMENT3D(#309,#310,#311);
#313=IFCDIRECTION((0.,0.,1.));
#314=IFCEXTRUDEDAREASOLID(#308,#312,#313,1.3999999999999999);
#315=IFCSHAPEREPRESENTATION(#16,'Body','SweptSolid',(#314));
#316=IFCPRODUCTDEFINITIONSHAPE($,$,(#315));
#317=IFCOWNERHISTORY(#3,#4,.READWRITE.,.ADDED.,1790138362,#3,#4,1790138362);
#318=IFCRELVOIDSELEMENT('0kdjLYF7X6pwz56ymMcofz',#317,$,$,#223,#296);
#319=IFCCARTESIANPOINT((0.,0.,0.));
#320=IFCDIRECTION((0.,0.,1.));
#321=IFCDIRECTION((1.,0.,0.));
#322=IFCAXIS2PLACEMENT3D(#319,#320,#321);
#323=IFCLOCALPLACEMENT(#228,#322);
#324=IFCOWNERHISTORY(#3,#4,.READWRITE.,.MODIFIED.,1790138362,#3,#4,1790138362);
#325=IFCOPENINGELEMENT('1Mk88KTSv3rAvebFUujNps',#324,'201-DoorOpening-Cladding',$,$,#352,#345,$,.OPENING.);
#331=IFCCARTESIANPOINT((2.7000000000000002,-0.01,0.));
#332=IFCCARTESIANPOINT((3.6000000000000001,-0.01,0.));
#333=IFCCARTESIANPOINT((3.6000000000000001,0.070000000000000007,0.));
#334=IFCCARTESIANPOINT((2.7000000000000002,0.070000000000000007,0.));
#335=IFCCARTESIANPOINT((2.7000000000000002,-0.01,0.));
#336=IFCPOLYLINE((#331,#332,#333,#334,#335));
#337=IFCARBITRARYCLOSEDPROFILEDEF(.AREA.,$,#336);
#338=IFCCARTESIANPOINT((0.,0.,0.));
#339=IFCDIRECTION((0.,0.,1.));
#340=IFCDIRECTION((1.,0.,0.));
#341=IFCAXIS2PLACEMENT3D(#338,#339,#340);
#342=IFCDIRECTION((0.,0.,1.));
#343=IFCEXTRUDEDAREASOLID(#337,#341,#342,2.1000000000000001);
#344=IFCSHAPEREPRESENTATION(#16,'Body','SweptSolid',(#343));
#345=IFCPRODUCTDEFINITIONSHAPE($,$,(#344));
#346=IFCOWNERHISTORY(#3,#4,.READWRITE.,.ADDED.,1790138362,#3,#4,1790138362);
#347=IFCRELVOIDSELEMENT('3zrXH4CmH5eubbxjI0$gcR',#346,$,$,#245,#325);
#348=IFCCARTESIANPOINT((0.,0.,0.));
#349=IFCDIRECTION((0.,0.,1.));
#350=IFCDIRECTION((1.,0.,0.));
#351=IFCAXIS2PLACEMENT3D(#348,#349,#350);
#352=IFCLOCALPLACEMENT(#250,#351);
#353=IFCOWNERHISTORY(#3,#4,.READWRITE.,.MODIFIED.,1790138362,#3,#4,1790138362);
#354=IFCOPENINGELEMENT('1_6NIePIH4QghIUg8wzfR8',#353,'201-WindowOpening-Cladding',$,$,#381,#374,$,.OPENING.);
#360=IFCCARTESIANPOINT((0.40000000000000002,-0.01,0.));
#361=IFCCARTESIANPOINT((1.6000000000000001,-0.01,0.));
#362=IFCCARTESIANPOINT((1.6000000000000001,0.070000000000000007,0.));
#363=IFCCARTESIANPOINT((0.40000000000000002,0.070000000000000007,0.));
#364=IFCCARTESIANPOINT((0.40000000000000002,-0.01,0.));
#365=IFCPOLYLINE((#360,#361,#362,#363,#364));
#366=IFCARBITRARYCLOSEDPROFILEDEF(.AREA.,$,#365);
#367=IFCCARTESIANPOINT((0.,0.,0.90000000000000002));
#368=IFCDIRECTION((0.,0.,1.));
#369=IFCDIRECTION((1.,0.,0.));
#370=IFCAXIS2PLACEMENT3D(#367,#368,#369);
#371=IFCDIRECTION((0.,0.,1.));
#372=IFCEXTRUDEDAREASOLID(#366,#370,#371,1.3999999999999999);
#373=IFCSHAPEREPRESENTATION(#16,'Body','SweptSolid',(#372));
#374=IFCPRODUCTDEFINITIONSHAPE($,$,(#373));
#375=IFCOWNERHISTORY(#3,#4,.READWRITE.,.ADDED.,1790138362,#3,#4,1790138362);
#376=IFCRELVOIDSELEMENT('10Uw8hdgHF9Awz3FZgR85y',#375,$,$,#245,#354);
#377=IFCCARTESIANPOINT((0.,0.,0.));
#378=IFCDIRECTION((0.,0.,1.));
#379=IFCDIRECTION((1.,0.,0.));
#380=IFCAXIS2PLACEMENT3D(#377,#378,#379);
#381=IFCLOCALPLACEMENT(#250,#380);
#382=IFCOWNERHISTORY(#3,#4,.READWRITE.,.MODIFIED.,1790138362,#3,#4,1790138362);
#383=IFCDOOR('2X$rOuskL33xOHVEDFePfm',#382,'201-Door',$,$,#388,#495,$,$,$,.DOOR.,$,$);
#384=IFCCARTESIANPOINT((2.3599999999999999,0.,0.));
#385=IFCDIRECTION((0.,0.,1.));
#386=IFCDIRECTION((0.,1.,0.));
#387=IFCAXIS2PLACEMENT3D(#384,#385,#386);
#388=IFCLOCALPLACEMENT(#43,#387);
#389=IFCCARTESIANPOINT((2.7000000000000002,-0.,0.));
#390=IFCCARTESIANPOINT((2.8000000000000003,-0.,0.));
#391=IFCCARTESIANPOINT((2.8000000000000003,0.19800000000000001,0.));
#392=IFCCARTESIANPOINT((2.7000000000000002,0.19800000000000001,0.));
#393=IFCCARTESIANPOINT((2.7000000000000002,-0.,0.));
#394=IFCPOLYLINE((#389,#390,#391,#392,#393));
#395=IFCARBITRARYCLOSEDPROFILEDEF(.AREA.,$,#394);
#396=IFCCARTESIANPOINT((0.,0.,0.));
#397=IFCDIRECTION((0.,0.,1.));
#398=IFCDIRECTION((1.,0.,0.));
#399=IFCAXIS2PLACEMENT3D(#396,#397,#398);
#400=IFCDIRECTION((0.,0.,1.));
#401=IFCEXTRUDEDAREASOLID(#395,#399,#400,2.1000000000000001);
#402=IFCCARTESIANPOINT((3.5,-0.,0.));
#403=IFCCARTESIANPOINT((3.6000000000000001,-0.,0.));
#404=IFCCARTESIANPOINT((3.6000000000000001,0.19800000000000001,0.));
#405=IFCCARTESIANPOINT((3.5,0.19800000000000001,0.));
#406=IFCCARTESIANPOINT((3.5,-0.,0.));
#407=IFCPOLYLINE((#402,#403,#404,#405,#406));
#408=IFCARBITRARYCLOSEDPROFILEDEF(.AREA.,$,#407);
#409=IFCCARTESIANPOINT((0.,0.,0.));
#410=IFCDIRECTION((0.,0.,1.));
#411=IFCDIRECTION((1.,0.,0.));
#412=IFCAXIS2PLACEMENT3D(#409,#410,#411);
#413=IFCDIRECTION((0.,0.,1.));
#414=IFCEXTRUDEDAREASOLID(#408,#412,#413,2.1000000000000001);
#415=IFCCARTESIANPOINT((2.8000000000000003,-0.,0.));
#416=IFCCARTESIANPOINT((3.5,-0.,0.));
#417=IFCCARTESIANPOINT((3.5,0.19800000000000001,0.));
#418=IFCCARTESIANPOINT((2.8000000000000003,0.19800000000000001,0.));
#419=IFCCARTESIANPOINT((2.8000000000000003,-0.,0.));
#420=IFCPOLYLINE((#415,#416,#417,#418,#419));
#421=IFCARBITRARYCLOSEDPROFILEDEF(.AREA.,$,#420);
#422=IFCCARTESIANPOINT((0.,0.,2.));
#423=IFCDIRECTION((0.,0.,1.));
#424=IFCDIRECTION((1.,0.,0.));
#425=IFCAXIS2PLACEMENT3D(#422,#423,#424);
#426=IFCDIRECTION((0.,0.,1.));
#427=IFCEXTRUDEDAREASOLID(#421,#425,#426,0.10000000000000009);
#428=IFCCARTESIANPOINT((2.8000000000000003,-0.,0.));
#429=IFCCARTESIANPOINT((3.5,-0.,0.));
#430=IFCCARTESIANPOINT((3.5,0.19800000000000001,0.));
#431=IFCCARTESIANPOINT((2.8000000000000003,0.19800000000000001,0.));
#432=IFCCARTESIANPOINT((2.8000000000000003,-0.,0.));
#433=IFCPOLYLINE((#428,#429,#430,#431,#432));
#434=IFCARBITRARYCLOSEDPROFILEDEF(.AREA.,$,#433);
#435=IFCCARTESIANPOINT((0.,0.,0.));
#436=IFCDIRECTION((0.,0.,1.));
#437=IFCDIRECTION((1.,0.,0.));
#438=IFCAXIS2PLACEMENT3D(#435,#436,#437);
#439=IFCDIRECTION((0.,0.,1.));
#440=IFCEXTRUDEDAREASOLID(#434,#438,#439,0.025000000000000001);
#441=IFCCARTESIANPOINT((2.8000000000000003,-0.,0.));
#442=IFCCARTESIANPOINT((3.5,-0.,0.));
#443=IFCCARTESIANPOINT((3.5,0.19800000000000001,0.));
#444=IFCCARTESIANPOINT((2.8000000000000003,0.19800000000000001,0.));
#445=IFCCARTESIANPOINT((2.8000000000000003,-0.,0.));
#446=IFCPOLYLINE((#441,#442,#443,#444,#445));
#447=IFCARBITRARYCLOSEDPROFILEDEF(.AREA.,$,#446);
#448=IFCCARTESIANPOINT((0.,0.,1.0662500000000001));
#449=IFCDIRECTION((0.,0.,1.));
#450=IFCDIRECTION((1.,0.,0.));
#451=IFCAXIS2PLACEMENT3D(#448,#449,#450);
#452=IFCDIRECTION((0.,0.,1.));
#453=IFCEXTRUDEDAREASOLID(#447,#451,#452,0.089999999999999858);
#454=IFCCARTESIANPOINT((2.8000000000000003,0.014999999999999999,0.));
#455=IFCCARTESIANPOINT((3.5,0.014999999999999999,0.));
#456=IFCCARTESIANPOINT((3.5,0.055,0.));
#457=IFCCARTESIANPOINT((2.8000000000000003,0.055,0.));
#458=IFCCARTESIANPOINT((2.8000000000000003,0.014999999999999999,0.));
#459=IFCPOLYLINE((#454,#455,#456,#457,#458));
#460=IFCARBITRARYCLOSEDPROFILEDEF(.AREA.,$,#459);
#461=IFCCARTESIANPOINT((0.,0.,0.025000000000000001));
#462=IFCDIRECTION((0.,0.,1.));
#463=IFCDIRECTION((1.,0.,0.));
#464=IFCAXIS2PLACEMENT3D(#461,#462,#463);
#465=IFCDIRECTION((0.,0.,1.));
#466=IFCEXTRUDEDAREASOLID(#460,#464,#465,1.0412500000000002);
#467=IFCCARTESIANPOINT((2.8000000000000003,0.014999999999999999,0.));
#468=IFCCARTESIANPOINT((3.5,0.014999999999999999,0.));
#469=IFCCARTESIANPOINT((3.5,0.055,0.));
#470=IFCCARTESIANPOINT((2.8000000000000003,0.055,0.));
#471=IFCCARTESIANPOINT((2.8000000000000003,0.014999999999999999,0.));
#472=IFCPOLYLINE((#467,#468,#469,#470,#471));
#473=IFCARBITRARYCLOSEDPROFILEDEF(.AREA.,$,#472);
#474=IFCCARTESIANPOINT((0.,0.,1.15625));
#475=IFCDIRECTION((0.,0.,1.));
#476=IFCDIRECTION((1.,0.,0.));
#477=IFCAXIS2PLACEMENT3D(#474,#475,#476);
#478=IFCDIRECTION((0.,0.,1.));
#479=IFCEXTRUDEDAREASOLID(#473,#477,#478,0.84375);
#480=IFCSURFACESTYLE('Frame',.BOTH.,(#481));
#481=IFCSURFACESTYLESHADING(#482,0.);
#482=IFCCOLOURRGB($,1.,1.,1.);
#483=IFCSURFACESTYLE('Glass',.BOTH.,(#484));
#484=IFCSURFACESTYLESHADING(#485,0.69999999999999996);
#485=IFCCOLOURRGB($,0.69999999999999996,0.84999999999999998,0.94999999999999996);
#486=IFCMATERIAL('Frame',$,'metal');
#487=IFCMATERIAL('Glass',$,'glass');
#488=IFCSTYLEDITEM($,(#480),'Frame');
#489=IFCSTYLEDREPRESENTATION(#16,'Body',$,(#488));
#490=IFCMATERIALDEFINITIONREPRESENTATION($,$,(#489),#486);
#491=IFCSTYLEDITEM($,(#483),'Glass');
#492=IFCSTYLEDREPRESENTATION(#16,'Body',$,(#491));
#493=IFCMATERIALDEFINITIONREPRESENTATION($,$,(#492),#487);
#494=IFCSHAPEREPRESENTATION(#16,'Body','SweptSolid',(#401,#414,#427,#440,#453,#466));
#495=IFCPRODUCTDEFINITIONSHAPE($,$,(#494));
#496=IFCSTYLEDITEM(#401,(#480),$);
#497=IFCSTYLEDITEM(#414,(#480),$);
#498=IFCSTYLEDITEM(#427,(#480),$);
#499=IFCSTYLEDITEM(#440,(#480),$);
#500=IFCSTYLEDITEM(#453,(#480),$);
#501=IFCSTYLEDITEM(#466,(#480),$);
#502=IFCOWNERHISTORY(#3,#4,.READWRITE.,.MODIFIED.,1790138362,#3,#4,1790138362);
#503=IFCRELASSOCIATESMATERIAL('1U9R3oXK93Z8OFkHpgqLdu',#502,$,$,(#518,#383),#486);
#504=IFCRELFILLSELEMENT('1YOOGIUdnFdhU_1NjKMxx6',$,$,$,#267,#383);
#505=IFCOWNERHISTORY(#3,#4,.READWRITE.,.MODIFIED.,1790138362,#3,#4,1790138362);
#506=IFCPLATE('2SUSCSZ298YQdtrdwRkIsJ',#505,'201-Door-Glass',$,'Glass',#511,#513,$,.CURTAIN_PANEL.);
#507=IFCCARTESIANPOINT((2.3599999999999999,0.,0.));
#508=IFCDIRECTION((0.,0.,1.));
#509=IFCDIRECTION((0.,1.,0.));
#510=IFCAXIS2PLACEMENT3D(#507,#508,#509);
#511=IFCLOCALPLACEMENT(#43,#510);
#512=IFCSHAPEREPRESENTATION(#16,'Body','SweptSolid',(#479));
#513=IFCPRODUCTDEFINITIONSHAPE($,$,(#512));
#514=IFCSTYLEDITEM(#479,(#483),$);
#515=IFCOWNERHISTORY(#3,#4,.READWRITE.,.MODIFIED.,1790138362,#3,#4,1790138362);
#516=IFCRELASSOCIATESMATERIAL('19za$TR3DFYPI3fa5UQEas',#515,$,$,(#624,#506),#487);
#517=IFCOWNERHISTORY(#3,#4,.READWRITE.,.MODIFIED.,1790138362,#3,#4,1790138362);
#518=IFCWINDOW('0TaX6TEyv7e9Vc287z0iCZ',#517,'201-Window',$,$,#523,#616,$,$,$,.WINDOW.,$,$);
#519=IFCCARTESIANPOINT((2.3599999999999999,0.,0.));
#520=IFCDIRECTION((0.,0.,1.));
#521=IFCDIRECTION((0.,1.,0.));
#522=IFCAXIS2PLACEMENT3D(#519,#520,#521);
#523=IFCLOCALPLACEMENT(#43,#522);
#524=IFCCARTESIANPOINT((0.40000000000000002,-0.,0.));
#525=IFCCARTESIANPOINT((0.5,-0.,0.));
#526=IFCCARTESIANPOINT((0.5,0.19800000000000001,0.));
#527=IFCCARTESIANPOINT((0.40000000000000002,0.19800000000000001,0.));
#528=IFCCARTESIANPOINT((0.40000000000000002,-0.,0.));
#529=IFCPOLYLINE((#524,#525,#526,#527,#528));
#530=IFCARBITRARYCLOSEDPROFILEDEF(.AREA.,$,#529);
#531=IFCCARTESIANPOINT((0.,0.,0.90000000000000002));
#532=IFCDIRECTION((0.,0.,1.));
#533=IFCDIRECTION((1.,0.,0.));
#534=IFCAXIS2PLACEMENT3D(#531,#532,#533);
#535=IFCDIRECTION((0.,0.,1.));
#536=IFCEXTRUDEDAREASOLID(#530,#534,#535,1.3999999999999999);
#537=IFCCARTESIANPOINT((1.5,-0.,0.));
#538=IFCCARTESIANPOINT((1.6000000000000001,-0.,0.));
#539=IFCCARTESIANPOINT((1.6000000000000001,0.19800000000000001,0.));
#540=IFCCARTESIANPOINT((1.5,0.19800000000000001,0.));
#541=IFCCARTESIANPOINT((1.5,-0.,0.));
#542=IFCPOLYLINE((#537,#538,#539,#540,#541));
#543=IFCARBITRARYCLOSEDPROFILEDEF(.AREA.,$,#542);
#544=IFCCARTESIANPOINT((0.,0.,0.90000000000000002));
#545=IFCDIRECTION((0.,0.,1.));
#546=IFCDIRECTION((1.,0.,0.));
#547=IFCAXIS2PLACEMENT3D(#544,#545,#546);
#548=IFCDIRECTION((0.,0.,1.));
#549=IFCEXTRUDEDAREASOLID(#543,#547,#548,1.3999999999999999);
#550=IFCCARTESIANPOINT((0.5,-0.,0.));
#551=IFCCARTESIANPOINT((1.5,-0.,0.));
#552=IFCCARTESIANPOINT((1.5,0.19800000000000001,0.));
#553=IFCCARTESIANPOINT((0.5,0.19800000000000001,0.));
#554=IFCCARTESIANPOINT((0.5,-0.,0.));
#555=IFCPOLYLINE((#550,#551,#552,#553,#554));
#556=IFCARBITRARYCLOSEDPROFILEDEF(.AREA.,$,#555);
#557=IFCCARTESIANPOINT((0.,0.,2.1999999999999997));
#558=IFCDIRECTION((0.,0.,1.));
#559=IFCDIRECTION((1.,0.,0.));
#560=IFCAXIS2PLACEMENT3D(#557,#558,#559);
#561=IFCDIRECTION((0.,0.,1.));
#562=IFCEXTRUDEDAREASOLID(#556,#560,#561,0.10000000000000009);
#563=IFCCARTESIANPOINT((0.5,-0.,0.));
#564=IFCCARTESIANPOINT((1.5,-0.,0.));
#565=IFCCARTESIANPOINT((1.5,0.19800000000000001,0.));
#566=IFCCARTESIANPOINT((0.5,0.19800000000000001,0.));
#567=IFCCARTESIANPOINT((0.5,-0.,0.));
#568=IFCPOLYLINE((#563,#564,#565,#566,#567));
#569=IFCARBITRARYCLOSEDPROFILEDEF(.AREA.,$,#568);
#570=IFCCARTESIANPOINT((0.,0.,0.90000000000000002));
#571=IFCDIRECTION((0.,0.,1.));
#572=IFCDIRECTION((1.,0.,0.));
#573=IFCAXIS2PLACEMENT3D(#570,#571,#572);
#574=IFCDIRECTION((0.,0.,1.));
#575=IFCEXTRUDEDAREASOLID(#569,#573,#574,0.099999999999999978);
#576=IFCCARTESIANPOINT((0.95999999999999996,-0.,0.));
#577=IFCCARTESIANPOINT((1.04,-0.,0.));
#578=IFCCARTESIANPOINT((1.04,0.19800000000000001,0.));
#579=IFCCARTESIANPOINT((0.95999999999999996,0.19800000000000001,0.));
#580=IFCCARTESIANPOINT((0.95999999999999996,-0.,0.));
#581=IFCPOLYLINE((#576,#577,#578,#579,#580));
#582=IFCARBITRARYCLOSEDPROFILEDEF(.AREA.,$,#581);
#583=IFCCARTESIANPOINT((0.,0.,1.));
#584=IFCDIRECTION((0.,0.,1.));
#585=IFCDIRECTION((1.,0.,0.));
#586=IFCAXIS2PLACEMENT3D(#583,#584,#585);
#587=IFCDIRECTION((0.,0.,1.));
#588=IFCEXTRUDEDAREASOLID(#582,#586,#587,1.1999999999999997);
#589=IFCCARTESIANPOINT((0.5,0.014999999999999999,0.));
#590=IFCCARTESIANPOINT((0.95999999999999996,0.014999999999999999,0.));
#591=IFCCARTESIANPOINT((0.95999999999999996,0.055,0.));
#592=IFCCARTESIANPOINT((0.5,0.055,0.));
#593=IFCCARTESIANPOINT((0.5,0.014999999999999999,0.));
#594=IFCPOLYLINE((#589,#590,#591,#592,#593));
#595=IFCARBITRARYCLOSEDPROFILEDEF(.AREA.,$,#594);
#596=IFCCARTESIANPOINT((0.,0.,1.));
#597=IFCDIRECTION((0.,0.,1.));
#598=IFCDIRECTION((1.,0.,0.));
#599=IFCAXIS2PLACEMENT3D(#596,#597,#598);
#600=IFCDIRECTION((0.,0.,1.));
#601=IFCEXTRUDEDAREASOLID(#595,#599,#600,1.1999999999999997);
#602=IFCCARTESIANPOINT((1.04,0.014999999999999999,0.));
#603=IFCCARTESIANPOINT((1.5,0.014999999999999999,0.));
#604=IFCCARTESIANPOINT((1.5,0.055,0.));
#605=IFCCARTESIANPOINT((1.04,0.055,0.));
#606=IFCCARTESIANPOINT((1.04,0.014999999999999999,0.));
#607=IFCPOLYLINE((#602,#603,#604,#605,#606));
#608=IFCARBITRARYCLOSEDPROFILEDEF(.AREA.,$,#607);
#609=IFCCARTESIANPOINT((0.,0.,1.));
#610=IFCDIRECTION((0.,0.,1.));
#611=IFCDIRECTION((1.,0.,0.));
#612=IFCAXIS2PLACEMENT3D(#609,#610,#611);
#613=IFCDIRECTION((0.,0.,1.));
#614=IFCEXTRUDEDAREASOLID(#608,#612,#613,1.1999999999999997);
#615=IFCSHAPEREPRESENTATION(#16,'Body','SweptSolid',(#536,#549,#562,#575,#588));
#616=IFCPRODUCTDEFINITIONSHAPE($,$,(#615));
#617=IFCSTYLEDITEM(#536,(#480),$);
#618=IFCSTYLEDITEM(#549,(#480),$);
#619=IFCSTYLEDITEM(#562,(#480),$);
#620=IFCSTYLEDITEM(#575,(#480),$);
#621=IFCSTYLEDITEM(#588,(#480),$);
#622=IFCRELFILLSELEMENT('1fEsIFFnL0Qh8az45QuQjb',$,$,$,#296,#518);
#623=IFCOWNERHISTORY(#3,#4,.READWRITE.,.MODIFIED.,1790138362,#3,#4,1790138362);
#624=IFCPLATE('3aJfdB7Tr3lQYvVReGsWrw',#623,'201-Window-Glass',$,'Glass',#629,#631,$,.CURTAIN_PANEL.);
#625=IFCCARTESIANPOINT((2.3599999999999999,0.,0.));
#626=IFCDIRECTION((0.,0.,1.));
#627=IFCDIRECTION((0.,1.,0.));
#628=IFCAXIS2PLACEMENT3D(#625,#626,#627);
#629=IFCLOCALPLACEMENT(#43,#628);
#630=IFCSHAPEREPRESENTATION(#16,'Body','SweptSolid',(#601,#614));
#631=IFCPRODUCTDEFINITIONSHAPE($,$,(#630));
#632=IFCSTYLEDITEM(#601,(#483),$);
#633=IFCSTYLEDITEM(#614,(#483),$);
#634=IFCOWNERHISTORY(#3,#4,.READWRITE.,.MODIFIED.,1790138362,#3,#4,1790138362);
#635=IFCSPACE('2HKj4KPl5DV8Jn_G6yuDUT',#634,'101',$,$,#640,#655,'Buero',$,.SPACE.,$);
#636=IFCCARTESIANPOINT((0.,0.,0.));
#637=IFCDIRECTION((0.,0.,1.));
#638=IFCDIRECTION((1.,0.,0.));
#639=IFCAXIS2PLACEMENT3D(#636,#637,#638);
#640=IFCLOCALPLACEMENT(#43,#639);
#641=IFCCARTESIANPOINT((0.,0.,0.));
#642=IFCCARTESIANPOINT((2.,0.,0.));
#643=IFCCARTESIANPOINT((2.,4.,0.));
#644=IFCCARTESIANPOINT((0.,4.,0.));
#645=IFCCARTESIANPOINT((0.,0.,0.));
#646=IFCPOLYLINE((#641,#642,#643,#644,#645));
#647=IFCARBITRARYCLOSEDPROFILEDEF(.AREA.,$,#646);
#648=IFCCARTESIANPOINT((0.,0.,0.));
#649=IFCDIRECTION((0.,0.,1.));
#650=IFCDIRECTION((1.,0.,0.));
#651=IFCAXIS2PLACEMENT3D(#648,#649,#650);
#652=IFCDIRECTION((0.,0.,1.));
#653=IFCEXTRUDEDAREASOLID(#647,#651,#652,2.7999999999999998);
#654=IFCSHAPEREPRESENTATION(#16,'Body','SweptSolid',(#653));
#655=IFCPRODUCTDEFINITIONSHAPE($,$,(#654));
#656=IFCOWNERHISTORY(#3,#4,.READWRITE.,.ADDED.,1790138362,#3,#4,1790138362);
#657=IFCELEMENTQUANTITY('0Gtkv4unv5Yuebm$Ef2geC',#656,'Qto_SpaceBaseQuantities',$,'BaseQuantities',(#660,#661,#662,#663,#664,#665,#666,#667));
#658=IFCOWNERHISTORY(#3,#4,.READWRITE.,.ADDED.,1790138362,#3,#4,1790138362);
#659=IFCRELDEFINESBYPROPERTIES('3JaJtcDcH3wPpog_USTmYn',#658,$,$,(#635),#657);
#660=IFCQUANTITYAREA('NetFloorArea',$,$,8.,$);
#661=IFCQUANTITYVOLUME('NetVolume',$,$,22.399999999999999,$);
#662=IFCQUANTITYLENGTH('Height',$,$,2.7999999999999998,$);
#663=IFCQUANTITYLENGTH('FinishCeilingHeight',$,$,2.6000000000000001,$);
#664=IFCQUANTITYAREA('GrossWallArea',$,$,1.,$);
#665=IFCQUANTITYAREA('NetWallArea',$,$,1.,$);
#666=IFCQUANTITYAREA('GrossFloorArea',$,$,8.,$);
#667=IFCQUANTITYVOLUME('GrossVolume',$,$,22.399999999999999,$);
#668=IFCOWNERHISTORY(#3,#4,.READWRITE.,.ADDED.,1790138362,#3,#4,1790138362);
#669=IFCPROPERTYSET('2SX57_Xeb8n94LLyfc4PbY',#668,'Pset_SpaceCommon',$,(#672,#673,#674,#675));
#670=IFCOWNERHISTORY(#3,#4,.READWRITE.,.ADDED.,1790138362,#3,#4,1790138362);
#671=IFCRELDEFINESBYPROPERTIES('3BTLdtGQr5ug22qEpX4Qi$',#670,$,$,(#635),#669);
#672=IFCPROPERTYSINGLEVALUE('Reference',$,IFCIDENTIFIER('HNF'),$);
#673=IFCPROPERTYSINGLEVALUE('IsExternal',$,IFCBOOLEAN(.F.),$);
#674=IFCPROPERTYSINGLEVALUE('NetPlannedArea',$,IFCAREAMEASURE(1.),$);
#675=IFCPROPERTYSINGLEVALUE('HandicapAccessible',$,IFCBOOLEAN(.T.),$);
#676=IFCOWNERHISTORY(#3,#4,.READWRITE.,.ADDED.,1790138362,#3,#4,1790138362);
#677=IFCPROPERTYSET('1m4zfgGIDBI8vW7_BJLuip',#676,'ePset_Space',$,(#680,#681,#682,#683,#684,#685,#686,#687,#688,#689,#690,#691,#692,#693,#694,#695,#696,#697,#698,#699));
#678=IFCOWNERHISTORY(#3,#4,.READWRITE.,.ADDED.,1790138362,#3,#4,1790138362);
#679=IFCRELDEFINESBYPROPERTIES('2HzJaBgIL9Ng6218X4Nu0N',#678,$,$,(#635),#677);
#680=IFCPROPERTYSINGLEVALUE('SignageRoomNumber',$,IFCIDENTIFIER('101'),$);
#681=IFCPROPERTYSINGLEVALUE('DesignAreaLoad',$,IFCREAL(3.),$);
#682=IFCPROPERTYSINGLEVALUE('DesignPointLoad',$,IFCREAL(2.),$);
#683=IFCPROPERTYSINGLEVALUE('VibrationRequirements',$,IFCLABEL('ISO Office'),$);
#684=IFCPROPERTYSINGLEVALUE('WinterTemperatureMin',$,IFCREAL(1.),$);
#685=IFCPROPERTYSINGLEVALUE('WinterTemperatureMax',$,IFCREAL(1.),$);
#686=IFCPROPERTYSINGLEVALUE('SummerTemperatureMin',$,IFCREAL(1.),$);
#687=IFCPROPERTYSINGLEVALUE('SummerTemperatureMax',$,IFCREAL(1.),$);
#688=IFCPROPERTYSINGLEVALUE('RelativeHumidityMin',$,IFCREAL(1.),$);
#689=IFCPROPERTYSINGLEVALUE('RelativeHumidityMax',$,IFCREAL(1.),$);
#690=IFCPROPERTYSINGLEVALUE('OutdoorAirFlowRate',$,IFCREAL(1.),$);
#691=IFCPROPERTYSINGLEVALUE('PeakOccupancy',$,IFCREAL(1.),$);
#692=IFCPROPERTYSINGLEVALUE('DailyOperatingHours',$,IFCREAL(1.),$);
#693=IFCPROPERTYSINGLEVALUE('RequiredIlluminance',$,IFCREAL(1.),$);
#694=IFCPROPERTYSINGLEVALUE('Checkliste',$,IFCTEXT('Bodenbelag; Elektro; Beleuchtung'),$);
#695=IFCPROPERTYSINGLEVALUE('UsageUnitReference',$,IFCIDENTIFIER('UsageUnitReference'),$);
#696=IFCPROPERTYSINGLEVALUE('FireCompartmentReference',$,IFCIDENTIFIER('FireCompartmentReference'),$);
#697=IFCPROPERTYSINGLEVALUE('SecurityZoneReference',$,IFCIDENTIFIER('SecurityZoneReference'),$);
#698=IFCPROPERTYSINGLEVALUE('SecurityLevel',$,IFCLABEL('\X2\00D6\X0\ffentlich'),$);
#699=IFCPROPERTYSINGLEVALUE('ProtectionGoal',$,IFCLABEL('Einbruch'),$);
#700=IFCOWNERHISTORY(#3,#4,.READWRITE.,.ADDED.,1790138362,#3,#4,1790138362);
#701=IFCPROPERTYSET('2D5T9mSfT8YAnN9u4kGAyy',#700,'Pset_SpaceCoveringRequirements',$,(#704,#705));
#702=IFCOWNERHISTORY(#3,#4,.READWRITE.,.ADDED.,1790138362,#3,#4,1790138362);
#703=IFCRELDEFINESBYPROPERTIES('1cwx4rwXT9pRu4zGUMBPzn',#702,$,$,(#635),#701);
#704=IFCPROPERTYSINGLEVALUE('FloorCovering',$,IFCLABEL('Teppich'),$);
#705=IFCPROPERTYSINGLEVALUE('WallCovering',$,IFCLABEL('Plattenbelag'),$);
#706=IFCOWNERHISTORY(#3,#4,.READWRITE.,.ADDED.,1790138362,#3,#4,1790138362);
#707=IFCPROPERTYSET('3KceU4yob4UBJGqA5Z8wuC',#706,'Pset_SpaceThermalDesign',$,(#710));
#708=IFCOWNERHISTORY(#3,#4,.READWRITE.,.ADDED.,1790138362,#3,#4,1790138362);
#709=IFCRELDEFINESBYPROPERTIES('3ViNENjrj2OQrYrXeYR5j7',#708,$,$,(#635),#707);
#710=IFCPROPERTYSINGLEVALUE('TotalHeatLoss',$,IFCPOWERMEASURE(1.),$);
#711=IFCOWNERHISTORY(#3,#4,.READWRITE.,.ADDED.,1790138362,#3,#4,1790138362);
#712=IFCPROPERTYSET('3XVkVxP9D1HfmeV2Yv8KXK',#711,'ePset_SpaceRequirement',$,(#715,#716,#717,#718,#719,#720,#721,#722,#723,#724,#725,#726,#727));
#713=IFCOWNERHISTORY(#3,#4,.READWRITE.,.ADDED.,1790138362,#3,#4,1790138362);
#714=IFCRELDEFINESBYPROPERTIES('1UfsMrRlL9UQxPPqsCJZRl',#713,$,$,(#635),#712);
#715=IFCPROPERTYSINGLEVALUE('DesignAreaLoad',$,IFCREAL(3.),$);
#716=IFCPROPERTYSINGLEVALUE('DesignPointLoad',$,IFCREAL(2.),$);
#717=IFCPROPERTYSINGLEVALUE('VibrationRequirements',$,IFCLABEL('ISO Office'),$);
#718=IFCPROPERTYSINGLEVALUE('WinterTemperatureMin',$,IFCREAL(1.),$);
#719=IFCPROPERTYSINGLEVALUE('WinterTemperatureMax',$,IFCREAL(1.),$);
#720=IFCPROPERTYSINGLEVALUE('SummerTemperatureMin',$,IFCREAL(1.),$);
#721=IFCPROPERTYSINGLEVALUE('SummerTemperatureMax',$,IFCREAL(1.),$);
#722=IFCPROPERTYSINGLEVALUE('RelativeHumidityMin',$,IFCREAL(1.),$);
#723=IFCPROPERTYSINGLEVALUE('RelativeHumidityMax',$,IFCREAL(1.),$);
#724=IFCPROPERTYSINGLEVALUE('OutdoorAirFlowRate',$,IFCREAL(1.),$);
#725=IFCPROPERTYSINGLEVALUE('PeakOccupancy',$,IFCREAL(1.),$);
#726=IFCPROPERTYSINGLEVALUE('DailyOperatingHours',$,IFCREAL(1.),$);
#727=IFCPROPERTYSINGLEVALUE('RequiredIlluminance',$,IFCREAL(1.),$);
#728=IFCOWNERHISTORY(#3,#4,.READWRITE.,.ADDED.,1790138362,#3,#4,1790138362);
#729=IFCELEMENTQUANTITY('2AG777pvLEfOsdzp7AKc3r',#728,'Qto_CoveringBaseQuantities',$,'BaseQuantities',(#732));
#730=IFCOWNERHISTORY(#3,#4,.READWRITE.,.ADDED.,1790138362,#3,#4,1790138362);
#731=IFCRELDEFINESBYPROPERTIES('26Ro_47v97WRq4XsfNB9ds',#730,$,$,(#201),#729);
#732=IFCQUANTITYAREA('NetArea',$,$,8.,$);
#733=IFCOWNERHISTORY(#3,#4,.READWRITE.,.ADDED.,1790138362,#3,#4,1790138362);
#734=IFCPROPERTYSET('2pBtmHc$zCEfZO74vi$oRD',#733,'Pset_CoveringCommon',$,(#737,#738,#739));
#735=IFCOWNERHISTORY(#3,#4,.READWRITE.,.ADDED.,1790138362,#3,#4,1790138362);
#736=IFCRELDEFINESBYPROPERTIES('0hOpl_ARzDAQKmzzO68tnh',#735,$,$,(#201),#734);
#737=IFCPROPERTYSINGLEVALUE('IsExternal',$,IFCBOOLEAN(.T.),$);
#738=IFCPROPERTYSINGLEVALUE('Finish',$,IFCTEXT('Beton'),$);
#739=IFCPROPERTYSINGLEVALUE('Status',$,IFCLABEL('NEW'),$);
#740=IFCOWNERHISTORY(#3,#4,.READWRITE.,.ADDED.,1790138362,#3,#4,1790138362);
#741=IFCPROPERTYSET('2OOM3V1Oj8Ihyr9hy3yiDk',#740,'ePset_Cost',$,(#744,#745));
#742=IFCOWNERHISTORY(#3,#4,.READWRITE.,.ADDED.,1790138362,#3,#4,1790138362);
#743=IFCRELDEFINESBYPROPERTIES('1qFarWljDDsBf7JQiwDhKx',#742,$,$,(#201),#741);
#744=IFCPROPERTYSINGLEVALUE('AwardInterface',$,IFCLABEL('421'),$);
#745=IFCPROPERTYSINGLEVALUE('PlanningInterface',$,IFCLABEL('092'),$);
ENDSEC;
END-ISO-10303-21;
