ISO-10303-21;
HEADER;
FILE_DESCRIPTION(('ViewDefinition[DesignTransferView]'),'2;1');
FILE_NAME('/dev/null','2026-09-18T10:41:58+02:00',(''),(''),'IfcOpenShell 0.8.5','IfcOpenShell 0.8.5','Nobody');
FILE_SCHEMA(('IFC4'));
ENDSEC;
DATA;
#1=IFCPERSON('catalog-pipeline','Pipeline','Catalog',$,$,$,$,$);
#2=IFCORGANIZATION('pragmaticBIM','pragmaticBIM',$,$,$);
#3=IFCPERSONANDORGANIZATION(#1,#2,$);
#4=IFCAPPLICATION(#2,'0.1.0','Catalog IFC Pipeline','catalog-ifc-pipeline');
#5=IFCOWNERHISTORY(#3,#4,.READWRITE.,.ADDED.,1789720918,#3,#4,1789720918);
#6=IFCPROJECT('3rhf7953D6auTnCkyPDHLb',#5,'Catalog \X2\2014\X0\ 101',$,$,$,$,(#15),#10);
#7=IFCSIUNIT(*,.LENGTHUNIT.,$,.METRE.);
#8=IFCSIUNIT(*,.AREAUNIT.,$,.SQUARE_METRE.);
#9=IFCSIUNIT(*,.VOLUMEUNIT.,$,.CUBIC_METRE.);
#10=IFCUNITASSIGNMENT((#9,#7,#8));
#11=IFCCARTESIANPOINT((0.,0.,0.));
#12=IFCDIRECTION((0.,0.,1.));
#13=IFCDIRECTION((1.,0.,0.));
#14=IFCAXIS2PLACEMENT3D(#11,#12,#13);
#15=IFCGEOMETRICREPRESENTATIONCONTEXT($,'Model',3,1.0000000000000001E-05,#14,$);
#16=IFCGEOMETRICREPRESENTATIONSUBCONTEXT('Body','Model',*,*,*,*,#15,$,.MODEL_VIEW.,$);
#17=IFCOWNERHISTORY(#3,#4,.READWRITE.,.MODIFIED.,1789720918,#3,#4,1789720918);
#18=IFCSITE('29Lw$JjM59ghMU07lnGWRN',#17,'Site',$,$,#29,$,$,$,$,$,$,$,$);
#19=IFCOWNERHISTORY(#3,#4,.READWRITE.,.MODIFIED.,1789720918,#3,#4,1789720918);
#20=IFCBUILDING('1y6DuWYEr6XvFf5s0FgQid',#19,'Building',$,$,#34,$,$,$,$,$,$);
#21=IFCOWNERHISTORY(#3,#4,.READWRITE.,.ADDED.,1789720918,#3,#4,1789720918);
#22=IFCRELAGGREGATES('1hlxEg2JDEi99DUi2DlOSe',#21,$,$,#6,(#18));
#23=IFCOWNERHISTORY(#3,#4,.READWRITE.,.ADDED.,1789720918,#3,#4,1789720918);
#24=IFCRELAGGREGATES('3buu2LJM12iufT8qHdSeRY',#23,$,$,#18,(#20));
#25=IFCCARTESIANPOINT((0.,0.,0.));
#26=IFCDIRECTION((0.,0.,1.));
#27=IFCDIRECTION((1.,0.,0.));
#28=IFCAXIS2PLACEMENT3D(#25,#26,#27);
#29=IFCLOCALPLACEMENT($,#28);
#30=IFCCARTESIANPOINT((0.,0.,0.));
#31=IFCDIRECTION((0.,0.,1.));
#32=IFCDIRECTION((1.,0.,0.));
#33=IFCAXIS2PLACEMENT3D(#30,#31,#32);
#34=IFCLOCALPLACEMENT(#29,#33);
#35=IFCOWNERHISTORY(#3,#4,.READWRITE.,.MODIFIED.,1789720918,#3,#4,1789720918);
#36=IFCBUILDINGSTOREY('2fo613dAX0VRXvVyq91oK0',#35,'Level 0',$,$,#43,$,$,$,0.);
#37=IFCOWNERHISTORY(#3,#4,.READWRITE.,.ADDED.,1789720918,#3,#4,1789720918);
#38=IFCRELAGGREGATES('1sQVhdBFL6Ef7zKrEgxTI9',#37,$,$,#20,(#36));
#39=IFCCARTESIANPOINT((0.,0.,0.));
#40=IFCDIRECTION((0.,0.,1.));
#41=IFCDIRECTION((1.,0.,0.));
#42=IFCAXIS2PLACEMENT3D(#39,#40,#41);
#43=IFCLOCALPLACEMENT(#34,#42);
#44=IFCOWNERHISTORY(#3,#4,.READWRITE.,.MODIFIED.,1789720918,#3,#4,1789720918);
#45=IFCSLAB('14Gi0$MnHBoPKmTVZ4tufX',#44,'101-FloorSlab',$,$,#52,#67,$,.FLOOR.);
#46=IFCOWNERHISTORY(#3,#4,.READWRITE.,.MODIFIED.,1789720918,#3,#4,1789720918);
#47=IFCRELCONTAINEDINSPATIALSTRUCTURE('0hx2ovxW166waWDnOegfbv',#46,$,$,(#179,#201,#69,#91,#113,#45,#135,#157),#36);
#48=IFCCARTESIANPOINT((0.,0.,-0.40000000000000002));
#49=IFCDIRECTION((0.,0.,1.));
#50=IFCDIRECTION((1.,0.,0.));
#51=IFCAXIS2PLACEMENT3D(#48,#49,#50);
#52=IFCLOCALPLACEMENT(#43,#51);
#53=IFCCARTESIANPOINT((-0.35999999999999999,-0.35999999999999999,0.));
#54=IFCCARTESIANPOINT((7.5600000000000005,-0.35999999999999999,0.));
#55=IFCCARTESIANPOINT((7.5600000000000005,5.3600000000000003,0.));
#56=IFCCARTESIANPOINT((-0.35999999999999999,5.3600000000000003,0.));
#57=IFCCARTESIANPOINT((-0.35999999999999999,-0.35999999999999999,0.));
#58=IFCPOLYLINE((#53,#54,#55,#56,#57));
#59=IFCARBITRARYCLOSEDPROFILEDEF(.AREA.,$,#58);
#60=IFCCARTESIANPOINT((0.,0.,0.));
#61=IFCDIRECTION((0.,0.,1.));
#62=IFCDIRECTION((1.,0.,0.));
#63=IFCAXIS2PLACEMENT3D(#60,#61,#62);
#64=IFCDIRECTION((0.,0.,1.));
#65=IFCEXTRUDEDAREASOLID(#59,#63,#64,0.29999999999999999);
#66=IFCSHAPEREPRESENTATION(#16,'Body','SweptSolid',(#65));
#67=IFCPRODUCTDEFINITIONSHAPE($,$,(#66));
#68=IFCOWNERHISTORY(#3,#4,.READWRITE.,.MODIFIED.,1789720918,#3,#4,1789720918);
#69=IFCCOVERING('3rJkc90oL7iv7PqLDJ236x',#68,'101-FloorCovering',$,$,#74,#89,$,.FLOORING.);
#70=IFCCARTESIANPOINT((0.,0.,-0.10000000000000001));
#71=IFCDIRECTION((0.,0.,1.));
#72=IFCDIRECTION((1.,0.,0.));
#73=IFCAXIS2PLACEMENT3D(#70,#71,#72);
#74=IFCLOCALPLACEMENT(#43,#73);
#75=IFCCARTESIANPOINT((0.,0.,0.));
#76=IFCCARTESIANPOINT((2.2666666666666666,0.,0.));
#77=IFCCARTESIANPOINT((2.2666666666666666,5.,0.));
#78=IFCCARTESIANPOINT((0.,5.,0.));
#79=IFCCARTESIANPOINT((0.,0.,0.));
#80=IFCPOLYLINE((#75,#76,#77,#78,#79));
#81=IFCARBITRARYCLOSEDPROFILEDEF(.AREA.,$,#80);
#82=IFCCARTESIANPOINT((0.,0.,0.));
#83=IFCDIRECTION((0.,0.,1.));
#84=IFCDIRECTION((1.,0.,0.));
#85=IFCAXIS2PLACEMENT3D(#82,#83,#84);
#86=IFCDIRECTION((0.,0.,1.));
#87=IFCEXTRUDEDAREASOLID(#81,#85,#86,0.10000000000000001);
#88=IFCSHAPEREPRESENTATION(#16,'Body','SweptSolid',(#87));
#89=IFCPRODUCTDEFINITIONSHAPE($,$,(#88));
#90=IFCOWNERHISTORY(#3,#4,.READWRITE.,.MODIFIED.,1789720918,#3,#4,1789720918);
#91=IFCCOVERING('1Q4OqzSDnAMvVVTU$dv$8q',#90,'101-N-FloorCovering',$,$,#96,#111,$,.FLOORING.);
#92=IFCCARTESIANPOINT((0.,0.,-0.10000000000000001));
#93=IFCDIRECTION((0.,0.,1.));
#94=IFCDIRECTION((1.,0.,0.));
#95=IFCAXIS2PLACEMENT3D(#92,#93,#94);
#96=IFCLOCALPLACEMENT(#43,#95);
#97=IFCCARTESIANPOINT((2.4666666666666668,0.,0.));
#98=IFCCARTESIANPOINT((7.2000000000000002,0.,0.));
#99=IFCCARTESIANPOINT((7.2000000000000002,5.,0.));
#100=IFCCARTESIANPOINT((2.4666666666666668,5.,0.));
#101=IFCCARTESIANPOINT((2.4666666666666668,0.,0.));
#102=IFCPOLYLINE((#97,#98,#99,#100,#101));
#103=IFCARBITRARYCLOSEDPROFILEDEF(.AREA.,$,#102);
#104=IFCCARTESIANPOINT((0.,0.,0.));
#105=IFCDIRECTION((0.,0.,1.));
#106=IFCDIRECTION((1.,0.,0.));
#107=IFCAXIS2PLACEMENT3D(#104,#105,#106);
#108=IFCDIRECTION((0.,0.,1.));
#109=IFCEXTRUDEDAREASOLID(#103,#107,#108,0.10000000000000001);
#110=IFCSHAPEREPRESENTATION(#16,'Body','SweptSolid',(#109));
#111=IFCPRODUCTDEFINITIONSHAPE($,$,(#110));
#112=IFCOWNERHISTORY(#3,#4,.READWRITE.,.MODIFIED.,1789720918,#3,#4,1789720918);
#113=IFCWALL('39HhnYrvTEsRn54pzDCNNL',#112,'101-Partition',$,$,#118,#133,$,.PARTITIONING.);
#114=IFCCARTESIANPOINT((2.4666666666666668,0.,-0.10000000000000001));
#115=IFCDIRECTION((0.,0.,1.));
#116=IFCDIRECTION((0.,1.,0.));
#117=IFCAXIS2PLACEMENT3D(#114,#115,#116);
#118=IFCLOCALPLACEMENT(#43,#117);
#119=IFCCARTESIANPOINT((0.,0.,0.));
#120=IFCCARTESIANPOINT((5.,0.,0.));
#121=IFCCARTESIANPOINT((5.,0.20000000000000001,0.));
#122=IFCCARTESIANPOINT((0.,0.20000000000000001,0.));
#123=IFCCARTESIANPOINT((0.,0.,0.));
#124=IFCPOLYLINE((#119,#120,#121,#122,#123));
#125=IFCARBITRARYCLOSEDPROFILEDEF(.AREA.,$,#124);
#126=IFCCARTESIANPOINT((0.,0.,0.));
#127=IFCDIRECTION((0.,0.,1.));
#128=IFCDIRECTION((1.,0.,0.));
#129=IFCAXIS2PLACEMENT3D(#126,#127,#128);
#130=IFCDIRECTION((0.,0.,1.));
#131=IFCEXTRUDEDAREASOLID(#125,#129,#130,2.8999999999999999);
#132=IFCSHAPEREPRESENTATION(#16,'Body','SweptSolid',(#131));
#133=IFCPRODUCTDEFINITIONSHAPE($,$,(#132));
#134=IFCOWNERHISTORY(#3,#4,.READWRITE.,.MODIFIED.,1789720918,#3,#4,1789720918);
#135=IFCWALL('23XHUYWbrDcunl4ulSci46',#134,'101-EnvelopeWest',$,$,#140,#155,$,.SOLIDWALL.);
#136=IFCCARTESIANPOINT((0.,0.,-0.10000000000000001));
#137=IFCDIRECTION((0.,0.,1.));
#138=IFCDIRECTION((0.,1.,0.));
#139=IFCAXIS2PLACEMENT3D(#136,#137,#138);
#140=IFCLOCALPLACEMENT(#43,#139);
#141=IFCCARTESIANPOINT((0.,0.,0.));
#142=IFCCARTESIANPOINT((5.,0.,0.));
#143=IFCCARTESIANPOINT((5.,0.35999999999999999,0.));
#144=IFCCARTESIANPOINT((0.,0.35999999999999999,0.));
#145=IFCCARTESIANPOINT((0.,0.,0.));
#146=IFCPOLYLINE((#141,#142,#143,#144,#145));
#147=IFCARBITRARYCLOSEDPROFILEDEF(.AREA.,$,#146);
#148=IFCCARTESIANPOINT((0.,0.,0.));
#149=IFCDIRECTION((0.,0.,1.));
#150=IFCDIRECTION((1.,0.,0.));
#151=IFCAXIS2PLACEMENT3D(#148,#149,#150);
#152=IFCDIRECTION((0.,0.,1.));
#153=IFCEXTRUDEDAREASOLID(#147,#151,#152,2.8999999999999999);
#154=IFCSHAPEREPRESENTATION(#16,'Body','SweptSolid',(#153));
#155=IFCPRODUCTDEFINITIONSHAPE($,$,(#154));
#156=IFCOWNERHISTORY(#3,#4,.READWRITE.,.MODIFIED.,1789720918,#3,#4,1789720918);
#157=IFCWALL('1gpNh_XZH3Bhbt6xia12Hv',#156,'101-EnvelopeEast',$,$,#162,#177,$,.SOLIDWALL.);
#158=IFCCARTESIANPOINT((7.5600000000000005,0.,-0.10000000000000001));
#159=IFCDIRECTION((0.,0.,1.));
#160=IFCDIRECTION((0.,1.,0.));
#161=IFCAXIS2PLACEMENT3D(#158,#159,#160);
#162=IFCLOCALPLACEMENT(#43,#161);
#163=IFCCARTESIANPOINT((0.,0.,0.));
#164=IFCCARTESIANPOINT((5.,0.,0.));
#165=IFCCARTESIANPOINT((5.,0.35999999999999999,0.));
#166=IFCCARTESIANPOINT((0.,0.35999999999999999,0.));
#167=IFCCARTESIANPOINT((0.,0.,0.));
#168=IFCPOLYLINE((#163,#164,#165,#166,#167));
#169=IFCARBITRARYCLOSEDPROFILEDEF(.AREA.,$,#168);
#170=IFCCARTESIANPOINT((0.,0.,0.));
#171=IFCDIRECTION((0.,0.,1.));
#172=IFCDIRECTION((1.,0.,0.));
#173=IFCAXIS2PLACEMENT3D(#170,#171,#172);
#174=IFCDIRECTION((0.,0.,1.));
#175=IFCEXTRUDEDAREASOLID(#169,#173,#174,2.8999999999999999);
#176=IFCSHAPEREPRESENTATION(#16,'Body','SweptSolid',(#175));
#177=IFCPRODUCTDEFINITIONSHAPE($,$,(#176));
#178=IFCOWNERHISTORY(#3,#4,.READWRITE.,.MODIFIED.,1789720918,#3,#4,1789720918);
#179=IFCWALL('1VKNY0vMP7RRdSSJ60oz2l',#178,'101-EnvelopeSouth',$,$,#184,#199,$,.SOLIDWALL.);
#180=IFCCARTESIANPOINT((-0.35999999999999999,-0.35999999999999999,-0.10000000000000001));
#181=IFCDIRECTION((0.,0.,1.));
#182=IFCDIRECTION((1.,0.,0.));
#183=IFCAXIS2PLACEMENT3D(#180,#181,#182);
#184=IFCLOCALPLACEMENT(#43,#183);
#185=IFCCARTESIANPOINT((0.,0.,0.));
#186=IFCCARTESIANPOINT((7.9199999999999999,0.,0.));
#187=IFCCARTESIANPOINT((7.9199999999999999,0.35999999999999999,0.));
#188=IFCCARTESIANPOINT((0.,0.35999999999999999,0.));
#189=IFCCARTESIANPOINT((0.,0.,0.));
#190=IFCPOLYLINE((#185,#186,#187,#188,#189));
#191=IFCARBITRARYCLOSEDPROFILEDEF(.AREA.,$,#190);
#192=IFCCARTESIANPOINT((0.,0.,0.));
#193=IFCDIRECTION((0.,0.,1.));
#194=IFCDIRECTION((1.,0.,0.));
#195=IFCAXIS2PLACEMENT3D(#192,#193,#194);
#196=IFCDIRECTION((0.,0.,1.));
#197=IFCEXTRUDEDAREASOLID(#191,#195,#196,2.8999999999999999);
#198=IFCSHAPEREPRESENTATION(#16,'Body','SweptSolid',(#197));
#199=IFCPRODUCTDEFINITIONSHAPE($,$,(#198));
#200=IFCOWNERHISTORY(#3,#4,.READWRITE.,.MODIFIED.,1789720918,#3,#4,1789720918);
#201=IFCWALL('0GU3TSbgz3nwQYjSO4gSEE',#200,'IW-01',$,$,#206,#221,$,.PARTITIONING.);
#202=IFCCARTESIANPOINT((4.9333333333333336,0.,0.));
#203=IFCDIRECTION((0.,0.,1.));
#204=IFCDIRECTION((0.,1.,0.));
#205=IFCAXIS2PLACEMENT3D(#202,#203,#204);
#206=IFCLOCALPLACEMENT(#43,#205);
#207=IFCCARTESIANPOINT((0.,0.,0.));
#208=IFCCARTESIANPOINT((5.,0.,0.));
#209=IFCCARTESIANPOINT((5.,0.20000000000000001,0.));
#210=IFCCARTESIANPOINT((0.,0.20000000000000001,0.));
#211=IFCCARTESIANPOINT((0.,0.,0.));
#212=IFCPOLYLINE((#207,#208,#209,#210,#211));
#213=IFCARBITRARYCLOSEDPROFILEDEF(.AREA.,$,#212);
#214=IFCCARTESIANPOINT((0.,0.,0.));
#215=IFCDIRECTION((0.,0.,1.));
#216=IFCDIRECTION((1.,0.,0.));
#217=IFCAXIS2PLACEMENT3D(#214,#215,#216);
#218=IFCDIRECTION((0.,0.,1.));
#219=IFCEXTRUDEDAREASOLID(#213,#217,#218,2.7999999999999998);
#220=IFCSHAPEREPRESENTATION(#16,'Body','SweptSolid',(#219));
#221=IFCPRODUCTDEFINITIONSHAPE($,$,(#220));
#222=IFCOWNERHISTORY(#3,#4,.READWRITE.,.ADDED.,1789720918,#3,#4,1789720918);
#223=IFCELEMENTQUANTITY('0JCmLir4j31eUEDb_DvZkY',#222,'Qto_WallBaseQuantities',$,'BaseQuantities',(#226,#227,#228));
#224=IFCOWNERHISTORY(#3,#4,.READWRITE.,.ADDED.,1789720918,#3,#4,1789720918);
#225=IFCRELDEFINESBYPROPERTIES('3UYb8dU9f5_Bda7Rb7oW1p',#224,$,$,(#201),#223);
#226=IFCQUANTITYAREA('NetSideArea',$,$,14.,$);
#227=IFCQUANTITYLENGTH('Width',$,$,0.20000000000000001,$);
#228=IFCQUANTITYVOLUME('GrossVolume',$,$,2.7999999999999998,$);
#229=IFCOWNERHISTORY(#3,#4,.READWRITE.,.ADDED.,1789720919,#3,#4,1789720919);
#230=IFCPROPERTYSET('06DGstcg1FWgrYbg3bL08V',#229,'Pset_WallCommon',$,(#233,#234,#235,#236,#237,#238,#239));
#231=IFCOWNERHISTORY(#3,#4,.READWRITE.,.ADDED.,1789720919,#3,#4,1789720919);
#232=IFCRELDEFINESBYPROPERTIES('0shVlZyvfEVQyz9Hmf5a1a',#231,$,$,(#201),#230);
#233=IFCPROPERTYSINGLEVALUE('Reference',$,IFCIDENTIFIER('IW-01'),$);
#234=IFCPROPERTYSINGLEVALUE('IsExternal',$,IFCBOOLEAN(.F.),$);
#235=IFCPROPERTYSINGLEVALUE('LoadBearing',$,IFCBOOLEAN(.F.),$);
#236=IFCPROPERTYSINGLEVALUE('Status',$,IFCLABEL('NEW'),$);
#237=IFCPROPERTYSINGLEVALUE('FireRating',$,IFCLABEL('EI 30'),$);
#238=IFCPROPERTYSINGLEVALUE('AcousticRating',$,IFCLABEL('AcousticRating'),$);
#239=IFCPROPERTYSINGLEVALUE('ThermalTransmittance',$,IFCTHERMALTRANSMITTANCEMEASURE(1.),$);
#240=IFCOWNERHISTORY(#3,#4,.READWRITE.,.ADDED.,1789720919,#3,#4,1789720919);
#241=IFCPROPERTYSET('3XktRGpYDCEfeq1iiSB9m$',#240,'ePset_Cost',$,(#244,#245,#246,#247,#248,#249,#250,#251,#252));
#242=IFCOWNERHISTORY(#3,#4,.READWRITE.,.ADDED.,1789720919,#3,#4,1789720919);
#243=IFCRELDEFINESBYPROPERTIES('1PEVNfP695yAURQncSck1V',#242,$,$,(#201),#241);
#244=IFCPROPERTYSINGLEVALUE('CostInterface',$,IFCLABEL('GAB'),$);
#245=IFCPROPERTYSINGLEVALUE('AwardInterface',$,IFCLABEL('211'),$);
#246=IFCPROPERTYSINGLEVALUE('PlanningInterface',$,IFCLABEL('092'),$);
#247=IFCPROPERTYSINGLEVALUE('BelowTerrain',$,IFCBOOLEAN(.F.),$);
#248=IFCPROPERTYSINGLEVALUE('eBKP',$,IFCLABEL('G01.01'),$);
#249=IFCPROPERTYSINGLEVALUE('CalculatedType',$,IFCLABEL('Wand_Innen_Oberirdisch_Beton'),$);
#250=IFCPROPERTYSINGLEVALUE('ProductClass',$,IFCLABEL('SWP-ORTBETON'),$);
#251=IFCPROPERTYSINGLEVALUE('UnitPrice',$,IFCLABEL('UnitPrice'),$);
#252=IFCPROPERTYSINGLEVALUE('ReferenceQuantity',$,IFCLABEL('ReferenceQuantity'),$);
#253=IFCOWNERHISTORY(#3,#4,.READWRITE.,.ADDED.,1789720919,#3,#4,1789720919);
#254=IFCPROPERTYSET('18357qTtv5xAgRA13w6XGv',#253,'ePset_Circularity',$,(#257,#258,#259,#260,#261));
#255=IFCOWNERHISTORY(#3,#4,.READWRITE.,.ADDED.,1789720919,#3,#4,1789720919);
#256=IFCRELDEFINESBYPROPERTIES('2f6KLvGATER9oM8ws3eqYu',#255,$,$,(#201),#254);
#257=IFCPROPERTYSINGLEVALUE('Connection',$,IFCTEXT('DryConnection'),$);
#258=IFCPROPERTYSINGLEVALUE('Accessibility',$,IFCTEXT('Accessible'),$);
#259=IFCPROPERTYSINGLEVALUE('Reuse',$,IFCREAL(1.),$);
#260=IFCPROPERTYSINGLEVALUE('MaterialOrProductId',$,IFCTEXT('MaterialOrProductId'),$);
#261=IFCPROPERTYSINGLEVALUE('WasteCodes',$,IFCTEXT('WasteCodes'),$);
#262=IFCOWNERHISTORY(#3,#4,.READWRITE.,.ADDED.,1789720919,#3,#4,1789720919);
#263=IFCWALLTYPE('18ghbUnB57_PPjzVzoQA03',#262,'IW-01 Type',$,$,(#267),$,$,$,.NOTDEFINED.);
#264=IFCOWNERHISTORY(#3,#4,.READWRITE.,.ADDED.,1789720919,#3,#4,1789720919);
#265=IFCRELDEFINESBYTYPE('2Jj0pvvXD80ROduiLByq1Z',#264,$,$,(#201),#263);
#266=IFCOWNERHISTORY(#3,#4,.READWRITE.,.ADDED.,1789720919,#3,#4,1789720919);
#267=IFCPROPERTYSET('10MKF_i$n6WQT4gpLKzjVs',#266,'Pset_ManufacturerTypeInformation',$,(#268));
#268=IFCPROPERTYSINGLEVALUE('GlobalTradeItemNumber',$,IFCIDENTIFIER('07612345000015'),$);
#269=IFCOWNERHISTORY(#3,#4,.READWRITE.,.ADDED.,1789720919,#3,#4,1789720919);
#270=IFCPROPERTYSET('3uNW8aTmT83hWmG4tgi1iI',#269,'ePset_HazardousMaterial',$,(#273,#274));
#271=IFCOWNERHISTORY(#3,#4,.READWRITE.,.ADDED.,1789720919,#3,#4,1789720919);
#272=IFCRELDEFINESBYPROPERTIES('3D5_9bkwr9o9rpiST2oppd',#271,$,$,(#201),#270);
#273=IFCPROPERTYSINGLEVALUE('HazardType',$,IFCTEXT('Asbestos'),$);
#274=IFCPROPERTYSINGLEVALUE('RemovalCategory',$,IFCTEXT('Immediate'),$);
#275=IFCOWNERHISTORY(#3,#4,.READWRITE.,.ADDED.,1789720919,#3,#4,1789720919);
#276=IFCPROPERTYSET('0HERaCskD7hPbLNo2ZA3wO',#275,'Pset_ManufacturerOccurrence',$,(#279));
#277=IFCOWNERHISTORY(#3,#4,.READWRITE.,.ADDED.,1789720919,#3,#4,1789720919);
#278=IFCRELDEFINESBYPROPERTIES('3S7qwbggzAdutQWi9mYLeF',#277,$,$,(#201),#276);
#279=IFCPROPERTYSINGLEVALUE('SerialNumber',$,IFCIDENTIFIER('SN-000001'),$);
ENDSEC;
END-ISO-10303-21;
