ISO-10303-21;
HEADER;
FILE_DESCRIPTION(('ViewDefinition[DesignTransferView]'),'2;1');
FILE_NAME('/dev/null','2026-09-13T15:45:09+02:00',(''),(''),'IfcOpenShell 0.8.5','IfcOpenShell 0.8.5','Nobody');
FILE_SCHEMA(('IFC4'));
ENDSEC;
DATA;
#1=IFCPERSON('catalog-pipeline','Pipeline','Catalog',$,$,$,$,$);
#2=IFCORGANIZATION('pragmaticBIM','pragmaticBIM',$,$,$);
#3=IFCPERSONANDORGANIZATION(#1,#2,$);
#4=IFCAPPLICATION(#2,'0.1.0','Catalog IFC Pipeline','catalog-ifc-pipeline');
#5=IFCOWNERHISTORY(#3,#4,.READWRITE.,.ADDED.,1789307109,#3,#4,1789307109);
#6=IFCPROJECT('2Cy1OKKPfAZB8ZFl4OEy5x',#5,'column-01',$,$,$,$,(#15),#10);
#7=IFCSIUNIT(*,.LENGTHUNIT.,$,.METRE.);
#8=IFCSIUNIT(*,.AREAUNIT.,$,.SQUARE_METRE.);
#9=IFCSIUNIT(*,.VOLUMEUNIT.,$,.CUBIC_METRE.);
#10=IFCUNITASSIGNMENT((#8,#9,#7));
#11=IFCCARTESIANPOINT((0.,0.,0.));
#12=IFCDIRECTION((0.,0.,1.));
#13=IFCDIRECTION((1.,0.,0.));
#14=IFCAXIS2PLACEMENT3D(#11,#12,#13);
#15=IFCGEOMETRICREPRESENTATIONCONTEXT($,'Model',3,1.0000000000000001E-05,#14,$);
#16=IFCGEOMETRICREPRESENTATIONSUBCONTEXT('Body','Model',*,*,*,*,#15,$,.MODEL_VIEW.,$);
#17=IFCOWNERHISTORY(#3,#4,.READWRITE.,.MODIFIED.,1789307109,#3,#4,1789307109);
#18=IFCSITE('1zjsW8w1r2Oe2uzPmY$6WU',#17,'Site',$,$,#29,$,$,$,$,$,$,$,$);
#19=IFCOWNERHISTORY(#3,#4,.READWRITE.,.MODIFIED.,1789307109,#3,#4,1789307109);
#20=IFCBUILDING('0CFxkr8SX6D9ASha673YX4',#19,'Building',$,$,#34,$,$,$,$,$,$);
#21=IFCOWNERHISTORY(#3,#4,.READWRITE.,.ADDED.,1789307109,#3,#4,1789307109);
#22=IFCRELAGGREGATES('09N06PBlH4AOycQa8YXSPd',#21,$,$,#6,(#18));
#23=IFCOWNERHISTORY(#3,#4,.READWRITE.,.ADDED.,1789307109,#3,#4,1789307109);
#24=IFCRELAGGREGATES('369ucAT7r33ekbFcajR9bS',#23,$,$,#18,(#20));
#25=IFCCARTESIANPOINT((0.,0.,0.));
#26=IFCDIRECTION((0.,0.,1.));
#27=IFCDIRECTION((1.,0.,0.));
#28=IFCAXIS2PLACEMENT3D(#25,#26,#27);
#29=IFCLOCALPLACEMENT($,#28);
#30=IFCCARTESIANPOINT((0.,0.,0.));
#31=IFCDIRECTION((0.,0.,1.));
#32=IFCDIRECTION((1.,0.,0.));
#33=IFCAXIS2PLACEMENT3D(#30,#31,#32);
#34=IFCLOCALPLACEMENT(#29,#33);
#35=IFCOWNERHISTORY(#3,#4,.READWRITE.,.MODIFIED.,1789307109,#3,#4,1789307109);
#36=IFCBUILDINGSTOREY('1Y_W9bMtL6iPq6NWho9gxY',#35,'EG',$,$,#43,$,$,$,0.);
#37=IFCOWNERHISTORY(#3,#4,.READWRITE.,.ADDED.,1789307109,#3,#4,1789307109);
#38=IFCRELAGGREGATES('2KdiIQp2HCruG8K2GACSY0',#37,$,$,#20,(#36));
#39=IFCCARTESIANPOINT((0.,0.,0.));
#40=IFCDIRECTION((0.,0.,1.));
#41=IFCDIRECTION((1.,0.,0.));
#42=IFCAXIS2PLACEMENT3D(#39,#40,#41);
#43=IFCLOCALPLACEMENT(#34,#42);
#44=IFCOWNERHISTORY(#3,#4,.READWRITE.,.MODIFIED.,1789307109,#3,#4,1789307109);
#45=IFCSLAB('1n5psn0kn4ahly1545kP16',#44,'Bodenplatte',$,$,#52,#67,$,.BASESLAB.);
#46=IFCOWNERHISTORY(#3,#4,.READWRITE.,.MODIFIED.,1789307109,#3,#4,1789307109);
#47=IFCRELCONTAINEDINSPATIALSTRUCTURE('2I6WfYocr5rgwvuioEQ3zF',#46,$,$,(#69,#45),#36);
#48=IFCCARTESIANPOINT((0.,0.,0.));
#49=IFCDIRECTION((0.,0.,1.));
#50=IFCDIRECTION((1.,0.,0.));
#51=IFCAXIS2PLACEMENT3D(#48,#49,#50);
#52=IFCLOCALPLACEMENT(#43,#51);
#53=IFCCARTESIANPOINT((0.,0.,0.));
#54=IFCCARTESIANPOINT((4.,0.,0.));
#55=IFCCARTESIANPOINT((4.,4.,0.));
#56=IFCCARTESIANPOINT((0.,4.,0.));
#57=IFCCARTESIANPOINT((0.,0.,0.));
#58=IFCPOLYLINE((#53,#54,#55,#56,#57));
#59=IFCARBITRARYCLOSEDPROFILEDEF(.AREA.,$,#58);
#60=IFCCARTESIANPOINT((0.,0.,0.));
#61=IFCDIRECTION((0.,0.,1.));
#62=IFCDIRECTION((1.,0.,0.));
#63=IFCAXIS2PLACEMENT3D(#60,#61,#62);
#64=IFCDIRECTION((0.,0.,1.));
#65=IFCEXTRUDEDAREASOLID(#59,#63,#64,0.29999999999999999);
#66=IFCSHAPEREPRESENTATION(#16,'Body','SweptSolid',(#65));
#67=IFCPRODUCTDEFINITIONSHAPE($,$,(#66));
#68=IFCOWNERHISTORY(#3,#4,.READWRITE.,.MODIFIED.,1789307109,#3,#4,1789307109);
#69=IFCCOLUMN('3OxoI3aX1DNxWvdsN0uhyj',#68,'S-01',$,$,#74,#89,$,.COLUMN.);
#70=IFCCARTESIANPOINT((0.,0.,0.29999999999999999));
#71=IFCDIRECTION((0.,0.,1.));
#72=IFCDIRECTION((1.,0.,0.));
#73=IFCAXIS2PLACEMENT3D(#70,#71,#72);
#74=IFCLOCALPLACEMENT(#43,#73);
#75=IFCCARTESIANPOINT((1.825,1.825,0.));
#76=IFCCARTESIANPOINT((2.1749999999999998,1.825,0.));
#77=IFCCARTESIANPOINT((2.1749999999999998,2.1749999999999998,0.));
#78=IFCCARTESIANPOINT((1.825,2.1749999999999998,0.));
#79=IFCCARTESIANPOINT((1.825,1.825,0.));
#80=IFCPOLYLINE((#75,#76,#77,#78,#79));
#81=IFCARBITRARYCLOSEDPROFILEDEF(.AREA.,$,#80);
#82=IFCCARTESIANPOINT((0.,0.,0.));
#83=IFCDIRECTION((0.,0.,1.));
#84=IFCDIRECTION((1.,0.,0.));
#85=IFCAXIS2PLACEMENT3D(#82,#83,#84);
#86=IFCDIRECTION((0.,0.,1.));
#87=IFCEXTRUDEDAREASOLID(#81,#85,#86,2.7999999999999998);
#88=IFCSHAPEREPRESENTATION(#16,'Body','SweptSolid',(#87));
#89=IFCPRODUCTDEFINITIONSHAPE($,$,(#88));
#90=IFCOWNERHISTORY(#3,#4,.READWRITE.,.ADDED.,1789307109,#3,#4,1789307109);
#91=IFCPROPERTYSET('1LoOrYdOf71801Fw86QACV',#90,'Pset_ColumnCommon',$,(#94,#95,#96,#97));
#92=IFCOWNERHISTORY(#3,#4,.READWRITE.,.ADDED.,1789307109,#3,#4,1789307109);
#93=IFCRELDEFINESBYPROPERTIES('2fALg3WXv5pOKhpiukEbta',#92,$,$,(#69),#91);
#94=IFCPROPERTYSINGLEVALUE('LoadBearing',$,IFCBOOLEAN(.T.),$);
#95=IFCPROPERTYSINGLEVALUE('Status',$,IFCLABEL('NEW'),$);
#96=IFCPROPERTYSINGLEVALUE('FireRating',$,IFCLABEL('R 30'),$);
#97=IFCPROPERTYSINGLEVALUE('IsExternal',$,IFCBOOLEAN(.T.),$);
#98=IFCOWNERHISTORY(#3,#4,.READWRITE.,.ADDED.,1789307109,#3,#4,1789307109);
#99=IFCPROPERTYSET('1prTTyVI1DFQPVoj0zNDqF',#98,'ePset_Cost',$,(#102,#103,#104,#105,#106,#107));
#100=IFCOWNERHISTORY(#3,#4,.READWRITE.,.ADDED.,1789307109,#3,#4,1789307109);
#101=IFCRELDEFINESBYPROPERTIES('1AD4Zmx0vBRwjz7Dw3aLv4',#100,$,$,(#69),#99);
#102=IFCPROPERTYSINGLEVALUE('CostInterface',$,IFCLABEL('GAB'),$);
#103=IFCPROPERTYSINGLEVALUE('AwardInterface',$,IFCLABEL('211'),$);
#104=IFCPROPERTYSINGLEVALUE('PlanningInterface',$,IFCLABEL('031'),$);
#105=IFCPROPERTYSINGLEVALUE('BelowTerrain',$,IFCBOOLEAN(.F.),$);
#106=IFCPROPERTYSINGLEVALUE('eBKP',$,IFCLABEL('C03.02'),$);
#107=IFCPROPERTYSINGLEVALUE('CalculatedType',$,IFCLABEL('St\X2\00FC\X0\tze_Beton'),$);
#108=IFCOWNERHISTORY(#3,#4,.READWRITE.,.ADDED.,1789307109,#3,#4,1789307109);
#109=IFCELEMENTQUANTITY('3_Ee17lTD4IQeoLUlDBNgS',#108,'Qto_ColumnBaseQuantities',$,'BaseQuantities',(#112));
#110=IFCOWNERHISTORY(#3,#4,.READWRITE.,.ADDED.,1789307109,#3,#4,1789307109);
#111=IFCRELDEFINESBYPROPERTIES('1Gzkwf4jr8M92HnX5vn3N9',#110,$,$,(#69),#109);
#112=IFCQUANTITYVOLUME('GrossVolume',$,$,0.34300000000000003,$);
ENDSEC;
END-ISO-10303-21;
