ISO-10303-21;
HEADER;
FILE_DESCRIPTION(('ViewDefinition[DesignTransferView]'),'2;1');
FILE_NAME('/dev/null','2026-09-13T15:45:13+02:00',(''),(''),'IfcOpenShell 0.8.5','IfcOpenShell 0.8.5','Nobody');
FILE_SCHEMA(('IFC4'));
ENDSEC;
DATA;
#1=IFCPERSON('catalog-pipeline','Pipeline','Catalog',$,$,$,$,$);
#2=IFCORGANIZATION('pragmaticBIM','pragmaticBIM',$,$,$);
#3=IFCPERSONANDORGANIZATION(#1,#2,$);
#4=IFCAPPLICATION(#2,'0.1.0','Catalog IFC Pipeline','catalog-ifc-pipeline');
#5=IFCOWNERHISTORY(#3,#4,.READWRITE.,.ADDED.,1789307113,#3,#4,1789307113);
#6=IFCPROJECT('2upfWRXD91LQOCczKrXmp$',#5,'roofing-insulation-01',$,$,$,$,(#15),#10);
#7=IFCSIUNIT(*,.LENGTHUNIT.,$,.METRE.);
#8=IFCSIUNIT(*,.AREAUNIT.,$,.SQUARE_METRE.);
#9=IFCSIUNIT(*,.VOLUMEUNIT.,$,.CUBIC_METRE.);
#10=IFCUNITASSIGNMENT((#9,#7,#8));
#11=IFCCARTESIANPOINT((0.,0.,0.));
#12=IFCDIRECTION((0.,0.,1.));
#13=IFCDIRECTION((1.,0.,0.));
#14=IFCAXIS2PLACEMENT3D(#11,#12,#13);
#15=IFCGEOMETRICREPRESENTATIONCONTEXT($,'Model',3,1.0000000000000001E-05,#14,$);
#16=IFCGEOMETRICREPRESENTATIONSUBCONTEXT('Body','Model',*,*,*,*,#15,$,.MODEL_VIEW.,$);
#17=IFCOWNERHISTORY(#3,#4,.READWRITE.,.MODIFIED.,1789307113,#3,#4,1789307113);
#18=IFCSITE('2pr2j$mCf0HRqJnyUtCync',#17,'Site',$,$,#29,$,$,$,$,$,$,$,$);
#19=IFCOWNERHISTORY(#3,#4,.READWRITE.,.MODIFIED.,1789307113,#3,#4,1789307113);
#20=IFCBUILDING('2rI_2i9kjBXRbDhZuEVIeK',#19,'Building',$,$,#34,$,$,$,$,$,$);
#21=IFCOWNERHISTORY(#3,#4,.READWRITE.,.ADDED.,1789307113,#3,#4,1789307113);
#22=IFCRELAGGREGATES('25dQwzdZf2W8c9_aV2s8q$',#21,$,$,#6,(#18));
#23=IFCOWNERHISTORY(#3,#4,.READWRITE.,.ADDED.,1789307113,#3,#4,1789307113);
#24=IFCRELAGGREGATES('0DIJWT_GfFM8VjAoKZzEEV',#23,$,$,#18,(#20));
#25=IFCCARTESIANPOINT((0.,0.,0.));
#26=IFCDIRECTION((0.,0.,1.));
#27=IFCDIRECTION((1.,0.,0.));
#28=IFCAXIS2PLACEMENT3D(#25,#26,#27);
#29=IFCLOCALPLACEMENT($,#28);
#30=IFCCARTESIANPOINT((0.,0.,0.));
#31=IFCDIRECTION((0.,0.,1.));
#32=IFCDIRECTION((1.,0.,0.));
#33=IFCAXIS2PLACEMENT3D(#30,#31,#32);
#34=IFCLOCALPLACEMENT(#29,#33);
#35=IFCOWNERHISTORY(#3,#4,.READWRITE.,.MODIFIED.,1789307113,#3,#4,1789307113);
#36=IFCBUILDINGSTOREY('24HGFNAQ99aBeXkE8$_7K2',#35,'FD',$,$,#43,$,$,$,0.);
#37=IFCOWNERHISTORY(#3,#4,.READWRITE.,.ADDED.,1789307113,#3,#4,1789307113);
#38=IFCRELAGGREGATES('1HOTs3iWbBlQmqISNb1ihS',#37,$,$,#20,(#36));
#39=IFCCARTESIANPOINT((0.,0.,0.));
#40=IFCDIRECTION((0.,0.,1.));
#41=IFCDIRECTION((1.,0.,0.));
#42=IFCAXIS2PLACEMENT3D(#39,#40,#41);
#43=IFCLOCALPLACEMENT(#34,#42);
#44=IFCOWNERHISTORY(#3,#4,.READWRITE.,.MODIFIED.,1789307113,#3,#4,1789307113);
#45=IFCSLAB('1YkvTUhhf3$xAUmU120ex4',#44,'Flachdach',$,$,#52,#67,$,.ROOF.);
#46=IFCOWNERHISTORY(#3,#4,.READWRITE.,.MODIFIED.,1789307113,#3,#4,1789307113);
#47=IFCRELCONTAINEDINSPATIALSTRUCTURE('0kRUNTQWHFFhMcYzyUvUHb',#46,$,$,(#45,#157,#69,#91,#135,#113),#36);
#48=IFCCARTESIANPOINT((0.,0.,0.));
#49=IFCDIRECTION((0.,0.,1.));
#50=IFCDIRECTION((1.,0.,0.));
#51=IFCAXIS2PLACEMENT3D(#48,#49,#50);
#52=IFCLOCALPLACEMENT(#43,#51);
#53=IFCCARTESIANPOINT((0.,0.,0.));
#54=IFCCARTESIANPOINT((4.,0.,0.));
#55=IFCCARTESIANPOINT((4.,4.,0.));
#56=IFCCARTESIANPOINT((0.,4.,0.));
#57=IFCCARTESIANPOINT((0.,0.,0.));
#58=IFCPOLYLINE((#53,#54,#55,#56,#57));
#59=IFCARBITRARYCLOSEDPROFILEDEF(.AREA.,$,#58);
#60=IFCCARTESIANPOINT((0.,0.,0.));
#61=IFCDIRECTION((0.,0.,1.));
#62=IFCDIRECTION((1.,0.,0.));
#63=IFCAXIS2PLACEMENT3D(#60,#61,#62);
#64=IFCDIRECTION((0.,0.,1.));
#65=IFCEXTRUDEDAREASOLID(#59,#63,#64,0.28000000000000003);
#66=IFCSHAPEREPRESENTATION(#16,'Body','SweptSolid',(#65));
#67=IFCPRODUCTDEFINITIONSHAPE($,$,(#66));
#68=IFCOWNERHISTORY(#3,#4,.READWRITE.,.MODIFIED.,1789307113,#3,#4,1789307113);
#69=IFCWALL('2ZacMGyZz1JhEP6EBVs54Z',#68,'Attika',$,$,#74,#89,$,.SOLIDWALL.);
#70=IFCCARTESIANPOINT((0.,3.7999999999999998,0.28000000000000003));
#71=IFCDIRECTION((0.,0.,1.));
#72=IFCDIRECTION((1.,0.,0.));
#73=IFCAXIS2PLACEMENT3D(#70,#71,#72);
#74=IFCLOCALPLACEMENT(#43,#73);
#75=IFCCARTESIANPOINT((0.,0.,0.));
#76=IFCCARTESIANPOINT((4.,0.,0.));
#77=IFCCARTESIANPOINT((4.,0.20000000000000001,0.));
#78=IFCCARTESIANPOINT((0.,0.20000000000000001,0.));
#79=IFCCARTESIANPOINT((0.,0.,0.));
#80=IFCPOLYLINE((#75,#76,#77,#78,#79));
#81=IFCARBITRARYCLOSEDPROFILEDEF(.AREA.,$,#80);
#82=IFCCARTESIANPOINT((0.,0.,0.));
#83=IFCDIRECTION((0.,0.,1.));
#84=IFCDIRECTION((1.,0.,0.));
#85=IFCAXIS2PLACEMENT3D(#82,#83,#84);
#86=IFCDIRECTION((0.,0.,1.));
#87=IFCEXTRUDEDAREASOLID(#81,#85,#86,0.5);
#88=IFCSHAPEREPRESENTATION(#16,'Body','SweptSolid',(#87));
#89=IFCPRODUCTDEFINITIONSHAPE($,$,(#88));
#90=IFCOWNERHISTORY(#3,#4,.READWRITE.,.MODIFIED.,1789307113,#3,#4,1789307113);
#91=IFCCOVERING('3Huj8tdxL9ZvE$vx5FW5FO',#90,'GD-01-Attika-Innen',$,$,#96,#111,$,.ROOFING.);
#92=IFCCARTESIANPOINT((0.,3.6799999999999997,0.28000000000000003));
#93=IFCDIRECTION((0.,0.,1.));
#94=IFCDIRECTION((1.,0.,0.));
#95=IFCAXIS2PLACEMENT3D(#92,#93,#94);
#96=IFCLOCALPLACEMENT(#43,#95);
#97=IFCCARTESIANPOINT((0.,0.,0.));
#98=IFCCARTESIANPOINT((4.,0.,0.));
#99=IFCCARTESIANPOINT((4.,0.12,0.));
#100=IFCCARTESIANPOINT((0.,0.12,0.));
#101=IFCCARTESIANPOINT((0.,0.,0.));
#102=IFCPOLYLINE((#97,#98,#99,#100,#101));
#103=IFCARBITRARYCLOSEDPROFILEDEF(.AREA.,$,#102);
#104=IFCCARTESIANPOINT((0.,0.,0.));
#105=IFCDIRECTION((0.,0.,1.));
#106=IFCDIRECTION((1.,0.,0.));
#107=IFCAXIS2PLACEMENT3D(#104,#105,#106);
#108=IFCDIRECTION((0.,0.,1.));
#109=IFCEXTRUDEDAREASOLID(#103,#107,#108,0.5);
#110=IFCSHAPEREPRESENTATION(#16,'Body','SweptSolid',(#109));
#111=IFCPRODUCTDEFINITIONSHAPE($,$,(#110));
#112=IFCOWNERHISTORY(#3,#4,.READWRITE.,.MODIFIED.,1789307113,#3,#4,1789307113);
#113=IFCCOVERING('1Nx3SGTX53hwDPRIf7YdU1',#112,'Fassadenbekleidung',$,$,#118,#133,$,.CLADDING.);
#114=IFCCARTESIANPOINT((0.,4.,0.));
#115=IFCDIRECTION((0.,0.,1.));
#116=IFCDIRECTION((1.,0.,0.));
#117=IFCAXIS2PLACEMENT3D(#114,#115,#116);
#118=IFCLOCALPLACEMENT(#43,#117);
#119=IFCCARTESIANPOINT((0.,0.,0.));
#120=IFCCARTESIANPOINT((4.,0.,0.));
#121=IFCCARTESIANPOINT((4.,0.050000000000000003,0.));
#122=IFCCARTESIANPOINT((0.,0.050000000000000003,0.));
#123=IFCCARTESIANPOINT((0.,0.,0.));
#124=IFCPOLYLINE((#119,#120,#121,#122,#123));
#125=IFCARBITRARYCLOSEDPROFILEDEF(.AREA.,$,#124);
#126=IFCCARTESIANPOINT((0.,0.,0.));
#127=IFCDIRECTION((0.,0.,1.));
#128=IFCDIRECTION((1.,0.,0.));
#129=IFCAXIS2PLACEMENT3D(#126,#127,#128);
#130=IFCDIRECTION((0.,0.,1.));
#131=IFCEXTRUDEDAREASOLID(#125,#129,#130,0.78000000000000003);
#132=IFCSHAPEREPRESENTATION(#16,'Body','SweptSolid',(#131));
#133=IFCPRODUCTDEFINITIONSHAPE($,$,(#132));
#134=IFCOWNERHISTORY(#3,#4,.READWRITE.,.MODIFIED.,1789307113,#3,#4,1789307113);
#135=IFCCOVERING('1qp9Dgd$j1Zg$rUeBeG3Dj',#134,'GD-01-Attika-Oben',$,$,#140,#155,$,.ROOFING.);
#136=IFCCARTESIANPOINT((0.,0.,0.78000000000000003));
#137=IFCDIRECTION((0.,0.,1.));
#138=IFCDIRECTION((1.,0.,0.));
#139=IFCAXIS2PLACEMENT3D(#136,#137,#138);
#140=IFCLOCALPLACEMENT(#43,#139);
#141=IFCCARTESIANPOINT((0.,3.6799999999999997,0.));
#142=IFCCARTESIANPOINT((4.,3.6799999999999997,0.));
#143=IFCCARTESIANPOINT((4.,4.0499999999999998,0.));
#144=IFCCARTESIANPOINT((0.,4.0499999999999998,0.));
#145=IFCCARTESIANPOINT((0.,3.6799999999999997,0.));
#146=IFCPOLYLINE((#141,#142,#143,#144,#145));
#147=IFCARBITRARYCLOSEDPROFILEDEF(.AREA.,$,#146);
#148=IFCCARTESIANPOINT((0.,0.,0.));
#149=IFCDIRECTION((0.,0.,1.));
#150=IFCDIRECTION((1.,0.,0.));
#151=IFCAXIS2PLACEMENT3D(#148,#149,#150);
#152=IFCDIRECTION((0.,0.,1.));
#153=IFCEXTRUDEDAREASOLID(#147,#151,#152,0.080000000000000002);
#154=IFCSHAPEREPRESENTATION(#16,'Body','SweptSolid',(#153));
#155=IFCPRODUCTDEFINITIONSHAPE($,$,(#154));
#156=IFCOWNERHISTORY(#3,#4,.READWRITE.,.MODIFIED.,1789307113,#3,#4,1789307113);
#157=IFCCOVERING('0HqDKM1jr7hA5hMGVwknML',#156,'GD-01',$,$,#162,#177,$,.ROOFING.);
#158=IFCCARTESIANPOINT((0.,0.,0.28000000000000003));
#159=IFCDIRECTION((1.,0.,0.));
#160=IFCDIRECTION((0.,1.,0.));
#161=IFCAXIS2PLACEMENT3D(#158,#159,#160);
#162=IFCLOCALPLACEMENT(#43,#161);
#163=IFCCARTESIANPOINT((0.,0.,0.));
#164=IFCCARTESIANPOINT((3.6799999999999997,0.,0.));
#165=IFCCARTESIANPOINT((3.6799999999999997,0.059999999999999998,0.));
#166=IFCCARTESIANPOINT((0.,0.32000000000000001,0.));
#167=IFCCARTESIANPOINT((0.,0.,0.));
#168=IFCPOLYLINE((#163,#164,#165,#166,#167));
#169=IFCARBITRARYCLOSEDPROFILEDEF(.AREA.,$,#168);
#170=IFCCARTESIANPOINT((0.,0.,0.));
#171=IFCDIRECTION((0.,0.,1.));
#172=IFCDIRECTION((1.,0.,0.));
#173=IFCAXIS2PLACEMENT3D(#170,#171,#172);
#174=IFCDIRECTION((0.,0.,1.));
#175=IFCEXTRUDEDAREASOLID(#169,#173,#174,4.);
#176=IFCSHAPEREPRESENTATION(#16,'Body','SweptSolid',(#175));
#177=IFCPRODUCTDEFINITIONSHAPE($,$,(#176));
#178=IFCOWNERHISTORY(#3,#4,.READWRITE.,.ADDED.,1789307113,#3,#4,1789307113);
#179=IFCPROPERTYSET('2KyYYKLFP0fgcE44Ud5mc5',#178,'Pset_CoveringCommon',$,(#182,#183,#184));
#180=IFCOWNERHISTORY(#3,#4,.READWRITE.,.ADDED.,1789307113,#3,#4,1789307113);
#181=IFCRELDEFINESBYPROPERTIES('0azBLgqx58HhxnRMTk0c67',#180,$,$,(#157),#179);
#182=IFCPROPERTYSINGLEVALUE('IsExternal',$,IFCBOOLEAN(.T.),$);
#183=IFCPROPERTYSINGLEVALUE('Reference',$,IFCIDENTIFIER('GD-01'),$);
#184=IFCPROPERTYSINGLEVALUE('Status',$,IFCLABEL('NEW'),$);
#185=IFCOWNERHISTORY(#3,#4,.READWRITE.,.ADDED.,1789307113,#3,#4,1789307113);
#186=IFCPROPERTYSET('2MbIPLRhD8wOwz3JWsrXwO',#185,'ePset_Cost',$,(#189,#190,#191));
#187=IFCOWNERHISTORY(#3,#4,.READWRITE.,.ADDED.,1789307113,#3,#4,1789307113);
#188=IFCRELDEFINESBYPROPERTIES('03Q1n2u7v9Hxs2UDTxwmz4',#187,$,$,(#157),#186);
#189=IFCPROPERTYSINGLEVALUE('CostInterface',$,IFCLABEL('GAB'),$);
#190=IFCPROPERTYSINGLEVALUE('AwardInterface',$,IFCLABEL('273'),$);
#191=IFCPROPERTYSINGLEVALUE('PlanningInterface',$,IFCLABEL('092'),$);
#192=IFCOWNERHISTORY(#3,#4,.READWRITE.,.ADDED.,1789307113,#3,#4,1789307113);
#193=IFCELEMENTQUANTITY('0V2Xopa75EUPkrFvrvfKUo',#192,'Qto_CoveringBaseQuantities',$,'BaseQuantities',(#196));
#194=IFCOWNERHISTORY(#3,#4,.READWRITE.,.ADDED.,1789307113,#3,#4,1789307113);
#195=IFCRELDEFINESBYPROPERTIES('0nspQNRU90iuP8Q4LqvCIZ',#194,$,$,(#157),#193);
#196=IFCQUANTITYAREA('NetArea',$,$,14.720000000000001,$);
#197=IFCOWNERHISTORY(#3,#4,.READWRITE.,.ADDED.,1789307113,#3,#4,1789307113);
#198=IFCELEMENTQUANTITY('1Zcrx9i$j7$OgO6xl10oQO',#197,'Qto_CoveringBaseQuantities',$,'BaseQuantities',(#201));
#199=IFCOWNERHISTORY(#3,#4,.READWRITE.,.ADDED.,1789307113,#3,#4,1789307113);
#200=IFCRELDEFINESBYPROPERTIES('0zTcPfi0X6IeYjyi54zBxQ',#199,$,$,(#91),#198);
#201=IFCQUANTITYAREA('NetArea',$,$,2.,$);
#202=IFCOWNERHISTORY(#3,#4,.READWRITE.,.ADDED.,1789307113,#3,#4,1789307113);
#203=IFCELEMENTQUANTITY('3yFN8fCCT9$O5sZdTVcvVV',#202,'Qto_CoveringBaseQuantities',$,'BaseQuantities',(#206));
#204=IFCOWNERHISTORY(#3,#4,.READWRITE.,.ADDED.,1789307113,#3,#4,1789307113);
#205=IFCRELDEFINESBYPROPERTIES('2EVG61Zg93cvnMHhEMrTBs',#204,$,$,(#135),#203);
#206=IFCQUANTITYAREA('NetArea',$,$,1.48,$);
ENDSEC;
END-ISO-10303-21;
