ISO-10303-21;
HEADER;
FILE_DESCRIPTION(('ViewDefinition[DesignTransferView]'),'2;1');
FILE_NAME('/dev/null','2026-09-13T15:45:10+02:00',(''),(''),'IfcOpenShell 0.8.5','IfcOpenShell 0.8.5','Nobody');
FILE_SCHEMA(('IFC4'));
ENDSEC;
DATA;
#1=IFCPERSON('catalog-pipeline','Pipeline','Catalog',$,$,$,$,$);
#2=IFCORGANIZATION('pragmaticBIM','pragmaticBIM',$,$,$);
#3=IFCPERSONANDORGANIZATION(#1,#2,$);
#4=IFCAPPLICATION(#2,'0.1.0','Catalog IFC Pipeline','catalog-ifc-pipeline');
#5=IFCOWNERHISTORY(#3,#4,.READWRITE.,.ADDED.,1789307110,#3,#4,1789307110);
#6=IFCPROJECT('2ui3EqE_L63us0UWo_R0Xc',#5,'maintenance-space-01',$,$,$,$,(#15),#10);
#7=IFCSIUNIT(*,.LENGTHUNIT.,$,.METRE.);
#8=IFCSIUNIT(*,.AREAUNIT.,$,.SQUARE_METRE.);
#9=IFCSIUNIT(*,.VOLUMEUNIT.,$,.CUBIC_METRE.);
#10=IFCUNITASSIGNMENT((#9,#7,#8));
#11=IFCCARTESIANPOINT((0.,0.,0.));
#12=IFCDIRECTION((0.,0.,1.));
#13=IFCDIRECTION((1.,0.,0.));
#14=IFCAXIS2PLACEMENT3D(#11,#12,#13);
#15=IFCGEOMETRICREPRESENTATIONCONTEXT($,'Model',3,1.0000000000000001E-05,#14,$);
#16=IFCGEOMETRICREPRESENTATIONSUBCONTEXT('Body','Model',*,*,*,*,#15,$,.MODEL_VIEW.,$);
#17=IFCOWNERHISTORY(#3,#4,.READWRITE.,.MODIFIED.,1789307110,#3,#4,1789307110);
#18=IFCSITE('0vgACU6Sv3BAbnmBeYUDyH',#17,'Site',$,$,#29,$,$,$,$,$,$,$,$);
#19=IFCOWNERHISTORY(#3,#4,.READWRITE.,.MODIFIED.,1789307110,#3,#4,1789307110);
#20=IFCBUILDING('3ddQDGxlXBSeyy_bD7_sCq',#19,'Building',$,$,#34,$,$,$,$,$,$);
#21=IFCOWNERHISTORY(#3,#4,.READWRITE.,.ADDED.,1789307110,#3,#4,1789307110);
#22=IFCRELAGGREGATES('121DFVqmj4Ru9DR4rbRMYI',#21,$,$,#6,(#18));
#23=IFCOWNERHISTORY(#3,#4,.READWRITE.,.ADDED.,1789307110,#3,#4,1789307110);
#24=IFCRELAGGREGATES('3RJHu6ksPDBuzh6wIPUtCV',#23,$,$,#18,(#20));
#25=IFCCARTESIANPOINT((0.,0.,0.));
#26=IFCDIRECTION((0.,0.,1.));
#27=IFCDIRECTION((1.,0.,0.));
#28=IFCAXIS2PLACEMENT3D(#25,#26,#27);
#29=IFCLOCALPLACEMENT($,#28);
#30=IFCCARTESIANPOINT((0.,0.,0.));
#31=IFCDIRECTION((0.,0.,1.));
#32=IFCDIRECTION((1.,0.,0.));
#33=IFCAXIS2PLACEMENT3D(#30,#31,#32);
#34=IFCLOCALPLACEMENT(#29,#33);
#35=IFCOWNERHISTORY(#3,#4,.READWRITE.,.MODIFIED.,1789307110,#3,#4,1789307110);
#36=IFCBUILDINGSTOREY('1uv2dCFb15SwcKNFdoC9Zs',#35,'EG',$,$,#43,$,$,$,0.);
#37=IFCOWNERHISTORY(#3,#4,.READWRITE.,.ADDED.,1789307110,#3,#4,1789307110);
#38=IFCRELAGGREGATES('0SF5YkTtP1X8Frxa15Ufut',#37,$,$,#20,(#36));
#39=IFCCARTESIANPOINT((0.,0.,0.));
#40=IFCDIRECTION((0.,0.,1.));
#41=IFCDIRECTION((1.,0.,0.));
#42=IFCAXIS2PLACEMENT3D(#39,#40,#41);
#43=IFCLOCALPLACEMENT(#34,#42);
#44=IFCOWNERHISTORY(#3,#4,.READWRITE.,.MODIFIED.,1789307110,#3,#4,1789307110);
#45=IFCSLAB('3x8_vWoS15MAc3HKqdc6AE',#44,'Bodenplatte',$,$,#52,#67,$,.FLOOR.);
#46=IFCOWNERHISTORY(#3,#4,.READWRITE.,.MODIFIED.,1789307110,#3,#4,1789307110);
#47=IFCRELCONTAINEDINSPATIALSTRUCTURE('0SvJ8QGhrFofRRswgXevdR',#46,$,$,(#69,#91,#135,#157,#289,#223,#245,#113,#179,#201,#267,#45),#36);
#48=IFCCARTESIANPOINT((0.,0.,0.));
#49=IFCDIRECTION((0.,0.,1.));
#50=IFCDIRECTION((1.,0.,0.));
#51=IFCAXIS2PLACEMENT3D(#48,#49,#50);
#52=IFCLOCALPLACEMENT(#43,#51);
#53=IFCCARTESIANPOINT((-0.40000000000000002,-0.40000000000000002,0.));
#54=IFCCARTESIANPOINT((4.9000000000000004,-0.40000000000000002,0.));
#55=IFCCARTESIANPOINT((4.9000000000000004,2.5,0.));
#56=IFCCARTESIANPOINT((-0.40000000000000002,2.5,0.));
#57=IFCCARTESIANPOINT((-0.40000000000000002,-0.40000000000000002,0.));
#58=IFCPOLYLINE((#53,#54,#55,#56,#57));
#59=IFCARBITRARYCLOSEDPROFILEDEF(.AREA.,$,#58);
#60=IFCCARTESIANPOINT((0.,0.,0.));
#61=IFCDIRECTION((0.,0.,1.));
#62=IFCDIRECTION((1.,0.,0.));
#63=IFCAXIS2PLACEMENT3D(#60,#61,#62);
#64=IFCDIRECTION((0.,0.,1.));
#65=IFCEXTRUDEDAREASOLID(#59,#63,#64,0.20000000000000001);
#66=IFCSHAPEREPRESENTATION(#16,'Body','SweptSolid',(#65));
#67=IFCPRODUCTDEFINITIONSHAPE($,$,(#66));
#68=IFCOWNERHISTORY(#3,#4,.READWRITE.,.MODIFIED.,1789307110,#3,#4,1789307110);
#69=IFCBUILDINGELEMENTPROXY('2Le7kO$oX9Cv097cN6uGLo',#68,'Monoblock-Grundrahmen',$,'Monoblock',#74,#89,$,.USERDEFINED.);
#70=IFCCARTESIANPOINT((0.,0.,0.20000000000000001));
#71=IFCDIRECTION((0.,0.,1.));
#72=IFCDIRECTION((1.,0.,0.));
#73=IFCAXIS2PLACEMENT3D(#70,#71,#72);
#74=IFCLOCALPLACEMENT(#43,#73);
#75=IFCCARTESIANPOINT((0.,0.,0.));
#76=IFCCARTESIANPOINT((4.5,0.,0.));
#77=IFCCARTESIANPOINT((4.5,1.2,0.));
#78=IFCCARTESIANPOINT((0.,1.2,0.));
#79=IFCCARTESIANPOINT((0.,0.,0.));
#80=IFCPOLYLINE((#75,#76,#77,#78,#79));
#81=IFCARBITRARYCLOSEDPROFILEDEF(.AREA.,$,#80);
#82=IFCCARTESIANPOINT((0.,0.,0.));
#83=IFCDIRECTION((0.,0.,1.));
#84=IFCDIRECTION((1.,0.,0.));
#85=IFCAXIS2PLACEMENT3D(#82,#83,#84);
#86=IFCDIRECTION((0.,0.,1.));
#87=IFCEXTRUDEDAREASOLID(#81,#85,#86,0.10000000000000001);
#88=IFCSHAPEREPRESENTATION(#16,'Body','SweptSolid',(#87));
#89=IFCPRODUCTDEFINITIONSHAPE($,$,(#88));
#90=IFCOWNERHISTORY(#3,#4,.READWRITE.,.MODIFIED.,1789307110,#3,#4,1789307110);
#91=IFCBUILDINGELEMENTPROXY('2AnSt$Ks5C_AqeuNSf47vj',#90,'Monoblock-Ansaug',$,'Monoblock',#96,#111,$,.USERDEFINED.);
#92=IFCCARTESIANPOINT((0.,0.,0.30000000000000004));
#93=IFCDIRECTION((0.,0.,1.));
#94=IFCDIRECTION((1.,0.,0.));
#95=IFCAXIS2PLACEMENT3D(#92,#93,#94);
#96=IFCLOCALPLACEMENT(#43,#95);
#97=IFCCARTESIANPOINT((0.,0.,0.));
#98=IFCCARTESIANPOINT((0.80000000000000004,0.,0.));
#99=IFCCARTESIANPOINT((0.80000000000000004,1.2,0.));
#100=IFCCARTESIANPOINT((0.,1.2,0.));
#101=IFCCARTESIANPOINT((0.,0.,0.));
#102=IFCPOLYLINE((#97,#98,#99,#100,#101));
#103=IFCARBITRARYCLOSEDPROFILEDEF(.AREA.,$,#102);
#104=IFCCARTESIANPOINT((0.,0.,0.));
#105=IFCDIRECTION((0.,0.,1.));
#106=IFCDIRECTION((1.,0.,0.));
#107=IFCAXIS2PLACEMENT3D(#104,#105,#106);
#108=IFCDIRECTION((0.,0.,1.));
#109=IFCEXTRUDEDAREASOLID(#103,#107,#108,1.3999999999999999);
#110=IFCSHAPEREPRESENTATION(#16,'Body','SweptSolid',(#109));
#111=IFCPRODUCTDEFINITIONSHAPE($,$,(#110));
#112=IFCOWNERHISTORY(#3,#4,.READWRITE.,.MODIFIED.,1789307110,#3,#4,1789307110);
#113=IFCBUILDINGELEMENTPROXY('2n177ubkb8XuIFVZ0pA4Wc',#112,'Monoblock-Filter',$,'Monoblock',#118,#133,$,.USERDEFINED.);
#114=IFCCARTESIANPOINT((0.,0.,0.30000000000000004));
#115=IFCDIRECTION((0.,0.,1.));
#116=IFCDIRECTION((1.,0.,0.));
#117=IFCAXIS2PLACEMENT3D(#114,#115,#116);
#118=IFCLOCALPLACEMENT(#43,#117);
#119=IFCCARTESIANPOINT((0.80000000000000004,0.,0.));
#120=IFCCARTESIANPOINT((1.5,0.,0.));
#121=IFCCARTESIANPOINT((1.5,1.2,0.));
#122=IFCCARTESIANPOINT((0.80000000000000004,1.2,0.));
#123=IFCCARTESIANPOINT((0.80000000000000004,0.,0.));
#124=IFCPOLYLINE((#119,#120,#121,#122,#123));
#125=IFCARBITRARYCLOSEDPROFILEDEF(.AREA.,$,#124);
#126=IFCCARTESIANPOINT((0.,0.,0.));
#127=IFCDIRECTION((0.,0.,1.));
#128=IFCDIRECTION((1.,0.,0.));
#129=IFCAXIS2PLACEMENT3D(#126,#127,#128);
#130=IFCDIRECTION((0.,0.,1.));
#131=IFCEXTRUDEDAREASOLID(#125,#129,#130,1.55);
#132=IFCSHAPEREPRESENTATION(#16,'Body','SweptSolid',(#131));
#133=IFCPRODUCTDEFINITIONSHAPE($,$,(#132));
#134=IFCOWNERHISTORY(#3,#4,.READWRITE.,.MODIFIED.,1789307110,#3,#4,1789307110);
#135=IFCBUILDINGELEMENTPROXY('23UbEVQGbBuRFt7L2KfCug',#134,'Monoblock-Erhitzer',$,'Monoblock',#140,#155,$,.USERDEFINED.);
#136=IFCCARTESIANPOINT((0.,0.,0.30000000000000004));
#137=IFCDIRECTION((0.,0.,1.));
#138=IFCDIRECTION((1.,0.,0.));
#139=IFCAXIS2PLACEMENT3D(#136,#137,#138);
#140=IFCLOCALPLACEMENT(#43,#139);
#141=IFCCARTESIANPOINT((1.5,0.,0.));
#142=IFCCARTESIANPOINT((2.25,0.,0.));
#143=IFCCARTESIANPOINT((2.25,1.2,0.));
#144=IFCCARTESIANPOINT((1.5,1.2,0.));
#145=IFCCARTESIANPOINT((1.5,0.,0.));
#146=IFCPOLYLINE((#141,#142,#143,#144,#145));
#147=IFCARBITRARYCLOSEDPROFILEDEF(.AREA.,$,#146);
#148=IFCCARTESIANPOINT((0.,0.,0.));
#149=IFCDIRECTION((0.,0.,1.));
#150=IFCDIRECTION((1.,0.,0.));
#151=IFCAXIS2PLACEMENT3D(#148,#149,#150);
#152=IFCDIRECTION((0.,0.,1.));
#153=IFCEXTRUDEDAREASOLID(#147,#151,#152,1.3999999999999999);
#154=IFCSHAPEREPRESENTATION(#16,'Body','SweptSolid',(#153));
#155=IFCPRODUCTDEFINITIONSHAPE($,$,(#154));
#156=IFCOWNERHISTORY(#3,#4,.READWRITE.,.MODIFIED.,1789307110,#3,#4,1789307110);
#157=IFCBUILDINGELEMENTPROXY('0cM09FDVnDcRUpDx7I_wEO',#156,'Monoblock-Kuehler',$,'Monoblock',#162,#177,$,.USERDEFINED.);
#158=IFCCARTESIANPOINT((0.,0.,0.30000000000000004));
#159=IFCDIRECTION((0.,0.,1.));
#160=IFCDIRECTION((1.,0.,0.));
#161=IFCAXIS2PLACEMENT3D(#158,#159,#160);
#162=IFCLOCALPLACEMENT(#43,#161);
#163=IFCCARTESIANPOINT((2.25,0.,0.));
#164=IFCCARTESIANPOINT((3.,0.,0.));
#165=IFCCARTESIANPOINT((3.,1.2,0.));
#166=IFCCARTESIANPOINT((2.25,1.2,0.));
#167=IFCCARTESIANPOINT((2.25,0.,0.));
#168=IFCPOLYLINE((#163,#164,#165,#166,#167));
#169=IFCARBITRARYCLOSEDPROFILEDEF(.AREA.,$,#168);
#170=IFCCARTESIANPOINT((0.,0.,0.));
#171=IFCDIRECTION((0.,0.,1.));
#172=IFCDIRECTION((1.,0.,0.));
#173=IFCAXIS2PLACEMENT3D(#170,#171,#172);
#174=IFCDIRECTION((0.,0.,1.));
#175=IFCEXTRUDEDAREASOLID(#169,#173,#174,1.3999999999999999);
#176=IFCSHAPEREPRESENTATION(#16,'Body','SweptSolid',(#175));
#177=IFCPRODUCTDEFINITIONSHAPE($,$,(#176));
#178=IFCOWNERHISTORY(#3,#4,.READWRITE.,.MODIFIED.,1789307110,#3,#4,1789307110);
#179=IFCBUILDINGELEMENTPROXY('2VPc9l5srDNuBEsLWVgFh3',#178,'Monoblock-Ventilator',$,'Monoblock',#184,#199,$,.USERDEFINED.);
#180=IFCCARTESIANPOINT((0.,0.,0.30000000000000004));
#181=IFCDIRECTION((0.,0.,1.));
#182=IFCDIRECTION((1.,0.,0.));
#183=IFCAXIS2PLACEMENT3D(#180,#181,#182);
#184=IFCLOCALPLACEMENT(#43,#183);
#185=IFCCARTESIANPOINT((3.,0.,0.));
#186=IFCCARTESIANPOINT((4.,0.,0.));
#187=IFCCARTESIANPOINT((4.,1.2,0.));
#188=IFCCARTESIANPOINT((3.,1.2,0.));
#189=IFCCARTESIANPOINT((3.,0.,0.));
#190=IFCPOLYLINE((#185,#186,#187,#188,#189));
#191=IFCARBITRARYCLOSEDPROFILEDEF(.AREA.,$,#190);
#192=IFCCARTESIANPOINT((0.,0.,0.));
#193=IFCDIRECTION((0.,0.,1.));
#194=IFCDIRECTION((1.,0.,0.));
#195=IFCAXIS2PLACEMENT3D(#192,#193,#194);
#196=IFCDIRECTION((0.,0.,1.));
#197=IFCEXTRUDEDAREASOLID(#191,#195,#196,1.75);
#198=IFCSHAPEREPRESENTATION(#16,'Body','SweptSolid',(#197));
#199=IFCPRODUCTDEFINITIONSHAPE($,$,(#198));
#200=IFCOWNERHISTORY(#3,#4,.READWRITE.,.MODIFIED.,1789307110,#3,#4,1789307110);
#201=IFCBUILDINGELEMENTPROXY('0ONrjY54f23wEvENGwUXo$',#200,'Monoblock-Ausblas',$,'Monoblock',#206,#221,$,.USERDEFINED.);
#202=IFCCARTESIANPOINT((0.,0.,0.30000000000000004));
#203=IFCDIRECTION((0.,0.,1.));
#204=IFCDIRECTION((1.,0.,0.));
#205=IFCAXIS2PLACEMENT3D(#202,#203,#204);
#206=IFCLOCALPLACEMENT(#43,#205);
#207=IFCCARTESIANPOINT((4.,0.,0.));
#208=IFCCARTESIANPOINT((4.5,0.,0.));
#209=IFCCARTESIANPOINT((4.5,1.2,0.));
#210=IFCCARTESIANPOINT((4.,1.2,0.));
#211=IFCCARTESIANPOINT((4.,0.,0.));
#212=IFCPOLYLINE((#207,#208,#209,#210,#211));
#213=IFCARBITRARYCLOSEDPROFILEDEF(.AREA.,$,#212);
#214=IFCCARTESIANPOINT((0.,0.,0.));
#215=IFCDIRECTION((0.,0.,1.));
#216=IFCDIRECTION((1.,0.,0.));
#217=IFCAXIS2PLACEMENT3D(#214,#215,#216);
#218=IFCDIRECTION((0.,0.,1.));
#219=IFCEXTRUDEDAREASOLID(#213,#217,#218,1.1499999999999999);
#220=IFCSHAPEREPRESENTATION(#16,'Body','SweptSolid',(#219));
#221=IFCPRODUCTDEFINITIONSHAPE($,$,(#220));
#222=IFCOWNERHISTORY(#3,#4,.READWRITE.,.MODIFIED.,1789307110,#3,#4,1789307110);
#223=IFCBUILDINGELEMENTPROXY('2PzD55Qy11sueCXCLjv9_a',#222,'Monoblock-Filtertuer',$,'Monoblock',#228,#243,$,.USERDEFINED.);
#224=IFCCARTESIANPOINT((0.,0.,0.35000000000000003));
#225=IFCDIRECTION((0.,0.,1.));
#226=IFCDIRECTION((1.,0.,0.));
#227=IFCAXIS2PLACEMENT3D(#224,#225,#226);
#228=IFCLOCALPLACEMENT(#43,#227);
#229=IFCCARTESIANPOINT((0.88,1.2,0.));
#230=IFCCARTESIANPOINT((1.4199999999999999,1.2,0.));
#231=IFCCARTESIANPOINT((1.4199999999999999,1.26,0.));
#232=IFCCARTESIANPOINT((0.88,1.26,0.));
#233=IFCCARTESIANPOINT((0.88,1.2,0.));
#234=IFCPOLYLINE((#229,#230,#231,#232,#233));
#235=IFCARBITRARYCLOSEDPROFILEDEF(.AREA.,$,#234);
#236=IFCCARTESIANPOINT((0.,0.,0.));
#237=IFCDIRECTION((0.,0.,1.));
#238=IFCDIRECTION((1.,0.,0.));
#239=IFCAXIS2PLACEMENT3D(#236,#237,#238);
#240=IFCDIRECTION((0.,0.,1.));
#241=IFCEXTRUDEDAREASOLID(#235,#239,#240,1.3174999999999999);
#242=IFCSHAPEREPRESENTATION(#16,'Body','SweptSolid',(#241));
#243=IFCPRODUCTDEFINITIONSHAPE($,$,(#242));
#244=IFCOWNERHISTORY(#3,#4,.READWRITE.,.MODIFIED.,1789307110,#3,#4,1789307110);
#245=IFCBUILDINGELEMENTPROXY('0cb8M_rcXBb91QB8HFSbZY',#244,'Monoblock-Ansaugstutzen',$,'Monoblock',#250,#265,$,.USERDEFINED.);
#246=IFCCARTESIANPOINT((0.,0.,0.70000000000000007));
#247=IFCDIRECTION((0.,0.,1.));
#248=IFCDIRECTION((1.,0.,0.));
#249=IFCAXIS2PLACEMENT3D(#246,#247,#248);
#250=IFCLOCALPLACEMENT(#43,#249);
#251=IFCCARTESIANPOINT((-0.34999999999999998,0.32999999999999996,0.));
#252=IFCCARTESIANPOINT((0.,0.32999999999999996,0.));
#253=IFCCARTESIANPOINT((0.,0.87,0.));
#254=IFCCARTESIANPOINT((-0.34999999999999998,0.87,0.));
#255=IFCCARTESIANPOINT((-0.34999999999999998,0.32999999999999996,0.));
#256=IFCPOLYLINE((#251,#252,#253,#254,#255));
#257=IFCARBITRARYCLOSEDPROFILEDEF(.AREA.,$,#256);
#258=IFCCARTESIANPOINT((0.,0.,0.));
#259=IFCDIRECTION((0.,0.,1.));
#260=IFCDIRECTION((1.,0.,0.));
#261=IFCAXIS2PLACEMENT3D(#258,#259,#260);
#262=IFCDIRECTION((0.,0.,1.));
#263=IFCEXTRUDEDAREASOLID(#257,#261,#262,0.55000000000000004);
#264=IFCSHAPEREPRESENTATION(#16,'Body','SweptSolid',(#263));
#265=IFCPRODUCTDEFINITIONSHAPE($,$,(#264));
#266=IFCOWNERHISTORY(#3,#4,.READWRITE.,.MODIFIED.,1789307110,#3,#4,1789307110);
#267=IFCBUILDINGELEMENTPROXY('0U70$irnX2nebuQEmH4kb6',#266,'Monoblock-Ausblasstutzen',$,'Monoblock',#272,#287,$,.USERDEFINED.);
#268=IFCCARTESIANPOINT((0.,0.,0.70000000000000007));
#269=IFCDIRECTION((0.,0.,1.));
#270=IFCDIRECTION((1.,0.,0.));
#271=IFCAXIS2PLACEMENT3D(#268,#269,#270);
#272=IFCLOCALPLACEMENT(#43,#271);
#273=IFCCARTESIANPOINT((4.5,0.32999999999999996,0.));
#274=IFCCARTESIANPOINT((4.8499999999999996,0.32999999999999996,0.));
#275=IFCCARTESIANPOINT((4.8499999999999996,0.87,0.));
#276=IFCCARTESIANPOINT((4.5,0.87,0.));
#277=IFCCARTESIANPOINT((4.5,0.32999999999999996,0.));
#278=IFCPOLYLINE((#273,#274,#275,#276,#277));
#279=IFCARBITRARYCLOSEDPROFILEDEF(.AREA.,$,#278);
#280=IFCCARTESIANPOINT((0.,0.,0.));
#281=IFCDIRECTION((0.,0.,1.));
#282=IFCDIRECTION((1.,0.,0.));
#283=IFCAXIS2PLACEMENT3D(#280,#281,#282);
#284=IFCDIRECTION((0.,0.,1.));
#285=IFCEXTRUDEDAREASOLID(#279,#283,#284,0.55000000000000004);
#286=IFCSHAPEREPRESENTATION(#16,'Body','SweptSolid',(#285));
#287=IFCPRODUCTDEFINITIONSHAPE($,$,(#286));
#288=IFCOWNERHISTORY(#3,#4,.READWRITE.,.MODIFIED.,1789307110,#3,#4,1789307110);
#289=IFCBUILDINGELEMENTPROXY('2gAoJHL8HCje1GAShf3l8U',#288,'WR-01','Freiraum vor Filter','Wartungsraum',#294,#309,$,.USERDEFINED.);
#290=IFCCARTESIANPOINT((0.,0.,0.20000000000000001));
#291=IFCDIRECTION((0.,0.,1.));
#292=IFCDIRECTION((1.,0.,0.));
#293=IFCAXIS2PLACEMENT3D(#290,#291,#292);
#294=IFCLOCALPLACEMENT(#43,#293);
#295=IFCCARTESIANPOINT((0.80000000000000004,1.2,0.));
#296=IFCCARTESIANPOINT((1.5,1.2,0.));
#297=IFCCARTESIANPOINT((1.5,2.1000000000000001,0.));
#298=IFCCARTESIANPOINT((0.80000000000000004,2.1000000000000001,0.));
#299=IFCCARTESIANPOINT((0.80000000000000004,1.2,0.));
#300=IFCPOLYLINE((#295,#296,#297,#298,#299));
#301=IFCARBITRARYCLOSEDPROFILEDEF(.AREA.,$,#300);
#302=IFCCARTESIANPOINT((0.,0.,0.));
#303=IFCDIRECTION((0.,0.,1.));
#304=IFCDIRECTION((1.,0.,0.));
#305=IFCAXIS2PLACEMENT3D(#302,#303,#304);
#306=IFCDIRECTION((0.,0.,1.));
#307=IFCEXTRUDEDAREASOLID(#301,#305,#306,2.);
#308=IFCSHAPEREPRESENTATION(#16,'Body','SweptSolid',(#307));
#309=IFCPRODUCTDEFINITIONSHAPE($,$,(#308));
#310=IFCOWNERHISTORY(#3,#4,.READWRITE.,.ADDED.,1789307110,#3,#4,1789307110);
#311=IFCELEMENTQUANTITY('3RbQIEuDT2Z8UaqmFcuvkW',#310,'Qto_BuildingElementProxyBaseQuantities',$,'BaseQuantities',(#314));
#312=IFCOWNERHISTORY(#3,#4,.READWRITE.,.ADDED.,1789307110,#3,#4,1789307110);
#313=IFCRELDEFINESBYPROPERTIES('2l7QTR10T5OgBPEuSU1_tT',#312,$,$,(#289),#311);
#314=IFCQUANTITYVOLUME('GrossVolume',$,$,1.26,$);
ENDSEC;
END-ISO-10303-21;
