ISO-10303-21;
HEADER;
FILE_DESCRIPTION(('ViewDefinition[DesignTransferView]'),'2;1');
FILE_NAME('/dev/null','2026-09-13T15:45:12+02:00',(''),(''),'IfcOpenShell 0.8.5','IfcOpenShell 0.8.5','Nobody');
FILE_SCHEMA(('IFC4'));
ENDSEC;
DATA;
#1=IFCPERSON('catalog-pipeline','Pipeline','Catalog',$,$,$,$,$);
#2=IFCORGANIZATION('pragmaticBIM','pragmaticBIM',$,$,$);
#3=IFCPERSONANDORGANIZATION(#1,#2,$);
#4=IFCAPPLICATION(#2,'0.1.0','Catalog IFC Pipeline','catalog-ifc-pipeline');
#5=IFCOWNERHISTORY(#3,#4,.READWRITE.,.ADDED.,1789307112,#3,#4,1789307112);
#6=IFCPROJECT('3zgRAWT8zELgLPc2ngYMeP',#5,'Catalog \X2\2014\X0\ coordination-zone-01',$,$,$,$,(#15),#10);
#7=IFCSIUNIT(*,.LENGTHUNIT.,$,.METRE.);
#8=IFCSIUNIT(*,.AREAUNIT.,$,.SQUARE_METRE.);
#9=IFCSIUNIT(*,.VOLUMEUNIT.,$,.CUBIC_METRE.);
#10=IFCUNITASSIGNMENT((#8,#9,#7));
#11=IFCCARTESIANPOINT((0.,0.,0.));
#12=IFCDIRECTION((0.,0.,1.));
#13=IFCDIRECTION((1.,0.,0.));
#14=IFCAXIS2PLACEMENT3D(#11,#12,#13);
#15=IFCGEOMETRICREPRESENTATIONCONTEXT($,'Model',3,1.0000000000000001E-05,#14,$);
#16=IFCGEOMETRICREPRESENTATIONSUBCONTEXT('Body','Model',*,*,*,*,#15,$,.MODEL_VIEW.,$);
#17=IFCOWNERHISTORY(#3,#4,.READWRITE.,.MODIFIED.,1789307112,#3,#4,1789307112);
#18=IFCSITE('2QJUXk3yLC2ubtK9WRieRB',#17,'Site',$,$,#29,$,$,$,$,$,$,$,$);
#19=IFCOWNERHISTORY(#3,#4,.READWRITE.,.MODIFIED.,1789307112,#3,#4,1789307112);
#20=IFCBUILDING('2OD4V_UxPFxQnrUK61pMwI',#19,'Building',$,$,#34,$,$,$,$,$,$);
#21=IFCOWNERHISTORY(#3,#4,.READWRITE.,.ADDED.,1789307112,#3,#4,1789307112);
#22=IFCRELAGGREGATES('0orPippgzBlPCC7LWyfFhb',#21,$,$,#6,(#18));
#23=IFCOWNERHISTORY(#3,#4,.READWRITE.,.ADDED.,1789307112,#3,#4,1789307112);
#24=IFCRELAGGREGATES('1LJD_00O9BOgBlPtGQSfM1',#23,$,$,#18,(#20));
#25=IFCCARTESIANPOINT((0.,0.,0.));
#26=IFCDIRECTION((0.,0.,1.));
#27=IFCDIRECTION((1.,0.,0.));
#28=IFCAXIS2PLACEMENT3D(#25,#26,#27);
#29=IFCLOCALPLACEMENT($,#28);
#30=IFCCARTESIANPOINT((0.,0.,0.));
#31=IFCDIRECTION((0.,0.,1.));
#32=IFCDIRECTION((1.,0.,0.));
#33=IFCAXIS2PLACEMENT3D(#30,#31,#32);
#34=IFCLOCALPLACEMENT(#29,#33);
#35=IFCOWNERHISTORY(#3,#4,.READWRITE.,.MODIFIED.,1789307112,#3,#4,1789307112);
#36=IFCBUILDINGSTOREY('1UoBXd7Dr5PASMhiJAcnVb',#35,'Level 0',$,$,#43,$,$,$,0.);
#37=IFCOWNERHISTORY(#3,#4,.READWRITE.,.ADDED.,1789307112,#3,#4,1789307112);
#38=IFCRELAGGREGATES('3d3SD3QODDievcWTmfSNGY',#37,$,$,#20,(#36));
#39=IFCCARTESIANPOINT((0.,0.,0.));
#40=IFCDIRECTION((0.,0.,1.));
#41=IFCDIRECTION((1.,0.,0.));
#42=IFCAXIS2PLACEMENT3D(#39,#40,#41);
#43=IFCLOCALPLACEMENT(#34,#42);
#44=IFCOWNERHISTORY(#3,#4,.READWRITE.,.MODIFIED.,1789307112,#3,#4,1789307112);
#45=IFCSLAB('26FikXgOz7NBZpwzu7Zvul',#44,'LR-01-FloorSlab',$,$,#52,#67,$,.FLOOR.);
#46=IFCOWNERHISTORY(#3,#4,.READWRITE.,.MODIFIED.,1789307112,#3,#4,1789307112);
#47=IFCRELCONTAINEDINSPATIALSTRUCTURE('303uiEWKf2kPm8fr8j1mRT',#46,$,$,(#113,#179,#201,#267,#45,#69,#91,#135,#157,#289,#223,#245,#311),#36);
#48=IFCCARTESIANPOINT((0.,0.,-0.40000000000000002));
#49=IFCDIRECTION((0.,0.,1.));
#50=IFCDIRECTION((1.,0.,0.));
#51=IFCAXIS2PLACEMENT3D(#48,#49,#50);
#52=IFCLOCALPLACEMENT(#43,#51);
#53=IFCCARTESIANPOINT((0.,0.,0.));
#54=IFCCARTESIANPOINT((7.2000000000000002,0.,0.));
#55=IFCCARTESIANPOINT((7.2000000000000002,5.,0.));
#56=IFCCARTESIANPOINT((0.,5.,0.));
#57=IFCCARTESIANPOINT((0.,0.,0.));
#58=IFCPOLYLINE((#53,#54,#55,#56,#57));
#59=IFCARBITRARYCLOSEDPROFILEDEF(.AREA.,$,#58);
#60=IFCCARTESIANPOINT((0.,0.,0.));
#61=IFCDIRECTION((0.,0.,1.));
#62=IFCDIRECTION((1.,0.,0.));
#63=IFCAXIS2PLACEMENT3D(#60,#61,#62);
#64=IFCDIRECTION((0.,0.,1.));
#65=IFCEXTRUDEDAREASOLID(#59,#63,#64,0.29999999999999999);
#66=IFCSHAPEREPRESENTATION(#16,'Body','SweptSolid',(#65));
#67=IFCPRODUCTDEFINITIONSHAPE($,$,(#66));
#68=IFCOWNERHISTORY(#3,#4,.READWRITE.,.MODIFIED.,1789307112,#3,#4,1789307112);
#69=IFCCOVERING('3$7N58de1FLA2UqtX_5Bbt',#68,'LR-01-FloorCovering',$,$,#74,#89,$,.FLOORING.);
#70=IFCCARTESIANPOINT((0.,0.,-0.10000000000000001));
#71=IFCDIRECTION((0.,0.,1.));
#72=IFCDIRECTION((1.,0.,0.));
#73=IFCAXIS2PLACEMENT3D(#70,#71,#72);
#74=IFCLOCALPLACEMENT(#43,#73);
#75=IFCCARTESIANPOINT((0.,0.,0.));
#76=IFCCARTESIANPOINT((4.,0.,0.));
#77=IFCCARTESIANPOINT((4.,5.,0.));
#78=IFCCARTESIANPOINT((0.,5.,0.));
#79=IFCCARTESIANPOINT((0.,0.,0.));
#80=IFCPOLYLINE((#75,#76,#77,#78,#79));
#81=IFCARBITRARYCLOSEDPROFILEDEF(.AREA.,$,#80);
#82=IFCCARTESIANPOINT((0.,0.,0.));
#83=IFCDIRECTION((0.,0.,1.));
#84=IFCDIRECTION((1.,0.,0.));
#85=IFCAXIS2PLACEMENT3D(#82,#83,#84);
#86=IFCDIRECTION((0.,0.,1.));
#87=IFCEXTRUDEDAREASOLID(#81,#85,#86,0.10000000000000001);
#88=IFCSHAPEREPRESENTATION(#16,'Body','SweptSolid',(#87));
#89=IFCPRODUCTDEFINITIONSHAPE($,$,(#88));
#90=IFCOWNERHISTORY(#3,#4,.READWRITE.,.MODIFIED.,1789307112,#3,#4,1789307112);
#91=IFCCOVERING('26N0J6i9r42fipm3daCUS6',#90,'LR-01-N-FloorCovering',$,$,#96,#111,$,.FLOORING.);
#92=IFCCARTESIANPOINT((0.,0.,-0.10000000000000001));
#93=IFCDIRECTION((0.,0.,1.));
#94=IFCDIRECTION((1.,0.,0.));
#95=IFCAXIS2PLACEMENT3D(#92,#93,#94);
#96=IFCLOCALPLACEMENT(#43,#95);
#97=IFCCARTESIANPOINT((4.2000000000000002,0.,0.));
#98=IFCCARTESIANPOINT((7.2000000000000002,0.,0.));
#99=IFCCARTESIANPOINT((7.2000000000000002,5.,0.));
#100=IFCCARTESIANPOINT((4.2000000000000002,5.,0.));
#101=IFCCARTESIANPOINT((4.2000000000000002,0.,0.));
#102=IFCPOLYLINE((#97,#98,#99,#100,#101));
#103=IFCARBITRARYCLOSEDPROFILEDEF(.AREA.,$,#102);
#104=IFCCARTESIANPOINT((0.,0.,0.));
#105=IFCDIRECTION((0.,0.,1.));
#106=IFCDIRECTION((1.,0.,0.));
#107=IFCAXIS2PLACEMENT3D(#104,#105,#106);
#108=IFCDIRECTION((0.,0.,1.));
#109=IFCEXTRUDEDAREASOLID(#103,#107,#108,0.10000000000000001);
#110=IFCSHAPEREPRESENTATION(#16,'Body','SweptSolid',(#109));
#111=IFCPRODUCTDEFINITIONSHAPE($,$,(#110));
#112=IFCOWNERHISTORY(#3,#4,.READWRITE.,.MODIFIED.,1789307112,#3,#4,1789307112);
#113=IFCSLAB('0rsT4zVnn2j8Ab5E67s8FC',#112,'LR-01-MidSlab',$,$,#118,#133,$,.FLOOR.);
#114=IFCCARTESIANPOINT((0.,0.,2.7999999999999998));
#115=IFCDIRECTION((0.,0.,1.));
#116=IFCDIRECTION((1.,0.,0.));
#117=IFCAXIS2PLACEMENT3D(#114,#115,#116);
#118=IFCLOCALPLACEMENT(#43,#117);
#119=IFCCARTESIANPOINT((2.5,0.,0.));
#120=IFCCARTESIANPOINT((7.2000000000000002,0.,0.));
#121=IFCCARTESIANPOINT((7.2000000000000002,5.,0.));
#122=IFCCARTESIANPOINT((2.5,5.,0.));
#123=IFCCARTESIANPOINT((2.5,0.,0.));
#124=IFCPOLYLINE((#119,#120,#121,#122,#123));
#125=IFCARBITRARYCLOSEDPROFILEDEF(.AREA.,$,#124);
#126=IFCCARTESIANPOINT((0.,0.,0.));
#127=IFCDIRECTION((0.,0.,1.));
#128=IFCDIRECTION((1.,0.,0.));
#129=IFCAXIS2PLACEMENT3D(#126,#127,#128);
#130=IFCDIRECTION((0.,0.,1.));
#131=IFCEXTRUDEDAREASOLID(#125,#129,#130,0.29999999999999999);
#132=IFCSHAPEREPRESENTATION(#16,'Body','SweptSolid',(#131));
#133=IFCPRODUCTDEFINITIONSHAPE($,$,(#132));
#134=IFCOWNERHISTORY(#3,#4,.READWRITE.,.MODIFIED.,1789307112,#3,#4,1789307112);
#135=IFCCOVERING('3XtM_bugjA6f7XOtnvzQG9',#134,'LR-01-N-UpperFloorCovering',$,$,#140,#155,$,.FLOORING.);
#136=IFCCARTESIANPOINT((0.,0.,3.0999999999999996));
#137=IFCDIRECTION((0.,0.,1.));
#138=IFCDIRECTION((1.,0.,0.));
#139=IFCAXIS2PLACEMENT3D(#136,#137,#138);
#140=IFCLOCALPLACEMENT(#43,#139);
#141=IFCCARTESIANPOINT((2.5,0.,0.));
#142=IFCCARTESIANPOINT((7.2000000000000002,0.,0.));
#143=IFCCARTESIANPOINT((7.2000000000000002,5.,0.));
#144=IFCCARTESIANPOINT((2.5,5.,0.));
#145=IFCCARTESIANPOINT((2.5,0.,0.));
#146=IFCPOLYLINE((#141,#142,#143,#144,#145));
#147=IFCARBITRARYCLOSEDPROFILEDEF(.AREA.,$,#146);
#148=IFCCARTESIANPOINT((0.,0.,0.));
#149=IFCDIRECTION((0.,0.,1.));
#150=IFCDIRECTION((1.,0.,0.));
#151=IFCAXIS2PLACEMENT3D(#148,#149,#150);
#152=IFCDIRECTION((0.,0.,1.));
#153=IFCEXTRUDEDAREASOLID(#147,#151,#152,0.10000000000000001);
#154=IFCSHAPEREPRESENTATION(#16,'Body','SweptSolid',(#153));
#155=IFCPRODUCTDEFINITIONSHAPE($,$,(#154));
#156=IFCOWNERHISTORY(#3,#4,.READWRITE.,.MODIFIED.,1789307112,#3,#4,1789307112);
#157=IFCSLAB('0aiJ$AzZX2kgxMLDdYRz$O',#156,'LR-01-TopSlab',$,$,#162,#177,$,.FLOOR.);
#158=IFCCARTESIANPOINT((0.,0.,6.2999999999999998));
#159=IFCDIRECTION((0.,0.,1.));
#160=IFCDIRECTION((1.,0.,0.));
#161=IFCAXIS2PLACEMENT3D(#158,#159,#160);
#162=IFCLOCALPLACEMENT(#43,#161);
#163=IFCCARTESIANPOINT((0.,0.,0.));
#164=IFCCARTESIANPOINT((7.2000000000000002,0.,0.));
#165=IFCCARTESIANPOINT((7.2000000000000002,5.,0.));
#166=IFCCARTESIANPOINT((0.,5.,0.));
#167=IFCCARTESIANPOINT((0.,0.,0.));
#168=IFCPOLYLINE((#163,#164,#165,#166,#167));
#169=IFCARBITRARYCLOSEDPROFILEDEF(.AREA.,$,#168);
#170=IFCCARTESIANPOINT((0.,0.,0.));
#171=IFCDIRECTION((0.,0.,1.));
#172=IFCDIRECTION((1.,0.,0.));
#173=IFCAXIS2PLACEMENT3D(#170,#171,#172);
#174=IFCDIRECTION((0.,0.,1.));
#175=IFCEXTRUDEDAREASOLID(#169,#173,#174,0.29999999999999999);
#176=IFCSHAPEREPRESENTATION(#16,'Body','SweptSolid',(#175));
#177=IFCPRODUCTDEFINITIONSHAPE($,$,(#176));
#178=IFCOWNERHISTORY(#3,#4,.READWRITE.,.MODIFIED.,1789307112,#3,#4,1789307112);
#179=IFCBEAM('3M4jVl5TX7y96FmYqE67e0',#178,'LR-01-Beam-01',$,$,#184,#199,$,.BEAM.);
#180=IFCCARTESIANPOINT((0.,0.,5.7999999999999998));
#181=IFCDIRECTION((0.,0.,1.));
#182=IFCDIRECTION((1.,0.,0.));
#183=IFCAXIS2PLACEMENT3D(#180,#181,#182);
#184=IFCLOCALPLACEMENT(#43,#183);
#185=IFCCARTESIANPOINT((0.,0.875,0.));
#186=IFCCARTESIANPOINT((7.2000000000000002,0.875,0.));
#187=IFCCARTESIANPOINT((7.2000000000000002,1.125,0.));
#188=IFCCARTESIANPOINT((0.,1.125,0.));
#189=IFCCARTESIANPOINT((0.,0.875,0.));
#190=IFCPOLYLINE((#185,#186,#187,#188,#189));
#191=IFCARBITRARYCLOSEDPROFILEDEF(.AREA.,$,#190);
#192=IFCCARTESIANPOINT((0.,0.,0.));
#193=IFCDIRECTION((0.,0.,1.));
#194=IFCDIRECTION((1.,0.,0.));
#195=IFCAXIS2PLACEMENT3D(#192,#193,#194);
#196=IFCDIRECTION((0.,0.,1.));
#197=IFCEXTRUDEDAREASOLID(#191,#195,#196,0.5);
#198=IFCSHAPEREPRESENTATION(#16,'Body','SweptSolid',(#197));
#199=IFCPRODUCTDEFINITIONSHAPE($,$,(#198));
#200=IFCOWNERHISTORY(#3,#4,.READWRITE.,.MODIFIED.,1789307112,#3,#4,1789307112);
#201=IFCBEAM('0fu$7j3zz8LBtyL1mfTBS5',#200,'LR-01-Beam-02',$,$,#206,#221,$,.BEAM.);
#202=IFCCARTESIANPOINT((0.,0.,5.7999999999999998));
#203=IFCDIRECTION((0.,0.,1.));
#204=IFCDIRECTION((1.,0.,0.));
#205=IFCAXIS2PLACEMENT3D(#202,#203,#204);
#206=IFCLOCALPLACEMENT(#43,#205);
#207=IFCCARTESIANPOINT((0.,1.875,0.));
#208=IFCCARTESIANPOINT((7.2000000000000002,1.875,0.));
#209=IFCCARTESIANPOINT((7.2000000000000002,2.125,0.));
#210=IFCCARTESIANPOINT((0.,2.125,0.));
#211=IFCCARTESIANPOINT((0.,1.875,0.));
#212=IFCPOLYLINE((#207,#208,#209,#210,#211));
#213=IFCARBITRARYCLOSEDPROFILEDEF(.AREA.,$,#212);
#214=IFCCARTESIANPOINT((0.,0.,0.));
#215=IFCDIRECTION((0.,0.,1.));
#216=IFCDIRECTION((1.,0.,0.));
#217=IFCAXIS2PLACEMENT3D(#214,#215,#216);
#218=IFCDIRECTION((0.,0.,1.));
#219=IFCEXTRUDEDAREASOLID(#213,#217,#218,0.5);
#220=IFCSHAPEREPRESENTATION(#16,'Body','SweptSolid',(#219));
#221=IFCPRODUCTDEFINITIONSHAPE($,$,(#220));
#222=IFCOWNERHISTORY(#3,#4,.READWRITE.,.MODIFIED.,1789307112,#3,#4,1789307112);
#223=IFCBEAM('2AuatoPSv4MhQnXthHglZq',#222,'LR-01-Beam-03',$,$,#228,#243,$,.BEAM.);
#224=IFCCARTESIANPOINT((0.,0.,5.7999999999999998));
#225=IFCDIRECTION((0.,0.,1.));
#226=IFCDIRECTION((1.,0.,0.));
#227=IFCAXIS2PLACEMENT3D(#224,#225,#226);
#228=IFCLOCALPLACEMENT(#43,#227);
#229=IFCCARTESIANPOINT((0.,2.875,0.));
#230=IFCCARTESIANPOINT((7.2000000000000002,2.875,0.));
#231=IFCCARTESIANPOINT((7.2000000000000002,3.125,0.));
#232=IFCCARTESIANPOINT((0.,3.125,0.));
#233=IFCCARTESIANPOINT((0.,2.875,0.));
#234=IFCPOLYLINE((#229,#230,#231,#232,#233));
#235=IFCARBITRARYCLOSEDPROFILEDEF(.AREA.,$,#234);
#236=IFCCARTESIANPOINT((0.,0.,0.));
#237=IFCDIRECTION((0.,0.,1.));
#238=IFCDIRECTION((1.,0.,0.));
#239=IFCAXIS2PLACEMENT3D(#236,#237,#238);
#240=IFCDIRECTION((0.,0.,1.));
#241=IFCEXTRUDEDAREASOLID(#235,#239,#240,0.5);
#242=IFCSHAPEREPRESENTATION(#16,'Body','SweptSolid',(#241));
#243=IFCPRODUCTDEFINITIONSHAPE($,$,(#242));
#244=IFCOWNERHISTORY(#3,#4,.READWRITE.,.MODIFIED.,1789307112,#3,#4,1789307112);
#245=IFCBEAM('1Q_bFiydb6u8KvpV7wjSbl',#244,'LR-01-Beam-04',$,$,#250,#265,$,.BEAM.);
#246=IFCCARTESIANPOINT((0.,0.,5.7999999999999998));
#247=IFCDIRECTION((0.,0.,1.));
#248=IFCDIRECTION((1.,0.,0.));
#249=IFCAXIS2PLACEMENT3D(#246,#247,#248);
#250=IFCLOCALPLACEMENT(#43,#249);
#251=IFCCARTESIANPOINT((0.,3.875,0.));
#252=IFCCARTESIANPOINT((7.2000000000000002,3.875,0.));
#253=IFCCARTESIANPOINT((7.2000000000000002,4.125,0.));
#254=IFCCARTESIANPOINT((0.,4.125,0.));
#255=IFCCARTESIANPOINT((0.,3.875,0.));
#256=IFCPOLYLINE((#251,#252,#253,#254,#255));
#257=IFCARBITRARYCLOSEDPROFILEDEF(.AREA.,$,#256);
#258=IFCCARTESIANPOINT((0.,0.,0.));
#259=IFCDIRECTION((0.,0.,1.));
#260=IFCDIRECTION((1.,0.,0.));
#261=IFCAXIS2PLACEMENT3D(#258,#259,#260);
#262=IFCDIRECTION((0.,0.,1.));
#263=IFCEXTRUDEDAREASOLID(#257,#261,#262,0.5);
#264=IFCSHAPEREPRESENTATION(#16,'Body','SweptSolid',(#263));
#265=IFCPRODUCTDEFINITIONSHAPE($,$,(#264));
#266=IFCOWNERHISTORY(#3,#4,.READWRITE.,.MODIFIED.,1789307112,#3,#4,1789307112);
#267=IFCCOVERING('2szFix7IfFcf6f5TMQneya',#266,'LR-01-CeilingCovering',$,$,#272,#287,$,.CEILING.);
#268=IFCCARTESIANPOINT((0.,0.,5.5999999999999996));
#269=IFCDIRECTION((0.,0.,1.));
#270=IFCDIRECTION((1.,0.,0.));
#271=IFCAXIS2PLACEMENT3D(#268,#269,#270);
#272=IFCLOCALPLACEMENT(#43,#271);
#273=IFCCARTESIANPOINT((0.,0.,0.));
#274=IFCCARTESIANPOINT((7.2000000000000002,0.,0.));
#275=IFCCARTESIANPOINT((7.2000000000000002,5.,0.));
#276=IFCCARTESIANPOINT((0.,5.,0.));
#277=IFCCARTESIANPOINT((0.,0.,0.));
#278=IFCPOLYLINE((#273,#274,#275,#276,#277));
#279=IFCARBITRARYCLOSEDPROFILEDEF(.AREA.,$,#278);
#280=IFCCARTESIANPOINT((0.,0.,0.));
#281=IFCDIRECTION((0.,0.,1.));
#282=IFCDIRECTION((1.,0.,0.));
#283=IFCAXIS2PLACEMENT3D(#280,#281,#282);
#284=IFCDIRECTION((0.,0.,1.));
#285=IFCEXTRUDEDAREASOLID(#279,#283,#284,0.10000000000000001);
#286=IFCSHAPEREPRESENTATION(#16,'Body','SweptSolid',(#285));
#287=IFCPRODUCTDEFINITIONSHAPE($,$,(#286));
#288=IFCOWNERHISTORY(#3,#4,.READWRITE.,.MODIFIED.,1789307112,#3,#4,1789307112);
#289=IFCWALL('0hmz5u$_P41AZ8UsTIp2AI',#288,'LR-01-Partition',$,$,#294,#309,$,.PARTITIONING.);
#290=IFCCARTESIANPOINT((4.2000000000000002,0.,-0.10000000000000001));
#291=IFCDIRECTION((0.,0.,1.));
#292=IFCDIRECTION((0.,1.,0.));
#293=IFCAXIS2PLACEMENT3D(#290,#291,#292);
#294=IFCLOCALPLACEMENT(#43,#293);
#295=IFCCARTESIANPOINT((0.,0.,0.));
#296=IFCCARTESIANPOINT((5.,0.,0.));
#297=IFCCARTESIANPOINT((5.,0.20000000000000001,0.));
#298=IFCCARTESIANPOINT((0.,0.20000000000000001,0.));
#299=IFCCARTESIANPOINT((0.,0.,0.));
#300=IFCPOLYLINE((#295,#296,#297,#298,#299));
#301=IFCARBITRARYCLOSEDPROFILEDEF(.AREA.,$,#300);
#302=IFCCARTESIANPOINT((0.,0.,0.));
#303=IFCDIRECTION((0.,0.,1.));
#304=IFCDIRECTION((1.,0.,0.));
#305=IFCAXIS2PLACEMENT3D(#302,#303,#304);
#306=IFCDIRECTION((0.,0.,1.));
#307=IFCEXTRUDEDAREASOLID(#301,#305,#306,2.8999999999999999);
#308=IFCSHAPEREPRESENTATION(#16,'Body','SweptSolid',(#307));
#309=IFCPRODUCTDEFINITIONSHAPE($,$,(#308));
#310=IFCOWNERHISTORY(#3,#4,.READWRITE.,.MODIFIED.,1789307112,#3,#4,1789307112);
#311=IFCBUILDINGELEMENTPROXY('0GrmBZwMv5gQXzDdtZBdFr',#310,'KOORD-Dach',$,'Koordinationszone',#316,#331,$,.USERDEFINED.);
#312=IFCCARTESIANPOINT((0.,0.,5.1999999999999993));
#313=IFCDIRECTION((0.,0.,1.));
#314=IFCDIRECTION((1.,0.,0.));
#315=IFCAXIS2PLACEMENT3D(#312,#313,#314);
#316=IFCLOCALPLACEMENT(#43,#315);
#317=IFCCARTESIANPOINT((0.,0.,0.));
#318=IFCCARTESIANPOINT((7.2000000000000002,0.,0.));
#319=IFCCARTESIANPOINT((7.2000000000000002,5.,0.));
#320=IFCCARTESIANPOINT((0.,5.,0.));
#321=IFCCARTESIANPOINT((0.,0.,0.));
#322=IFCPOLYLINE((#317,#318,#319,#320,#321));
#323=IFCARBITRARYCLOSEDPROFILEDEF(.AREA.,$,#322);
#324=IFCCARTESIANPOINT((0.,0.,0.));
#325=IFCDIRECTION((0.,0.,1.));
#326=IFCDIRECTION((1.,0.,0.));
#327=IFCAXIS2PLACEMENT3D(#324,#325,#326);
#328=IFCDIRECTION((0.,0.,1.));
#329=IFCEXTRUDEDAREASOLID(#323,#327,#328,1.7);
#330=IFCSHAPEREPRESENTATION(#16,'Body','SweptSolid',(#329));
#331=IFCPRODUCTDEFINITIONSHAPE($,$,(#330));
#332=IFCOWNERHISTORY(#3,#4,.READWRITE.,.ADDED.,1789307112,#3,#4,1789307112);
#333=IFCELEMENTQUANTITY('2d8fzlhZP4PBax3jcjBJzC',#332,'Qto_BuildingElementProxyBaseQuantities',$,'BaseQuantities',(#336));
#334=IFCOWNERHISTORY(#3,#4,.READWRITE.,.ADDED.,1789307112,#3,#4,1789307112);
#335=IFCRELDEFINESBYPROPERTIES('2Ij5MOcfj17OEMlTlgAzra',#334,$,$,(#311),#333);
#336=IFCQUANTITYVOLUME('GrossVolume',$,$,61.200000000000003,$);
ENDSEC;
END-ISO-10303-21;
