ISO-10303-21;
HEADER;
FILE_DESCRIPTION(('ViewDefinition[DesignTransferView]'),'2;1');
FILE_NAME('/dev/null','2026-09-22T04:47:32+02:00',(''),(''),'IfcOpenShell 0.8.5','IfcOpenShell 0.8.5','Nobody');
FILE_SCHEMA(('IFC4'));
ENDSEC;
DATA;
#1=IFCPERSON('catalog-pipeline','Pipeline','Catalog',$,$,$,$,$);
#2=IFCORGANIZATION('pragmaticBIM','pragmaticBIM',$,$,$);
#3=IFCPERSONANDORGANIZATION(#1,#2,$);
#4=IFCAPPLICATION(#2,'0.1.0','Catalog IFC Pipeline','catalog-ifc-pipeline');
#5=IFCOWNERHISTORY(#3,#4,.READWRITE.,.ADDED.,1790045252,#3,#4,1790045252);
#6=IFCPROJECT('2GZrP2kIz6oRJKGmqx2cU4',#5,'Catalog \X2\2014\X0\ 101',$,$,$,$,(#15),#10);
#7=IFCSIUNIT(*,.LENGTHUNIT.,$,.METRE.);
#8=IFCSIUNIT(*,.AREAUNIT.,$,.SQUARE_METRE.);
#9=IFCSIUNIT(*,.VOLUMEUNIT.,$,.CUBIC_METRE.);
#10=IFCUNITASSIGNMENT((#9,#7,#8));
#11=IFCCARTESIANPOINT((0.,0.,0.));
#12=IFCDIRECTION((0.,0.,1.));
#13=IFCDIRECTION((1.,0.,0.));
#14=IFCAXIS2PLACEMENT3D(#11,#12,#13);
#15=IFCGEOMETRICREPRESENTATIONCONTEXT($,'Model',3,1.0000000000000001E-05,#14,$);
#16=IFCGEOMETRICREPRESENTATIONSUBCONTEXT('Body','Model',*,*,*,*,#15,$,.MODEL_VIEW.,$);
#17=IFCOWNERHISTORY(#3,#4,.READWRITE.,.MODIFIED.,1790045252,#3,#4,1790045252);
#18=IFCSITE('2dIZZsRUP0xRTag9vI48gI',#17,'Site',$,$,#29,$,$,$,$,$,$,$,$);
#19=IFCOWNERHISTORY(#3,#4,.READWRITE.,.MODIFIED.,1790045252,#3,#4,1790045252);
#20=IFCBUILDING('0_wMlNI6X5IfNRNcejgXT5',#19,'Building',$,$,#34,$,$,$,$,$,$);
#21=IFCOWNERHISTORY(#3,#4,.READWRITE.,.ADDED.,1790045252,#3,#4,1790045252);
#22=IFCRELAGGREGATES('0cBvYGD_TEOxMBNMYYM3tA',#21,$,$,#6,(#18));
#23=IFCOWNERHISTORY(#3,#4,.READWRITE.,.ADDED.,1790045252,#3,#4,1790045252);
#24=IFCRELAGGREGATES('2GjYAt2FL0Sh4WAg8cMLU0',#23,$,$,#18,(#20));
#25=IFCCARTESIANPOINT((0.,0.,0.));
#26=IFCDIRECTION((0.,0.,1.));
#27=IFCDIRECTION((1.,0.,0.));
#28=IFCAXIS2PLACEMENT3D(#25,#26,#27);
#29=IFCLOCALPLACEMENT($,#28);
#30=IFCCARTESIANPOINT((0.,0.,0.));
#31=IFCDIRECTION((0.,0.,1.));
#32=IFCDIRECTION((1.,0.,0.));
#33=IFCAXIS2PLACEMENT3D(#30,#31,#32);
#34=IFCLOCALPLACEMENT(#29,#33);
#35=IFCOWNERHISTORY(#3,#4,.READWRITE.,.MODIFIED.,1790045252,#3,#4,1790045252);
#36=IFCBUILDINGSTOREY('3A6met6aL50PAqSycKOS1W',#35,'Level 0',$,$,#43,$,$,$,0.);
#37=IFCOWNERHISTORY(#3,#4,.READWRITE.,.ADDED.,1790045252,#3,#4,1790045252);
#38=IFCRELAGGREGATES('3IqSyA8Uj0VgfujSmbbeyC',#37,$,$,#20,(#36));
#39=IFCCARTESIANPOINT((0.,0.,0.));
#40=IFCDIRECTION((0.,0.,1.));
#41=IFCDIRECTION((1.,0.,0.));
#42=IFCAXIS2PLACEMENT3D(#39,#40,#41);
#43=IFCLOCALPLACEMENT(#34,#42);
#44=IFCOWNERHISTORY(#3,#4,.READWRITE.,.MODIFIED.,1790045252,#3,#4,1790045252);
#45=IFCSLAB('0aHwZ3hvnBn8pfOPfofaKE',#44,'101-FloorSlab',$,$,#52,#67,$,.FLOOR.);
#46=IFCOWNERHISTORY(#3,#4,.READWRITE.,.MODIFIED.,1790045252,#3,#4,1790045252);
#47=IFCRELCONTAINEDINSPATIALSTRUCTURE('1bylLHhNf3VwVsHnnnqMwY',#46,$,$,(#69,#91,#135,#113,#179,#201,#45,#157,#223),#36);
#48=IFCCARTESIANPOINT((0.,0.,-0.40000000000000002));
#49=IFCDIRECTION((0.,0.,1.));
#50=IFCDIRECTION((1.,0.,0.));
#51=IFCAXIS2PLACEMENT3D(#48,#49,#50);
#52=IFCLOCALPLACEMENT(#43,#51);
#53=IFCCARTESIANPOINT((-0.35999999999999999,-0.35999999999999999,0.));
#54=IFCCARTESIANPOINT((7.5600000000000005,-0.35999999999999999,0.));
#55=IFCCARTESIANPOINT((7.5600000000000005,5.,0.));
#56=IFCCARTESIANPOINT((-0.35999999999999999,5.,0.));
#57=IFCCARTESIANPOINT((-0.35999999999999999,-0.35999999999999999,0.));
#58=IFCPOLYLINE((#53,#54,#55,#56,#57));
#59=IFCARBITRARYCLOSEDPROFILEDEF(.AREA.,$,#58);
#60=IFCCARTESIANPOINT((0.,0.,0.));
#61=IFCDIRECTION((0.,0.,1.));
#62=IFCDIRECTION((1.,0.,0.));
#63=IFCAXIS2PLACEMENT3D(#60,#61,#62);
#64=IFCDIRECTION((0.,0.,1.));
#65=IFCEXTRUDEDAREASOLID(#59,#63,#64,0.29999999999999999);
#66=IFCSHAPEREPRESENTATION(#16,'Body','SweptSolid',(#65));
#67=IFCPRODUCTDEFINITIONSHAPE($,$,(#66));
#68=IFCOWNERHISTORY(#3,#4,.READWRITE.,.MODIFIED.,1790045252,#3,#4,1790045252);
#69=IFCCOVERING('0hyoyqMDvDxv7A2pSS_l5f',#68,'101-FloorCovering',$,$,#74,#89,$,.FLOORING.);
#70=IFCCARTESIANPOINT((0.,0.,-0.10000000000000001));
#71=IFCDIRECTION((0.,0.,1.));
#72=IFCDIRECTION((1.,0.,0.));
#73=IFCAXIS2PLACEMENT3D(#70,#71,#72);
#74=IFCLOCALPLACEMENT(#43,#73);
#75=IFCCARTESIANPOINT((0.,0.,0.));
#76=IFCCARTESIANPOINT((2.2666666666666666,0.,0.));
#77=IFCCARTESIANPOINT((2.2666666666666666,5.,0.));
#78=IFCCARTESIANPOINT((0.,5.,0.));
#79=IFCCARTESIANPOINT((0.,0.,0.));
#80=IFCPOLYLINE((#75,#76,#77,#78,#79));
#81=IFCARBITRARYCLOSEDPROFILEDEF(.AREA.,$,#80);
#82=IFCCARTESIANPOINT((0.,0.,0.));
#83=IFCDIRECTION((0.,0.,1.));
#84=IFCDIRECTION((1.,0.,0.));
#85=IFCAXIS2PLACEMENT3D(#82,#83,#84);
#86=IFCDIRECTION((0.,0.,1.));
#87=IFCEXTRUDEDAREASOLID(#81,#85,#86,0.10000000000000001);
#88=IFCSHAPEREPRESENTATION(#16,'Body','SweptSolid',(#87));
#89=IFCPRODUCTDEFINITIONSHAPE($,$,(#88));
#90=IFCOWNERHISTORY(#3,#4,.READWRITE.,.MODIFIED.,1790045252,#3,#4,1790045252);
#91=IFCCOVERING('2NOcYvvYv1CwiD74vOpXPc',#90,'101-N-FloorCovering',$,$,#96,#111,$,.FLOORING.);
#92=IFCCARTESIANPOINT((0.,0.,-0.10000000000000001));
#93=IFCDIRECTION((0.,0.,1.));
#94=IFCDIRECTION((1.,0.,0.));
#95=IFCAXIS2PLACEMENT3D(#92,#93,#94);
#96=IFCLOCALPLACEMENT(#43,#95);
#97=IFCCARTESIANPOINT((2.4666666666666668,0.,0.));
#98=IFCCARTESIANPOINT((7.2000000000000002,0.,0.));
#99=IFCCARTESIANPOINT((7.2000000000000002,5.,0.));
#100=IFCCARTESIANPOINT((2.4666666666666668,5.,0.));
#101=IFCCARTESIANPOINT((2.4666666666666668,0.,0.));
#102=IFCPOLYLINE((#97,#98,#99,#100,#101));
#103=IFCARBITRARYCLOSEDPROFILEDEF(.AREA.,$,#102);
#104=IFCCARTESIANPOINT((0.,0.,0.));
#105=IFCDIRECTION((0.,0.,1.));
#106=IFCDIRECTION((1.,0.,0.));
#107=IFCAXIS2PLACEMENT3D(#104,#105,#106);
#108=IFCDIRECTION((0.,0.,1.));
#109=IFCEXTRUDEDAREASOLID(#103,#107,#108,0.10000000000000001);
#110=IFCSHAPEREPRESENTATION(#16,'Body','SweptSolid',(#109));
#111=IFCPRODUCTDEFINITIONSHAPE($,$,(#110));
#112=IFCOWNERHISTORY(#3,#4,.READWRITE.,.MODIFIED.,1790045252,#3,#4,1790045252);
#113=IFCWALL('2F2tyJDDP9j8PPGVBeKTEt',#112,'101-Partition',$,$,#118,#133,$,.PARTITIONING.);
#114=IFCCARTESIANPOINT((2.4666666666666668,0.,-0.10000000000000001));
#115=IFCDIRECTION((0.,0.,1.));
#116=IFCDIRECTION((0.,1.,0.));
#117=IFCAXIS2PLACEMENT3D(#114,#115,#116);
#118=IFCLOCALPLACEMENT(#43,#117);
#119=IFCCARTESIANPOINT((0.,0.,0.));
#120=IFCCARTESIANPOINT((5.,0.,0.));
#121=IFCCARTESIANPOINT((5.,0.20000000000000001,0.));
#122=IFCCARTESIANPOINT((0.,0.20000000000000001,0.));
#123=IFCCARTESIANPOINT((0.,0.,0.));
#124=IFCPOLYLINE((#119,#120,#121,#122,#123));
#125=IFCARBITRARYCLOSEDPROFILEDEF(.AREA.,$,#124);
#126=IFCCARTESIANPOINT((0.,0.,0.));
#127=IFCDIRECTION((0.,0.,1.));
#128=IFCDIRECTION((1.,0.,0.));
#129=IFCAXIS2PLACEMENT3D(#126,#127,#128);
#130=IFCDIRECTION((0.,0.,1.));
#131=IFCEXTRUDEDAREASOLID(#125,#129,#130,2.8999999999999999);
#132=IFCSHAPEREPRESENTATION(#16,'Body','SweptSolid',(#131));
#133=IFCPRODUCTDEFINITIONSHAPE($,$,(#132));
#134=IFCOWNERHISTORY(#3,#4,.READWRITE.,.MODIFIED.,1790045252,#3,#4,1790045252);
#135=IFCWALL('2AG2EHJF9E$OGliErCL6AX',#134,'101-EnvelopeWest',$,$,#140,#155,$,.SOLIDWALL.);
#136=IFCCARTESIANPOINT((0.,0.,-0.10000000000000001));
#137=IFCDIRECTION((0.,0.,1.));
#138=IFCDIRECTION((0.,1.,0.));
#139=IFCAXIS2PLACEMENT3D(#136,#137,#138);
#140=IFCLOCALPLACEMENT(#43,#139);
#141=IFCCARTESIANPOINT((0.,0.,0.));
#142=IFCCARTESIANPOINT((5.,0.,0.));
#143=IFCCARTESIANPOINT((5.,0.35999999999999999,0.));
#144=IFCCARTESIANPOINT((0.,0.35999999999999999,0.));
#145=IFCCARTESIANPOINT((0.,0.,0.));
#146=IFCPOLYLINE((#141,#142,#143,#144,#145));
#147=IFCARBITRARYCLOSEDPROFILEDEF(.AREA.,$,#146);
#148=IFCCARTESIANPOINT((0.,0.,0.));
#149=IFCDIRECTION((0.,0.,1.));
#150=IFCDIRECTION((1.,0.,0.));
#151=IFCAXIS2PLACEMENT3D(#148,#149,#150);
#152=IFCDIRECTION((0.,0.,1.));
#153=IFCEXTRUDEDAREASOLID(#147,#151,#152,2.8999999999999999);
#154=IFCSHAPEREPRESENTATION(#16,'Body','SweptSolid',(#153));
#155=IFCPRODUCTDEFINITIONSHAPE($,$,(#154));
#156=IFCOWNERHISTORY(#3,#4,.READWRITE.,.MODIFIED.,1790045252,#3,#4,1790045252);
#157=IFCWALL('1Nt9SMVRT2pfxBl4unPV8g',#156,'101-EnvelopeEast',$,$,#162,#177,$,.SOLIDWALL.);
#158=IFCCARTESIANPOINT((7.5600000000000005,0.,-0.10000000000000001));
#159=IFCDIRECTION((0.,0.,1.));
#160=IFCDIRECTION((0.,1.,0.));
#161=IFCAXIS2PLACEMENT3D(#158,#159,#160);
#162=IFCLOCALPLACEMENT(#43,#161);
#163=IFCCARTESIANPOINT((0.,0.,0.));
#164=IFCCARTESIANPOINT((5.,0.,0.));
#165=IFCCARTESIANPOINT((5.,0.35999999999999999,0.));
#166=IFCCARTESIANPOINT((0.,0.35999999999999999,0.));
#167=IFCCARTESIANPOINT((0.,0.,0.));
#168=IFCPOLYLINE((#163,#164,#165,#166,#167));
#169=IFCARBITRARYCLOSEDPROFILEDEF(.AREA.,$,#168);
#170=IFCCARTESIANPOINT((0.,0.,0.));
#171=IFCDIRECTION((0.,0.,1.));
#172=IFCDIRECTION((1.,0.,0.));
#173=IFCAXIS2PLACEMENT3D(#170,#171,#172);
#174=IFCDIRECTION((0.,0.,1.));
#175=IFCEXTRUDEDAREASOLID(#169,#173,#174,2.8999999999999999);
#176=IFCSHAPEREPRESENTATION(#16,'Body','SweptSolid',(#175));
#177=IFCPRODUCTDEFINITIONSHAPE($,$,(#176));
#178=IFCOWNERHISTORY(#3,#4,.READWRITE.,.MODIFIED.,1790045252,#3,#4,1790045252);
#179=IFCWALL('09RaHE7kn7Wh933LvsBx6i',#178,'101-EnvelopeSouth',$,$,#184,#199,$,.SOLIDWALL.);
#180=IFCCARTESIANPOINT((-0.35999999999999999,-0.35999999999999999,-0.10000000000000001));
#181=IFCDIRECTION((0.,0.,1.));
#182=IFCDIRECTION((1.,0.,0.));
#183=IFCAXIS2PLACEMENT3D(#180,#181,#182);
#184=IFCLOCALPLACEMENT(#43,#183);
#185=IFCCARTESIANPOINT((0.,0.,0.));
#186=IFCCARTESIANPOINT((7.9199999999999999,0.,0.));
#187=IFCCARTESIANPOINT((7.9199999999999999,0.35999999999999999,0.));
#188=IFCCARTESIANPOINT((0.,0.35999999999999999,0.));
#189=IFCCARTESIANPOINT((0.,0.,0.));
#190=IFCPOLYLINE((#185,#186,#187,#188,#189));
#191=IFCARBITRARYCLOSEDPROFILEDEF(.AREA.,$,#190);
#192=IFCCARTESIANPOINT((0.,0.,0.));
#193=IFCDIRECTION((0.,0.,1.));
#194=IFCDIRECTION((1.,0.,0.));
#195=IFCAXIS2PLACEMENT3D(#192,#193,#194);
#196=IFCDIRECTION((0.,0.,1.));
#197=IFCEXTRUDEDAREASOLID(#191,#195,#196,2.8999999999999999);
#198=IFCSHAPEREPRESENTATION(#16,'Body','SweptSolid',(#197));
#199=IFCPRODUCTDEFINITIONSHAPE($,$,(#198));
#200=IFCOWNERHISTORY(#3,#4,.READWRITE.,.MODIFIED.,1790045252,#3,#4,1790045252);
#201=IFCWALL('2WFWYTMN58fQ37frPAvNaP',#200,'IW-01',$,$,#206,#221,$,.PARTITIONING.);
#202=IFCCARTESIANPOINT((4.9333333333333336,0.,0.));
#203=IFCDIRECTION((0.,0.,1.));
#204=IFCDIRECTION((0.,1.,0.));
#205=IFCAXIS2PLACEMENT3D(#202,#203,#204);
#206=IFCLOCALPLACEMENT(#43,#205);
#207=IFCCARTESIANPOINT((0.,0.,0.));
#208=IFCCARTESIANPOINT((5.,0.,0.));
#209=IFCCARTESIANPOINT((5.,0.20000000000000001,0.));
#210=IFCCARTESIANPOINT((0.,0.20000000000000001,0.));
#211=IFCCARTESIANPOINT((0.,0.,0.));
#212=IFCPOLYLINE((#207,#208,#209,#210,#211));
#213=IFCARBITRARYCLOSEDPROFILEDEF(.AREA.,$,#212);
#214=IFCCARTESIANPOINT((0.,0.,0.));
#215=IFCDIRECTION((0.,0.,1.));
#216=IFCDIRECTION((1.,0.,0.));
#217=IFCAXIS2PLACEMENT3D(#214,#215,#216);
#218=IFCDIRECTION((0.,0.,1.));
#219=IFCEXTRUDEDAREASOLID(#213,#217,#218,2.7999999999999998);
#220=IFCSHAPEREPRESENTATION(#16,'Body','SweptSolid',(#219));
#221=IFCPRODUCTDEFINITIONSHAPE($,$,(#220));
#222=IFCOWNERHISTORY(#3,#4,.READWRITE.,.MODIFIED.,1790045252,#3,#4,1790045252);
#223=IFCBUILDINGELEMENTPROXY('0NEa$zs4n3fBpmx8b3bDUo',#222,'TV-01',$,'Trockenbauverst\X2\00E4\X0\rkung',#228,#243,$,.USERDEFINED.);
#224=IFCCARTESIANPOINT((4.8533333333333335,2.8999999999999995,0.));
#225=IFCDIRECTION((0.,0.,1.));
#226=IFCDIRECTION((0.,1.,0.));
#227=IFCAXIS2PLACEMENT3D(#224,#225,#226);
#228=IFCLOCALPLACEMENT(#43,#227);
#229=IFCCARTESIANPOINT((0.,0.,0.));
#230=IFCCARTESIANPOINT((1.2,0.,0.));
#231=IFCCARTESIANPOINT((1.2,0.040000000000000001,0.));
#232=IFCCARTESIANPOINT((0.,0.040000000000000001,0.));
#233=IFCCARTESIANPOINT((0.,0.,0.));
#234=IFCPOLYLINE((#229,#230,#231,#232,#233));
#235=IFCARBITRARYCLOSEDPROFILEDEF(.AREA.,$,#234);
#236=IFCCARTESIANPOINT((0.,0.,0.));
#237=IFCDIRECTION((0.,0.,1.));
#238=IFCDIRECTION((1.,0.,0.));
#239=IFCAXIS2PLACEMENT3D(#236,#237,#238);
#240=IFCDIRECTION((0.,0.,1.));
#241=IFCEXTRUDEDAREASOLID(#235,#239,#240,2.1499999999999999);
#242=IFCSHAPEREPRESENTATION(#16,'Body','SweptSolid',(#241));
#243=IFCPRODUCTDEFINITIONSHAPE($,$,(#242));
#244=IFCOWNERHISTORY(#3,#4,.READWRITE.,.ADDED.,1790045252,#3,#4,1790045252);
#245=IFCPROPERTYSET('2eMynYMyT5_fTU0sHoglpK',#244,'Pset_BuildingElementProxyCommon',$,(#248));
#246=IFCOWNERHISTORY(#3,#4,.READWRITE.,.ADDED.,1790045252,#3,#4,1790045252);
#247=IFCRELDEFINESBYPROPERTIES('3a530FLgT8pOwGMcuuraBr',#246,$,$,(#223),#245);
#248=IFCPROPERTYSINGLEVALUE('Reference',$,IFCIDENTIFIER('TV-01'),$);
ENDSEC;
END-ISO-10303-21;
