ISO-10303-21;
HEADER;
FILE_DESCRIPTION(('ViewDefinition[DesignTransferView]'),'2;1');
FILE_NAME('/dev/null','2026-09-13T15:45:11+02:00',(''),(''),'IfcOpenShell 0.8.5','IfcOpenShell 0.8.5','Nobody');
FILE_SCHEMA(('IFC4'));
ENDSEC;
DATA;
#1=IFCPERSON('catalog-pipeline','Pipeline','Catalog',$,$,$,$,$);
#2=IFCORGANIZATION('pragmaticBIM','pragmaticBIM',$,$,$);
#3=IFCPERSONANDORGANIZATION(#1,#2,$);
#4=IFCAPPLICATION(#2,'0.1.0','Catalog IFC Pipeline','catalog-ifc-pipeline');
#5=IFCOWNERHISTORY(#3,#4,.READWRITE.,.ADDED.,1789307111,#3,#4,1789307111);
#6=IFCPROJECT('0ipOtYsBP3Gf2F9xHOdz7H',#5,'installation-path-01',$,$,$,$,(#15),#10);
#7=IFCSIUNIT(*,.LENGTHUNIT.,$,.METRE.);
#8=IFCSIUNIT(*,.AREAUNIT.,$,.SQUARE_METRE.);
#9=IFCSIUNIT(*,.VOLUMEUNIT.,$,.CUBIC_METRE.);
#10=IFCUNITASSIGNMENT((#9,#7,#8));
#11=IFCCARTESIANPOINT((0.,0.,0.));
#12=IFCDIRECTION((0.,0.,1.));
#13=IFCDIRECTION((1.,0.,0.));
#14=IFCAXIS2PLACEMENT3D(#11,#12,#13);
#15=IFCGEOMETRICREPRESENTATIONCONTEXT($,'Model',3,1.0000000000000001E-05,#14,$);
#16=IFCGEOMETRICREPRESENTATIONSUBCONTEXT('Body','Model',*,*,*,*,#15,$,.MODEL_VIEW.,$);
#17=IFCOWNERHISTORY(#3,#4,.READWRITE.,.MODIFIED.,1789307111,#3,#4,1789307111);
#18=IFCSITE('0t4s2jQd91dA_NpksnuTdo',#17,'Site',$,$,#29,$,$,$,$,$,$,$,$);
#19=IFCOWNERHISTORY(#3,#4,.READWRITE.,.MODIFIED.,1789307111,#3,#4,1789307111);
#20=IFCBUILDING('1YSVyHF7HADxxKrYdLDISC',#19,'Building',$,$,#34,$,$,$,$,$,$);
#21=IFCOWNERHISTORY(#3,#4,.READWRITE.,.ADDED.,1789307111,#3,#4,1789307111);
#22=IFCRELAGGREGATES('2PqECYpYT54ANvcW_D149n',#21,$,$,#6,(#18));
#23=IFCOWNERHISTORY(#3,#4,.READWRITE.,.ADDED.,1789307111,#3,#4,1789307111);
#24=IFCRELAGGREGATES('0gWxYviCLEKAHNAzHkpaPc',#23,$,$,#18,(#20));
#25=IFCCARTESIANPOINT((0.,0.,0.));
#26=IFCDIRECTION((0.,0.,1.));
#27=IFCDIRECTION((1.,0.,0.));
#28=IFCAXIS2PLACEMENT3D(#25,#26,#27);
#29=IFCLOCALPLACEMENT($,#28);
#30=IFCCARTESIANPOINT((0.,0.,0.));
#31=IFCDIRECTION((0.,0.,1.));
#32=IFCDIRECTION((1.,0.,0.));
#33=IFCAXIS2PLACEMENT3D(#30,#31,#32);
#34=IFCLOCALPLACEMENT(#29,#33);
#35=IFCOWNERHISTORY(#3,#4,.READWRITE.,.MODIFIED.,1789307111,#3,#4,1789307111);
#36=IFCBUILDINGSTOREY('3_pdz6LAbB5gNoYPmE7hxy',#35,'EG',$,$,#43,$,$,$,0.);
#37=IFCOWNERHISTORY(#3,#4,.READWRITE.,.ADDED.,1789307111,#3,#4,1789307111);
#38=IFCRELAGGREGATES('3hdLVkrtHCivxA48r2_ha$',#37,$,$,#20,(#36));
#39=IFCCARTESIANPOINT((0.,0.,0.));
#40=IFCDIRECTION((0.,0.,1.));
#41=IFCDIRECTION((1.,0.,0.));
#42=IFCAXIS2PLACEMENT3D(#39,#40,#41);
#43=IFCLOCALPLACEMENT(#34,#42);
#44=IFCOWNERHISTORY(#3,#4,.READWRITE.,.MODIFIED.,1789307111,#3,#4,1789307111);
#45=IFCSLAB('340$6Rpmn2nvOoPcFVMQ8C',#44,'Bodenplatte',$,$,#52,#69,$,.FLOOR.);
#46=IFCOWNERHISTORY(#3,#4,.READWRITE.,.MODIFIED.,1789307111,#3,#4,1789307111);
#47=IFCRELCONTAINEDINSPATIALSTRUCTURE('3n$2g0s0z8yfNQ084Gg68G',#46,$,$,(#137,#45,#159,#93,#115,#333,#345,#71,#210),#36);
#48=IFCCARTESIANPOINT((0.,0.,0.));
#49=IFCDIRECTION((0.,0.,1.));
#50=IFCDIRECTION((1.,0.,0.));
#51=IFCAXIS2PLACEMENT3D(#48,#49,#50);
#52=IFCLOCALPLACEMENT(#43,#51);
#53=IFCCARTESIANPOINT((-0.29999999999999999,-0.29999999999999999,0.));
#54=IFCCARTESIANPOINT((7.2999999999999998,-0.29999999999999999,0.));
#55=IFCCARTESIANPOINT((7.2999999999999998,2.8000000000000003,0.));
#56=IFCCARTESIANPOINT((2.8000000000000003,2.8000000000000003,0.));
#57=IFCCARTESIANPOINT((2.8000000000000003,7.7999999999999998,0.));
#58=IFCCARTESIANPOINT((-0.29999999999999999,7.7999999999999998,0.));
#59=IFCCARTESIANPOINT((-0.29999999999999999,-0.29999999999999999,0.));
#60=IFCPOLYLINE((#53,#54,#55,#56,#57,#58,#59));
#61=IFCARBITRARYCLOSEDPROFILEDEF(.AREA.,$,#60);
#62=IFCCARTESIANPOINT((0.,0.,0.));
#63=IFCDIRECTION((0.,0.,1.));
#64=IFCDIRECTION((1.,0.,0.));
#65=IFCAXIS2PLACEMENT3D(#62,#63,#64);
#66=IFCDIRECTION((0.,0.,1.));
#67=IFCEXTRUDEDAREASOLID(#61,#65,#66,0.29999999999999999);
#68=IFCSHAPEREPRESENTATION(#16,'Body','SweptSolid',(#67));
#69=IFCPRODUCTDEFINITIONSHAPE($,$,(#68));
#70=IFCOWNERHISTORY(#3,#4,.READWRITE.,.MODIFIED.,1789307111,#3,#4,1789307111);
#71=IFCWALL('3efGvNTvr2sBWlJ$97Sfci',#70,'Flur-Wand-Links',$,$,#76,#91,$,.SOLIDWALL.);
#72=IFCCARTESIANPOINT((0.,0.,0.29999999999999999));
#73=IFCDIRECTION((0.,0.,1.));
#74=IFCDIRECTION((0.,1.,0.));
#75=IFCAXIS2PLACEMENT3D(#72,#73,#74);
#76=IFCLOCALPLACEMENT(#43,#75);
#77=IFCCARTESIANPOINT((0.,0.,0.));
#78=IFCCARTESIANPOINT((7.,0.,0.));
#79=IFCCARTESIANPOINT((7.,0.20000000000000001,0.));
#80=IFCCARTESIANPOINT((0.,0.20000000000000001,0.));
#81=IFCCARTESIANPOINT((0.,0.,0.));
#82=IFCPOLYLINE((#77,#78,#79,#80,#81));
#83=IFCARBITRARYCLOSEDPROFILEDEF(.AREA.,$,#82);
#84=IFCCARTESIANPOINT((0.,0.,0.));
#85=IFCDIRECTION((0.,0.,1.));
#86=IFCDIRECTION((1.,0.,0.));
#87=IFCAXIS2PLACEMENT3D(#84,#85,#86);
#88=IFCDIRECTION((0.,0.,1.));
#89=IFCEXTRUDEDAREASOLID(#83,#87,#88,2.7999999999999998);
#90=IFCSHAPEREPRESENTATION(#16,'Body','SweptSolid',(#89));
#91=IFCPRODUCTDEFINITIONSHAPE($,$,(#90));
#92=IFCOWNERHISTORY(#3,#4,.READWRITE.,.MODIFIED.,1789307111,#3,#4,1789307111);
#93=IFCWALL('2h9QwiViXDuRL91$ZZ8bBH',#92,'Flur-Wand-Unten',$,$,#98,#113,$,.SOLIDWALL.);
#94=IFCCARTESIANPOINT((0.,-0.20000000000000001,0.29999999999999999));
#95=IFCDIRECTION((0.,0.,1.));
#96=IFCDIRECTION((1.,0.,0.));
#97=IFCAXIS2PLACEMENT3D(#94,#95,#96);
#98=IFCLOCALPLACEMENT(#43,#97);
#99=IFCCARTESIANPOINT((0.,0.,0.));
#100=IFCCARTESIANPOINT((6.5,0.,0.));
#101=IFCCARTESIANPOINT((6.5,0.20000000000000001,0.));
#102=IFCCARTESIANPOINT((0.,0.20000000000000001,0.));
#103=IFCCARTESIANPOINT((0.,0.,0.));
#104=IFCPOLYLINE((#99,#100,#101,#102,#103));
#105=IFCARBITRARYCLOSEDPROFILEDEF(.AREA.,$,#104);
#106=IFCCARTESIANPOINT((0.,0.,0.));
#107=IFCDIRECTION((0.,0.,1.));
#108=IFCDIRECTION((1.,0.,0.));
#109=IFCAXIS2PLACEMENT3D(#106,#107,#108);
#110=IFCDIRECTION((0.,0.,1.));
#111=IFCEXTRUDEDAREASOLID(#105,#109,#110,2.7999999999999998);
#112=IFCSHAPEREPRESENTATION(#16,'Body','SweptSolid',(#111));
#113=IFCPRODUCTDEFINITIONSHAPE($,$,(#112));
#114=IFCOWNERHISTORY(#3,#4,.READWRITE.,.MODIFIED.,1789307111,#3,#4,1789307111);
#115=IFCWALL('0Hi00ZQiL5I9ES9BclRzFv',#114,'Flur-Wand-Innen-Laengs',$,$,#120,#135,$,.SOLIDWALL.);
#116=IFCCARTESIANPOINT((2.5,7.,0.29999999999999999));
#117=IFCDIRECTION((0.,0.,1.));
#118=IFCDIRECTION((0.,-1.,0.));
#119=IFCAXIS2PLACEMENT3D(#116,#117,#118);
#120=IFCLOCALPLACEMENT(#43,#119);
#121=IFCCARTESIANPOINT((0.,0.,0.));
#122=IFCCARTESIANPOINT((4.2999999999999998,0.,0.));
#123=IFCCARTESIANPOINT((4.2999999999999998,0.20000000000000001,0.));
#124=IFCCARTESIANPOINT((0.,0.20000000000000001,0.));
#125=IFCCARTESIANPOINT((0.,0.,0.));
#126=IFCPOLYLINE((#121,#122,#123,#124,#125));
#127=IFCARBITRARYCLOSEDPROFILEDEF(.AREA.,$,#126);
#128=IFCCARTESIANPOINT((0.,0.,0.));
#129=IFCDIRECTION((0.,0.,1.));
#130=IFCDIRECTION((1.,0.,0.));
#131=IFCAXIS2PLACEMENT3D(#128,#129,#130);
#132=IFCDIRECTION((0.,0.,1.));
#133=IFCEXTRUDEDAREASOLID(#127,#131,#132,2.7999999999999998);
#134=IFCSHAPEREPRESENTATION(#16,'Body','SweptSolid',(#133));
#135=IFCPRODUCTDEFINITIONSHAPE($,$,(#134));
#136=IFCOWNERHISTORY(#3,#4,.READWRITE.,.MODIFIED.,1789307111,#3,#4,1789307111);
#137=IFCWALL('2S2l2iYUn9iAGdGhHv5OWV',#136,'Flur-Wand-Innen-Quer',$,$,#142,#157,$,.SOLIDWALL.);
#138=IFCCARTESIANPOINT((2.5,2.5,0.29999999999999999));
#139=IFCDIRECTION((0.,0.,1.));
#140=IFCDIRECTION((1.,0.,0.));
#141=IFCAXIS2PLACEMENT3D(#138,#139,#140);
#142=IFCLOCALPLACEMENT(#43,#141);
#143=IFCCARTESIANPOINT((0.,0.,0.));
#144=IFCCARTESIANPOINT((4.,0.,0.));
#145=IFCCARTESIANPOINT((4.,0.20000000000000001,0.));
#146=IFCCARTESIANPOINT((0.,0.20000000000000001,0.));
#147=IFCCARTESIANPOINT((0.,0.,0.));
#148=IFCPOLYLINE((#143,#144,#145,#146,#147));
#149=IFCARBITRARYCLOSEDPROFILEDEF(.AREA.,$,#148);
#150=IFCCARTESIANPOINT((0.,0.,0.));
#151=IFCDIRECTION((0.,0.,1.));
#152=IFCDIRECTION((1.,0.,0.));
#153=IFCAXIS2PLACEMENT3D(#150,#151,#152);
#154=IFCDIRECTION((0.,0.,1.));
#155=IFCEXTRUDEDAREASOLID(#149,#153,#154,2.7999999999999998);
#156=IFCSHAPEREPRESENTATION(#16,'Body','SweptSolid',(#155));
#157=IFCPRODUCTDEFINITIONSHAPE($,$,(#156));
#158=IFCOWNERHISTORY(#3,#4,.READWRITE.,.MODIFIED.,1789307111,#3,#4,1789307111);
#159=IFCWALL('3WZPW4h5L6uBsmM2CPsjlM',#158,'Flur-Trennwand',$,$,#164,#179,$,.SOLIDWALL.);
#160=IFCCARTESIANPOINT((0.,3.1499999999999999,0.29999999999999999));
#161=IFCDIRECTION((0.,0.,1.));
#162=IFCDIRECTION((1.,0.,0.));
#163=IFCAXIS2PLACEMENT3D(#160,#161,#162);
#164=IFCLOCALPLACEMENT(#43,#163);
#165=IFCCARTESIANPOINT((0.,0.,0.));
#166=IFCCARTESIANPOINT((2.5,0.,0.));
#167=IFCCARTESIANPOINT((2.5,0.20000000000000001,0.));
#168=IFCCARTESIANPOINT((0.,0.20000000000000001,0.));
#169=IFCCARTESIANPOINT((0.,0.,0.));
#170=IFCPOLYLINE((#165,#166,#167,#168,#169));
#171=IFCARBITRARYCLOSEDPROFILEDEF(.AREA.,$,#170);
#172=IFCCARTESIANPOINT((0.,0.,0.));
#173=IFCDIRECTION((0.,0.,1.));
#174=IFCDIRECTION((1.,0.,0.));
#175=IFCAXIS2PLACEMENT3D(#172,#173,#174);
#176=IFCDIRECTION((0.,0.,1.));
#177=IFCEXTRUDEDAREASOLID(#171,#175,#176,2.7999999999999998);
#178=IFCSHAPEREPRESENTATION(#16,'Body','SweptSolid',(#177));
#179=IFCPRODUCTDEFINITIONSHAPE($,$,(#178));
#180=IFCOWNERHISTORY(#3,#4,.READWRITE.,.MODIFIED.,1789307111,#3,#4,1789307111);
#181=IFCOPENINGELEMENT('2wVMEp2Zf5WPvXfvQ_EdUT',#180,'Flur-Trenntuer\X2\00F6\X0\ffnung',$,$,#208,#201,$,.OPENING.);
#187=IFCCARTESIANPOINT((0.25,-0.01,0.));
#188=IFCCARTESIANPOINT((2.25,-0.01,0.));
#189=IFCCARTESIANPOINT((2.25,0.22,0.));
#190=IFCCARTESIANPOINT((0.25,0.22,0.));
#191=IFCCARTESIANPOINT((0.25,-0.01,0.));
#192=IFCPOLYLINE((#187,#188,#189,#190,#191));
#193=IFCARBITRARYCLOSEDPROFILEDEF(.AREA.,$,#192);
#194=IFCCARTESIANPOINT((0.,0.,0.));
#195=IFCDIRECTION((0.,0.,1.));
#196=IFCDIRECTION((1.,0.,0.));
#197=IFCAXIS2PLACEMENT3D(#194,#195,#196);
#198=IFCDIRECTION((0.,0.,1.));
#199=IFCEXTRUDEDAREASOLID(#193,#197,#198,2.1000000000000001);
#200=IFCSHAPEREPRESENTATION(#16,'Body','SweptSolid',(#199));
#201=IFCPRODUCTDEFINITIONSHAPE($,$,(#200));
#202=IFCOWNERHISTORY(#3,#4,.READWRITE.,.ADDED.,1789307111,#3,#4,1789307111);
#203=IFCRELVOIDSELEMENT('3oM261KVTF5QikMop0c$rp',#202,$,$,#159,#181);
#204=IFCCARTESIANPOINT((0.,0.,0.));
#205=IFCDIRECTION((0.,0.,1.));
#206=IFCDIRECTION((1.,0.,0.));
#207=IFCAXIS2PLACEMENT3D(#204,#205,#206);
#208=IFCLOCALPLACEMENT(#164,#207);
#209=IFCOWNERHISTORY(#3,#4,.READWRITE.,.MODIFIED.,1789307111,#3,#4,1789307111);
#210=IFCDOOR('1XxvTMMaL6z8XCgW37Tg1q',#209,'Flur-Trenntuer',$,$,#215,#322,$,$,$,.DOOR.,$,$);
#211=IFCCARTESIANPOINT((0.,3.1499999999999999,0.29999999999999999));
#212=IFCDIRECTION((0.,0.,1.));
#213=IFCDIRECTION((1.,0.,0.));
#214=IFCAXIS2PLACEMENT3D(#211,#212,#213);
#215=IFCLOCALPLACEMENT(#43,#214);
#216=IFCCARTESIANPOINT((0.25,-0.040000000000000001,0.));
#217=IFCCARTESIANPOINT((0.33000000000000002,-0.040000000000000001,0.));
#218=IFCCARTESIANPOINT((0.33000000000000002,0.11000000000000001,0.));
#219=IFCCARTESIANPOINT((0.25,0.11000000000000001,0.));
#220=IFCCARTESIANPOINT((0.25,-0.040000000000000001,0.));
#221=IFCPOLYLINE((#216,#217,#218,#219,#220));
#222=IFCARBITRARYCLOSEDPROFILEDEF(.AREA.,$,#221);
#223=IFCCARTESIANPOINT((0.,0.,0.));
#224=IFCDIRECTION((0.,0.,1.));
#225=IFCDIRECTION((1.,0.,0.));
#226=IFCAXIS2PLACEMENT3D(#223,#224,#225);
#227=IFCDIRECTION((0.,0.,1.));
#228=IFCEXTRUDEDAREASOLID(#222,#226,#227,2.1000000000000001);
#229=IFCCARTESIANPOINT((2.1699999999999999,-0.040000000000000001,0.));
#230=IFCCARTESIANPOINT((2.25,-0.040000000000000001,0.));
#231=IFCCARTESIANPOINT((2.25,0.11000000000000001,0.));
#232=IFCCARTESIANPOINT((2.1699999999999999,0.11000000000000001,0.));
#233=IFCCARTESIANPOINT((2.1699999999999999,-0.040000000000000001,0.));
#234=IFCPOLYLINE((#229,#230,#231,#232,#233));
#235=IFCARBITRARYCLOSEDPROFILEDEF(.AREA.,$,#234);
#236=IFCCARTESIANPOINT((0.,0.,0.));
#237=IFCDIRECTION((0.,0.,1.));
#238=IFCDIRECTION((1.,0.,0.));
#239=IFCAXIS2PLACEMENT3D(#236,#237,#238);
#240=IFCDIRECTION((0.,0.,1.));
#241=IFCEXTRUDEDAREASOLID(#235,#239,#240,2.1000000000000001);
#242=IFCCARTESIANPOINT((0.33000000000000002,-0.040000000000000001,0.));
#243=IFCCARTESIANPOINT((2.1699999999999999,-0.040000000000000001,0.));
#244=IFCCARTESIANPOINT((2.1699999999999999,0.11000000000000001,0.));
#245=IFCCARTESIANPOINT((0.33000000000000002,0.11000000000000001,0.));
#246=IFCCARTESIANPOINT((0.33000000000000002,-0.040000000000000001,0.));
#247=IFCPOLYLINE((#242,#243,#244,#245,#246));
#248=IFCARBITRARYCLOSEDPROFILEDEF(.AREA.,$,#247);
#249=IFCCARTESIANPOINT((0.,0.,2.02));
#250=IFCDIRECTION((0.,0.,1.));
#251=IFCDIRECTION((1.,0.,0.));
#252=IFCAXIS2PLACEMENT3D(#249,#250,#251);
#253=IFCDIRECTION((0.,0.,1.));
#254=IFCEXTRUDEDAREASOLID(#248,#252,#253,0.080000000000000071);
#255=IFCCARTESIANPOINT((0.33000000000000002,-0.040000000000000001,0.));
#256=IFCCARTESIANPOINT((2.1699999999999999,-0.040000000000000001,0.));
#257=IFCCARTESIANPOINT((2.1699999999999999,0.11000000000000001,0.));
#258=IFCCARTESIANPOINT((0.33000000000000002,0.11000000000000001,0.));
#259=IFCCARTESIANPOINT((0.33000000000000002,-0.040000000000000001,0.));
#260=IFCPOLYLINE((#255,#256,#257,#258,#259));
#261=IFCARBITRARYCLOSEDPROFILEDEF(.AREA.,$,#260);
#262=IFCCARTESIANPOINT((0.,0.,0.));
#263=IFCDIRECTION((0.,0.,1.));
#264=IFCDIRECTION((1.,0.,0.));
#265=IFCAXIS2PLACEMENT3D(#262,#263,#264);
#266=IFCDIRECTION((0.,0.,1.));
#267=IFCEXTRUDEDAREASOLID(#261,#265,#266,0.025000000000000001);
#268=IFCCARTESIANPOINT((0.33000000000000002,-0.040000000000000001,0.));
#269=IFCCARTESIANPOINT((2.1699999999999999,-0.040000000000000001,0.));
#270=IFCCARTESIANPOINT((2.1699999999999999,0.11000000000000001,0.));
#271=IFCCARTESIANPOINT((0.33000000000000002,0.11000000000000001,0.));
#272=IFCCARTESIANPOINT((0.33000000000000002,-0.040000000000000001,0.));
#273=IFCPOLYLINE((#268,#269,#270,#271,#272));
#274=IFCARBITRARYCLOSEDPROFILEDEF(.AREA.,$,#273);
#275=IFCCARTESIANPOINT((0.,0.,1.0862499999999999));
#276=IFCDIRECTION((0.,0.,1.));
#277=IFCDIRECTION((1.,0.,0.));
#278=IFCAXIS2PLACEMENT3D(#275,#276,#277);
#279=IFCDIRECTION((0.,0.,1.));
#280=IFCEXTRUDEDAREASOLID(#274,#278,#279,0.072000000000000064);
#281=IFCCARTESIANPOINT((0.33000000000000002,-0.025000000000000001,0.));
#282=IFCCARTESIANPOINT((2.1699999999999999,-0.025000000000000001,0.));
#283=IFCCARTESIANPOINT((2.1699999999999999,0.014999999999999999,0.));
#284=IFCCARTESIANPOINT((0.33000000000000002,0.014999999999999999,0.));
#285=IFCCARTESIANPOINT((0.33000000000000002,-0.025000000000000001,0.));
#286=IFCPOLYLINE((#281,#282,#283,#284,#285));
#287=IFCARBITRARYCLOSEDPROFILEDEF(.AREA.,$,#286);
#288=IFCCARTESIANPOINT((0.,0.,0.025000000000000001));
#289=IFCDIRECTION((0.,0.,1.));
#290=IFCDIRECTION((1.,0.,0.));
#291=IFCAXIS2PLACEMENT3D(#288,#289,#290);
#292=IFCDIRECTION((0.,0.,1.));
#293=IFCEXTRUDEDAREASOLID(#287,#291,#292,1.06125);
#294=IFCCARTESIANPOINT((0.33000000000000002,-0.025000000000000001,0.));
#295=IFCCARTESIANPOINT((2.1699999999999999,-0.025000000000000001,0.));
#296=IFCCARTESIANPOINT((2.1699999999999999,0.014999999999999999,0.));
#297=IFCCARTESIANPOINT((0.33000000000000002,0.014999999999999999,0.));
#298=IFCCARTESIANPOINT((0.33000000000000002,-0.025000000000000001,0.));
#299=IFCPOLYLINE((#294,#295,#296,#297,#298));
#300=IFCARBITRARYCLOSEDPROFILEDEF(.AREA.,$,#299);
#301=IFCCARTESIANPOINT((0.,0.,1.15825));
#302=IFCDIRECTION((0.,0.,1.));
#303=IFCDIRECTION((1.,0.,0.));
#304=IFCAXIS2PLACEMENT3D(#301,#302,#303);
#305=IFCDIRECTION((0.,0.,1.));
#306=IFCEXTRUDEDAREASOLID(#300,#304,#305,0.86175000000000002);
#307=IFCSURFACESTYLE('Frame',.BOTH.,(#308));
#308=IFCSURFACESTYLESHADING(#309,0.);
#309=IFCCOLOURRGB($,1.,1.,1.);
#310=IFCSURFACESTYLE('Glass',.BOTH.,(#311));
#311=IFCSURFACESTYLESHADING(#312,0.69999999999999996);
#312=IFCCOLOURRGB($,0.69999999999999996,0.84999999999999998,0.94999999999999996);
#313=IFCMATERIAL('Frame',$,'metal');
#314=IFCMATERIAL('Glass',$,'glass');
#315=IFCSTYLEDITEM($,(#307),'Frame');
#316=IFCSTYLEDREPRESENTATION(#16,'Body',$,(#315));
#317=IFCMATERIALDEFINITIONREPRESENTATION($,$,(#316),#313);
#318=IFCSTYLEDITEM($,(#310),'Glass');
#319=IFCSTYLEDREPRESENTATION(#16,'Body',$,(#318));
#320=IFCMATERIALDEFINITIONREPRESENTATION($,$,(#319),#314);
#321=IFCSHAPEREPRESENTATION(#16,'Body','SweptSolid',(#228,#241,#254,#267,#280,#293));
#322=IFCPRODUCTDEFINITIONSHAPE($,$,(#321));
#323=IFCSTYLEDITEM(#228,(#307),$);
#324=IFCSTYLEDITEM(#241,(#307),$);
#325=IFCSTYLEDITEM(#254,(#307),$);
#326=IFCSTYLEDITEM(#267,(#307),$);
#327=IFCSTYLEDITEM(#280,(#307),$);
#328=IFCSTYLEDITEM(#293,(#307),$);
#329=IFCOWNERHISTORY(#3,#4,.READWRITE.,.ADDED.,1789307111,#3,#4,1789307111);
#330=IFCRELASSOCIATESMATERIAL('2RJi92w9j7gPWxanQCf0p$',#329,$,$,(#210),#313);
#331=IFCRELFILLSELEMENT('2I9jxGA4vBlxCyf8an_mCV',$,$,$,#181,#210);
#332=IFCOWNERHISTORY(#3,#4,.READWRITE.,.MODIFIED.,1789307111,#3,#4,1789307111);
#333=IFCPLATE('0mVobn_QD0LfBY2m74I56A',#332,'Flur-Trenntuer-Glass',$,'Glass',#338,#340,$,.CURTAIN_PANEL.);
#334=IFCCARTESIANPOINT((0.,3.1499999999999999,0.29999999999999999));
#335=IFCDIRECTION((0.,0.,1.));
#336=IFCDIRECTION((1.,0.,0.));
#337=IFCAXIS2PLACEMENT3D(#334,#335,#336);
#338=IFCLOCALPLACEMENT(#43,#337);
#339=IFCSHAPEREPRESENTATION(#16,'Body','SweptSolid',(#306));
#340=IFCPRODUCTDEFINITIONSHAPE($,$,(#339));
#341=IFCSTYLEDITEM(#306,(#310),$);
#342=IFCOWNERHISTORY(#3,#4,.READWRITE.,.ADDED.,1789307111,#3,#4,1789307111);
#343=IFCRELASSOCIATESMATERIAL('3KXK0ZASf5XAHE0Lpv1EOn',#342,$,$,(#333),#314);
#344=IFCOWNERHISTORY(#3,#4,.READWRITE.,.MODIFIED.,1789307111,#3,#4,1789307111);
#345=IFCBUILDINGELEMENTPROXY('0yNzg_hdf9Vhwy3QPptAFe',#344,'EW-01','Einbringweg im L-f\X2\00F6\X0\rmigen Flur','Einbringweg',#350,#367,$,.USERDEFINED.);
#346=IFCCARTESIANPOINT((0.,0.,0.29999999999999999));
#347=IFCDIRECTION((0.,0.,1.));
#348=IFCDIRECTION((1.,0.,0.));
#349=IFCAXIS2PLACEMENT3D(#346,#347,#348);
#350=IFCLOCALPLACEMENT(#43,#349);
#351=IFCCARTESIANPOINT((0.25,0.25,0.));
#352=IFCCARTESIANPOINT((7.2999999999999998,0.25,0.));
#353=IFCCARTESIANPOINT((7.2999999999999998,2.25,0.));
#354=IFCCARTESIANPOINT((2.25,2.25,0.));
#355=IFCCARTESIANPOINT((2.25,7.7999999999999998,0.));
#356=IFCCARTESIANPOINT((0.25,7.7999999999999998,0.));
#357=IFCCARTESIANPOINT((0.25,0.25,0.));
#358=IFCPOLYLINE((#351,#352,#353,#354,#355,#356,#357));
#359=IFCARBITRARYCLOSEDPROFILEDEF(.AREA.,$,#358);
#360=IFCCARTESIANPOINT((0.,0.,0.));
#361=IFCDIRECTION((0.,0.,1.));
#362=IFCDIRECTION((1.,0.,0.));
#363=IFCAXIS2PLACEMENT3D(#360,#361,#362);
#364=IFCDIRECTION((0.,0.,1.));
#365=IFCEXTRUDEDAREASOLID(#359,#363,#364,2.1000000000000001);
#366=IFCSHAPEREPRESENTATION(#16,'Body','SweptSolid',(#365));
#367=IFCPRODUCTDEFINITIONSHAPE($,$,(#366));
#368=IFCOWNERHISTORY(#3,#4,.READWRITE.,.ADDED.,1789307111,#3,#4,1789307111);
#369=IFCELEMENTQUANTITY('1e03ywqWb0FPX46GIwTLfB',#368,'Qto_BuildingElementProxyBaseQuantities',$,'BaseQuantities',(#372));
#370=IFCOWNERHISTORY(#3,#4,.READWRITE.,.ADDED.,1789307111,#3,#4,1789307111);
#371=IFCRELDEFINESBYPROPERTIES('04jfzFftH9GR7bJ_BJInXD',#370,$,$,(#345),#369);
#372=IFCQUANTITYVOLUME('GrossVolume',$,$,52.920000000000002,$);
ENDSEC;
END-ISO-10303-21;
