ISO-10303-21;
HEADER;
FILE_DESCRIPTION(('ViewDefinition[DesignTransferView]'),'2;1');
FILE_NAME('/dev/null','2026-09-18T10:38:21+02:00',(''),(''),'IfcOpenShell 0.8.5','IfcOpenShell 0.8.5','Nobody');
FILE_SCHEMA(('IFC4'));
ENDSEC;
DATA;
#1=IFCPERSON('catalog-pipeline','Pipeline','Catalog',$,$,$,$,$);
#2=IFCORGANIZATION('pragmaticBIM','pragmaticBIM',$,$,$);
#3=IFCPERSONANDORGANIZATION(#1,#2,$);
#4=IFCAPPLICATION(#2,'0.1.0','Catalog IFC Pipeline','catalog-ifc-pipeline');
#5=IFCOWNERHISTORY(#3,#4,.READWRITE.,.ADDED.,1789720701,#3,#4,1789720701);
#6=IFCPROJECT('0GL2vLRf96dQZdWC5wPF1R',#5,'roof-pitched-01',$,$,$,$,(#15),#10);
#7=IFCSIUNIT(*,.LENGTHUNIT.,$,.METRE.);
#8=IFCSIUNIT(*,.AREAUNIT.,$,.SQUARE_METRE.);
#9=IFCSIUNIT(*,.VOLUMEUNIT.,$,.CUBIC_METRE.);
#10=IFCUNITASSIGNMENT((#8,#9,#7));
#11=IFCCARTESIANPOINT((0.,0.,0.));
#12=IFCDIRECTION((0.,0.,1.));
#13=IFCDIRECTION((1.,0.,0.));
#14=IFCAXIS2PLACEMENT3D(#11,#12,#13);
#15=IFCGEOMETRICREPRESENTATIONCONTEXT($,'Model',3,1.0000000000000001E-05,#14,$);
#16=IFCGEOMETRICREPRESENTATIONSUBCONTEXT('Body','Model',*,*,*,*,#15,$,.MODEL_VIEW.,$);
#17=IFCOWNERHISTORY(#3,#4,.READWRITE.,.MODIFIED.,1789720701,#3,#4,1789720701);
#18=IFCSITE('0sV7T1oZH8SxQlP17GzlvR',#17,'Site',$,$,#29,$,$,$,$,$,$,$,$);
#19=IFCOWNERHISTORY(#3,#4,.READWRITE.,.MODIFIED.,1789720701,#3,#4,1789720701);
#20=IFCBUILDING('1p59s6Q_bCTAKm7MwsCvAU',#19,'Building',$,$,#34,$,$,$,$,$,$);
#21=IFCOWNERHISTORY(#3,#4,.READWRITE.,.ADDED.,1789720701,#3,#4,1789720701);
#22=IFCRELAGGREGATES('1i78XviYrD19jCjAwy_cyy',#21,$,$,#6,(#18));
#23=IFCOWNERHISTORY(#3,#4,.READWRITE.,.ADDED.,1789720701,#3,#4,1789720701);
#24=IFCRELAGGREGATES('3qD0u8t2v7qOhedKhe49UZ',#23,$,$,#18,(#20));
#25=IFCCARTESIANPOINT((0.,0.,0.));
#26=IFCDIRECTION((0.,0.,1.));
#27=IFCDIRECTION((1.,0.,0.));
#28=IFCAXIS2PLACEMENT3D(#25,#26,#27);
#29=IFCLOCALPLACEMENT($,#28);
#30=IFCCARTESIANPOINT((0.,0.,0.));
#31=IFCDIRECTION((0.,0.,1.));
#32=IFCDIRECTION((1.,0.,0.));
#33=IFCAXIS2PLACEMENT3D(#30,#31,#32);
#34=IFCLOCALPLACEMENT(#29,#33);
#35=IFCOWNERHISTORY(#3,#4,.READWRITE.,.MODIFIED.,1789720701,#3,#4,1789720701);
#36=IFCBUILDINGSTOREY('35i81qourA1OSYrW7bYwx1',#35,'DG',$,$,#43,$,$,$,0.);
#37=IFCOWNERHISTORY(#3,#4,.READWRITE.,.ADDED.,1789720701,#3,#4,1789720701);
#38=IFCRELAGGREGATES('3T$3Ee62n3Lgb_kEeh6OlR',#37,$,$,#20,(#36));
#39=IFCCARTESIANPOINT((0.,0.,0.));
#40=IFCDIRECTION((0.,0.,1.));
#41=IFCDIRECTION((1.,0.,0.));
#42=IFCAXIS2PLACEMENT3D(#39,#40,#41);
#43=IFCLOCALPLACEMENT(#34,#42);
#44=IFCOWNERHISTORY(#3,#4,.READWRITE.,.MODIFIED.,1789720701,#3,#4,1789720701);
#45=IFCSLAB('0AOiTMART1zfVfzubNAoYs',#44,'Decke',$,$,#52,#67,$,.FLOOR.);
#46=IFCOWNERHISTORY(#3,#4,.READWRITE.,.MODIFIED.,1789720701,#3,#4,1789720701);
#47=IFCRELCONTAINEDINSPATIALSTRUCTURE('2ssINXaXP9E8n184wbp5rw',#46,$,$,(#310,#69,#45),#36);
#48=IFCCARTESIANPOINT((0.,0.,-0.29999999999999999));
#49=IFCDIRECTION((0.,0.,1.));
#50=IFCDIRECTION((1.,0.,0.));
#51=IFCAXIS2PLACEMENT3D(#48,#49,#50);
#52=IFCLOCALPLACEMENT(#43,#51);
#53=IFCCARTESIANPOINT((0.,0.,0.));
#54=IFCCARTESIANPOINT((6.,0.,0.));
#55=IFCCARTESIANPOINT((6.,5.,0.));
#56=IFCCARTESIANPOINT((0.,5.,0.));
#57=IFCCARTESIANPOINT((0.,0.,0.));
#58=IFCPOLYLINE((#53,#54,#55,#56,#57));
#59=IFCARBITRARYCLOSEDPROFILEDEF(.AREA.,$,#58);
#60=IFCCARTESIANPOINT((0.,0.,0.));
#61=IFCDIRECTION((0.,0.,1.));
#62=IFCDIRECTION((1.,0.,0.));
#63=IFCAXIS2PLACEMENT3D(#60,#61,#62);
#64=IFCDIRECTION((0.,0.,1.));
#65=IFCEXTRUDEDAREASOLID(#59,#63,#64,0.29999999999999999);
#66=IFCSHAPEREPRESENTATION(#16,'Body','SweptSolid',(#65));
#67=IFCPRODUCTDEFINITIONSHAPE($,$,(#66));
#68=IFCOWNERHISTORY(#3,#4,.READWRITE.,.MODIFIED.,1789720701,#3,#4,1789720701);
#69=IFCSLAB('3qw19wv0j20fOcwc7$uUV8',#68,'Decke-Dachraum',$,$,#74,#89,$,.FLOOR.);
#70=IFCCARTESIANPOINT((0.,0.,2.));
#71=IFCDIRECTION((0.,0.,1.));
#72=IFCDIRECTION((1.,0.,0.));
#73=IFCAXIS2PLACEMENT3D(#70,#71,#72);
#74=IFCLOCALPLACEMENT(#43,#73);
#75=IFCCARTESIANPOINT((3.,0.,0.));
#76=IFCCARTESIANPOINT((6.,0.,0.));
#77=IFCCARTESIANPOINT((6.,5.,0.));
#78=IFCCARTESIANPOINT((3.,5.,0.));
#79=IFCCARTESIANPOINT((3.,0.,0.));
#80=IFCPOLYLINE((#75,#76,#77,#78,#79));
#81=IFCARBITRARYCLOSEDPROFILEDEF(.AREA.,$,#80);
#82=IFCCARTESIANPOINT((0.,0.,0.));
#83=IFCDIRECTION((0.,0.,1.));
#84=IFCDIRECTION((1.,0.,0.));
#85=IFCAXIS2PLACEMENT3D(#82,#83,#84);
#86=IFCDIRECTION((0.,0.,1.));
#87=IFCEXTRUDEDAREASOLID(#81,#85,#86,0.29999999999999999);
#88=IFCSHAPEREPRESENTATION(#16,'Body','SweptSolid',(#87));
#89=IFCPRODUCTDEFINITIONSHAPE($,$,(#88));
#90=IFCCARTESIANPOINT((0.,0.,0.));
#91=IFCCARTESIANPOINT((6.,0.,0.));
#92=IFCCARTESIANPOINT((6.,5.,0.));
#93=IFCCARTESIANPOINT((0.,5.,0.));
#94=IFCCARTESIANPOINT((0.,0.,2.));
#95=IFCCARTESIANPOINT((6.,0.,2.));
#96=IFCCARTESIANPOINT((6.,5.,2.));
#97=IFCCARTESIANPOINT((0.,5.,2.));
#98=IFCPOLYLOOP((#90,#93,#92,#91));
#99=IFCFACEOUTERBOUND(#98,.T.);
#100=IFCFACE((#99));
#101=IFCPOLYLOOP((#94,#95,#96,#97));
#102=IFCFACEOUTERBOUND(#101,.T.);
#103=IFCFACE((#102));
#104=IFCPOLYLOOP((#90,#91,#95,#94));
#105=IFCFACEOUTERBOUND(#104,.T.);
#106=IFCFACE((#105));
#107=IFCPOLYLOOP((#93,#97,#96,#92));
#108=IFCFACEOUTERBOUND(#107,.T.);
#109=IFCFACE((#108));
#110=IFCPOLYLOOP((#90,#94,#97,#93));
#111=IFCFACEOUTERBOUND(#110,.T.);
#112=IFCFACE((#111));
#113=IFCPOLYLOOP((#91,#92,#96,#95));
#114=IFCFACEOUTERBOUND(#113,.T.);
#115=IFCFACE((#114));
#116=IFCCLOSEDSHELL((#100,#103,#106,#109,#112,#115));
#117=IFCFACETEDBREP(#116);
#118=IFCOWNERHISTORY(#3,#4,.READWRITE.,.MODIFIED.,1789720701,#3,#4,1789720701);
#119=IFCSPACE('1eKJQMwfH36R0v3scuUTg5',#118,'201',$,$,#126,#128,'Abstellraum Wohnen',$,.SPACE.,$);
#120=IFCOWNERHISTORY(#3,#4,.READWRITE.,.MODIFIED.,1789720701,#3,#4,1789720701);
#121=IFCRELAGGREGATES('3YCRvzkOHC6va6tUknwDX4',#120,$,$,#36,(#119,#207,#252));
#122=IFCCARTESIANPOINT((0.,0.,0.));
#123=IFCDIRECTION((0.,0.,1.));
#124=IFCDIRECTION((1.,0.,0.));
#125=IFCAXIS2PLACEMENT3D(#122,#123,#124);
#126=IFCLOCALPLACEMENT(#43,#125);
#127=IFCSHAPEREPRESENTATION(#16,'Body','Brep',(#117));
#128=IFCPRODUCTDEFINITIONSHAPE($,$,(#127));
#129=IFCOWNERHISTORY(#3,#4,.READWRITE.,.ADDED.,1789720701,#3,#4,1789720701);
#130=IFCPROPERTYSET('0tl10tKGn36BZaGt5QP7PS',#129,'Pset_SpaceCommon',$,(#133,#134,#135));
#131=IFCOWNERHISTORY(#3,#4,.READWRITE.,.ADDED.,1789720701,#3,#4,1789720701);
#132=IFCRELDEFINESBYPROPERTIES('3NyIvD_V529xSb73zrA84F',#131,$,$,(#119),#130);
#133=IFCPROPERTYSINGLEVALUE('Reference',$,IFCIDENTIFIER('HNF'),$);
#134=IFCPROPERTYSINGLEVALUE('IsExternal',$,IFCBOOLEAN(.F.),$);
#135=IFCPROPERTYSINGLEVALUE('NetPlannedArea',$,IFCAREAMEASURE(1.),$);
#136=IFCOWNERHISTORY(#3,#4,.READWRITE.,.ADDED.,1789720701,#3,#4,1789720701);
#137=IFCPROPERTYSET('1JZNRnfnT0GOuPomeX_YAU',#136,'ePset_Space',$,(#140));
#138=IFCOWNERHISTORY(#3,#4,.READWRITE.,.ADDED.,1789720701,#3,#4,1789720701);
#139=IFCRELDEFINESBYPROPERTIES('2yPkc_pO964QvuEpUB_U0r',#138,$,$,(#119),#137);
#140=IFCPROPERTYSINGLEVALUE('SignageRoomNumber',$,IFCIDENTIFIER('201'),$);
#141=IFCOWNERHISTORY(#3,#4,.READWRITE.,.ADDED.,1789720701,#3,#4,1789720701);
#142=IFCPROPERTYSET('0JCGDkxKfEWgnkcJd6$ri9',#141,'Pset_SpaceCoveringRequirements',$,(#145));
#143=IFCOWNERHISTORY(#3,#4,.READWRITE.,.ADDED.,1789720701,#3,#4,1789720701);
#144=IFCRELDEFINESBYPROPERTIES('2lliSaqgz9X8LHFC4kdhTL',#143,$,$,(#119),#142);
#145=IFCPROPERTYSINGLEVALUE('FloorCovering',$,IFCLABEL('Parkett'),$);
#146=IFCOWNERHISTORY(#3,#4,.READWRITE.,.ADDED.,1789720701,#3,#4,1789720701);
#147=IFCPROPERTYSET('1XeFH_f$HFaO374UK_LcKG',#146,'Pset_SpaceThermalDesign',$,(#150));
#148=IFCOWNERHISTORY(#3,#4,.READWRITE.,.ADDED.,1789720701,#3,#4,1789720701);
#149=IFCRELDEFINESBYPROPERTIES('3LB3iKGYvDreu54W2k166m',#148,$,$,(#119),#147);
#150=IFCPROPERTYSINGLEVALUE('TotalHeatLoss',$,IFCPOWERMEASURE(1.),$);
#151=IFCOWNERHISTORY(#3,#4,.READWRITE.,.ADDED.,1789720701,#3,#4,1789720701);
#152=IFCPROPERTYSET('2pnbe_IsnBLgBlkETueBqX',#151,'ePset_SpaceRequirement',$,(#155,#156,#157));
#153=IFCOWNERHISTORY(#3,#4,.READWRITE.,.ADDED.,1789720701,#3,#4,1789720701);
#154=IFCRELDEFINESBYPROPERTIES('0PUJuLIWDD$QDK7PxTWB6q',#153,$,$,(#119),#152);
#155=IFCPROPERTYSINGLEVALUE('DesignAreaLoad',$,IFCREAL(2.),$);
#156=IFCPROPERTYSINGLEVALUE('DesignPointLoad',$,IFCREAL(1.5),$);
#157=IFCPROPERTYSINGLEVALUE('VibrationRequirements',$,IFCLABEL('ISO Residential (Night)'),$);
#158=IFCOWNERHISTORY(#3,#4,.READWRITE.,.ADDED.,1789720701,#3,#4,1789720701);
#159=IFCPROPERTYSET('0sab6nf3bEdvaD9if5B3qL',#158,'ePset_Space',$,(#162));
#160=IFCOWNERHISTORY(#3,#4,.READWRITE.,.ADDED.,1789720701,#3,#4,1789720701);
#161=IFCRELDEFINESBYPROPERTIES('1YDLQIsqr23BsKIt0r4n5T',#160,$,$,(#119),#159);
#162=IFCPROPERTYSINGLEVALUE('Checkliste',$,IFCTEXT('Bodenbelag; Beleuchtung'),$);
#163=IFCOWNERHISTORY(#3,#4,.READWRITE.,.ADDED.,1789720701,#3,#4,1789720701);
#164=IFCPROPERTYSET('23cz85n8n3beRfi0Z7wx2Q',#163,'ePset_Space',$,(#167,#168));
#165=IFCOWNERHISTORY(#3,#4,.READWRITE.,.ADDED.,1789720701,#3,#4,1789720701);
#166=IFCRELDEFINESBYPROPERTIES('20Lm2lvln0KQirf3PD_EVk',#165,$,$,(#119),#164);
#167=IFCPROPERTYSINGLEVALUE('UsageUnitReference',$,IFCIDENTIFIER('UsageUnitReference'),$);
#168=IFCPROPERTYSINGLEVALUE('FireCompartmentReference',$,IFCIDENTIFIER('FireCompartmentReference'),$);
#169=IFCOWNERHISTORY(#3,#4,.READWRITE.,.ADDED.,1789720701,#3,#4,1789720701);
#170=IFCELEMENTQUANTITY('1v5HKF6kr8lAVezpBilDCX',#169,'Qto_SpaceBaseQuantities',$,'BaseQuantities',(#173,#174,#175,#176,#177));
#171=IFCOWNERHISTORY(#3,#4,.READWRITE.,.ADDED.,1789720701,#3,#4,1789720701);
#172=IFCRELDEFINESBYPROPERTIES('1WJUrKQzz9gA0uHaEka68W',#171,$,$,(#119),#170);
#173=IFCQUANTITYAREA('NetFloorArea',$,$,30.,$);
#174=IFCQUANTITYLENGTH('Height',$,$,2.,$);
#175=IFCQUANTITYLENGTH('FinishCeilingHeight',$,$,2.,$);
#176=IFCQUANTITYAREA('GrossFloorArea',$,$,30.,$);
#177=IFCQUANTITYVOLUME('GrossVolume',$,$,60.,$);
#178=IFCCARTESIANPOINT((0.,0.,2.));
#179=IFCCARTESIANPOINT((3.,0.,2.));
#180=IFCCARTESIANPOINT((3.,5.,2.));
#181=IFCCARTESIANPOINT((0.,5.,2.));
#182=IFCCARTESIANPOINT((0.,0.,2.5));
#183=IFCCARTESIANPOINT((3.,0.,4.2999999999999998));
#184=IFCCARTESIANPOINT((3.,5.,4.2999999999999998));
#185=IFCCARTESIANPOINT((0.,5.,2.5));
#186=IFCPOLYLOOP((#178,#181,#180,#179));
#187=IFCFACEOUTERBOUND(#186,.T.);
#188=IFCFACE((#187));
#189=IFCPOLYLOOP((#182,#183,#184,#185));
#190=IFCFACEOUTERBOUND(#189,.T.);
#191=IFCFACE((#190));
#192=IFCPOLYLOOP((#178,#179,#183,#182));
#193=IFCFACEOUTERBOUND(#192,.T.);
#194=IFCFACE((#193));
#195=IFCPOLYLOOP((#181,#185,#184,#180));
#196=IFCFACEOUTERBOUND(#195,.T.);
#197=IFCFACE((#196));
#198=IFCPOLYLOOP((#178,#182,#185,#181));
#199=IFCFACEOUTERBOUND(#198,.T.);
#200=IFCFACE((#199));
#201=IFCPOLYLOOP((#179,#180,#184,#183));
#202=IFCFACEOUTERBOUND(#201,.T.);
#203=IFCFACE((#202));
#204=IFCCLOSEDSHELL((#188,#191,#194,#197,#200,#203));
#205=IFCFACETEDBREP(#204);
#206=IFCOWNERHISTORY(#3,#4,.READWRITE.,.MODIFIED.,1789720701,#3,#4,1789720701);
#207=IFCSPACE('2tt$IQe350a8oC4zjEySac',#206,'LR-01',$,'Luftraum',#212,#214,$,$,.USERDEFINED.,$);
#208=IFCCARTESIANPOINT((0.,0.,0.));
#209=IFCDIRECTION((0.,0.,1.));
#210=IFCDIRECTION((1.,0.,0.));
#211=IFCAXIS2PLACEMENT3D(#208,#209,#210);
#212=IFCLOCALPLACEMENT(#43,#211);
#213=IFCSHAPEREPRESENTATION(#16,'Body','Brep',(#205));
#214=IFCPRODUCTDEFINITIONSHAPE($,$,(#213));
#215=IFCOWNERHISTORY(#3,#4,.READWRITE.,.ADDED.,1789720701,#3,#4,1789720701);
#216=IFCELEMENTQUANTITY('0ms8VL$OD1YvEWYeqBClQi',#215,'Qto_SpaceBaseQuantities',$,'BaseQuantities',(#219,#220,#221,#222));
#217=IFCOWNERHISTORY(#3,#4,.READWRITE.,.ADDED.,1789720701,#3,#4,1789720701);
#218=IFCRELDEFINESBYPROPERTIES('30EResHKzFwx9MJhbsxzZa',#217,$,$,(#207),#216);
#219=IFCQUANTITYAREA('GrossFloorArea',$,$,15.,$);
#220=IFCQUANTITYVOLUME('GrossVolume',$,$,21.,$);
#221=IFCQUANTITYLENGTH('Height',$,$,2.2999999999999998,$);
#222=IFCQUANTITYAREA('NetFloorArea',$,$,15.,$);
#223=IFCCARTESIANPOINT((3.,0.,2.2999999999999998));
#224=IFCCARTESIANPOINT((6.,0.,2.2999999999999998));
#225=IFCCARTESIANPOINT((6.,5.,2.2999999999999998));
#226=IFCCARTESIANPOINT((3.,5.,2.2999999999999998));
#227=IFCCARTESIANPOINT((3.,0.,4.2999999999999998));
#228=IFCCARTESIANPOINT((6.,0.,2.5));
#229=IFCCARTESIANPOINT((6.,5.,2.5));
#230=IFCCARTESIANPOINT((3.,5.,4.2999999999999998));
#231=IFCPOLYLOOP((#223,#226,#225,#224));
#232=IFCFACEOUTERBOUND(#231,.T.);
#233=IFCFACE((#232));
#234=IFCPOLYLOOP((#227,#228,#229,#230));
#235=IFCFACEOUTERBOUND(#234,.T.);
#236=IFCFACE((#235));
#237=IFCPOLYLOOP((#223,#224,#228,#227));
#238=IFCFACEOUTERBOUND(#237,.T.);
#239=IFCFACE((#238));
#240=IFCPOLYLOOP((#226,#230,#229,#225));
#241=IFCFACEOUTERBOUND(#240,.T.);
#242=IFCFACE((#241));
#243=IFCPOLYLOOP((#223,#227,#230,#226));
#244=IFCFACEOUTERBOUND(#243,.T.);
#245=IFCFACE((#244));
#246=IFCPOLYLOOP((#224,#225,#229,#228));
#247=IFCFACEOUTERBOUND(#246,.T.);
#248=IFCFACE((#247));
#249=IFCCLOSEDSHELL((#233,#236,#239,#242,#245,#248));
#250=IFCFACETEDBREP(#249);
#251=IFCOWNERHISTORY(#3,#4,.READWRITE.,.MODIFIED.,1789720701,#3,#4,1789720701);
#252=IFCSPACE('1q8IpGiZb3XOZKWEkKbJUn',#251,'301',$,$,#257,#259,'Abstellraum Wohnen',$,.SPACE.,$);
#253=IFCCARTESIANPOINT((0.,0.,0.));
#254=IFCDIRECTION((0.,0.,1.));
#255=IFCDIRECTION((1.,0.,0.));
#256=IFCAXIS2PLACEMENT3D(#253,#254,#255);
#257=IFCLOCALPLACEMENT(#43,#256);
#258=IFCSHAPEREPRESENTATION(#16,'Body','Brep',(#250));
#259=IFCPRODUCTDEFINITIONSHAPE($,$,(#258));
#260=IFCOWNERHISTORY(#3,#4,.READWRITE.,.ADDED.,1789720701,#3,#4,1789720701);
#261=IFCPROPERTYSET('0pd5Ht9WH6EQcXoM9hH90b',#260,'Pset_SpaceCommon',$,(#264,#265,#266));
#262=IFCOWNERHISTORY(#3,#4,.READWRITE.,.ADDED.,1789720701,#3,#4,1789720701);
#263=IFCRELDEFINESBYPROPERTIES('2RUNNkZGv3su3lhjm8G4EA',#262,$,$,(#252),#261);
#264=IFCPROPERTYSINGLEVALUE('Reference',$,IFCIDENTIFIER('HNF'),$);
#265=IFCPROPERTYSINGLEVALUE('IsExternal',$,IFCBOOLEAN(.F.),$);
#266=IFCPROPERTYSINGLEVALUE('NetPlannedArea',$,IFCAREAMEASURE(1.),$);
#267=IFCOWNERHISTORY(#3,#4,.READWRITE.,.ADDED.,1789720701,#3,#4,1789720701);
#268=IFCPROPERTYSET('0vRak9K2nCCx6HAVd6rRHA',#267,'ePset_Space',$,(#271));
#269=IFCOWNERHISTORY(#3,#4,.READWRITE.,.ADDED.,1789720701,#3,#4,1789720701);
#270=IFCRELDEFINESBYPROPERTIES('3CKvmATfzF28M2gAcbi2D_',#269,$,$,(#252),#268);
#271=IFCPROPERTYSINGLEVALUE('SignageRoomNumber',$,IFCIDENTIFIER('301'),$);
#272=IFCOWNERHISTORY(#3,#4,.READWRITE.,.ADDED.,1789720701,#3,#4,1789720701);
#273=IFCPROPERTYSET('0vlbVg46X07BK6a3o$Nn0Z',#272,'Pset_SpaceCoveringRequirements',$,(#276));
#274=IFCOWNERHISTORY(#3,#4,.READWRITE.,.ADDED.,1789720701,#3,#4,1789720701);
#275=IFCRELDEFINESBYPROPERTIES('2EqTJfcCf34gUTDPpeu_F5',#274,$,$,(#252),#273);
#276=IFCPROPERTYSINGLEVALUE('FloorCovering',$,IFCLABEL('Parkett'),$);
#277=IFCOWNERHISTORY(#3,#4,.READWRITE.,.ADDED.,1789720701,#3,#4,1789720701);
#278=IFCPROPERTYSET('2gcR7IPA90xucyd5qFKMe4',#277,'Pset_SpaceThermalDesign',$,(#281));
#279=IFCOWNERHISTORY(#3,#4,.READWRITE.,.ADDED.,1789720701,#3,#4,1789720701);
#280=IFCRELDEFINESBYPROPERTIES('3zn18o2Yb4JwcMLBszIioQ',#279,$,$,(#252),#278);
#281=IFCPROPERTYSINGLEVALUE('TotalHeatLoss',$,IFCPOWERMEASURE(1.),$);
#282=IFCOWNERHISTORY(#3,#4,.READWRITE.,.ADDED.,1789720701,#3,#4,1789720701);
#283=IFCPROPERTYSET('36KwJYQAH9dvv3oJSqQs8D',#282,'ePset_SpaceRequirement',$,(#286,#287,#288));
#284=IFCOWNERHISTORY(#3,#4,.READWRITE.,.ADDED.,1789720701,#3,#4,1789720701);
#285=IFCRELDEFINESBYPROPERTIES('0UhE$rbhD81wF_lRpgAQ9C',#284,$,$,(#252),#283);
#286=IFCPROPERTYSINGLEVALUE('DesignAreaLoad',$,IFCREAL(2.),$);
#287=IFCPROPERTYSINGLEVALUE('DesignPointLoad',$,IFCREAL(1.5),$);
#288=IFCPROPERTYSINGLEVALUE('VibrationRequirements',$,IFCLABEL('ISO Residential (Night)'),$);
#289=IFCOWNERHISTORY(#3,#4,.READWRITE.,.ADDED.,1789720701,#3,#4,1789720701);
#290=IFCPROPERTYSET('2lk9wPgTHB4gFazv8Kq2G$',#289,'ePset_Space',$,(#293));
#291=IFCOWNERHISTORY(#3,#4,.READWRITE.,.ADDED.,1789720701,#3,#4,1789720701);
#292=IFCRELDEFINESBYPROPERTIES('27LJL62B52ovjE7A37QZDo',#291,$,$,(#252),#290);
#293=IFCPROPERTYSINGLEVALUE('Checkliste',$,IFCTEXT('Bodenbelag; Beleuchtung'),$);
#294=IFCOWNERHISTORY(#3,#4,.READWRITE.,.ADDED.,1789720701,#3,#4,1789720701);
#295=IFCPROPERTYSET('1A7Esiya54NxY9xg3fPmzT',#294,'ePset_Space',$,(#298,#299));
#296=IFCOWNERHISTORY(#3,#4,.READWRITE.,.ADDED.,1789720701,#3,#4,1789720701);
#297=IFCRELDEFINESBYPROPERTIES('1su529zeP1PhlYrKs$1k3p',#296,$,$,(#252),#295);
#298=IFCPROPERTYSINGLEVALUE('UsageUnitReference',$,IFCIDENTIFIER('UsageUnitReference'),$);
#299=IFCPROPERTYSINGLEVALUE('FireCompartmentReference',$,IFCIDENTIFIER('FireCompartmentReference'),$);
#300=IFCOWNERHISTORY(#3,#4,.READWRITE.,.ADDED.,1789720701,#3,#4,1789720701);
#301=IFCELEMENTQUANTITY('3QLj7JggPD3Am7E9jb5G$h',#300,'Qto_SpaceBaseQuantities',$,'BaseQuantities',(#304,#305,#306,#307,#308));
#302=IFCOWNERHISTORY(#3,#4,.READWRITE.,.ADDED.,1789720701,#3,#4,1789720701);
#303=IFCRELDEFINESBYPROPERTIES('2JL8hDApnEVRLQ2sG0Lm_N',#302,$,$,(#252),#301);
#304=IFCQUANTITYAREA('NetFloorArea',$,$,15.,$);
#305=IFCQUANTITYLENGTH('Height',$,$,2.,$);
#306=IFCQUANTITYLENGTH('FinishCeilingHeight',$,$,2.,$);
#307=IFCQUANTITYAREA('GrossFloorArea',$,$,15.,$);
#308=IFCQUANTITYVOLUME('GrossVolume',$,$,16.5,$);
#309=IFCOWNERHISTORY(#3,#4,.READWRITE.,.MODIFIED.,1789720701,#3,#4,1789720701);
#310=IFCROOF('0Qod69cdnFzgW9x05rnIcJ',#309,'SD-01',$,$,#315,#361,$,.GABLE_ROOF.);
#311=IFCCARTESIANPOINT((0.,0.,0.));
#312=IFCDIRECTION((0.,0.,1.));
#313=IFCDIRECTION((1.,0.,0.));
#314=IFCAXIS2PLACEMENT3D(#311,#312,#313);
#315=IFCLOCALPLACEMENT(#43,#314);
#316=IFCCARTESIANPOINT((0.,0.,2.5));
#317=IFCCARTESIANPOINT((3.,0.,4.2999999999999998));
#318=IFCCARTESIANPOINT((6.,0.,2.5));
#319=IFCCARTESIANPOINT((6.,5.,2.5));
#320=IFCCARTESIANPOINT((3.,5.,4.2999999999999998));
#321=IFCCARTESIANPOINT((0.,5.,2.5));
#322=IFCCARTESIANPOINT((0.,0.,2.7999999999999998));
#323=IFCCARTESIANPOINT((3.,0.,4.5999999999999996));
#324=IFCCARTESIANPOINT((6.,0.,2.7999999999999998));
#325=IFCCARTESIANPOINT((6.,5.,2.7999999999999998));
#326=IFCCARTESIANPOINT((3.,5.,4.5999999999999996));
#327=IFCCARTESIANPOINT((0.,5.,2.7999999999999998));
#328=IFCPOLYLOOP((#316,#321,#320,#317));
#329=IFCFACEOUTERBOUND(#328,.T.);
#330=IFCFACE((#329));
#331=IFCPOLYLOOP((#317,#320,#319,#318));
#332=IFCFACEOUTERBOUND(#331,.T.);
#333=IFCFACE((#332));
#334=IFCPOLYLOOP((#322,#323,#326,#327));
#335=IFCFACEOUTERBOUND(#334,.T.);
#336=IFCFACE((#335));
#337=IFCPOLYLOOP((#323,#324,#325,#326));
#338=IFCFACEOUTERBOUND(#337,.T.);
#339=IFCFACE((#338));
#340=IFCPOLYLOOP((#316,#317,#323,#322));
#341=IFCFACEOUTERBOUND(#340,.T.);
#342=IFCFACE((#341));
#343=IFCPOLYLOOP((#317,#318,#324,#323));
#344=IFCFACEOUTERBOUND(#343,.T.);
#345=IFCFACE((#344));
#346=IFCPOLYLOOP((#321,#327,#326,#320));
#347=IFCFACEOUTERBOUND(#346,.T.);
#348=IFCFACE((#347));
#349=IFCPOLYLOOP((#320,#326,#325,#319));
#350=IFCFACEOUTERBOUND(#349,.T.);
#351=IFCFACE((#350));
#352=IFCPOLYLOOP((#316,#322,#327,#321));
#353=IFCFACEOUTERBOUND(#352,.T.);
#354=IFCFACE((#353));
#355=IFCPOLYLOOP((#318,#319,#325,#324));
#356=IFCFACEOUTERBOUND(#355,.T.);
#357=IFCFACE((#356));
#358=IFCCLOSEDSHELL((#330,#333,#336,#339,#342,#345,#348,#351,#354,#357));
#359=IFCFACETEDBREP(#358);
#360=IFCSHAPEREPRESENTATION(#16,'Body','Brep',(#359));
#361=IFCPRODUCTDEFINITIONSHAPE($,$,(#360));
#362=IFCOWNERHISTORY(#3,#4,.READWRITE.,.ADDED.,1789720701,#3,#4,1789720701);
#363=IFCPROPERTYSET('11xYY5gw5Dxhzv7RKlW4TE',#362,'Pset_RoofCommon',$,(#366,#367,#368));
#364=IFCOWNERHISTORY(#3,#4,.READWRITE.,.ADDED.,1789720701,#3,#4,1789720701);
#365=IFCRELDEFINESBYPROPERTIES('3$W2QNs65BtAstDhOx81ej',#364,$,$,(#310),#363);
#366=IFCPROPERTYSINGLEVALUE('LoadBearing',$,IFCBOOLEAN(.T.),$);
#367=IFCPROPERTYSINGLEVALUE('Status',$,IFCLABEL('NEW'),$);
#368=IFCPROPERTYSINGLEVALUE('ThermalTransmittance',$,IFCTHERMALTRANSMITTANCEMEASURE(0.17000000000000001),$);
#369=IFCOWNERHISTORY(#3,#4,.READWRITE.,.ADDED.,1789720701,#3,#4,1789720701);
#370=IFCPROPERTYSET('1BZqpCY5b0m8L$5dq5CbmA',#369,'ePset_Cost',$,(#373,#374,#375,#376,#377,#378,#379,#380));
#371=IFCOWNERHISTORY(#3,#4,.READWRITE.,.ADDED.,1789720701,#3,#4,1789720701);
#372=IFCRELDEFINESBYPROPERTIES('0aIhX4bJ52kfAjMsaCK8Ws',#371,$,$,(#310),#370);
#373=IFCPROPERTYSINGLEVALUE('CostInterface',$,IFCLABEL('GAB'),$);
#374=IFCPROPERTYSINGLEVALUE('AwardInterface',$,IFCLABEL('211'),$);
#375=IFCPROPERTYSINGLEVALUE('PlanningInterface',$,IFCLABEL('092'),$);
#376=IFCPROPERTYSINGLEVALUE('BelowTerrain',$,IFCBOOLEAN(.F.),$);
#377=IFCPROPERTYSINGLEVALUE('eBKP',$,IFCLABEL('C04.05'),$);
#378=IFCPROPERTYSINGLEVALUE('ProductClass',$,IFCLABEL('RCP-FLAT-BITUMEN'),$);
#379=IFCPROPERTYSINGLEVALUE('UnitPrice',$,IFCLABEL('UnitPrice'),$);
#380=IFCPROPERTYSINGLEVALUE('ReferenceQuantity',$,IFCLABEL('ReferenceQuantity'),$);
#381=IFCOWNERHISTORY(#3,#4,.READWRITE.,.ADDED.,1789720701,#3,#4,1789720701);
#382=IFCPROPERTYSET('23VGYbBNDFwQTBzXqXAWQI',#381,'ePset_HazardousMaterial',$,(#385,#386));
#383=IFCOWNERHISTORY(#3,#4,.READWRITE.,.ADDED.,1789720701,#3,#4,1789720701);
#384=IFCRELDEFINESBYPROPERTIES('3VZydGAFb1owck58l44m4$',#383,$,$,(#310),#382);
#385=IFCPROPERTYSINGLEVALUE('HazardType',$,IFCTEXT('Asbestos'),$);
#386=IFCPROPERTYSINGLEVALUE('RemovalCategory',$,IFCTEXT('Immediate'),$);
#387=IFCOWNERHISTORY(#3,#4,.READWRITE.,.ADDED.,1789720701,#3,#4,1789720701);
#388=IFCROOFTYPE('3MsU9GFqD53Q$KUG5ndDRP',#387,'SD-01 Type',$,$,(#392),$,$,$,.NOTDEFINED.);
#389=IFCOWNERHISTORY(#3,#4,.READWRITE.,.ADDED.,1789720701,#3,#4,1789720701);
#390=IFCRELDEFINESBYTYPE('0z0h5xyYL2BAexMCEDhjQz',#389,$,$,(#310),#388);
#391=IFCOWNERHISTORY(#3,#4,.READWRITE.,.ADDED.,1789720701,#3,#4,1789720701);
#392=IFCPROPERTYSET('1uJpCvzaPFGv0njRvaiDVt',#391,'Pset_ManufacturerTypeInformation',$,(#393));
#393=IFCPROPERTYSINGLEVALUE('GlobalTradeItemNumber',$,IFCIDENTIFIER('07612345000015'),$);
#394=IFCOWNERHISTORY(#3,#4,.READWRITE.,.ADDED.,1789720701,#3,#4,1789720701);
#395=IFCPROPERTYSET('2om3ZdQ4n8wRVg3Pt_eYdW',#394,'Pset_ManufacturerOccurrence',$,(#398));
#396=IFCOWNERHISTORY(#3,#4,.READWRITE.,.ADDED.,1789720701,#3,#4,1789720701);
#397=IFCRELDEFINESBYPROPERTIES('2o2J4nZXP9ixM1HjOPmtkB',#396,$,$,(#310),#395);
#398=IFCPROPERTYSINGLEVALUE('SerialNumber',$,IFCIDENTIFIER('SN-000001'),$);
#399=IFCOWNERHISTORY(#3,#4,.READWRITE.,.ADDED.,1789720701,#3,#4,1789720701);
#400=IFCELEMENTQUANTITY('2$uJF4_35DUhghROpBYJpV',#399,'Qto_RoofBaseQuantities',$,'BaseQuantities',(#403));
#401=IFCOWNERHISTORY(#3,#4,.READWRITE.,.ADDED.,1789720701,#3,#4,1789720701);
#402=IFCRELDEFINESBYPROPERTIES('3TWNQdlXfAJ8xXgGP_sQLs',#401,$,$,(#310),#400);
#403=IFCQUANTITYAREA('GrossArea',$,$,34.990000000000002,$);
ENDSEC;
END-ISO-10303-21;
