ISO-10303-21;
HEADER;
FILE_DESCRIPTION(('ViewDefinition[DesignTransferView]'),'2;1');
FILE_NAME('/dev/null','2026-09-18T09:26:10+02:00',(''),(''),'IfcOpenShell 0.8.5','IfcOpenShell 0.8.5','Nobody');
FILE_SCHEMA(('IFC4'));
ENDSEC;
DATA;
#1=IFCPERSON('catalog-pipeline','Pipeline','Catalog',$,$,$,$,$);
#2=IFCORGANIZATION('pragmaticBIM','pragmaticBIM',$,$,$);
#3=IFCPERSONANDORGANIZATION(#1,#2,$);
#4=IFCAPPLICATION(#2,'0.1.0','Catalog IFC Pipeline','catalog-ifc-pipeline');
#5=IFCOWNERHISTORY(#3,#4,.READWRITE.,.ADDED.,1789716370,#3,#4,1789716370);
#6=IFCPROJECT('0ApwnfrznC5w53M7Pb$DrL',#5,'Catalog \X2\2014\X0\ 201',$,$,$,$,(#15),#10);
#7=IFCSIUNIT(*,.LENGTHUNIT.,$,.METRE.);
#8=IFCSIUNIT(*,.AREAUNIT.,$,.SQUARE_METRE.);
#9=IFCSIUNIT(*,.VOLUMEUNIT.,$,.CUBIC_METRE.);
#10=IFCUNITASSIGNMENT((#8,#9,#7));
#11=IFCCARTESIANPOINT((0.,0.,0.));
#12=IFCDIRECTION((0.,0.,1.));
#13=IFCDIRECTION((1.,0.,0.));
#14=IFCAXIS2PLACEMENT3D(#11,#12,#13);
#15=IFCGEOMETRICREPRESENTATIONCONTEXT($,'Model',3,1.0000000000000001E-05,#14,$);
#16=IFCGEOMETRICREPRESENTATIONSUBCONTEXT('Body','Model',*,*,*,*,#15,$,.MODEL_VIEW.,$);
#17=IFCOWNERHISTORY(#3,#4,.READWRITE.,.MODIFIED.,1789716370,#3,#4,1789716370);
#18=IFCSITE('0cj__oWpf3RgKBjC_L$eQH',#17,'Site',$,$,#29,$,$,$,$,$,$,$,$);
#19=IFCOWNERHISTORY(#3,#4,.READWRITE.,.MODIFIED.,1789716370,#3,#4,1789716370);
#20=IFCBUILDING('06eLIDis56b9Nd5NsBLMz_',#19,'Building',$,$,#34,$,$,$,$,$,$);
#21=IFCOWNERHISTORY(#3,#4,.READWRITE.,.ADDED.,1789716370,#3,#4,1789716370);
#22=IFCRELAGGREGATES('2cdJWCGwr4iwhBDJ1lTY5D',#21,$,$,#6,(#18));
#23=IFCOWNERHISTORY(#3,#4,.READWRITE.,.ADDED.,1789716370,#3,#4,1789716370);
#24=IFCRELAGGREGATES('304McY$pb8Yew$NL3qKU7o',#23,$,$,#18,(#20));
#25=IFCCARTESIANPOINT((0.,0.,0.));
#26=IFCDIRECTION((0.,0.,1.));
#27=IFCDIRECTION((1.,0.,0.));
#28=IFCAXIS2PLACEMENT3D(#25,#26,#27);
#29=IFCLOCALPLACEMENT($,#28);
#30=IFCCARTESIANPOINT((0.,0.,0.));
#31=IFCDIRECTION((0.,0.,1.));
#32=IFCDIRECTION((1.,0.,0.));
#33=IFCAXIS2PLACEMENT3D(#30,#31,#32);
#34=IFCLOCALPLACEMENT(#29,#33);
#35=IFCOWNERHISTORY(#3,#4,.READWRITE.,.MODIFIED.,1789716370,#3,#4,1789716370);
#36=IFCBUILDINGSTOREY('2sx3_PZPnCeQvmkEfLlUrX',#35,'Level 0',$,$,#43,$,$,$,0.);
#37=IFCOWNERHISTORY(#3,#4,.READWRITE.,.ADDED.,1789716370,#3,#4,1789716370);
#38=IFCRELAGGREGATES('2B7VzZ2Lr2pg$GocEyiHcz',#37,$,$,#20,(#36));
#39=IFCCARTESIANPOINT((0.,0.,0.));
#40=IFCDIRECTION((0.,0.,1.));
#41=IFCDIRECTION((1.,0.,0.));
#42=IFCAXIS2PLACEMENT3D(#39,#40,#41);
#43=IFCLOCALPLACEMENT(#34,#42);
#44=IFCOWNERHISTORY(#3,#4,.READWRITE.,.MODIFIED.,1789716370,#3,#4,1789716370);
#45=IFCSLAB('1bmcnZWOv2qASqsjQxNLpk',#44,'201-FloorSlab',$,$,#52,#67,$,.FLOOR.);
#46=IFCOWNERHISTORY(#3,#4,.READWRITE.,.MODIFIED.,1789716370,#3,#4,1789716370);
#47=IFCRELCONTAINEDINSPATIALSTRUCTURE('36FAi19P5CtvBB3SIuSLvC',#46,$,$,(#430,#295,#113,#418,#45,#135,#157,#536,#69,#91),#36);
#48=IFCCARTESIANPOINT((0.,0.,-0.29999999999999999));
#49=IFCDIRECTION((0.,0.,1.));
#50=IFCDIRECTION((1.,0.,0.));
#51=IFCAXIS2PLACEMENT3D(#48,#49,#50);
#52=IFCLOCALPLACEMENT(#43,#51);
#53=IFCCARTESIANPOINT((0.,0.,0.));
#54=IFCCARTESIANPOINT((2.3599999999999999,0.,0.));
#55=IFCCARTESIANPOINT((2.3599999999999999,5.,0.));
#56=IFCCARTESIANPOINT((0.,5.,0.));
#57=IFCCARTESIANPOINT((0.,0.,0.));
#58=IFCPOLYLINE((#53,#54,#55,#56,#57));
#59=IFCARBITRARYCLOSEDPROFILEDEF(.AREA.,$,#58);
#60=IFCCARTESIANPOINT((0.,0.,0.));
#61=IFCDIRECTION((0.,0.,1.));
#62=IFCDIRECTION((1.,0.,0.));
#63=IFCAXIS2PLACEMENT3D(#60,#61,#62);
#64=IFCDIRECTION((0.,0.,1.));
#65=IFCEXTRUDEDAREASOLID(#59,#63,#64,0.29999999999999999);
#66=IFCSHAPEREPRESENTATION(#16,'Body','SweptSolid',(#65));
#67=IFCPRODUCTDEFINITIONSHAPE($,$,(#66));
#68=IFCOWNERHISTORY(#3,#4,.READWRITE.,.MODIFIED.,1789716370,#3,#4,1789716370);
#69=IFCCOVERING('3KYC7KTD99uQmP597rfX48',#68,'201-CeilingCovering',$,$,#74,#89,$,.CEILING.);
#70=IFCCARTESIANPOINT((0.,0.,2.6000000000000001));
#71=IFCDIRECTION((0.,0.,1.));
#72=IFCDIRECTION((1.,0.,0.));
#73=IFCAXIS2PLACEMENT3D(#70,#71,#72);
#74=IFCLOCALPLACEMENT(#43,#73);
#75=IFCCARTESIANPOINT((0.,0.,0.));
#76=IFCCARTESIANPOINT((2.,0.,0.));
#77=IFCCARTESIANPOINT((2.,5.,0.));
#78=IFCCARTESIANPOINT((0.,5.,0.));
#79=IFCCARTESIANPOINT((0.,0.,0.));
#80=IFCPOLYLINE((#75,#76,#77,#78,#79));
#81=IFCARBITRARYCLOSEDPROFILEDEF(.AREA.,$,#80);
#82=IFCCARTESIANPOINT((0.,0.,0.));
#83=IFCDIRECTION((0.,0.,1.));
#84=IFCDIRECTION((1.,0.,0.));
#85=IFCAXIS2PLACEMENT3D(#82,#83,#84);
#86=IFCDIRECTION((0.,0.,1.));
#87=IFCEXTRUDEDAREASOLID(#81,#85,#86,0.10000000000000001);
#88=IFCSHAPEREPRESENTATION(#16,'Body','SweptSolid',(#87));
#89=IFCPRODUCTDEFINITIONSHAPE($,$,(#88));
#90=IFCOWNERHISTORY(#3,#4,.READWRITE.,.MODIFIED.,1789716370,#3,#4,1789716370);
#91=IFCSLAB('23BbLHIHn0OAYcTfPxqOfe',#90,'201-CeilingSlab',$,$,#96,#111,$,.FLOOR.);
#92=IFCCARTESIANPOINT((0.,0.,2.7999999999999998));
#93=IFCDIRECTION((0.,0.,1.));
#94=IFCDIRECTION((1.,0.,0.));
#95=IFCAXIS2PLACEMENT3D(#92,#93,#94);
#96=IFCLOCALPLACEMENT(#43,#95);
#97=IFCCARTESIANPOINT((0.,0.,0.));
#98=IFCCARTESIANPOINT((2.3599999999999999,0.,0.));
#99=IFCCARTESIANPOINT((2.3599999999999999,5.,0.));
#100=IFCCARTESIANPOINT((0.,5.,0.));
#101=IFCCARTESIANPOINT((0.,0.,0.));
#102=IFCPOLYLINE((#97,#98,#99,#100,#101));
#103=IFCARBITRARYCLOSEDPROFILEDEF(.AREA.,$,#102);
#104=IFCCARTESIANPOINT((0.,0.,0.));
#105=IFCDIRECTION((0.,0.,1.));
#106=IFCDIRECTION((1.,0.,0.));
#107=IFCAXIS2PLACEMENT3D(#104,#105,#106);
#108=IFCDIRECTION((0.,0.,1.));
#109=IFCEXTRUDEDAREASOLID(#103,#107,#108,0.29999999999999999);
#110=IFCSHAPEREPRESENTATION(#16,'Body','SweptSolid',(#109));
#111=IFCPRODUCTDEFINITIONSHAPE($,$,(#110));
#112=IFCOWNERHISTORY(#3,#4,.READWRITE.,.MODIFIED.,1789716370,#3,#4,1789716370);
#113=IFCSLAB('2pUbLYBfrDwva6FzoTv2VK',#112,'201-BalconySlab',$,$,#118,#133,$,.FLOOR.);
#114=IFCCARTESIANPOINT((0.,0.,-0.29999999999999999));
#115=IFCDIRECTION((0.,0.,1.));
#116=IFCDIRECTION((1.,0.,0.));
#117=IFCAXIS2PLACEMENT3D(#114,#115,#116);
#118=IFCLOCALPLACEMENT(#43,#117);
#119=IFCCARTESIANPOINT((2.3599999999999999,0.,0.));
#120=IFCCARTESIANPOINT((3.9199999999999999,0.,0.));
#121=IFCCARTESIANPOINT((3.9199999999999999,5.,0.));
#122=IFCCARTESIANPOINT((2.3599999999999999,5.,0.));
#123=IFCCARTESIANPOINT((2.3599999999999999,0.,0.));
#124=IFCPOLYLINE((#119,#120,#121,#122,#123));
#125=IFCARBITRARYCLOSEDPROFILEDEF(.AREA.,$,#124);
#126=IFCCARTESIANPOINT((0.,0.,0.));
#127=IFCDIRECTION((0.,0.,1.));
#128=IFCDIRECTION((1.,0.,0.));
#129=IFCAXIS2PLACEMENT3D(#126,#127,#128);
#130=IFCDIRECTION((0.,0.,1.));
#131=IFCEXTRUDEDAREASOLID(#125,#129,#130,0.29999999999999999);
#132=IFCSHAPEREPRESENTATION(#16,'Body','SweptSolid',(#131));
#133=IFCPRODUCTDEFINITIONSHAPE($,$,(#132));
#134=IFCOWNERHISTORY(#3,#4,.READWRITE.,.MODIFIED.,1789716370,#3,#4,1789716370);
#135=IFCWALL('0nbsj$QYv8NOESE6Rawqzj',#134,'201-ExteriorWall',$,$,#140,#155,$,.SOLIDWALL.);
#136=IFCCARTESIANPOINT((2.3599999999999999,0.,0.));
#137=IFCDIRECTION((0.,0.,1.));
#138=IFCDIRECTION((0.,1.,0.));
#139=IFCAXIS2PLACEMENT3D(#136,#137,#138);
#140=IFCLOCALPLACEMENT(#43,#139);
#141=IFCCARTESIANPOINT((0.,0.,0.));
#142=IFCCARTESIANPOINT((5.,0.,0.));
#143=IFCCARTESIANPOINT((5.,0.35999999999999999,0.));
#144=IFCCARTESIANPOINT((0.,0.35999999999999999,0.));
#145=IFCCARTESIANPOINT((0.,0.,0.));
#146=IFCPOLYLINE((#141,#142,#143,#144,#145));
#147=IFCARBITRARYCLOSEDPROFILEDEF(.AREA.,$,#146);
#148=IFCCARTESIANPOINT((0.,0.,0.));
#149=IFCDIRECTION((0.,0.,1.));
#150=IFCDIRECTION((1.,0.,0.));
#151=IFCAXIS2PLACEMENT3D(#148,#149,#150);
#152=IFCDIRECTION((0.,0.,1.));
#153=IFCEXTRUDEDAREASOLID(#147,#151,#152,2.7999999999999998);
#154=IFCSHAPEREPRESENTATION(#16,'Body','SweptSolid',(#153));
#155=IFCPRODUCTDEFINITIONSHAPE($,$,(#154));
#156=IFCOWNERHISTORY(#3,#4,.READWRITE.,.MODIFIED.,1789716370,#3,#4,1789716370);
#157=IFCCOVERING('3FQToDtYDCA8mlUMPnHiJi',#156,'201-Cladding',$,$,#162,#177,$,.CLADDING.);
#158=IFCCARTESIANPOINT((2.4199999999999995,0.,0.));
#159=IFCDIRECTION((0.,0.,1.));
#160=IFCDIRECTION((0.,1.,0.));
#161=IFCAXIS2PLACEMENT3D(#158,#159,#160);
#162=IFCLOCALPLACEMENT(#43,#161);
#163=IFCCARTESIANPOINT((0.,0.,0.));
#164=IFCCARTESIANPOINT((5.,0.,0.));
#165=IFCCARTESIANPOINT((5.,0.050000000000000003,0.));
#166=IFCCARTESIANPOINT((0.,0.050000000000000003,0.));
#167=IFCCARTESIANPOINT((0.,0.,0.));
#168=IFCPOLYLINE((#163,#164,#165,#166,#167));
#169=IFCARBITRARYCLOSEDPROFILEDEF(.AREA.,$,#168);
#170=IFCCARTESIANPOINT((0.,0.,0.));
#171=IFCDIRECTION((0.,0.,1.));
#172=IFCDIRECTION((1.,0.,0.));
#173=IFCAXIS2PLACEMENT3D(#170,#171,#172);
#174=IFCDIRECTION((0.,0.,1.));
#175=IFCEXTRUDEDAREASOLID(#169,#173,#174,3.0999999999999996);
#176=IFCSHAPEREPRESENTATION(#16,'Body','SweptSolid',(#175));
#177=IFCPRODUCTDEFINITIONSHAPE($,$,(#176));
#178=IFCOWNERHISTORY(#3,#4,.READWRITE.,.MODIFIED.,1789716370,#3,#4,1789716370);
#179=IFCOPENINGELEMENT('3LHPGccGXDxBpVYq4NW6Rj',#178,'201-DoorOpening',$,$,#206,#199,$,.OPENING.);
#185=IFCCARTESIANPOINT((3.6999999999999997,-0.01,0.));
#186=IFCCARTESIANPOINT((4.5999999999999996,-0.01,0.));
#187=IFCCARTESIANPOINT((4.5999999999999996,0.38,0.));
#188=IFCCARTESIANPOINT((3.6999999999999997,0.38,0.));
#189=IFCCARTESIANPOINT((3.6999999999999997,-0.01,0.));
#190=IFCPOLYLINE((#185,#186,#187,#188,#189));
#191=IFCARBITRARYCLOSEDPROFILEDEF(.AREA.,$,#190);
#192=IFCCARTESIANPOINT((0.,0.,0.));
#193=IFCDIRECTION((0.,0.,1.));
#194=IFCDIRECTION((1.,0.,0.));
#195=IFCAXIS2PLACEMENT3D(#192,#193,#194);
#196=IFCDIRECTION((0.,0.,1.));
#197=IFCEXTRUDEDAREASOLID(#191,#195,#196,2.1000000000000001);
#198=IFCSHAPEREPRESENTATION(#16,'Body','SweptSolid',(#197));
#199=IFCPRODUCTDEFINITIONSHAPE($,$,(#198));
#200=IFCOWNERHISTORY(#3,#4,.READWRITE.,.ADDED.,1789716370,#3,#4,1789716370);
#201=IFCRELVOIDSELEMENT('0ZLOuvjnnCif7IM71hTbYE',#200,$,$,#135,#179);
#202=IFCCARTESIANPOINT((0.,0.,0.));
#203=IFCDIRECTION((0.,0.,1.));
#204=IFCDIRECTION((1.,0.,0.));
#205=IFCAXIS2PLACEMENT3D(#202,#203,#204);
#206=IFCLOCALPLACEMENT(#140,#205);
#207=IFCOWNERHISTORY(#3,#4,.READWRITE.,.MODIFIED.,1789716370,#3,#4,1789716370);
#208=IFCOPENINGELEMENT('3S1U4euL12KQPaG2VuQrbg',#207,'201-WindowOpening',$,$,#235,#228,$,.OPENING.);
#214=IFCCARTESIANPOINT((0.40000000000000002,-0.01,0.));
#215=IFCCARTESIANPOINT((1.6000000000000001,-0.01,0.));
#216=IFCCARTESIANPOINT((1.6000000000000001,0.38,0.));
#217=IFCCARTESIANPOINT((0.40000000000000002,0.38,0.));
#218=IFCCARTESIANPOINT((0.40000000000000002,-0.01,0.));
#219=IFCPOLYLINE((#214,#215,#216,#217,#218));
#220=IFCARBITRARYCLOSEDPROFILEDEF(.AREA.,$,#219);
#221=IFCCARTESIANPOINT((0.,0.,0.90000000000000002));
#222=IFCDIRECTION((0.,0.,1.));
#223=IFCDIRECTION((1.,0.,0.));
#224=IFCAXIS2PLACEMENT3D(#221,#222,#223);
#225=IFCDIRECTION((0.,0.,1.));
#226=IFCEXTRUDEDAREASOLID(#220,#224,#225,1.3999999999999999);
#227=IFCSHAPEREPRESENTATION(#16,'Body','SweptSolid',(#226));
#228=IFCPRODUCTDEFINITIONSHAPE($,$,(#227));
#229=IFCOWNERHISTORY(#3,#4,.READWRITE.,.ADDED.,1789716370,#3,#4,1789716370);
#230=IFCRELVOIDSELEMENT('0Z5vkGzbz2ZO0KcKJ76gkB',#229,$,$,#135,#208);
#231=IFCCARTESIANPOINT((0.,0.,0.));
#232=IFCDIRECTION((0.,0.,1.));
#233=IFCDIRECTION((1.,0.,0.));
#234=IFCAXIS2PLACEMENT3D(#231,#232,#233);
#235=IFCLOCALPLACEMENT(#140,#234);
#236=IFCOWNERHISTORY(#3,#4,.READWRITE.,.MODIFIED.,1789716370,#3,#4,1789716370);
#237=IFCOPENINGELEMENT('07LHVqUmH2B9E3anZkKF$B',#236,'201-DoorOpening-Cladding',$,$,#264,#257,$,.OPENING.);
#243=IFCCARTESIANPOINT((3.6999999999999997,-0.01,0.));
#244=IFCCARTESIANPOINT((4.5999999999999996,-0.01,0.));
#245=IFCCARTESIANPOINT((4.5999999999999996,0.070000000000000007,0.));
#246=IFCCARTESIANPOINT((3.6999999999999997,0.070000000000000007,0.));
#247=IFCCARTESIANPOINT((3.6999999999999997,-0.01,0.));
#248=IFCPOLYLINE((#243,#244,#245,#246,#247));
#249=IFCARBITRARYCLOSEDPROFILEDEF(.AREA.,$,#248);
#250=IFCCARTESIANPOINT((0.,0.,0.));
#251=IFCDIRECTION((0.,0.,1.));
#252=IFCDIRECTION((1.,0.,0.));
#253=IFCAXIS2PLACEMENT3D(#250,#251,#252);
#254=IFCDIRECTION((0.,0.,1.));
#255=IFCEXTRUDEDAREASOLID(#249,#253,#254,2.1000000000000001);
#256=IFCSHAPEREPRESENTATION(#16,'Body','SweptSolid',(#255));
#257=IFCPRODUCTDEFINITIONSHAPE($,$,(#256));
#258=IFCOWNERHISTORY(#3,#4,.READWRITE.,.ADDED.,1789716370,#3,#4,1789716370);
#259=IFCRELVOIDSELEMENT('3Zr7OkmHrEsxoTE7UpPJoW',#258,$,$,#157,#237);
#260=IFCCARTESIANPOINT((0.,0.,0.));
#261=IFCDIRECTION((0.,0.,1.));
#262=IFCDIRECTION((1.,0.,0.));
#263=IFCAXIS2PLACEMENT3D(#260,#261,#262);
#264=IFCLOCALPLACEMENT(#162,#263);
#265=IFCOWNERHISTORY(#3,#4,.READWRITE.,.MODIFIED.,1789716370,#3,#4,1789716370);
#266=IFCOPENINGELEMENT('3ML1GWA2j65ulGnHFWQjsU',#265,'201-WindowOpening-Cladding',$,$,#293,#286,$,.OPENING.);
#272=IFCCARTESIANPOINT((0.40000000000000002,-0.01,0.));
#273=IFCCARTESIANPOINT((1.6000000000000001,-0.01,0.));
#274=IFCCARTESIANPOINT((1.6000000000000001,0.070000000000000007,0.));
#275=IFCCARTESIANPOINT((0.40000000000000002,0.070000000000000007,0.));
#276=IFCCARTESIANPOINT((0.40000000000000002,-0.01,0.));
#277=IFCPOLYLINE((#272,#273,#274,#275,#276));
#278=IFCARBITRARYCLOSEDPROFILEDEF(.AREA.,$,#277);
#279=IFCCARTESIANPOINT((0.,0.,0.90000000000000002));
#280=IFCDIRECTION((0.,0.,1.));
#281=IFCDIRECTION((1.,0.,0.));
#282=IFCAXIS2PLACEMENT3D(#279,#280,#281);
#283=IFCDIRECTION((0.,0.,1.));
#284=IFCEXTRUDEDAREASOLID(#278,#282,#283,1.3999999999999999);
#285=IFCSHAPEREPRESENTATION(#16,'Body','SweptSolid',(#284));
#286=IFCPRODUCTDEFINITIONSHAPE($,$,(#285));
#287=IFCOWNERHISTORY(#3,#4,.READWRITE.,.ADDED.,1789716370,#3,#4,1789716370);
#288=IFCRELVOIDSELEMENT('3VztVDQYHF6Acj66KTFLa9',#287,$,$,#157,#266);
#289=IFCCARTESIANPOINT((0.,0.,0.));
#290=IFCDIRECTION((0.,0.,1.));
#291=IFCDIRECTION((1.,0.,0.));
#292=IFCAXIS2PLACEMENT3D(#289,#290,#291);
#293=IFCLOCALPLACEMENT(#162,#292);
#294=IFCOWNERHISTORY(#3,#4,.READWRITE.,.MODIFIED.,1789716370,#3,#4,1789716370);
#295=IFCDOOR('12TMHlttXFg8GXqh$3i4rJ',#294,'AT-01',$,$,#300,#407,$,$,$,.DOOR.,$,$);
#296=IFCCARTESIANPOINT((2.3599999999999999,0.,0.));
#297=IFCDIRECTION((0.,0.,1.));
#298=IFCDIRECTION((0.,1.,0.));
#299=IFCAXIS2PLACEMENT3D(#296,#297,#298);
#300=IFCLOCALPLACEMENT(#43,#299);
#301=IFCCARTESIANPOINT((3.6999999999999997,-0.,0.));
#302=IFCCARTESIANPOINT((3.7999999999999998,-0.,0.));
#303=IFCCARTESIANPOINT((3.7999999999999998,0.19800000000000001,0.));
#304=IFCCARTESIANPOINT((3.6999999999999997,0.19800000000000001,0.));
#305=IFCCARTESIANPOINT((3.6999999999999997,-0.,0.));
#306=IFCPOLYLINE((#301,#302,#303,#304,#305));
#307=IFCARBITRARYCLOSEDPROFILEDEF(.AREA.,$,#306);
#308=IFCCARTESIANPOINT((0.,0.,0.));
#309=IFCDIRECTION((0.,0.,1.));
#310=IFCDIRECTION((1.,0.,0.));
#311=IFCAXIS2PLACEMENT3D(#308,#309,#310);
#312=IFCDIRECTION((0.,0.,1.));
#313=IFCEXTRUDEDAREASOLID(#307,#311,#312,2.1000000000000001);
#314=IFCCARTESIANPOINT((4.5,-0.,0.));
#315=IFCCARTESIANPOINT((4.5999999999999996,-0.,0.));
#316=IFCCARTESIANPOINT((4.5999999999999996,0.19800000000000001,0.));
#317=IFCCARTESIANPOINT((4.5,0.19800000000000001,0.));
#318=IFCCARTESIANPOINT((4.5,-0.,0.));
#319=IFCPOLYLINE((#314,#315,#316,#317,#318));
#320=IFCARBITRARYCLOSEDPROFILEDEF(.AREA.,$,#319);
#321=IFCCARTESIANPOINT((0.,0.,0.));
#322=IFCDIRECTION((0.,0.,1.));
#323=IFCDIRECTION((1.,0.,0.));
#324=IFCAXIS2PLACEMENT3D(#321,#322,#323);
#325=IFCDIRECTION((0.,0.,1.));
#326=IFCEXTRUDEDAREASOLID(#320,#324,#325,2.1000000000000001);
#327=IFCCARTESIANPOINT((3.7999999999999998,-0.,0.));
#328=IFCCARTESIANPOINT((4.5,-0.,0.));
#329=IFCCARTESIANPOINT((4.5,0.19800000000000001,0.));
#330=IFCCARTESIANPOINT((3.7999999999999998,0.19800000000000001,0.));
#331=IFCCARTESIANPOINT((3.7999999999999998,-0.,0.));
#332=IFCPOLYLINE((#327,#328,#329,#330,#331));
#333=IFCARBITRARYCLOSEDPROFILEDEF(.AREA.,$,#332);
#334=IFCCARTESIANPOINT((0.,0.,2.));
#335=IFCDIRECTION((0.,0.,1.));
#336=IFCDIRECTION((1.,0.,0.));
#337=IFCAXIS2PLACEMENT3D(#334,#335,#336);
#338=IFCDIRECTION((0.,0.,1.));
#339=IFCEXTRUDEDAREASOLID(#333,#337,#338,0.10000000000000009);
#340=IFCCARTESIANPOINT((3.7999999999999998,-0.,0.));
#341=IFCCARTESIANPOINT((4.5,-0.,0.));
#342=IFCCARTESIANPOINT((4.5,0.19800000000000001,0.));
#343=IFCCARTESIANPOINT((3.7999999999999998,0.19800000000000001,0.));
#344=IFCCARTESIANPOINT((3.7999999999999998,-0.,0.));
#345=IFCPOLYLINE((#340,#341,#342,#343,#344));
#346=IFCARBITRARYCLOSEDPROFILEDEF(.AREA.,$,#345);
#347=IFCCARTESIANPOINT((0.,0.,0.));
#348=IFCDIRECTION((0.,0.,1.));
#349=IFCDIRECTION((1.,0.,0.));
#350=IFCAXIS2PLACEMENT3D(#347,#348,#349);
#351=IFCDIRECTION((0.,0.,1.));
#352=IFCEXTRUDEDAREASOLID(#346,#350,#351,0.025000000000000001);
#353=IFCCARTESIANPOINT((3.7999999999999998,-0.,0.));
#354=IFCCARTESIANPOINT((4.5,-0.,0.));
#355=IFCCARTESIANPOINT((4.5,0.19800000000000001,0.));
#356=IFCCARTESIANPOINT((3.7999999999999998,0.19800000000000001,0.));
#357=IFCCARTESIANPOINT((3.7999999999999998,-0.,0.));
#358=IFCPOLYLINE((#353,#354,#355,#356,#357));
#359=IFCARBITRARYCLOSEDPROFILEDEF(.AREA.,$,#358);
#360=IFCCARTESIANPOINT((0.,0.,1.0662500000000001));
#361=IFCDIRECTION((0.,0.,1.));
#362=IFCDIRECTION((1.,0.,0.));
#363=IFCAXIS2PLACEMENT3D(#360,#361,#362);
#364=IFCDIRECTION((0.,0.,1.));
#365=IFCEXTRUDEDAREASOLID(#359,#363,#364,0.089999999999999858);
#366=IFCCARTESIANPOINT((3.7999999999999998,0.014999999999999999,0.));
#367=IFCCARTESIANPOINT((4.5,0.014999999999999999,0.));
#368=IFCCARTESIANPOINT((4.5,0.055,0.));
#369=IFCCARTESIANPOINT((3.7999999999999998,0.055,0.));
#370=IFCCARTESIANPOINT((3.7999999999999998,0.014999999999999999,0.));
#371=IFCPOLYLINE((#366,#367,#368,#369,#370));
#372=IFCARBITRARYCLOSEDPROFILEDEF(.AREA.,$,#371);
#373=IFCCARTESIANPOINT((0.,0.,0.025000000000000001));
#374=IFCDIRECTION((0.,0.,1.));
#375=IFCDIRECTION((1.,0.,0.));
#376=IFCAXIS2PLACEMENT3D(#373,#374,#375);
#377=IFCDIRECTION((0.,0.,1.));
#378=IFCEXTRUDEDAREASOLID(#372,#376,#377,1.0412500000000002);
#379=IFCCARTESIANPOINT((3.7999999999999998,0.014999999999999999,0.));
#380=IFCCARTESIANPOINT((4.5,0.014999999999999999,0.));
#381=IFCCARTESIANPOINT((4.5,0.055,0.));
#382=IFCCARTESIANPOINT((3.7999999999999998,0.055,0.));
#383=IFCCARTESIANPOINT((3.7999999999999998,0.014999999999999999,0.));
#384=IFCPOLYLINE((#379,#380,#381,#382,#383));
#385=IFCARBITRARYCLOSEDPROFILEDEF(.AREA.,$,#384);
#386=IFCCARTESIANPOINT((0.,0.,1.15625));
#387=IFCDIRECTION((0.,0.,1.));
#388=IFCDIRECTION((1.,0.,0.));
#389=IFCAXIS2PLACEMENT3D(#386,#387,#388);
#390=IFCDIRECTION((0.,0.,1.));
#391=IFCEXTRUDEDAREASOLID(#385,#389,#390,0.84375);
#392=IFCSURFACESTYLE('Frame',.BOTH.,(#393));
#393=IFCSURFACESTYLESHADING(#394,0.);
#394=IFCCOLOURRGB($,1.,1.,1.);
#395=IFCSURFACESTYLE('Glass',.BOTH.,(#396));
#396=IFCSURFACESTYLESHADING(#397,0.69999999999999996);
#397=IFCCOLOURRGB($,0.69999999999999996,0.84999999999999998,0.94999999999999996);
#398=IFCMATERIAL('Frame',$,'metal');
#399=IFCMATERIAL('Glass',$,'glass');
#400=IFCSTYLEDITEM($,(#392),'Frame');
#401=IFCSTYLEDREPRESENTATION(#16,'Body',$,(#400));
#402=IFCMATERIALDEFINITIONREPRESENTATION($,$,(#401),#398);
#403=IFCSTYLEDITEM($,(#395),'Glass');
#404=IFCSTYLEDREPRESENTATION(#16,'Body',$,(#403));
#405=IFCMATERIALDEFINITIONREPRESENTATION($,$,(#404),#399);
#406=IFCSHAPEREPRESENTATION(#16,'Body','SweptSolid',(#313,#326,#339,#352,#365,#378));
#407=IFCPRODUCTDEFINITIONSHAPE($,$,(#406));
#408=IFCSTYLEDITEM(#313,(#392),$);
#409=IFCSTYLEDITEM(#326,(#392),$);
#410=IFCSTYLEDITEM(#339,(#392),$);
#411=IFCSTYLEDITEM(#352,(#392),$);
#412=IFCSTYLEDITEM(#365,(#392),$);
#413=IFCSTYLEDITEM(#378,(#392),$);
#414=IFCOWNERHISTORY(#3,#4,.READWRITE.,.MODIFIED.,1789716370,#3,#4,1789716370);
#415=IFCRELASSOCIATESMATERIAL('2JdgGS8YH8jeb0CzmcXaM8',#414,$,$,(#430,#295),#398);
#416=IFCRELFILLSELEMENT('37naYGO0nDAvfmtZjhL7pX',$,$,$,#179,#295);
#417=IFCOWNERHISTORY(#3,#4,.READWRITE.,.MODIFIED.,1789716370,#3,#4,1789716370);
#418=IFCPLATE('1vosNDOMf4AwnkPXNYQvBP',#417,'201-Door-Glass',$,'Glass',#423,#425,$,.CURTAIN_PANEL.);
#419=IFCCARTESIANPOINT((2.3599999999999999,0.,0.));
#420=IFCDIRECTION((0.,0.,1.));
#421=IFCDIRECTION((0.,1.,0.));
#422=IFCAXIS2PLACEMENT3D(#419,#420,#421);
#423=IFCLOCALPLACEMENT(#43,#422);
#424=IFCSHAPEREPRESENTATION(#16,'Body','SweptSolid',(#391));
#425=IFCPRODUCTDEFINITIONSHAPE($,$,(#424));
#426=IFCSTYLEDITEM(#391,(#395),$);
#427=IFCOWNERHISTORY(#3,#4,.READWRITE.,.MODIFIED.,1789716370,#3,#4,1789716370);
#428=IFCRELASSOCIATESMATERIAL('29nAFKB$XCJfM8c5agj_ZQ',#427,$,$,(#418,#536),#399);
#429=IFCOWNERHISTORY(#3,#4,.READWRITE.,.MODIFIED.,1789716370,#3,#4,1789716370);
#430=IFCWINDOW('31b_kv7lLBT9$sywxBdInS',#429,'201-Window',$,$,#435,#528,$,$,$,.WINDOW.,$,$);
#431=IFCCARTESIANPOINT((2.3599999999999999,0.,0.));
#432=IFCDIRECTION((0.,0.,1.));
#433=IFCDIRECTION((0.,1.,0.));
#434=IFCAXIS2PLACEMENT3D(#431,#432,#433);
#435=IFCLOCALPLACEMENT(#43,#434);
#436=IFCCARTESIANPOINT((0.40000000000000002,-0.,0.));
#437=IFCCARTESIANPOINT((0.5,-0.,0.));
#438=IFCCARTESIANPOINT((0.5,0.19800000000000001,0.));
#439=IFCCARTESIANPOINT((0.40000000000000002,0.19800000000000001,0.));
#440=IFCCARTESIANPOINT((0.40000000000000002,-0.,0.));
#441=IFCPOLYLINE((#436,#437,#438,#439,#440));
#442=IFCARBITRARYCLOSEDPROFILEDEF(.AREA.,$,#441);
#443=IFCCARTESIANPOINT((0.,0.,0.90000000000000002));
#444=IFCDIRECTION((0.,0.,1.));
#445=IFCDIRECTION((1.,0.,0.));
#446=IFCAXIS2PLACEMENT3D(#443,#444,#445);
#447=IFCDIRECTION((0.,0.,1.));
#448=IFCEXTRUDEDAREASOLID(#442,#446,#447,1.3999999999999999);
#449=IFCCARTESIANPOINT((1.5,-0.,0.));
#450=IFCCARTESIANPOINT((1.6000000000000001,-0.,0.));
#451=IFCCARTESIANPOINT((1.6000000000000001,0.19800000000000001,0.));
#452=IFCCARTESIANPOINT((1.5,0.19800000000000001,0.));
#453=IFCCARTESIANPOINT((1.5,-0.,0.));
#454=IFCPOLYLINE((#449,#450,#451,#452,#453));
#455=IFCARBITRARYCLOSEDPROFILEDEF(.AREA.,$,#454);
#456=IFCCARTESIANPOINT((0.,0.,0.90000000000000002));
#457=IFCDIRECTION((0.,0.,1.));
#458=IFCDIRECTION((1.,0.,0.));
#459=IFCAXIS2PLACEMENT3D(#456,#457,#458);
#460=IFCDIRECTION((0.,0.,1.));
#461=IFCEXTRUDEDAREASOLID(#455,#459,#460,1.3999999999999999);
#462=IFCCARTESIANPOINT((0.5,-0.,0.));
#463=IFCCARTESIANPOINT((1.5,-0.,0.));
#464=IFCCARTESIANPOINT((1.5,0.19800000000000001,0.));
#465=IFCCARTESIANPOINT((0.5,0.19800000000000001,0.));
#466=IFCCARTESIANPOINT((0.5,-0.,0.));
#467=IFCPOLYLINE((#462,#463,#464,#465,#466));
#468=IFCARBITRARYCLOSEDPROFILEDEF(.AREA.,$,#467);
#469=IFCCARTESIANPOINT((0.,0.,2.1999999999999997));
#470=IFCDIRECTION((0.,0.,1.));
#471=IFCDIRECTION((1.,0.,0.));
#472=IFCAXIS2PLACEMENT3D(#469,#470,#471);
#473=IFCDIRECTION((0.,0.,1.));
#474=IFCEXTRUDEDAREASOLID(#468,#472,#473,0.10000000000000009);
#475=IFCCARTESIANPOINT((0.5,-0.,0.));
#476=IFCCARTESIANPOINT((1.5,-0.,0.));
#477=IFCCARTESIANPOINT((1.5,0.19800000000000001,0.));
#478=IFCCARTESIANPOINT((0.5,0.19800000000000001,0.));
#479=IFCCARTESIANPOINT((0.5,-0.,0.));
#480=IFCPOLYLINE((#475,#476,#477,#478,#479));
#481=IFCARBITRARYCLOSEDPROFILEDEF(.AREA.,$,#480);
#482=IFCCARTESIANPOINT((0.,0.,0.90000000000000002));
#483=IFCDIRECTION((0.,0.,1.));
#484=IFCDIRECTION((1.,0.,0.));
#485=IFCAXIS2PLACEMENT3D(#482,#483,#484);
#486=IFCDIRECTION((0.,0.,1.));
#487=IFCEXTRUDEDAREASOLID(#481,#485,#486,0.099999999999999978);
#488=IFCCARTESIANPOINT((0.95999999999999996,-0.,0.));
#489=IFCCARTESIANPOINT((1.04,-0.,0.));
#490=IFCCARTESIANPOINT((1.04,0.19800000000000001,0.));
#491=IFCCARTESIANPOINT((0.95999999999999996,0.19800000000000001,0.));
#492=IFCCARTESIANPOINT((0.95999999999999996,-0.,0.));
#493=IFCPOLYLINE((#488,#489,#490,#491,#492));
#494=IFCARBITRARYCLOSEDPROFILEDEF(.AREA.,$,#493);
#495=IFCCARTESIANPOINT((0.,0.,1.));
#496=IFCDIRECTION((0.,0.,1.));
#497=IFCDIRECTION((1.,0.,0.));
#498=IFCAXIS2PLACEMENT3D(#495,#496,#497);
#499=IFCDIRECTION((0.,0.,1.));
#500=IFCEXTRUDEDAREASOLID(#494,#498,#499,1.1999999999999997);
#501=IFCCARTESIANPOINT((0.5,0.014999999999999999,0.));
#502=IFCCARTESIANPOINT((0.95999999999999996,0.014999999999999999,0.));
#503=IFCCARTESIANPOINT((0.95999999999999996,0.055,0.));
#504=IFCCARTESIANPOINT((0.5,0.055,0.));
#505=IFCCARTESIANPOINT((0.5,0.014999999999999999,0.));
#506=IFCPOLYLINE((#501,#502,#503,#504,#505));
#507=IFCARBITRARYCLOSEDPROFILEDEF(.AREA.,$,#506);
#508=IFCCARTESIANPOINT((0.,0.,1.));
#509=IFCDIRECTION((0.,0.,1.));
#510=IFCDIRECTION((1.,0.,0.));
#511=IFCAXIS2PLACEMENT3D(#508,#509,#510);
#512=IFCDIRECTION((0.,0.,1.));
#513=IFCEXTRUDEDAREASOLID(#507,#511,#512,1.1999999999999997);
#514=IFCCARTESIANPOINT((1.04,0.014999999999999999,0.));
#515=IFCCARTESIANPOINT((1.5,0.014999999999999999,0.));
#516=IFCCARTESIANPOINT((1.5,0.055,0.));
#517=IFCCARTESIANPOINT((1.04,0.055,0.));
#518=IFCCARTESIANPOINT((1.04,0.014999999999999999,0.));
#519=IFCPOLYLINE((#514,#515,#516,#517,#518));
#520=IFCARBITRARYCLOSEDPROFILEDEF(.AREA.,$,#519);
#521=IFCCARTESIANPOINT((0.,0.,1.));
#522=IFCDIRECTION((0.,0.,1.));
#523=IFCDIRECTION((1.,0.,0.));
#524=IFCAXIS2PLACEMENT3D(#521,#522,#523);
#525=IFCDIRECTION((0.,0.,1.));
#526=IFCEXTRUDEDAREASOLID(#520,#524,#525,1.1999999999999997);
#527=IFCSHAPEREPRESENTATION(#16,'Body','SweptSolid',(#448,#461,#474,#487,#500));
#528=IFCPRODUCTDEFINITIONSHAPE($,$,(#527));
#529=IFCSTYLEDITEM(#448,(#392),$);
#530=IFCSTYLEDITEM(#461,(#392),$);
#531=IFCSTYLEDITEM(#474,(#392),$);
#532=IFCSTYLEDITEM(#487,(#392),$);
#533=IFCSTYLEDITEM(#500,(#392),$);
#534=IFCRELFILLSELEMENT('3eeLjKpcj4mPqtlrUEn4Mr',$,$,$,#208,#430);
#535=IFCOWNERHISTORY(#3,#4,.READWRITE.,.MODIFIED.,1789716370,#3,#4,1789716370);
#536=IFCPLATE('0HX64k8OX7FBMSJw6Tz$_4',#535,'201-Window-Glass',$,'Glass',#541,#543,$,.CURTAIN_PANEL.);
#537=IFCCARTESIANPOINT((2.3599999999999999,0.,0.));
#538=IFCDIRECTION((0.,0.,1.));
#539=IFCDIRECTION((0.,1.,0.));
#540=IFCAXIS2PLACEMENT3D(#537,#538,#539);
#541=IFCLOCALPLACEMENT(#43,#540);
#542=IFCSHAPEREPRESENTATION(#16,'Body','SweptSolid',(#513,#526));
#543=IFCPRODUCTDEFINITIONSHAPE($,$,(#542));
#544=IFCSTYLEDITEM(#513,(#395),$);
#545=IFCSTYLEDITEM(#526,(#395),$);
#546=IFCOWNERHISTORY(#3,#4,.READWRITE.,.ADDED.,1789716370,#3,#4,1789716370);
#547=IFCELEMENTQUANTITY('3BObDawR5DMf_mYIIapg$s',#546,'Qto_DoorBaseQuantities',$,'BaseQuantities',(#550));
#548=IFCOWNERHISTORY(#3,#4,.READWRITE.,.ADDED.,1789716370,#3,#4,1789716370);
#549=IFCRELDEFINESBYPROPERTIES('0pFDqrOKrCJBepEkTbZiZV',#548,$,$,(#295),#547);
#550=IFCQUANTITYAREA('Area',$,$,1.,$);
#551=IFCOWNERHISTORY(#3,#4,.READWRITE.,.ADDED.,1789716370,#3,#4,1789716370);
#552=IFCPROPERTYSET('2TdbitmurFgxRxGIDIaj33',#551,'Pset_DoorCommon',$,(#555,#556,#557,#558,#559,#560));
#553=IFCOWNERHISTORY(#3,#4,.READWRITE.,.ADDED.,1789716370,#3,#4,1789716370);
#554=IFCRELDEFINESBYPROPERTIES('3vZTHSDYb3tADFrEBbgInR',#553,$,$,(#295),#552);
#555=IFCPROPERTYSINGLEVALUE('Reference',$,IFCIDENTIFIER('AT-01'),$);
#556=IFCPROPERTYSINGLEVALUE('IsExternal',$,IFCBOOLEAN(.T.),$);
#557=IFCPROPERTYSINGLEVALUE('Status',$,IFCLABEL('NEW'),$);
#558=IFCPROPERTYSINGLEVALUE('FireRating',$,IFCLABEL('EI 30'),$);
#559=IFCPROPERTYSINGLEVALUE('AcousticRating',$,IFCLABEL('AcousticRating'),$);
#560=IFCPROPERTYSINGLEVALUE('ThermalTransmittance',$,IFCTHERMALTRANSMITTANCEMEASURE(1.2),$);
#561=IFCOWNERHISTORY(#3,#4,.READWRITE.,.ADDED.,1789716370,#3,#4,1789716370);
#562=IFCPROPERTYSET('39eAIiJ9542ecCBcxWl9X4',#561,'ePset_Cost',$,(#565,#566,#567,#568,#569,#570,#571,#572));
#563=IFCOWNERHISTORY(#3,#4,.READWRITE.,.ADDED.,1789716370,#3,#4,1789716370);
#564=IFCRELDEFINESBYPROPERTIES('1D0CR9ey95seql$1GvcZPp',#563,$,$,(#295),#562);
#565=IFCPROPERTYSINGLEVALUE('CostInterface',$,IFCLABEL('CostInterface'),$);
#566=IFCPROPERTYSINGLEVALUE('AwardInterface',$,IFCLABEL('101'),$);
#567=IFCPROPERTYSINGLEVALUE('PlanningInterface',$,IFCLABEL('001'),$);
#568=IFCPROPERTYSINGLEVALUE('eBKP',$,IFCLABEL('E03.02'),$);
#569=IFCPROPERTYSINGLEVALUE('CalculatedType',$,IFCLABEL('T\X2\00FC\X0\r_Aussen_1F_B=0.90m_H=2.10m_1.2'),$);
#570=IFCPROPERTYSINGLEVALUE('ProductClass',$,IFCLABEL('DCP-WOOD'),$);
#571=IFCPROPERTYSINGLEVALUE('UnitPrice',$,IFCLABEL('UnitPrice'),$);
#572=IFCPROPERTYSINGLEVALUE('ReferenceQuantity',$,IFCLABEL('ReferenceQuantity'),$);
#573=IFCOWNERHISTORY(#3,#4,.READWRITE.,.ADDED.,1789716370,#3,#4,1789716370);
#574=IFCPROPERTYSET('1Cw$F4WI940h86qTFPEiHp',#573,'ePset_Circularity',$,(#577,#578,#579,#580,#581));
#575=IFCOWNERHISTORY(#3,#4,.READWRITE.,.ADDED.,1789716370,#3,#4,1789716370);
#576=IFCRELDEFINESBYPROPERTIES('0$gaGG4Nf8zfJWePAbZCAI',#575,$,$,(#295),#574);
#577=IFCPROPERTYSINGLEVALUE('Connection',$,IFCTEXT('DryConnection'),$);
#578=IFCPROPERTYSINGLEVALUE('Accessibility',$,IFCTEXT('Accessible'),$);
#579=IFCPROPERTYSINGLEVALUE('Reuse',$,IFCREAL(1.),$);
#580=IFCPROPERTYSINGLEVALUE('MaterialOrProductId',$,IFCTEXT('MaterialOrProductId'),$);
#581=IFCPROPERTYSINGLEVALUE('WasteCodes',$,IFCTEXT('WasteCodes'),$);
#582=IFCOWNERHISTORY(#3,#4,.READWRITE.,.ADDED.,1789716370,#3,#4,1789716370);
#583=IFCDOORTYPE('1zBxJxgar03O2wTWkWzm5K',#582,'AT-01 Type',$,$,(#587),$,$,$,.NOTDEFINED.,.NOTDEFINED.,$,$);
#584=IFCOWNERHISTORY(#3,#4,.READWRITE.,.ADDED.,1789716370,#3,#4,1789716370);
#585=IFCRELDEFINESBYTYPE('0a72NHb9bDLeV4GyoPFyWx',#584,$,$,(#295),#583);
#586=IFCOWNERHISTORY(#3,#4,.READWRITE.,.ADDED.,1789716370,#3,#4,1789716370);
#587=IFCPROPERTYSET('1M00dGMo19H9XBKIm6by0l',#586,'Pset_ManufacturerTypeInformation',$,(#588));
#588=IFCPROPERTYSINGLEVALUE('GlobalTradeItemNumber',$,IFCIDENTIFIER('07612345000015'),$);
#589=IFCOWNERHISTORY(#3,#4,.READWRITE.,.ADDED.,1789716370,#3,#4,1789716370);
#590=IFCPROPERTYSET('18THGbm_n9OwWtw97KTvyz',#589,'ePset_HazardousMaterial',$,(#593,#594));
#591=IFCOWNERHISTORY(#3,#4,.READWRITE.,.ADDED.,1789716370,#3,#4,1789716370);
#592=IFCRELDEFINESBYPROPERTIES('2pZxP3fDf5YANsHNuEdSuK',#591,$,$,(#295),#590);
#593=IFCPROPERTYSINGLEVALUE('HazardType',$,IFCTEXT('Asbestos'),$);
#594=IFCPROPERTYSINGLEVALUE('RemovalCategory',$,IFCTEXT('Immediate'),$);
#595=IFCOWNERHISTORY(#3,#4,.READWRITE.,.ADDED.,1789716370,#3,#4,1789716370);
#596=IFCPROPERTYSET('27EOX9S812n8UFFf4Lu_mh',#595,'Pset_ManufacturerOccurrence',$,(#599));
#597=IFCOWNERHISTORY(#3,#4,.READWRITE.,.ADDED.,1789716370,#3,#4,1789716370);
#598=IFCRELDEFINESBYPROPERTIES('0AVCtb3Tj6_BAhaY3vFCJw',#597,$,$,(#295),#596);
#599=IFCPROPERTYSINGLEVALUE('SerialNumber',$,IFCIDENTIFIER('SN-000001'),$);
ENDSEC;
END-ISO-10303-21;
