ISO-10303-21;
HEADER;
FILE_DESCRIPTION(('ViewDefinition[DesignTransferView]'),'2;1');
FILE_NAME('/dev/null','2026-09-16T05:31:03+02:00',(''),(''),'IfcOpenShell 0.8.5','IfcOpenShell 0.8.5','Nobody');
FILE_SCHEMA(('IFC4'));
ENDSEC;
DATA;
#1=IFCPERSON('catalog-pipeline','Pipeline','Catalog',$,$,$,$,$);
#2=IFCORGANIZATION('pragmaticBIM','pragmaticBIM',$,$,$);
#3=IFCPERSONANDORGANIZATION(#1,#2,$);
#4=IFCAPPLICATION(#2,'0.1.0','Catalog IFC Pipeline','catalog-ifc-pipeline');
#5=IFCOWNERHISTORY(#3,#4,.READWRITE.,.ADDED.,1789529463,#3,#4,1789529463);
#6=IFCPROJECT('0tUAgV3T1C1ftGFGH3KWKP',#5,'building-law-parcel-01',$,$,$,$,(#15),#10);
#7=IFCSIUNIT(*,.LENGTHUNIT.,$,.METRE.);
#8=IFCSIUNIT(*,.AREAUNIT.,$,.SQUARE_METRE.);
#9=IFCSIUNIT(*,.VOLUMEUNIT.,$,.CUBIC_METRE.);
#10=IFCUNITASSIGNMENT((#8,#9,#7));
#11=IFCCARTESIANPOINT((0.,0.,0.));
#12=IFCDIRECTION((0.,0.,1.));
#13=IFCDIRECTION((1.,0.,0.));
#14=IFCAXIS2PLACEMENT3D(#11,#12,#13);
#15=IFCGEOMETRICREPRESENTATIONCONTEXT($,'Model',3,1.0000000000000001E-05,#14,$);
#16=IFCGEOMETRICREPRESENTATIONSUBCONTEXT('Body','Model',*,*,*,*,#15,$,.MODEL_VIEW.,$);
#17=IFCOWNERHISTORY(#3,#4,.READWRITE.,.MODIFIED.,1789529463,#3,#4,1789529463);
#18=IFCSITE('3yjGnGcojCzvoAIzaqQ1CI',#17,'Site',$,$,#48,#283,$,$,$,$,$,$,$);
#19=IFCOWNERHISTORY(#3,#4,.READWRITE.,.MODIFIED.,1789529463,#3,#4,1789529463);
#20=IFCBUILDING('11PAm4kXn7muU6$y5YHDYV',#19,'Building',$,$,#53,$,$,$,$,$,$);
#21=IFCOWNERHISTORY(#3,#4,.READWRITE.,.ADDED.,1789529463,#3,#4,1789529463);
#22=IFCRELAGGREGATES('2cmpI3hAz3RAiGkpWF8_6t',#21,$,$,#6,(#18));
#23=IFCOWNERHISTORY(#3,#4,.READWRITE.,.ADDED.,1789529463,#3,#4,1789529463);
#24=IFCRELAGGREGATES('17HoZ7Gg1DdfOERnstHMcw',#23,$,$,#18,(#20));
#35=IFCOWNERHISTORY(#3,#4,.READWRITE.,.MODIFIED.,1789529463,#3,#4,1789529463);
#36=IFCBUILDINGSTOREY('3u5Sd4BIT7GQ9jJeV$5PA2',#35,'Level 0',$,$,#43,$,$,$,0.);
#37=IFCOWNERHISTORY(#3,#4,.READWRITE.,.ADDED.,1789529463,#3,#4,1789529463);
#38=IFCRELAGGREGATES('1TDbXdyNXAxByLEGUH2xs4',#37,$,$,#20,(#36));
#39=IFCCARTESIANPOINT((0.,0.,0.));
#40=IFCDIRECTION((0.,0.,1.));
#41=IFCDIRECTION((1.,0.,0.));
#42=IFCAXIS2PLACEMENT3D(#39,#40,#41);
#43=IFCLOCALPLACEMENT(#53,#42);
#44=IFCCARTESIANPOINT((0.,0.,0.));
#45=IFCDIRECTION((0.,0.,1.));
#46=IFCDIRECTION((1.,0.,0.));
#47=IFCAXIS2PLACEMENT3D(#44,#45,#46);
#48=IFCLOCALPLACEMENT($,#47);
#49=IFCCARTESIANPOINT((0.,0.,0.));
#50=IFCDIRECTION((0.,0.,1.));
#51=IFCDIRECTION((1.,0.,0.));
#52=IFCAXIS2PLACEMENT3D(#49,#50,#51);
#53=IFCLOCALPLACEMENT(#48,#52);
#54=IFCCARTESIANPOINT((0.,0.,0.));
#55=IFCCARTESIANPOINT((13.75,0.,0.34999999999999998));
#56=IFCCARTESIANPOINT((27.5,0.,0.90000000000000002));
#57=IFCCARTESIANPOINT((41.25,0.,1.45));
#58=IFCCARTESIANPOINT((55.,0.,1.8500000000000001));
#59=IFCCARTESIANPOINT((0.,13.333333333333334,-0.34999999999999998));
#60=IFCCARTESIANPOINT((13.75,13.333333333333334,0.25));
#61=IFCCARTESIANPOINT((27.5,13.333333333333334,1.1499999999999999));
#62=IFCCARTESIANPOINT((41.25,13.333333333333334,2.1499999999999999));
#63=IFCCARTESIANPOINT((55.,13.333333333333334,2.75));
#64=IFCCARTESIANPOINT((0.,26.666666666666668,-0.59999999999999998));
#65=IFCCARTESIANPOINT((13.75,26.666666666666668,-0.050000000000000003));
#66=IFCCARTESIANPOINT((27.5,26.666666666666668,0.90000000000000002));
#67=IFCCARTESIANPOINT((41.25,26.666666666666668,1.8999999999999999));
#68=IFCCARTESIANPOINT((55.,26.666666666666668,2.5));
#69=IFCCARTESIANPOINT((0.,40.,-0.25));
#70=IFCCARTESIANPOINT((13.75,40.,0.20000000000000001));
#71=IFCCARTESIANPOINT((27.5,40.,0.69999999999999996));
#72=IFCCARTESIANPOINT((41.25,40.,1.25));
#73=IFCCARTESIANPOINT((55.,40.,1.6499999999999999));
#74=IFCCARTESIANPOINT((0.,0.,-0.29999999999999999));
#75=IFCCARTESIANPOINT((13.75,0.,0.049999999999999989));
#76=IFCCARTESIANPOINT((27.5,0.,0.60000000000000009));
#77=IFCCARTESIANPOINT((41.25,0.,1.1499999999999999));
#78=IFCCARTESIANPOINT((55.,0.,1.55));
#79=IFCCARTESIANPOINT((0.,13.333333333333334,-0.64999999999999991));
#80=IFCCARTESIANPOINT((13.75,13.333333333333334,-0.049999999999999989));
#81=IFCCARTESIANPOINT((27.5,13.333333333333334,0.84999999999999987));
#82=IFCCARTESIANPOINT((41.25,13.333333333333334,1.8499999999999999));
#83=IFCCARTESIANPOINT((55.,13.333333333333334,2.4500000000000002));
#84=IFCCARTESIANPOINT((0.,26.666666666666668,-0.89999999999999991));
#85=IFCCARTESIANPOINT((13.75,26.666666666666668,-0.34999999999999998));
#86=IFCCARTESIANPOINT((27.5,26.666666666666668,0.60000000000000009));
#87=IFCCARTESIANPOINT((41.25,26.666666666666668,1.5999999999999999));
#88=IFCCARTESIANPOINT((55.,26.666666666666668,2.2000000000000002));
#89=IFCCARTESIANPOINT((0.,40.,-0.55000000000000004));
#90=IFCCARTESIANPOINT((13.75,40.,-0.099999999999999978));
#91=IFCCARTESIANPOINT((27.5,40.,0.39999999999999997));
#92=IFCCARTESIANPOINT((41.25,40.,0.94999999999999996));
#93=IFCCARTESIANPOINT((55.,40.,1.3499999999999999));
#94=IFCPOLYLOOP((#54,#55,#60));
#95=IFCFACEOUTERBOUND(#94,.T.);
#96=IFCFACE((#95));
#97=IFCPOLYLOOP((#54,#60,#59));
#98=IFCFACEOUTERBOUND(#97,.T.);
#99=IFCFACE((#98));
#100=IFCPOLYLOOP((#74,#80,#75));
#101=IFCFACEOUTERBOUND(#100,.T.);
#102=IFCFACE((#101));
#103=IFCPOLYLOOP((#74,#79,#80));
#104=IFCFACEOUTERBOUND(#103,.T.);
#105=IFCFACE((#104));
#106=IFCPOLYLOOP((#55,#56,#61));
#107=IFCFACEOUTERBOUND(#106,.T.);
#108=IFCFACE((#107));
#109=IFCPOLYLOOP((#55,#61,#60));
#110=IFCFACEOUTERBOUND(#109,.T.);
#111=IFCFACE((#110));
#112=IFCPOLYLOOP((#75,#81,#76));
#113=IFCFACEOUTERBOUND(#112,.T.);
#114=IFCFACE((#113));
#115=IFCPOLYLOOP((#75,#80,#81));
#116=IFCFACEOUTERBOUND(#115,.T.);
#117=IFCFACE((#116));
#118=IFCPOLYLOOP((#56,#57,#62));
#119=IFCFACEOUTERBOUND(#118,.T.);
#120=IFCFACE((#119));
#121=IFCPOLYLOOP((#56,#62,#61));
#122=IFCFACEOUTERBOUND(#121,.T.);
#123=IFCFACE((#122));
#124=IFCPOLYLOOP((#76,#82,#77));
#125=IFCFACEOUTERBOUND(#124,.T.);
#126=IFCFACE((#125));
#127=IFCPOLYLOOP((#76,#81,#82));
#128=IFCFACEOUTERBOUND(#127,.T.);
#129=IFCFACE((#128));
#130=IFCPOLYLOOP((#57,#58,#63));
#131=IFCFACEOUTERBOUND(#130,.T.);
#132=IFCFACE((#131));
#133=IFCPOLYLOOP((#57,#63,#62));
#134=IFCFACEOUTERBOUND(#133,.T.);
#135=IFCFACE((#134));
#136=IFCPOLYLOOP((#77,#83,#78));
#137=IFCFACEOUTERBOUND(#136,.T.);
#138=IFCFACE((#137));
#139=IFCPOLYLOOP((#77,#82,#83));
#140=IFCFACEOUTERBOUND(#139,.T.);
#141=IFCFACE((#140));
#142=IFCPOLYLOOP((#59,#60,#65));
#143=IFCFACEOUTERBOUND(#142,.T.);
#144=IFCFACE((#143));
#145=IFCPOLYLOOP((#59,#65,#64));
#146=IFCFACEOUTERBOUND(#145,.T.);
#147=IFCFACE((#146));
#148=IFCPOLYLOOP((#79,#85,#80));
#149=IFCFACEOUTERBOUND(#148,.T.);
#150=IFCFACE((#149));
#151=IFCPOLYLOOP((#79,#84,#85));
#152=IFCFACEOUTERBOUND(#151,.T.);
#153=IFCFACE((#152));
#154=IFCPOLYLOOP((#60,#61,#66));
#155=IFCFACEOUTERBOUND(#154,.T.);
#156=IFCFACE((#155));
#157=IFCPOLYLOOP((#60,#66,#65));
#158=IFCFACEOUTERBOUND(#157,.T.);
#159=IFCFACE((#158));
#160=IFCPOLYLOOP((#80,#86,#81));
#161=IFCFACEOUTERBOUND(#160,.T.);
#162=IFCFACE((#161));
#163=IFCPOLYLOOP((#80,#85,#86));
#164=IFCFACEOUTERBOUND(#163,.T.);
#165=IFCFACE((#164));
#166=IFCPOLYLOOP((#61,#62,#67));
#167=IFCFACEOUTERBOUND(#166,.T.);
#168=IFCFACE((#167));
#169=IFCPOLYLOOP((#61,#67,#66));
#170=IFCFACEOUTERBOUND(#169,.T.);
#171=IFCFACE((#170));
#172=IFCPOLYLOOP((#81,#87,#82));
#173=IFCFACEOUTERBOUND(#172,.T.);
#174=IFCFACE((#173));
#175=IFCPOLYLOOP((#81,#86,#87));
#176=IFCFACEOUTERBOUND(#175,.T.);
#177=IFCFACE((#176));
#178=IFCPOLYLOOP((#62,#63,#68));
#179=IFCFACEOUTERBOUND(#178,.T.);
#180=IFCFACE((#179));
#181=IFCPOLYLOOP((#62,#68,#67));
#182=IFCFACEOUTERBOUND(#181,.T.);
#183=IFCFACE((#182));
#184=IFCPOLYLOOP((#82,#88,#83));
#185=IFCFACEOUTERBOUND(#184,.T.);
#186=IFCFACE((#185));
#187=IFCPOLYLOOP((#82,#87,#88));
#188=IFCFACEOUTERBOUND(#187,.T.);
#189=IFCFACE((#188));
#190=IFCPOLYLOOP((#64,#65,#70));
#191=IFCFACEOUTERBOUND(#190,.T.);
#192=IFCFACE((#191));
#193=IFCPOLYLOOP((#64,#70,#69));
#194=IFCFACEOUTERBOUND(#193,.T.);
#195=IFCFACE((#194));
#196=IFCPOLYLOOP((#84,#90,#85));
#197=IFCFACEOUTERBOUND(#196,.T.);
#198=IFCFACE((#197));
#199=IFCPOLYLOOP((#84,#89,#90));
#200=IFCFACEOUTERBOUND(#199,.T.);
#201=IFCFACE((#200));
#202=IFCPOLYLOOP((#65,#66,#71));
#203=IFCFACEOUTERBOUND(#202,.T.);
#204=IFCFACE((#203));
#205=IFCPOLYLOOP((#65,#71,#70));
#206=IFCFACEOUTERBOUND(#205,.T.);
#207=IFCFACE((#206));
#208=IFCPOLYLOOP((#85,#91,#86));
#209=IFCFACEOUTERBOUND(#208,.T.);
#210=IFCFACE((#209));
#211=IFCPOLYLOOP((#85,#90,#91));
#212=IFCFACEOUTERBOUND(#211,.T.);
#213=IFCFACE((#212));
#214=IFCPOLYLOOP((#66,#67,#72));
#215=IFCFACEOUTERBOUND(#214,.T.);
#216=IFCFACE((#215));
#217=IFCPOLYLOOP((#66,#72,#71));
#218=IFCFACEOUTERBOUND(#217,.T.);
#219=IFCFACE((#218));
#220=IFCPOLYLOOP((#86,#92,#87));
#221=IFCFACEOUTERBOUND(#220,.T.);
#222=IFCFACE((#221));
#223=IFCPOLYLOOP((#86,#91,#92));
#224=IFCFACEOUTERBOUND(#223,.T.);
#225=IFCFACE((#224));
#226=IFCPOLYLOOP((#67,#68,#73));
#227=IFCFACEOUTERBOUND(#226,.T.);
#228=IFCFACE((#227));
#229=IFCPOLYLOOP((#67,#73,#72));
#230=IFCFACEOUTERBOUND(#229,.T.);
#231=IFCFACE((#230));
#232=IFCPOLYLOOP((#87,#93,#88));
#233=IFCFACEOUTERBOUND(#232,.T.);
#234=IFCFACE((#233));
#235=IFCPOLYLOOP((#87,#92,#93));
#236=IFCFACEOUTERBOUND(#235,.T.);
#237=IFCFACE((#236));
#238=IFCPOLYLOOP((#54,#74,#75,#55));
#239=IFCFACEOUTERBOUND(#238,.T.);
#240=IFCFACE((#239));
#241=IFCPOLYLOOP((#55,#75,#76,#56));
#242=IFCFACEOUTERBOUND(#241,.T.);
#243=IFCFACE((#242));
#244=IFCPOLYLOOP((#56,#76,#77,#57));
#245=IFCFACEOUTERBOUND(#244,.T.);
#246=IFCFACE((#245));
#247=IFCPOLYLOOP((#57,#77,#78,#58));
#248=IFCFACEOUTERBOUND(#247,.T.);
#249=IFCFACE((#248));
#250=IFCPOLYLOOP((#58,#78,#83,#63));
#251=IFCFACEOUTERBOUND(#250,.T.);
#252=IFCFACE((#251));
#253=IFCPOLYLOOP((#63,#83,#88,#68));
#254=IFCFACEOUTERBOUND(#253,.T.);
#255=IFCFACE((#254));
#256=IFCPOLYLOOP((#68,#88,#93,#73));
#257=IFCFACEOUTERBOUND(#256,.T.);
#258=IFCFACE((#257));
#259=IFCPOLYLOOP((#73,#93,#92,#72));
#260=IFCFACEOUTERBOUND(#259,.T.);
#261=IFCFACE((#260));
#262=IFCPOLYLOOP((#72,#92,#91,#71));
#263=IFCFACEOUTERBOUND(#262,.T.);
#264=IFCFACE((#263));
#265=IFCPOLYLOOP((#71,#91,#90,#70));
#266=IFCFACEOUTERBOUND(#265,.T.);
#267=IFCFACE((#266));
#268=IFCPOLYLOOP((#70,#90,#89,#69));
#269=IFCFACEOUTERBOUND(#268,.T.);
#270=IFCFACE((#269));
#271=IFCPOLYLOOP((#69,#89,#84,#64));
#272=IFCFACEOUTERBOUND(#271,.T.);
#273=IFCFACE((#272));
#274=IFCPOLYLOOP((#64,#84,#79,#59));
#275=IFCFACEOUTERBOUND(#274,.T.);
#276=IFCFACE((#275));
#277=IFCPOLYLOOP((#59,#79,#74,#54));
#278=IFCFACEOUTERBOUND(#277,.T.);
#279=IFCFACE((#278));
#280=IFCCLOSEDSHELL((#96,#99,#102,#105,#108,#111,#114,#117,#120,#123,#126,#129,#132,#135,#138,#141,#144,#147,#150,#153,#156,#159,#162,#165,#168,#171,#174,#177,#180,#183,#186,#189,#192,#195,#198,#201,#204,#207,#210,#213,#216,#219,#222,#225,#228,#231,#234,#237,#240,#243,#246,#249,#252,#255,#258,#261,#264,#267,#270,#273,#276,#279));
#281=IFCFACETEDBREP(#280);
#282=IFCSHAPEREPRESENTATION(#16,'Body','Brep',(#281));
#283=IFCPRODUCTDEFINITIONSHAPE($,$,(#282));
#284=IFCOWNERHISTORY(#3,#4,.READWRITE.,.MODIFIED.,1789529463,#3,#4,1789529463);
#285=IFCBUILDINGELEMENTPROXY('3sJOHZqbHEmgSO07n9k90u',#284,'1234',$,'Baurechtliche Parzelle',#292,#309,$,.USERDEFINED.);
#286=IFCOWNERHISTORY(#3,#4,.READWRITE.,.MODIFIED.,1789529463,#3,#4,1789529463);
#287=IFCRELCONTAINEDINSPATIALSTRUCTURE('2$z$JL2TX4l827Z5RZlk5P',#286,$,$,(#285,#347,#316),#18);
#288=IFCCARTESIANPOINT((0.,0.,-10.));
#289=IFCDIRECTION((0.,0.,1.));
#290=IFCDIRECTION((1.,0.,0.));
#291=IFCAXIS2PLACEMENT3D(#288,#289,#290);
#292=IFCLOCALPLACEMENT(#48,#291);
#293=IFCCARTESIANPOINT((5.,7.2000000000000002,0.));
#294=IFCCARTESIANPOINT((20.,5.,0.));
#295=IFCCARTESIANPOINT((18.199999999999999,15.200000000000001,0.));
#296=IFCCARTESIANPOINT((21.199999999999999,25.100000000000001,0.));
#297=IFCCARTESIANPOINT((20.800000000000001,35.,0.));
#298=IFCCARTESIANPOINT((7.,33.299999999999997,0.));
#299=IFCCARTESIANPOINT((5.,7.2000000000000002,0.));
#300=IFCPOLYLINE((#293,#294,#295,#296,#297,#298,#299));
#301=IFCARBITRARYCLOSEDPROFILEDEF(.AREA.,$,#300);
#302=IFCCARTESIANPOINT((0.,0.,0.));
#303=IFCDIRECTION((0.,0.,1.));
#304=IFCDIRECTION((1.,0.,0.));
#305=IFCAXIS2PLACEMENT3D(#302,#303,#304);
#306=IFCDIRECTION((0.,0.,1.));
#307=IFCEXTRUDEDAREASOLID(#301,#305,#306,20.);
#308=IFCSHAPEREPRESENTATION(#16,'Body','SweptSolid',(#307));
#309=IFCPRODUCTDEFINITIONSHAPE($,$,(#308));
#310=IFCOWNERHISTORY(#3,#4,.READWRITE.,.ADDED.,1789529463,#3,#4,1789529463);
#311=IFCELEMENTQUANTITY('1Ete1AlWH2whRj7IXSXpBF',#310,'Qto_BuildingElementProxyBaseQuantities',$,'BaseQuantities',(#314));
#312=IFCOWNERHISTORY(#3,#4,.READWRITE.,.ADDED.,1789529463,#3,#4,1789529463);
#313=IFCRELDEFINESBYPROPERTIES('3EE4j7SdDCoQimO4GOjwa2',#312,$,$,(#285),#311);
#314=IFCQUANTITYVOLUME('GrossVolume',$,$,7800.3999999999996,$);
#315=IFCOWNERHISTORY(#3,#4,.READWRITE.,.MODIFIED.,1789529463,#3,#4,1789529463);
#316=IFCBUILDINGELEMENTPROXY('36TJn3$ZD0xB_jWsaqhBV$',#315,'1235',$,'Baurechtliche Parzelle',#321,#340,$,.USERDEFINED.);
#317=IFCCARTESIANPOINT((0.,0.,-10.));
#318=IFCDIRECTION((0.,0.,1.));
#319=IFCDIRECTION((1.,0.,0.));
#320=IFCAXIS2PLACEMENT3D(#317,#318,#319);
#321=IFCLOCALPLACEMENT(#48,#320);
#322=IFCCARTESIANPOINT((20.,5.,0.));
#323=IFCCARTESIANPOINT((35.,6.7999999999999998,0.));
#324=IFCCARTESIANPOINT((33.899999999999999,14.300000000000001,0.));
#325=IFCCARTESIANPOINT((36.600000000000001,26.299999999999997,0.));
#326=IFCCARTESIANPOINT((34.,33.5,0.));
#327=IFCCARTESIANPOINT((20.800000000000001,35.,0.));
#328=IFCCARTESIANPOINT((21.199999999999999,25.100000000000001,0.));
#329=IFCCARTESIANPOINT((18.199999999999999,15.200000000000001,0.));
#330=IFCCARTESIANPOINT((20.,5.,0.));
#331=IFCPOLYLINE((#322,#323,#324,#325,#326,#327,#328,#329,#330));
#332=IFCARBITRARYCLOSEDPROFILEDEF(.AREA.,$,#331);
#333=IFCCARTESIANPOINT((0.,0.,0.));
#334=IFCDIRECTION((0.,0.,1.));
#335=IFCDIRECTION((1.,0.,0.));
#336=IFCAXIS2PLACEMENT3D(#333,#334,#335);
#337=IFCDIRECTION((0.,0.,1.));
#338=IFCEXTRUDEDAREASOLID(#332,#336,#337,20.);
#339=IFCSHAPEREPRESENTATION(#16,'Body','SweptSolid',(#338));
#340=IFCPRODUCTDEFINITIONSHAPE($,$,(#339));
#341=IFCOWNERHISTORY(#3,#4,.READWRITE.,.ADDED.,1789529463,#3,#4,1789529463);
#342=IFCELEMENTQUANTITY('34TQItOtD7Men58f3dKfDX',#341,'Qto_BuildingElementProxyBaseQuantities',$,'BaseQuantities',(#345));
#343=IFCOWNERHISTORY(#3,#4,.READWRITE.,.ADDED.,1789529463,#3,#4,1789529463);
#344=IFCRELDEFINESBYPROPERTIES('3hvcfvmozAWxslmS5UEB25',#343,$,$,(#316),#342);
#345=IFCQUANTITYVOLUME('GrossVolume',$,$,8567.7000000000007,$);
#346=IFCOWNERHISTORY(#3,#4,.READWRITE.,.MODIFIED.,1789529463,#3,#4,1789529463);
#347=IFCBUILDINGELEMENTPROXY('3lVWQ6qPf1Wecy9rEiScAD',#346,'1236',$,'Baurechtliche Parzelle',#352,#369,$,.USERDEFINED.);
#348=IFCCARTESIANPOINT((0.,0.,-10.));
#349=IFCDIRECTION((0.,0.,1.));
#350=IFCDIRECTION((1.,0.,0.));
#351=IFCAXIS2PLACEMENT3D(#348,#349,#350);
#352=IFCLOCALPLACEMENT(#48,#351);
#353=IFCCARTESIANPOINT((35.,6.7999999999999998,0.));
#354=IFCCARTESIANPOINT((49.200000000000003,5.5,0.));
#355=IFCCARTESIANPOINT((47.799999999999997,35.,0.));
#356=IFCCARTESIANPOINT((34.,33.5,0.));
#357=IFCCARTESIANPOINT((36.600000000000001,26.299999999999997,0.));
#358=IFCCARTESIANPOINT((33.899999999999999,14.300000000000001,0.));
#359=IFCCARTESIANPOINT((35.,6.7999999999999998,0.));
#360=IFCPOLYLINE((#353,#354,#355,#356,#357,#358,#359));
#361=IFCARBITRARYCLOSEDPROFILEDEF(.AREA.,$,#360);
#362=IFCCARTESIANPOINT((0.,0.,0.));
#363=IFCDIRECTION((0.,0.,1.));
#364=IFCDIRECTION((1.,0.,0.));
#365=IFCAXIS2PLACEMENT3D(#362,#363,#364);
#366=IFCDIRECTION((0.,0.,1.));
#367=IFCEXTRUDEDAREASOLID(#361,#365,#366,20.);
#368=IFCSHAPEREPRESENTATION(#16,'Body','SweptSolid',(#367));
#369=IFCPRODUCTDEFINITIONSHAPE($,$,(#368));
#370=IFCOWNERHISTORY(#3,#4,.READWRITE.,.ADDED.,1789529463,#3,#4,1789529463);
#371=IFCELEMENTQUANTITY('2ho1mdzufCSBkZZyJBYaId',#370,'Qto_BuildingElementProxyBaseQuantities',$,'BaseQuantities',(#374));
#372=IFCOWNERHISTORY(#3,#4,.READWRITE.,.ADDED.,1789529463,#3,#4,1789529463);
#373=IFCRELDEFINESBYPROPERTIES('33c58Y$kb699ENHXnAndF2',#372,$,$,(#347),#371);
#374=IFCQUANTITYVOLUME('GrossVolume',$,$,7582.6999999999998,$);
ENDSEC;
END-ISO-10303-21;
