ISO-10303-21;
HEADER;
FILE_DESCRIPTION(('ViewDefinition[DesignTransferView]'),'2;1');
FILE_NAME('/dev/null','2026-09-18T10:38:19+02:00',(''),(''),'IfcOpenShell 0.8.5','IfcOpenShell 0.8.5','Nobody');
FILE_SCHEMA(('IFC4'));
ENDSEC;
DATA;
#1=IFCPERSON('catalog-pipeline','Pipeline','Catalog',$,$,$,$,$);
#2=IFCORGANIZATION('pragmaticBIM','pragmaticBIM',$,$,$);
#3=IFCPERSONANDORGANIZATION(#1,#2,$);
#4=IFCAPPLICATION(#2,'0.1.0','Catalog IFC Pipeline','catalog-ifc-pipeline');
#5=IFCOWNERHISTORY(#3,#4,.READWRITE.,.ADDED.,1789720699,#3,#4,1789720699);
#6=IFCPROJECT('1dDOtuD89FNunZeo4Zc1rn',#5,'Catalog \X2\2014\X0\ 101',$,$,$,$,(#15),#10);
#7=IFCSIUNIT(*,.LENGTHUNIT.,$,.METRE.);
#8=IFCSIUNIT(*,.AREAUNIT.,$,.SQUARE_METRE.);
#9=IFCSIUNIT(*,.VOLUMEUNIT.,$,.CUBIC_METRE.);
#10=IFCUNITASSIGNMENT((#9,#7,#8));
#11=IFCCARTESIANPOINT((0.,0.,0.));
#12=IFCDIRECTION((0.,0.,1.));
#13=IFCDIRECTION((1.,0.,0.));
#14=IFCAXIS2PLACEMENT3D(#11,#12,#13);
#15=IFCGEOMETRICREPRESENTATIONCONTEXT($,'Model',3,1.0000000000000001E-05,#14,$);
#16=IFCGEOMETRICREPRESENTATIONSUBCONTEXT('Body','Model',*,*,*,*,#15,$,.MODEL_VIEW.,$);
#17=IFCOWNERHISTORY(#3,#4,.READWRITE.,.MODIFIED.,1789720699,#3,#4,1789720699);
#18=IFCSITE('3jh5GGZgv1XAtYnblm7_b4',#17,'Site',$,$,#29,$,$,$,$,$,$,$,$);
#19=IFCOWNERHISTORY(#3,#4,.READWRITE.,.MODIFIED.,1789720699,#3,#4,1789720699);
#20=IFCBUILDING('0YXKFLLPv37RfIBmxwKavf',#19,'Building',$,$,#34,$,$,$,$,$,$);
#21=IFCOWNERHISTORY(#3,#4,.READWRITE.,.ADDED.,1789720699,#3,#4,1789720699);
#22=IFCRELAGGREGATES('0_QXJW9pDAaA_YztyCgkpK',#21,$,$,#6,(#18));
#23=IFCOWNERHISTORY(#3,#4,.READWRITE.,.ADDED.,1789720699,#3,#4,1789720699);
#24=IFCRELAGGREGATES('0a$fHlJKr6Zv57KI6ykuUj',#23,$,$,#18,(#20));
#25=IFCCARTESIANPOINT((0.,0.,0.));
#26=IFCDIRECTION((0.,0.,1.));
#27=IFCDIRECTION((1.,0.,0.));
#28=IFCAXIS2PLACEMENT3D(#25,#26,#27);
#29=IFCLOCALPLACEMENT($,#28);
#30=IFCCARTESIANPOINT((0.,0.,0.));
#31=IFCDIRECTION((0.,0.,1.));
#32=IFCDIRECTION((1.,0.,0.));
#33=IFCAXIS2PLACEMENT3D(#30,#31,#32);
#34=IFCLOCALPLACEMENT(#29,#33);
#35=IFCOWNERHISTORY(#3,#4,.READWRITE.,.MODIFIED.,1789720699,#3,#4,1789720699);
#36=IFCBUILDINGSTOREY('0PlTYZfHP8rPqdvNvcZg4d',#35,'Level 0',$,$,#43,$,$,$,0.);
#37=IFCOWNERHISTORY(#3,#4,.READWRITE.,.ADDED.,1789720699,#3,#4,1789720699);
#38=IFCRELAGGREGATES('1LdJEafdH4fBNEVpfZZst9',#37,$,$,#20,(#36));
#39=IFCCARTESIANPOINT((0.,0.,0.));
#40=IFCDIRECTION((0.,0.,1.));
#41=IFCDIRECTION((1.,0.,0.));
#42=IFCAXIS2PLACEMENT3D(#39,#40,#41);
#43=IFCLOCALPLACEMENT(#34,#42);
#44=IFCOWNERHISTORY(#3,#4,.READWRITE.,.MODIFIED.,1789720699,#3,#4,1789720699);
#45=IFCSLAB('0AmHcvkA90vx8oyy6xWcl7',#44,'101-FloorSlab',$,$,#52,#67,$,.FLOOR.);
#46=IFCOWNERHISTORY(#3,#4,.READWRITE.,.MODIFIED.,1789720699,#3,#4,1789720699);
#47=IFCRELCONTAINEDINSPATIALSTRUCTURE('3TlDbOtn59DxMNHqQqQzy7',#46,$,$,(#179,#69,#113,#45,#91,#135,#157),#36);
#48=IFCCARTESIANPOINT((0.,0.,-0.40000000000000002));
#49=IFCDIRECTION((0.,0.,1.));
#50=IFCDIRECTION((1.,0.,0.));
#51=IFCAXIS2PLACEMENT3D(#48,#49,#50);
#52=IFCLOCALPLACEMENT(#43,#51);
#53=IFCCARTESIANPOINT((-0.35999999999999999,-0.35999999999999999,0.));
#54=IFCCARTESIANPOINT((7.5600000000000005,-0.35999999999999999,0.));
#55=IFCCARTESIANPOINT((7.5600000000000005,5.3600000000000003,0.));
#56=IFCCARTESIANPOINT((-0.35999999999999999,5.3600000000000003,0.));
#57=IFCCARTESIANPOINT((-0.35999999999999999,-0.35999999999999999,0.));
#58=IFCPOLYLINE((#53,#54,#55,#56,#57));
#59=IFCARBITRARYCLOSEDPROFILEDEF(.AREA.,$,#58);
#60=IFCCARTESIANPOINT((0.,0.,0.));
#61=IFCDIRECTION((0.,0.,1.));
#62=IFCDIRECTION((1.,0.,0.));
#63=IFCAXIS2PLACEMENT3D(#60,#61,#62);
#64=IFCDIRECTION((0.,0.,1.));
#65=IFCEXTRUDEDAREASOLID(#59,#63,#64,0.29999999999999999);
#66=IFCSHAPEREPRESENTATION(#16,'Body','SweptSolid',(#65));
#67=IFCPRODUCTDEFINITIONSHAPE($,$,(#66));
#68=IFCOWNERHISTORY(#3,#4,.READWRITE.,.MODIFIED.,1789720699,#3,#4,1789720699);
#69=IFCCOVERING('2ldkUBtBP8EhW3wRKQhk_J',#68,'101-FloorCovering',$,$,#74,#89,$,.FLOORING.);
#70=IFCCARTESIANPOINT((0.,0.,-0.10000000000000001));
#71=IFCDIRECTION((0.,0.,1.));
#72=IFCDIRECTION((1.,0.,0.));
#73=IFCAXIS2PLACEMENT3D(#70,#71,#72);
#74=IFCLOCALPLACEMENT(#43,#73);
#75=IFCCARTESIANPOINT((0.,0.,0.));
#76=IFCCARTESIANPOINT((4.,0.,0.));
#77=IFCCARTESIANPOINT((4.,5.,0.));
#78=IFCCARTESIANPOINT((0.,5.,0.));
#79=IFCCARTESIANPOINT((0.,0.,0.));
#80=IFCPOLYLINE((#75,#76,#77,#78,#79));
#81=IFCARBITRARYCLOSEDPROFILEDEF(.AREA.,$,#80);
#82=IFCCARTESIANPOINT((0.,0.,0.));
#83=IFCDIRECTION((0.,0.,1.));
#84=IFCDIRECTION((1.,0.,0.));
#85=IFCAXIS2PLACEMENT3D(#82,#83,#84);
#86=IFCDIRECTION((0.,0.,1.));
#87=IFCEXTRUDEDAREASOLID(#81,#85,#86,0.10000000000000001);
#88=IFCSHAPEREPRESENTATION(#16,'Body','SweptSolid',(#87));
#89=IFCPRODUCTDEFINITIONSHAPE($,$,(#88));
#90=IFCOWNERHISTORY(#3,#4,.READWRITE.,.MODIFIED.,1789720699,#3,#4,1789720699);
#91=IFCCOVERING('1_V8z6x7f0mwCvTDhX2c6c',#90,'101-N-FloorCovering',$,$,#96,#111,$,.FLOORING.);
#92=IFCCARTESIANPOINT((0.,0.,-0.10000000000000001));
#93=IFCDIRECTION((0.,0.,1.));
#94=IFCDIRECTION((1.,0.,0.));
#95=IFCAXIS2PLACEMENT3D(#92,#93,#94);
#96=IFCLOCALPLACEMENT(#43,#95);
#97=IFCCARTESIANPOINT((4.2000000000000002,0.,0.));
#98=IFCCARTESIANPOINT((7.2000000000000002,0.,0.));
#99=IFCCARTESIANPOINT((7.2000000000000002,5.,0.));
#100=IFCCARTESIANPOINT((4.2000000000000002,5.,0.));
#101=IFCCARTESIANPOINT((4.2000000000000002,0.,0.));
#102=IFCPOLYLINE((#97,#98,#99,#100,#101));
#103=IFCARBITRARYCLOSEDPROFILEDEF(.AREA.,$,#102);
#104=IFCCARTESIANPOINT((0.,0.,0.));
#105=IFCDIRECTION((0.,0.,1.));
#106=IFCDIRECTION((1.,0.,0.));
#107=IFCAXIS2PLACEMENT3D(#104,#105,#106);
#108=IFCDIRECTION((0.,0.,1.));
#109=IFCEXTRUDEDAREASOLID(#103,#107,#108,0.10000000000000001);
#110=IFCSHAPEREPRESENTATION(#16,'Body','SweptSolid',(#109));
#111=IFCPRODUCTDEFINITIONSHAPE($,$,(#110));
#112=IFCOWNERHISTORY(#3,#4,.READWRITE.,.MODIFIED.,1789720699,#3,#4,1789720699);
#113=IFCWALL('1d3TKub3D42hUIAeVKGRuO',#112,'TW-01',$,$,#118,#133,$,.SOLIDWALL.);
#114=IFCCARTESIANPOINT((4.2000000000000002,0.,-0.10000000000000001));
#115=IFCDIRECTION((0.,0.,1.));
#116=IFCDIRECTION((0.,1.,0.));
#117=IFCAXIS2PLACEMENT3D(#114,#115,#116);
#118=IFCLOCALPLACEMENT(#43,#117);
#119=IFCCARTESIANPOINT((0.,0.,0.));
#120=IFCCARTESIANPOINT((5.,0.,0.));
#121=IFCCARTESIANPOINT((5.,0.20000000000000001,0.));
#122=IFCCARTESIANPOINT((0.,0.20000000000000001,0.));
#123=IFCCARTESIANPOINT((0.,0.,0.));
#124=IFCPOLYLINE((#119,#120,#121,#122,#123));
#125=IFCARBITRARYCLOSEDPROFILEDEF(.AREA.,$,#124);
#126=IFCCARTESIANPOINT((0.,0.,0.));
#127=IFCDIRECTION((0.,0.,1.));
#128=IFCDIRECTION((1.,0.,0.));
#129=IFCAXIS2PLACEMENT3D(#126,#127,#128);
#130=IFCDIRECTION((0.,0.,1.));
#131=IFCEXTRUDEDAREASOLID(#125,#129,#130,2.8999999999999999);
#132=IFCSHAPEREPRESENTATION(#16,'Body','SweptSolid',(#131));
#133=IFCPRODUCTDEFINITIONSHAPE($,$,(#132));
#134=IFCOWNERHISTORY(#3,#4,.READWRITE.,.MODIFIED.,1789720699,#3,#4,1789720699);
#135=IFCWALL('2CAeDGszL998Ryg8n5KJVc',#134,'101-EnvelopeWest',$,$,#140,#155,$,.SOLIDWALL.);
#136=IFCCARTESIANPOINT((0.,0.,-0.10000000000000001));
#137=IFCDIRECTION((0.,0.,1.));
#138=IFCDIRECTION((0.,1.,0.));
#139=IFCAXIS2PLACEMENT3D(#136,#137,#138);
#140=IFCLOCALPLACEMENT(#43,#139);
#141=IFCCARTESIANPOINT((0.,0.,0.));
#142=IFCCARTESIANPOINT((5.,0.,0.));
#143=IFCCARTESIANPOINT((5.,0.35999999999999999,0.));
#144=IFCCARTESIANPOINT((0.,0.35999999999999999,0.));
#145=IFCCARTESIANPOINT((0.,0.,0.));
#146=IFCPOLYLINE((#141,#142,#143,#144,#145));
#147=IFCARBITRARYCLOSEDPROFILEDEF(.AREA.,$,#146);
#148=IFCCARTESIANPOINT((0.,0.,0.));
#149=IFCDIRECTION((0.,0.,1.));
#150=IFCDIRECTION((1.,0.,0.));
#151=IFCAXIS2PLACEMENT3D(#148,#149,#150);
#152=IFCDIRECTION((0.,0.,1.));
#153=IFCEXTRUDEDAREASOLID(#147,#151,#152,2.8999999999999999);
#154=IFCSHAPEREPRESENTATION(#16,'Body','SweptSolid',(#153));
#155=IFCPRODUCTDEFINITIONSHAPE($,$,(#154));
#156=IFCOWNERHISTORY(#3,#4,.READWRITE.,.MODIFIED.,1789720699,#3,#4,1789720699);
#157=IFCWALL('2vuS5ql9L9nei7fCY6aDxt',#156,'101-EnvelopeEast',$,$,#162,#177,$,.SOLIDWALL.);
#158=IFCCARTESIANPOINT((7.5600000000000005,0.,-0.10000000000000001));
#159=IFCDIRECTION((0.,0.,1.));
#160=IFCDIRECTION((0.,1.,0.));
#161=IFCAXIS2PLACEMENT3D(#158,#159,#160);
#162=IFCLOCALPLACEMENT(#43,#161);
#163=IFCCARTESIANPOINT((0.,0.,0.));
#164=IFCCARTESIANPOINT((5.,0.,0.));
#165=IFCCARTESIANPOINT((5.,0.35999999999999999,0.));
#166=IFCCARTESIANPOINT((0.,0.35999999999999999,0.));
#167=IFCCARTESIANPOINT((0.,0.,0.));
#168=IFCPOLYLINE((#163,#164,#165,#166,#167));
#169=IFCARBITRARYCLOSEDPROFILEDEF(.AREA.,$,#168);
#170=IFCCARTESIANPOINT((0.,0.,0.));
#171=IFCDIRECTION((0.,0.,1.));
#172=IFCDIRECTION((1.,0.,0.));
#173=IFCAXIS2PLACEMENT3D(#170,#171,#172);
#174=IFCDIRECTION((0.,0.,1.));
#175=IFCEXTRUDEDAREASOLID(#169,#173,#174,2.8999999999999999);
#176=IFCSHAPEREPRESENTATION(#16,'Body','SweptSolid',(#175));
#177=IFCPRODUCTDEFINITIONSHAPE($,$,(#176));
#178=IFCOWNERHISTORY(#3,#4,.READWRITE.,.MODIFIED.,1789720699,#3,#4,1789720699);
#179=IFCWALL('05k04BfXHF6gWu4WL_WWIp',#178,'101-EnvelopeSouth',$,$,#184,#199,$,.SOLIDWALL.);
#180=IFCCARTESIANPOINT((-0.35999999999999999,-0.35999999999999999,-0.10000000000000001));
#181=IFCDIRECTION((0.,0.,1.));
#182=IFCDIRECTION((1.,0.,0.));
#183=IFCAXIS2PLACEMENT3D(#180,#181,#182);
#184=IFCLOCALPLACEMENT(#43,#183);
#185=IFCCARTESIANPOINT((0.,0.,0.));
#186=IFCCARTESIANPOINT((7.9199999999999999,0.,0.));
#187=IFCCARTESIANPOINT((7.9199999999999999,0.35999999999999999,0.));
#188=IFCCARTESIANPOINT((0.,0.35999999999999999,0.));
#189=IFCCARTESIANPOINT((0.,0.,0.));
#190=IFCPOLYLINE((#185,#186,#187,#188,#189));
#191=IFCARBITRARYCLOSEDPROFILEDEF(.AREA.,$,#190);
#192=IFCCARTESIANPOINT((0.,0.,0.));
#193=IFCDIRECTION((0.,0.,1.));
#194=IFCDIRECTION((1.,0.,0.));
#195=IFCAXIS2PLACEMENT3D(#192,#193,#194);
#196=IFCDIRECTION((0.,0.,1.));
#197=IFCEXTRUDEDAREASOLID(#191,#195,#196,2.8999999999999999);
#198=IFCSHAPEREPRESENTATION(#16,'Body','SweptSolid',(#197));
#199=IFCPRODUCTDEFINITIONSHAPE($,$,(#198));
#200=IFCOWNERHISTORY(#3,#4,.READWRITE.,.ADDED.,1789720699,#3,#4,1789720699);
#201=IFCELEMENTQUANTITY('2t0ofZl7v2mQy$$QDn0PCT',#200,'Qto_WallBaseQuantities',$,'BaseQuantities',(#204,#205,#206));
#202=IFCOWNERHISTORY(#3,#4,.READWRITE.,.ADDED.,1789720699,#3,#4,1789720699);
#203=IFCRELDEFINESBYPROPERTIES('1cUn3B8eb1tf$M5jOLRI0n',#202,$,$,(#113),#201);
#204=IFCQUANTITYAREA('NetSideArea',$,$,14.,$);
#205=IFCQUANTITYLENGTH('Width',$,$,0.20000000000000001,$);
#206=IFCQUANTITYVOLUME('GrossVolume',$,$,2.7999999999999998,$);
#207=IFCOWNERHISTORY(#3,#4,.READWRITE.,.ADDED.,1789720700,#3,#4,1789720700);
#208=IFCPROPERTYSET('292tHXbf11BPhjCmun7iaW',#207,'Pset_WallCommon',$,(#211,#212,#213,#214,#215,#216,#217));
#209=IFCOWNERHISTORY(#3,#4,.READWRITE.,.ADDED.,1789720700,#3,#4,1789720700);
#210=IFCRELDEFINESBYPROPERTIES('1zQ1Xy771Fnxlk5uonDz3l',#209,$,$,(#113),#208);
#211=IFCPROPERTYSINGLEVALUE('Reference',$,IFCIDENTIFIER('TW-01'),$);
#212=IFCPROPERTYSINGLEVALUE('IsExternal',$,IFCBOOLEAN(.F.),$);
#213=IFCPROPERTYSINGLEVALUE('LoadBearing',$,IFCBOOLEAN(.T.),$);
#214=IFCPROPERTYSINGLEVALUE('Status',$,IFCLABEL('NEW'),$);
#215=IFCPROPERTYSINGLEVALUE('FireRating',$,IFCLABEL('R 30'),$);
#216=IFCPROPERTYSINGLEVALUE('AcousticRating',$,IFCLABEL('AcousticRating'),$);
#217=IFCPROPERTYSINGLEVALUE('ThermalTransmittance',$,IFCTHERMALTRANSMITTANCEMEASURE(1.),$);
#218=IFCOWNERHISTORY(#3,#4,.READWRITE.,.ADDED.,1789720700,#3,#4,1789720700);
#219=IFCPROPERTYSET('0sgN4LZgP4kAWaQCrILn9n',#218,'ePset_Cost',$,(#222,#223,#224,#225,#226,#227,#228,#229,#230));
#220=IFCOWNERHISTORY(#3,#4,.READWRITE.,.ADDED.,1789720700,#3,#4,1789720700);
#221=IFCRELDEFINESBYPROPERTIES('1UJ_QnjEjF$O9OSOi9YfmU',#220,$,$,(#113),#219);
#222=IFCPROPERTYSINGLEVALUE('CostInterface',$,IFCLABEL('GAB'),$);
#223=IFCPROPERTYSINGLEVALUE('AwardInterface',$,IFCLABEL('211'),$);
#224=IFCPROPERTYSINGLEVALUE('PlanningInterface',$,IFCLABEL('092'),$);
#225=IFCPROPERTYSINGLEVALUE('BelowTerrain',$,IFCBOOLEAN(.F.),$);
#226=IFCPROPERTYSINGLEVALUE('eBKP',$,IFCLABEL('C02.02'),$);
#227=IFCPROPERTYSINGLEVALUE('CalculatedType',$,IFCLABEL('Wand_Innen_Oberirdisch_Beton'),$);
#228=IFCPROPERTYSINGLEVALUE('ProductClass',$,IFCLABEL('SWP-ORTBETON'),$);
#229=IFCPROPERTYSINGLEVALUE('UnitPrice',$,IFCLABEL('UnitPrice'),$);
#230=IFCPROPERTYSINGLEVALUE('ReferenceQuantity',$,IFCLABEL('ReferenceQuantity'),$);
#231=IFCOWNERHISTORY(#3,#4,.READWRITE.,.ADDED.,1789720700,#3,#4,1789720700);
#232=IFCPROPERTYSET('0olWSXhNT4V9LVgYcvhFuv',#231,'ePset_Circularity',$,(#235,#236,#237,#238,#239));
#233=IFCOWNERHISTORY(#3,#4,.READWRITE.,.ADDED.,1789720700,#3,#4,1789720700);
#234=IFCRELDEFINESBYPROPERTIES('11EH_r0TT5SvyqXFFpitf4',#233,$,$,(#113),#232);
#235=IFCPROPERTYSINGLEVALUE('Connection',$,IFCTEXT('DryConnection'),$);
#236=IFCPROPERTYSINGLEVALUE('Accessibility',$,IFCTEXT('Accessible'),$);
#237=IFCPROPERTYSINGLEVALUE('Reuse',$,IFCREAL(1.),$);
#238=IFCPROPERTYSINGLEVALUE('MaterialOrProductId',$,IFCTEXT('MaterialOrProductId'),$);
#239=IFCPROPERTYSINGLEVALUE('WasteCodes',$,IFCTEXT('WasteCodes'),$);
#240=IFCOWNERHISTORY(#3,#4,.READWRITE.,.ADDED.,1789720700,#3,#4,1789720700);
#241=IFCWALLTYPE('1aPiJsyA5E_xwx8q9zD0Dp',#240,'TW-01 Type',$,$,(#245),$,$,$,.NOTDEFINED.);
#242=IFCOWNERHISTORY(#3,#4,.READWRITE.,.ADDED.,1789720700,#3,#4,1789720700);
#243=IFCRELDEFINESBYTYPE('0w1VtsbD1AuR87hoQ0t3St',#242,$,$,(#113),#241);
#244=IFCOWNERHISTORY(#3,#4,.READWRITE.,.ADDED.,1789720700,#3,#4,1789720700);
#245=IFCPROPERTYSET('0Vyf2_yFj2z86ULgLdrD$s',#244,'Pset_ManufacturerTypeInformation',$,(#246));
#246=IFCPROPERTYSINGLEVALUE('GlobalTradeItemNumber',$,IFCIDENTIFIER('07612345000015'),$);
#247=IFCOWNERHISTORY(#3,#4,.READWRITE.,.ADDED.,1789720700,#3,#4,1789720700);
#248=IFCPROPERTYSET('0yosaIsk12dOhtal5xWaYJ',#247,'Pset_ManufacturerOccurrence',$,(#251));
#249=IFCOWNERHISTORY(#3,#4,.READWRITE.,.ADDED.,1789720700,#3,#4,1789720700);
#250=IFCRELDEFINESBYPROPERTIES('0$mQnL4Iv5Dv5LcqdBooVl',#249,$,$,(#113),#248);
#251=IFCPROPERTYSINGLEVALUE('SerialNumber',$,IFCIDENTIFIER('SN-000001'),$);
ENDSEC;
END-ISO-10303-21;
