ISO-10303-21;
HEADER;
FILE_DESCRIPTION(('ViewDefinition[DesignTransferView]'),'2;1');
FILE_NAME('/dev/null','2026-09-15T14:59:20+02:00',(''),(''),'IfcOpenShell 0.8.5','IfcOpenShell 0.8.5','Nobody');
FILE_SCHEMA(('IFC4'));
ENDSEC;
DATA;
#1=IFCPERSON('catalog-pipeline','Pipeline','Catalog',$,$,$,$,$);
#2=IFCORGANIZATION('pragmaticBIM','pragmaticBIM',$,$,$);
#3=IFCPERSONANDORGANIZATION(#1,#2,$);
#4=IFCAPPLICATION(#2,'0.1.0','Catalog IFC Pipeline','catalog-ifc-pipeline');
#5=IFCOWNERHISTORY(#3,#4,.READWRITE.,.ADDED.,1789477160,#3,#4,1789477160);
#6=IFCPROJECT('1au5LGxoHBeA3JOm9AR$3J',#5,'planning-constraint-01',$,$,$,$,(#15),#10);
#7=IFCSIUNIT(*,.LENGTHUNIT.,$,.METRE.);
#8=IFCSIUNIT(*,.AREAUNIT.,$,.SQUARE_METRE.);
#9=IFCSIUNIT(*,.VOLUMEUNIT.,$,.CUBIC_METRE.);
#10=IFCUNITASSIGNMENT((#8,#9,#7));
#11=IFCCARTESIANPOINT((0.,0.,0.));
#12=IFCDIRECTION((0.,0.,1.));
#13=IFCDIRECTION((1.,0.,0.));
#14=IFCAXIS2PLACEMENT3D(#11,#12,#13);
#15=IFCGEOMETRICREPRESENTATIONCONTEXT($,'Model',3,1.0000000000000001E-05,#14,$);
#16=IFCGEOMETRICREPRESENTATIONSUBCONTEXT('Body','Model',*,*,*,*,#15,$,.MODEL_VIEW.,$);
#17=IFCOWNERHISTORY(#3,#4,.READWRITE.,.MODIFIED.,1789477160,#3,#4,1789477160);
#18=IFCSITE('1eoVR1u8fBogB33p7kT96X',#17,'Site',$,$,#62,#68,$,$,$,$,$,$,$);
#19=IFCOWNERHISTORY(#3,#4,.READWRITE.,.MODIFIED.,1789477160,#3,#4,1789477160);
#20=IFCBUILDING('31PrRBpOj27xdIWX6REAFO',#19,'Building',$,$,#67,$,$,$,$,$,$);
#21=IFCOWNERHISTORY(#3,#4,.READWRITE.,.ADDED.,1789477160,#3,#4,1789477160);
#22=IFCRELAGGREGATES('1F$DzC4k5ElRNDUA_nUAKt',#21,$,$,#6,(#18));
#23=IFCOWNERHISTORY(#3,#4,.READWRITE.,.ADDED.,1789477160,#3,#4,1789477160);
#24=IFCRELAGGREGATES('1tynrL_KD9F8zfqaBwZ4rk',#23,$,$,#18,(#20));
#35=IFCOWNERHISTORY(#3,#4,.READWRITE.,.MODIFIED.,1789477160,#3,#4,1789477160);
#36=IFCBUILDINGSTOREY('2jns6Guh13wBPgEO0g7PSt',#35,'Level 0',$,$,#43,$,$,$,0.);
#37=IFCOWNERHISTORY(#3,#4,.READWRITE.,.ADDED.,1789477160,#3,#4,1789477160);
#38=IFCRELAGGREGATES('2UY9xZKUb49BQlErvv1yVG',#37,$,$,#20,(#36));
#39=IFCCARTESIANPOINT((0.,0.,0.));
#40=IFCDIRECTION((0.,0.,1.));
#41=IFCDIRECTION((1.,0.,0.));
#42=IFCAXIS2PLACEMENT3D(#39,#40,#41);
#43=IFCLOCALPLACEMENT(#67,#42);
#44=IFCCARTESIANPOINT((-4.,-4.,0.));
#45=IFCCARTESIANPOINT((12.,-4.,0.));
#46=IFCCARTESIANPOINT((12.,7.7999999999999998,0.));
#47=IFCCARTESIANPOINT((-4.,7.7999999999999998,0.));
#48=IFCCARTESIANPOINT((-4.,-4.,0.));
#49=IFCPOLYLINE((#44,#45,#46,#47,#48));
#50=IFCARBITRARYCLOSEDPROFILEDEF(.AREA.,$,#49);
#51=IFCCARTESIANPOINT((0.,0.,0.));
#52=IFCDIRECTION((0.,0.,1.));
#53=IFCDIRECTION((1.,0.,0.));
#54=IFCAXIS2PLACEMENT3D(#51,#52,#53);
#55=IFCDIRECTION((0.,0.,1.));
#56=IFCEXTRUDEDAREASOLID(#50,#54,#55,0.20000000000000001);
#57=IFCSHAPEREPRESENTATION(#16,'Body','SweptSolid',(#56));
#58=IFCCARTESIANPOINT((0.,0.,-0.20000000000000001));
#59=IFCDIRECTION((0.,0.,1.));
#60=IFCDIRECTION((1.,0.,0.));
#61=IFCAXIS2PLACEMENT3D(#58,#59,#60);
#62=IFCLOCALPLACEMENT($,#61);
#63=IFCCARTESIANPOINT((0.,0.,0.20000000000000001));
#64=IFCDIRECTION((0.,0.,1.));
#65=IFCDIRECTION((1.,0.,0.));
#66=IFCAXIS2PLACEMENT3D(#63,#64,#65);
#67=IFCLOCALPLACEMENT(#62,#66);
#68=IFCPRODUCTDEFINITIONSHAPE($,$,(#57));
#69=IFCOWNERHISTORY(#3,#4,.READWRITE.,.MODIFIED.,1789477160,#3,#4,1789477160);
#70=IFCSLAB('01vBJgIor6kO8yCoA0luPt',#69,'Geb\X2\00E4\X0\udevolumen',$,$,#77,#92,$,.FLOOR.);
#71=IFCOWNERHISTORY(#3,#4,.READWRITE.,.MODIFIED.,1789477160,#3,#4,1789477160);
#72=IFCRELCONTAINEDINSPATIALSTRUCTURE('1flmKczhT4_hwOgk$KPpvv',#71,$,$,(#70,#138,#94,#116),#18);
#73=IFCCARTESIANPOINT((0.,0.,0.20000000000000001));
#74=IFCDIRECTION((0.,0.,1.));
#75=IFCDIRECTION((1.,0.,0.));
#76=IFCAXIS2PLACEMENT3D(#73,#74,#75);
#77=IFCLOCALPLACEMENT(#62,#76);
#78=IFCCARTESIANPOINT((0.,0.,0.));
#79=IFCCARTESIANPOINT((8.,0.,0.));
#80=IFCCARTESIANPOINT((8.,6.,0.));
#81=IFCCARTESIANPOINT((0.,6.,0.));
#82=IFCCARTESIANPOINT((0.,0.,0.));
#83=IFCPOLYLINE((#78,#79,#80,#81,#82));
#84=IFCARBITRARYCLOSEDPROFILEDEF(.AREA.,$,#83);
#85=IFCCARTESIANPOINT((0.,0.,0.));
#86=IFCDIRECTION((0.,0.,1.));
#87=IFCDIRECTION((1.,0.,0.));
#88=IFCAXIS2PLACEMENT3D(#85,#86,#87);
#89=IFCDIRECTION((0.,0.,1.));
#90=IFCEXTRUDEDAREASOLID(#84,#88,#89,7.);
#91=IFCSHAPEREPRESENTATION(#16,'Body','SweptSolid',(#90));
#92=IFCPRODUCTDEFINITIONSHAPE($,$,(#91));
#93=IFCOWNERHISTORY(#3,#4,.READWRITE.,.MODIFIED.,1789477160,#3,#4,1789477160);
#94=IFCBUILDINGELEMENTPROXY('3u62aGXnP1aOVQzLyrCDCp',#93,'\X2\00DC\X0\berschwemmungsgebiet',$,'Rahmenbedingung',#99,#114,$,.USERDEFINED.);
#95=IFCCARTESIANPOINT((0.,0.,0.20000000000000001));
#96=IFCDIRECTION((0.,0.,1.));
#97=IFCDIRECTION((1.,0.,0.));
#98=IFCAXIS2PLACEMENT3D(#95,#96,#97);
#99=IFCLOCALPLACEMENT(#62,#98);
#100=IFCCARTESIANPOINT((0.,-4.,0.));
#101=IFCCARTESIANPOINT((10.,-4.,0.));
#102=IFCCARTESIANPOINT((10.,6.0999999999999996,0.));
#103=IFCCARTESIANPOINT((0.,6.0999999999999996,0.));
#104=IFCCARTESIANPOINT((0.,-4.,0.));
#105=IFCPOLYLINE((#100,#101,#102,#103,#104));
#106=IFCARBITRARYCLOSEDPROFILEDEF(.AREA.,$,#105);
#107=IFCCARTESIANPOINT((0.,0.,0.));
#108=IFCDIRECTION((0.,0.,1.));
#109=IFCDIRECTION((1.,0.,0.));
#110=IFCAXIS2PLACEMENT3D(#107,#108,#109);
#111=IFCDIRECTION((0.,0.,1.));
#112=IFCEXTRUDEDAREASOLID(#106,#110,#111,1.5);
#113=IFCSHAPEREPRESENTATION(#16,'Body','SweptSolid',(#112));
#114=IFCPRODUCTDEFINITIONSHAPE($,$,(#113));
#115=IFCOWNERHISTORY(#3,#4,.READWRITE.,.MODIFIED.,1789477160,#3,#4,1789477160);
#116=IFCBUILDINGELEMENTPROXY('0Hlwg$j3HCGAXgM8lOuvBI',#115,'Eisenbahnkorridor',$,'Rahmenbedingung',#121,#136,$,.USERDEFINED.);
#117=IFCCARTESIANPOINT((0.,0.,0.20000000000000001));
#118=IFCDIRECTION((0.,0.,1.));
#119=IFCDIRECTION((1.,0.,0.));
#120=IFCAXIS2PLACEMENT3D(#117,#118,#119);
#121=IFCLOCALPLACEMENT(#62,#120);
#122=IFCCARTESIANPOINT((-4.,-4.,0.));
#123=IFCCARTESIANPOINT((-1.,-4.,0.));
#124=IFCCARTESIANPOINT((-1.,7.7999999999999998,0.));
#125=IFCCARTESIANPOINT((-4.,7.7999999999999998,0.));
#126=IFCCARTESIANPOINT((-4.,-4.,0.));
#127=IFCPOLYLINE((#122,#123,#124,#125,#126));
#128=IFCARBITRARYCLOSEDPROFILEDEF(.AREA.,$,#127);
#129=IFCCARTESIANPOINT((0.,0.,0.));
#130=IFCDIRECTION((0.,0.,1.));
#131=IFCDIRECTION((1.,0.,0.));
#132=IFCAXIS2PLACEMENT3D(#129,#130,#131);
#133=IFCDIRECTION((0.,0.,1.));
#134=IFCEXTRUDEDAREASOLID(#128,#132,#133,4.);
#135=IFCSHAPEREPRESENTATION(#16,'Body','SweptSolid',(#134));
#136=IFCPRODUCTDEFINITIONSHAPE($,$,(#135));
#137=IFCOWNERHISTORY(#3,#4,.READWRITE.,.MODIFIED.,1789477160,#3,#4,1789477160);
#138=IFCBUILDINGELEMENTPROXY('3lB7ttxE9BBg0e2RWb6CLV',#137,'Flugschneise',$,'Rahmenbedingung',#143,#158,$,.USERDEFINED.);
#139=IFCCARTESIANPOINT((0.,0.,2.6499999999999999));
#140=IFCDIRECTION((0.,0.,1.));
#141=IFCDIRECTION((1.,0.,0.));
#142=IFCAXIS2PLACEMENT3D(#139,#140,#141);
#143=IFCLOCALPLACEMENT(#62,#142);
#144=IFCCARTESIANPOINT((1.2,2.4000000000000004,0.));
#145=IFCCARTESIANPOINT((11.199999999999999,2.4000000000000004,0.));
#146=IFCCARTESIANPOINT((11.199999999999999,8.4000000000000004,0.));
#147=IFCCARTESIANPOINT((1.2,8.4000000000000004,0.));
#148=IFCCARTESIANPOINT((1.2,2.4000000000000004,0.));
#149=IFCPOLYLINE((#144,#145,#146,#147,#148));
#150=IFCARBITRARYCLOSEDPROFILEDEF(.AREA.,$,#149);
#151=IFCCARTESIANPOINT((0.,0.,0.));
#152=IFCDIRECTION((0.,0.,1.));
#153=IFCDIRECTION((1.,0.,0.));
#154=IFCAXIS2PLACEMENT3D(#151,#152,#153);
#155=IFCDIRECTION((0.,0.,1.));
#156=IFCEXTRUDEDAREASOLID(#150,#154,#155,14.);
#157=IFCSHAPEREPRESENTATION(#16,'Body','SweptSolid',(#156));
#158=IFCPRODUCTDEFINITIONSHAPE($,$,(#157));
#159=IFCOWNERHISTORY(#3,#4,.READWRITE.,.ADDED.,1789477160,#3,#4,1789477160);
#160=IFCELEMENTQUANTITY('1AODuC4Br6J8kbdD8FdcVH',#159,'Qto_BuildingElementProxyBaseQuantities',$,'BaseQuantities',(#163));
#161=IFCOWNERHISTORY(#3,#4,.READWRITE.,.ADDED.,1789477160,#3,#4,1789477160);
#162=IFCRELDEFINESBYPROPERTIES('1m$0ZT_ez5C9vonJnjZoIQ',#161,$,$,(#94),#160);
#163=IFCQUANTITYVOLUME('GrossVolume',$,$,151.5,$);
#164=IFCOWNERHISTORY(#3,#4,.READWRITE.,.ADDED.,1789477160,#3,#4,1789477160);
#165=IFCELEMENTQUANTITY('0p4O2E5svCbBWWNCaQHgCm',#164,'Qto_BuildingElementProxyBaseQuantities',$,'BaseQuantities',(#168));
#166=IFCOWNERHISTORY(#3,#4,.READWRITE.,.ADDED.,1789477160,#3,#4,1789477160);
#167=IFCRELDEFINESBYPROPERTIES('35TDzEEHH4phOpjN_S3kg6',#166,$,$,(#116),#165);
#168=IFCQUANTITYVOLUME('GrossVolume',$,$,141.59999999999999,$);
#169=IFCOWNERHISTORY(#3,#4,.READWRITE.,.ADDED.,1789477160,#3,#4,1789477160);
#170=IFCELEMENTQUANTITY('0kSe_AQ4bDCPlfCFDq2QfW',#169,'Qto_BuildingElementProxyBaseQuantities',$,'BaseQuantities',(#173));
#171=IFCOWNERHISTORY(#3,#4,.READWRITE.,.ADDED.,1789477160,#3,#4,1789477160);
#172=IFCRELDEFINESBYPROPERTIES('0VNL3wm_vAoAPrWGPhaQQM',#171,$,$,(#138),#170);
#173=IFCQUANTITYVOLUME('GrossVolume',$,$,840.,$);
ENDSEC;
END-ISO-10303-21;
