ISO-10303-21;
HEADER;
FILE_DESCRIPTION(('ViewDefinition[DesignTransferView]'),'2;1');
FILE_NAME('/dev/null','2026-09-13T15:45:02+02:00',(''),(''),'IfcOpenShell 0.8.5','IfcOpenShell 0.8.5','Nobody');
FILE_SCHEMA(('IFC4'));
ENDSEC;
DATA;
#1=IFCPERSON('catalog-pipeline','Pipeline','Catalog',$,$,$,$,$);
#2=IFCORGANIZATION('pragmaticBIM','pragmaticBIM',$,$,$);
#3=IFCPERSONANDORGANIZATION(#1,#2,$);
#4=IFCAPPLICATION(#2,'0.1.0','Catalog IFC Pipeline','catalog-ifc-pipeline');
#5=IFCOWNERHISTORY(#3,#4,.READWRITE.,.ADDED.,1789307102,#3,#4,1789307102);
#6=IFCPROJECT('0Ia8vByZP7k9$GhL$8qKHm',#5,'Catalog \X2\2014\X0\ 101',$,$,$,$,(#15),#10);
#7=IFCSIUNIT(*,.LENGTHUNIT.,$,.METRE.);
#8=IFCSIUNIT(*,.AREAUNIT.,$,.SQUARE_METRE.);
#9=IFCSIUNIT(*,.VOLUMEUNIT.,$,.CUBIC_METRE.);
#10=IFCUNITASSIGNMENT((#9,#7,#8));
#11=IFCCARTESIANPOINT((0.,0.,0.));
#12=IFCDIRECTION((0.,0.,1.));
#13=IFCDIRECTION((1.,0.,0.));
#14=IFCAXIS2PLACEMENT3D(#11,#12,#13);
#15=IFCGEOMETRICREPRESENTATIONCONTEXT($,'Model',3,1.0000000000000001E-05,#14,$);
#16=IFCGEOMETRICREPRESENTATIONSUBCONTEXT('Body','Model',*,*,*,*,#15,$,.MODEL_VIEW.,$);
#17=IFCOWNERHISTORY(#3,#4,.READWRITE.,.MODIFIED.,1789307102,#3,#4,1789307102);
#18=IFCSITE('1iEg7pT3T6HwbBv4Alrr3c',#17,'Site',$,$,#29,$,$,$,$,$,$,$,$);
#19=IFCOWNERHISTORY(#3,#4,.READWRITE.,.MODIFIED.,1789307102,#3,#4,1789307102);
#20=IFCBUILDING('0goGyI0OXCcBdfJ1ZU3$MA',#19,'Building',$,$,#34,$,$,$,$,$,$);
#21=IFCOWNERHISTORY(#3,#4,.READWRITE.,.ADDED.,1789307102,#3,#4,1789307102);
#22=IFCRELAGGREGATES('3jgVcG_zD0fR9Cexo2H9Rh',#21,$,$,#6,(#18));
#23=IFCOWNERHISTORY(#3,#4,.READWRITE.,.ADDED.,1789307102,#3,#4,1789307102);
#24=IFCRELAGGREGATES('1KXxdDA75EjAy7O0uOclqU',#23,$,$,#18,(#20));
#25=IFCCARTESIANPOINT((0.,0.,0.));
#26=IFCDIRECTION((0.,0.,1.));
#27=IFCDIRECTION((1.,0.,0.));
#28=IFCAXIS2PLACEMENT3D(#25,#26,#27);
#29=IFCLOCALPLACEMENT($,#28);
#30=IFCCARTESIANPOINT((0.,0.,0.));
#31=IFCDIRECTION((0.,0.,1.));
#32=IFCDIRECTION((1.,0.,0.));
#33=IFCAXIS2PLACEMENT3D(#30,#31,#32);
#34=IFCLOCALPLACEMENT(#29,#33);
#35=IFCOWNERHISTORY(#3,#4,.READWRITE.,.MODIFIED.,1789307102,#3,#4,1789307102);
#36=IFCBUILDINGSTOREY('2Ywho1UrD9p8goI9FDhrtG',#35,'Level 0',$,$,#43,$,$,$,0.);
#37=IFCOWNERHISTORY(#3,#4,.READWRITE.,.ADDED.,1789307102,#3,#4,1789307102);
#38=IFCRELAGGREGATES('34Rp91YrH8mQSLdozS1bB0',#37,$,$,#20,(#36));
#39=IFCCARTESIANPOINT((0.,0.,0.));
#40=IFCDIRECTION((0.,0.,1.));
#41=IFCDIRECTION((1.,0.,0.));
#42=IFCAXIS2PLACEMENT3D(#39,#40,#41);
#43=IFCLOCALPLACEMENT(#34,#42);
#44=IFCOWNERHISTORY(#3,#4,.READWRITE.,.MODIFIED.,1789307102,#3,#4,1789307102);
#45=IFCWALL('1jZgLZhzTFMhd5RX_4Pocc',#44,'101-Partition',$,$,#52,#67,$,.PARTITIONING.);
#46=IFCOWNERHISTORY(#3,#4,.READWRITE.,.MODIFIED.,1789307102,#3,#4,1789307102);
#47=IFCRELCONTAINEDINSPATIALSTRUCTURE('1adrUhtj95R9cTVM1tciFr',#46,$,$,(#45,#98),#36);
#48=IFCCARTESIANPOINT((4.2000000000000002,0.,0.));
#49=IFCDIRECTION((0.,0.,1.));
#50=IFCDIRECTION((0.,1.,0.));
#51=IFCAXIS2PLACEMENT3D(#48,#49,#50);
#52=IFCLOCALPLACEMENT(#43,#51);
#53=IFCCARTESIANPOINT((0.,0.,0.));
#54=IFCCARTESIANPOINT((5.,0.,0.));
#55=IFCCARTESIANPOINT((5.,0.20000000000000001,0.));
#56=IFCCARTESIANPOINT((0.,0.20000000000000001,0.));
#57=IFCCARTESIANPOINT((0.,0.,0.));
#58=IFCPOLYLINE((#53,#54,#55,#56,#57));
#59=IFCARBITRARYCLOSEDPROFILEDEF(.AREA.,$,#58);
#60=IFCCARTESIANPOINT((0.,0.,0.));
#61=IFCDIRECTION((0.,0.,1.));
#62=IFCDIRECTION((1.,0.,0.));
#63=IFCAXIS2PLACEMENT3D(#60,#61,#62);
#64=IFCDIRECTION((0.,0.,1.));
#65=IFCEXTRUDEDAREASOLID(#59,#63,#64,2.7999999999999998);
#66=IFCSHAPEREPRESENTATION(#16,'Body','SweptSolid',(#65));
#67=IFCPRODUCTDEFINITIONSHAPE($,$,(#66));
#68=IFCOWNERHISTORY(#3,#4,.READWRITE.,.MODIFIED.,1789307102,#3,#4,1789307102);
#69=IFCOPENINGELEMENT('0dMApb0Tv8tfLYm8CnCnf3',#68,'D-01',$,$,#96,#89,$,.OPENING.);
#75=IFCCARTESIANPOINT((2.2000000000000002,-0.01,0.));
#76=IFCCARTESIANPOINT((2.8000000000000003,-0.01,0.));
#77=IFCCARTESIANPOINT((2.8000000000000003,0.22,0.));
#78=IFCCARTESIANPOINT((2.2000000000000002,0.22,0.));
#79=IFCCARTESIANPOINT((2.2000000000000002,-0.01,0.));
#80=IFCPOLYLINE((#75,#76,#77,#78,#79));
#81=IFCARBITRARYCLOSEDPROFILEDEF(.AREA.,$,#80);
#82=IFCCARTESIANPOINT((0.,0.,2.25));
#83=IFCDIRECTION((0.,0.,1.));
#84=IFCDIRECTION((1.,0.,0.));
#85=IFCAXIS2PLACEMENT3D(#82,#83,#84);
#86=IFCDIRECTION((0.,0.,1.));
#87=IFCEXTRUDEDAREASOLID(#81,#85,#86,0.40000000000000002);
#88=IFCSHAPEREPRESENTATION(#16,'Body','SweptSolid',(#87));
#89=IFCPRODUCTDEFINITIONSHAPE($,$,(#88));
#90=IFCOWNERHISTORY(#3,#4,.READWRITE.,.ADDED.,1789307102,#3,#4,1789307102);
#91=IFCRELVOIDSELEMENT('1QKiW$wPvEROwRz403o$Au',#90,$,$,#45,#69);
#92=IFCCARTESIANPOINT((0.,0.,0.));
#93=IFCDIRECTION((0.,0.,1.));
#94=IFCDIRECTION((1.,0.,0.));
#95=IFCAXIS2PLACEMENT3D(#92,#93,#94);
#96=IFCLOCALPLACEMENT(#52,#95);
#97=IFCOWNERHISTORY(#3,#4,.READWRITE.,.MODIFIED.,1789307102,#3,#4,1789307102);
#98=IFCDUCTSEGMENT('2Lh6y2B1nDjO0BjvHEQUEx',#97,'LK-01',$,'RECTANGULARDUCT',#103,#118,$,.USERDEFINED.);
#99=IFCCARTESIANPOINT((2.7999999999999998,2.25,2.2999999999999998));
#100=IFCDIRECTION((1.,0.,0.));
#101=IFCDIRECTION((0.,1.,0.));
#102=IFCAXIS2PLACEMENT3D(#99,#100,#101);
#103=IFCLOCALPLACEMENT(#43,#102);
#104=IFCCARTESIANPOINT((0.,0.,0.));
#105=IFCCARTESIANPOINT((0.5,0.,0.));
#106=IFCCARTESIANPOINT((0.5,0.30000000000000004,0.));
#107=IFCCARTESIANPOINT((0.,0.30000000000000004,0.));
#108=IFCCARTESIANPOINT((0.,0.,0.));
#109=IFCPOLYLINE((#104,#105,#106,#107,#108));
#110=IFCARBITRARYCLOSEDPROFILEDEF(.AREA.,$,#109);
#111=IFCCARTESIANPOINT((0.,0.,0.));
#112=IFCDIRECTION((0.,0.,1.));
#113=IFCDIRECTION((1.,0.,0.));
#114=IFCAXIS2PLACEMENT3D(#111,#112,#113);
#115=IFCDIRECTION((0.,0.,1.));
#116=IFCEXTRUDEDAREASOLID(#110,#114,#115,2.6000000000000001);
#117=IFCSHAPEREPRESENTATION(#16,'Body','SweptSolid',(#116));
#118=IFCPRODUCTDEFINITIONSHAPE($,$,(#117));
#119=IFCOWNERHISTORY(#3,#4,.READWRITE.,.ADDED.,1789307102,#3,#4,1789307102);
#120=IFCELEMENTQUANTITY('2naIDcP15AkgxAxFZWVUMP',#119,'Qto_OpeningElementBaseQuantities',$,'BaseQuantities',(#123,#124));
#121=IFCOWNERHISTORY(#3,#4,.READWRITE.,.ADDED.,1789307102,#3,#4,1789307102);
#122=IFCRELDEFINESBYPROPERTIES('1WemNUD5P5pxGpGubRJH4K',#121,$,$,(#69),#120);
#123=IFCQUANTITYLENGTH('Width',$,$,0.59999999999999998,$);
#124=IFCQUANTITYLENGTH('Height',$,$,0.40000000000000002,$);
#125=IFCOWNERHISTORY(#3,#4,.READWRITE.,.ADDED.,1789307102,#3,#4,1789307102);
#126=IFCPROPERTYSET('2qVRFgBR12yQE7TSR8BW8V',#125,'Pset_OpeningElementCommon',$,(#129,#130));
#127=IFCOWNERHISTORY(#3,#4,.READWRITE.,.ADDED.,1789307102,#3,#4,1789307102);
#128=IFCRELDEFINESBYPROPERTIES('3B95EnNd5DzPO3IhBAAKCY',#127,$,$,(#69),#126);
#129=IFCPROPERTYSINGLEVALUE('Reference',$,IFCIDENTIFIER('D-01'),$);
#130=IFCPROPERTYSINGLEVALUE('Status',$,IFCLABEL('NEW'),$);
ENDSEC;
END-ISO-10303-21;
