ISO-10303-21;
HEADER;
FILE_DESCRIPTION(('ViewDefinition[DesignTransferView]'),'2;1');
FILE_NAME('/dev/null','2026-09-18T18:30:18+02:00',(''),(''),'IfcOpenShell 0.8.5','IfcOpenShell 0.8.5','Nobody');
FILE_SCHEMA(('IFC4'));
ENDSEC;
DATA;
#1=IFCPERSON('catalog-pipeline','Pipeline','Catalog',$,$,$,$,$);
#2=IFCORGANIZATION('pragmaticBIM','pragmaticBIM',$,$,$);
#3=IFCPERSONANDORGANIZATION(#1,#2,$);
#4=IFCAPPLICATION(#2,'0.1.0','Catalog IFC Pipeline','catalog-ifc-pipeline');
#5=IFCOWNERHISTORY(#3,#4,.READWRITE.,.ADDED.,1789749018,#3,#4,1789749018);
#6=IFCPROJECT('1Nuqg0KDH0FuOSnZJzNYKP',#5,'Catalog \X2\2014\X0\ 101',$,$,$,$,(#15),#10);
#7=IFCSIUNIT(*,.LENGTHUNIT.,$,.METRE.);
#8=IFCSIUNIT(*,.AREAUNIT.,$,.SQUARE_METRE.);
#9=IFCSIUNIT(*,.VOLUMEUNIT.,$,.CUBIC_METRE.);
#10=IFCUNITASSIGNMENT((#9,#7,#8));
#11=IFCCARTESIANPOINT((0.,0.,0.));
#12=IFCDIRECTION((0.,0.,1.));
#13=IFCDIRECTION((1.,0.,0.));
#14=IFCAXIS2PLACEMENT3D(#11,#12,#13);
#15=IFCGEOMETRICREPRESENTATIONCONTEXT($,'Model',3,1.0000000000000001E-05,#14,$);
#16=IFCGEOMETRICREPRESENTATIONSUBCONTEXT('Body','Model',*,*,*,*,#15,$,.MODEL_VIEW.,$);
#17=IFCOWNERHISTORY(#3,#4,.READWRITE.,.MODIFIED.,1789749018,#3,#4,1789749018);
#18=IFCSITE('2ryUC9RUv1Cg4cFpH7AUuQ',#17,'Site',$,$,#29,$,$,$,$,$,$,$,$);
#19=IFCOWNERHISTORY(#3,#4,.READWRITE.,.MODIFIED.,1789749018,#3,#4,1789749018);
#20=IFCBUILDING('11B_vAevL6Vgn1FO2NwSiU',#19,'Building',$,$,#34,$,$,$,$,$,$);
#21=IFCOWNERHISTORY(#3,#4,.READWRITE.,.ADDED.,1789749018,#3,#4,1789749018);
#22=IFCRELAGGREGATES('2fJQyXzezEKu_TX4QZ7uzW',#21,$,$,#6,(#18));
#23=IFCOWNERHISTORY(#3,#4,.READWRITE.,.ADDED.,1789749018,#3,#4,1789749018);
#24=IFCRELAGGREGATES('1wbZJUN8P2H9sEe5fpjdqd',#23,$,$,#18,(#20));
#25=IFCCARTESIANPOINT((0.,0.,0.));
#26=IFCDIRECTION((0.,0.,1.));
#27=IFCDIRECTION((1.,0.,0.));
#28=IFCAXIS2PLACEMENT3D(#25,#26,#27);
#29=IFCLOCALPLACEMENT($,#28);
#30=IFCCARTESIANPOINT((0.,0.,0.));
#31=IFCDIRECTION((0.,0.,1.));
#32=IFCDIRECTION((1.,0.,0.));
#33=IFCAXIS2PLACEMENT3D(#30,#31,#32);
#34=IFCLOCALPLACEMENT(#29,#33);
#35=IFCOWNERHISTORY(#3,#4,.READWRITE.,.MODIFIED.,1789749018,#3,#4,1789749018);
#36=IFCBUILDINGSTOREY('0BXWEVAX9AoR8RiXMXosYJ',#35,'Level 0',$,$,#43,$,$,$,0.);
#37=IFCOWNERHISTORY(#3,#4,.READWRITE.,.ADDED.,1789749018,#3,#4,1789749018);
#38=IFCRELAGGREGATES('0xxCNfgQn7FQCg1QsaJwws',#37,$,$,#20,(#36));
#39=IFCCARTESIANPOINT((0.,0.,0.));
#40=IFCDIRECTION((0.,0.,1.));
#41=IFCDIRECTION((1.,0.,0.));
#42=IFCAXIS2PLACEMENT3D(#39,#40,#41);
#43=IFCLOCALPLACEMENT(#34,#42);
#44=IFCOWNERHISTORY(#3,#4,.READWRITE.,.MODIFIED.,1789749018,#3,#4,1789749018);
#45=IFCSLAB('3lk8NY1qr2txj9kKOC5rB3',#44,'101-FloorSlab',$,$,#52,#67,$,.FLOOR.);
#46=IFCOWNERHISTORY(#3,#4,.READWRITE.,.MODIFIED.,1789749018,#3,#4,1789749018);
#47=IFCRELCONTAINEDINSPATIALSTRUCTURE('2oBmbcySjA7RURdP8vZ9iC',#46,$,$,(#113,#179,#500,#259,#45,#69,#91,#135,#157,#382,#394),#36);
#48=IFCCARTESIANPOINT((0.,0.,-0.40000000000000002));
#49=IFCDIRECTION((0.,0.,1.));
#50=IFCDIRECTION((1.,0.,0.));
#51=IFCAXIS2PLACEMENT3D(#48,#49,#50);
#52=IFCLOCALPLACEMENT(#43,#51);
#53=IFCCARTESIANPOINT((-0.35999999999999999,-0.35999999999999999,0.));
#54=IFCCARTESIANPOINT((7.5600000000000005,-0.35999999999999999,0.));
#55=IFCCARTESIANPOINT((7.5600000000000005,5.,0.));
#56=IFCCARTESIANPOINT((-0.35999999999999999,5.,0.));
#57=IFCCARTESIANPOINT((-0.35999999999999999,-0.35999999999999999,0.));
#58=IFCPOLYLINE((#53,#54,#55,#56,#57));
#59=IFCARBITRARYCLOSEDPROFILEDEF(.AREA.,$,#58);
#60=IFCCARTESIANPOINT((0.,0.,0.));
#61=IFCDIRECTION((0.,0.,1.));
#62=IFCDIRECTION((1.,0.,0.));
#63=IFCAXIS2PLACEMENT3D(#60,#61,#62);
#64=IFCDIRECTION((0.,0.,1.));
#65=IFCEXTRUDEDAREASOLID(#59,#63,#64,0.29999999999999999);
#66=IFCSHAPEREPRESENTATION(#16,'Body','SweptSolid',(#65));
#67=IFCPRODUCTDEFINITIONSHAPE($,$,(#66));
#68=IFCOWNERHISTORY(#3,#4,.READWRITE.,.MODIFIED.,1789749018,#3,#4,1789749018);
#69=IFCCOVERING('0xP6U8ybfAhwFu7RXrNHR4',#68,'101-FloorCovering',$,$,#74,#89,$,.FLOORING.);
#70=IFCCARTESIANPOINT((0.,0.,-0.10000000000000001));
#71=IFCDIRECTION((0.,0.,1.));
#72=IFCDIRECTION((1.,0.,0.));
#73=IFCAXIS2PLACEMENT3D(#70,#71,#72);
#74=IFCLOCALPLACEMENT(#43,#73);
#75=IFCCARTESIANPOINT((0.,0.,0.));
#76=IFCCARTESIANPOINT((4.,0.,0.));
#77=IFCCARTESIANPOINT((4.,5.,0.));
#78=IFCCARTESIANPOINT((0.,5.,0.));
#79=IFCCARTESIANPOINT((0.,0.,0.));
#80=IFCPOLYLINE((#75,#76,#77,#78,#79));
#81=IFCARBITRARYCLOSEDPROFILEDEF(.AREA.,$,#80);
#82=IFCCARTESIANPOINT((0.,0.,0.));
#83=IFCDIRECTION((0.,0.,1.));
#84=IFCDIRECTION((1.,0.,0.));
#85=IFCAXIS2PLACEMENT3D(#82,#83,#84);
#86=IFCDIRECTION((0.,0.,1.));
#87=IFCEXTRUDEDAREASOLID(#81,#85,#86,0.10000000000000001);
#88=IFCSHAPEREPRESENTATION(#16,'Body','SweptSolid',(#87));
#89=IFCPRODUCTDEFINITIONSHAPE($,$,(#88));
#90=IFCOWNERHISTORY(#3,#4,.READWRITE.,.MODIFIED.,1789749018,#3,#4,1789749018);
#91=IFCCOVERING('3GpYCM_o1C88EDcuHt1Tjd',#90,'101-N-FloorCovering',$,$,#96,#111,$,.FLOORING.);
#92=IFCCARTESIANPOINT((0.,0.,-0.10000000000000001));
#93=IFCDIRECTION((0.,0.,1.));
#94=IFCDIRECTION((1.,0.,0.));
#95=IFCAXIS2PLACEMENT3D(#92,#93,#94);
#96=IFCLOCALPLACEMENT(#43,#95);
#97=IFCCARTESIANPOINT((4.2000000000000002,0.,0.));
#98=IFCCARTESIANPOINT((7.2000000000000002,0.,0.));
#99=IFCCARTESIANPOINT((7.2000000000000002,5.,0.));
#100=IFCCARTESIANPOINT((4.2000000000000002,5.,0.));
#101=IFCCARTESIANPOINT((4.2000000000000002,0.,0.));
#102=IFCPOLYLINE((#97,#98,#99,#100,#101));
#103=IFCARBITRARYCLOSEDPROFILEDEF(.AREA.,$,#102);
#104=IFCCARTESIANPOINT((0.,0.,0.));
#105=IFCDIRECTION((0.,0.,1.));
#106=IFCDIRECTION((1.,0.,0.));
#107=IFCAXIS2PLACEMENT3D(#104,#105,#106);
#108=IFCDIRECTION((0.,0.,1.));
#109=IFCEXTRUDEDAREASOLID(#103,#107,#108,0.10000000000000001);
#110=IFCSHAPEREPRESENTATION(#16,'Body','SweptSolid',(#109));
#111=IFCPRODUCTDEFINITIONSHAPE($,$,(#110));
#112=IFCOWNERHISTORY(#3,#4,.READWRITE.,.MODIFIED.,1789749018,#3,#4,1789749018);
#113=IFCWALL('318$5XQGD3eh8Sp$eC$TQL',#112,'101-Partition',$,$,#118,#133,$,.PARTITIONING.);
#114=IFCCARTESIANPOINT((4.2000000000000002,0.,-0.10000000000000001));
#115=IFCDIRECTION((0.,0.,1.));
#116=IFCDIRECTION((0.,1.,0.));
#117=IFCAXIS2PLACEMENT3D(#114,#115,#116);
#118=IFCLOCALPLACEMENT(#43,#117);
#119=IFCCARTESIANPOINT((0.,0.,0.));
#120=IFCCARTESIANPOINT((5.,0.,0.));
#121=IFCCARTESIANPOINT((5.,0.20000000000000001,0.));
#122=IFCCARTESIANPOINT((0.,0.20000000000000001,0.));
#123=IFCCARTESIANPOINT((0.,0.,0.));
#124=IFCPOLYLINE((#119,#120,#121,#122,#123));
#125=IFCARBITRARYCLOSEDPROFILEDEF(.AREA.,$,#124);
#126=IFCCARTESIANPOINT((0.,0.,0.));
#127=IFCDIRECTION((0.,0.,1.));
#128=IFCDIRECTION((1.,0.,0.));
#129=IFCAXIS2PLACEMENT3D(#126,#127,#128);
#130=IFCDIRECTION((0.,0.,1.));
#131=IFCEXTRUDEDAREASOLID(#125,#129,#130,2.8999999999999999);
#132=IFCSHAPEREPRESENTATION(#16,'Body','SweptSolid',(#131));
#133=IFCPRODUCTDEFINITIONSHAPE($,$,(#132));
#134=IFCOWNERHISTORY(#3,#4,.READWRITE.,.MODIFIED.,1789749018,#3,#4,1789749018);
#135=IFCWALL('2nBK5tYaHC6Aj_nljiELbg',#134,'101-EnvelopeWest',$,$,#140,#155,$,.SOLIDWALL.);
#136=IFCCARTESIANPOINT((0.,0.,-0.10000000000000001));
#137=IFCDIRECTION((0.,0.,1.));
#138=IFCDIRECTION((0.,1.,0.));
#139=IFCAXIS2PLACEMENT3D(#136,#137,#138);
#140=IFCLOCALPLACEMENT(#43,#139);
#141=IFCCARTESIANPOINT((0.,0.,0.));
#142=IFCCARTESIANPOINT((5.,0.,0.));
#143=IFCCARTESIANPOINT((5.,0.35999999999999999,0.));
#144=IFCCARTESIANPOINT((0.,0.35999999999999999,0.));
#145=IFCCARTESIANPOINT((0.,0.,0.));
#146=IFCPOLYLINE((#141,#142,#143,#144,#145));
#147=IFCARBITRARYCLOSEDPROFILEDEF(.AREA.,$,#146);
#148=IFCCARTESIANPOINT((0.,0.,0.));
#149=IFCDIRECTION((0.,0.,1.));
#150=IFCDIRECTION((1.,0.,0.));
#151=IFCAXIS2PLACEMENT3D(#148,#149,#150);
#152=IFCDIRECTION((0.,0.,1.));
#153=IFCEXTRUDEDAREASOLID(#147,#151,#152,2.8999999999999999);
#154=IFCSHAPEREPRESENTATION(#16,'Body','SweptSolid',(#153));
#155=IFCPRODUCTDEFINITIONSHAPE($,$,(#154));
#156=IFCOWNERHISTORY(#3,#4,.READWRITE.,.MODIFIED.,1789749018,#3,#4,1789749018);
#157=IFCWALL('349VpPnGjEnPg7oMKqf5WK',#156,'101-EnvelopeEast',$,$,#162,#177,$,.SOLIDWALL.);
#158=IFCCARTESIANPOINT((7.5600000000000005,0.,-0.10000000000000001));
#159=IFCDIRECTION((0.,0.,1.));
#160=IFCDIRECTION((0.,1.,0.));
#161=IFCAXIS2PLACEMENT3D(#158,#159,#160);
#162=IFCLOCALPLACEMENT(#43,#161);
#163=IFCCARTESIANPOINT((0.,0.,0.));
#164=IFCCARTESIANPOINT((5.,0.,0.));
#165=IFCCARTESIANPOINT((5.,0.35999999999999999,0.));
#166=IFCCARTESIANPOINT((0.,0.35999999999999999,0.));
#167=IFCCARTESIANPOINT((0.,0.,0.));
#168=IFCPOLYLINE((#163,#164,#165,#166,#167));
#169=IFCARBITRARYCLOSEDPROFILEDEF(.AREA.,$,#168);
#170=IFCCARTESIANPOINT((0.,0.,0.));
#171=IFCDIRECTION((0.,0.,1.));
#172=IFCDIRECTION((1.,0.,0.));
#173=IFCAXIS2PLACEMENT3D(#170,#171,#172);
#174=IFCDIRECTION((0.,0.,1.));
#175=IFCEXTRUDEDAREASOLID(#169,#173,#174,2.8999999999999999);
#176=IFCSHAPEREPRESENTATION(#16,'Body','SweptSolid',(#175));
#177=IFCPRODUCTDEFINITIONSHAPE($,$,(#176));
#178=IFCOWNERHISTORY(#3,#4,.READWRITE.,.MODIFIED.,1789749018,#3,#4,1789749018);
#179=IFCWALL('0OllPgAfHAtg25NVVuax2z',#178,'101-EnvelopeSouth',$,$,#184,#199,$,.SOLIDWALL.);
#180=IFCCARTESIANPOINT((-0.35999999999999999,-0.35999999999999999,-0.10000000000000001));
#181=IFCDIRECTION((0.,0.,1.));
#182=IFCDIRECTION((1.,0.,0.));
#183=IFCAXIS2PLACEMENT3D(#180,#181,#182);
#184=IFCLOCALPLACEMENT(#43,#183);
#185=IFCCARTESIANPOINT((0.,0.,0.));
#186=IFCCARTESIANPOINT((7.9199999999999999,0.,0.));
#187=IFCCARTESIANPOINT((7.9199999999999999,0.35999999999999999,0.));
#188=IFCCARTESIANPOINT((0.,0.35999999999999999,0.));
#189=IFCCARTESIANPOINT((0.,0.,0.));
#190=IFCPOLYLINE((#185,#186,#187,#188,#189));
#191=IFCARBITRARYCLOSEDPROFILEDEF(.AREA.,$,#190);
#192=IFCCARTESIANPOINT((0.,0.,0.));
#193=IFCDIRECTION((0.,0.,1.));
#194=IFCDIRECTION((1.,0.,0.));
#195=IFCAXIS2PLACEMENT3D(#192,#193,#194);
#196=IFCDIRECTION((0.,0.,1.));
#197=IFCEXTRUDEDAREASOLID(#191,#195,#196,2.8999999999999999);
#198=IFCSHAPEREPRESENTATION(#16,'Body','SweptSolid',(#197));
#199=IFCPRODUCTDEFINITIONSHAPE($,$,(#198));
#200=IFCOWNERHISTORY(#3,#4,.READWRITE.,.MODIFIED.,1789749018,#3,#4,1789749018);
#201=IFCOPENINGELEMENT('3OleqaMsLCyQHPKg2XCrv2',#200,'101-DoorOpening',$,$,#228,#221,$,.OPENING.);
#207=IFCCARTESIANPOINT((3.6999999999999997,-0.01,0.));
#208=IFCCARTESIANPOINT((4.5999999999999996,-0.01,0.));
#209=IFCCARTESIANPOINT((4.5999999999999996,0.22,0.));
#210=IFCCARTESIANPOINT((3.6999999999999997,0.22,0.));
#211=IFCCARTESIANPOINT((3.6999999999999997,-0.01,0.));
#212=IFCPOLYLINE((#207,#208,#209,#210,#211));
#213=IFCARBITRARYCLOSEDPROFILEDEF(.AREA.,$,#212);
#214=IFCCARTESIANPOINT((0.,0.,0.));
#215=IFCDIRECTION((0.,0.,1.));
#216=IFCDIRECTION((1.,0.,0.));
#217=IFCAXIS2PLACEMENT3D(#214,#215,#216);
#218=IFCDIRECTION((0.,0.,1.));
#219=IFCEXTRUDEDAREASOLID(#213,#217,#218,2.1000000000000001);
#220=IFCSHAPEREPRESENTATION(#16,'Body','SweptSolid',(#219));
#221=IFCPRODUCTDEFINITIONSHAPE($,$,(#220));
#222=IFCOWNERHISTORY(#3,#4,.READWRITE.,.ADDED.,1789749018,#3,#4,1789749018);
#223=IFCRELVOIDSELEMENT('3pRTtwZd5DauhQibhiW5oa',#222,$,$,#113,#201);
#224=IFCCARTESIANPOINT((0.,0.,0.));
#225=IFCDIRECTION((0.,0.,1.));
#226=IFCDIRECTION((1.,0.,0.));
#227=IFCAXIS2PLACEMENT3D(#224,#225,#226);
#228=IFCLOCALPLACEMENT(#118,#227);
#229=IFCOWNERHISTORY(#3,#4,.READWRITE.,.MODIFIED.,1789749018,#3,#4,1789749018);
#230=IFCOPENINGELEMENT('2k93aAwDrEwA6eQ5bh5$6B',#229,'101-WindowOpening',$,$,#257,#250,$,.OPENING.);
#236=IFCCARTESIANPOINT((0.40000000000000002,-0.01,0.));
#237=IFCCARTESIANPOINT((1.6000000000000001,-0.01,0.));
#238=IFCCARTESIANPOINT((1.6000000000000001,0.22,0.));
#239=IFCCARTESIANPOINT((0.40000000000000002,0.22,0.));
#240=IFCCARTESIANPOINT((0.40000000000000002,-0.01,0.));
#241=IFCPOLYLINE((#236,#237,#238,#239,#240));
#242=IFCARBITRARYCLOSEDPROFILEDEF(.AREA.,$,#241);
#243=IFCCARTESIANPOINT((0.,0.,0.90000000000000002));
#244=IFCDIRECTION((0.,0.,1.));
#245=IFCDIRECTION((1.,0.,0.));
#246=IFCAXIS2PLACEMENT3D(#243,#244,#245);
#247=IFCDIRECTION((0.,0.,1.));
#248=IFCEXTRUDEDAREASOLID(#242,#246,#247,1.3999999999999999);
#249=IFCSHAPEREPRESENTATION(#16,'Body','SweptSolid',(#248));
#250=IFCPRODUCTDEFINITIONSHAPE($,$,(#249));
#251=IFCOWNERHISTORY(#3,#4,.READWRITE.,.ADDED.,1789749018,#3,#4,1789749018);
#252=IFCRELVOIDSELEMENT('3fVy8$kofBpvxdrPKxfRk4',#251,$,$,#113,#230);
#253=IFCCARTESIANPOINT((0.,0.,0.));
#254=IFCDIRECTION((0.,0.,1.));
#255=IFCDIRECTION((1.,0.,0.));
#256=IFCAXIS2PLACEMENT3D(#253,#254,#255);
#257=IFCLOCALPLACEMENT(#118,#256);
#258=IFCOWNERHISTORY(#3,#4,.READWRITE.,.MODIFIED.,1789749018,#3,#4,1789749018);
#259=IFCDOOR('07S1G0ra54Uv7xlr8cZ7pr',#258,'IT-01',$,$,#264,#371,$,$,$,.DOOR.,$,$);
#260=IFCCARTESIANPOINT((4.2000000000000002,0.,-0.10000000000000001));
#261=IFCDIRECTION((0.,0.,1.));
#262=IFCDIRECTION((0.,1.,0.));
#263=IFCAXIS2PLACEMENT3D(#260,#261,#262);
#264=IFCLOCALPLACEMENT(#43,#263);
#265=IFCCARTESIANPOINT((3.6999999999999997,-0.,0.));
#266=IFCCARTESIANPOINT((3.7999999999999998,-0.,0.));
#267=IFCCARTESIANPOINT((3.7999999999999998,0.11000000000000001,0.));
#268=IFCCARTESIANPOINT((3.6999999999999997,0.11000000000000001,0.));
#269=IFCCARTESIANPOINT((3.6999999999999997,-0.,0.));
#270=IFCPOLYLINE((#265,#266,#267,#268,#269));
#271=IFCARBITRARYCLOSEDPROFILEDEF(.AREA.,$,#270);
#272=IFCCARTESIANPOINT((0.,0.,0.));
#273=IFCDIRECTION((0.,0.,1.));
#274=IFCDIRECTION((1.,0.,0.));
#275=IFCAXIS2PLACEMENT3D(#272,#273,#274);
#276=IFCDIRECTION((0.,0.,1.));
#277=IFCEXTRUDEDAREASOLID(#271,#275,#276,2.1000000000000001);
#278=IFCCARTESIANPOINT((4.5,-0.,0.));
#279=IFCCARTESIANPOINT((4.5999999999999996,-0.,0.));
#280=IFCCARTESIANPOINT((4.5999999999999996,0.11000000000000001,0.));
#281=IFCCARTESIANPOINT((4.5,0.11000000000000001,0.));
#282=IFCCARTESIANPOINT((4.5,-0.,0.));
#283=IFCPOLYLINE((#278,#279,#280,#281,#282));
#284=IFCARBITRARYCLOSEDPROFILEDEF(.AREA.,$,#283);
#285=IFCCARTESIANPOINT((0.,0.,0.));
#286=IFCDIRECTION((0.,0.,1.));
#287=IFCDIRECTION((1.,0.,0.));
#288=IFCAXIS2PLACEMENT3D(#285,#286,#287);
#289=IFCDIRECTION((0.,0.,1.));
#290=IFCEXTRUDEDAREASOLID(#284,#288,#289,2.1000000000000001);
#291=IFCCARTESIANPOINT((3.7999999999999998,-0.,0.));
#292=IFCCARTESIANPOINT((4.5,-0.,0.));
#293=IFCCARTESIANPOINT((4.5,0.11000000000000001,0.));
#294=IFCCARTESIANPOINT((3.7999999999999998,0.11000000000000001,0.));
#295=IFCCARTESIANPOINT((3.7999999999999998,-0.,0.));
#296=IFCPOLYLINE((#291,#292,#293,#294,#295));
#297=IFCARBITRARYCLOSEDPROFILEDEF(.AREA.,$,#296);
#298=IFCCARTESIANPOINT((0.,0.,2.));
#299=IFCDIRECTION((0.,0.,1.));
#300=IFCDIRECTION((1.,0.,0.));
#301=IFCAXIS2PLACEMENT3D(#298,#299,#300);
#302=IFCDIRECTION((0.,0.,1.));
#303=IFCEXTRUDEDAREASOLID(#297,#301,#302,0.10000000000000009);
#304=IFCCARTESIANPOINT((3.7999999999999998,-0.,0.));
#305=IFCCARTESIANPOINT((4.5,-0.,0.));
#306=IFCCARTESIANPOINT((4.5,0.11000000000000001,0.));
#307=IFCCARTESIANPOINT((3.7999999999999998,0.11000000000000001,0.));
#308=IFCCARTESIANPOINT((3.7999999999999998,-0.,0.));
#309=IFCPOLYLINE((#304,#305,#306,#307,#308));
#310=IFCARBITRARYCLOSEDPROFILEDEF(.AREA.,$,#309);
#311=IFCCARTESIANPOINT((0.,0.,0.));
#312=IFCDIRECTION((0.,0.,1.));
#313=IFCDIRECTION((1.,0.,0.));
#314=IFCAXIS2PLACEMENT3D(#311,#312,#313);
#315=IFCDIRECTION((0.,0.,1.));
#316=IFCEXTRUDEDAREASOLID(#310,#314,#315,0.025000000000000001);
#317=IFCCARTESIANPOINT((3.7999999999999998,-0.,0.));
#318=IFCCARTESIANPOINT((4.5,-0.,0.));
#319=IFCCARTESIANPOINT((4.5,0.11000000000000001,0.));
#320=IFCCARTESIANPOINT((3.7999999999999998,0.11000000000000001,0.));
#321=IFCCARTESIANPOINT((3.7999999999999998,-0.,0.));
#322=IFCPOLYLINE((#317,#318,#319,#320,#321));
#323=IFCARBITRARYCLOSEDPROFILEDEF(.AREA.,$,#322);
#324=IFCCARTESIANPOINT((0.,0.,1.0662500000000001));
#325=IFCDIRECTION((0.,0.,1.));
#326=IFCDIRECTION((1.,0.,0.));
#327=IFCAXIS2PLACEMENT3D(#324,#325,#326);
#328=IFCDIRECTION((0.,0.,1.));
#329=IFCEXTRUDEDAREASOLID(#323,#327,#328,0.089999999999999858);
#330=IFCCARTESIANPOINT((3.7999999999999998,0.014999999999999999,0.));
#331=IFCCARTESIANPOINT((4.5,0.014999999999999999,0.));
#332=IFCCARTESIANPOINT((4.5,0.055,0.));
#333=IFCCARTESIANPOINT((3.7999999999999998,0.055,0.));
#334=IFCCARTESIANPOINT((3.7999999999999998,0.014999999999999999,0.));
#335=IFCPOLYLINE((#330,#331,#332,#333,#334));
#336=IFCARBITRARYCLOSEDPROFILEDEF(.AREA.,$,#335);
#337=IFCCARTESIANPOINT((0.,0.,0.025000000000000001));
#338=IFCDIRECTION((0.,0.,1.));
#339=IFCDIRECTION((1.,0.,0.));
#340=IFCAXIS2PLACEMENT3D(#337,#338,#339);
#341=IFCDIRECTION((0.,0.,1.));
#342=IFCEXTRUDEDAREASOLID(#336,#340,#341,1.0412500000000002);
#343=IFCCARTESIANPOINT((3.7999999999999998,0.014999999999999999,0.));
#344=IFCCARTESIANPOINT((4.5,0.014999999999999999,0.));
#345=IFCCARTESIANPOINT((4.5,0.055,0.));
#346=IFCCARTESIANPOINT((3.7999999999999998,0.055,0.));
#347=IFCCARTESIANPOINT((3.7999999999999998,0.014999999999999999,0.));
#348=IFCPOLYLINE((#343,#344,#345,#346,#347));
#349=IFCARBITRARYCLOSEDPROFILEDEF(.AREA.,$,#348);
#350=IFCCARTESIANPOINT((0.,0.,1.15625));
#351=IFCDIRECTION((0.,0.,1.));
#352=IFCDIRECTION((1.,0.,0.));
#353=IFCAXIS2PLACEMENT3D(#350,#351,#352);
#354=IFCDIRECTION((0.,0.,1.));
#355=IFCEXTRUDEDAREASOLID(#349,#353,#354,0.84375);
#356=IFCSURFACESTYLE('Frame',.BOTH.,(#357));
#357=IFCSURFACESTYLESHADING(#358,0.);
#358=IFCCOLOURRGB($,1.,1.,1.);
#359=IFCSURFACESTYLE('Glass',.BOTH.,(#360));
#360=IFCSURFACESTYLESHADING(#361,0.69999999999999996);
#361=IFCCOLOURRGB($,0.69999999999999996,0.84999999999999998,0.94999999999999996);
#362=IFCMATERIAL('Frame',$,'metal');
#363=IFCMATERIAL('Glass',$,'glass');
#364=IFCSTYLEDITEM($,(#356),'Frame');
#365=IFCSTYLEDREPRESENTATION(#16,'Body',$,(#364));
#366=IFCMATERIALDEFINITIONREPRESENTATION($,$,(#365),#362);
#367=IFCSTYLEDITEM($,(#359),'Glass');
#368=IFCSTYLEDREPRESENTATION(#16,'Body',$,(#367));
#369=IFCMATERIALDEFINITIONREPRESENTATION($,$,(#368),#363);
#370=IFCSHAPEREPRESENTATION(#16,'Body','SweptSolid',(#277,#290,#303,#316,#329,#342));
#371=IFCPRODUCTDEFINITIONSHAPE($,$,(#370));
#372=IFCSTYLEDITEM(#277,(#356),$);
#373=IFCSTYLEDITEM(#290,(#356),$);
#374=IFCSTYLEDITEM(#303,(#356),$);
#375=IFCSTYLEDITEM(#316,(#356),$);
#376=IFCSTYLEDITEM(#329,(#356),$);
#377=IFCSTYLEDITEM(#342,(#356),$);
#378=IFCOWNERHISTORY(#3,#4,.READWRITE.,.MODIFIED.,1789749018,#3,#4,1789749018);
#379=IFCRELASSOCIATESMATERIAL('3_A5wMRvH6i91IiTcxn6NB',#378,$,$,(#259,#394),#362);
#380=IFCRELFILLSELEMENT('1TPWSlP0f7POkZRpI$Q1v4',$,$,$,#201,#259);
#381=IFCOWNERHISTORY(#3,#4,.READWRITE.,.MODIFIED.,1789749018,#3,#4,1789749018);
#382=IFCPLATE('3qu$7LzHT4gPDGFGmrUU4s',#381,'101-InteriorDoor-Glass',$,'Glass',#387,#389,$,.CURTAIN_PANEL.);
#383=IFCCARTESIANPOINT((4.2000000000000002,0.,-0.10000000000000001));
#384=IFCDIRECTION((0.,0.,1.));
#385=IFCDIRECTION((0.,1.,0.));
#386=IFCAXIS2PLACEMENT3D(#383,#384,#385);
#387=IFCLOCALPLACEMENT(#43,#386);
#388=IFCSHAPEREPRESENTATION(#16,'Body','SweptSolid',(#355));
#389=IFCPRODUCTDEFINITIONSHAPE($,$,(#388));
#390=IFCSTYLEDITEM(#355,(#359),$);
#391=IFCOWNERHISTORY(#3,#4,.READWRITE.,.MODIFIED.,1789749018,#3,#4,1789749018);
#392=IFCRELASSOCIATESMATERIAL('038pHzt1v7Hhfl3Dp7wGKd',#391,$,$,(#382,#500),#363);
#393=IFCOWNERHISTORY(#3,#4,.READWRITE.,.MODIFIED.,1789749018,#3,#4,1789749018);
#394=IFCWINDOW('3PEXi$$e946hzaq3JvMAH4',#393,'101-InteriorWindow',$,$,#399,#492,$,$,$,.WINDOW.,$,$);
#395=IFCCARTESIANPOINT((4.2000000000000002,0.,-0.10000000000000001));
#396=IFCDIRECTION((0.,0.,1.));
#397=IFCDIRECTION((0.,1.,0.));
#398=IFCAXIS2PLACEMENT3D(#395,#396,#397);
#399=IFCLOCALPLACEMENT(#43,#398);
#400=IFCCARTESIANPOINT((0.40000000000000002,-0.,0.));
#401=IFCCARTESIANPOINT((0.5,-0.,0.));
#402=IFCCARTESIANPOINT((0.5,0.11000000000000001,0.));
#403=IFCCARTESIANPOINT((0.40000000000000002,0.11000000000000001,0.));
#404=IFCCARTESIANPOINT((0.40000000000000002,-0.,0.));
#405=IFCPOLYLINE((#400,#401,#402,#403,#404));
#406=IFCARBITRARYCLOSEDPROFILEDEF(.AREA.,$,#405);
#407=IFCCARTESIANPOINT((0.,0.,0.90000000000000002));
#408=IFCDIRECTION((0.,0.,1.));
#409=IFCDIRECTION((1.,0.,0.));
#410=IFCAXIS2PLACEMENT3D(#407,#408,#409);
#411=IFCDIRECTION((0.,0.,1.));
#412=IFCEXTRUDEDAREASOLID(#406,#410,#411,1.3999999999999999);
#413=IFCCARTESIANPOINT((1.5,-0.,0.));
#414=IFCCARTESIANPOINT((1.6000000000000001,-0.,0.));
#415=IFCCARTESIANPOINT((1.6000000000000001,0.11000000000000001,0.));
#416=IFCCARTESIANPOINT((1.5,0.11000000000000001,0.));
#417=IFCCARTESIANPOINT((1.5,-0.,0.));
#418=IFCPOLYLINE((#413,#414,#415,#416,#417));
#419=IFCARBITRARYCLOSEDPROFILEDEF(.AREA.,$,#418);
#420=IFCCARTESIANPOINT((0.,0.,0.90000000000000002));
#421=IFCDIRECTION((0.,0.,1.));
#422=IFCDIRECTION((1.,0.,0.));
#423=IFCAXIS2PLACEMENT3D(#420,#421,#422);
#424=IFCDIRECTION((0.,0.,1.));
#425=IFCEXTRUDEDAREASOLID(#419,#423,#424,1.3999999999999999);
#426=IFCCARTESIANPOINT((0.5,-0.,0.));
#427=IFCCARTESIANPOINT((1.5,-0.,0.));
#428=IFCCARTESIANPOINT((1.5,0.11000000000000001,0.));
#429=IFCCARTESIANPOINT((0.5,0.11000000000000001,0.));
#430=IFCCARTESIANPOINT((0.5,-0.,0.));
#431=IFCPOLYLINE((#426,#427,#428,#429,#430));
#432=IFCARBITRARYCLOSEDPROFILEDEF(.AREA.,$,#431);
#433=IFCCARTESIANPOINT((0.,0.,2.1999999999999997));
#434=IFCDIRECTION((0.,0.,1.));
#435=IFCDIRECTION((1.,0.,0.));
#436=IFCAXIS2PLACEMENT3D(#433,#434,#435);
#437=IFCDIRECTION((0.,0.,1.));
#438=IFCEXTRUDEDAREASOLID(#432,#436,#437,0.10000000000000009);
#439=IFCCARTESIANPOINT((0.5,-0.,0.));
#440=IFCCARTESIANPOINT((1.5,-0.,0.));
#441=IFCCARTESIANPOINT((1.5,0.11000000000000001,0.));
#442=IFCCARTESIANPOINT((0.5,0.11000000000000001,0.));
#443=IFCCARTESIANPOINT((0.5,-0.,0.));
#444=IFCPOLYLINE((#439,#440,#441,#442,#443));
#445=IFCARBITRARYCLOSEDPROFILEDEF(.AREA.,$,#444);
#446=IFCCARTESIANPOINT((0.,0.,0.90000000000000002));
#447=IFCDIRECTION((0.,0.,1.));
#448=IFCDIRECTION((1.,0.,0.));
#449=IFCAXIS2PLACEMENT3D(#446,#447,#448);
#450=IFCDIRECTION((0.,0.,1.));
#451=IFCEXTRUDEDAREASOLID(#445,#449,#450,0.099999999999999978);
#452=IFCCARTESIANPOINT((0.95999999999999996,-0.,0.));
#453=IFCCARTESIANPOINT((1.04,-0.,0.));
#454=IFCCARTESIANPOINT((1.04,0.11000000000000001,0.));
#455=IFCCARTESIANPOINT((0.95999999999999996,0.11000000000000001,0.));
#456=IFCCARTESIANPOINT((0.95999999999999996,-0.,0.));
#457=IFCPOLYLINE((#452,#453,#454,#455,#456));
#458=IFCARBITRARYCLOSEDPROFILEDEF(.AREA.,$,#457);
#459=IFCCARTESIANPOINT((0.,0.,1.));
#460=IFCDIRECTION((0.,0.,1.));
#461=IFCDIRECTION((1.,0.,0.));
#462=IFCAXIS2PLACEMENT3D(#459,#460,#461);
#463=IFCDIRECTION((0.,0.,1.));
#464=IFCEXTRUDEDAREASOLID(#458,#462,#463,1.1999999999999997);
#465=IFCCARTESIANPOINT((0.5,0.014999999999999999,0.));
#466=IFCCARTESIANPOINT((0.95999999999999996,0.014999999999999999,0.));
#467=IFCCARTESIANPOINT((0.95999999999999996,0.055,0.));
#468=IFCCARTESIANPOINT((0.5,0.055,0.));
#469=IFCCARTESIANPOINT((0.5,0.014999999999999999,0.));
#470=IFCPOLYLINE((#465,#466,#467,#468,#469));
#471=IFCARBITRARYCLOSEDPROFILEDEF(.AREA.,$,#470);
#472=IFCCARTESIANPOINT((0.,0.,1.));
#473=IFCDIRECTION((0.,0.,1.));
#474=IFCDIRECTION((1.,0.,0.));
#475=IFCAXIS2PLACEMENT3D(#472,#473,#474);
#476=IFCDIRECTION((0.,0.,1.));
#477=IFCEXTRUDEDAREASOLID(#471,#475,#476,1.1999999999999997);
#478=IFCCARTESIANPOINT((1.04,0.014999999999999999,0.));
#479=IFCCARTESIANPOINT((1.5,0.014999999999999999,0.));
#480=IFCCARTESIANPOINT((1.5,0.055,0.));
#481=IFCCARTESIANPOINT((1.04,0.055,0.));
#482=IFCCARTESIANPOINT((1.04,0.014999999999999999,0.));
#483=IFCPOLYLINE((#478,#479,#480,#481,#482));
#484=IFCARBITRARYCLOSEDPROFILEDEF(.AREA.,$,#483);
#485=IFCCARTESIANPOINT((0.,0.,1.));
#486=IFCDIRECTION((0.,0.,1.));
#487=IFCDIRECTION((1.,0.,0.));
#488=IFCAXIS2PLACEMENT3D(#485,#486,#487);
#489=IFCDIRECTION((0.,0.,1.));
#490=IFCEXTRUDEDAREASOLID(#484,#488,#489,1.1999999999999997);
#491=IFCSHAPEREPRESENTATION(#16,'Body','SweptSolid',(#412,#425,#438,#451,#464));
#492=IFCPRODUCTDEFINITIONSHAPE($,$,(#491));
#493=IFCSTYLEDITEM(#412,(#356),$);
#494=IFCSTYLEDITEM(#425,(#356),$);
#495=IFCSTYLEDITEM(#438,(#356),$);
#496=IFCSTYLEDITEM(#451,(#356),$);
#497=IFCSTYLEDITEM(#464,(#356),$);
#498=IFCRELFILLSELEMENT('2EItHfljv4G9_0EvEEp5Ww',$,$,$,#230,#394);
#499=IFCOWNERHISTORY(#3,#4,.READWRITE.,.MODIFIED.,1789749018,#3,#4,1789749018);
#500=IFCPLATE('0O_3CY9zT1YwB5smoP$Do5',#499,'101-InteriorWindow-Glass',$,'Glass',#505,#507,$,.CURTAIN_PANEL.);
#501=IFCCARTESIANPOINT((4.2000000000000002,0.,-0.10000000000000001));
#502=IFCDIRECTION((0.,0.,1.));
#503=IFCDIRECTION((0.,1.,0.));
#504=IFCAXIS2PLACEMENT3D(#501,#502,#503);
#505=IFCLOCALPLACEMENT(#43,#504);
#506=IFCSHAPEREPRESENTATION(#16,'Body','SweptSolid',(#477,#490));
#507=IFCPRODUCTDEFINITIONSHAPE($,$,(#506));
#508=IFCSTYLEDITEM(#477,(#359),$);
#509=IFCSTYLEDITEM(#490,(#359),$);
#510=IFCOWNERHISTORY(#3,#4,.READWRITE.,.ADDED.,1789749018,#3,#4,1789749018);
#511=IFCELEMENTQUANTITY('1vxRvqbSHENxMINC7T5Zp_',#510,'Qto_DoorBaseQuantities',$,'BaseQuantities',(#514));
#512=IFCOWNERHISTORY(#3,#4,.READWRITE.,.ADDED.,1789749018,#3,#4,1789749018);
#513=IFCRELDEFINESBYPROPERTIES('2iuqtpwtvE0ObHAwAAzUYW',#512,$,$,(#259),#511);
#514=IFCQUANTITYAREA('Area',$,$,1.,$);
#515=IFCOWNERHISTORY(#3,#4,.READWRITE.,.ADDED.,1789749018,#3,#4,1789749018);
#516=IFCELEMENTQUANTITY('2hjuYdAef7lR8itnETW8lA',#515,'Qto_CoveringBaseQuantities',$,'BaseQuantities',(#519));
#517=IFCOWNERHISTORY(#3,#4,.READWRITE.,.ADDED.,1789749018,#3,#4,1789749018);
#518=IFCRELDEFINESBYPROPERTIES('381Mr0aMn9ZB2CoeUM7CYl',#517,$,$,(#259),#516);
#519=IFCQUANTITYAREA('NetArea',$,$,1.8899999999999999,$);
#520=IFCOWNERHISTORY(#3,#4,.READWRITE.,.ADDED.,1789749018,#3,#4,1789749018);
#521=IFCPROPERTYSET('25oI27QMH0NOB6$TVWcjfY',#520,'Pset_DoorCommon',$,(#524,#525,#526,#527,#528));
#522=IFCOWNERHISTORY(#3,#4,.READWRITE.,.ADDED.,1789749018,#3,#4,1789749018);
#523=IFCRELDEFINESBYPROPERTIES('3USBW0TNHBFwPiWiHUqW5R',#522,$,$,(#259),#521);
#524=IFCPROPERTYSINGLEVALUE('Reference',$,IFCIDENTIFIER('IT-01'),$);
#525=IFCPROPERTYSINGLEVALUE('IsExternal',$,IFCBOOLEAN(.F.),$);
#526=IFCPROPERTYSINGLEVALUE('Status',$,IFCLABEL('NEW'),$);
#527=IFCPROPERTYSINGLEVALUE('FireRating',$,IFCLABEL('EI 30'),$);
#528=IFCPROPERTYSINGLEVALUE('AcousticRating',$,IFCLABEL('AcousticRating'),$);
#529=IFCOWNERHISTORY(#3,#4,.READWRITE.,.ADDED.,1789749018,#3,#4,1789749018);
#530=IFCPROPERTYSET('2W98B$6$DEmuXWr71lcmWL',#529,'ePset_Cost',$,(#533,#534,#535,#536,#537,#538,#539,#540));
#531=IFCOWNERHISTORY(#3,#4,.READWRITE.,.ADDED.,1789749018,#3,#4,1789749018);
#532=IFCRELDEFINESBYPROPERTIES('2jOXcgz556Mgj1GYmePyq0',#531,$,$,(#259),#530);
#533=IFCPROPERTYSINGLEVALUE('CostInterface',$,IFCLABEL('CostInterface'),$);
#534=IFCPROPERTYSINGLEVALUE('AwardInterface',$,IFCLABEL('101'),$);
#535=IFCPROPERTYSINGLEVALUE('PlanningInterface',$,IFCLABEL('091'),$);
#536=IFCPROPERTYSINGLEVALUE('eBKP',$,IFCLABEL('G01.05'),$);
#537=IFCPROPERTYSINGLEVALUE('CalculatedType',$,IFCLABEL('T\X2\00FC\X0\r_Innen_1F_B=0.90m_H=2.10m'),$);
#538=IFCPROPERTYSINGLEVALUE('ProductClass',$,IFCLABEL('DCP-WOOD'),$);
#539=IFCPROPERTYSINGLEVALUE('UnitPrice',$,IFCLABEL('UnitPrice'),$);
#540=IFCPROPERTYSINGLEVALUE('ReferenceQuantity',$,IFCLABEL('ReferenceQuantity'),$);
#541=IFCOWNERHISTORY(#3,#4,.READWRITE.,.ADDED.,1789749018,#3,#4,1789749018);
#542=IFCPROPERTYSET('3DDw7$s_96lOb$8CG3_wOF',#541,'ePset_Circularity',$,(#545,#546,#547,#548,#549));
#543=IFCOWNERHISTORY(#3,#4,.READWRITE.,.ADDED.,1789749018,#3,#4,1789749018);
#544=IFCRELDEFINESBYPROPERTIES('2Er_5T$415TgEIxwZ7m$KE',#543,$,$,(#259),#542);
#545=IFCPROPERTYSINGLEVALUE('Connection',$,IFCTEXT('DryConnection'),$);
#546=IFCPROPERTYSINGLEVALUE('Accessibility',$,IFCTEXT('Accessible'),$);
#547=IFCPROPERTYSINGLEVALUE('Reuse',$,IFCREAL(1.),$);
#548=IFCPROPERTYSINGLEVALUE('MaterialOrProductId',$,IFCTEXT('MaterialOrProductId'),$);
#549=IFCPROPERTYSINGLEVALUE('WasteCodes',$,IFCTEXT('WasteCodes'),$);
#550=IFCOWNERHISTORY(#3,#4,.READWRITE.,.ADDED.,1789749018,#3,#4,1789749018);
#551=IFCDOORTYPE('1wF6Q_3NTFCOLz9npdvFlB',#550,'IT-01 Type',$,$,(#555),$,$,$,.NOTDEFINED.,.NOTDEFINED.,$,$);
#552=IFCOWNERHISTORY(#3,#4,.READWRITE.,.ADDED.,1789749018,#3,#4,1789749018);
#553=IFCRELDEFINESBYTYPE('1Xr3LvhcP3fuA995GoGTIU',#552,$,$,(#259),#551);
#554=IFCOWNERHISTORY(#3,#4,.READWRITE.,.ADDED.,1789749018,#3,#4,1789749018);
#555=IFCPROPERTYSET('1i3TLUM_D19xdOWqVnMIs7',#554,'Pset_ManufacturerTypeInformation',$,(#556));
#556=IFCPROPERTYSINGLEVALUE('GlobalTradeItemNumber',$,IFCIDENTIFIER('07612345000015'),$);
#557=IFCOWNERHISTORY(#3,#4,.READWRITE.,.ADDED.,1789749018,#3,#4,1789749018);
#558=IFCPROPERTYSET('0lYtqpd9vBB99eLLjZIBod',#557,'ePset_HazardousMaterial',$,(#561,#562));
#559=IFCOWNERHISTORY(#3,#4,.READWRITE.,.ADDED.,1789749018,#3,#4,1789749018);
#560=IFCRELDEFINESBYPROPERTIES('2gFZVMFPLAx8xEEabWEB42',#559,$,$,(#259),#558);
#561=IFCPROPERTYSINGLEVALUE('HazardType',$,IFCTEXT('Asbestos'),$);
#562=IFCPROPERTYSINGLEVALUE('RemovalCategory',$,IFCTEXT('Immediate'),$);
#563=IFCOWNERHISTORY(#3,#4,.READWRITE.,.ADDED.,1789749018,#3,#4,1789749018);
#564=IFCPROPERTYSET('2peEWwnwD7BfQnnIQREyjI',#563,'Pset_ManufacturerOccurrence',$,(#567));
#565=IFCOWNERHISTORY(#3,#4,.READWRITE.,.ADDED.,1789749018,#3,#4,1789749018);
#566=IFCRELDEFINESBYPROPERTIES('04ppBg7AvFBOAuZGhu_Ecr',#565,$,$,(#259),#564);
#567=IFCPROPERTYSINGLEVALUE('SerialNumber',$,IFCIDENTIFIER('SN-000001'),$);
ENDSEC;
END-ISO-10303-21;
