ISO-10303-21;
HEADER;
FILE_DESCRIPTION(('ViewDefinition[DesignTransferView]'),'2;1');
FILE_NAME('/dev/null','2026-09-13T15:45:15+02:00',(''),(''),'IfcOpenShell 0.8.5','IfcOpenShell 0.8.5','Nobody');
FILE_SCHEMA(('IFC4'));
ENDSEC;
DATA;
#1=IFCPERSON('catalog-pipeline','Pipeline','Catalog',$,$,$,$,$);
#2=IFCORGANIZATION('pragmaticBIM','pragmaticBIM',$,$,$);
#3=IFCPERSONANDORGANIZATION(#1,#2,$);
#4=IFCAPPLICATION(#2,'0.1.0','Catalog IFC Pipeline','catalog-ifc-pipeline');
#5=IFCOWNERHISTORY(#3,#4,.READWRITE.,.ADDED.,1789307115,#3,#4,1789307115);
#6=IFCPROJECT('2LSKkArJjAl9u7bPk0M1Ah',#5,'furniture-01',$,$,$,$,(#15),#10);
#7=IFCSIUNIT(*,.LENGTHUNIT.,$,.METRE.);
#8=IFCSIUNIT(*,.AREAUNIT.,$,.SQUARE_METRE.);
#9=IFCSIUNIT(*,.VOLUMEUNIT.,$,.CUBIC_METRE.);
#10=IFCUNITASSIGNMENT((#9,#7,#8));
#11=IFCCARTESIANPOINT((0.,0.,0.));
#12=IFCDIRECTION((0.,0.,1.));
#13=IFCDIRECTION((1.,0.,0.));
#14=IFCAXIS2PLACEMENT3D(#11,#12,#13);
#15=IFCGEOMETRICREPRESENTATIONCONTEXT($,'Model',3,1.0000000000000001E-05,#14,$);
#16=IFCGEOMETRICREPRESENTATIONSUBCONTEXT('Body','Model',*,*,*,*,#15,$,.MODEL_VIEW.,$);
#17=IFCOWNERHISTORY(#3,#4,.READWRITE.,.MODIFIED.,1789307115,#3,#4,1789307115);
#18=IFCSITE('0Lgj_Ihc1AsfW5x05xJ02S',#17,'Site',$,$,#29,$,$,$,$,$,$,$,$);
#19=IFCOWNERHISTORY(#3,#4,.READWRITE.,.MODIFIED.,1789307115,#3,#4,1789307115);
#20=IFCBUILDING('2KXP75DDv1uB1x1iISYMKH',#19,'Building',$,$,#34,$,$,$,$,$,$);
#21=IFCOWNERHISTORY(#3,#4,.READWRITE.,.ADDED.,1789307115,#3,#4,1789307115);
#22=IFCRELAGGREGATES('0V9HFeHQbEdhJHTy$TzGrW',#21,$,$,#6,(#18));
#23=IFCOWNERHISTORY(#3,#4,.READWRITE.,.ADDED.,1789307115,#3,#4,1789307115);
#24=IFCRELAGGREGATES('2kUVCdANP82ATIZ4X6ispM',#23,$,$,#18,(#20));
#25=IFCCARTESIANPOINT((0.,0.,0.));
#26=IFCDIRECTION((0.,0.,1.));
#27=IFCDIRECTION((1.,0.,0.));
#28=IFCAXIS2PLACEMENT3D(#25,#26,#27);
#29=IFCLOCALPLACEMENT($,#28);
#30=IFCCARTESIANPOINT((0.,0.,0.));
#31=IFCDIRECTION((0.,0.,1.));
#32=IFCDIRECTION((1.,0.,0.));
#33=IFCAXIS2PLACEMENT3D(#30,#31,#32);
#34=IFCLOCALPLACEMENT(#29,#33);
#35=IFCOWNERHISTORY(#3,#4,.READWRITE.,.MODIFIED.,1789307115,#3,#4,1789307115);
#36=IFCBUILDINGSTOREY('3Xv9ZTFtXA0POmUPmX_D3r',#35,'EG',$,$,#43,$,$,$,0.);
#37=IFCOWNERHISTORY(#3,#4,.READWRITE.,.ADDED.,1789307115,#3,#4,1789307115);
#38=IFCRELAGGREGATES('1lNnRCi4n0L8iGpnUEgvsi',#37,$,$,#20,(#36));
#39=IFCCARTESIANPOINT((0.,0.,0.));
#40=IFCDIRECTION((0.,0.,1.));
#41=IFCDIRECTION((1.,0.,0.));
#42=IFCAXIS2PLACEMENT3D(#39,#40,#41);
#43=IFCLOCALPLACEMENT(#34,#42);
#44=IFCOWNERHISTORY(#3,#4,.READWRITE.,.MODIFIED.,1789307115,#3,#4,1789307115);
#45=IFCSLAB('1WGp1bpe5FxPwg63jXXQeW',#44,'Bodenplatte',$,$,#52,#67,$,.FLOOR.);
#46=IFCOWNERHISTORY(#3,#4,.READWRITE.,.MODIFIED.,1789307115,#3,#4,1789307115);
#47=IFCRELCONTAINEDINSPATIALSTRUCTURE('2sBvMywCX4$AvwJ_Mrs47j',#46,$,$,(#243,#156,#45,#69),#36);
#48=IFCCARTESIANPOINT((0.,0.,-0.29999999999999999));
#49=IFCDIRECTION((0.,0.,1.));
#50=IFCDIRECTION((1.,0.,0.));
#51=IFCAXIS2PLACEMENT3D(#48,#49,#50);
#52=IFCLOCALPLACEMENT(#43,#51);
#53=IFCCARTESIANPOINT((0.,0.,0.));
#54=IFCCARTESIANPOINT((4.,0.,0.));
#55=IFCCARTESIANPOINT((4.,3.5,0.));
#56=IFCCARTESIANPOINT((0.,3.5,0.));
#57=IFCCARTESIANPOINT((0.,0.,0.));
#58=IFCPOLYLINE((#53,#54,#55,#56,#57));
#59=IFCARBITRARYCLOSEDPROFILEDEF(.AREA.,$,#58);
#60=IFCCARTESIANPOINT((0.,0.,0.));
#61=IFCDIRECTION((0.,0.,1.));
#62=IFCDIRECTION((1.,0.,0.));
#63=IFCAXIS2PLACEMENT3D(#60,#61,#62);
#64=IFCDIRECTION((0.,0.,1.));
#65=IFCEXTRUDEDAREASOLID(#59,#63,#64,0.29999999999999999);
#66=IFCSHAPEREPRESENTATION(#16,'Body','SweptSolid',(#65));
#67=IFCPRODUCTDEFINITIONSHAPE($,$,(#66));
#68=IFCOWNERHISTORY(#3,#4,.READWRITE.,.MODIFIED.,1789307115,#3,#4,1789307115);
#69=IFCWALL('39GDCfYMT3HOvLsaOURxAV',#68,'Wand',$,$,#74,#89,$,.PARTITIONING.);
#70=IFCCARTESIANPOINT((0.,0.,0.));
#71=IFCDIRECTION((0.,0.,1.));
#72=IFCDIRECTION((1.,0.,0.));
#73=IFCAXIS2PLACEMENT3D(#70,#71,#72);
#74=IFCLOCALPLACEMENT(#43,#73);
#75=IFCCARTESIANPOINT((0.,0.,0.));
#76=IFCCARTESIANPOINT((4.,0.,0.));
#77=IFCCARTESIANPOINT((4.,0.20000000000000001,0.));
#78=IFCCARTESIANPOINT((0.,0.20000000000000001,0.));
#79=IFCCARTESIANPOINT((0.,0.,0.));
#80=IFCPOLYLINE((#75,#76,#77,#78,#79));
#81=IFCARBITRARYCLOSEDPROFILEDEF(.AREA.,$,#80);
#82=IFCCARTESIANPOINT((0.,0.,0.));
#83=IFCDIRECTION((0.,0.,1.));
#84=IFCDIRECTION((1.,0.,0.));
#85=IFCAXIS2PLACEMENT3D(#82,#83,#84);
#86=IFCDIRECTION((0.,0.,1.));
#87=IFCEXTRUDEDAREASOLID(#81,#85,#86,2.7999999999999998);
#88=IFCSHAPEREPRESENTATION(#16,'Body','SweptSolid',(#87));
#89=IFCPRODUCTDEFINITIONSHAPE($,$,(#88));
#90=IFCCARTESIANPOINT((1.3,1.3300000000000001,0.));
#91=IFCCARTESIANPOINT((2.7000000000000002,1.3300000000000001,0.));
#92=IFCCARTESIANPOINT((2.7000000000000002,2.1299999999999999,0.));
#93=IFCCARTESIANPOINT((1.3,2.1299999999999999,0.));
#94=IFCCARTESIANPOINT((1.3,1.3300000000000001,0.));
#95=IFCPOLYLINE((#90,#91,#92,#93,#94));
#96=IFCARBITRARYCLOSEDPROFILEDEF(.AREA.,$,#95);
#97=IFCCARTESIANPOINT((0.,0.,0.69999999999999996));
#98=IFCDIRECTION((0.,0.,1.));
#99=IFCDIRECTION((1.,0.,0.));
#100=IFCAXIS2PLACEMENT3D(#97,#98,#99);
#101=IFCDIRECTION((0.,0.,1.));
#102=IFCEXTRUDEDAREASOLID(#96,#100,#101,0.050000000000000003);
#103=IFCCARTESIANPOINT((1.3,1.3300000000000001,0.));
#104=IFCCARTESIANPOINT((1.3600000000000001,1.3300000000000001,0.));
#105=IFCCARTESIANPOINT((1.3600000000000001,1.3900000000000001,0.));
#106=IFCCARTESIANPOINT((1.3,1.3900000000000001,0.));
#107=IFCCARTESIANPOINT((1.3,1.3300000000000001,0.));
#108=IFCPOLYLINE((#103,#104,#105,#106,#107));
#109=IFCARBITRARYCLOSEDPROFILEDEF(.AREA.,$,#108);
#110=IFCCARTESIANPOINT((0.,0.,0.));
#111=IFCDIRECTION((0.,0.,1.));
#112=IFCDIRECTION((1.,0.,0.));
#113=IFCAXIS2PLACEMENT3D(#110,#111,#112);
#114=IFCDIRECTION((0.,0.,1.));
#115=IFCEXTRUDEDAREASOLID(#109,#113,#114,0.69999999999999996);
#116=IFCCARTESIANPOINT((2.6400000000000001,1.3300000000000001,0.));
#117=IFCCARTESIANPOINT((2.7000000000000002,1.3300000000000001,0.));
#118=IFCCARTESIANPOINT((2.7000000000000002,1.3900000000000001,0.));
#119=IFCCARTESIANPOINT((2.6400000000000001,1.3900000000000001,0.));
#120=IFCCARTESIANPOINT((2.6400000000000001,1.3300000000000001,0.));
#121=IFCPOLYLINE((#116,#117,#118,#119,#120));
#122=IFCARBITRARYCLOSEDPROFILEDEF(.AREA.,$,#121);
#123=IFCCARTESIANPOINT((0.,0.,0.));
#124=IFCDIRECTION((0.,0.,1.));
#125=IFCDIRECTION((1.,0.,0.));
#126=IFCAXIS2PLACEMENT3D(#123,#124,#125);
#127=IFCDIRECTION((0.,0.,1.));
#128=IFCEXTRUDEDAREASOLID(#122,#126,#127,0.69999999999999996);
#129=IFCCARTESIANPOINT((1.3,2.0699999999999998,0.));
#130=IFCCARTESIANPOINT((1.3600000000000001,2.0699999999999998,0.));
#131=IFCCARTESIANPOINT((1.3600000000000001,2.1299999999999999,0.));
#132=IFCCARTESIANPOINT((1.3,2.1299999999999999,0.));
#133=IFCCARTESIANPOINT((1.3,2.0699999999999998,0.));
#134=IFCPOLYLINE((#129,#130,#131,#132,#133));
#135=IFCARBITRARYCLOSEDPROFILEDEF(.AREA.,$,#134);
#136=IFCCARTESIANPOINT((0.,0.,0.));
#137=IFCDIRECTION((0.,0.,1.));
#138=IFCDIRECTION((1.,0.,0.));
#139=IFCAXIS2PLACEMENT3D(#136,#137,#138);
#140=IFCDIRECTION((0.,0.,1.));
#141=IFCEXTRUDEDAREASOLID(#135,#139,#140,0.69999999999999996);
#142=IFCCARTESIANPOINT((2.6400000000000001,2.0699999999999998,0.));
#143=IFCCARTESIANPOINT((2.7000000000000002,2.0699999999999998,0.));
#144=IFCCARTESIANPOINT((2.7000000000000002,2.1299999999999999,0.));
#145=IFCCARTESIANPOINT((2.6400000000000001,2.1299999999999999,0.));
#146=IFCCARTESIANPOINT((2.6400000000000001,2.0699999999999998,0.));
#147=IFCPOLYLINE((#142,#143,#144,#145,#146));
#148=IFCARBITRARYCLOSEDPROFILEDEF(.AREA.,$,#147);
#149=IFCCARTESIANPOINT((0.,0.,0.));
#150=IFCDIRECTION((0.,0.,1.));
#151=IFCDIRECTION((1.,0.,0.));
#152=IFCAXIS2PLACEMENT3D(#149,#150,#151);
#153=IFCDIRECTION((0.,0.,1.));
#154=IFCEXTRUDEDAREASOLID(#148,#152,#153,0.69999999999999996);
#155=IFCOWNERHISTORY(#3,#4,.READWRITE.,.MODIFIED.,1789307115,#3,#4,1789307115);
#156=IFCFURNITURE('3hMkAVLXjEo8N7lmpwXK81',#155,'Tisch-01',$,$,#161,#163,$,.TABLE.);
#157=IFCCARTESIANPOINT((0.,0.,0.));
#158=IFCDIRECTION((0.,0.,1.));
#159=IFCDIRECTION((1.,0.,0.));
#160=IFCAXIS2PLACEMENT3D(#157,#158,#159);
#161=IFCLOCALPLACEMENT(#43,#160);
#162=IFCSHAPEREPRESENTATION(#16,'Body','SweptSolid',(#102,#115,#128,#141,#154));
#163=IFCPRODUCTDEFINITIONSHAPE($,$,(#162));
#164=IFCCARTESIANPOINT((1.7749999999999999,2.2799999999999998,0.));
#165=IFCCARTESIANPOINT((2.2250000000000001,2.2799999999999998,0.));
#166=IFCCARTESIANPOINT((2.2250000000000001,2.73,0.));
#167=IFCCARTESIANPOINT((1.7749999999999999,2.73,0.));
#168=IFCCARTESIANPOINT((1.7749999999999999,2.2799999999999998,0.));
#169=IFCPOLYLINE((#164,#165,#166,#167,#168));
#170=IFCARBITRARYCLOSEDPROFILEDEF(.AREA.,$,#169);
#171=IFCCARTESIANPOINT((0.,0.,0.40000000000000002));
#172=IFCDIRECTION((0.,0.,1.));
#173=IFCDIRECTION((1.,0.,0.));
#174=IFCAXIS2PLACEMENT3D(#171,#172,#173);
#175=IFCDIRECTION((0.,0.,1.));
#176=IFCEXTRUDEDAREASOLID(#170,#174,#175,0.050000000000000003);
#177=IFCCARTESIANPOINT((1.7749999999999999,2.6800000000000002,0.));
#178=IFCCARTESIANPOINT((2.2250000000000001,2.6800000000000002,0.));
#179=IFCCARTESIANPOINT((2.2250000000000001,2.73,0.));
#180=IFCCARTESIANPOINT((1.7749999999999999,2.73,0.));
#181=IFCCARTESIANPOINT((1.7749999999999999,2.6800000000000002,0.));
#182=IFCPOLYLINE((#177,#178,#179,#180,#181));
#183=IFCARBITRARYCLOSEDPROFILEDEF(.AREA.,$,#182);
#184=IFCCARTESIANPOINT((0.,0.,0.45000000000000001));
#185=IFCDIRECTION((0.,0.,1.));
#186=IFCDIRECTION((1.,0.,0.));
#187=IFCAXIS2PLACEMENT3D(#184,#185,#186);
#188=IFCDIRECTION((0.,0.,1.));
#189=IFCEXTRUDEDAREASOLID(#183,#187,#188,0.40000000000000002);
#190=IFCCARTESIANPOINT((1.7749999999999999,2.2799999999999998,0.));
#191=IFCCARTESIANPOINT((1.825,2.2799999999999998,0.));
#192=IFCCARTESIANPOINT((1.825,2.3299999999999996,0.));
#193=IFCCARTESIANPOINT((1.7749999999999999,2.3299999999999996,0.));
#194=IFCCARTESIANPOINT((1.7749999999999999,2.2799999999999998,0.));
#195=IFCPOLYLINE((#190,#191,#192,#193,#194));
#196=IFCARBITRARYCLOSEDPROFILEDEF(.AREA.,$,#195);
#197=IFCCARTESIANPOINT((0.,0.,0.));
#198=IFCDIRECTION((0.,0.,1.));
#199=IFCDIRECTION((1.,0.,0.));
#200=IFCAXIS2PLACEMENT3D(#197,#198,#199);
#201=IFCDIRECTION((0.,0.,1.));
#202=IFCEXTRUDEDAREASOLID(#196,#200,#201,0.40000000000000002);
#203=IFCCARTESIANPOINT((2.1750000000000003,2.2799999999999998,0.));
#204=IFCCARTESIANPOINT((2.2250000000000001,2.2799999999999998,0.));
#205=IFCCARTESIANPOINT((2.2250000000000001,2.3299999999999996,0.));
#206=IFCCARTESIANPOINT((2.1750000000000003,2.3299999999999996,0.));
#207=IFCCARTESIANPOINT((2.1750000000000003,2.2799999999999998,0.));
#208=IFCPOLYLINE((#203,#204,#205,#206,#207));
#209=IFCARBITRARYCLOSEDPROFILEDEF(.AREA.,$,#208);
#210=IFCCARTESIANPOINT((0.,0.,0.));
#211=IFCDIRECTION((0.,0.,1.));
#212=IFCDIRECTION((1.,0.,0.));
#213=IFCAXIS2PLACEMENT3D(#210,#211,#212);
#214=IFCDIRECTION((0.,0.,1.));
#215=IFCEXTRUDEDAREASOLID(#209,#213,#214,0.40000000000000002);
#216=IFCCARTESIANPOINT((1.7749999999999999,2.6800000000000002,0.));
#217=IFCCARTESIANPOINT((1.825,2.6800000000000002,0.));
#218=IFCCARTESIANPOINT((1.825,2.73,0.));
#219=IFCCARTESIANPOINT((1.7749999999999999,2.73,0.));
#220=IFCCARTESIANPOINT((1.7749999999999999,2.6800000000000002,0.));
#221=IFCPOLYLINE((#216,#217,#218,#219,#220));
#222=IFCARBITRARYCLOSEDPROFILEDEF(.AREA.,$,#221);
#223=IFCCARTESIANPOINT((0.,0.,0.));
#224=IFCDIRECTION((0.,0.,1.));
#225=IFCDIRECTION((1.,0.,0.));
#226=IFCAXIS2PLACEMENT3D(#223,#224,#225);
#227=IFCDIRECTION((0.,0.,1.));
#228=IFCEXTRUDEDAREASOLID(#222,#226,#227,0.40000000000000002);
#229=IFCCARTESIANPOINT((2.1750000000000003,2.6800000000000002,0.));
#230=IFCCARTESIANPOINT((2.2250000000000001,2.6800000000000002,0.));
#231=IFCCARTESIANPOINT((2.2250000000000001,2.73,0.));
#232=IFCCARTESIANPOINT((2.1750000000000003,2.73,0.));
#233=IFCCARTESIANPOINT((2.1750000000000003,2.6800000000000002,0.));
#234=IFCPOLYLINE((#229,#230,#231,#232,#233));
#235=IFCARBITRARYCLOSEDPROFILEDEF(.AREA.,$,#234);
#236=IFCCARTESIANPOINT((0.,0.,0.));
#237=IFCDIRECTION((0.,0.,1.));
#238=IFCDIRECTION((1.,0.,0.));
#239=IFCAXIS2PLACEMENT3D(#236,#237,#238);
#240=IFCDIRECTION((0.,0.,1.));
#241=IFCEXTRUDEDAREASOLID(#235,#239,#240,0.40000000000000002);
#242=IFCOWNERHISTORY(#3,#4,.READWRITE.,.MODIFIED.,1789307115,#3,#4,1789307115);
#243=IFCFURNITURE('1PhcmYQ$H31fRU2Io5ddGN',#242,'Stuhl-01',$,$,#248,#250,$,.CHAIR.);
#244=IFCCARTESIANPOINT((0.,0.,0.));
#245=IFCDIRECTION((0.,0.,1.));
#246=IFCDIRECTION((1.,0.,0.));
#247=IFCAXIS2PLACEMENT3D(#244,#245,#246);
#248=IFCLOCALPLACEMENT(#43,#247);
#249=IFCSHAPEREPRESENTATION(#16,'Body','SweptSolid',(#176,#189,#202,#215,#228,#241));
#250=IFCPRODUCTDEFINITIONSHAPE($,$,(#249));
#251=IFCOWNERHISTORY(#3,#4,.READWRITE.,.ADDED.,1789307115,#3,#4,1789307115);
#252=IFCPROPERTYSET('2jQjvlO2v6Pf0jhdegCHSy',#251,'ePset_Cost',$,(#255,#256,#257));
#253=IFCOWNERHISTORY(#3,#4,.READWRITE.,.ADDED.,1789307115,#3,#4,1789307115);
#254=IFCRELDEFINESBYPROPERTIES('24SeeEEnXAVxhatuLbfOFd',#253,$,$,(#156),#252);
#255=IFCPROPERTYSINGLEVALUE('CostInterface',$,IFCLABEL('GAB'),$);
#256=IFCPROPERTYSINGLEVALUE('AwardInterface',$,IFCLABEL('271'),$);
#257=IFCPROPERTYSINGLEVALUE('PlanningInterface',$,IFCLABEL('091'),$);
ENDSEC;
END-ISO-10303-21;
