ISO-10303-21;
HEADER;
FILE_DESCRIPTION(('ViewDefinition[DesignTransferView]'),'2;1');
FILE_NAME('/dev/null','2026-09-22T09:09:36+02:00',(''),(''),'IfcOpenShell 0.8.5','IfcOpenShell 0.8.5','Nobody');
FILE_SCHEMA(('IFC4'));
ENDSEC;
DATA;
#1=IFCPERSON('catalog-pipeline','Pipeline','Catalog',$,$,$,$,$);
#2=IFCORGANIZATION('pragmaticBIM','pragmaticBIM',$,$,$);
#3=IFCPERSONANDORGANIZATION(#1,#2,$);
#4=IFCAPPLICATION(#2,'0.1.0','Catalog IFC Pipeline','catalog-ifc-pipeline');
#5=IFCOWNERHISTORY(#3,#4,.READWRITE.,.ADDED.,1790060976,#3,#4,1790060976);
#6=IFCPROJECT('2sfU0RIJP04QwFbDFb4WON',#5,'tree-pit-01',$,$,$,$,(#15),#10);
#7=IFCSIUNIT(*,.LENGTHUNIT.,$,.METRE.);
#8=IFCSIUNIT(*,.AREAUNIT.,$,.SQUARE_METRE.);
#9=IFCSIUNIT(*,.VOLUMEUNIT.,$,.CUBIC_METRE.);
#10=IFCUNITASSIGNMENT((#8,#9,#7));
#11=IFCCARTESIANPOINT((0.,0.,0.));
#12=IFCDIRECTION((0.,0.,1.));
#13=IFCDIRECTION((1.,0.,0.));
#14=IFCAXIS2PLACEMENT3D(#11,#12,#13);
#15=IFCGEOMETRICREPRESENTATIONCONTEXT($,'Model',3,1.0000000000000001E-05,#14,$);
#16=IFCGEOMETRICREPRESENTATIONSUBCONTEXT('Body','Model',*,*,*,*,#15,$,.MODEL_VIEW.,$);
#17=IFCOWNERHISTORY(#3,#4,.READWRITE.,.MODIFIED.,1790060976,#3,#4,1790060976);
#18=IFCSITE('2_DZO9Vhz6JvQyWMaw5sdc',#17,'Site',$,$,#29,$,$,$,$,$,$,$,$);
#19=IFCOWNERHISTORY(#3,#4,.READWRITE.,.MODIFIED.,1790060976,#3,#4,1790060976);
#20=IFCBUILDING('1dD04icQXAFwTZDbvzHIJ4',#19,'Building',$,$,#34,$,$,$,$,$,$);
#21=IFCOWNERHISTORY(#3,#4,.READWRITE.,.ADDED.,1790060976,#3,#4,1790060976);
#22=IFCRELAGGREGATES('3msCm4Y856LBjMxfMtdDBO',#21,$,$,#6,(#18));
#23=IFCOWNERHISTORY(#3,#4,.READWRITE.,.ADDED.,1790060976,#3,#4,1790060976);
#24=IFCRELAGGREGATES('26mqqHn$r05gEqrzdxWRiR',#23,$,$,#18,(#20));
#25=IFCCARTESIANPOINT((0.,0.,0.));
#26=IFCDIRECTION((0.,0.,1.));
#27=IFCDIRECTION((1.,0.,0.));
#28=IFCAXIS2PLACEMENT3D(#25,#26,#27);
#29=IFCLOCALPLACEMENT($,#28);
#30=IFCCARTESIANPOINT((0.,0.,0.));
#31=IFCDIRECTION((0.,0.,1.));
#32=IFCDIRECTION((1.,0.,0.));
#33=IFCAXIS2PLACEMENT3D(#30,#31,#32);
#34=IFCLOCALPLACEMENT(#29,#33);
#35=IFCOWNERHISTORY(#3,#4,.READWRITE.,.MODIFIED.,1790060976,#3,#4,1790060976);
#36=IFCBUILDINGSTOREY('3A1dnLjP905Ojc3xqn_NhL',#35,'Terrain',$,$,#43,$,$,$,0.);
#37=IFCOWNERHISTORY(#3,#4,.READWRITE.,.ADDED.,1790060976,#3,#4,1790060976);
#38=IFCRELAGGREGATES('37Ns4g3mb4J9RgsWfCN61N',#37,$,$,#20,(#36));
#39=IFCCARTESIANPOINT((0.,0.,0.));
#40=IFCDIRECTION((0.,0.,1.));
#41=IFCDIRECTION((1.,0.,0.));
#42=IFCAXIS2PLACEMENT3D(#39,#40,#41);
#43=IFCLOCALPLACEMENT(#34,#42);
#44=IFCOWNERHISTORY(#3,#4,.READWRITE.,.MODIFIED.,1790060976,#3,#4,1790060976);
#45=IFCSLAB('3gamcsys53AukOK0OTW5RA',#44,'Terrain',$,$,#52,#67,$,.FLOOR.);
#46=IFCOWNERHISTORY(#3,#4,.READWRITE.,.MODIFIED.,1790060976,#3,#4,1790060976);
#47=IFCRELCONTAINEDINSPATIALSTRUCTURE('37r2kxLSnD_e_5dz8X4t2R',#46,$,$,(#93,#45),#36);
#48=IFCCARTESIANPOINT((0.,0.,-0.25));
#49=IFCDIRECTION((0.,0.,1.));
#50=IFCDIRECTION((1.,0.,0.));
#51=IFCAXIS2PLACEMENT3D(#48,#49,#50);
#52=IFCLOCALPLACEMENT(#43,#51);
#53=IFCCARTESIANPOINT((-3.,-3.,0.));
#54=IFCCARTESIANPOINT((3.,-3.,0.));
#55=IFCCARTESIANPOINT((3.,3.,0.));
#56=IFCCARTESIANPOINT((-3.,3.,0.));
#57=IFCCARTESIANPOINT((-3.,-3.,0.));
#58=IFCPOLYLINE((#53,#54,#55,#56,#57));
#59=IFCARBITRARYCLOSEDPROFILEDEF(.AREA.,$,#58);
#60=IFCCARTESIANPOINT((0.,0.,0.));
#61=IFCDIRECTION((0.,0.,1.));
#62=IFCDIRECTION((1.,0.,0.));
#63=IFCAXIS2PLACEMENT3D(#60,#61,#62);
#64=IFCDIRECTION((0.,0.,1.));
#65=IFCEXTRUDEDAREASOLID(#59,#63,#64,0.25);
#66=IFCSHAPEREPRESENTATION(#16,'Body','SweptSolid',(#65));
#67=IFCPRODUCTDEFINITIONSHAPE($,$,(#66));
#68=IFCOWNERHISTORY(#3,#4,.READWRITE.,.MODIFIED.,1790060976,#3,#4,1790060976);
#69=IFCGEOGRAPHICELEMENT('2vAHO9kNLEGwWwLzrBlAW3',#68,'BG0001',$,'Baumgrube',#76,#91,$,.USERDEFINED.);
#70=IFCOWNERHISTORY(#3,#4,.READWRITE.,.ADDED.,1790060976,#3,#4,1790060976);
#71=IFCRELCONTAINEDINSPATIALSTRUCTURE('0MSVp4OyD7TAITjfkzsRwu',#70,$,$,(#69),#18);
#72=IFCCARTESIANPOINT((0.,0.,-1.));
#73=IFCDIRECTION((0.,0.,1.));
#74=IFCDIRECTION((1.,0.,0.));
#75=IFCAXIS2PLACEMENT3D(#72,#73,#74);
#76=IFCLOCALPLACEMENT(#29,#75);
#77=IFCCARTESIANPOINT((-1.2,-1.2,0.));
#78=IFCCARTESIANPOINT((1.2,-1.2,0.));
#79=IFCCARTESIANPOINT((1.2,1.2,0.));
#80=IFCCARTESIANPOINT((-1.2,1.2,0.));
#81=IFCCARTESIANPOINT((-1.2,-1.2,0.));
#82=IFCPOLYLINE((#77,#78,#79,#80,#81));
#83=IFCARBITRARYCLOSEDPROFILEDEF(.AREA.,$,#82);
#84=IFCCARTESIANPOINT((0.,0.,0.));
#85=IFCDIRECTION((0.,0.,1.));
#86=IFCDIRECTION((1.,0.,0.));
#87=IFCAXIS2PLACEMENT3D(#84,#85,#86);
#88=IFCDIRECTION((0.,0.,1.));
#89=IFCEXTRUDEDAREASOLID(#83,#87,#88,1.);
#90=IFCSHAPEREPRESENTATION(#16,'Body','SweptSolid',(#89));
#91=IFCPRODUCTDEFINITIONSHAPE($,$,(#90));
#92=IFCOWNERHISTORY(#3,#4,.READWRITE.,.MODIFIED.,1790060976,#3,#4,1790060976);
#93=IFCBUILDINGELEMENTPROXY('0a0qKd4wv0TuZ7zOmN_rI7',#92,'Stamm',$,'Stamm',$,#120,$,.USERDEFINED.);
#94=IFCCARTESIANPOINT((0.12,0.,0.));
#95=IFCCARTESIANPOINT((0.1108655439013544,0.045922011883810773,0.));
#96=IFCCARTESIANPOINT((0.084852813742385708,0.084852813742385694,0.));
#97=IFCCARTESIANPOINT((0.04592201188381078,0.1108655439013544,0.));
#98=IFCCARTESIANPOINT((7.3478807948841184E-18,0.12,0.));
#99=IFCCARTESIANPOINT((-0.045922011883810766,0.1108655439013544,0.));
#100=IFCCARTESIANPOINT((-0.084852813742385694,0.084852813742385708,0.));
#101=IFCCARTESIANPOINT((-0.1108655439013544,0.045922011883810787,0.));
#102=IFCCARTESIANPOINT((-0.12,1.4695761589768237E-17,0.));
#103=IFCCARTESIANPOINT((-0.11086554390135442,-0.045922011883810759,0.));
#104=IFCCARTESIANPOINT((-0.084852813742385721,-0.084852813742385694,0.));
#105=IFCCARTESIANPOINT((-0.045922011883810836,-0.11086554390135438,0.));
#106=IFCCARTESIANPOINT((-2.2043642384652355E-17,-0.12,0.));
#107=IFCCARTESIANPOINT((0.045922011883810801,-0.11086554390135439,0.));
#108=IFCCARTESIANPOINT((0.08485281374238568,-0.084852813742385721,0.));
#109=IFCCARTESIANPOINT((0.11086554390135438,-0.045922011883810843,0.));
#110=IFCCARTESIANPOINT((0.12,0.,0.));
#111=IFCPOLYLINE((#94,#95,#96,#97,#98,#99,#100,#101,#102,#103,#104,#105,#106,#107,#108,#109,#110));
#112=IFCARBITRARYCLOSEDPROFILEDEF(.AREA.,$,#111);
#113=IFCCARTESIANPOINT((0.,0.,0.));
#114=IFCDIRECTION((0.,0.,1.));
#115=IFCDIRECTION((1.,0.,0.));
#116=IFCAXIS2PLACEMENT3D(#113,#114,#115);
#117=IFCDIRECTION((0.,0.,1.));
#118=IFCEXTRUDEDAREASOLID(#112,#116,#117,0.90000000000000002);
#119=IFCSHAPEREPRESENTATION(#16,'Body','SweptSolid',(#118));
#120=IFCPRODUCTDEFINITIONSHAPE($,$,(#119));
#121=IFCOWNERHISTORY(#3,#4,.READWRITE.,.ADDED.,1790060976,#3,#4,1790060976);
#122=IFCPROPERTYSET('29q3J$Ecr2cAxzPcO6AN5c',#121,'ePset_TreePit',$,(#125));
#123=IFCOWNERHISTORY(#3,#4,.READWRITE.,.ADDED.,1790060976,#3,#4,1790060976);
#124=IFCRELDEFINESBYPROPERTIES('3PJ8gsklzAIRJzqLPTXK0q',#123,$,$,(#69),#122);
#125=IFCPROPERTYSINGLEVALUE('TreeReference',$,IFCIDENTIFIER('B0001'),$);
#126=IFCOWNERHISTORY(#3,#4,.READWRITE.,.ADDED.,1790060976,#3,#4,1790060976);
#127=IFCELEMENTQUANTITY('2yiiSmuNzAVPUfRcH$uWB$',#126,'Qto_GeographicElementBaseQuantities',$,'BaseQuantities',(#130));
#128=IFCOWNERHISTORY(#3,#4,.READWRITE.,.ADDED.,1790060976,#3,#4,1790060976);
#129=IFCRELDEFINESBYPROPERTIES('20QhUjAWLDWgvyic4MNlsf',#128,$,$,(#69),#127);
#130=IFCQUANTITYVOLUME('NetVolume',$,$,5.7599999999999998,$);
ENDSEC;
END-ISO-10303-21;
