ISO-10303-21;
HEADER;
FILE_DESCRIPTION(('ViewDefinition[DesignTransferView]'),'2;1');
FILE_NAME('/dev/null','2026-09-13T15:45:14+02:00',(''),(''),'IfcOpenShell 0.8.5','IfcOpenShell 0.8.5','Nobody');
FILE_SCHEMA(('IFC4X3_ADD2'));
ENDSEC;
DATA;
#1=IFCPERSON('catalog-pipeline','Pipeline','Catalog',$,$,$,$,$);
#2=IFCORGANIZATION('pragmaticBIM','pragmaticBIM',$,$,$);
#3=IFCPERSONANDORGANIZATION(#1,#2,$);
#4=IFCAPPLICATION(#2,'0.1.0','Catalog IFC Pipeline','catalog-ifc-pipeline');
#5=IFCOWNERHISTORY(#3,#4,.READWRITE.,.ADDED.,1789307114,#3,#4,1789307114);
#6=IFCPROJECT('2Hsc1l2xT47hF09f7zCNsR',#5,'tree-01',$,$,$,$,(#15),#10);
#7=IFCSIUNIT(*,.LENGTHUNIT.,$,.METRE.);
#8=IFCSIUNIT(*,.AREAUNIT.,$,.SQUARE_METRE.);
#9=IFCSIUNIT(*,.VOLUMEUNIT.,$,.CUBIC_METRE.);
#10=IFCUNITASSIGNMENT((#8,#9,#7));
#11=IFCCARTESIANPOINT((0.,0.,0.));
#12=IFCDIRECTION((0.,0.,1.));
#13=IFCDIRECTION((1.,0.,0.));
#14=IFCAXIS2PLACEMENT3D(#11,#12,#13);
#15=IFCGEOMETRICREPRESENTATIONCONTEXT($,'Model',3,1.0000000000000001E-05,#14,$);
#16=IFCGEOMETRICREPRESENTATIONSUBCONTEXT('Body','Model',*,*,*,*,#15,$,.MODEL_VIEW.,$);
#17=IFCOWNERHISTORY(#3,#4,.READWRITE.,.MODIFIED.,1789307114,#3,#4,1789307114);
#18=IFCSITE('1imYsOKxLDEglXuyVF5sh4',#17,'Site',$,$,#29,$,$,$,$,$,$,$,$);
#19=IFCOWNERHISTORY(#3,#4,.READWRITE.,.MODIFIED.,1789307114,#3,#4,1789307114);
#20=IFCBUILDING('3FCymRXkf4V8aWYvWa009X',#19,'Building',$,$,#34,$,$,$,$,$,$);
#21=IFCOWNERHISTORY(#3,#4,.READWRITE.,.ADDED.,1789307114,#3,#4,1789307114);
#22=IFCRELAGGREGATES('2b9UphayfBngB91zthT_Wb',#21,$,$,#6,(#18));
#23=IFCOWNERHISTORY(#3,#4,.READWRITE.,.ADDED.,1789307114,#3,#4,1789307114);
#24=IFCRELAGGREGATES('2AGZCxRJz58ePgrNol_wru',#23,$,$,#18,(#20));
#25=IFCCARTESIANPOINT((0.,0.,0.));
#26=IFCDIRECTION((0.,0.,1.));
#27=IFCDIRECTION((1.,0.,0.));
#28=IFCAXIS2PLACEMENT3D(#25,#26,#27);
#29=IFCLOCALPLACEMENT($,#28);
#30=IFCCARTESIANPOINT((0.,0.,0.));
#31=IFCDIRECTION((0.,0.,1.));
#32=IFCDIRECTION((1.,0.,0.));
#33=IFCAXIS2PLACEMENT3D(#30,#31,#32);
#34=IFCLOCALPLACEMENT(#29,#33);
#35=IFCOWNERHISTORY(#3,#4,.READWRITE.,.MODIFIED.,1789307114,#3,#4,1789307114);
#36=IFCBUILDINGSTOREY('123t5d4mrDHuEg2CivEyfS',#35,'Terrain',$,$,#43,$,$,$,0.);
#37=IFCOWNERHISTORY(#3,#4,.READWRITE.,.ADDED.,1789307114,#3,#4,1789307114);
#38=IFCRELAGGREGATES('1$PAESlXf8Rh2Oc7lB37gW',#37,$,$,#20,(#36));
#39=IFCCARTESIANPOINT((0.,0.,0.));
#40=IFCDIRECTION((0.,0.,1.));
#41=IFCDIRECTION((1.,0.,0.));
#42=IFCAXIS2PLACEMENT3D(#39,#40,#41);
#43=IFCLOCALPLACEMENT(#34,#42);
#44=IFCOWNERHISTORY(#3,#4,.READWRITE.,.MODIFIED.,1789307114,#3,#4,1789307114);
#45=IFCSLAB('3FeaPBe5T5FvGpkxB$ntXL',#44,'Terrain',$,$,#52,#69,$,.FLOOR.);
#46=IFCOWNERHISTORY(#3,#4,.READWRITE.,.ADDED.,1789307114,#3,#4,1789307114);
#47=IFCRELCONTAINEDINSPATIALSTRUCTURE('2DIrIYnjf6cuT6r5WOPc_c',#46,$,$,(#45),#36);
#48=IFCCARTESIANPOINT((0.,0.,-0.14999999999999999));
#49=IFCDIRECTION((0.,0.,1.));
#50=IFCDIRECTION((1.,0.,0.));
#51=IFCAXIS2PLACEMENT3D(#48,#49,#50);
#52=IFCLOCALPLACEMENT(#43,#51);
#53=IFCCARTESIANPOINT((-5.7000000000000002,-5.7000000000000002,0.));
#54=IFCCARTESIANPOINT((5.7000000000000002,-5.7000000000000002,0.));
#55=IFCCARTESIANPOINT((5.7000000000000002,1.6499999999999999,0.));
#56=IFCCARTESIANPOINT((1.6499999999999999,1.6499999999999999,0.));
#57=IFCCARTESIANPOINT((1.6499999999999999,5.7000000000000002,0.));
#58=IFCCARTESIANPOINT((-5.7000000000000002,5.7000000000000002,0.));
#59=IFCCARTESIANPOINT((-5.7000000000000002,-5.7000000000000002,0.));
#60=IFCPOLYLINE((#53,#54,#55,#56,#57,#58,#59));
#61=IFCARBITRARYCLOSEDPROFILEDEF(.AREA.,$,#60);
#62=IFCCARTESIANPOINT((0.,0.,0.));
#63=IFCDIRECTION((0.,0.,1.));
#64=IFCDIRECTION((1.,0.,0.));
#65=IFCAXIS2PLACEMENT3D(#62,#63,#64);
#66=IFCDIRECTION((0.,0.,1.));
#67=IFCEXTRUDEDAREASOLID(#61,#65,#66,0.14999999999999999);
#68=IFCSHAPEREPRESENTATION(#16,'Body','SweptSolid',(#67));
#69=IFCPRODUCTDEFINITIONSHAPE($,$,(#68));
#70=IFCOWNERHISTORY(#3,#4,.READWRITE.,.MODIFIED.,1789307114,#3,#4,1789307114);
#71=IFCGEOGRAPHICELEMENT('2jY5DBkSf28RoGc5y$4jjK',#70,'B0001',$,'Baum',#78,#857,$,.VEGETATION.);
#72=IFCOWNERHISTORY(#3,#4,.READWRITE.,.ADDED.,1789307114,#3,#4,1789307114);
#73=IFCRELCONTAINEDINSPATIALSTRUCTURE('2XDS41ZWT2tAAlrqLAKq6c',#72,$,$,(#71),#18);
#74=IFCCARTESIANPOINT((2.,2.,0.));
#75=IFCDIRECTION((0.,0.,1.));
#76=IFCDIRECTION((1.,0.,0.));
#77=IFCAXIS2PLACEMENT3D(#74,#75,#76);
#78=IFCLOCALPLACEMENT(#29,#77);
#79=IFCCARTESIANPOINT((0.,0.,0.));
#80=IFCCARTESIANPOINT((0.53575680531112568,0.,-0.10656865448419861));
#81=IFCCARTESIANPOINT((0.46397900364982853,0.26787840265556279,-0.10656865448419861));
#82=IFCCARTESIANPOINT((0.2678784026555629,0.46397900364982847,-0.10656865448419861));
#83=IFCCARTESIANPOINT((3.2805642837284086E-17,0.53575680531112568,-0.10656865448419861));
#84=IFCCARTESIANPOINT((-0.26787840265556273,0.46397900364982853,-0.10656865448419861));
#85=IFCCARTESIANPOINT((-0.46397900364982853,0.26787840265556279,-0.10656865448419861));
#86=IFCCARTESIANPOINT((-0.53575680531112568,6.5611285674568172E-17,-0.10656865448419861));
#87=IFCCARTESIANPOINT((-0.46397900364982858,-0.26787840265556268,-0.10656865448419861));
#88=IFCCARTESIANPOINT((-0.26787840265556306,-0.46397900364982836,-0.10656865448419861));
#89=IFCCARTESIANPOINT((-9.8416928511852251E-17,-0.53575680531112568,-0.10656865448419861));
#90=IFCCARTESIANPOINT((0.2678784026555629,-0.46397900364982847,-0.10656865448419861));
#91=IFCCARTESIANPOINT((0.46397900364982836,-0.26787840265556306,-0.10656865448419861));
#92=IFCCARTESIANPOINT((0.98994949366116636,0.,-0.41005050633883333));
#93=IFCCARTESIANPOINT((0.85732140997411221,0.49497474683058312,-0.41005050633883333));
#94=IFCCARTESIANPOINT((0.49497474683058329,0.8573214099741121,-0.41005050633883333));
#95=IFCCARTESIANPOINT((6.0616923936484523E-17,0.98994949366116636,-0.41005050633883333));
#96=IFCCARTESIANPOINT((-0.49497474683058296,0.85732140997411221,-0.41005050633883333));
#97=IFCCARTESIANPOINT((-0.85732140997411221,0.49497474683058312,-0.41005050633883333));
#98=IFCCARTESIANPOINT((-0.98994949366116636,1.2123384787296905E-16,-0.41005050633883333));
#99=IFCCARTESIANPOINT((-0.85732140997411233,-0.4949747468305829,-0.41005050633883333));
#100=IFCCARTESIANPOINT((-0.49497474683058362,-0.85732140997411188,-0.41005050633883333));
#101=IFCCARTESIANPOINT((-1.8185077180945354E-16,-0.98994949366116636,-0.41005050633883333));
#102=IFCCARTESIANPOINT((0.49497474683058329,-0.8573214099741121,-0.41005050633883333));
#103=IFCCARTESIANPOINT((0.85732140997411188,-0.49497474683058362,-0.41005050633883333));
#104=IFCCARTESIANPOINT((1.2934313455158013,0.,-0.86424319468887423));
#105=IFCCARTESIANPOINT((1.1201444032677716,0.64671567275790054,-0.86424319468887423));
#106=IFCCARTESIANPOINT((0.64671567275790076,1.1201444032677714,-0.86424319468887423));
#107=IFCCARTESIANPOINT((7.9199827860139018E-17,1.2934313455158013,-0.86424319468887423));
#108=IFCCARTESIANPOINT((-0.64671567275790032,1.1201444032677716,-0.86424319468887423));
#109=IFCCARTESIANPOINT((-1.1201444032677716,0.64671567275790054,-0.86424319468887423));
#110=IFCCARTESIANPOINT((-1.2934313455158013,1.5839965572027804E-16,-0.86424319468887423));
#111=IFCCARTESIANPOINT((-1.1201444032677719,-0.64671567275790032,-0.86424319468887423));
#112=IFCCARTESIANPOINT((-0.64671567275790121,-1.1201444032677712,-0.86424319468887423));
#113=IFCCARTESIANPOINT((-2.3759948358041704E-16,-1.2934313455158013,-0.86424319468887423));
#114=IFCCARTESIANPOINT((0.64671567275790076,-1.1201444032677714,-0.86424319468887423));
#115=IFCCARTESIANPOINT((1.1201444032677712,-0.64671567275790121,-0.86424319468887423));
#116=IFCCARTESIANPOINT((1.3999999999999999,0.,-1.3999999999999999));
#117=IFCCARTESIANPOINT((1.2124355652982142,0.69999999999999984,-1.3999999999999999));
#118=IFCCARTESIANPOINT((0.70000000000000007,1.2124355652982139,-1.3999999999999999));
#119=IFCCARTESIANPOINT((8.572527594031472E-17,1.3999999999999999,-1.3999999999999999));
#120=IFCCARTESIANPOINT((-0.69999999999999962,1.2124355652982142,-1.3999999999999999));
#121=IFCCARTESIANPOINT((-1.2124355652982142,0.69999999999999984,-1.3999999999999999));
#122=IFCCARTESIANPOINT((-1.3999999999999999,1.7145055188062944E-16,-1.3999999999999999));
#123=IFCCARTESIANPOINT((-1.2124355652982142,-0.69999999999999962,-1.3999999999999999));
#124=IFCCARTESIANPOINT((-0.70000000000000062,-1.2124355652982137,-1.3999999999999999));
#125=IFCCARTESIANPOINT((-2.5717582782094415E-16,-1.3999999999999999,-1.3999999999999999));
#126=IFCCARTESIANPOINT((0.70000000000000007,-1.2124355652982139,-1.3999999999999999));
#127=IFCCARTESIANPOINT((1.2124355652982137,-0.70000000000000062,-1.3999999999999999));
#128=IFCCARTESIANPOINT((1.2934313455158013,0.,-1.9357568053111254));
#129=IFCCARTESIANPOINT((1.1201444032677716,0.64671567275790054,-1.9357568053111254));
#130=IFCCARTESIANPOINT((0.64671567275790076,1.1201444032677714,-1.9357568053111254));
#131=IFCCARTESIANPOINT((7.9199827860139018E-17,1.2934313455158013,-1.9357568053111254));
#132=IFCCARTESIANPOINT((-0.64671567275790032,1.1201444032677716,-1.9357568053111254));
#133=IFCCARTESIANPOINT((-1.1201444032677716,0.64671567275790054,-1.9357568053111254));
#134=IFCCARTESIANPOINT((-1.2934313455158013,1.5839965572027804E-16,-1.9357568053111254));
#135=IFCCARTESIANPOINT((-1.1201444032677719,-0.64671567275790032,-1.9357568053111254));
#136=IFCCARTESIANPOINT((-0.64671567275790121,-1.1201444032677712,-1.9357568053111254));
#137=IFCCARTESIANPOINT((-2.3759948358041704E-16,-1.2934313455158013,-1.9357568053111254));
#138=IFCCARTESIANPOINT((0.64671567275790076,-1.1201444032677714,-1.9357568053111254));
#139=IFCCARTESIANPOINT((1.1201444032677712,-0.64671567275790121,-1.9357568053111254));
#140=IFCCARTESIANPOINT((0.98994949366116658,0.,-2.3899494936611663));
#141=IFCCARTESIANPOINT((0.85732140997411244,0.49497474683058323,-2.3899494936611663));
#142=IFCCARTESIANPOINT((0.4949747468305834,0.85732140997411233,-2.3899494936611663));
#143=IFCCARTESIANPOINT((6.0616923936484535E-17,0.98994949366116658,-2.3899494936611663));
#144=IFCCARTESIANPOINT((-0.49497474683058307,0.85732140997411244,-2.3899494936611663));
#145=IFCCARTESIANPOINT((-0.85732140997411244,0.49497474683058323,-2.3899494936611663));
#146=IFCCARTESIANPOINT((-0.98994949366116658,1.2123384787296907E-16,-2.3899494936611663));
#147=IFCCARTESIANPOINT((-0.85732140997411255,-0.49497474683058301,-2.3899494936611663));
#148=IFCCARTESIANPOINT((-0.49497474683058373,-0.8573214099741121,-2.3899494936611663));
#149=IFCCARTESIANPOINT((-1.8185077180945359E-16,-0.98994949366116658,-2.3899494936611663));
#150=IFCCARTESIANPOINT((0.4949747468305834,-0.85732140997411233,-2.3899494936611663));
#151=IFCCARTESIANPOINT((0.8573214099741121,-0.49497474683058373,-2.3899494936611663));
#152=IFCCARTESIANPOINT((0.53575680531112579,0.,-2.6934313455158012));
#153=IFCCARTESIANPOINT((0.46397900364982864,0.26787840265556284,-2.6934313455158012));
#154=IFCCARTESIANPOINT((0.26787840265556295,0.46397900364982858,-2.6934313455158012));
#155=IFCCARTESIANPOINT((3.2805642837284092E-17,0.53575680531112579,-2.6934313455158012));
#156=IFCCARTESIANPOINT((-0.26787840265556279,0.46397900364982864,-2.6934313455158012));
#157=IFCCARTESIANPOINT((-0.46397900364982864,0.26787840265556284,-2.6934313455158012));
#158=IFCCARTESIANPOINT((-0.53575680531112579,6.5611285674568184E-17,-2.6934313455158012));
#159=IFCCARTESIANPOINT((-0.46397900364982869,-0.26787840265556273,-2.6934313455158012));
#160=IFCCARTESIANPOINT((-0.26787840265556312,-0.46397900364982847,-2.6934313455158012));
#161=IFCCARTESIANPOINT((-9.8416928511852276E-17,-0.53575680531112579,-2.6934313455158012));
#162=IFCCARTESIANPOINT((0.26787840265556295,-0.46397900364982858,-2.6934313455158012));
#163=IFCCARTESIANPOINT((0.46397900364982847,-0.26787840265556312,-2.6934313455158012));
#164=IFCCARTESIANPOINT((0.,0.,-2.7999999999999998));
#165=IFCPOLYLOOP((#79,#80,#81));
#166=IFCFACEOUTERBOUND(#165,.T.);
#167=IFCFACE((#166));
#168=IFCPOLYLOOP((#79,#81,#82));
#169=IFCFACEOUTERBOUND(#168,.T.);
#170=IFCFACE((#169));
#171=IFCPOLYLOOP((#79,#82,#83));
#172=IFCFACEOUTERBOUND(#171,.T.);
#173=IFCFACE((#172));
#174=IFCPOLYLOOP((#79,#83,#84));
#175=IFCFACEOUTERBOUND(#174,.T.);
#176=IFCFACE((#175));
#177=IFCPOLYLOOP((#79,#84,#85));
#178=IFCFACEOUTERBOUND(#177,.T.);
#179=IFCFACE((#178));
#180=IFCPOLYLOOP((#79,#85,#86));
#181=IFCFACEOUTERBOUND(#180,.T.);
#182=IFCFACE((#181));
#183=IFCPOLYLOOP((#79,#86,#87));
#184=IFCFACEOUTERBOUND(#183,.T.);
#185=IFCFACE((#184));
#186=IFCPOLYLOOP((#79,#87,#88));
#187=IFCFACEOUTERBOUND(#186,.T.);
#188=IFCFACE((#187));
#189=IFCPOLYLOOP((#79,#88,#89));
#190=IFCFACEOUTERBOUND(#189,.T.);
#191=IFCFACE((#190));
#192=IFCPOLYLOOP((#79,#89,#90));
#193=IFCFACEOUTERBOUND(#192,.T.);
#194=IFCFACE((#193));
#195=IFCPOLYLOOP((#79,#90,#91));
#196=IFCFACEOUTERBOUND(#195,.T.);
#197=IFCFACE((#196));
#198=IFCPOLYLOOP((#79,#91,#80));
#199=IFCFACEOUTERBOUND(#198,.T.);
#200=IFCFACE((#199));
#201=IFCPOLYLOOP((#80,#92,#93,#81));
#202=IFCFACEOUTERBOUND(#201,.T.);
#203=IFCFACE((#202));
#204=IFCPOLYLOOP((#81,#93,#94,#82));
#205=IFCFACEOUTERBOUND(#204,.T.);
#206=IFCFACE((#205));
#207=IFCPOLYLOOP((#82,#94,#95,#83));
#208=IFCFACEOUTERBOUND(#207,.T.);
#209=IFCFACE((#208));
#210=IFCPOLYLOOP((#83,#95,#96,#84));
#211=IFCFACEOUTERBOUND(#210,.T.);
#212=IFCFACE((#211));
#213=IFCPOLYLOOP((#84,#96,#97,#85));
#214=IFCFACEOUTERBOUND(#213,.T.);
#215=IFCFACE((#214));
#216=IFCPOLYLOOP((#85,#97,#98,#86));
#217=IFCFACEOUTERBOUND(#216,.T.);
#218=IFCFACE((#217));
#219=IFCPOLYLOOP((#86,#98,#99,#87));
#220=IFCFACEOUTERBOUND(#219,.T.);
#221=IFCFACE((#220));
#222=IFCPOLYLOOP((#87,#99,#100,#88));
#223=IFCFACEOUTERBOUND(#222,.T.);
#224=IFCFACE((#223));
#225=IFCPOLYLOOP((#88,#100,#101,#89));
#226=IFCFACEOUTERBOUND(#225,.T.);
#227=IFCFACE((#226));
#228=IFCPOLYLOOP((#89,#101,#102,#90));
#229=IFCFACEOUTERBOUND(#228,.T.);
#230=IFCFACE((#229));
#231=IFCPOLYLOOP((#90,#102,#103,#91));
#232=IFCFACEOUTERBOUND(#231,.T.);
#233=IFCFACE((#232));
#234=IFCPOLYLOOP((#91,#103,#92,#80));
#235=IFCFACEOUTERBOUND(#234,.T.);
#236=IFCFACE((#235));
#237=IFCPOLYLOOP((#92,#104,#105,#93));
#238=IFCFACEOUTERBOUND(#237,.T.);
#239=IFCFACE((#238));
#240=IFCPOLYLOOP((#93,#105,#106,#94));
#241=IFCFACEOUTERBOUND(#240,.T.);
#242=IFCFACE((#241));
#243=IFCPOLYLOOP((#94,#106,#107,#95));
#244=IFCFACEOUTERBOUND(#243,.T.);
#245=IFCFACE((#244));
#246=IFCPOLYLOOP((#95,#107,#108,#96));
#247=IFCFACEOUTERBOUND(#246,.T.);
#248=IFCFACE((#247));
#249=IFCPOLYLOOP((#96,#108,#109,#97));
#250=IFCFACEOUTERBOUND(#249,.T.);
#251=IFCFACE((#250));
#252=IFCPOLYLOOP((#97,#109,#110,#98));
#253=IFCFACEOUTERBOUND(#252,.T.);
#254=IFCFACE((#253));
#255=IFCPOLYLOOP((#98,#110,#111,#99));
#256=IFCFACEOUTERBOUND(#255,.T.);
#257=IFCFACE((#256));
#258=IFCPOLYLOOP((#99,#111,#112,#100));
#259=IFCFACEOUTERBOUND(#258,.T.);
#260=IFCFACE((#259));
#261=IFCPOLYLOOP((#100,#112,#113,#101));
#262=IFCFACEOUTERBOUND(#261,.T.);
#263=IFCFACE((#262));
#264=IFCPOLYLOOP((#101,#113,#114,#102));
#265=IFCFACEOUTERBOUND(#264,.T.);
#266=IFCFACE((#265));
#267=IFCPOLYLOOP((#102,#114,#115,#103));
#268=IFCFACEOUTERBOUND(#267,.T.);
#269=IFCFACE((#268));
#270=IFCPOLYLOOP((#103,#115,#104,#92));
#271=IFCFACEOUTERBOUND(#270,.T.);
#272=IFCFACE((#271));
#273=IFCPOLYLOOP((#104,#116,#117,#105));
#274=IFCFACEOUTERBOUND(#273,.T.);
#275=IFCFACE((#274));
#276=IFCPOLYLOOP((#105,#117,#118,#106));
#277=IFCFACEOUTERBOUND(#276,.T.);
#278=IFCFACE((#277));
#279=IFCPOLYLOOP((#106,#118,#119,#107));
#280=IFCFACEOUTERBOUND(#279,.T.);
#281=IFCFACE((#280));
#282=IFCPOLYLOOP((#107,#119,#120,#108));
#283=IFCFACEOUTERBOUND(#282,.T.);
#284=IFCFACE((#283));
#285=IFCPOLYLOOP((#108,#120,#121,#109));
#286=IFCFACEOUTERBOUND(#285,.T.);
#287=IFCFACE((#286));
#288=IFCPOLYLOOP((#109,#121,#122,#110));
#289=IFCFACEOUTERBOUND(#288,.T.);
#290=IFCFACE((#289));
#291=IFCPOLYLOOP((#110,#122,#123,#111));
#292=IFCFACEOUTERBOUND(#291,.T.);
#293=IFCFACE((#292));
#294=IFCPOLYLOOP((#111,#123,#124,#112));
#295=IFCFACEOUTERBOUND(#294,.T.);
#296=IFCFACE((#295));
#297=IFCPOLYLOOP((#112,#124,#125,#113));
#298=IFCFACEOUTERBOUND(#297,.T.);
#299=IFCFACE((#298));
#300=IFCPOLYLOOP((#113,#125,#126,#114));
#301=IFCFACEOUTERBOUND(#300,.T.);
#302=IFCFACE((#301));
#303=IFCPOLYLOOP((#114,#126,#127,#115));
#304=IFCFACEOUTERBOUND(#303,.T.);
#305=IFCFACE((#304));
#306=IFCPOLYLOOP((#115,#127,#116,#104));
#307=IFCFACEOUTERBOUND(#306,.T.);
#308=IFCFACE((#307));
#309=IFCPOLYLOOP((#116,#128,#129,#117));
#310=IFCFACEOUTERBOUND(#309,.T.);
#311=IFCFACE((#310));
#312=IFCPOLYLOOP((#117,#129,#130,#118));
#313=IFCFACEOUTERBOUND(#312,.T.);
#314=IFCFACE((#313));
#315=IFCPOLYLOOP((#118,#130,#131,#119));
#316=IFCFACEOUTERBOUND(#315,.T.);
#317=IFCFACE((#316));
#318=IFCPOLYLOOP((#119,#131,#132,#120));
#319=IFCFACEOUTERBOUND(#318,.T.);
#320=IFCFACE((#319));
#321=IFCPOLYLOOP((#120,#132,#133,#121));
#322=IFCFACEOUTERBOUND(#321,.T.);
#323=IFCFACE((#322));
#324=IFCPOLYLOOP((#121,#133,#134,#122));
#325=IFCFACEOUTERBOUND(#324,.T.);
#326=IFCFACE((#325));
#327=IFCPOLYLOOP((#122,#134,#135,#123));
#328=IFCFACEOUTERBOUND(#327,.T.);
#329=IFCFACE((#328));
#330=IFCPOLYLOOP((#123,#135,#136,#124));
#331=IFCFACEOUTERBOUND(#330,.T.);
#332=IFCFACE((#331));
#333=IFCPOLYLOOP((#124,#136,#137,#125));
#334=IFCFACEOUTERBOUND(#333,.T.);
#335=IFCFACE((#334));
#336=IFCPOLYLOOP((#125,#137,#138,#126));
#337=IFCFACEOUTERBOUND(#336,.T.);
#338=IFCFACE((#337));
#339=IFCPOLYLOOP((#126,#138,#139,#127));
#340=IFCFACEOUTERBOUND(#339,.T.);
#341=IFCFACE((#340));
#342=IFCPOLYLOOP((#127,#139,#128,#116));
#343=IFCFACEOUTERBOUND(#342,.T.);
#344=IFCFACE((#343));
#345=IFCPOLYLOOP((#128,#140,#141,#129));
#346=IFCFACEOUTERBOUND(#345,.T.);
#347=IFCFACE((#346));
#348=IFCPOLYLOOP((#129,#141,#142,#130));
#349=IFCFACEOUTERBOUND(#348,.T.);
#350=IFCFACE((#349));
#351=IFCPOLYLOOP((#130,#142,#143,#131));
#352=IFCFACEOUTERBOUND(#351,.T.);
#353=IFCFACE((#352));
#354=IFCPOLYLOOP((#131,#143,#144,#132));
#355=IFCFACEOUTERBOUND(#354,.T.);
#356=IFCFACE((#355));
#357=IFCPOLYLOOP((#132,#144,#145,#133));
#358=IFCFACEOUTERBOUND(#357,.T.);
#359=IFCFACE((#358));
#360=IFCPOLYLOOP((#133,#145,#146,#134));
#361=IFCFACEOUTERBOUND(#360,.T.);
#362=IFCFACE((#361));
#363=IFCPOLYLOOP((#134,#146,#147,#135));
#364=IFCFACEOUTERBOUND(#363,.T.);
#365=IFCFACE((#364));
#366=IFCPOLYLOOP((#135,#147,#148,#136));
#367=IFCFACEOUTERBOUND(#366,.T.);
#368=IFCFACE((#367));
#369=IFCPOLYLOOP((#136,#148,#149,#137));
#370=IFCFACEOUTERBOUND(#369,.T.);
#371=IFCFACE((#370));
#372=IFCPOLYLOOP((#137,#149,#150,#138));
#373=IFCFACEOUTERBOUND(#372,.T.);
#374=IFCFACE((#373));
#375=IFCPOLYLOOP((#138,#150,#151,#139));
#376=IFCFACEOUTERBOUND(#375,.T.);
#377=IFCFACE((#376));
#378=IFCPOLYLOOP((#139,#151,#140,#128));
#379=IFCFACEOUTERBOUND(#378,.T.);
#380=IFCFACE((#379));
#381=IFCPOLYLOOP((#140,#152,#153,#141));
#382=IFCFACEOUTERBOUND(#381,.T.);
#383=IFCFACE((#382));
#384=IFCPOLYLOOP((#141,#153,#154,#142));
#385=IFCFACEOUTERBOUND(#384,.T.);
#386=IFCFACE((#385));
#387=IFCPOLYLOOP((#142,#154,#155,#143));
#388=IFCFACEOUTERBOUND(#387,.T.);
#389=IFCFACE((#388));
#390=IFCPOLYLOOP((#143,#155,#156,#144));
#391=IFCFACEOUTERBOUND(#390,.T.);
#392=IFCFACE((#391));
#393=IFCPOLYLOOP((#144,#156,#157,#145));
#394=IFCFACEOUTERBOUND(#393,.T.);
#395=IFCFACE((#394));
#396=IFCPOLYLOOP((#145,#157,#158,#146));
#397=IFCFACEOUTERBOUND(#396,.T.);
#398=IFCFACE((#397));
#399=IFCPOLYLOOP((#146,#158,#159,#147));
#400=IFCFACEOUTERBOUND(#399,.T.);
#401=IFCFACE((#400));
#402=IFCPOLYLOOP((#147,#159,#160,#148));
#403=IFCFACEOUTERBOUND(#402,.T.);
#404=IFCFACE((#403));
#405=IFCPOLYLOOP((#148,#160,#161,#149));
#406=IFCFACEOUTERBOUND(#405,.T.);
#407=IFCFACE((#406));
#408=IFCPOLYLOOP((#149,#161,#162,#150));
#409=IFCFACEOUTERBOUND(#408,.T.);
#410=IFCFACE((#409));
#411=IFCPOLYLOOP((#150,#162,#163,#151));
#412=IFCFACEOUTERBOUND(#411,.T.);
#413=IFCFACE((#412));
#414=IFCPOLYLOOP((#151,#163,#152,#140));
#415=IFCFACEOUTERBOUND(#414,.T.);
#416=IFCFACE((#415));
#417=IFCPOLYLOOP((#164,#153,#152));
#418=IFCFACEOUTERBOUND(#417,.T.);
#419=IFCFACE((#418));
#420=IFCPOLYLOOP((#164,#154,#153));
#421=IFCFACEOUTERBOUND(#420,.T.);
#422=IFCFACE((#421));
#423=IFCPOLYLOOP((#164,#155,#154));
#424=IFCFACEOUTERBOUND(#423,.T.);
#425=IFCFACE((#424));
#426=IFCPOLYLOOP((#164,#156,#155));
#427=IFCFACEOUTERBOUND(#426,.T.);
#428=IFCFACE((#427));
#429=IFCPOLYLOOP((#164,#157,#156));
#430=IFCFACEOUTERBOUND(#429,.T.);
#431=IFCFACE((#430));
#432=IFCPOLYLOOP((#164,#158,#157));
#433=IFCFACEOUTERBOUND(#432,.T.);
#434=IFCFACE((#433));
#435=IFCPOLYLOOP((#164,#159,#158));
#436=IFCFACEOUTERBOUND(#435,.T.);
#437=IFCFACE((#436));
#438=IFCPOLYLOOP((#164,#160,#159));
#439=IFCFACEOUTERBOUND(#438,.T.);
#440=IFCFACE((#439));
#441=IFCPOLYLOOP((#164,#161,#160));
#442=IFCFACEOUTERBOUND(#441,.T.);
#443=IFCFACE((#442));
#444=IFCPOLYLOOP((#164,#162,#161));
#445=IFCFACEOUTERBOUND(#444,.T.);
#446=IFCFACE((#445));
#447=IFCPOLYLOOP((#164,#163,#162));
#448=IFCFACEOUTERBOUND(#447,.T.);
#449=IFCFACE((#448));
#450=IFCPOLYLOOP((#164,#152,#163));
#451=IFCFACEOUTERBOUND(#450,.T.);
#452=IFCFACE((#451));
#453=IFCCLOSEDSHELL((#167,#170,#173,#176,#179,#182,#185,#188,#191,#194,#197,#200,#203,#206,#209,#212,#215,#218,#221,#224,#227,#230,#233,#236,#239,#242,#245,#248,#251,#254,#257,#260,#263,#266,#269,#272,#275,#278,#281,#284,#287,#290,#293,#296,#299,#302,#305,#308,#311,#314,#317,#320,#323,#326,#329,#332,#335,#338,#341,#344,#347,#350,#353,#356,#359,#362,#365,#368,#371,#374,#377,#380,#383,#386,#389,#392,#395,#398,#401,#404,#407,#410,#413,#416,#419,#422,#425,#428,#431,#434,#437,#440,#443,#446,#449,#452));
#454=IFCFACETEDBREP(#453);
#455=IFCCARTESIANPOINT((0.17999999999999999,0.,0.));
#456=IFCCARTESIANPOINT((0.16629831585203161,0.068883017825716153,0.));
#457=IFCCARTESIANPOINT((0.12727922061357855,0.12727922061357855,0.));
#458=IFCCARTESIANPOINT((0.068883017825716167,0.16629831585203161,0.));
#459=IFCCARTESIANPOINT((1.1021821192326179E-17,0.17999999999999999,0.));
#460=IFCCARTESIANPOINT((-0.068883017825716153,0.16629831585203161,0.));
#461=IFCCARTESIANPOINT((-0.12727922061357855,0.12727922061357855,0.));
#462=IFCCARTESIANPOINT((-0.16629831585203161,0.068883017825716181,0.));
#463=IFCCARTESIANPOINT((-0.17999999999999999,2.2043642384652358E-17,0.));
#464=IFCCARTESIANPOINT((-0.16629831585203161,-0.068883017825716139,0.));
#465=IFCCARTESIANPOINT((-0.12727922061357858,-0.12727922061357855,0.));
#466=IFCCARTESIANPOINT((-0.068883017825716264,-0.16629831585203156,0.));
#467=IFCCARTESIANPOINT((-3.3065463576978531E-17,-0.17999999999999999,0.));
#468=IFCCARTESIANPOINT((0.068883017825716195,-0.16629831585203159,0.));
#469=IFCCARTESIANPOINT((0.12727922061357852,-0.12727922061357858,0.));
#470=IFCCARTESIANPOINT((0.16629831585203156,-0.068883017825716264,0.));
#471=IFCCARTESIANPOINT((0.17999999999999999,0.,0.));
#472=IFCPOLYLINE((#455,#456,#457,#458,#459,#460,#461,#462,#463,#464,#465,#466,#467,#468,#469,#470,#471));
#473=IFCARBITRARYCLOSEDPROFILEDEF(.AREA.,$,#472);
#474=IFCCARTESIANPOINT((0.,0.,0.));
#475=IFCDIRECTION((0.,0.,1.));
#476=IFCDIRECTION((1.,0.,0.));
#477=IFCAXIS2PLACEMENT3D(#474,#475,#476);
#478=IFCDIRECTION((0.,0.,1.));
#479=IFCEXTRUDEDAREASOLID(#473,#477,#478,3.5);
#480=IFCCARTESIANPOINT((0.,0.,6.9100000000000001));
#481=IFCCARTESIANPOINT((0.8419035512031976,0.,6.7425349715248313));
#482=IFCCARTESIANPOINT((0.72910986287830204,0.42095177560159874,6.7425349715248313));
#483=IFCCARTESIANPOINT((0.42095177560159891,0.72910986287830193,6.7425349715248313));
#484=IFCCARTESIANPOINT((5.1551724458589284E-17,0.8419035512031976,6.7425349715248313));
#485=IFCCARTESIANPOINT((-0.42095177560159863,0.72910986287830204,6.7425349715248313));
#486=IFCCARTESIANPOINT((-0.72910986287830204,0.42095177560159874,6.7425349715248313));
#487=IFCCARTESIANPOINT((-0.8419035512031976,1.0310344891717857E-16,6.7425349715248313));
#488=IFCCARTESIANPOINT((-0.72910986287830215,-0.42095177560159858,6.7425349715248313));
#489=IFCCARTESIANPOINT((-0.42095177560159919,-0.72910986287830182,6.7425349715248313));
#490=IFCCARTESIANPOINT((-1.5465517337576785E-16,-0.8419035512031976,6.7425349715248313));
#491=IFCCARTESIANPOINT((0.42095177560159891,-0.72910986287830193,6.7425349715248313));
#492=IFCCARTESIANPOINT((0.72910986287830182,-0.42095177560159919,6.7425349715248313));
#493=IFCCARTESIANPOINT((1.5556349186104046,0.,6.265634918610405));
#494=IFCCARTESIANPOINT((1.3472193585307481,0.77781745930520219,6.265634918610405));
#495=IFCCARTESIANPOINT((0.77781745930520252,1.3472193585307479,6.265634918610405));
#496=IFCCARTESIANPOINT((9.5255166185904264E-17,1.5556349186104046,6.265634918610405));
#497=IFCCARTESIANPOINT((-0.77781745930520196,1.3472193585307481,6.265634918610405));
#498=IFCCARTESIANPOINT((-1.3472193585307481,0.77781745930520219,6.265634918610405));
#499=IFCCARTESIANPOINT((-1.5556349186104046,1.9051033237180853E-16,6.265634918610405));
#500=IFCCARTESIANPOINT((-1.3472193585307481,-0.77781745930520185,6.265634918610405));
#501=IFCCARTESIANPOINT((-0.77781745930520296,-1.3472193585307475,6.265634918610405));
#502=IFCCARTESIANPOINT((-2.8576549855771277E-16,-1.5556349186104046,6.265634918610405));
#503=IFCCARTESIANPOINT((0.77781745930520252,-1.3472193585307479,6.265634918610405));
#504=IFCCARTESIANPOINT((1.3472193585307475,-0.77781745930520296,6.265634918610405));
#505=IFCCARTESIANPOINT((2.0325349715248309,0.,5.551903551203198));
#506=IFCCARTESIANPOINT((1.7602269194207842,1.0162674857624152,5.551903551203198));
#507=IFCCARTESIANPOINT((1.0162674857624157,1.760226919420784,5.551903551203198));
#508=IFCCARTESIANPOINT((1.2445687235164704E-16,2.0325349715248309,5.551903551203198));
#509=IFCCARTESIANPOINT((-1.016267485762415,1.7602269194207842,5.551903551203198));
#510=IFCCARTESIANPOINT((-1.7602269194207842,1.0162674857624152,5.551903551203198));
#511=IFCCARTESIANPOINT((-2.0325349715248309,2.4891374470329408E-16,5.551903551203198));
#512=IFCCARTESIANPOINT((-1.7602269194207845,-1.0162674857624148,5.551903551203198));
#513=IFCCARTESIANPOINT((-1.0162674857624163,-1.7602269194207836,5.551903551203198));
#514=IFCCARTESIANPOINT((-3.7337061705494107E-16,-2.0325349715248309,5.551903551203198));
#515=IFCCARTESIANPOINT((1.0162674857624157,-1.760226919420784,5.551903551203198));
#516=IFCCARTESIANPOINT((1.7602269194207836,-1.0162674857624163,5.551903551203198));
#517=IFCCARTESIANPOINT((2.2000000000000002,0.,4.71));
#518=IFCCARTESIANPOINT((1.9052558883257653,1.0999999999999999,4.71));
#519=IFCCARTESIANPOINT((1.1000000000000003,1.9052558883257651,4.71));
#520=IFCCARTESIANPOINT((1.3471114790620887E-16,2.2000000000000002,4.71));
#521=IFCCARTESIANPOINT((-1.0999999999999996,1.9052558883257653,4.71));
#522=IFCCARTESIANPOINT((-1.9052558883257653,1.0999999999999999,4.71));
#523=IFCCARTESIANPOINT((-2.2000000000000002,2.6942229581241775E-16,4.71));
#524=IFCCARTESIANPOINT((-1.9052558883257655,-1.0999999999999994,4.71));
#525=IFCCARTESIANPOINT((-1.100000000000001,-1.9052558883257646,4.71));
#526=IFCCARTESIANPOINT((-4.0413344371862655E-16,-2.2000000000000002,4.71));
#527=IFCCARTESIANPOINT((1.1000000000000003,-1.9052558883257651,4.71));
#528=IFCCARTESIANPOINT((1.9052558883257646,-1.100000000000001,4.71));
#529=IFCCARTESIANPOINT((2.0325349715248309,0.,3.8680964487968024));
#530=IFCCARTESIANPOINT((1.7602269194207842,1.0162674857624152,3.8680964487968024));
#531=IFCCARTESIANPOINT((1.0162674857624157,1.760226919420784,3.8680964487968024));
#532=IFCCARTESIANPOINT((1.2445687235164704E-16,2.0325349715248309,3.8680964487968024));
#533=IFCCARTESIANPOINT((-1.016267485762415,1.7602269194207842,3.8680964487968024));
#534=IFCCARTESIANPOINT((-1.7602269194207842,1.0162674857624152,3.8680964487968024));
#535=IFCCARTESIANPOINT((-2.0325349715248309,2.4891374470329408E-16,3.8680964487968024));
#536=IFCCARTESIANPOINT((-1.7602269194207845,-1.0162674857624148,3.8680964487968024));
#537=IFCCARTESIANPOINT((-1.0162674857624163,-1.7602269194207836,3.8680964487968024));
#538=IFCCARTESIANPOINT((-3.7337061705494107E-16,-2.0325349715248309,3.8680964487968024));
#539=IFCCARTESIANPOINT((1.0162674857624157,-1.760226919420784,3.8680964487968024));
#540=IFCCARTESIANPOINT((1.7602269194207836,-1.0162674857624163,3.8680964487968024));
#541=IFCCARTESIANPOINT((1.5556349186104048,0.,3.1543650813895954));
#542=IFCCARTESIANPOINT((1.3472193585307484,0.7778174593052023,3.1543650813895954));
#543=IFCCARTESIANPOINT((0.77781745930520263,1.3472193585307481,3.1543650813895954));
#544=IFCCARTESIANPOINT((9.5255166185904276E-17,1.5556349186104048,3.1543650813895954));
#545=IFCCARTESIANPOINT((-0.77781745930520207,1.3472193585307484,3.1543650813895954));
#546=IFCCARTESIANPOINT((-1.3472193585307484,0.7778174593052023,3.1543650813895954));
#547=IFCCARTESIANPOINT((-1.5556349186104048,1.9051033237180855E-16,3.1543650813895954));
#548=IFCCARTESIANPOINT((-1.3472193585307484,-0.77781745930520196,3.1543650813895954));
#549=IFCCARTESIANPOINT((-0.77781745930520307,-1.3472193585307477,3.1543650813895954));
#550=IFCCARTESIANPOINT((-2.8576549855771282E-16,-1.5556349186104048,3.1543650813895954));
#551=IFCCARTESIANPOINT((0.77781745930520263,-1.3472193585307481,3.1543650813895954));
#552=IFCCARTESIANPOINT((1.3472193585307477,-0.77781745930520307,3.1543650813895954));
#553=IFCCARTESIANPOINT((0.84190355120319782,0.,2.6774650284751691));
#554=IFCCARTESIANPOINT((0.72910986287830226,0.42095177560159885,2.6774650284751691));
#555=IFCCARTESIANPOINT((0.42095177560159902,0.72910986287830215,2.6774650284751691));
#556=IFCCARTESIANPOINT((5.1551724458589302E-17,0.84190355120319782,2.6774650284751691));
#557=IFCCARTESIANPOINT((-0.42095177560159874,0.72910986287830226,2.6774650284751691));
#558=IFCCARTESIANPOINT((-0.72910986287830226,0.42095177560159885,2.6774650284751691));
#559=IFCCARTESIANPOINT((-0.84190355120319782,1.031034489171786E-16,2.6774650284751691));
#560=IFCCARTESIANPOINT((-0.72910986287830237,-0.42095177560159869,2.6774650284751691));
#561=IFCCARTESIANPOINT((-0.4209517756015993,-0.72910986287830193,2.6774650284751691));
#562=IFCCARTESIANPOINT((-1.546551733757679E-16,-0.84190355120319782,2.6774650284751691));
#563=IFCCARTESIANPOINT((0.42095177560159902,-0.72910986287830215,2.6774650284751691));
#564=IFCCARTESIANPOINT((0.72910986287830193,-0.4209517756015993,2.6774650284751691));
#565=IFCCARTESIANPOINT((0.,0.,2.5099999999999998));
#566=IFCPOLYLOOP((#480,#481,#482));
#567=IFCFACEOUTERBOUND(#566,.T.);
#568=IFCFACE((#567));
#569=IFCPOLYLOOP((#480,#482,#483));
#570=IFCFACEOUTERBOUND(#569,.T.);
#571=IFCFACE((#570));
#572=IFCPOLYLOOP((#480,#483,#484));
#573=IFCFACEOUTERBOUND(#572,.T.);
#574=IFCFACE((#573));
#575=IFCPOLYLOOP((#480,#484,#485));
#576=IFCFACEOUTERBOUND(#575,.T.);
#577=IFCFACE((#576));
#578=IFCPOLYLOOP((#480,#485,#486));
#579=IFCFACEOUTERBOUND(#578,.T.);
#580=IFCFACE((#579));
#581=IFCPOLYLOOP((#480,#486,#487));
#582=IFCFACEOUTERBOUND(#581,.T.);
#583=IFCFACE((#582));
#584=IFCPOLYLOOP((#480,#487,#488));
#585=IFCFACEOUTERBOUND(#584,.T.);
#586=IFCFACE((#585));
#587=IFCPOLYLOOP((#480,#488,#489));
#588=IFCFACEOUTERBOUND(#587,.T.);
#589=IFCFACE((#588));
#590=IFCPOLYLOOP((#480,#489,#490));
#591=IFCFACEOUTERBOUND(#590,.T.);
#592=IFCFACE((#591));
#593=IFCPOLYLOOP((#480,#490,#491));
#594=IFCFACEOUTERBOUND(#593,.T.);
#595=IFCFACE((#594));
#596=IFCPOLYLOOP((#480,#491,#492));
#597=IFCFACEOUTERBOUND(#596,.T.);
#598=IFCFACE((#597));
#599=IFCPOLYLOOP((#480,#492,#481));
#600=IFCFACEOUTERBOUND(#599,.T.);
#601=IFCFACE((#600));
#602=IFCPOLYLOOP((#481,#493,#494,#482));
#603=IFCFACEOUTERBOUND(#602,.T.);
#604=IFCFACE((#603));
#605=IFCPOLYLOOP((#482,#494,#495,#483));
#606=IFCFACEOUTERBOUND(#605,.T.);
#607=IFCFACE((#606));
#608=IFCPOLYLOOP((#483,#495,#496,#484));
#609=IFCFACEOUTERBOUND(#608,.T.);
#610=IFCFACE((#609));
#611=IFCPOLYLOOP((#484,#496,#497,#485));
#612=IFCFACEOUTERBOUND(#611,.T.);
#613=IFCFACE((#612));
#614=IFCPOLYLOOP((#485,#497,#498,#486));
#615=IFCFACEOUTERBOUND(#614,.T.);
#616=IFCFACE((#615));
#617=IFCPOLYLOOP((#486,#498,#499,#487));
#618=IFCFACEOUTERBOUND(#617,.T.);
#619=IFCFACE((#618));
#620=IFCPOLYLOOP((#487,#499,#500,#488));
#621=IFCFACEOUTERBOUND(#620,.T.);
#622=IFCFACE((#621));
#623=IFCPOLYLOOP((#488,#500,#501,#489));
#624=IFCFACEOUTERBOUND(#623,.T.);
#625=IFCFACE((#624));
#626=IFCPOLYLOOP((#489,#501,#502,#490));
#627=IFCFACEOUTERBOUND(#626,.T.);
#628=IFCFACE((#627));
#629=IFCPOLYLOOP((#490,#502,#503,#491));
#630=IFCFACEOUTERBOUND(#629,.T.);
#631=IFCFACE((#630));
#632=IFCPOLYLOOP((#491,#503,#504,#492));
#633=IFCFACEOUTERBOUND(#632,.T.);
#634=IFCFACE((#633));
#635=IFCPOLYLOOP((#492,#504,#493,#481));
#636=IFCFACEOUTERBOUND(#635,.T.);
#637=IFCFACE((#636));
#638=IFCPOLYLOOP((#493,#505,#506,#494));
#639=IFCFACEOUTERBOUND(#638,.T.);
#640=IFCFACE((#639));
#641=IFCPOLYLOOP((#494,#506,#507,#495));
#642=IFCFACEOUTERBOUND(#641,.T.);
#643=IFCFACE((#642));
#644=IFCPOLYLOOP((#495,#507,#508,#496));
#645=IFCFACEOUTERBOUND(#644,.T.);
#646=IFCFACE((#645));
#647=IFCPOLYLOOP((#496,#508,#509,#497));
#648=IFCFACEOUTERBOUND(#647,.T.);
#649=IFCFACE((#648));
#650=IFCPOLYLOOP((#497,#509,#510,#498));
#651=IFCFACEOUTERBOUND(#650,.T.);
#652=IFCFACE((#651));
#653=IFCPOLYLOOP((#498,#510,#511,#499));
#654=IFCFACEOUTERBOUND(#653,.T.);
#655=IFCFACE((#654));
#656=IFCPOLYLOOP((#499,#511,#512,#500));
#657=IFCFACEOUTERBOUND(#656,.T.);
#658=IFCFACE((#657));
#659=IFCPOLYLOOP((#500,#512,#513,#501));
#660=IFCFACEOUTERBOUND(#659,.T.);
#661=IFCFACE((#660));
#662=IFCPOLYLOOP((#501,#513,#514,#502));
#663=IFCFACEOUTERBOUND(#662,.T.);
#664=IFCFACE((#663));
#665=IFCPOLYLOOP((#502,#514,#515,#503));
#666=IFCFACEOUTERBOUND(#665,.T.);
#667=IFCFACE((#666));
#668=IFCPOLYLOOP((#503,#515,#516,#504));
#669=IFCFACEOUTERBOUND(#668,.T.);
#670=IFCFACE((#669));
#671=IFCPOLYLOOP((#504,#516,#505,#493));
#672=IFCFACEOUTERBOUND(#671,.T.);
#673=IFCFACE((#672));
#674=IFCPOLYLOOP((#505,#517,#518,#506));
#675=IFCFACEOUTERBOUND(#674,.T.);
#676=IFCFACE((#675));
#677=IFCPOLYLOOP((#506,#518,#519,#507));
#678=IFCFACEOUTERBOUND(#677,.T.);
#679=IFCFACE((#678));
#680=IFCPOLYLOOP((#507,#519,#520,#508));
#681=IFCFACEOUTERBOUND(#680,.T.);
#682=IFCFACE((#681));
#683=IFCPOLYLOOP((#508,#520,#521,#509));
#684=IFCFACEOUTERBOUND(#683,.T.);
#685=IFCFACE((#684));
#686=IFCPOLYLOOP((#509,#521,#522,#510));
#687=IFCFACEOUTERBOUND(#686,.T.);
#688=IFCFACE((#687));
#689=IFCPOLYLOOP((#510,#522,#523,#511));
#690=IFCFACEOUTERBOUND(#689,.T.);
#691=IFCFACE((#690));
#692=IFCPOLYLOOP((#511,#523,#524,#512));
#693=IFCFACEOUTERBOUND(#692,.T.);
#694=IFCFACE((#693));
#695=IFCPOLYLOOP((#512,#524,#525,#513));
#696=IFCFACEOUTERBOUND(#695,.T.);
#697=IFCFACE((#696));
#698=IFCPOLYLOOP((#513,#525,#526,#514));
#699=IFCFACEOUTERBOUND(#698,.T.);
#700=IFCFACE((#699));
#701=IFCPOLYLOOP((#514,#526,#527,#515));
#702=IFCFACEOUTERBOUND(#701,.T.);
#703=IFCFACE((#702));
#704=IFCPOLYLOOP((#515,#527,#528,#516));
#705=IFCFACEOUTERBOUND(#704,.T.);
#706=IFCFACE((#705));
#707=IFCPOLYLOOP((#516,#528,#517,#505));
#708=IFCFACEOUTERBOUND(#707,.T.);
#709=IFCFACE((#708));
#710=IFCPOLYLOOP((#517,#529,#530,#518));
#711=IFCFACEOUTERBOUND(#710,.T.);
#712=IFCFACE((#711));
#713=IFCPOLYLOOP((#518,#530,#531,#519));
#714=IFCFACEOUTERBOUND(#713,.T.);
#715=IFCFACE((#714));
#716=IFCPOLYLOOP((#519,#531,#532,#520));
#717=IFCFACEOUTERBOUND(#716,.T.);
#718=IFCFACE((#717));
#719=IFCPOLYLOOP((#520,#532,#533,#521));
#720=IFCFACEOUTERBOUND(#719,.T.);
#721=IFCFACE((#720));
#722=IFCPOLYLOOP((#521,#533,#534,#522));
#723=IFCFACEOUTERBOUND(#722,.T.);
#724=IFCFACE((#723));
#725=IFCPOLYLOOP((#522,#534,#535,#523));
#726=IFCFACEOUTERBOUND(#725,.T.);
#727=IFCFACE((#726));
#728=IFCPOLYLOOP((#523,#535,#536,#524));
#729=IFCFACEOUTERBOUND(#728,.T.);
#730=IFCFACE((#729));
#731=IFCPOLYLOOP((#524,#536,#537,#525));
#732=IFCFACEOUTERBOUND(#731,.T.);
#733=IFCFACE((#732));
#734=IFCPOLYLOOP((#525,#537,#538,#526));
#735=IFCFACEOUTERBOUND(#734,.T.);
#736=IFCFACE((#735));
#737=IFCPOLYLOOP((#526,#538,#539,#527));
#738=IFCFACEOUTERBOUND(#737,.T.);
#739=IFCFACE((#738));
#740=IFCPOLYLOOP((#527,#539,#540,#528));
#741=IFCFACEOUTERBOUND(#740,.T.);
#742=IFCFACE((#741));
#743=IFCPOLYLOOP((#528,#540,#529,#517));
#744=IFCFACEOUTERBOUND(#743,.T.);
#745=IFCFACE((#744));
#746=IFCPOLYLOOP((#529,#541,#542,#530));
#747=IFCFACEOUTERBOUND(#746,.T.);
#748=IFCFACE((#747));
#749=IFCPOLYLOOP((#530,#542,#543,#531));
#750=IFCFACEOUTERBOUND(#749,.T.);
#751=IFCFACE((#750));
#752=IFCPOLYLOOP((#531,#543,#544,#532));
#753=IFCFACEOUTERBOUND(#752,.T.);
#754=IFCFACE((#753));
#755=IFCPOLYLOOP((#532,#544,#545,#533));
#756=IFCFACEOUTERBOUND(#755,.T.);
#757=IFCFACE((#756));
#758=IFCPOLYLOOP((#533,#545,#546,#534));
#759=IFCFACEOUTERBOUND(#758,.T.);
#760=IFCFACE((#759));
#761=IFCPOLYLOOP((#534,#546,#547,#535));
#762=IFCFACEOUTERBOUND(#761,.T.);
#763=IFCFACE((#762));
#764=IFCPOLYLOOP((#535,#547,#548,#536));
#765=IFCFACEOUTERBOUND(#764,.T.);
#766=IFCFACE((#765));
#767=IFCPOLYLOOP((#536,#548,#549,#537));
#768=IFCFACEOUTERBOUND(#767,.T.);
#769=IFCFACE((#768));
#770=IFCPOLYLOOP((#537,#549,#550,#538));
#771=IFCFACEOUTERBOUND(#770,.T.);
#772=IFCFACE((#771));
#773=IFCPOLYLOOP((#538,#550,#551,#539));
#774=IFCFACEOUTERBOUND(#773,.T.);
#775=IFCFACE((#774));
#776=IFCPOLYLOOP((#539,#551,#552,#540));
#777=IFCFACEOUTERBOUND(#776,.T.);
#778=IFCFACE((#777));
#779=IFCPOLYLOOP((#540,#552,#541,#529));
#780=IFCFACEOUTERBOUND(#779,.T.);
#781=IFCFACE((#780));
#782=IFCPOLYLOOP((#541,#553,#554,#542));
#783=IFCFACEOUTERBOUND(#782,.T.);
#784=IFCFACE((#783));
#785=IFCPOLYLOOP((#542,#554,#555,#543));
#786=IFCFACEOUTERBOUND(#785,.T.);
#787=IFCFACE((#786));
#788=IFCPOLYLOOP((#543,#555,#556,#544));
#789=IFCFACEOUTERBOUND(#788,.T.);
#790=IFCFACE((#789));
#791=IFCPOLYLOOP((#544,#556,#557,#545));
#792=IFCFACEOUTERBOUND(#791,.T.);
#793=IFCFACE((#792));
#794=IFCPOLYLOOP((#545,#557,#558,#546));
#795=IFCFACEOUTERBOUND(#794,.T.);
#796=IFCFACE((#795));
#797=IFCPOLYLOOP((#546,#558,#559,#547));
#798=IFCFACEOUTERBOUND(#797,.T.);
#799=IFCFACE((#798));
#800=IFCPOLYLOOP((#547,#559,#560,#548));
#801=IFCFACEOUTERBOUND(#800,.T.);
#802=IFCFACE((#801));
#803=IFCPOLYLOOP((#548,#560,#561,#549));
#804=IFCFACEOUTERBOUND(#803,.T.);
#805=IFCFACE((#804));
#806=IFCPOLYLOOP((#549,#561,#562,#550));
#807=IFCFACEOUTERBOUND(#806,.T.);
#808=IFCFACE((#807));
#809=IFCPOLYLOOP((#550,#562,#563,#551));
#810=IFCFACEOUTERBOUND(#809,.T.);
#811=IFCFACE((#810));
#812=IFCPOLYLOOP((#551,#563,#564,#552));
#813=IFCFACEOUTERBOUND(#812,.T.);
#814=IFCFACE((#813));
#815=IFCPOLYLOOP((#552,#564,#553,#541));
#816=IFCFACEOUTERBOUND(#815,.T.);
#817=IFCFACE((#816));
#818=IFCPOLYLOOP((#565,#554,#553));
#819=IFCFACEOUTERBOUND(#818,.T.);
#820=IFCFACE((#819));
#821=IFCPOLYLOOP((#565,#555,#554));
#822=IFCFACEOUTERBOUND(#821,.T.);
#823=IFCFACE((#822));
#824=IFCPOLYLOOP((#565,#556,#555));
#825=IFCFACEOUTERBOUND(#824,.T.);
#826=IFCFACE((#825));
#827=IFCPOLYLOOP((#565,#557,#556));
#828=IFCFACEOUTERBOUND(#827,.T.);
#829=IFCFACE((#828));
#830=IFCPOLYLOOP((#565,#558,#557));
#831=IFCFACEOUTERBOUND(#830,.T.);
#832=IFCFACE((#831));
#833=IFCPOLYLOOP((#565,#559,#558));
#834=IFCFACEOUTERBOUND(#833,.T.);
#835=IFCFACE((#834));
#836=IFCPOLYLOOP((#565,#560,#559));
#837=IFCFACEOUTERBOUND(#836,.T.);
#838=IFCFACE((#837));
#839=IFCPOLYLOOP((#565,#561,#560));
#840=IFCFACEOUTERBOUND(#839,.T.);
#841=IFCFACE((#840));
#842=IFCPOLYLOOP((#565,#562,#561));
#843=IFCFACEOUTERBOUND(#842,.T.);
#844=IFCFACE((#843));
#845=IFCPOLYLOOP((#565,#563,#562));
#846=IFCFACEOUTERBOUND(#845,.T.);
#847=IFCFACE((#846));
#848=IFCPOLYLOOP((#565,#564,#563));
#849=IFCFACEOUTERBOUND(#848,.T.);
#850=IFCFACE((#849));
#851=IFCPOLYLOOP((#565,#553,#564));
#852=IFCFACEOUTERBOUND(#851,.T.);
#853=IFCFACE((#852));
#854=IFCCLOSEDSHELL((#568,#571,#574,#577,#580,#583,#586,#589,#592,#595,#598,#601,#604,#607,#610,#613,#616,#619,#622,#625,#628,#631,#634,#637,#640,#643,#646,#649,#652,#655,#658,#661,#664,#667,#670,#673,#676,#679,#682,#685,#688,#691,#694,#697,#700,#703,#706,#709,#712,#715,#718,#721,#724,#727,#730,#733,#736,#739,#742,#745,#748,#751,#754,#757,#760,#763,#766,#769,#772,#775,#778,#781,#784,#787,#790,#793,#796,#799,#802,#805,#808,#811,#814,#817,#820,#823,#826,#829,#832,#835,#838,#841,#844,#847,#850,#853));
#855=IFCFACETEDBREP(#854);
#856=IFCSHAPEREPRESENTATION(#16,'Body','SolidModel',(#454,#479,#855));
#857=IFCPRODUCTDEFINITIONSHAPE($,$,(#856));
#858=IFCOWNERHISTORY(#3,#4,.READWRITE.,.ADDED.,1789307114,#3,#4,1789307114);
#859=IFCPROPERTYSET('1ug$G6Q4L9$R$6OVQWlABA',#858,'Pset_GeographicElementCommon',$,(#862,#863,#864));
#860=IFCOWNERHISTORY(#3,#4,.READWRITE.,.ADDED.,1789307114,#3,#4,1789307114);
#861=IFCRELDEFINESBYPROPERTIES('3mUH6zyxz6jxlmk_hgWMMT',#860,$,$,(#71),#859);
#862=IFCPROPERTYSINGLEVALUE('Reference',$,IFCIDENTIFIER('B0001'),$);
#863=IFCPROPERTYSINGLEVALUE('Status',$,IFCLABEL('EXISTING'),$);
#864=IFCPROPERTYSINGLEVALUE('Species',$,IFCLABEL('Acer platanoides'),$);
ENDSEC;
END-ISO-10303-21;
