ISO-10303-21;
HEADER;
FILE_DESCRIPTION(('ViewDefinition[DesignTransferView]'),'2;1');
FILE_NAME('/dev/null','2026-09-22T09:09:38+02:00',(''),(''),'IfcOpenShell 0.8.5','IfcOpenShell 0.8.5','Nobody');
FILE_SCHEMA(('IFC4'));
ENDSEC;
DATA;
#1=IFCPERSON('catalog-pipeline','Pipeline','Catalog',$,$,$,$,$);
#2=IFCORGANIZATION('pragmaticBIM','pragmaticBIM',$,$,$);
#3=IFCPERSONANDORGANIZATION(#1,#2,$);
#4=IFCAPPLICATION(#2,'0.1.0','Catalog IFC Pipeline','catalog-ifc-pipeline');
#5=IFCOWNERHISTORY(#3,#4,.READWRITE.,.ADDED.,1790060978,#3,#4,1790060978);
#6=IFCPROJECT('3KawcYq5L3LfwFGaEPG2Uj',#5,'retention-01',$,$,$,$,(#15),#10);
#7=IFCSIUNIT(*,.LENGTHUNIT.,$,.METRE.);
#8=IFCSIUNIT(*,.AREAUNIT.,$,.SQUARE_METRE.);
#9=IFCSIUNIT(*,.VOLUMEUNIT.,$,.CUBIC_METRE.);
#10=IFCUNITASSIGNMENT((#7,#8,#9));
#11=IFCCARTESIANPOINT((0.,0.,0.));
#12=IFCDIRECTION((0.,0.,1.));
#13=IFCDIRECTION((1.,0.,0.));
#14=IFCAXIS2PLACEMENT3D(#11,#12,#13);
#15=IFCGEOMETRICREPRESENTATIONCONTEXT($,'Model',3,1.0000000000000001E-05,#14,$);
#16=IFCGEOMETRICREPRESENTATIONSUBCONTEXT('Body','Model',*,*,*,*,#15,$,.MODEL_VIEW.,$);
#17=IFCOWNERHISTORY(#3,#4,.READWRITE.,.MODIFIED.,1790060978,#3,#4,1790060978);
#18=IFCSITE('0D4H20_196MPBwKrYPYfpK',#17,'Site',$,$,#29,$,$,$,$,$,$,$,$);
#19=IFCOWNERHISTORY(#3,#4,.READWRITE.,.MODIFIED.,1790060978,#3,#4,1790060978);
#20=IFCBUILDING('32ZdXzmx5AUe4H7P8GyGuA',#19,'Building',$,$,#34,$,$,$,$,$,$);
#21=IFCOWNERHISTORY(#3,#4,.READWRITE.,.ADDED.,1790060978,#3,#4,1790060978);
#22=IFCRELAGGREGATES('1pMX11C8946f76VgwWnIEi',#21,$,$,#6,(#18));
#23=IFCOWNERHISTORY(#3,#4,.READWRITE.,.ADDED.,1790060978,#3,#4,1790060978);
#24=IFCRELAGGREGATES('29QIN6NxvFyx6zEtrMFyzL',#23,$,$,#18,(#20));
#25=IFCCARTESIANPOINT((0.,0.,0.));
#26=IFCDIRECTION((0.,0.,1.));
#27=IFCDIRECTION((1.,0.,0.));
#28=IFCAXIS2PLACEMENT3D(#25,#26,#27);
#29=IFCLOCALPLACEMENT($,#28);
#30=IFCCARTESIANPOINT((0.,0.,0.));
#31=IFCDIRECTION((0.,0.,1.));
#32=IFCDIRECTION((1.,0.,0.));
#33=IFCAXIS2PLACEMENT3D(#30,#31,#32);
#34=IFCLOCALPLACEMENT(#29,#33);
#35=IFCOWNERHISTORY(#3,#4,.READWRITE.,.MODIFIED.,1790060978,#3,#4,1790060978);
#36=IFCBUILDINGSTOREY('01CyY5B8HCLfQz112hLOC$',#35,'Terrain',$,$,#43,$,$,$,0.);
#37=IFCOWNERHISTORY(#3,#4,.READWRITE.,.ADDED.,1790060978,#3,#4,1790060978);
#38=IFCRELAGGREGATES('302vTmpwv0iuru_i7CCmeN',#37,$,$,#20,(#36));
#39=IFCCARTESIANPOINT((0.,0.,0.));
#40=IFCDIRECTION((0.,0.,1.));
#41=IFCDIRECTION((1.,0.,0.));
#42=IFCAXIS2PLACEMENT3D(#39,#40,#41);
#43=IFCLOCALPLACEMENT(#34,#42);
#44=IFCOWNERHISTORY(#3,#4,.READWRITE.,.MODIFIED.,1790060978,#3,#4,1790060978);
#45=IFCSLAB('2tvLUVXsj58hgYm3K7S_O7',#44,'Terrain',$,$,#52,#67,$,.FLOOR.);
#46=IFCOWNERHISTORY(#3,#4,.READWRITE.,.ADDED.,1790060978,#3,#4,1790060978);
#47=IFCRELCONTAINEDINSPATIALSTRUCTURE('2lrM3tV4DF$825vlRpEf$M',#46,$,$,(#45),#36);
#48=IFCCARTESIANPOINT((0.,0.,-0.29999999999999999));
#49=IFCDIRECTION((0.,0.,1.));
#50=IFCDIRECTION((1.,0.,0.));
#51=IFCAXIS2PLACEMENT3D(#48,#49,#50);
#52=IFCLOCALPLACEMENT(#43,#51);
#53=IFCCARTESIANPOINT((-5.,-4.,0.));
#54=IFCCARTESIANPOINT((5.,-4.,0.));
#55=IFCCARTESIANPOINT((5.,4.,0.));
#56=IFCCARTESIANPOINT((-5.,4.,0.));
#57=IFCCARTESIANPOINT((-5.,-4.,0.));
#58=IFCPOLYLINE((#53,#54,#55,#56,#57));
#59=IFCARBITRARYCLOSEDPROFILEDEF(.AREA.,$,#58);
#60=IFCCARTESIANPOINT((0.,0.,0.));
#61=IFCDIRECTION((0.,0.,1.));
#62=IFCDIRECTION((1.,0.,0.));
#63=IFCAXIS2PLACEMENT3D(#60,#61,#62);
#64=IFCDIRECTION((0.,0.,1.));
#65=IFCEXTRUDEDAREASOLID(#59,#63,#64,0.29999999999999999);
#66=IFCSHAPEREPRESENTATION(#16,'Body','SweptSolid',(#65));
#67=IFCPRODUCTDEFINITIONSHAPE($,$,(#66));
#68=IFCOWNERHISTORY(#3,#4,.READWRITE.,.MODIFIED.,1790060978,#3,#4,1790060978);
#69=IFCGEOGRAPHICELEMENT('1qr$l$YsD11ADtjftf0PtN',#68,'RET-01',$,'Retentionsvolumen',#76,#91,$,.USERDEFINED.);
#70=IFCOWNERHISTORY(#3,#4,.READWRITE.,.ADDED.,1790060978,#3,#4,1790060978);
#71=IFCRELCONTAINEDINSPATIALSTRUCTURE('2OzcZO1v5A78mwwltedC0G',#70,$,$,(#69),#18);
#72=IFCCARTESIANPOINT((0.,0.,-0.45000000000000001));
#73=IFCDIRECTION((0.,0.,1.));
#74=IFCDIRECTION((1.,0.,0.));
#75=IFCAXIS2PLACEMENT3D(#72,#73,#74);
#76=IFCLOCALPLACEMENT(#29,#75);
#77=IFCCARTESIANPOINT((-3.,-2.,0.));
#78=IFCCARTESIANPOINT((3.,-2.,0.));
#79=IFCCARTESIANPOINT((3.,2.,0.));
#80=IFCCARTESIANPOINT((-3.,2.,0.));
#81=IFCCARTESIANPOINT((-3.,-2.,0.));
#82=IFCPOLYLINE((#77,#78,#79,#80,#81));
#83=IFCARBITRARYCLOSEDPROFILEDEF(.AREA.,$,#82);
#84=IFCCARTESIANPOINT((0.,0.,0.));
#85=IFCDIRECTION((0.,0.,1.));
#86=IFCDIRECTION((1.,0.,0.));
#87=IFCAXIS2PLACEMENT3D(#84,#85,#86);
#88=IFCDIRECTION((0.,0.,1.));
#89=IFCEXTRUDEDAREASOLID(#83,#87,#88,0.45000000000000001);
#90=IFCSHAPEREPRESENTATION(#16,'Body','SweptSolid',(#89));
#91=IFCPRODUCTDEFINITIONSHAPE($,$,(#90));
#92=IFCOWNERHISTORY(#3,#4,.READWRITE.,.ADDED.,1790060978,#3,#4,1790060978);
#93=IFCPROPERTYSET('0O5$j4t$j9hgMmEDU_A6xG',#92,'ePset_Retention',$,(#96,#97));
#94=IFCOWNERHISTORY(#3,#4,.READWRITE.,.ADDED.,1790060978,#3,#4,1790060978);
#95=IFCRELDEFINESBYPROPERTIES('37i1yB6ZD3ZxI6r2UsOS6v',#94,$,$,(#69),#93);
#96=IFCPROPERTYSINGLEVALUE('DesignEvent',$,IFCLABEL('T=10a'),$);
#97=IFCPROPERTYSINGLEVALUE('CatchmentReference',$,IFCTEXT('Aussenraum Nord'),$);
#98=IFCOWNERHISTORY(#3,#4,.READWRITE.,.ADDED.,1790060978,#3,#4,1790060978);
#99=IFCELEMENTQUANTITY('2JcNUwLdH8su0zvzv3XbCs',#98,'Qto_GeographicElementBaseQuantities',$,'BaseQuantities',(#102));
#100=IFCOWNERHISTORY(#3,#4,.READWRITE.,.ADDED.,1790060978,#3,#4,1790060978);
#101=IFCRELDEFINESBYPROPERTIES('1GLmaze_LCIQfs3QGpT4mL',#100,$,$,(#69),#99);
#102=IFCQUANTITYVOLUME('NetVolume',$,$,10.800000000000001,$);
ENDSEC;
END-ISO-10303-21;
