ISO-10303-21;
HEADER;
FILE_DESCRIPTION(('ViewDefinition[DesignTransferView]'),'2;1');
FILE_NAME('/dev/null','2026-09-18T11:42:52+02:00',(''),(''),'IfcOpenShell 0.8.5','IfcOpenShell 0.8.5','Nobody');
FILE_SCHEMA(('IFC4'));
ENDSEC;
DATA;
#1=IFCPERSON('catalog-pipeline','Pipeline','Catalog',$,$,$,$,$);
#2=IFCORGANIZATION('pragmaticBIM','pragmaticBIM',$,$,$);
#3=IFCPERSONANDORGANIZATION(#1,#2,$);
#4=IFCAPPLICATION(#2,'0.1.0','Catalog IFC Pipeline','catalog-ifc-pipeline');
#5=IFCOWNERHISTORY(#3,#4,.READWRITE.,.ADDED.,1789724572,#3,#4,1789724572);
#6=IFCPROJECT('3XtCTnuzz07guRhS39rgPQ',#5,'humus-01',$,$,$,$,(#15),#10);
#7=IFCSIUNIT(*,.LENGTHUNIT.,$,.METRE.);
#8=IFCSIUNIT(*,.AREAUNIT.,$,.SQUARE_METRE.);
#9=IFCSIUNIT(*,.VOLUMEUNIT.,$,.CUBIC_METRE.);
#10=IFCUNITASSIGNMENT((#9,#7,#8));
#11=IFCCARTESIANPOINT((0.,0.,0.));
#12=IFCDIRECTION((0.,0.,1.));
#13=IFCDIRECTION((1.,0.,0.));
#14=IFCAXIS2PLACEMENT3D(#11,#12,#13);
#15=IFCGEOMETRICREPRESENTATIONCONTEXT($,'Model',3,1.0000000000000001E-05,#14,$);
#16=IFCGEOMETRICREPRESENTATIONSUBCONTEXT('Body','Model',*,*,*,*,#15,$,.MODEL_VIEW.,$);
#17=IFCOWNERHISTORY(#3,#4,.READWRITE.,.MODIFIED.,1789724572,#3,#4,1789724572);
#18=IFCSITE('2XgASS9fP9cOc6WmGuplcx',#17,'Site',$,$,#29,$,$,$,$,$,$,$,$);
#19=IFCOWNERHISTORY(#3,#4,.READWRITE.,.MODIFIED.,1789724572,#3,#4,1789724572);
#20=IFCBUILDING('2_9xNRQ9D7CfsDGcXjcNV8',#19,'Building',$,$,#34,$,$,$,$,$,$);
#21=IFCOWNERHISTORY(#3,#4,.READWRITE.,.ADDED.,1789724572,#3,#4,1789724572);
#22=IFCRELAGGREGATES('2GA3aXKWD3y9nDi8RJM9pB',#21,$,$,#6,(#18));
#23=IFCOWNERHISTORY(#3,#4,.READWRITE.,.ADDED.,1789724572,#3,#4,1789724572);
#24=IFCRELAGGREGATES('12c$WgBv5BufBtx1fwYSFQ',#23,$,$,#18,(#20));
#25=IFCCARTESIANPOINT((0.,0.,0.));
#26=IFCDIRECTION((0.,0.,1.));
#27=IFCDIRECTION((1.,0.,0.));
#28=IFCAXIS2PLACEMENT3D(#25,#26,#27);
#29=IFCLOCALPLACEMENT($,#28);
#30=IFCCARTESIANPOINT((0.,0.,0.));
#31=IFCDIRECTION((0.,0.,1.));
#32=IFCDIRECTION((1.,0.,0.));
#33=IFCAXIS2PLACEMENT3D(#30,#31,#32);
#34=IFCLOCALPLACEMENT(#29,#33);
#35=IFCOWNERHISTORY(#3,#4,.READWRITE.,.MODIFIED.,1789724572,#3,#4,1789724572);
#36=IFCBUILDINGSTOREY('0hvm_$jFDAn8Nqpb13lRLr',#35,'Terrain',$,$,#43,$,$,$,0.);
#37=IFCOWNERHISTORY(#3,#4,.READWRITE.,.ADDED.,1789724572,#3,#4,1789724572);
#38=IFCRELAGGREGATES('1TvjI2AgjDpfwB0efzMKxl',#37,$,$,#20,(#36));
#39=IFCCARTESIANPOINT((0.,0.,0.));
#40=IFCDIRECTION((0.,0.,1.));
#41=IFCDIRECTION((1.,0.,0.));
#42=IFCAXIS2PLACEMENT3D(#39,#40,#41);
#43=IFCLOCALPLACEMENT(#34,#42);
#44=IFCOWNERHISTORY(#3,#4,.READWRITE.,.MODIFIED.,1789724572,#3,#4,1789724572);
#45=IFCSLAB('1Fw2Nb341F1efs_pi4ZmFi',#44,'Terrain',$,$,#52,#67,$,.FLOOR.);
#46=IFCOWNERHISTORY(#3,#4,.READWRITE.,.ADDED.,1789724572,#3,#4,1789724572);
#47=IFCRELCONTAINEDINSPATIALSTRUCTURE('0APk9QpGf4EuufAdjZ7nrJ',#46,$,$,(#45),#36);
#48=IFCCARTESIANPOINT((0.,0.,-0.40000000000000002));
#49=IFCDIRECTION((0.,0.,1.));
#50=IFCDIRECTION((1.,0.,0.));
#51=IFCAXIS2PLACEMENT3D(#48,#49,#50);
#52=IFCLOCALPLACEMENT(#43,#51);
#53=IFCCARTESIANPOINT((-5.8000000000000007,-4.8000000000000007,0.));
#54=IFCCARTESIANPOINT((5.8000000000000007,-4.8000000000000007,0.));
#55=IFCCARTESIANPOINT((5.8000000000000007,4.8000000000000007,0.));
#56=IFCCARTESIANPOINT((-5.8000000000000007,4.8000000000000007,0.));
#57=IFCCARTESIANPOINT((-5.8000000000000007,-4.8000000000000007,0.));
#58=IFCPOLYLINE((#53,#54,#55,#56,#57));
#59=IFCARBITRARYCLOSEDPROFILEDEF(.AREA.,$,#58);
#60=IFCCARTESIANPOINT((0.,0.,0.));
#61=IFCDIRECTION((0.,0.,1.));
#62=IFCDIRECTION((1.,0.,0.));
#63=IFCAXIS2PLACEMENT3D(#60,#61,#62);
#64=IFCDIRECTION((0.,0.,1.));
#65=IFCEXTRUDEDAREASOLID(#59,#63,#64,0.40000000000000002);
#66=IFCSHAPEREPRESENTATION(#16,'Body','SweptSolid',(#65));
#67=IFCPRODUCTDEFINITIONSHAPE($,$,(#66));
#68=IFCOWNERHISTORY(#3,#4,.READWRITE.,.MODIFIED.,1789724572,#3,#4,1789724572);
#69=IFCGEOGRAPHICELEMENT('13iLQxefjF_820sxKTPIMa',#68,'Humus-01',$,'Humus',$,#86,$,.USERDEFINED.);
#70=IFCOWNERHISTORY(#3,#4,.READWRITE.,.ADDED.,1789724572,#3,#4,1789724572);
#71=IFCRELCONTAINEDINSPATIALSTRUCTURE('26T$Tw5LfAHgQb0_H05wZS',#70,$,$,(#69),#18);
#72=IFCCARTESIANPOINT((-4.2000000000000002,-3.2000000000000002,0.));
#73=IFCCARTESIANPOINT((4.2000000000000002,-3.2000000000000002,0.));
#74=IFCCARTESIANPOINT((4.2000000000000002,3.2000000000000002,0.));
#75=IFCCARTESIANPOINT((-4.2000000000000002,3.2000000000000002,0.));
#76=IFCCARTESIANPOINT((-4.2000000000000002,-3.2000000000000002,0.));
#77=IFCPOLYLINE((#72,#73,#74,#75,#76));
#78=IFCARBITRARYCLOSEDPROFILEDEF(.AREA.,$,#77);
#79=IFCCARTESIANPOINT((0.,0.,0.));
#80=IFCDIRECTION((0.,0.,1.));
#81=IFCDIRECTION((1.,0.,0.));
#82=IFCAXIS2PLACEMENT3D(#79,#80,#81);
#83=IFCDIRECTION((0.,0.,1.));
#84=IFCEXTRUDEDAREASOLID(#78,#82,#83,0.29999999999999999);
#85=IFCSHAPEREPRESENTATION(#16,'Body','SweptSolid',(#84));
#86=IFCPRODUCTDEFINITIONSHAPE($,$,(#85));
#87=IFCOWNERHISTORY(#3,#4,.READWRITE.,.ADDED.,1789724572,#3,#4,1789724572);
#88=IFCPROPERTYSET('35Pc5JxEH9CfSegt6UqFps',#87,'ePset_ElementStatus',$,(#91));
#89=IFCOWNERHISTORY(#3,#4,.READWRITE.,.ADDED.,1789724572,#3,#4,1789724572);
#90=IFCRELDEFINESBYPROPERTIES('02mJeLrQT59ftP9D4oC4OG',#89,$,$,(#69),#88);
#91=IFCPROPERTYSINGLEVALUE('ElementStatus',$,IFCLABEL('NEW'),$);
#92=IFCOWNERHISTORY(#3,#4,.READWRITE.,.ADDED.,1789724572,#3,#4,1789724572);
#93=IFCELEMENTQUANTITY('09Ofb9rQ1BZQherqP_h1Dl',#92,'Qto_GeographicElementBaseQuantities',$,'BaseQuantities',(#96,#97));
#94=IFCOWNERHISTORY(#3,#4,.READWRITE.,.ADDED.,1789724572,#3,#4,1789724572);
#95=IFCRELDEFINESBYPROPERTIES('1FDhlj_tT8rf3YDIduUNUP',#94,$,$,(#69),#93);
#96=IFCQUANTITYAREA('NetArea',$,$,53.759999999999998,$);
#97=IFCQUANTITYVOLUME('NetVolume',$,$,16.129999999999999,$);
ENDSEC;
END-ISO-10303-21;
