ISO-10303-21;
HEADER;
FILE_DESCRIPTION(('ViewDefinition[DesignTransferView]'),'2;1');
FILE_NAME('/dev/null','2026-09-21T16:19:31+02:00',(''),(''),'IfcOpenShell 0.8.5','IfcOpenShell 0.8.5','Nobody');
FILE_SCHEMA(('IFC4X3_ADD2'));
ENDSEC;
DATA;
#1=IFCPERSON('catalog-pipeline','Pipeline','Catalog',$,$,$,$,$);
#2=IFCORGANIZATION('pragmaticBIM','pragmaticBIM',$,$,$);
#3=IFCPERSONANDORGANIZATION(#1,#2,$);
#4=IFCAPPLICATION(#2,'0.1.0','Catalog IFC Pipeline','catalog-ifc-pipeline');
#5=IFCOWNERHISTORY(#3,#4,.READWRITE.,.ADDED.,1790000371,#3,#4,1790000371);
#6=IFCPROJECT('2UMrxYLPX2qhmT1dKBP8AS',#5,'Strasse',$,$,$,$,(#15),#10);
#7=IFCSIUNIT(*,.LENGTHUNIT.,$,.METRE.);
#8=IFCSIUNIT(*,.AREAUNIT.,$,.SQUARE_METRE.);
#9=IFCSIUNIT(*,.VOLUMEUNIT.,$,.CUBIC_METRE.);
#10=IFCUNITASSIGNMENT((#8,#9,#7));
#11=IFCCARTESIANPOINT((0.,0.,0.));
#12=IFCDIRECTION((0.,0.,1.));
#13=IFCDIRECTION((1.,0.,0.));
#14=IFCAXIS2PLACEMENT3D(#11,#12,#13);
#15=IFCGEOMETRICREPRESENTATIONCONTEXT($,'Model',3,1.0000000000000001E-05,#14,$);
#16=IFCGEOMETRICREPRESENTATIONSUBCONTEXT('Body','Model',*,*,*,*,#15,$,.MODEL_VIEW.,$);
#17=IFCOWNERHISTORY(#3,#4,.READWRITE.,.MODIFIED.,1790000371,#3,#4,1790000371);
#18=IFCSITE('37PjL52xf3RQlxZW1ocSHp',#17,'Site',$,$,#29,$,$,$,$,$,$,$,$);
#19=IFCOWNERHISTORY(#3,#4,.READWRITE.,.MODIFIED.,1790000371,#3,#4,1790000371);
#20=IFCBUILDING('3wTczNFGPBcugCHUhEXcbP',#19,'Building',$,$,#34,$,$,$,$,$,$);
#21=IFCOWNERHISTORY(#3,#4,.READWRITE.,.ADDED.,1790000371,#3,#4,1790000371);
#22=IFCRELAGGREGATES('259hX3eFr4aPYvC1Y3CaEV',#21,$,$,#6,(#18));
#23=IFCOWNERHISTORY(#3,#4,.READWRITE.,.ADDED.,1790000371,#3,#4,1790000371);
#24=IFCRELAGGREGATES('3mjOjO5nbEPQxs2Ht5WCSZ',#23,$,$,#18,(#20));
#25=IFCCARTESIANPOINT((0.,0.,0.));
#26=IFCDIRECTION((0.,0.,1.));
#27=IFCDIRECTION((1.,0.,0.));
#28=IFCAXIS2PLACEMENT3D(#25,#26,#27);
#29=IFCLOCALPLACEMENT($,#28);
#30=IFCCARTESIANPOINT((0.,0.,0.));
#31=IFCDIRECTION((0.,0.,1.));
#32=IFCDIRECTION((1.,0.,0.));
#33=IFCAXIS2PLACEMENT3D(#30,#31,#32);
#34=IFCLOCALPLACEMENT(#29,#33);
#35=IFCOWNERHISTORY(#3,#4,.READWRITE.,.MODIFIED.,1790000371,#3,#4,1790000371);
#36=IFCBUILDINGSTOREY('1QTx2CSrPBlAiCjcxLk6c0',#35,'Terrain',$,$,#43,$,$,$,0.);
#37=IFCOWNERHISTORY(#3,#4,.READWRITE.,.ADDED.,1790000371,#3,#4,1790000371);
#38=IFCRELAGGREGATES('0t0aTRtsX34gUN3U4$TJ8G',#37,$,$,#20,(#36));
#39=IFCCARTESIANPOINT((0.,0.,0.));
#40=IFCDIRECTION((0.,0.,1.));
#41=IFCDIRECTION((1.,0.,0.));
#42=IFCAXIS2PLACEMENT3D(#39,#40,#41);
#43=IFCLOCALPLACEMENT(#34,#42);
#44=IFCOWNERHISTORY(#3,#4,.READWRITE.,.MODIFIED.,1790000371,#3,#4,1790000371);
#45=IFCSLAB('0KhNl503PEyuugqpe39ndJ',#44,'Terrain',$,$,#52,#67,$,.BASESLAB.);
#46=IFCOWNERHISTORY(#3,#4,.READWRITE.,.MODIFIED.,1790000371,#3,#4,1790000371);
#47=IFCRELCONTAINEDINSPATIALSTRUCTURE('2x569Gu2r9Wfe$Q5$05T6u',#46,$,$,(#1849,#69,#45),#36);
#48=IFCCARTESIANPOINT((0.,0.,-0.14999999999999999));
#49=IFCDIRECTION((0.,0.,1.));
#50=IFCDIRECTION((1.,0.,0.));
#51=IFCAXIS2PLACEMENT3D(#48,#49,#50);
#52=IFCLOCALPLACEMENT(#43,#51);
#53=IFCCARTESIANPOINT((-1.,-0.59999999999999998,0.));
#54=IFCCARTESIANPOINT((17.,-0.59999999999999998,0.));
#55=IFCCARTESIANPOINT((17.,9.1999999999999993,0.));
#56=IFCCARTESIANPOINT((-1.,9.1999999999999993,0.));
#57=IFCCARTESIANPOINT((-1.,-0.59999999999999998,0.));
#58=IFCPOLYLINE((#53,#54,#55,#56,#57));
#59=IFCARBITRARYCLOSEDPROFILEDEF(.AREA.,$,#58);
#60=IFCCARTESIANPOINT((0.,0.,0.));
#61=IFCDIRECTION((0.,0.,1.));
#62=IFCDIRECTION((1.,0.,0.));
#63=IFCAXIS2PLACEMENT3D(#60,#61,#62);
#64=IFCDIRECTION((0.,0.,1.));
#65=IFCEXTRUDEDAREASOLID(#59,#63,#64,0.14999999999999999);
#66=IFCSHAPEREPRESENTATION(#16,'Body','SweptSolid',(#65));
#67=IFCPRODUCTDEFINITIONSHAPE($,$,(#66));
#68=IFCOWNERHISTORY(#3,#4,.READWRITE.,.MODIFIED.,1790000371,#3,#4,1790000371);
#69=IFCBUILDINGELEMENTPROXY('058UpCDbH5eviy_qqd$Hql',#68,'Strasse',$,'Strasse',#74,#89,$,.USERDEFINED.);
#70=IFCCARTESIANPOINT((0.,0.,0.));
#71=IFCDIRECTION((0.,0.,1.));
#72=IFCDIRECTION((1.,0.,0.));
#73=IFCAXIS2PLACEMENT3D(#70,#71,#72);
#74=IFCLOCALPLACEMENT(#43,#73);
#75=IFCCARTESIANPOINT((0.80000000000000004,2.7999999999999998,0.));
#76=IFCCARTESIANPOINT((15.199999999999999,2.7999999999999998,0.));
#77=IFCCARTESIANPOINT((15.199999999999999,6.2999999999999998,0.));
#78=IFCCARTESIANPOINT((0.80000000000000004,6.2999999999999998,0.));
#79=IFCCARTESIANPOINT((0.80000000000000004,2.7999999999999998,0.));
#80=IFCPOLYLINE((#75,#76,#77,#78,#79));
#81=IFCARBITRARYCLOSEDPROFILEDEF(.AREA.,$,#80);
#82=IFCCARTESIANPOINT((0.,0.,0.));
#83=IFCDIRECTION((0.,0.,1.));
#84=IFCDIRECTION((1.,0.,0.));
#85=IFCAXIS2PLACEMENT3D(#82,#83,#84);
#86=IFCDIRECTION((0.,0.,1.));
#87=IFCEXTRUDEDAREASOLID(#81,#85,#86,0.12);
#88=IFCSHAPEREPRESENTATION(#16,'Body','SweptSolid',(#87));
#89=IFCPRODUCTDEFINITIONSHAPE($,$,(#88));
#90=IFCOWNERHISTORY(#3,#4,.READWRITE.,.MODIFIED.,1790000371,#3,#4,1790000371);
#91=IFCGEOGRAPHICELEMENT('0CJWWHcyT2Qv_ZVh9c3m$R',#90,'B0001',$,'Baum',#98,#1657,$,.VEGETATION.);
#92=IFCOWNERHISTORY(#3,#4,.READWRITE.,.ADDED.,1790000371,#3,#4,1790000371);
#93=IFCRELCONTAINEDINSPATIALSTRUCTURE('1zR6u0bDX5Q9ClDOdqYYYu',#92,$,$,(#91),#18);
#94=IFCCARTESIANPOINT((3.2000000000000002,1.3500000000000001,0.));
#95=IFCDIRECTION((0.,0.,1.));
#96=IFCDIRECTION((1.,0.,0.));
#97=IFCAXIS2PLACEMENT3D(#94,#95,#96);
#98=IFCLOCALPLACEMENT(#29,#97);
#99=IFCCARTESIANPOINT((0.14000000000000001,0.,0.));
#100=IFCCARTESIANPOINT((0.13730993925645227,0.027312645082257957,0.));
#101=IFCCARTESIANPOINT((0.12934313455158017,0.053575680531112571,0.));
#102=IFCCARTESIANPOINT((0.11640574572235635,0.077779832622744308,0.));
#103=IFCCARTESIANPOINT((0.098994949366116664,0.09899494936611665,0.));
#104=IFCCARTESIANPOINT((0.077779832622744322,0.11640574572235635,0.));
#105=IFCCARTESIANPOINT((0.053575680531112585,0.12934313455158017,0.));
#106=IFCCARTESIANPOINT((0.027312645082257968,0.13730993925645227,0.));
#107=IFCCARTESIANPOINT((8.5725275940314735E-18,0.14000000000000001,0.));
#108=IFCCARTESIANPOINT((-0.02731264508225795,0.13730993925645227,0.));
#109=IFCCARTESIANPOINT((-0.053575680531112564,0.12934313455158017,0.));
#110=IFCCARTESIANPOINT((-0.07777983262274428,0.11640574572235637,0.));
#111=IFCCARTESIANPOINT((-0.09899494936611665,0.098994949366116664,0.));
#112=IFCCARTESIANPOINT((-0.11640574572235636,0.077779832622744308,0.));
#113=IFCCARTESIANPOINT((-0.12934313455158017,0.053575680531112592,0.));
#114=IFCCARTESIANPOINT((-0.13730993925645227,0.027312645082258009,0.));
#115=IFCCARTESIANPOINT((-0.14000000000000001,1.7145055188062947E-17,0.));
#116=IFCCARTESIANPOINT((-0.13730993925645227,-0.027312645082257971,0.));
#117=IFCCARTESIANPOINT((-0.12934313455158017,-0.053575680531112557,0.));
#118=IFCCARTESIANPOINT((-0.11640574572235637,-0.07777983262274428,0.));
#119=IFCCARTESIANPOINT((-0.098994949366116691,-0.09899494936611665,0.));
#120=IFCCARTESIANPOINT((-0.077779832622744308,-0.11640574572235635,0.));
#121=IFCCARTESIANPOINT((-0.053575680531112654,-0.12934313455158011,0.));
#122=IFCCARTESIANPOINT((-0.027312645082258016,-0.13730993925645227,0.));
#123=IFCCARTESIANPOINT((-2.5717582782094419E-17,-0.14000000000000001,0.));
#124=IFCCARTESIANPOINT((0.027312645082257964,-0.13730993925645227,0.));
#125=IFCCARTESIANPOINT((0.053575680531112606,-0.12934313455158014,0.));
#126=IFCCARTESIANPOINT((0.077779832622744266,-0.11640574572235637,0.));
#127=IFCCARTESIANPOINT((0.098994949366116636,-0.098994949366116691,0.));
#128=IFCCARTESIANPOINT((0.11640574572235635,-0.077779832622744308,0.));
#129=IFCCARTESIANPOINT((0.12934313455158011,-0.053575680531112661,0.));
#130=IFCCARTESIANPOINT((0.13730993925645227,-0.027312645082258023,0.));
#131=IFCCARTESIANPOINT((0.14000000000000001,0.,0.));
#132=IFCPOLYLINE((#99,#100,#101,#102,#103,#104,#105,#106,#107,#108,#109,#110,#111,#112,#113,#114,#115,#116,#117,#118,#119,#120,#121,#122,#123,#124,#125,#126,#127,#128,#129,#130,#131));
#133=IFCARBITRARYCLOSEDPROFILEDEF(.AREA.,$,#132);
#134=IFCCARTESIANPOINT((0.,0.,0.));
#135=IFCDIRECTION((0.,0.,1.));
#136=IFCDIRECTION((1.,0.,0.));
#137=IFCAXIS2PLACEMENT3D(#134,#135,#136);
#138=IFCDIRECTION((0.,0.,1.));
#139=IFCEXTRUDEDAREASOLID(#133,#137,#138,2.0499999999999998);
#140=IFCCARTESIANPOINT((0.,0.,4.1425000000000001));
#141=IFCCARTESIANPOINT((0.26337193472177317,0.,4.1165601285443607));
#142=IFCCARTESIANPOINT((0.2543977536674793,0.068165672651492759,4.1165601285443607));
#143=IFCCARTESIANPOINT((0.22808678611291244,0.13168596736088656,4.1165601285443607));
#144=IFCCARTESIANPOINT((0.18623208101598654,0.18623208101598651,4.1165601285443607));
#145=IFCCARTESIANPOINT((0.13168596736088661,0.22808678611291242,4.1165601285443607));
#146=IFCCARTESIANPOINT((0.068165672651492759,0.2543977536674793,4.1165601285443607));
#147=IFCCARTESIANPOINT((1.6126879842113259E-17,0.26337193472177317,4.1165601285443607));
#148=IFCCARTESIANPOINT((-0.068165672651492731,0.2543977536674793,4.1165601285443607));
#149=IFCCARTESIANPOINT((-0.13168596736088653,0.22808678611291244,4.1165601285443607));
#150=IFCCARTESIANPOINT((-0.18623208101598651,0.18623208101598654,4.1165601285443607));
#151=IFCCARTESIANPOINT((-0.22808678611291244,0.13168596736088656,4.1165601285443607));
#152=IFCCARTESIANPOINT((-0.2543977536674793,0.068165672651492829,4.1165601285443607));
#153=IFCCARTESIANPOINT((-0.26337193472177317,3.2253759684226518E-17,4.1165601285443607));
#154=IFCCARTESIANPOINT((-0.2543977536674793,-0.068165672651492773,4.1165601285443607));
#155=IFCCARTESIANPOINT((-0.22808678611291247,-0.1316859673608865,4.1165601285443607));
#156=IFCCARTESIANPOINT((-0.18623208101598665,-0.18623208101598643,4.1165601285443607));
#157=IFCCARTESIANPOINT((-0.1316859673608867,-0.22808678611291236,4.1165601285443607));
#158=IFCCARTESIANPOINT((-0.068165672651492731,-0.2543977536674793,4.1165601285443607));
#159=IFCCARTESIANPOINT((-4.8380639526339771E-17,-0.26337193472177317,4.1165601285443607));
#160=IFCCARTESIANPOINT((0.068165672651492648,-0.25439775366747935,4.1165601285443607));
#161=IFCCARTESIANPOINT((0.13168596736088661,-0.22808678611291242,4.1165601285443607));
#162=IFCCARTESIANPOINT((0.18623208101598648,-0.18623208101598659,4.1165601285443607));
#163=IFCCARTESIANPOINT((0.22808678611291236,-0.1316859673608867,4.1165601285443607));
#164=IFCCARTESIANPOINT((0.25439775366747924,-0.068165672651492981,4.1165601285443607));
#165=IFCCARTESIANPOINT((0.5166226336928712,0.,4.0397373688902372));
#166=IFCCARTESIANPOINT((0.49901914432942129,0.13371177673073828,4.0397373688902372));
#167=IFCCARTESIANPOINT((0.44740832494804894,0.25831131684643555,4.0397373688902372));
#168=IFCCARTESIANPOINT((0.36530736759868299,0.36530736759868293,4.0397373688902372));
#169=IFCCARTESIANPOINT((0.25831131684643566,0.44740832494804889,4.0397373688902372));
#170=IFCCARTESIANPOINT((0.13371177673073828,0.49901914432942129,4.0397373688902372));
#171=IFCCARTESIANPOINT((3.1634012735952513E-17,0.5166226336928712,4.0397373688902372));
#172=IFCCARTESIANPOINT((-0.13371177673073822,0.49901914432942129,4.0397373688902372));
#173=IFCCARTESIANPOINT((-0.25831131684643549,0.44740832494804894,4.0397373688902372));
#174=IFCCARTESIANPOINT((-0.36530736759868293,0.36530736759868299,4.0397373688902372));
#175=IFCCARTESIANPOINT((-0.44740832494804894,0.25831131684643555,4.0397373688902372));
#176=IFCCARTESIANPOINT((-0.49901914432942124,0.13371177673073842,4.0397373688902372));
#177=IFCCARTESIANPOINT((-0.5166226336928712,6.3268025471905026E-17,4.0397373688902372));
#178=IFCCARTESIANPOINT((-0.49901914432942129,-0.13371177673073831,4.0397373688902372));
#179=IFCCARTESIANPOINT((-0.447408324948049,-0.25831131684643543,4.0397373688902372));
#180=IFCCARTESIANPOINT((-0.36530736759868315,-0.36530736759868276,4.0397373688902372));
#181=IFCCARTESIANPOINT((-0.25831131684643582,-0.44740832494804877,4.0397373688902372));
#182=IFCCARTESIANPOINT((-0.13371177673073822,-0.49901914432942129,4.0397373688902372));
#183=IFCCARTESIANPOINT((-9.4902038207857538E-17,-0.5166226336928712,4.0397373688902372));
#184=IFCCARTESIANPOINT((0.13371177673073806,-0.49901914432942135,4.0397373688902372));
#185=IFCCARTESIANPOINT((0.25831131684643566,-0.44740832494804889,4.0397373688902372));
#186=IFCCARTESIANPOINT((0.36530736759868287,-0.36530736759868304,4.0397373688902372));
#187=IFCCARTESIANPOINT((0.44740832494804877,-0.25831131684643582,4.0397373688902372));
#188=IFCCARTESIANPOINT((0.49901914432942118,-0.13371177673073872,4.0397373688902372));
#189=IFCCARTESIANPOINT((0.75001981457646294,0.,3.9149839766084362));
#190=IFCCARTESIANPOINT((0.72446350912794377,0.1941194122166498,3.9149839766084362));
#191=IFCCARTESIANPOINT((0.64953621276491114,0.37500990728823141,3.9149839766084362));
#192=IFCCARTESIANPOINT((0.53034409691129392,0.53034409691129392,3.9149839766084362));
#193=IFCCARTESIANPOINT((0.37500990728823158,0.64953621276491114,3.9149839766084362));
#194=IFCCARTESIANPOINT((0.1941194122166498,0.72446350912794377,3.9149839766084362));
#195=IFCCARTESIANPOINT((4.5925468260907832E-17,0.75001981457646294,3.9149839766084362));
#196=IFCCARTESIANPOINT((-0.19411941221664972,0.72446350912794377,3.9149839766084362));
#197=IFCCARTESIANPOINT((-0.3750099072882313,0.64953621276491114,3.9149839766084362));
#198=IFCCARTESIANPOINT((-0.53034409691129392,0.53034409691129392,3.9149839766084362));
#199=IFCCARTESIANPOINT((-0.64953621276491114,0.37500990728823141,3.9149839766084362));
#200=IFCCARTESIANPOINT((-0.72446350912794366,0.19411941221665002,3.9149839766084362));
#201=IFCCARTESIANPOINT((-0.75001981457646294,9.1850936521815665E-17,3.9149839766084362));
#202=IFCCARTESIANPOINT((-0.72446350912794377,-0.19411941221664986,3.9149839766084362));
#203=IFCCARTESIANPOINT((-0.64953621276491125,-0.37500990728823125,3.9149839766084362));
#204=IFCCARTESIANPOINT((-0.53034409691129425,-0.53034409691129358,3.9149839766084362));
#205=IFCCARTESIANPOINT((-0.3750099072882318,-0.64953621276491091,3.9149839766084362));
#206=IFCCARTESIANPOINT((-0.19411941221664972,-0.72446350912794377,3.9149839766084362));
#207=IFCCARTESIANPOINT((-1.377764047827235E-16,-0.75001981457646294,3.9149839766084362));
#208=IFCCARTESIANPOINT((0.19411941221664947,-0.72446350912794388,3.9149839766084362));
#209=IFCCARTESIANPOINT((0.37500990728823158,-0.64953621276491114,3.9149839766084362));
#210=IFCCARTESIANPOINT((0.53034409691129381,-0.53034409691129403,3.9149839766084362));
#211=IFCCARTESIANPOINT((0.64953621276491091,-0.3750099072882318,3.9149839766084362));
#212=IFCCARTESIANPOINT((0.72446350912794355,-0.19411941221665044,3.9149839766084362));
#213=IFCCARTESIANPOINT((0.95459415460183916,0.,3.7470941546018395));
#214=IFCCARTESIANPOINT((0.92206714755449615,0.24706714755449607,3.7470941546018395));
#215=IFCCARTESIANPOINT((0.82670278818932263,0.47729707730091953,3.7470941546018395));
#216=IFCCARTESIANPOINT((0.67500000000000004,0.67499999999999993,3.7470941546018395));
#217=IFCCARTESIANPOINT((0.47729707730091969,0.82670278818932252,3.7470941546018395));
#218=IFCCARTESIANPOINT((0.24706714755449607,0.92206714755449615,3.7470941546018395));
#219=IFCCARTESIANPOINT((5.8452033795895801E-17,0.95459415460183916,3.7470941546018395));
#220=IFCCARTESIANPOINT((-0.24706714755449596,0.92206714755449615,3.7470941546018395));
#221=IFCCARTESIANPOINT((-0.47729707730091936,0.82670278818932263,3.7470941546018395));
#222=IFCCARTESIANPOINT((-0.67499999999999993,0.67500000000000004,3.7470941546018395));
#223=IFCCARTESIANPOINT((-0.82670278818932263,0.47729707730091953,3.7470941546018395));
#224=IFCCARTESIANPOINT((-0.92206714755449604,0.24706714755449632,3.7470941546018395));
#225=IFCCARTESIANPOINT((-0.95459415460183916,1.169040675917916E-16,3.7470941546018395));
#226=IFCCARTESIANPOINT((-0.92206714755449615,-0.24706714755449613,3.7470941546018395));
#227=IFCCARTESIANPOINT((-0.82670278818932275,-0.4772970773009193,3.7470941546018395));
#228=IFCCARTESIANPOINT((-0.67500000000000038,-0.6749999999999996,3.7470941546018395));
#229=IFCCARTESIANPOINT((-0.47729707730092003,-0.8267027881893223,3.7470941546018395));
#230=IFCCARTESIANPOINT((-0.24706714755449596,-0.92206714755449615,3.7470941546018395));
#231=IFCCARTESIANPOINT((-1.7535610138768738E-16,-0.95459415460183916,3.7470941546018395));
#232=IFCCARTESIANPOINT((0.24706714755449563,-0.92206714755449626,3.7470941546018395));
#233=IFCCARTESIANPOINT((0.47729707730091969,-0.82670278818932252,3.7470941546018395));
#234=IFCCARTESIANPOINT((0.67499999999999982,-0.67500000000000016,3.7470941546018395));
#235=IFCCARTESIANPOINT((0.8267027881893223,-0.47729707730092003,3.7470941546018395));
#236=IFCCARTESIANPOINT((0.92206714755449593,-0.24706714755449685,3.7470941546018395));
#237=IFCCARTESIANPOINT((1.1224839766084362,0.,3.5425198145764631));
#238=IFCCARTESIANPOINT((1.084236262601743,0.29052023096867569,3.5425198145764631));
#239=IFCCARTESIANPOINT((0.97209963908388342,0.56124198830421801,3.5425198145764631));
#240=IFCCARTESIANPOINT((0.79371603163306725,0.79371603163306714,3.5425198145764631));
#241=IFCCARTESIANPOINT((0.56124198830421823,0.9720996390838833,3.5425198145764631));
#242=IFCCARTESIANPOINT((0.29052023096867569,1.084236262601743,3.5425198145764631));
#243=IFCCARTESIANPOINT((6.8732320452385695E-17,1.1224839766084362,3.5425198145764631));
#244=IFCCARTESIANPOINT((-0.29052023096867557,1.084236262601743,3.5425198145764631));
#245=IFCCARTESIANPOINT((-0.5612419883042179,0.97209963908388342,3.5425198145764631));
#246=IFCCARTESIANPOINT((-0.79371603163306714,0.79371603163306725,3.5425198145764631));
#247=IFCCARTESIANPOINT((-0.97209963908388342,0.56124198830421801,3.5425198145764631));
#248=IFCCARTESIANPOINT((-1.0842362626017428,0.29052023096867602,3.5425198145764631));
#249=IFCCARTESIANPOINT((-1.1224839766084362,1.3746464090477139E-16,3.5425198145764631));
#250=IFCCARTESIANPOINT((-1.084236262601743,-0.29052023096867574,3.5425198145764631));
#251=IFCCARTESIANPOINT((-0.97209963908388353,-0.56124198830421779,3.5425198145764631));
#252=IFCCARTESIANPOINT((-0.7937160316330677,-0.79371603163306681,3.5425198145764631));
#253=IFCCARTESIANPOINT((-0.56124198830421856,-0.97209963908388308,3.5425198145764631));
#254=IFCCARTESIANPOINT((-0.29052023096867557,-1.084236262601743,3.5425198145764631));
#255=IFCCARTESIANPOINT((-2.0619696135715707E-16,-1.1224839766084362,3.5425198145764631));
#256=IFCCARTESIANPOINT((0.29052023096867519,-1.0842362626017432,3.5425198145764631));
#257=IFCCARTESIANPOINT((0.56124198830421823,-0.9720996390838833,3.5425198145764631));
#258=IFCCARTESIANPOINT((0.79371603163306703,-0.79371603163306748,3.5425198145764631));
#259=IFCCARTESIANPOINT((0.97209963908388308,-0.56124198830421856,3.5425198145764631));
#260=IFCCARTESIANPOINT((1.0842362626017428,-0.29052023096867663,3.5425198145764631));
#261=IFCCARTESIANPOINT((1.2472373688902372,0.,3.3091226336928714));
#262=IFCCARTESIANPOINT((1.2047387861239058,0.32280878483235159,3.3091226336928714));
#263=IFCCARTESIANPOINT((1.0801392460082087,0.62361868444511848,3.3091226336928714));
#264=IFCCARTESIANPOINT((0.8819300012915543,0.88193000129155408,3.3091226336928714));
#265=IFCCARTESIANPOINT((0.6236186844451187,1.0801392460082084,3.3091226336928714));
#266=IFCCARTESIANPOINT((0.32280878483235159,1.2047387861239058,3.3091226336928714));
#267=IFCCARTESIANPOINT((7.6371262579419783E-17,1.2472373688902372,3.3091226336928714));
#268=IFCCARTESIANPOINT((-0.32280878483235148,1.2047387861239058,3.3091226336928714));
#269=IFCCARTESIANPOINT((-0.62361868444511837,1.0801392460082087,3.3091226336928714));
#270=IFCCARTESIANPOINT((-0.88193000129155408,0.8819300012915543,3.3091226336928714));
#271=IFCCARTESIANPOINT((-1.0801392460082087,0.62361868444511848,3.3091226336928714));
#272=IFCCARTESIANPOINT((-1.2047387861239056,0.32280878483235192,3.3091226336928714));
#273=IFCCARTESIANPOINT((-1.2472373688902372,1.5274252515883957E-16,3.3091226336928714));
#274=IFCCARTESIANPOINT((-1.2047387861239058,-0.32280878483235165,3.3091226336928714));
#275=IFCCARTESIANPOINT((-1.0801392460082087,-0.62361868444511825,3.3091226336928714));
#276=IFCCARTESIANPOINT((-0.88193000129155463,-0.88193000129155374,3.3091226336928714));
#277=IFCCARTESIANPOINT((-0.62361868444511914,-1.0801392460082082,3.3091226336928714));
#278=IFCCARTESIANPOINT((-0.32280878483235148,-1.2047387861239058,3.3091226336928714));
#279=IFCCARTESIANPOINT((-2.2911378773825931E-16,-1.2472373688902372,3.3091226336928714));
#280=IFCCARTESIANPOINT((0.32280878483235104,-1.2047387861239061,3.3091226336928714));
#281=IFCCARTESIANPOINT((0.6236186844451187,-1.0801392460082084,3.3091226336928714));
#282=IFCCARTESIANPOINT((0.88193000129155397,-0.88193000129155441,3.3091226336928714));
#283=IFCCARTESIANPOINT((1.0801392460082082,-0.62361868444511914,3.3091226336928714));
#284=IFCCARTESIANPOINT((1.2047387861239056,-0.32280878483235265,3.3091226336928714));
#285=IFCCARTESIANPOINT((1.3240601285443612,0.,3.0558719347217731));
#286=IFCCARTESIANPOINT((1.278943873720622,0.34269197812817243,3.0558719347217731));
#287=IFCCARTESIANPOINT((1.1466697074575063,0.66203006427218047,3.0558719347217731));
#288=IFCCARTESIANPOINT((0.9362518955924497,0.93625189559244948,3.0558719347217731));
#289=IFCCARTESIANPOINT((0.6620300642721807,1.1466697074575061,3.0558719347217731));
#290=IFCCARTESIANPOINT((0.34269197812817243,1.278943873720622,3.0558719347217731));
#291=IFCCARTESIANPOINT((8.1075299915024247E-17,1.3240601285443612,3.0558719347217731));
#292=IFCCARTESIANPOINT((-0.34269197812817226,1.278943873720622,3.0558719347217731));
#293=IFCCARTESIANPOINT((-0.66203006427218025,1.1466697074575063,3.0558719347217731));
#294=IFCCARTESIANPOINT((-0.93625189559244948,0.9362518955924497,3.0558719347217731));
#295=IFCCARTESIANPOINT((-1.1466697074575063,0.66203006427218047,3.0558719347217731));
#296=IFCCARTESIANPOINT((-1.278943873720622,0.34269197812817281,3.0558719347217731));
#297=IFCCARTESIANPOINT((-1.3240601285443612,1.6215059983004849E-16,3.0558719347217731));
#298=IFCCARTESIANPOINT((-1.278943873720622,-0.34269197812817248,3.0558719347217731));
#299=IFCCARTESIANPOINT((-1.1466697074575063,-0.66203006427218025,3.0558719347217731));
#300=IFCCARTESIANPOINT((-0.93625189559245003,-0.93625189559244903,3.0558719347217731));
#301=IFCCARTESIANPOINT((-0.66203006427218114,-1.1466697074575058,3.0558719347217731));
#302=IFCCARTESIANPOINT((-0.34269197812817226,-1.278943873720622,3.0558719347217731));
#303=IFCCARTESIANPOINT((-2.432258997450727E-16,-1.3240601285443612,3.0558719347217731));
#304=IFCCARTESIANPOINT((0.34269197812817181,-1.2789438737206222,3.0558719347217731));
#305=IFCCARTESIANPOINT((0.6620300642721807,-1.1466697074575061,3.0558719347217731));
#306=IFCCARTESIANPOINT((0.93625189559244937,-0.93625189559244981,3.0558719347217731));
#307=IFCCARTESIANPOINT((1.1466697074575058,-0.66203006427218114,3.0558719347217731));
#308=IFCCARTESIANPOINT((1.2789438737206218,-0.34269197812817354,3.0558719347217731));
#309=IFCCARTESIANPOINT((1.3500000000000001,0.,2.7925));
#310=IFCCARTESIANPOINT((1.3039998654902423,0.349405710888403,2.7925));
#311=IFCCARTESIANPOINT((1.1691342951089922,0.67499999999999993,2.7925));
#312=IFCCARTESIANPOINT((0.95459415460183927,0.95459415460183916,2.7925));
#313=IFCCARTESIANPOINT((0.67500000000000016,1.1691342951089922,2.7925));
#314=IFCCARTESIANPOINT((0.349405710888403,1.3039998654902423,2.7925));
#315=IFCCARTESIANPOINT((8.2663658942446343E-17,1.3500000000000001,2.7925));
#316=IFCCARTESIANPOINT((-0.34940571088840289,1.3039998654902423,2.7925));
#317=IFCCARTESIANPOINT((-0.67499999999999971,1.1691342951089922,2.7925));
#318=IFCCARTESIANPOINT((-0.95459415460183916,0.95459415460183927,2.7925));
#319=IFCCARTESIANPOINT((-1.1691342951089922,0.67499999999999993,2.7925));
#320=IFCCARTESIANPOINT((-1.303999865490242,0.34940571088840339,2.7925));
#321=IFCCARTESIANPOINT((-1.3500000000000001,1.6532731788489269E-16,2.7925));
#322=IFCCARTESIANPOINT((-1.3039998654902423,-0.34940571088840311,2.7925));
#323=IFCCARTESIANPOINT((-1.1691342951089925,-0.67499999999999971,2.7925));
#324=IFCCARTESIANPOINT((-0.95459415460183972,-0.95459415460183872,2.7925));
#325=IFCCARTESIANPOINT((-0.6750000000000006,-1.1691342951089918,2.7925));
#326=IFCCARTESIANPOINT((-0.34940571088840289,-1.3039998654902423,2.7925));
#327=IFCCARTESIANPOINT((-2.4799097682733903E-16,-1.3500000000000001,2.7925));
#328=IFCCARTESIANPOINT((0.34940571088840244,-1.3039998654902425,2.7925));
#329=IFCCARTESIANPOINT((0.67500000000000016,-1.1691342951089922,2.7925));
#330=IFCCARTESIANPOINT((0.95459415460183894,-0.95459415460183938,2.7925));
#331=IFCCARTESIANPOINT((1.1691342951089918,-0.6750000000000006,2.7925));
#332=IFCCARTESIANPOINT((1.303999865490242,-0.34940571088840416,2.7925));
#333=IFCCARTESIANPOINT((1.3240601285443612,0.,2.5291280652782269));
#334=IFCCARTESIANPOINT((1.278943873720622,0.34269197812817243,2.5291280652782269));
#335=IFCCARTESIANPOINT((1.1466697074575063,0.66203006427218047,2.5291280652782269));
#336=IFCCARTESIANPOINT((0.9362518955924497,0.93625189559244948,2.5291280652782269));
#337=IFCCARTESIANPOINT((0.6620300642721807,1.1466697074575061,2.5291280652782269));
#338=IFCCARTESIANPOINT((0.34269197812817243,1.278943873720622,2.5291280652782269));
#339=IFCCARTESIANPOINT((8.1075299915024247E-17,1.3240601285443612,2.5291280652782269));
#340=IFCCARTESIANPOINT((-0.34269197812817226,1.278943873720622,2.5291280652782269));
#341=IFCCARTESIANPOINT((-0.66203006427218025,1.1466697074575063,2.5291280652782269));
#342=IFCCARTESIANPOINT((-0.93625189559244948,0.9362518955924497,2.5291280652782269));
#343=IFCCARTESIANPOINT((-1.1466697074575063,0.66203006427218047,2.5291280652782269));
#344=IFCCARTESIANPOINT((-1.278943873720622,0.34269197812817281,2.5291280652782269));
#345=IFCCARTESIANPOINT((-1.3240601285443612,1.6215059983004849E-16,2.5291280652782269));
#346=IFCCARTESIANPOINT((-1.278943873720622,-0.34269197812817248,2.5291280652782269));
#347=IFCCARTESIANPOINT((-1.1466697074575063,-0.66203006427218025,2.5291280652782269));
#348=IFCCARTESIANPOINT((-0.93625189559245003,-0.93625189559244903,2.5291280652782269));
#349=IFCCARTESIANPOINT((-0.66203006427218114,-1.1466697074575058,2.5291280652782269));
#350=IFCCARTESIANPOINT((-0.34269197812817226,-1.278943873720622,2.5291280652782269));
#351=IFCCARTESIANPOINT((-2.432258997450727E-16,-1.3240601285443612,2.5291280652782269));
#352=IFCCARTESIANPOINT((0.34269197812817181,-1.2789438737206222,2.5291280652782269));
#353=IFCCARTESIANPOINT((0.6620300642721807,-1.1466697074575061,2.5291280652782269));
#354=IFCCARTESIANPOINT((0.93625189559244937,-0.93625189559244981,2.5291280652782269));
#355=IFCCARTESIANPOINT((1.1466697074575058,-0.66203006427218114,2.5291280652782269));
#356=IFCCARTESIANPOINT((1.2789438737206218,-0.34269197812817354,2.5291280652782269));
#357=IFCCARTESIANPOINT((1.2472373688902372,0.,2.275877366307129));
#358=IFCCARTESIANPOINT((1.2047387861239058,0.32280878483235159,2.275877366307129));
#359=IFCCARTESIANPOINT((1.0801392460082087,0.62361868444511848,2.275877366307129));
#360=IFCCARTESIANPOINT((0.8819300012915543,0.88193000129155408,2.275877366307129));
#361=IFCCARTESIANPOINT((0.6236186844451187,1.0801392460082084,2.275877366307129));
#362=IFCCARTESIANPOINT((0.32280878483235159,1.2047387861239058,2.275877366307129));
#363=IFCCARTESIANPOINT((7.6371262579419783E-17,1.2472373688902372,2.275877366307129));
#364=IFCCARTESIANPOINT((-0.32280878483235148,1.2047387861239058,2.275877366307129));
#365=IFCCARTESIANPOINT((-0.62361868444511837,1.0801392460082087,2.275877366307129));
#366=IFCCARTESIANPOINT((-0.88193000129155408,0.8819300012915543,2.275877366307129));
#367=IFCCARTESIANPOINT((-1.0801392460082087,0.62361868444511848,2.275877366307129));
#368=IFCCARTESIANPOINT((-1.2047387861239056,0.32280878483235192,2.275877366307129));
#369=IFCCARTESIANPOINT((-1.2472373688902372,1.5274252515883957E-16,2.275877366307129));
#370=IFCCARTESIANPOINT((-1.2047387861239058,-0.32280878483235165,2.275877366307129));
#371=IFCCARTESIANPOINT((-1.0801392460082087,-0.62361868444511825,2.275877366307129));
#372=IFCCARTESIANPOINT((-0.88193000129155463,-0.88193000129155374,2.275877366307129));
#373=IFCCARTESIANPOINT((-0.62361868444511914,-1.0801392460082082,2.275877366307129));
#374=IFCCARTESIANPOINT((-0.32280878483235148,-1.2047387861239058,2.275877366307129));
#375=IFCCARTESIANPOINT((-2.2911378773825931E-16,-1.2472373688902372,2.275877366307129));
#376=IFCCARTESIANPOINT((0.32280878483235104,-1.2047387861239061,2.275877366307129));
#377=IFCCARTESIANPOINT((0.6236186844451187,-1.0801392460082084,2.275877366307129));
#378=IFCCARTESIANPOINT((0.88193000129155397,-0.88193000129155441,2.275877366307129));
#379=IFCCARTESIANPOINT((1.0801392460082082,-0.62361868444511914,2.275877366307129));
#380=IFCCARTESIANPOINT((1.2047387861239056,-0.32280878483235265,2.275877366307129));
#381=IFCCARTESIANPOINT((1.1224839766084365,0.,2.0424801854235373));
#382=IFCCARTESIANPOINT((1.0842362626017432,0.29052023096867574,2.0424801854235373));
#383=IFCCARTESIANPOINT((0.97209963908388364,0.56124198830421812,2.0424801854235373));
#384=IFCCARTESIANPOINT((0.79371603163306748,0.79371603163306736,2.0424801854235373));
#385=IFCCARTESIANPOINT((0.56124198830421834,0.97209963908388353,2.0424801854235373));
#386=IFCCARTESIANPOINT((0.29052023096867574,1.0842362626017432,2.0424801854235373));
#387=IFCCARTESIANPOINT((6.8732320452385708E-17,1.1224839766084365,2.0424801854235373));
#388=IFCCARTESIANPOINT((-0.29052023096867563,1.0842362626017432,2.0424801854235373));
#389=IFCCARTESIANPOINT((-0.56124198830421801,0.97209963908388364,2.0424801854235373));
#390=IFCCARTESIANPOINT((-0.79371603163306736,0.79371603163306748,2.0424801854235373));
#391=IFCCARTESIANPOINT((-0.97209963908388364,0.56124198830421812,2.0424801854235373));
#392=IFCCARTESIANPOINT((-1.084236262601743,0.29052023096867607,2.0424801854235373));
#393=IFCCARTESIANPOINT((-1.1224839766084365,1.3746464090477142E-16,2.0424801854235373));
#394=IFCCARTESIANPOINT((-1.0842362626017432,-0.2905202309686758,2.0424801854235373));
#395=IFCCARTESIANPOINT((-0.97209963908388375,-0.5612419883042179,2.0424801854235373));
#396=IFCCARTESIANPOINT((-0.79371603163306781,-0.79371603163306692,2.0424801854235373));
#397=IFCCARTESIANPOINT((-0.56124198830421868,-0.9720996390838833,2.0424801854235373));
#398=IFCCARTESIANPOINT((-0.29052023096867563,-1.0842362626017432,2.0424801854235373));
#399=IFCCARTESIANPOINT((-2.0619696135715712E-16,-1.1224839766084365,2.0424801854235373));
#400=IFCCARTESIANPOINT((0.29052023096867524,-1.0842362626017434,2.0424801854235373));
#401=IFCCARTESIANPOINT((0.56124198830421834,-0.97209963908388353,2.0424801854235373));
#402=IFCCARTESIANPOINT((0.79371603163306725,-0.79371603163306759,2.0424801854235373));
#403=IFCCARTESIANPOINT((0.9720996390838833,-0.56124198830421868,2.0424801854235373));
#404=IFCCARTESIANPOINT((1.084236262601743,-0.29052023096867668,2.0424801854235373));
#405=IFCCARTESIANPOINT((0.95459415460183927,0.,1.8379058453981609));
#406=IFCCARTESIANPOINT((0.92206714755449626,0.2470671475544961,1.8379058453981609));
#407=IFCCARTESIANPOINT((0.82670278818932275,0.47729707730091958,1.8379058453981609));
#408=IFCCARTESIANPOINT((0.67500000000000016,0.67500000000000004,1.8379058453981609));
#409=IFCCARTESIANPOINT((0.47729707730091975,0.82670278818932263,1.8379058453981609));
#410=IFCCARTESIANPOINT((0.2470671475544961,0.92206714755449626,1.8379058453981609));
#411=IFCCARTESIANPOINT((5.8452033795895801E-17,0.95459415460183927,1.8379058453981609));
#412=IFCCARTESIANPOINT((-0.24706714755449599,0.92206714755449626,1.8379058453981609));
#413=IFCCARTESIANPOINT((-0.47729707730091941,0.82670278818932275,1.8379058453981609));
#414=IFCCARTESIANPOINT((-0.67500000000000004,0.67500000000000016,1.8379058453981609));
#415=IFCCARTESIANPOINT((-0.82670278818932275,0.47729707730091958,1.8379058453981609));
#416=IFCCARTESIANPOINT((-0.92206714755449615,0.24706714755449635,1.8379058453981609));
#417=IFCCARTESIANPOINT((-0.95459415460183927,1.169040675917916E-16,1.8379058453981609));
#418=IFCCARTESIANPOINT((-0.92206714755449626,-0.24706714755449616,1.8379058453981609));
#419=IFCCARTESIANPOINT((-0.82670278818932286,-0.47729707730091936,1.8379058453981609));
#420=IFCCARTESIANPOINT((-0.67500000000000049,-0.67499999999999971,1.8379058453981609));
#421=IFCCARTESIANPOINT((-0.47729707730092008,-0.82670278818932241,1.8379058453981609));
#422=IFCCARTESIANPOINT((-0.24706714755449599,-0.92206714755449626,1.8379058453981609));
#423=IFCCARTESIANPOINT((-1.753561013876874E-16,-0.95459415460183927,1.8379058453981609));
#424=IFCCARTESIANPOINT((0.24706714755449566,-0.92206714755449637,1.8379058453981609));
#425=IFCCARTESIANPOINT((0.47729707730091975,-0.82670278818932263,1.8379058453981609));
#426=IFCCARTESIANPOINT((0.67499999999999993,-0.67500000000000027,1.8379058453981609));
#427=IFCCARTESIANPOINT((0.82670278818932241,-0.47729707730092008,1.8379058453981609));
#428=IFCCARTESIANPOINT((0.92206714755449604,-0.24706714755449688,1.8379058453981609));
#429=IFCCARTESIANPOINT((0.75001981457646294,0.,1.6700160233915637));
#430=IFCCARTESIANPOINT((0.72446350912794377,0.1941194122166498,1.6700160233915637));
#431=IFCCARTESIANPOINT((0.64953621276491114,0.37500990728823141,1.6700160233915637));
#432=IFCCARTESIANPOINT((0.53034409691129392,0.53034409691129392,1.6700160233915637));
#433=IFCCARTESIANPOINT((0.37500990728823158,0.64953621276491114,1.6700160233915637));
#434=IFCCARTESIANPOINT((0.1941194122166498,0.72446350912794377,1.6700160233915637));
#435=IFCCARTESIANPOINT((4.5925468260907832E-17,0.75001981457646294,1.6700160233915637));
#436=IFCCARTESIANPOINT((-0.19411941221664972,0.72446350912794377,1.6700160233915637));
#437=IFCCARTESIANPOINT((-0.3750099072882313,0.64953621276491114,1.6700160233915637));
#438=IFCCARTESIANPOINT((-0.53034409691129392,0.53034409691129392,1.6700160233915637));
#439=IFCCARTESIANPOINT((-0.64953621276491114,0.37500990728823141,1.6700160233915637));
#440=IFCCARTESIANPOINT((-0.72446350912794366,0.19411941221665002,1.6700160233915637));
#441=IFCCARTESIANPOINT((-0.75001981457646294,9.1850936521815665E-17,1.6700160233915637));
#442=IFCCARTESIANPOINT((-0.72446350912794377,-0.19411941221664986,1.6700160233915637));
#443=IFCCARTESIANPOINT((-0.64953621276491125,-0.37500990728823125,1.6700160233915637));
#444=IFCCARTESIANPOINT((-0.53034409691129425,-0.53034409691129358,1.6700160233915637));
#445=IFCCARTESIANPOINT((-0.3750099072882318,-0.64953621276491091,1.6700160233915637));
#446=IFCCARTESIANPOINT((-0.19411941221664972,-0.72446350912794377,1.6700160233915637));
#447=IFCCARTESIANPOINT((-1.377764047827235E-16,-0.75001981457646294,1.6700160233915637));
#448=IFCCARTESIANPOINT((0.19411941221664947,-0.72446350912794388,1.6700160233915637));
#449=IFCCARTESIANPOINT((0.37500990728823158,-0.64953621276491114,1.6700160233915637));
#450=IFCCARTESIANPOINT((0.53034409691129381,-0.53034409691129403,1.6700160233915637));
#451=IFCCARTESIANPOINT((0.64953621276491091,-0.3750099072882318,1.6700160233915637));
#452=IFCCARTESIANPOINT((0.72446350912794355,-0.19411941221665044,1.6700160233915637));
#453=IFCCARTESIANPOINT((0.51662263369287142,0.,1.5452626311097628));
#454=IFCCARTESIANPOINT((0.49901914432942152,0.13371177673073834,1.5452626311097628));
#455=IFCCARTESIANPOINT((0.44740832494804916,0.25831131684643566,1.5452626311097628));
#456=IFCCARTESIANPOINT((0.36530736759868315,0.3653073675986831,1.5452626311097628));
#457=IFCCARTESIANPOINT((0.25831131684643577,0.44740832494804911,1.5452626311097628));
#458=IFCCARTESIANPOINT((0.13371177673073834,0.49901914432942152,1.5452626311097628));
#459=IFCCARTESIANPOINT((3.1634012735952525E-17,0.51662263369287142,1.5452626311097628));
#460=IFCCARTESIANPOINT((-0.13371177673073828,0.49901914432942152,1.5452626311097628));
#461=IFCCARTESIANPOINT((-0.2583113168464356,0.44740832494804916,1.5452626311097628));
#462=IFCCARTESIANPOINT((-0.3653073675986831,0.36530736759868315,1.5452626311097628));
#463=IFCCARTESIANPOINT((-0.44740832494804916,0.25831131684643566,1.5452626311097628));
#464=IFCCARTESIANPOINT((-0.49901914432942146,0.13371177673073847,1.5452626311097628));
#465=IFCCARTESIANPOINT((-0.51662263369287142,6.326802547190505E-17,1.5452626311097628));
#466=IFCCARTESIANPOINT((-0.49901914432942152,-0.13371177673073836,1.5452626311097628));
#467=IFCCARTESIANPOINT((-0.44740832494804922,-0.25831131684643555,1.5452626311097628));
#468=IFCCARTESIANPOINT((-0.36530736759868332,-0.36530736759868293,1.5452626311097628));
#469=IFCCARTESIANPOINT((-0.25831131684643593,-0.447408324948049,1.5452626311097628));
#470=IFCCARTESIANPOINT((-0.13371177673073828,-0.49901914432942152,1.5452626311097628));
#471=IFCCARTESIANPOINT((-9.4902038207857575E-17,-0.51662263369287142,1.5452626311097628));
#472=IFCCARTESIANPOINT((0.13371177673073811,-0.49901914432942157,1.5452626311097628));
#473=IFCCARTESIANPOINT((0.25831131684643577,-0.44740832494804911,1.5452626311097628));
#474=IFCCARTESIANPOINT((0.36530736759868304,-0.36530736759868321,1.5452626311097628));
#475=IFCCARTESIANPOINT((0.447408324948049,-0.25831131684643593,1.5452626311097628));
#476=IFCCARTESIANPOINT((0.4990191443294214,-0.13371177673073878,1.5452626311097628));
#477=IFCCARTESIANPOINT((0.26337193472177362,0.,1.4684398714556388));
#478=IFCCARTESIANPOINT((0.25439775366747974,0.06816567265149287,1.4684398714556388));
#479=IFCCARTESIANPOINT((0.22808678611291283,0.13168596736088678,1.4684398714556388));
#480=IFCCARTESIANPOINT((0.18623208101598687,0.18623208101598684,1.4684398714556388));
#481=IFCCARTESIANPOINT((0.13168596736088684,0.2280867861129128,1.4684398714556388));
#482=IFCCARTESIANPOINT((0.06816567265149287,0.25439775366747974,1.4684398714556388));
#483=IFCCARTESIANPOINT((1.6126879842113287E-17,0.26337193472177362,1.4684398714556388));
#484=IFCCARTESIANPOINT((-0.068165672651492842,0.25439775366747974,1.4684398714556388));
#485=IFCCARTESIANPOINT((-0.13168596736088675,0.22808678611291283,1.4684398714556388));
#486=IFCCARTESIANPOINT((-0.18623208101598684,0.18623208101598687,1.4684398714556388));
#487=IFCCARTESIANPOINT((-0.22808678611291283,0.13168596736088678,1.4684398714556388));
#488=IFCCARTESIANPOINT((-0.25439775366747969,0.06816567265149294,1.4684398714556388));
#489=IFCCARTESIANPOINT((-0.26337193472177362,3.2253759684226574E-17,1.4684398714556388));
#490=IFCCARTESIANPOINT((-0.25439775366747974,-0.068165672651492884,1.4684398714556388));
#491=IFCCARTESIANPOINT((-0.22808678611291286,-0.13168596736088672,1.4684398714556388));
#492=IFCCARTESIANPOINT((-0.18623208101598696,-0.18623208101598676,1.4684398714556388));
#493=IFCCARTESIANPOINT((-0.13168596736088692,-0.22808678611291275,1.4684398714556388));
#494=IFCCARTESIANPOINT((-0.068165672651492842,-0.25439775366747974,1.4684398714556388));
#495=IFCCARTESIANPOINT((-4.8380639526339851E-17,-0.26337193472177362,1.4684398714556388));
#496=IFCCARTESIANPOINT((0.068165672651492759,-0.25439775366747974,1.4684398714556388));
#497=IFCCARTESIANPOINT((0.13168596736088684,-0.2280867861129128,1.4684398714556388));
#498=IFCCARTESIANPOINT((0.18623208101598682,-0.1862320810159869,1.4684398714556388));
#499=IFCCARTESIANPOINT((0.22808678611291275,-0.13168596736088692,1.4684398714556388));
#500=IFCCARTESIANPOINT((0.25439775366747969,-0.068165672651493092,1.4684398714556388));
#501=IFCCARTESIANPOINT((0.,0.,1.4424999999999999));
#502=IFCPOLYLOOP((#140,#141,#142));
#503=IFCFACEOUTERBOUND(#502,.T.);
#504=IFCFACE((#503));
#505=IFCPOLYLOOP((#140,#142,#143));
#506=IFCFACEOUTERBOUND(#505,.T.);
#507=IFCFACE((#506));
#508=IFCPOLYLOOP((#140,#143,#144));
#509=IFCFACEOUTERBOUND(#508,.T.);
#510=IFCFACE((#509));
#511=IFCPOLYLOOP((#140,#144,#145));
#512=IFCFACEOUTERBOUND(#511,.T.);
#513=IFCFACE((#512));
#514=IFCPOLYLOOP((#140,#145,#146));
#515=IFCFACEOUTERBOUND(#514,.T.);
#516=IFCFACE((#515));
#517=IFCPOLYLOOP((#140,#146,#147));
#518=IFCFACEOUTERBOUND(#517,.T.);
#519=IFCFACE((#518));
#520=IFCPOLYLOOP((#140,#147,#148));
#521=IFCFACEOUTERBOUND(#520,.T.);
#522=IFCFACE((#521));
#523=IFCPOLYLOOP((#140,#148,#149));
#524=IFCFACEOUTERBOUND(#523,.T.);
#525=IFCFACE((#524));
#526=IFCPOLYLOOP((#140,#149,#150));
#527=IFCFACEOUTERBOUND(#526,.T.);
#528=IFCFACE((#527));
#529=IFCPOLYLOOP((#140,#150,#151));
#530=IFCFACEOUTERBOUND(#529,.T.);
#531=IFCFACE((#530));
#532=IFCPOLYLOOP((#140,#151,#152));
#533=IFCFACEOUTERBOUND(#532,.T.);
#534=IFCFACE((#533));
#535=IFCPOLYLOOP((#140,#152,#153));
#536=IFCFACEOUTERBOUND(#535,.T.);
#537=IFCFACE((#536));
#538=IFCPOLYLOOP((#140,#153,#154));
#539=IFCFACEOUTERBOUND(#538,.T.);
#540=IFCFACE((#539));
#541=IFCPOLYLOOP((#140,#154,#155));
#542=IFCFACEOUTERBOUND(#541,.T.);
#543=IFCFACE((#542));
#544=IFCPOLYLOOP((#140,#155,#156));
#545=IFCFACEOUTERBOUND(#544,.T.);
#546=IFCFACE((#545));
#547=IFCPOLYLOOP((#140,#156,#157));
#548=IFCFACEOUTERBOUND(#547,.T.);
#549=IFCFACE((#548));
#550=IFCPOLYLOOP((#140,#157,#158));
#551=IFCFACEOUTERBOUND(#550,.T.);
#552=IFCFACE((#551));
#553=IFCPOLYLOOP((#140,#158,#159));
#554=IFCFACEOUTERBOUND(#553,.T.);
#555=IFCFACE((#554));
#556=IFCPOLYLOOP((#140,#159,#160));
#557=IFCFACEOUTERBOUND(#556,.T.);
#558=IFCFACE((#557));
#559=IFCPOLYLOOP((#140,#160,#161));
#560=IFCFACEOUTERBOUND(#559,.T.);
#561=IFCFACE((#560));
#562=IFCPOLYLOOP((#140,#161,#162));
#563=IFCFACEOUTERBOUND(#562,.T.);
#564=IFCFACE((#563));
#565=IFCPOLYLOOP((#140,#162,#163));
#566=IFCFACEOUTERBOUND(#565,.T.);
#567=IFCFACE((#566));
#568=IFCPOLYLOOP((#140,#163,#164));
#569=IFCFACEOUTERBOUND(#568,.T.);
#570=IFCFACE((#569));
#571=IFCPOLYLOOP((#140,#164,#141));
#572=IFCFACEOUTERBOUND(#571,.T.);
#573=IFCFACE((#572));
#574=IFCPOLYLOOP((#141,#165,#166,#142));
#575=IFCFACEOUTERBOUND(#574,.T.);
#576=IFCFACE((#575));
#577=IFCPOLYLOOP((#142,#166,#167,#143));
#578=IFCFACEOUTERBOUND(#577,.T.);
#579=IFCFACE((#578));
#580=IFCPOLYLOOP((#143,#167,#168,#144));
#581=IFCFACEOUTERBOUND(#580,.T.);
#582=IFCFACE((#581));
#583=IFCPOLYLOOP((#144,#168,#169,#145));
#584=IFCFACEOUTERBOUND(#583,.T.);
#585=IFCFACE((#584));
#586=IFCPOLYLOOP((#145,#169,#170,#146));
#587=IFCFACEOUTERBOUND(#586,.T.);
#588=IFCFACE((#587));
#589=IFCPOLYLOOP((#146,#170,#171,#147));
#590=IFCFACEOUTERBOUND(#589,.T.);
#591=IFCFACE((#590));
#592=IFCPOLYLOOP((#147,#171,#172,#148));
#593=IFCFACEOUTERBOUND(#592,.T.);
#594=IFCFACE((#593));
#595=IFCPOLYLOOP((#148,#172,#173,#149));
#596=IFCFACEOUTERBOUND(#595,.T.);
#597=IFCFACE((#596));
#598=IFCPOLYLOOP((#149,#173,#174,#150));
#599=IFCFACEOUTERBOUND(#598,.T.);
#600=IFCFACE((#599));
#601=IFCPOLYLOOP((#150,#174,#175,#151));
#602=IFCFACEOUTERBOUND(#601,.T.);
#603=IFCFACE((#602));
#604=IFCPOLYLOOP((#151,#175,#176,#152));
#605=IFCFACEOUTERBOUND(#604,.T.);
#606=IFCFACE((#605));
#607=IFCPOLYLOOP((#152,#176,#177,#153));
#608=IFCFACEOUTERBOUND(#607,.T.);
#609=IFCFACE((#608));
#610=IFCPOLYLOOP((#153,#177,#178,#154));
#611=IFCFACEOUTERBOUND(#610,.T.);
#612=IFCFACE((#611));
#613=IFCPOLYLOOP((#154,#178,#179,#155));
#614=IFCFACEOUTERBOUND(#613,.T.);
#615=IFCFACE((#614));
#616=IFCPOLYLOOP((#155,#179,#180,#156));
#617=IFCFACEOUTERBOUND(#616,.T.);
#618=IFCFACE((#617));
#619=IFCPOLYLOOP((#156,#180,#181,#157));
#620=IFCFACEOUTERBOUND(#619,.T.);
#621=IFCFACE((#620));
#622=IFCPOLYLOOP((#157,#181,#182,#158));
#623=IFCFACEOUTERBOUND(#622,.T.);
#624=IFCFACE((#623));
#625=IFCPOLYLOOP((#158,#182,#183,#159));
#626=IFCFACEOUTERBOUND(#625,.T.);
#627=IFCFACE((#626));
#628=IFCPOLYLOOP((#159,#183,#184,#160));
#629=IFCFACEOUTERBOUND(#628,.T.);
#630=IFCFACE((#629));
#631=IFCPOLYLOOP((#160,#184,#185,#161));
#632=IFCFACEOUTERBOUND(#631,.T.);
#633=IFCFACE((#632));
#634=IFCPOLYLOOP((#161,#185,#186,#162));
#635=IFCFACEOUTERBOUND(#634,.T.);
#636=IFCFACE((#635));
#637=IFCPOLYLOOP((#162,#186,#187,#163));
#638=IFCFACEOUTERBOUND(#637,.T.);
#639=IFCFACE((#638));
#640=IFCPOLYLOOP((#163,#187,#188,#164));
#641=IFCFACEOUTERBOUND(#640,.T.);
#642=IFCFACE((#641));
#643=IFCPOLYLOOP((#164,#188,#165,#141));
#644=IFCFACEOUTERBOUND(#643,.T.);
#645=IFCFACE((#644));
#646=IFCPOLYLOOP((#165,#189,#190,#166));
#647=IFCFACEOUTERBOUND(#646,.T.);
#648=IFCFACE((#647));
#649=IFCPOLYLOOP((#166,#190,#191,#167));
#650=IFCFACEOUTERBOUND(#649,.T.);
#651=IFCFACE((#650));
#652=IFCPOLYLOOP((#167,#191,#192,#168));
#653=IFCFACEOUTERBOUND(#652,.T.);
#654=IFCFACE((#653));
#655=IFCPOLYLOOP((#168,#192,#193,#169));
#656=IFCFACEOUTERBOUND(#655,.T.);
#657=IFCFACE((#656));
#658=IFCPOLYLOOP((#169,#193,#194,#170));
#659=IFCFACEOUTERBOUND(#658,.T.);
#660=IFCFACE((#659));
#661=IFCPOLYLOOP((#170,#194,#195,#171));
#662=IFCFACEOUTERBOUND(#661,.T.);
#663=IFCFACE((#662));
#664=IFCPOLYLOOP((#171,#195,#196,#172));
#665=IFCFACEOUTERBOUND(#664,.T.);
#666=IFCFACE((#665));
#667=IFCPOLYLOOP((#172,#196,#197,#173));
#668=IFCFACEOUTERBOUND(#667,.T.);
#669=IFCFACE((#668));
#670=IFCPOLYLOOP((#173,#197,#198,#174));
#671=IFCFACEOUTERBOUND(#670,.T.);
#672=IFCFACE((#671));
#673=IFCPOLYLOOP((#174,#198,#199,#175));
#674=IFCFACEOUTERBOUND(#673,.T.);
#675=IFCFACE((#674));
#676=IFCPOLYLOOP((#175,#199,#200,#176));
#677=IFCFACEOUTERBOUND(#676,.T.);
#678=IFCFACE((#677));
#679=IFCPOLYLOOP((#176,#200,#201,#177));
#680=IFCFACEOUTERBOUND(#679,.T.);
#681=IFCFACE((#680));
#682=IFCPOLYLOOP((#177,#201,#202,#178));
#683=IFCFACEOUTERBOUND(#682,.T.);
#684=IFCFACE((#683));
#685=IFCPOLYLOOP((#178,#202,#203,#179));
#686=IFCFACEOUTERBOUND(#685,.T.);
#687=IFCFACE((#686));
#688=IFCPOLYLOOP((#179,#203,#204,#180));
#689=IFCFACEOUTERBOUND(#688,.T.);
#690=IFCFACE((#689));
#691=IFCPOLYLOOP((#180,#204,#205,#181));
#692=IFCFACEOUTERBOUND(#691,.T.);
#693=IFCFACE((#692));
#694=IFCPOLYLOOP((#181,#205,#206,#182));
#695=IFCFACEOUTERBOUND(#694,.T.);
#696=IFCFACE((#695));
#697=IFCPOLYLOOP((#182,#206,#207,#183));
#698=IFCFACEOUTERBOUND(#697,.T.);
#699=IFCFACE((#698));
#700=IFCPOLYLOOP((#183,#207,#208,#184));
#701=IFCFACEOUTERBOUND(#700,.T.);
#702=IFCFACE((#701));
#703=IFCPOLYLOOP((#184,#208,#209,#185));
#704=IFCFACEOUTERBOUND(#703,.T.);
#705=IFCFACE((#704));
#706=IFCPOLYLOOP((#185,#209,#210,#186));
#707=IFCFACEOUTERBOUND(#706,.T.);
#708=IFCFACE((#707));
#709=IFCPOLYLOOP((#186,#210,#211,#187));
#710=IFCFACEOUTERBOUND(#709,.T.);
#711=IFCFACE((#710));
#712=IFCPOLYLOOP((#187,#211,#212,#188));
#713=IFCFACEOUTERBOUND(#712,.T.);
#714=IFCFACE((#713));
#715=IFCPOLYLOOP((#188,#212,#189,#165));
#716=IFCFACEOUTERBOUND(#715,.T.);
#717=IFCFACE((#716));
#718=IFCPOLYLOOP((#189,#213,#214,#190));
#719=IFCFACEOUTERBOUND(#718,.T.);
#720=IFCFACE((#719));
#721=IFCPOLYLOOP((#190,#214,#215,#191));
#722=IFCFACEOUTERBOUND(#721,.T.);
#723=IFCFACE((#722));
#724=IFCPOLYLOOP((#191,#215,#216,#192));
#725=IFCFACEOUTERBOUND(#724,.T.);
#726=IFCFACE((#725));
#727=IFCPOLYLOOP((#192,#216,#217,#193));
#728=IFCFACEOUTERBOUND(#727,.T.);
#729=IFCFACE((#728));
#730=IFCPOLYLOOP((#193,#217,#218,#194));
#731=IFCFACEOUTERBOUND(#730,.T.);
#732=IFCFACE((#731));
#733=IFCPOLYLOOP((#194,#218,#219,#195));
#734=IFCFACEOUTERBOUND(#733,.T.);
#735=IFCFACE((#734));
#736=IFCPOLYLOOP((#195,#219,#220,#196));
#737=IFCFACEOUTERBOUND(#736,.T.);
#738=IFCFACE((#737));
#739=IFCPOLYLOOP((#196,#220,#221,#197));
#740=IFCFACEOUTERBOUND(#739,.T.);
#741=IFCFACE((#740));
#742=IFCPOLYLOOP((#197,#221,#222,#198));
#743=IFCFACEOUTERBOUND(#742,.T.);
#744=IFCFACE((#743));
#745=IFCPOLYLOOP((#198,#222,#223,#199));
#746=IFCFACEOUTERBOUND(#745,.T.);
#747=IFCFACE((#746));
#748=IFCPOLYLOOP((#199,#223,#224,#200));
#749=IFCFACEOUTERBOUND(#748,.T.);
#750=IFCFACE((#749));
#751=IFCPOLYLOOP((#200,#224,#225,#201));
#752=IFCFACEOUTERBOUND(#751,.T.);
#753=IFCFACE((#752));
#754=IFCPOLYLOOP((#201,#225,#226,#202));
#755=IFCFACEOUTERBOUND(#754,.T.);
#756=IFCFACE((#755));
#757=IFCPOLYLOOP((#202,#226,#227,#203));
#758=IFCFACEOUTERBOUND(#757,.T.);
#759=IFCFACE((#758));
#760=IFCPOLYLOOP((#203,#227,#228,#204));
#761=IFCFACEOUTERBOUND(#760,.T.);
#762=IFCFACE((#761));
#763=IFCPOLYLOOP((#204,#228,#229,#205));
#764=IFCFACEOUTERBOUND(#763,.T.);
#765=IFCFACE((#764));
#766=IFCPOLYLOOP((#205,#229,#230,#206));
#767=IFCFACEOUTERBOUND(#766,.T.);
#768=IFCFACE((#767));
#769=IFCPOLYLOOP((#206,#230,#231,#207));
#770=IFCFACEOUTERBOUND(#769,.T.);
#771=IFCFACE((#770));
#772=IFCPOLYLOOP((#207,#231,#232,#208));
#773=IFCFACEOUTERBOUND(#772,.T.);
#774=IFCFACE((#773));
#775=IFCPOLYLOOP((#208,#232,#233,#209));
#776=IFCFACEOUTERBOUND(#775,.T.);
#777=IFCFACE((#776));
#778=IFCPOLYLOOP((#209,#233,#234,#210));
#779=IFCFACEOUTERBOUND(#778,.T.);
#780=IFCFACE((#779));
#781=IFCPOLYLOOP((#210,#234,#235,#211));
#782=IFCFACEOUTERBOUND(#781,.T.);
#783=IFCFACE((#782));
#784=IFCPOLYLOOP((#211,#235,#236,#212));
#785=IFCFACEOUTERBOUND(#784,.T.);
#786=IFCFACE((#785));
#787=IFCPOLYLOOP((#212,#236,#213,#189));
#788=IFCFACEOUTERBOUND(#787,.T.);
#789=IFCFACE((#788));
#790=IFCPOLYLOOP((#213,#237,#238,#214));
#791=IFCFACEOUTERBOUND(#790,.T.);
#792=IFCFACE((#791));
#793=IFCPOLYLOOP((#214,#238,#239,#215));
#794=IFCFACEOUTERBOUND(#793,.T.);
#795=IFCFACE((#794));
#796=IFCPOLYLOOP((#215,#239,#240,#216));
#797=IFCFACEOUTERBOUND(#796,.T.);
#798=IFCFACE((#797));
#799=IFCPOLYLOOP((#216,#240,#241,#217));
#800=IFCFACEOUTERBOUND(#799,.T.);
#801=IFCFACE((#800));
#802=IFCPOLYLOOP((#217,#241,#242,#218));
#803=IFCFACEOUTERBOUND(#802,.T.);
#804=IFCFACE((#803));
#805=IFCPOLYLOOP((#218,#242,#243,#219));
#806=IFCFACEOUTERBOUND(#805,.T.);
#807=IFCFACE((#806));
#808=IFCPOLYLOOP((#219,#243,#244,#220));
#809=IFCFACEOUTERBOUND(#808,.T.);
#810=IFCFACE((#809));
#811=IFCPOLYLOOP((#220,#244,#245,#221));
#812=IFCFACEOUTERBOUND(#811,.T.);
#813=IFCFACE((#812));
#814=IFCPOLYLOOP((#221,#245,#246,#222));
#815=IFCFACEOUTERBOUND(#814,.T.);
#816=IFCFACE((#815));
#817=IFCPOLYLOOP((#222,#246,#247,#223));
#818=IFCFACEOUTERBOUND(#817,.T.);
#819=IFCFACE((#818));
#820=IFCPOLYLOOP((#223,#247,#248,#224));
#821=IFCFACEOUTERBOUND(#820,.T.);
#822=IFCFACE((#821));
#823=IFCPOLYLOOP((#224,#248,#249,#225));
#824=IFCFACEOUTERBOUND(#823,.T.);
#825=IFCFACE((#824));
#826=IFCPOLYLOOP((#225,#249,#250,#226));
#827=IFCFACEOUTERBOUND(#826,.T.);
#828=IFCFACE((#827));
#829=IFCPOLYLOOP((#226,#250,#251,#227));
#830=IFCFACEOUTERBOUND(#829,.T.);
#831=IFCFACE((#830));
#832=IFCPOLYLOOP((#227,#251,#252,#228));
#833=IFCFACEOUTERBOUND(#832,.T.);
#834=IFCFACE((#833));
#835=IFCPOLYLOOP((#228,#252,#253,#229));
#836=IFCFACEOUTERBOUND(#835,.T.);
#837=IFCFACE((#836));
#838=IFCPOLYLOOP((#229,#253,#254,#230));
#839=IFCFACEOUTERBOUND(#838,.T.);
#840=IFCFACE((#839));
#841=IFCPOLYLOOP((#230,#254,#255,#231));
#842=IFCFACEOUTERBOUND(#841,.T.);
#843=IFCFACE((#842));
#844=IFCPOLYLOOP((#231,#255,#256,#232));
#845=IFCFACEOUTERBOUND(#844,.T.);
#846=IFCFACE((#845));
#847=IFCPOLYLOOP((#232,#256,#257,#233));
#848=IFCFACEOUTERBOUND(#847,.T.);
#849=IFCFACE((#848));
#850=IFCPOLYLOOP((#233,#257,#258,#234));
#851=IFCFACEOUTERBOUND(#850,.T.);
#852=IFCFACE((#851));
#853=IFCPOLYLOOP((#234,#258,#259,#235));
#854=IFCFACEOUTERBOUND(#853,.T.);
#855=IFCFACE((#854));
#856=IFCPOLYLOOP((#235,#259,#260,#236));
#857=IFCFACEOUTERBOUND(#856,.T.);
#858=IFCFACE((#857));
#859=IFCPOLYLOOP((#236,#260,#237,#213));
#860=IFCFACEOUTERBOUND(#859,.T.);
#861=IFCFACE((#860));
#862=IFCPOLYLOOP((#237,#261,#262,#238));
#863=IFCFACEOUTERBOUND(#862,.T.);
#864=IFCFACE((#863));
#865=IFCPOLYLOOP((#238,#262,#263,#239));
#866=IFCFACEOUTERBOUND(#865,.T.);
#867=IFCFACE((#866));
#868=IFCPOLYLOOP((#239,#263,#264,#240));
#869=IFCFACEOUTERBOUND(#868,.T.);
#870=IFCFACE((#869));
#871=IFCPOLYLOOP((#240,#264,#265,#241));
#872=IFCFACEOUTERBOUND(#871,.T.);
#873=IFCFACE((#872));
#874=IFCPOLYLOOP((#241,#265,#266,#242));
#875=IFCFACEOUTERBOUND(#874,.T.);
#876=IFCFACE((#875));
#877=IFCPOLYLOOP((#242,#266,#267,#243));
#878=IFCFACEOUTERBOUND(#877,.T.);
#879=IFCFACE((#878));
#880=IFCPOLYLOOP((#243,#267,#268,#244));
#881=IFCFACEOUTERBOUND(#880,.T.);
#882=IFCFACE((#881));
#883=IFCPOLYLOOP((#244,#268,#269,#245));
#884=IFCFACEOUTERBOUND(#883,.T.);
#885=IFCFACE((#884));
#886=IFCPOLYLOOP((#245,#269,#270,#246));
#887=IFCFACEOUTERBOUND(#886,.T.);
#888=IFCFACE((#887));
#889=IFCPOLYLOOP((#246,#270,#271,#247));
#890=IFCFACEOUTERBOUND(#889,.T.);
#891=IFCFACE((#890));
#892=IFCPOLYLOOP((#247,#271,#272,#248));
#893=IFCFACEOUTERBOUND(#892,.T.);
#894=IFCFACE((#893));
#895=IFCPOLYLOOP((#248,#272,#273,#249));
#896=IFCFACEOUTERBOUND(#895,.T.);
#897=IFCFACE((#896));
#898=IFCPOLYLOOP((#249,#273,#274,#250));
#899=IFCFACEOUTERBOUND(#898,.T.);
#900=IFCFACE((#899));
#901=IFCPOLYLOOP((#250,#274,#275,#251));
#902=IFCFACEOUTERBOUND(#901,.T.);
#903=IFCFACE((#902));
#904=IFCPOLYLOOP((#251,#275,#276,#252));
#905=IFCFACEOUTERBOUND(#904,.T.);
#906=IFCFACE((#905));
#907=IFCPOLYLOOP((#252,#276,#277,#253));
#908=IFCFACEOUTERBOUND(#907,.T.);
#909=IFCFACE((#908));
#910=IFCPOLYLOOP((#253,#277,#278,#254));
#911=IFCFACEOUTERBOUND(#910,.T.);
#912=IFCFACE((#911));
#913=IFCPOLYLOOP((#254,#278,#279,#255));
#914=IFCFACEOUTERBOUND(#913,.T.);
#915=IFCFACE((#914));
#916=IFCPOLYLOOP((#255,#279,#280,#256));
#917=IFCFACEOUTERBOUND(#916,.T.);
#918=IFCFACE((#917));
#919=IFCPOLYLOOP((#256,#280,#281,#257));
#920=IFCFACEOUTERBOUND(#919,.T.);
#921=IFCFACE((#920));
#922=IFCPOLYLOOP((#257,#281,#282,#258));
#923=IFCFACEOUTERBOUND(#922,.T.);
#924=IFCFACE((#923));
#925=IFCPOLYLOOP((#258,#282,#283,#259));
#926=IFCFACEOUTERBOUND(#925,.T.);
#927=IFCFACE((#926));
#928=IFCPOLYLOOP((#259,#283,#284,#260));
#929=IFCFACEOUTERBOUND(#928,.T.);
#930=IFCFACE((#929));
#931=IFCPOLYLOOP((#260,#284,#261,#237));
#932=IFCFACEOUTERBOUND(#931,.T.);
#933=IFCFACE((#932));
#934=IFCPOLYLOOP((#261,#285,#286,#262));
#935=IFCFACEOUTERBOUND(#934,.T.);
#936=IFCFACE((#935));
#937=IFCPOLYLOOP((#262,#286,#287,#263));
#938=IFCFACEOUTERBOUND(#937,.T.);
#939=IFCFACE((#938));
#940=IFCPOLYLOOP((#263,#287,#288,#264));
#941=IFCFACEOUTERBOUND(#940,.T.);
#942=IFCFACE((#941));
#943=IFCPOLYLOOP((#264,#288,#289,#265));
#944=IFCFACEOUTERBOUND(#943,.T.);
#945=IFCFACE((#944));
#946=IFCPOLYLOOP((#265,#289,#290,#266));
#947=IFCFACEOUTERBOUND(#946,.T.);
#948=IFCFACE((#947));
#949=IFCPOLYLOOP((#266,#290,#291,#267));
#950=IFCFACEOUTERBOUND(#949,.T.);
#951=IFCFACE((#950));
#952=IFCPOLYLOOP((#267,#291,#292,#268));
#953=IFCFACEOUTERBOUND(#952,.T.);
#954=IFCFACE((#953));
#955=IFCPOLYLOOP((#268,#292,#293,#269));
#956=IFCFACEOUTERBOUND(#955,.T.);
#957=IFCFACE((#956));
#958=IFCPOLYLOOP((#269,#293,#294,#270));
#959=IFCFACEOUTERBOUND(#958,.T.);
#960=IFCFACE((#959));
#961=IFCPOLYLOOP((#270,#294,#295,#271));
#962=IFCFACEOUTERBOUND(#961,.T.);
#963=IFCFACE((#962));
#964=IFCPOLYLOOP((#271,#295,#296,#272));
#965=IFCFACEOUTERBOUND(#964,.T.);
#966=IFCFACE((#965));
#967=IFCPOLYLOOP((#272,#296,#297,#273));
#968=IFCFACEOUTERBOUND(#967,.T.);
#969=IFCFACE((#968));
#970=IFCPOLYLOOP((#273,#297,#298,#274));
#971=IFCFACEOUTERBOUND(#970,.T.);
#972=IFCFACE((#971));
#973=IFCPOLYLOOP((#274,#298,#299,#275));
#974=IFCFACEOUTERBOUND(#973,.T.);
#975=IFCFACE((#974));
#976=IFCPOLYLOOP((#275,#299,#300,#276));
#977=IFCFACEOUTERBOUND(#976,.T.);
#978=IFCFACE((#977));
#979=IFCPOLYLOOP((#276,#300,#301,#277));
#980=IFCFACEOUTERBOUND(#979,.T.);
#981=IFCFACE((#980));
#982=IFCPOLYLOOP((#277,#301,#302,#278));
#983=IFCFACEOUTERBOUND(#982,.T.);
#984=IFCFACE((#983));
#985=IFCPOLYLOOP((#278,#302,#303,#279));
#986=IFCFACEOUTERBOUND(#985,.T.);
#987=IFCFACE((#986));
#988=IFCPOLYLOOP((#279,#303,#304,#280));
#989=IFCFACEOUTERBOUND(#988,.T.);
#990=IFCFACE((#989));
#991=IFCPOLYLOOP((#280,#304,#305,#281));
#992=IFCFACEOUTERBOUND(#991,.T.);
#993=IFCFACE((#992));
#994=IFCPOLYLOOP((#281,#305,#306,#282));
#995=IFCFACEOUTERBOUND(#994,.T.);
#996=IFCFACE((#995));
#997=IFCPOLYLOOP((#282,#306,#307,#283));
#998=IFCFACEOUTERBOUND(#997,.T.);
#999=IFCFACE((#998));
#1000=IFCPOLYLOOP((#283,#307,#308,#284));
#1001=IFCFACEOUTERBOUND(#1000,.T.);
#1002=IFCFACE((#1001));
#1003=IFCPOLYLOOP((#284,#308,#285,#261));
#1004=IFCFACEOUTERBOUND(#1003,.T.);
#1005=IFCFACE((#1004));
#1006=IFCPOLYLOOP((#285,#309,#310,#286));
#1007=IFCFACEOUTERBOUND(#1006,.T.);
#1008=IFCFACE((#1007));
#1009=IFCPOLYLOOP((#286,#310,#311,#287));
#1010=IFCFACEOUTERBOUND(#1009,.T.);
#1011=IFCFACE((#1010));
#1012=IFCPOLYLOOP((#287,#311,#312,#288));
#1013=IFCFACEOUTERBOUND(#1012,.T.);
#1014=IFCFACE((#1013));
#1015=IFCPOLYLOOP((#288,#312,#313,#289));
#1016=IFCFACEOUTERBOUND(#1015,.T.);
#1017=IFCFACE((#1016));
#1018=IFCPOLYLOOP((#289,#313,#314,#290));
#1019=IFCFACEOUTERBOUND(#1018,.T.);
#1020=IFCFACE((#1019));
#1021=IFCPOLYLOOP((#290,#314,#315,#291));
#1022=IFCFACEOUTERBOUND(#1021,.T.);
#1023=IFCFACE((#1022));
#1024=IFCPOLYLOOP((#291,#315,#316,#292));
#1025=IFCFACEOUTERBOUND(#1024,.T.);
#1026=IFCFACE((#1025));
#1027=IFCPOLYLOOP((#292,#316,#317,#293));
#1028=IFCFACEOUTERBOUND(#1027,.T.);
#1029=IFCFACE((#1028));
#1030=IFCPOLYLOOP((#293,#317,#318,#294));
#1031=IFCFACEOUTERBOUND(#1030,.T.);
#1032=IFCFACE((#1031));
#1033=IFCPOLYLOOP((#294,#318,#319,#295));
#1034=IFCFACEOUTERBOUND(#1033,.T.);
#1035=IFCFACE((#1034));
#1036=IFCPOLYLOOP((#295,#319,#320,#296));
#1037=IFCFACEOUTERBOUND(#1036,.T.);
#1038=IFCFACE((#1037));
#1039=IFCPOLYLOOP((#296,#320,#321,#297));
#1040=IFCFACEOUTERBOUND(#1039,.T.);
#1041=IFCFACE((#1040));
#1042=IFCPOLYLOOP((#297,#321,#322,#298));
#1043=IFCFACEOUTERBOUND(#1042,.T.);
#1044=IFCFACE((#1043));
#1045=IFCPOLYLOOP((#298,#322,#323,#299));
#1046=IFCFACEOUTERBOUND(#1045,.T.);
#1047=IFCFACE((#1046));
#1048=IFCPOLYLOOP((#299,#323,#324,#300));
#1049=IFCFACEOUTERBOUND(#1048,.T.);
#1050=IFCFACE((#1049));
#1051=IFCPOLYLOOP((#300,#324,#325,#301));
#1052=IFCFACEOUTERBOUND(#1051,.T.);
#1053=IFCFACE((#1052));
#1054=IFCPOLYLOOP((#301,#325,#326,#302));
#1055=IFCFACEOUTERBOUND(#1054,.T.);
#1056=IFCFACE((#1055));
#1057=IFCPOLYLOOP((#302,#326,#327,#303));
#1058=IFCFACEOUTERBOUND(#1057,.T.);
#1059=IFCFACE((#1058));
#1060=IFCPOLYLOOP((#303,#327,#328,#304));
#1061=IFCFACEOUTERBOUND(#1060,.T.);
#1062=IFCFACE((#1061));
#1063=IFCPOLYLOOP((#304,#328,#329,#305));
#1064=IFCFACEOUTERBOUND(#1063,.T.);
#1065=IFCFACE((#1064));
#1066=IFCPOLYLOOP((#305,#329,#330,#306));
#1067=IFCFACEOUTERBOUND(#1066,.T.);
#1068=IFCFACE((#1067));
#1069=IFCPOLYLOOP((#306,#330,#331,#307));
#1070=IFCFACEOUTERBOUND(#1069,.T.);
#1071=IFCFACE((#1070));
#1072=IFCPOLYLOOP((#307,#331,#332,#308));
#1073=IFCFACEOUTERBOUND(#1072,.T.);
#1074=IFCFACE((#1073));
#1075=IFCPOLYLOOP((#308,#332,#309,#285));
#1076=IFCFACEOUTERBOUND(#1075,.T.);
#1077=IFCFACE((#1076));
#1078=IFCPOLYLOOP((#309,#333,#334,#310));
#1079=IFCFACEOUTERBOUND(#1078,.T.);
#1080=IFCFACE((#1079));
#1081=IFCPOLYLOOP((#310,#334,#335,#311));
#1082=IFCFACEOUTERBOUND(#1081,.T.);
#1083=IFCFACE((#1082));
#1084=IFCPOLYLOOP((#311,#335,#336,#312));
#1085=IFCFACEOUTERBOUND(#1084,.T.);
#1086=IFCFACE((#1085));
#1087=IFCPOLYLOOP((#312,#336,#337,#313));
#1088=IFCFACEOUTERBOUND(#1087,.T.);
#1089=IFCFACE((#1088));
#1090=IFCPOLYLOOP((#313,#337,#338,#314));
#1091=IFCFACEOUTERBOUND(#1090,.T.);
#1092=IFCFACE((#1091));
#1093=IFCPOLYLOOP((#314,#338,#339,#315));
#1094=IFCFACEOUTERBOUND(#1093,.T.);
#1095=IFCFACE((#1094));
#1096=IFCPOLYLOOP((#315,#339,#340,#316));
#1097=IFCFACEOUTERBOUND(#1096,.T.);
#1098=IFCFACE((#1097));
#1099=IFCPOLYLOOP((#316,#340,#341,#317));
#1100=IFCFACEOUTERBOUND(#1099,.T.);
#1101=IFCFACE((#1100));
#1102=IFCPOLYLOOP((#317,#341,#342,#318));
#1103=IFCFACEOUTERBOUND(#1102,.T.);
#1104=IFCFACE((#1103));
#1105=IFCPOLYLOOP((#318,#342,#343,#319));
#1106=IFCFACEOUTERBOUND(#1105,.T.);
#1107=IFCFACE((#1106));
#1108=IFCPOLYLOOP((#319,#343,#344,#320));
#1109=IFCFACEOUTERBOUND(#1108,.T.);
#1110=IFCFACE((#1109));
#1111=IFCPOLYLOOP((#320,#344,#345,#321));
#1112=IFCFACEOUTERBOUND(#1111,.T.);
#1113=IFCFACE((#1112));
#1114=IFCPOLYLOOP((#321,#345,#346,#322));
#1115=IFCFACEOUTERBOUND(#1114,.T.);
#1116=IFCFACE((#1115));
#1117=IFCPOLYLOOP((#322,#346,#347,#323));
#1118=IFCFACEOUTERBOUND(#1117,.T.);
#1119=IFCFACE((#1118));
#1120=IFCPOLYLOOP((#323,#347,#348,#324));
#1121=IFCFACEOUTERBOUND(#1120,.T.);
#1122=IFCFACE((#1121));
#1123=IFCPOLYLOOP((#324,#348,#349,#325));
#1124=IFCFACEOUTERBOUND(#1123,.T.);
#1125=IFCFACE((#1124));
#1126=IFCPOLYLOOP((#325,#349,#350,#326));
#1127=IFCFACEOUTERBOUND(#1126,.T.);
#1128=IFCFACE((#1127));
#1129=IFCPOLYLOOP((#326,#350,#351,#327));
#1130=IFCFACEOUTERBOUND(#1129,.T.);
#1131=IFCFACE((#1130));
#1132=IFCPOLYLOOP((#327,#351,#352,#328));
#1133=IFCFACEOUTERBOUND(#1132,.T.);
#1134=IFCFACE((#1133));
#1135=IFCPOLYLOOP((#328,#352,#353,#329));
#1136=IFCFACEOUTERBOUND(#1135,.T.);
#1137=IFCFACE((#1136));
#1138=IFCPOLYLOOP((#329,#353,#354,#330));
#1139=IFCFACEOUTERBOUND(#1138,.T.);
#1140=IFCFACE((#1139));
#1141=IFCPOLYLOOP((#330,#354,#355,#331));
#1142=IFCFACEOUTERBOUND(#1141,.T.);
#1143=IFCFACE((#1142));
#1144=IFCPOLYLOOP((#331,#355,#356,#332));
#1145=IFCFACEOUTERBOUND(#1144,.T.);
#1146=IFCFACE((#1145));
#1147=IFCPOLYLOOP((#332,#356,#333,#309));
#1148=IFCFACEOUTERBOUND(#1147,.T.);
#1149=IFCFACE((#1148));
#1150=IFCPOLYLOOP((#333,#357,#358,#334));
#1151=IFCFACEOUTERBOUND(#1150,.T.);
#1152=IFCFACE((#1151));
#1153=IFCPOLYLOOP((#334,#358,#359,#335));
#1154=IFCFACEOUTERBOUND(#1153,.T.);
#1155=IFCFACE((#1154));
#1156=IFCPOLYLOOP((#335,#359,#360,#336));
#1157=IFCFACEOUTERBOUND(#1156,.T.);
#1158=IFCFACE((#1157));
#1159=IFCPOLYLOOP((#336,#360,#361,#337));
#1160=IFCFACEOUTERBOUND(#1159,.T.);
#1161=IFCFACE((#1160));
#1162=IFCPOLYLOOP((#337,#361,#362,#338));
#1163=IFCFACEOUTERBOUND(#1162,.T.);
#1164=IFCFACE((#1163));
#1165=IFCPOLYLOOP((#338,#362,#363,#339));
#1166=IFCFACEOUTERBOUND(#1165,.T.);
#1167=IFCFACE((#1166));
#1168=IFCPOLYLOOP((#339,#363,#364,#340));
#1169=IFCFACEOUTERBOUND(#1168,.T.);
#1170=IFCFACE((#1169));
#1171=IFCPOLYLOOP((#340,#364,#365,#341));
#1172=IFCFACEOUTERBOUND(#1171,.T.);
#1173=IFCFACE((#1172));
#1174=IFCPOLYLOOP((#341,#365,#366,#342));
#1175=IFCFACEOUTERBOUND(#1174,.T.);
#1176=IFCFACE((#1175));
#1177=IFCPOLYLOOP((#342,#366,#367,#343));
#1178=IFCFACEOUTERBOUND(#1177,.T.);
#1179=IFCFACE((#1178));
#1180=IFCPOLYLOOP((#343,#367,#368,#344));
#1181=IFCFACEOUTERBOUND(#1180,.T.);
#1182=IFCFACE((#1181));
#1183=IFCPOLYLOOP((#344,#368,#369,#345));
#1184=IFCFACEOUTERBOUND(#1183,.T.);
#1185=IFCFACE((#1184));
#1186=IFCPOLYLOOP((#345,#369,#370,#346));
#1187=IFCFACEOUTERBOUND(#1186,.T.);
#1188=IFCFACE((#1187));
#1189=IFCPOLYLOOP((#346,#370,#371,#347));
#1190=IFCFACEOUTERBOUND(#1189,.T.);
#1191=IFCFACE((#1190));
#1192=IFCPOLYLOOP((#347,#371,#372,#348));
#1193=IFCFACEOUTERBOUND(#1192,.T.);
#1194=IFCFACE((#1193));
#1195=IFCPOLYLOOP((#348,#372,#373,#349));
#1196=IFCFACEOUTERBOUND(#1195,.T.);
#1197=IFCFACE((#1196));
#1198=IFCPOLYLOOP((#349,#373,#374,#350));
#1199=IFCFACEOUTERBOUND(#1198,.T.);
#1200=IFCFACE((#1199));
#1201=IFCPOLYLOOP((#350,#374,#375,#351));
#1202=IFCFACEOUTERBOUND(#1201,.T.);
#1203=IFCFACE((#1202));
#1204=IFCPOLYLOOP((#351,#375,#376,#352));
#1205=IFCFACEOUTERBOUND(#1204,.T.);
#1206=IFCFACE((#1205));
#1207=IFCPOLYLOOP((#352,#376,#377,#353));
#1208=IFCFACEOUTERBOUND(#1207,.T.);
#1209=IFCFACE((#1208));
#1210=IFCPOLYLOOP((#353,#377,#378,#354));
#1211=IFCFACEOUTERBOUND(#1210,.T.);
#1212=IFCFACE((#1211));
#1213=IFCPOLYLOOP((#354,#378,#379,#355));
#1214=IFCFACEOUTERBOUND(#1213,.T.);
#1215=IFCFACE((#1214));
#1216=IFCPOLYLOOP((#355,#379,#380,#356));
#1217=IFCFACEOUTERBOUND(#1216,.T.);
#1218=IFCFACE((#1217));
#1219=IFCPOLYLOOP((#356,#380,#357,#333));
#1220=IFCFACEOUTERBOUND(#1219,.T.);
#1221=IFCFACE((#1220));
#1222=IFCPOLYLOOP((#357,#381,#382,#358));
#1223=IFCFACEOUTERBOUND(#1222,.T.);
#1224=IFCFACE((#1223));
#1225=IFCPOLYLOOP((#358,#382,#383,#359));
#1226=IFCFACEOUTERBOUND(#1225,.T.);
#1227=IFCFACE((#1226));
#1228=IFCPOLYLOOP((#359,#383,#384,#360));
#1229=IFCFACEOUTERBOUND(#1228,.T.);
#1230=IFCFACE((#1229));
#1231=IFCPOLYLOOP((#360,#384,#385,#361));
#1232=IFCFACEOUTERBOUND(#1231,.T.);
#1233=IFCFACE((#1232));
#1234=IFCPOLYLOOP((#361,#385,#386,#362));
#1235=IFCFACEOUTERBOUND(#1234,.T.);
#1236=IFCFACE((#1235));
#1237=IFCPOLYLOOP((#362,#386,#387,#363));
#1238=IFCFACEOUTERBOUND(#1237,.T.);
#1239=IFCFACE((#1238));
#1240=IFCPOLYLOOP((#363,#387,#388,#364));
#1241=IFCFACEOUTERBOUND(#1240,.T.);
#1242=IFCFACE((#1241));
#1243=IFCPOLYLOOP((#364,#388,#389,#365));
#1244=IFCFACEOUTERBOUND(#1243,.T.);
#1245=IFCFACE((#1244));
#1246=IFCPOLYLOOP((#365,#389,#390,#366));
#1247=IFCFACEOUTERBOUND(#1246,.T.);
#1248=IFCFACE((#1247));
#1249=IFCPOLYLOOP((#366,#390,#391,#367));
#1250=IFCFACEOUTERBOUND(#1249,.T.);
#1251=IFCFACE((#1250));
#1252=IFCPOLYLOOP((#367,#391,#392,#368));
#1253=IFCFACEOUTERBOUND(#1252,.T.);
#1254=IFCFACE((#1253));
#1255=IFCPOLYLOOP((#368,#392,#393,#369));
#1256=IFCFACEOUTERBOUND(#1255,.T.);
#1257=IFCFACE((#1256));
#1258=IFCPOLYLOOP((#369,#393,#394,#370));
#1259=IFCFACEOUTERBOUND(#1258,.T.);
#1260=IFCFACE((#1259));
#1261=IFCPOLYLOOP((#370,#394,#395,#371));
#1262=IFCFACEOUTERBOUND(#1261,.T.);
#1263=IFCFACE((#1262));
#1264=IFCPOLYLOOP((#371,#395,#396,#372));
#1265=IFCFACEOUTERBOUND(#1264,.T.);
#1266=IFCFACE((#1265));
#1267=IFCPOLYLOOP((#372,#396,#397,#373));
#1268=IFCFACEOUTERBOUND(#1267,.T.);
#1269=IFCFACE((#1268));
#1270=IFCPOLYLOOP((#373,#397,#398,#374));
#1271=IFCFACEOUTERBOUND(#1270,.T.);
#1272=IFCFACE((#1271));
#1273=IFCPOLYLOOP((#374,#398,#399,#375));
#1274=IFCFACEOUTERBOUND(#1273,.T.);
#1275=IFCFACE((#1274));
#1276=IFCPOLYLOOP((#375,#399,#400,#376));
#1277=IFCFACEOUTERBOUND(#1276,.T.);
#1278=IFCFACE((#1277));
#1279=IFCPOLYLOOP((#376,#400,#401,#377));
#1280=IFCFACEOUTERBOUND(#1279,.T.);
#1281=IFCFACE((#1280));
#1282=IFCPOLYLOOP((#377,#401,#402,#378));
#1283=IFCFACEOUTERBOUND(#1282,.T.);
#1284=IFCFACE((#1283));
#1285=IFCPOLYLOOP((#378,#402,#403,#379));
#1286=IFCFACEOUTERBOUND(#1285,.T.);
#1287=IFCFACE((#1286));
#1288=IFCPOLYLOOP((#379,#403,#404,#380));
#1289=IFCFACEOUTERBOUND(#1288,.T.);
#1290=IFCFACE((#1289));
#1291=IFCPOLYLOOP((#380,#404,#381,#357));
#1292=IFCFACEOUTERBOUND(#1291,.T.);
#1293=IFCFACE((#1292));
#1294=IFCPOLYLOOP((#381,#405,#406,#382));
#1295=IFCFACEOUTERBOUND(#1294,.T.);
#1296=IFCFACE((#1295));
#1297=IFCPOLYLOOP((#382,#406,#407,#383));
#1298=IFCFACEOUTERBOUND(#1297,.T.);
#1299=IFCFACE((#1298));
#1300=IFCPOLYLOOP((#383,#407,#408,#384));
#1301=IFCFACEOUTERBOUND(#1300,.T.);
#1302=IFCFACE((#1301));
#1303=IFCPOLYLOOP((#384,#408,#409,#385));
#1304=IFCFACEOUTERBOUND(#1303,.T.);
#1305=IFCFACE((#1304));
#1306=IFCPOLYLOOP((#385,#409,#410,#386));
#1307=IFCFACEOUTERBOUND(#1306,.T.);
#1308=IFCFACE((#1307));
#1309=IFCPOLYLOOP((#386,#410,#411,#387));
#1310=IFCFACEOUTERBOUND(#1309,.T.);
#1311=IFCFACE((#1310));
#1312=IFCPOLYLOOP((#387,#411,#412,#388));
#1313=IFCFACEOUTERBOUND(#1312,.T.);
#1314=IFCFACE((#1313));
#1315=IFCPOLYLOOP((#388,#412,#413,#389));
#1316=IFCFACEOUTERBOUND(#1315,.T.);
#1317=IFCFACE((#1316));
#1318=IFCPOLYLOOP((#389,#413,#414,#390));
#1319=IFCFACEOUTERBOUND(#1318,.T.);
#1320=IFCFACE((#1319));
#1321=IFCPOLYLOOP((#390,#414,#415,#391));
#1322=IFCFACEOUTERBOUND(#1321,.T.);
#1323=IFCFACE((#1322));
#1324=IFCPOLYLOOP((#391,#415,#416,#392));
#1325=IFCFACEOUTERBOUND(#1324,.T.);
#1326=IFCFACE((#1325));
#1327=IFCPOLYLOOP((#392,#416,#417,#393));
#1328=IFCFACEOUTERBOUND(#1327,.T.);
#1329=IFCFACE((#1328));
#1330=IFCPOLYLOOP((#393,#417,#418,#394));
#1331=IFCFACEOUTERBOUND(#1330,.T.);
#1332=IFCFACE((#1331));
#1333=IFCPOLYLOOP((#394,#418,#419,#395));
#1334=IFCFACEOUTERBOUND(#1333,.T.);
#1335=IFCFACE((#1334));
#1336=IFCPOLYLOOP((#395,#419,#420,#396));
#1337=IFCFACEOUTERBOUND(#1336,.T.);
#1338=IFCFACE((#1337));
#1339=IFCPOLYLOOP((#396,#420,#421,#397));
#1340=IFCFACEOUTERBOUND(#1339,.T.);
#1341=IFCFACE((#1340));
#1342=IFCPOLYLOOP((#397,#421,#422,#398));
#1343=IFCFACEOUTERBOUND(#1342,.T.);
#1344=IFCFACE((#1343));
#1345=IFCPOLYLOOP((#398,#422,#423,#399));
#1346=IFCFACEOUTERBOUND(#1345,.T.);
#1347=IFCFACE((#1346));
#1348=IFCPOLYLOOP((#399,#423,#424,#400));
#1349=IFCFACEOUTERBOUND(#1348,.T.);
#1350=IFCFACE((#1349));
#1351=IFCPOLYLOOP((#400,#424,#425,#401));
#1352=IFCFACEOUTERBOUND(#1351,.T.);
#1353=IFCFACE((#1352));
#1354=IFCPOLYLOOP((#401,#425,#426,#402));
#1355=IFCFACEOUTERBOUND(#1354,.T.);
#1356=IFCFACE((#1355));
#1357=IFCPOLYLOOP((#402,#426,#427,#403));
#1358=IFCFACEOUTERBOUND(#1357,.T.);
#1359=IFCFACE((#1358));
#1360=IFCPOLYLOOP((#403,#427,#428,#404));
#1361=IFCFACEOUTERBOUND(#1360,.T.);
#1362=IFCFACE((#1361));
#1363=IFCPOLYLOOP((#404,#428,#405,#381));
#1364=IFCFACEOUTERBOUND(#1363,.T.);
#1365=IFCFACE((#1364));
#1366=IFCPOLYLOOP((#405,#429,#430,#406));
#1367=IFCFACEOUTERBOUND(#1366,.T.);
#1368=IFCFACE((#1367));
#1369=IFCPOLYLOOP((#406,#430,#431,#407));
#1370=IFCFACEOUTERBOUND(#1369,.T.);
#1371=IFCFACE((#1370));
#1372=IFCPOLYLOOP((#407,#431,#432,#408));
#1373=IFCFACEOUTERBOUND(#1372,.T.);
#1374=IFCFACE((#1373));
#1375=IFCPOLYLOOP((#408,#432,#433,#409));
#1376=IFCFACEOUTERBOUND(#1375,.T.);
#1377=IFCFACE((#1376));
#1378=IFCPOLYLOOP((#409,#433,#434,#410));
#1379=IFCFACEOUTERBOUND(#1378,.T.);
#1380=IFCFACE((#1379));
#1381=IFCPOLYLOOP((#410,#434,#435,#411));
#1382=IFCFACEOUTERBOUND(#1381,.T.);
#1383=IFCFACE((#1382));
#1384=IFCPOLYLOOP((#411,#435,#436,#412));
#1385=IFCFACEOUTERBOUND(#1384,.T.);
#1386=IFCFACE((#1385));
#1387=IFCPOLYLOOP((#412,#436,#437,#413));
#1388=IFCFACEOUTERBOUND(#1387,.T.);
#1389=IFCFACE((#1388));
#1390=IFCPOLYLOOP((#413,#437,#438,#414));
#1391=IFCFACEOUTERBOUND(#1390,.T.);
#1392=IFCFACE((#1391));
#1393=IFCPOLYLOOP((#414,#438,#439,#415));
#1394=IFCFACEOUTERBOUND(#1393,.T.);
#1395=IFCFACE((#1394));
#1396=IFCPOLYLOOP((#415,#439,#440,#416));
#1397=IFCFACEOUTERBOUND(#1396,.T.);
#1398=IFCFACE((#1397));
#1399=IFCPOLYLOOP((#416,#440,#441,#417));
#1400=IFCFACEOUTERBOUND(#1399,.T.);
#1401=IFCFACE((#1400));
#1402=IFCPOLYLOOP((#417,#441,#442,#418));
#1403=IFCFACEOUTERBOUND(#1402,.T.);
#1404=IFCFACE((#1403));
#1405=IFCPOLYLOOP((#418,#442,#443,#419));
#1406=IFCFACEOUTERBOUND(#1405,.T.);
#1407=IFCFACE((#1406));
#1408=IFCPOLYLOOP((#419,#443,#444,#420));
#1409=IFCFACEOUTERBOUND(#1408,.T.);
#1410=IFCFACE((#1409));
#1411=IFCPOLYLOOP((#420,#444,#445,#421));
#1412=IFCFACEOUTERBOUND(#1411,.T.);
#1413=IFCFACE((#1412));
#1414=IFCPOLYLOOP((#421,#445,#446,#422));
#1415=IFCFACEOUTERBOUND(#1414,.T.);
#1416=IFCFACE((#1415));
#1417=IFCPOLYLOOP((#422,#446,#447,#423));
#1418=IFCFACEOUTERBOUND(#1417,.T.);
#1419=IFCFACE((#1418));
#1420=IFCPOLYLOOP((#423,#447,#448,#424));
#1421=IFCFACEOUTERBOUND(#1420,.T.);
#1422=IFCFACE((#1421));
#1423=IFCPOLYLOOP((#424,#448,#449,#425));
#1424=IFCFACEOUTERBOUND(#1423,.T.);
#1425=IFCFACE((#1424));
#1426=IFCPOLYLOOP((#425,#449,#450,#426));
#1427=IFCFACEOUTERBOUND(#1426,.T.);
#1428=IFCFACE((#1427));
#1429=IFCPOLYLOOP((#426,#450,#451,#427));
#1430=IFCFACEOUTERBOUND(#1429,.T.);
#1431=IFCFACE((#1430));
#1432=IFCPOLYLOOP((#427,#451,#452,#428));
#1433=IFCFACEOUTERBOUND(#1432,.T.);
#1434=IFCFACE((#1433));
#1435=IFCPOLYLOOP((#428,#452,#429,#405));
#1436=IFCFACEOUTERBOUND(#1435,.T.);
#1437=IFCFACE((#1436));
#1438=IFCPOLYLOOP((#429,#453,#454,#430));
#1439=IFCFACEOUTERBOUND(#1438,.T.);
#1440=IFCFACE((#1439));
#1441=IFCPOLYLOOP((#430,#454,#455,#431));
#1442=IFCFACEOUTERBOUND(#1441,.T.);
#1443=IFCFACE((#1442));
#1444=IFCPOLYLOOP((#431,#455,#456,#432));
#1445=IFCFACEOUTERBOUND(#1444,.T.);
#1446=IFCFACE((#1445));
#1447=IFCPOLYLOOP((#432,#456,#457,#433));
#1448=IFCFACEOUTERBOUND(#1447,.T.);
#1449=IFCFACE((#1448));
#1450=IFCPOLYLOOP((#433,#457,#458,#434));
#1451=IFCFACEOUTERBOUND(#1450,.T.);
#1452=IFCFACE((#1451));
#1453=IFCPOLYLOOP((#434,#458,#459,#435));
#1454=IFCFACEOUTERBOUND(#1453,.T.);
#1455=IFCFACE((#1454));
#1456=IFCPOLYLOOP((#435,#459,#460,#436));
#1457=IFCFACEOUTERBOUND(#1456,.T.);
#1458=IFCFACE((#1457));
#1459=IFCPOLYLOOP((#436,#460,#461,#437));
#1460=IFCFACEOUTERBOUND(#1459,.T.);
#1461=IFCFACE((#1460));
#1462=IFCPOLYLOOP((#437,#461,#462,#438));
#1463=IFCFACEOUTERBOUND(#1462,.T.);
#1464=IFCFACE((#1463));
#1465=IFCPOLYLOOP((#438,#462,#463,#439));
#1466=IFCFACEOUTERBOUND(#1465,.T.);
#1467=IFCFACE((#1466));
#1468=IFCPOLYLOOP((#439,#463,#464,#440));
#1469=IFCFACEOUTERBOUND(#1468,.T.);
#1470=IFCFACE((#1469));
#1471=IFCPOLYLOOP((#440,#464,#465,#441));
#1472=IFCFACEOUTERBOUND(#1471,.T.);
#1473=IFCFACE((#1472));
#1474=IFCPOLYLOOP((#441,#465,#466,#442));
#1475=IFCFACEOUTERBOUND(#1474,.T.);
#1476=IFCFACE((#1475));
#1477=IFCPOLYLOOP((#442,#466,#467,#443));
#1478=IFCFACEOUTERBOUND(#1477,.T.);
#1479=IFCFACE((#1478));
#1480=IFCPOLYLOOP((#443,#467,#468,#444));
#1481=IFCFACEOUTERBOUND(#1480,.T.);
#1482=IFCFACE((#1481));
#1483=IFCPOLYLOOP((#444,#468,#469,#445));
#1484=IFCFACEOUTERBOUND(#1483,.T.);
#1485=IFCFACE((#1484));
#1486=IFCPOLYLOOP((#445,#469,#470,#446));
#1487=IFCFACEOUTERBOUND(#1486,.T.);
#1488=IFCFACE((#1487));
#1489=IFCPOLYLOOP((#446,#470,#471,#447));
#1490=IFCFACEOUTERBOUND(#1489,.T.);
#1491=IFCFACE((#1490));
#1492=IFCPOLYLOOP((#447,#471,#472,#448));
#1493=IFCFACEOUTERBOUND(#1492,.T.);
#1494=IFCFACE((#1493));
#1495=IFCPOLYLOOP((#448,#472,#473,#449));
#1496=IFCFACEOUTERBOUND(#1495,.T.);
#1497=IFCFACE((#1496));
#1498=IFCPOLYLOOP((#449,#473,#474,#450));
#1499=IFCFACEOUTERBOUND(#1498,.T.);
#1500=IFCFACE((#1499));
#1501=IFCPOLYLOOP((#450,#474,#475,#451));
#1502=IFCFACEOUTERBOUND(#1501,.T.);
#1503=IFCFACE((#1502));
#1504=IFCPOLYLOOP((#451,#475,#476,#452));
#1505=IFCFACEOUTERBOUND(#1504,.T.);
#1506=IFCFACE((#1505));
#1507=IFCPOLYLOOP((#452,#476,#453,#429));
#1508=IFCFACEOUTERBOUND(#1507,.T.);
#1509=IFCFACE((#1508));
#1510=IFCPOLYLOOP((#453,#477,#478,#454));
#1511=IFCFACEOUTERBOUND(#1510,.T.);
#1512=IFCFACE((#1511));
#1513=IFCPOLYLOOP((#454,#478,#479,#455));
#1514=IFCFACEOUTERBOUND(#1513,.T.);
#1515=IFCFACE((#1514));
#1516=IFCPOLYLOOP((#455,#479,#480,#456));
#1517=IFCFACEOUTERBOUND(#1516,.T.);
#1518=IFCFACE((#1517));
#1519=IFCPOLYLOOP((#456,#480,#481,#457));
#1520=IFCFACEOUTERBOUND(#1519,.T.);
#1521=IFCFACE((#1520));
#1522=IFCPOLYLOOP((#457,#481,#482,#458));
#1523=IFCFACEOUTERBOUND(#1522,.T.);
#1524=IFCFACE((#1523));
#1525=IFCPOLYLOOP((#458,#482,#483,#459));
#1526=IFCFACEOUTERBOUND(#1525,.T.);
#1527=IFCFACE((#1526));
#1528=IFCPOLYLOOP((#459,#483,#484,#460));
#1529=IFCFACEOUTERBOUND(#1528,.T.);
#1530=IFCFACE((#1529));
#1531=IFCPOLYLOOP((#460,#484,#485,#461));
#1532=IFCFACEOUTERBOUND(#1531,.T.);
#1533=IFCFACE((#1532));
#1534=IFCPOLYLOOP((#461,#485,#486,#462));
#1535=IFCFACEOUTERBOUND(#1534,.T.);
#1536=IFCFACE((#1535));
#1537=IFCPOLYLOOP((#462,#486,#487,#463));
#1538=IFCFACEOUTERBOUND(#1537,.T.);
#1539=IFCFACE((#1538));
#1540=IFCPOLYLOOP((#463,#487,#488,#464));
#1541=IFCFACEOUTERBOUND(#1540,.T.);
#1542=IFCFACE((#1541));
#1543=IFCPOLYLOOP((#464,#488,#489,#465));
#1544=IFCFACEOUTERBOUND(#1543,.T.);
#1545=IFCFACE((#1544));
#1546=IFCPOLYLOOP((#465,#489,#490,#466));
#1547=IFCFACEOUTERBOUND(#1546,.T.);
#1548=IFCFACE((#1547));
#1549=IFCPOLYLOOP((#466,#490,#491,#467));
#1550=IFCFACEOUTERBOUND(#1549,.T.);
#1551=IFCFACE((#1550));
#1552=IFCPOLYLOOP((#467,#491,#492,#468));
#1553=IFCFACEOUTERBOUND(#1552,.T.);
#1554=IFCFACE((#1553));
#1555=IFCPOLYLOOP((#468,#492,#493,#469));
#1556=IFCFACEOUTERBOUND(#1555,.T.);
#1557=IFCFACE((#1556));
#1558=IFCPOLYLOOP((#469,#493,#494,#470));
#1559=IFCFACEOUTERBOUND(#1558,.T.);
#1560=IFCFACE((#1559));
#1561=IFCPOLYLOOP((#470,#494,#495,#471));
#1562=IFCFACEOUTERBOUND(#1561,.T.);
#1563=IFCFACE((#1562));
#1564=IFCPOLYLOOP((#471,#495,#496,#472));
#1565=IFCFACEOUTERBOUND(#1564,.T.);
#1566=IFCFACE((#1565));
#1567=IFCPOLYLOOP((#472,#496,#497,#473));
#1568=IFCFACEOUTERBOUND(#1567,.T.);
#1569=IFCFACE((#1568));
#1570=IFCPOLYLOOP((#473,#497,#498,#474));
#1571=IFCFACEOUTERBOUND(#1570,.T.);
#1572=IFCFACE((#1571));
#1573=IFCPOLYLOOP((#474,#498,#499,#475));
#1574=IFCFACEOUTERBOUND(#1573,.T.);
#1575=IFCFACE((#1574));
#1576=IFCPOLYLOOP((#475,#499,#500,#476));
#1577=IFCFACEOUTERBOUND(#1576,.T.);
#1578=IFCFACE((#1577));
#1579=IFCPOLYLOOP((#476,#500,#477,#453));
#1580=IFCFACEOUTERBOUND(#1579,.T.);
#1581=IFCFACE((#1580));
#1582=IFCPOLYLOOP((#501,#478,#477));
#1583=IFCFACEOUTERBOUND(#1582,.T.);
#1584=IFCFACE((#1583));
#1585=IFCPOLYLOOP((#501,#479,#478));
#1586=IFCFACEOUTERBOUND(#1585,.T.);
#1587=IFCFACE((#1586));
#1588=IFCPOLYLOOP((#501,#480,#479));
#1589=IFCFACEOUTERBOUND(#1588,.T.);
#1590=IFCFACE((#1589));
#1591=IFCPOLYLOOP((#501,#481,#480));
#1592=IFCFACEOUTERBOUND(#1591,.T.);
#1593=IFCFACE((#1592));
#1594=IFCPOLYLOOP((#501,#482,#481));
#1595=IFCFACEOUTERBOUND(#1594,.T.);
#1596=IFCFACE((#1595));
#1597=IFCPOLYLOOP((#501,#483,#482));
#1598=IFCFACEOUTERBOUND(#1597,.T.);
#1599=IFCFACE((#1598));
#1600=IFCPOLYLOOP((#501,#484,#483));
#1601=IFCFACEOUTERBOUND(#1600,.T.);
#1602=IFCFACE((#1601));
#1603=IFCPOLYLOOP((#501,#485,#484));
#1604=IFCFACEOUTERBOUND(#1603,.T.);
#1605=IFCFACE((#1604));
#1606=IFCPOLYLOOP((#501,#486,#485));
#1607=IFCFACEOUTERBOUND(#1606,.T.);
#1608=IFCFACE((#1607));
#1609=IFCPOLYLOOP((#501,#487,#486));
#1610=IFCFACEOUTERBOUND(#1609,.T.);
#1611=IFCFACE((#1610));
#1612=IFCPOLYLOOP((#501,#488,#487));
#1613=IFCFACEOUTERBOUND(#1612,.T.);
#1614=IFCFACE((#1613));
#1615=IFCPOLYLOOP((#501,#489,#488));
#1616=IFCFACEOUTERBOUND(#1615,.T.);
#1617=IFCFACE((#1616));
#1618=IFCPOLYLOOP((#501,#490,#489));
#1619=IFCFACEOUTERBOUND(#1618,.T.);
#1620=IFCFACE((#1619));
#1621=IFCPOLYLOOP((#501,#491,#490));
#1622=IFCFACEOUTERBOUND(#1621,.T.);
#1623=IFCFACE((#1622));
#1624=IFCPOLYLOOP((#501,#492,#491));
#1625=IFCFACEOUTERBOUND(#1624,.T.);
#1626=IFCFACE((#1625));
#1627=IFCPOLYLOOP((#501,#493,#492));
#1628=IFCFACEOUTERBOUND(#1627,.T.);
#1629=IFCFACE((#1628));
#1630=IFCPOLYLOOP((#501,#494,#493));
#1631=IFCFACEOUTERBOUND(#1630,.T.);
#1632=IFCFACE((#1631));
#1633=IFCPOLYLOOP((#501,#495,#494));
#1634=IFCFACEOUTERBOUND(#1633,.T.);
#1635=IFCFACE((#1634));
#1636=IFCPOLYLOOP((#501,#496,#495));
#1637=IFCFACEOUTERBOUND(#1636,.T.);
#1638=IFCFACE((#1637));
#1639=IFCPOLYLOOP((#501,#497,#496));
#1640=IFCFACEOUTERBOUND(#1639,.T.);
#1641=IFCFACE((#1640));
#1642=IFCPOLYLOOP((#501,#498,#497));
#1643=IFCFACEOUTERBOUND(#1642,.T.);
#1644=IFCFACE((#1643));
#1645=IFCPOLYLOOP((#501,#499,#498));
#1646=IFCFACEOUTERBOUND(#1645,.T.);
#1647=IFCFACE((#1646));
#1648=IFCPOLYLOOP((#501,#500,#499));
#1649=IFCFACEOUTERBOUND(#1648,.T.);
#1650=IFCFACE((#1649));
#1651=IFCPOLYLOOP((#501,#477,#500));
#1652=IFCFACEOUTERBOUND(#1651,.T.);
#1653=IFCFACE((#1652));
#1654=IFCCLOSEDSHELL((#504,#507,#510,#513,#516,#519,#522,#525,#528,#531,#534,#537,#540,#543,#546,#549,#552,#555,#558,#561,#564,#567,#570,#573,#576,#579,#582,#585,#588,#591,#594,#597,#600,#603,#606,#609,#612,#615,#618,#621,#624,#627,#630,#633,#636,#639,#642,#645,#648,#651,#654,#657,#660,#663,#666,#669,#672,#675,#678,#681,#684,#687,#690,#693,#696,#699,#702,#705,#708,#711,#714,#717,#720,#723,#726,#729,#732,#735,#738,#741,#744,#747,#750,#753,#756,#759,#762,#765,#768,#771,#774,#777,#780,#783,#786,#789,#792,#795,#798,#801,#804,#807,#810,#813,#816,#819,#822,#825,#828,#831,#834,#837,#840,#843,#846,#849,#852,#855,#858,#861,#864,#867,#870,#873,#876,#879,#882,#885,#888,#891,#894,#897,#900,#903,#906,#909,#912,#915,#918,#921,#924,#927,#930,#933,#936,#939,#942,#945,#948,#951,#954,#957,#960,#963,#966,#969,#972,#975,#978,#981,#984,#987,#990,#993,#996,#999,#1002,#1005,#1008,#1011,#1014,#1017,#1020,#1023,#1026,#1029,#1032,#1035,#1038,#1041,#1044,#1047,#1050,#1053,#1056,#1059,#1062,#1065,#1068,#1071,#1074,#1077,#1080,#1083,#1086,#1089,#1092,#1095,#1098,#1101,#1104,#1107,#1110,#1113,#1116,#1119,#1122,#1125,#1128,#1131,#1134,#1137,#1140,#1143,#1146,#1149,#1152,#1155,#1158,#1161,#1164,#1167,#1170,#1173,#1176,#1179,#1182,#1185,#1188,#1191,#1194,#1197,#1200,#1203,#1206,#1209,#1212,#1215,#1218,#1221,#1224,#1227,#1230,#1233,#1236,#1239,#1242,#1245,#1248,#1251,#1254,#1257,#1260,#1263,#1266,#1269,#1272,#1275,#1278,#1281,#1284,#1287,#1290,#1293,#1296,#1299,#1302,#1305,#1308,#1311,#1314,#1317,#1320,#1323,#1326,#1329,#1332,#1335,#1338,#1341,#1344,#1347,#1350,#1353,#1356,#1359,#1362,#1365,#1368,#1371,#1374,#1377,#1380,#1383,#1386,#1389,#1392,#1395,#1398,#1401,#1404,#1407,#1410,#1413,#1416,#1419,#1422,#1425,#1428,#1431,#1434,#1437,#1440,#1443,#1446,#1449,#1452,#1455,#1458,#1461,#1464,#1467,#1470,#1473,#1476,#1479,#1482,#1485,#1488,#1491,#1494,#1497,#1500,#1503,#1506,#1509,#1512,#1515,#1518,#1521,#1524,#1527,#1530,#1533,#1536,#1539,#1542,#1545,#1548,#1551,#1554,#1557,#1560,#1563,#1566,#1569,#1572,#1575,#1578,#1581,#1584,#1587,#1590,#1593,#1596,#1599,#1602,#1605,#1608,#1611,#1614,#1617,#1620,#1623,#1626,#1629,#1632,#1635,#1638,#1641,#1644,#1647,#1650,#1653));
#1655=IFCFACETEDBREP(#1654);
#1656=IFCSHAPEREPRESENTATION(#16,'Body','SolidModel',(#139,#1655));
#1657=IFCPRODUCTDEFINITIONSHAPE($,$,(#1656));
#1658=IFCCARTESIANPOINT((6.1500000000000004,3.8500000000000001,0.));
#1659=IFCCARTESIANPOINT((10.35,3.8500000000000001,0.));
#1660=IFCCARTESIANPOINT((10.35,5.6500000000000004,0.));
#1661=IFCCARTESIANPOINT((6.1500000000000004,5.6500000000000004,0.));
#1662=IFCCARTESIANPOINT((6.1500000000000004,3.8500000000000001,0.));
#1663=IFCPOLYLINE((#1658,#1659,#1660,#1661,#1662));
#1664=IFCARBITRARYCLOSEDPROFILEDEF(.AREA.,$,#1663);
#1665=IFCCARTESIANPOINT((0.,0.,0.40000000000000002));
#1666=IFCDIRECTION((0.,0.,1.));
#1667=IFCDIRECTION((1.,0.,0.));
#1668=IFCAXIS2PLACEMENT3D(#1665,#1666,#1667);
#1669=IFCDIRECTION((0.,0.,1.));
#1670=IFCEXTRUDEDAREASOLID(#1664,#1668,#1669,0.47999999999999998);
#1671=IFCCARTESIANPOINT((7.3000000000000007,4.0099999999999998,0.));
#1672=IFCCARTESIANPOINT((9.7174999999999994,4.0099999999999998,0.));
#1673=IFCCARTESIANPOINT((9.7174999999999994,5.4900000000000002,0.));
#1674=IFCCARTESIANPOINT((7.3000000000000007,5.4900000000000002,0.));
#1675=IFCCARTESIANPOINT((7.3000000000000007,4.0099999999999998,0.));
#1676=IFCPOLYLINE((#1671,#1672,#1673,#1674,#1675));
#1677=IFCARBITRARYCLOSEDPROFILEDEF(.AREA.,$,#1676);
#1678=IFCCARTESIANPOINT((0.,0.,0.80000000000000004));
#1679=IFCDIRECTION((0.,0.,1.));
#1680=IFCDIRECTION((1.,0.,0.));
#1681=IFCAXIS2PLACEMENT3D(#1678,#1679,#1680);
#1682=IFCDIRECTION((0.,0.,1.));
#1683=IFCEXTRUDEDAREASOLID(#1677,#1681,#1682,0.46000000000000002);
#1684=IFCCARTESIANPOINT((0.34000000000000002,0.,0.));
#1685=IFCCARTESIANPOINT((0.33346699533709839,0.066330709485483613,0.));
#1686=IFCCARTESIANPOINT((0.31411904105383753,0.13011236700413054,0.));
#1687=IFCCARTESIANPOINT((0.2826996681828654,0.18889387922666476,0.));
#1688=IFCCARTESIANPOINT((0.24041630560342619,0.24041630560342617,0.));
#1689=IFCCARTESIANPOINT((0.18889387922666478,0.2826996681828654,0.));
#1690=IFCCARTESIANPOINT((0.13011236700413056,0.31411904105383753,0.));
#1691=IFCCARTESIANPOINT((0.066330709485483641,0.33346699533709839,0.));
#1692=IFCCARTESIANPOINT((2.0818995585505005E-17,0.34000000000000002,0.));
#1693=IFCCARTESIANPOINT((-0.066330709485483585,0.33346699533709839,0.));
#1694=IFCCARTESIANPOINT((-0.13011236700413051,0.31411904105383753,0.));
#1695=IFCCARTESIANPOINT((-0.18889387922666467,0.28269966818286546,0.));
#1696=IFCCARTESIANPOINT((-0.24041630560342617,0.24041630560342619,0.));
#1697=IFCCARTESIANPOINT((-0.28269966818286546,0.18889387922666476,0.));
#1698=IFCCARTESIANPOINT((-0.31411904105383753,0.13011236700413056,0.));
#1699=IFCCARTESIANPOINT((-0.33346699533709839,0.066330709485483738,0.));
#1700=IFCCARTESIANPOINT((-0.34000000000000002,4.1637991171010009E-17,0.));
#1701=IFCCARTESIANPOINT((-0.33346699533709839,-0.066330709485483641,0.));
#1702=IFCCARTESIANPOINT((-0.31411904105383753,-0.13011236700413051,0.));
#1703=IFCCARTESIANPOINT((-0.28269966818286546,-0.18889387922666467,0.));
#1704=IFCCARTESIANPOINT((-0.24041630560342622,-0.24041630560342617,0.));
#1705=IFCCARTESIANPOINT((-0.18889387922666476,-0.2826996681828654,0.));
#1706=IFCCARTESIANPOINT((-0.13011236700413073,-0.31411904105383742,0.));
#1707=IFCCARTESIANPOINT((-0.066330709485483752,-0.33346699533709834,0.));
#1708=IFCCARTESIANPOINT((-6.2456986756515011E-17,-0.34000000000000002,0.));
#1709=IFCCARTESIANPOINT((0.066330709485483627,-0.33346699533709839,0.));
#1710=IFCCARTESIANPOINT((0.13011236700413062,-0.31411904105383748,0.));
#1711=IFCCARTESIANPOINT((0.18889387922666465,-0.28269966818286546,0.));
#1712=IFCCARTESIANPOINT((0.24041630560342611,-0.24041630560342622,0.));
#1713=IFCCARTESIANPOINT((0.2826996681828654,-0.18889387922666476,0.));
#1714=IFCCARTESIANPOINT((0.31411904105383742,-0.13011236700413073,0.));
#1715=IFCCARTESIANPOINT((0.33346699533709834,-0.066330709485483766,0.));
#1716=IFCCARTESIANPOINT((0.34000000000000002,0.,0.));
#1717=IFCPOLYLINE((#1684,#1685,#1686,#1687,#1688,#1689,#1690,#1691,#1692,#1693,#1694,#1695,#1696,#1697,#1698,#1699,#1700,#1701,#1702,#1703,#1704,#1705,#1706,#1707,#1708,#1709,#1710,#1711,#1712,#1713,#1714,#1715,#1716));
#1718=IFCARBITRARYCLOSEDPROFILEDEF(.AREA.,$,#1717);
#1719=IFCCARTESIANPOINT((6.8700000000000001,3.8200000000000003,0.46000000000000002));
#1720=IFCDIRECTION((0.,1.,0.));
#1721=IFCDIRECTION((1.,0.,0.));
#1722=IFCAXIS2PLACEMENT3D(#1719,#1720,#1721);
#1723=IFCDIRECTION((0.,0.,1.));
#1724=IFCEXTRUDEDAREASOLID(#1718,#1722,#1723,0.22);
#1725=IFCCARTESIANPOINT((0.34000000000000002,0.,0.));
#1726=IFCCARTESIANPOINT((0.33346699533709839,0.066330709485483613,0.));
#1727=IFCCARTESIANPOINT((0.31411904105383753,0.13011236700413054,0.));
#1728=IFCCARTESIANPOINT((0.2826996681828654,0.18889387922666476,0.));
#1729=IFCCARTESIANPOINT((0.24041630560342619,0.24041630560342617,0.));
#1730=IFCCARTESIANPOINT((0.18889387922666478,0.2826996681828654,0.));
#1731=IFCCARTESIANPOINT((0.13011236700413056,0.31411904105383753,0.));
#1732=IFCCARTESIANPOINT((0.066330709485483641,0.33346699533709839,0.));
#1733=IFCCARTESIANPOINT((2.0818995585505005E-17,0.34000000000000002,0.));
#1734=IFCCARTESIANPOINT((-0.066330709485483585,0.33346699533709839,0.));
#1735=IFCCARTESIANPOINT((-0.13011236700413051,0.31411904105383753,0.));
#1736=IFCCARTESIANPOINT((-0.18889387922666467,0.28269966818286546,0.));
#1737=IFCCARTESIANPOINT((-0.24041630560342617,0.24041630560342619,0.));
#1738=IFCCARTESIANPOINT((-0.28269966818286546,0.18889387922666476,0.));
#1739=IFCCARTESIANPOINT((-0.31411904105383753,0.13011236700413056,0.));
#1740=IFCCARTESIANPOINT((-0.33346699533709839,0.066330709485483738,0.));
#1741=IFCCARTESIANPOINT((-0.34000000000000002,4.1637991171010009E-17,0.));
#1742=IFCCARTESIANPOINT((-0.33346699533709839,-0.066330709485483641,0.));
#1743=IFCCARTESIANPOINT((-0.31411904105383753,-0.13011236700413051,0.));
#1744=IFCCARTESIANPOINT((-0.28269966818286546,-0.18889387922666467,0.));
#1745=IFCCARTESIANPOINT((-0.24041630560342622,-0.24041630560342617,0.));
#1746=IFCCARTESIANPOINT((-0.18889387922666476,-0.2826996681828654,0.));
#1747=IFCCARTESIANPOINT((-0.13011236700413073,-0.31411904105383742,0.));
#1748=IFCCARTESIANPOINT((-0.066330709485483752,-0.33346699533709834,0.));
#1749=IFCCARTESIANPOINT((-6.2456986756515011E-17,-0.34000000000000002,0.));
#1750=IFCCARTESIANPOINT((0.066330709485483627,-0.33346699533709839,0.));
#1751=IFCCARTESIANPOINT((0.13011236700413062,-0.31411904105383748,0.));
#1752=IFCCARTESIANPOINT((0.18889387922666465,-0.28269966818286546,0.));
#1753=IFCCARTESIANPOINT((0.24041630560342611,-0.24041630560342622,0.));
#1754=IFCCARTESIANPOINT((0.2826996681828654,-0.18889387922666476,0.));
#1755=IFCCARTESIANPOINT((0.31411904105383742,-0.13011236700413073,0.));
#1756=IFCCARTESIANPOINT((0.33346699533709834,-0.066330709485483766,0.));
#1757=IFCCARTESIANPOINT((0.34000000000000002,0.,0.));
#1758=IFCPOLYLINE((#1725,#1726,#1727,#1728,#1729,#1730,#1731,#1732,#1733,#1734,#1735,#1736,#1737,#1738,#1739,#1740,#1741,#1742,#1743,#1744,#1745,#1746,#1747,#1748,#1749,#1750,#1751,#1752,#1753,#1754,#1755,#1756,#1757));
#1759=IFCARBITRARYCLOSEDPROFILEDEF(.AREA.,$,#1758);
#1760=IFCCARTESIANPOINT((6.8700000000000001,5.46,0.46000000000000002));
#1761=IFCDIRECTION((0.,1.,0.));
#1762=IFCDIRECTION((1.,0.,0.));
#1763=IFCAXIS2PLACEMENT3D(#1760,#1761,#1762);
#1764=IFCDIRECTION((0.,0.,1.));
#1765=IFCEXTRUDEDAREASOLID(#1759,#1763,#1764,0.22);
#1766=IFCCARTESIANPOINT((0.34000000000000002,0.,0.));
#1767=IFCCARTESIANPOINT((0.33346699533709839,0.066330709485483613,0.));
#1768=IFCCARTESIANPOINT((0.31411904105383753,0.13011236700413054,0.));
#1769=IFCCARTESIANPOINT((0.2826996681828654,0.18889387922666476,0.));
#1770=IFCCARTESIANPOINT((0.24041630560342619,0.24041630560342617,0.));
#1771=IFCCARTESIANPOINT((0.18889387922666478,0.2826996681828654,0.));
#1772=IFCCARTESIANPOINT((0.13011236700413056,0.31411904105383753,0.));
#1773=IFCCARTESIANPOINT((0.066330709485483641,0.33346699533709839,0.));
#1774=IFCCARTESIANPOINT((2.0818995585505005E-17,0.34000000000000002,0.));
#1775=IFCCARTESIANPOINT((-0.066330709485483585,0.33346699533709839,0.));
#1776=IFCCARTESIANPOINT((-0.13011236700413051,0.31411904105383753,0.));
#1777=IFCCARTESIANPOINT((-0.18889387922666467,0.28269966818286546,0.));
#1778=IFCCARTESIANPOINT((-0.24041630560342617,0.24041630560342619,0.));
#1779=IFCCARTESIANPOINT((-0.28269966818286546,0.18889387922666476,0.));
#1780=IFCCARTESIANPOINT((-0.31411904105383753,0.13011236700413056,0.));
#1781=IFCCARTESIANPOINT((-0.33346699533709839,0.066330709485483738,0.));
#1782=IFCCARTESIANPOINT((-0.34000000000000002,4.1637991171010009E-17,0.));
#1783=IFCCARTESIANPOINT((-0.33346699533709839,-0.066330709485483641,0.));
#1784=IFCCARTESIANPOINT((-0.31411904105383753,-0.13011236700413051,0.));
#1785=IFCCARTESIANPOINT((-0.28269966818286546,-0.18889387922666467,0.));
#1786=IFCCARTESIANPOINT((-0.24041630560342622,-0.24041630560342617,0.));
#1787=IFCCARTESIANPOINT((-0.18889387922666476,-0.2826996681828654,0.));
#1788=IFCCARTESIANPOINT((-0.13011236700413073,-0.31411904105383742,0.));
#1789=IFCCARTESIANPOINT((-0.066330709485483752,-0.33346699533709834,0.));
#1790=IFCCARTESIANPOINT((-6.2456986756515011E-17,-0.34000000000000002,0.));
#1791=IFCCARTESIANPOINT((0.066330709485483627,-0.33346699533709839,0.));
#1792=IFCCARTESIANPOINT((0.13011236700413062,-0.31411904105383748,0.));
#1793=IFCCARTESIANPOINT((0.18889387922666465,-0.28269966818286546,0.));
#1794=IFCCARTESIANPOINT((0.24041630560342611,-0.24041630560342622,0.));
#1795=IFCCARTESIANPOINT((0.2826996681828654,-0.18889387922666476,0.));
#1796=IFCCARTESIANPOINT((0.31411904105383742,-0.13011236700413073,0.));
#1797=IFCCARTESIANPOINT((0.33346699533709834,-0.066330709485483766,0.));
#1798=IFCCARTESIANPOINT((0.34000000000000002,0.,0.));
#1799=IFCPOLYLINE((#1766,#1767,#1768,#1769,#1770,#1771,#1772,#1773,#1774,#1775,#1776,#1777,#1778,#1779,#1780,#1781,#1782,#1783,#1784,#1785,#1786,#1787,#1788,#1789,#1790,#1791,#1792,#1793,#1794,#1795,#1796,#1797,#1798));
#1800=IFCARBITRARYCLOSEDPROFILEDEF(.AREA.,$,#1799);
#1801=IFCCARTESIANPOINT((9.629999999999999,3.8200000000000003,0.46000000000000002));
#1802=IFCDIRECTION((0.,1.,0.));
#1803=IFCDIRECTION((1.,0.,0.));
#1804=IFCAXIS2PLACEMENT3D(#1801,#1802,#1803);
#1805=IFCDIRECTION((0.,0.,1.));
#1806=IFCEXTRUDEDAREASOLID(#1800,#1804,#1805,0.22);
#1807=IFCCARTESIANPOINT((0.34000000000000002,0.,0.));
#1808=IFCCARTESIANPOINT((0.33346699533709839,0.066330709485483613,0.));
#1809=IFCCARTESIANPOINT((0.31411904105383753,0.13011236700413054,0.));
#1810=IFCCARTESIANPOINT((0.2826996681828654,0.18889387922666476,0.));
#1811=IFCCARTESIANPOINT((0.24041630560342619,0.24041630560342617,0.));
#1812=IFCCARTESIANPOINT((0.18889387922666478,0.2826996681828654,0.));
#1813=IFCCARTESIANPOINT((0.13011236700413056,0.31411904105383753,0.));
#1814=IFCCARTESIANPOINT((0.066330709485483641,0.33346699533709839,0.));
#1815=IFCCARTESIANPOINT((2.0818995585505005E-17,0.34000000000000002,0.));
#1816=IFCCARTESIANPOINT((-0.066330709485483585,0.33346699533709839,0.));
#1817=IFCCARTESIANPOINT((-0.13011236700413051,0.31411904105383753,0.));
#1818=IFCCARTESIANPOINT((-0.18889387922666467,0.28269966818286546,0.));
#1819=IFCCARTESIANPOINT((-0.24041630560342617,0.24041630560342619,0.));
#1820=IFCCARTESIANPOINT((-0.28269966818286546,0.18889387922666476,0.));
#1821=IFCCARTESIANPOINT((-0.31411904105383753,0.13011236700413056,0.));
#1822=IFCCARTESIANPOINT((-0.33346699533709839,0.066330709485483738,0.));
#1823=IFCCARTESIANPOINT((-0.34000000000000002,4.1637991171010009E-17,0.));
#1824=IFCCARTESIANPOINT((-0.33346699533709839,-0.066330709485483641,0.));
#1825=IFCCARTESIANPOINT((-0.31411904105383753,-0.13011236700413051,0.));
#1826=IFCCARTESIANPOINT((-0.28269966818286546,-0.18889387922666467,0.));
#1827=IFCCARTESIANPOINT((-0.24041630560342622,-0.24041630560342617,0.));
#1828=IFCCARTESIANPOINT((-0.18889387922666476,-0.2826996681828654,0.));
#1829=IFCCARTESIANPOINT((-0.13011236700413073,-0.31411904105383742,0.));
#1830=IFCCARTESIANPOINT((-0.066330709485483752,-0.33346699533709834,0.));
#1831=IFCCARTESIANPOINT((-6.2456986756515011E-17,-0.34000000000000002,0.));
#1832=IFCCARTESIANPOINT((0.066330709485483627,-0.33346699533709839,0.));
#1833=IFCCARTESIANPOINT((0.13011236700413062,-0.31411904105383748,0.));
#1834=IFCCARTESIANPOINT((0.18889387922666465,-0.28269966818286546,0.));
#1835=IFCCARTESIANPOINT((0.24041630560342611,-0.24041630560342622,0.));
#1836=IFCCARTESIANPOINT((0.2826996681828654,-0.18889387922666476,0.));
#1837=IFCCARTESIANPOINT((0.31411904105383742,-0.13011236700413073,0.));
#1838=IFCCARTESIANPOINT((0.33346699533709834,-0.066330709485483766,0.));
#1839=IFCCARTESIANPOINT((0.34000000000000002,0.,0.));
#1840=IFCPOLYLINE((#1807,#1808,#1809,#1810,#1811,#1812,#1813,#1814,#1815,#1816,#1817,#1818,#1819,#1820,#1821,#1822,#1823,#1824,#1825,#1826,#1827,#1828,#1829,#1830,#1831,#1832,#1833,#1834,#1835,#1836,#1837,#1838,#1839));
#1841=IFCARBITRARYCLOSEDPROFILEDEF(.AREA.,$,#1840);
#1842=IFCCARTESIANPOINT((9.629999999999999,5.46,0.46000000000000002));
#1843=IFCDIRECTION((0.,1.,0.));
#1844=IFCDIRECTION((1.,0.,0.));
#1845=IFCAXIS2PLACEMENT3D(#1842,#1843,#1844);
#1846=IFCDIRECTION((0.,0.,1.));
#1847=IFCEXTRUDEDAREASOLID(#1841,#1845,#1846,0.22);
#1848=IFCOWNERHISTORY(#3,#4,.READWRITE.,.MODIFIED.,1790000371,#3,#4,1790000371);
#1849=IFCBUILDINGELEMENTPROXY('0aCCxQTz55Pxrsw4VVG01h',#1848,'Auto',$,'Auto',#1854,#1856,$,.USERDEFINED.);
#1850=IFCCARTESIANPOINT((0.,0.,0.));
#1851=IFCDIRECTION((0.,0.,1.));
#1852=IFCDIRECTION((1.,0.,0.));
#1853=IFCAXIS2PLACEMENT3D(#1850,#1851,#1852);
#1854=IFCLOCALPLACEMENT(#43,#1853);
#1855=IFCSHAPEREPRESENTATION(#16,'Body','SweptSolid',(#1670,#1683,#1724,#1765,#1806,#1847));
#1856=IFCPRODUCTDEFINITIONSHAPE($,$,(#1855));
ENDSEC;
END-ISO-10303-21;
