ISO-10303-21;
HEADER;
FILE_DESCRIPTION(('ViewDefinition[DesignTransferView]'),'2;1');
FILE_NAME('/dev/null','2026-09-13T15:44:53+02:00',(''),(''),'IfcOpenShell 0.8.5','IfcOpenShell 0.8.5','Nobody');
FILE_SCHEMA(('IFC4'));
ENDSEC;
DATA;
#1=IFCPERSON('catalog-pipeline','Pipeline','Catalog',$,$,$,$,$);
#2=IFCORGANIZATION('pragmaticBIM','pragmaticBIM',$,$,$);
#3=IFCPERSONANDORGANIZATION(#1,#2,$);
#4=IFCAPPLICATION(#2,'0.1.0','Catalog IFC Pipeline','catalog-ifc-pipeline');
#5=IFCOWNERHISTORY(#3,#4,.READWRITE.,.ADDED.,1789307093,#3,#4,1789307093);
#6=IFCPROJECT('3m9xyifC59Cxn5Zr3wTKi_',#5,'Catalog \X2\2014\X0\ space-parking-01',$,$,$,$,(#15),#10);
#7=IFCSIUNIT(*,.LENGTHUNIT.,$,.METRE.);
#8=IFCSIUNIT(*,.AREAUNIT.,$,.SQUARE_METRE.);
#9=IFCSIUNIT(*,.VOLUMEUNIT.,$,.CUBIC_METRE.);
#10=IFCUNITASSIGNMENT((#7,#8,#9));
#11=IFCCARTESIANPOINT((0.,0.,0.));
#12=IFCDIRECTION((0.,0.,1.));
#13=IFCDIRECTION((1.,0.,0.));
#14=IFCAXIS2PLACEMENT3D(#11,#12,#13);
#15=IFCGEOMETRICREPRESENTATIONCONTEXT($,'Model',3,1.0000000000000001E-05,#14,$);
#16=IFCGEOMETRICREPRESENTATIONSUBCONTEXT('Body','Model',*,*,*,*,#15,$,.MODEL_VIEW.,$);
#17=IFCOWNERHISTORY(#3,#4,.READWRITE.,.MODIFIED.,1789307093,#3,#4,1789307093);
#18=IFCSITE('177uVtn914qQ$wqYqhjJX3',#17,'Site',$,$,#29,$,$,$,$,$,$,$,$);
#19=IFCOWNERHISTORY(#3,#4,.READWRITE.,.MODIFIED.,1789307093,#3,#4,1789307093);
#20=IFCBUILDING('1r3z950ej5ZQlowNy4aB6I',#19,'Building',$,$,#34,$,$,$,$,$,$);
#21=IFCOWNERHISTORY(#3,#4,.READWRITE.,.ADDED.,1789307093,#3,#4,1789307093);
#22=IFCRELAGGREGATES('3fnWVAXuX5vB2XfAP80hkE',#21,$,$,#6,(#18));
#23=IFCOWNERHISTORY(#3,#4,.READWRITE.,.ADDED.,1789307093,#3,#4,1789307093);
#24=IFCRELAGGREGATES('36DZTBtefBiwko6jfW1UWw',#23,$,$,#18,(#20));
#25=IFCCARTESIANPOINT((0.,0.,0.));
#26=IFCDIRECTION((0.,0.,1.));
#27=IFCDIRECTION((1.,0.,0.));
#28=IFCAXIS2PLACEMENT3D(#25,#26,#27);
#29=IFCLOCALPLACEMENT($,#28);
#30=IFCCARTESIANPOINT((0.,0.,0.));
#31=IFCDIRECTION((0.,0.,1.));
#32=IFCDIRECTION((1.,0.,0.));
#33=IFCAXIS2PLACEMENT3D(#30,#31,#32);
#34=IFCLOCALPLACEMENT(#29,#33);
#35=IFCOWNERHISTORY(#3,#4,.READWRITE.,.MODIFIED.,1789307093,#3,#4,1789307093);
#36=IFCBUILDINGSTOREY('1DlJqlNH1AXBgmRcoTU7KE',#35,'Level 0',$,$,#43,$,$,$,0.);
#37=IFCOWNERHISTORY(#3,#4,.READWRITE.,.ADDED.,1789307093,#3,#4,1789307093);
#38=IFCRELAGGREGATES('3f7lrkdt1CgAdOMuePTUKs',#37,$,$,#20,(#36));
#39=IFCCARTESIANPOINT((0.,0.,0.));
#40=IFCDIRECTION((0.,0.,1.));
#41=IFCDIRECTION((1.,0.,0.));
#42=IFCAXIS2PLACEMENT3D(#39,#40,#41);
#43=IFCLOCALPLACEMENT(#34,#42);
#44=IFCOWNERHISTORY(#3,#4,.READWRITE.,.MODIFIED.,1789307093,#3,#4,1789307093);
#45=IFCSPACE('0SiCuYBXzETwhw1Pp31pPr',#44,'P0001',$,$,#52,#67,$,$,.PARKING.,$);
#46=IFCOWNERHISTORY(#3,#4,.READWRITE.,.MODIFIED.,1789307093,#3,#4,1789307093);
#47=IFCRELAGGREGATES('1veXjjSQf53uhUfacAMZ75',#46,$,$,#36,(#45,#205,#77,#107));
#48=IFCCARTESIANPOINT((0.,0.,0.));
#49=IFCDIRECTION((0.,0.,1.));
#50=IFCDIRECTION((1.,0.,0.));
#51=IFCAXIS2PLACEMENT3D(#48,#49,#50);
#52=IFCLOCALPLACEMENT(#43,#51);
#53=IFCCARTESIANPOINT((0.,0.,0.));
#54=IFCCARTESIANPOINT((2.7000000000000002,0.,0.));
#55=IFCCARTESIANPOINT((2.7000000000000002,5.,0.));
#56=IFCCARTESIANPOINT((0.,5.,0.));
#57=IFCCARTESIANPOINT((0.,0.,0.));
#58=IFCPOLYLINE((#53,#54,#55,#56,#57));
#59=IFCARBITRARYCLOSEDPROFILEDEF(.AREA.,$,#58);
#60=IFCCARTESIANPOINT((0.,0.,0.));
#61=IFCDIRECTION((0.,0.,1.));
#62=IFCDIRECTION((1.,0.,0.));
#63=IFCAXIS2PLACEMENT3D(#60,#61,#62);
#64=IFCDIRECTION((0.,0.,1.));
#65=IFCEXTRUDEDAREASOLID(#59,#63,#64,2.2000000000000002);
#66=IFCSHAPEREPRESENTATION(#16,'Body','SweptSolid',(#65));
#67=IFCPRODUCTDEFINITIONSHAPE($,$,(#66));
#68=IFCOWNERHISTORY(#3,#4,.READWRITE.,.ADDED.,1789307093,#3,#4,1789307093);
#69=IFCELEMENTQUANTITY('2mxxBMBwbCqweFMCchVupS',#68,'Qto_SpaceBaseQuantities',$,'BaseQuantities',(#72,#73,#74,#75));
#70=IFCOWNERHISTORY(#3,#4,.READWRITE.,.ADDED.,1789307093,#3,#4,1789307093);
#71=IFCRELDEFINESBYPROPERTIES('2fn40E1yL4oxb7lRHwueZv',#70,$,$,(#45),#69);
#72=IFCQUANTITYAREA('NetFloorArea',$,$,13.5,$);
#73=IFCQUANTITYLENGTH('Height',$,$,2.2000000000000002,$);
#74=IFCQUANTITYAREA('GrossFloorArea',$,$,13.5,$);
#75=IFCQUANTITYVOLUME('GrossVolume',$,$,29.699999999999999,$);
#76=IFCOWNERHISTORY(#3,#4,.READWRITE.,.MODIFIED.,1789307093,#3,#4,1789307093);
#77=IFCSPACE('2ciR6xQvn9xeuVFUk0G3ca',#76,'P0002',$,$,#82,#97,$,$,.PARKING.,$);
#78=IFCCARTESIANPOINT((0.,0.,0.));
#79=IFCDIRECTION((0.,0.,1.));
#80=IFCDIRECTION((1.,0.,0.));
#81=IFCAXIS2PLACEMENT3D(#78,#79,#80);
#82=IFCLOCALPLACEMENT(#43,#81);
#83=IFCCARTESIANPOINT((2.7000000000000002,0.,0.));
#84=IFCCARTESIANPOINT((5.4000000000000004,0.,0.));
#85=IFCCARTESIANPOINT((5.4000000000000004,5.,0.));
#86=IFCCARTESIANPOINT((2.7000000000000002,5.,0.));
#87=IFCCARTESIANPOINT((2.7000000000000002,0.,0.));
#88=IFCPOLYLINE((#83,#84,#85,#86,#87));
#89=IFCARBITRARYCLOSEDPROFILEDEF(.AREA.,$,#88);
#90=IFCCARTESIANPOINT((0.,0.,0.));
#91=IFCDIRECTION((0.,0.,1.));
#92=IFCDIRECTION((1.,0.,0.));
#93=IFCAXIS2PLACEMENT3D(#90,#91,#92);
#94=IFCDIRECTION((0.,0.,1.));
#95=IFCEXTRUDEDAREASOLID(#89,#93,#94,2.2000000000000002);
#96=IFCSHAPEREPRESENTATION(#16,'Body','SweptSolid',(#95));
#97=IFCPRODUCTDEFINITIONSHAPE($,$,(#96));
#98=IFCOWNERHISTORY(#3,#4,.READWRITE.,.ADDED.,1789307093,#3,#4,1789307093);
#99=IFCELEMENTQUANTITY('0RKJniA0jE6wmePmGvhpO6',#98,'Qto_SpaceBaseQuantities',$,'BaseQuantities',(#102,#103,#104,#105));
#100=IFCOWNERHISTORY(#3,#4,.READWRITE.,.ADDED.,1789307093,#3,#4,1789307093);
#101=IFCRELDEFINESBYPROPERTIES('3sDDPEarr6OvNEcsMIqHrB',#100,$,$,(#77),#99);
#102=IFCQUANTITYAREA('NetFloorArea',$,$,13.5,$);
#103=IFCQUANTITYLENGTH('Height',$,$,2.2000000000000002,$);
#104=IFCQUANTITYAREA('GrossFloorArea',$,$,13.5,$);
#105=IFCQUANTITYVOLUME('GrossVolume',$,$,29.699999999999999,$);
#106=IFCOWNERHISTORY(#3,#4,.READWRITE.,.MODIFIED.,1789307093,#3,#4,1789307093);
#107=IFCSPACE('1nwemo$dP5hBM1uRWO1il5',#106,'P0003',$,$,#112,#127,$,$,.PARKING.,$);
#108=IFCCARTESIANPOINT((0.,0.,0.));
#109=IFCDIRECTION((0.,0.,1.));
#110=IFCDIRECTION((1.,0.,0.));
#111=IFCAXIS2PLACEMENT3D(#108,#109,#110);
#112=IFCLOCALPLACEMENT(#43,#111);
#113=IFCCARTESIANPOINT((5.4000000000000004,0.,0.));
#114=IFCCARTESIANPOINT((8.1000000000000014,0.,0.));
#115=IFCCARTESIANPOINT((8.1000000000000014,5.,0.));
#116=IFCCARTESIANPOINT((5.4000000000000004,5.,0.));
#117=IFCCARTESIANPOINT((5.4000000000000004,0.,0.));
#118=IFCPOLYLINE((#113,#114,#115,#116,#117));
#119=IFCARBITRARYCLOSEDPROFILEDEF(.AREA.,$,#118);
#120=IFCCARTESIANPOINT((0.,0.,0.));
#121=IFCDIRECTION((0.,0.,1.));
#122=IFCDIRECTION((1.,0.,0.));
#123=IFCAXIS2PLACEMENT3D(#120,#121,#122);
#124=IFCDIRECTION((0.,0.,1.));
#125=IFCEXTRUDEDAREASOLID(#119,#123,#124,2.2000000000000002);
#126=IFCSHAPEREPRESENTATION(#16,'Body','SweptSolid',(#125));
#127=IFCPRODUCTDEFINITIONSHAPE($,$,(#126));
#128=IFCOWNERHISTORY(#3,#4,.READWRITE.,.ADDED.,1789307093,#3,#4,1789307093);
#129=IFCELEMENTQUANTITY('3GcdygDGL9f8iIZgLIK3dt',#128,'Qto_SpaceBaseQuantities',$,'BaseQuantities',(#132,#133,#134,#135));
#130=IFCOWNERHISTORY(#3,#4,.READWRITE.,.ADDED.,1789307093,#3,#4,1789307093);
#131=IFCRELDEFINESBYPROPERTIES('1gGhedRRX3mPNyjCK3C$Kh',#130,$,$,(#107),#129);
#132=IFCQUANTITYAREA('NetFloorArea',$,$,13.5,$);
#133=IFCQUANTITYLENGTH('Height',$,$,2.2000000000000002,$);
#134=IFCQUANTITYAREA('GrossFloorArea',$,$,13.5,$);
#135=IFCQUANTITYVOLUME('GrossVolume',$,$,29.699999999999999,$);
#136=IFCOWNERHISTORY(#3,#4,.READWRITE.,.MODIFIED.,1789307093,#3,#4,1789307093);
#137=IFCSLAB('1Q9Yv3vIT20P7eV9nULgUV',#136,'Parking-FloorSlab',$,$,#144,#159,$,.FLOOR.);
#138=IFCOWNERHISTORY(#3,#4,.READWRITE.,.MODIFIED.,1789307093,#3,#4,1789307093);
#139=IFCRELCONTAINEDINSPATIALSTRUCTURE('2E_dzger14$xQ$Zpg0PF3_',#138,$,$,(#161,#183,#137),#36);
#140=IFCCARTESIANPOINT((0.,0.,-0.40000000000000002));
#141=IFCDIRECTION((0.,0.,1.));
#142=IFCDIRECTION((1.,0.,0.));
#143=IFCAXIS2PLACEMENT3D(#140,#141,#142);
#144=IFCLOCALPLACEMENT(#43,#143);
#145=IFCCARTESIANPOINT((0.,-3.,0.));
#146=IFCCARTESIANPOINT((8.1000000000000014,-3.,0.));
#147=IFCCARTESIANPOINT((8.1000000000000014,5.2000000000000002,0.));
#148=IFCCARTESIANPOINT((0.,5.2000000000000002,0.));
#149=IFCCARTESIANPOINT((0.,-3.,0.));
#150=IFCPOLYLINE((#145,#146,#147,#148,#149));
#151=IFCARBITRARYCLOSEDPROFILEDEF(.AREA.,$,#150);
#152=IFCCARTESIANPOINT((0.,0.,0.));
#153=IFCDIRECTION((0.,0.,1.));
#154=IFCDIRECTION((1.,0.,0.));
#155=IFCAXIS2PLACEMENT3D(#152,#153,#154);
#156=IFCDIRECTION((0.,0.,1.));
#157=IFCEXTRUDEDAREASOLID(#151,#155,#156,0.29999999999999999);
#158=IFCSHAPEREPRESENTATION(#16,'Body','SweptSolid',(#157));
#159=IFCPRODUCTDEFINITIONSHAPE($,$,(#158));
#160=IFCOWNERHISTORY(#3,#4,.READWRITE.,.MODIFIED.,1789307093,#3,#4,1789307093);
#161=IFCCOVERING('3Mq3UOpX95af_TvD4EBPgu',#160,'Parking-Flooring',$,$,#166,#181,$,.FLOORING.);
#162=IFCCARTESIANPOINT((0.,0.,-0.10000000000000001));
#163=IFCDIRECTION((0.,0.,1.));
#164=IFCDIRECTION((1.,0.,0.));
#165=IFCAXIS2PLACEMENT3D(#162,#163,#164);
#166=IFCLOCALPLACEMENT(#43,#165);
#167=IFCCARTESIANPOINT((0.,-3.,0.));
#168=IFCCARTESIANPOINT((8.1000000000000014,-3.,0.));
#169=IFCCARTESIANPOINT((8.1000000000000014,5.,0.));
#170=IFCCARTESIANPOINT((0.,5.,0.));
#171=IFCCARTESIANPOINT((0.,-3.,0.));
#172=IFCPOLYLINE((#167,#168,#169,#170,#171));
#173=IFCARBITRARYCLOSEDPROFILEDEF(.AREA.,$,#172);
#174=IFCCARTESIANPOINT((0.,0.,0.));
#175=IFCDIRECTION((0.,0.,1.));
#176=IFCDIRECTION((1.,0.,0.));
#177=IFCAXIS2PLACEMENT3D(#174,#175,#176);
#178=IFCDIRECTION((0.,0.,1.));
#179=IFCEXTRUDEDAREASOLID(#173,#177,#178,0.10000000000000001);
#180=IFCSHAPEREPRESENTATION(#16,'Body','SweptSolid',(#179));
#181=IFCPRODUCTDEFINITIONSHAPE($,$,(#180));
#182=IFCOWNERHISTORY(#3,#4,.READWRITE.,.MODIFIED.,1789307093,#3,#4,1789307093);
#183=IFCWALL('3DzfpHgd91VvJiDesxmhr3',#182,'Parking-Wall',$,$,#188,#203,$,.SOLIDWALL.);
#184=IFCCARTESIANPOINT((0.,5.,-0.10000000000000001));
#185=IFCDIRECTION((0.,0.,1.));
#186=IFCDIRECTION((1.,0.,0.));
#187=IFCAXIS2PLACEMENT3D(#184,#185,#186);
#188=IFCLOCALPLACEMENT(#43,#187);
#189=IFCCARTESIANPOINT((0.,0.,0.));
#190=IFCCARTESIANPOINT((8.1000000000000014,0.,0.));
#191=IFCCARTESIANPOINT((8.1000000000000014,0.20000000000000001,0.));
#192=IFCCARTESIANPOINT((0.,0.20000000000000001,0.));
#193=IFCCARTESIANPOINT((0.,0.,0.));
#194=IFCPOLYLINE((#189,#190,#191,#192,#193));
#195=IFCARBITRARYCLOSEDPROFILEDEF(.AREA.,$,#194);
#196=IFCCARTESIANPOINT((0.,0.,0.));
#197=IFCDIRECTION((0.,0.,1.));
#198=IFCDIRECTION((1.,0.,0.));
#199=IFCAXIS2PLACEMENT3D(#196,#197,#198);
#200=IFCDIRECTION((0.,0.,1.));
#201=IFCEXTRUDEDAREASOLID(#195,#199,#200,2.3000000000000003);
#202=IFCSHAPEREPRESENTATION(#16,'Body','SweptSolid',(#201));
#203=IFCPRODUCTDEFINITIONSHAPE($,$,(#202));
#204=IFCOWNERHISTORY(#3,#4,.READWRITE.,.MODIFIED.,1789307093,#3,#4,1789307093);
#205=IFCSPACE('27y2roSi1B1f$gzW2UAixd',#204,'Strasse',$,$,#210,#225,'Strasse',$,.EXTERNAL.,$);
#206=IFCCARTESIANPOINT((0.,0.,0.));
#207=IFCDIRECTION((0.,0.,1.));
#208=IFCDIRECTION((1.,0.,0.));
#209=IFCAXIS2PLACEMENT3D(#206,#207,#208);
#210=IFCLOCALPLACEMENT(#43,#209);
#211=IFCCARTESIANPOINT((0.,-3.,0.));
#212=IFCCARTESIANPOINT((8.1000000000000014,-3.,0.));
#213=IFCCARTESIANPOINT((8.1000000000000014,0.,0.));
#214=IFCCARTESIANPOINT((0.,0.,0.));
#215=IFCCARTESIANPOINT((0.,-3.,0.));
#216=IFCPOLYLINE((#211,#212,#213,#214,#215));
#217=IFCARBITRARYCLOSEDPROFILEDEF(.AREA.,$,#216);
#218=IFCCARTESIANPOINT((0.,0.,0.));
#219=IFCDIRECTION((0.,0.,1.));
#220=IFCDIRECTION((1.,0.,0.));
#221=IFCAXIS2PLACEMENT3D(#218,#219,#220);
#222=IFCDIRECTION((0.,0.,1.));
#223=IFCEXTRUDEDAREASOLID(#217,#221,#222,2.2000000000000002);
#224=IFCSHAPEREPRESENTATION(#16,'Body','SweptSolid',(#223));
#225=IFCPRODUCTDEFINITIONSHAPE($,$,(#224));
#226=IFCOWNERHISTORY(#3,#4,.READWRITE.,.ADDED.,1789307093,#3,#4,1789307093);
#227=IFCELEMENTQUANTITY('2BrH$yFbn1Jf5nXCg9Qq$5',#226,'Qto_SpaceBaseQuantities',$,'BaseQuantities',(#230,#231,#232,#233));
#228=IFCOWNERHISTORY(#3,#4,.READWRITE.,.ADDED.,1789307093,#3,#4,1789307093);
#229=IFCRELDEFINESBYPROPERTIES('3S4W6mE21728zPCXJG91gr',#228,$,$,(#205),#227);
#230=IFCQUANTITYAREA('GrossFloorArea',$,$,24.300000000000004,$);
#231=IFCQUANTITYVOLUME('GrossVolume',$,$,53.460000000000015,$);
#232=IFCQUANTITYLENGTH('Height',$,$,2.2000000000000002,$);
#233=IFCQUANTITYAREA('NetFloorArea',$,$,24.300000000000001,$);
#234=IFCOWNERHISTORY(#3,#4,.READWRITE.,.ADDED.,1789307093,#3,#4,1789307093);
#235=IFCPROPERTYSET('0ux7e5C5j6eRLmzxUNk8Ly',#234,'Pset_SpaceCommon',$,(#238));
#236=IFCOWNERHISTORY(#3,#4,.READWRITE.,.ADDED.,1789307093,#3,#4,1789307093);
#237=IFCRELDEFINESBYPROPERTIES('3b5FckCsH4f97TmBt9AcWG',#236,$,$,(#205),#235);
#238=IFCPROPERTYSINGLEVALUE('IsExternal',$,IFCBOOLEAN(.T.),$);
ENDSEC;
END-ISO-10303-21;
