ISO-10303-21;
HEADER;
FILE_DESCRIPTION(('ViewDefinition[DesignTransferView]'),'2;1');
FILE_NAME('/dev/null','2026-09-18T06:20:12+02:00',(''),(''),'IfcOpenShell 0.8.5','IfcOpenShell 0.8.5','Nobody');
FILE_SCHEMA(('IFC4'));
ENDSEC;
DATA;
#1=IFCPERSON('catalog-pipeline','Pipeline','Catalog',$,$,$,$,$);
#2=IFCORGANIZATION('pragmaticBIM','pragmaticBIM',$,$,$);
#3=IFCPERSONANDORGANIZATION(#1,#2,$);
#4=IFCAPPLICATION(#2,'0.1.0','Catalog IFC Pipeline','catalog-ifc-pipeline');
#5=IFCOWNERHISTORY(#3,#4,.READWRITE.,.ADDED.,1789705212,#3,#4,1789705212);
#6=IFCPROJECT('1f$PLNXYjD7hHtiHjQuKxM',#5,'spaces-gross-volume-01',$,$,$,$,(#15),#10);
#7=IFCSIUNIT(*,.LENGTHUNIT.,$,.METRE.);
#8=IFCSIUNIT(*,.AREAUNIT.,$,.SQUARE_METRE.);
#9=IFCSIUNIT(*,.VOLUMEUNIT.,$,.CUBIC_METRE.);
#10=IFCUNITASSIGNMENT((#8,#9,#7));
#11=IFCCARTESIANPOINT((0.,0.,0.));
#12=IFCDIRECTION((0.,0.,1.));
#13=IFCDIRECTION((1.,0.,0.));
#14=IFCAXIS2PLACEMENT3D(#11,#12,#13);
#15=IFCGEOMETRICREPRESENTATIONCONTEXT($,'Model',3,1.0000000000000001E-05,#14,$);
#16=IFCGEOMETRICREPRESENTATIONSUBCONTEXT('Body','Model',*,*,*,*,#15,$,.MODEL_VIEW.,$);
#17=IFCOWNERHISTORY(#3,#4,.READWRITE.,.MODIFIED.,1789705213,#3,#4,1789705212);
#18=IFCSITE('2VNqq2fU55$Bt1WvEuTHCR',#17,'Site',$,$,#69,#89,$,$,$,$,$,$,$);
#19=IFCOWNERHISTORY(#3,#4,.READWRITE.,.MODIFIED.,1789705213,#3,#4,1789705212);
#20=IFCBUILDING('1gdw7sEXT59QAHD67lNC1n',#19,'Building',$,$,#74,$,$,$,$,$,$);
#21=IFCOWNERHISTORY(#3,#4,.READWRITE.,.ADDED.,1789705212,#3,#4,1789705212);
#22=IFCRELAGGREGATES('2amYWl58168vqfFv8_HSwo',#21,$,$,#6,(#18));
#23=IFCOWNERHISTORY(#3,#4,.READWRITE.,.ADDED.,1789705212,#3,#4,1789705212);
#24=IFCRELAGGREGATES('35AQkAWBjCJBHpMHfB765f',#23,$,$,#18,(#20));
#35=IFCOWNERHISTORY(#3,#4,.READWRITE.,.MODIFIED.,1789705212,#3,#4,1789705212);
#36=IFCBUILDINGSTOREY('08oHKqqd99OxdEPxZBu6jb',#35,'FD',$,$,#43,$,$,$,-0.5);
#37=IFCOWNERHISTORY(#3,#4,.READWRITE.,.MODIFIED.,1789705212,#3,#4,1789705212);
#38=IFCRELAGGREGATES('1R1aLihYfAXB2yBXcefjxd',#37,$,$,#20,(#59,#52,#36,#45));
#39=IFCCARTESIANPOINT((0.,0.,-0.5));
#40=IFCDIRECTION((0.,0.,1.));
#41=IFCDIRECTION((1.,0.,0.));
#42=IFCAXIS2PLACEMENT3D(#39,#40,#41);
#43=IFCLOCALPLACEMENT(#74,#42);
#44=IFCOWNERHISTORY(#3,#4,.READWRITE.,.MODIFIED.,1789705212,#3,#4,1789705212);
#45=IFCBUILDINGSTOREY('0fOSYrPaPC3vDCoIsdF3q2',#44,'EG',$,$,#50,$,$,$,0.);
#46=IFCCARTESIANPOINT((0.,0.,0.));
#47=IFCDIRECTION((0.,0.,1.));
#48=IFCDIRECTION((1.,0.,0.));
#49=IFCAXIS2PLACEMENT3D(#46,#47,#48);
#50=IFCLOCALPLACEMENT(#74,#49);
#51=IFCOWNERHISTORY(#3,#4,.READWRITE.,.MODIFIED.,1789705212,#3,#4,1789705212);
#52=IFCBUILDINGSTOREY('0KbGlclcz5QOkJWjR6fp90',#51,'01',$,$,#57,$,$,$,3.);
#53=IFCCARTESIANPOINT((0.,0.,3.));
#54=IFCDIRECTION((0.,0.,1.));
#55=IFCDIRECTION((1.,0.,0.));
#56=IFCAXIS2PLACEMENT3D(#53,#54,#55);
#57=IFCLOCALPLACEMENT(#74,#56);
#58=IFCOWNERHISTORY(#3,#4,.READWRITE.,.MODIFIED.,1789705213,#3,#4,1789705212);
#59=IFCBUILDINGSTOREY('3rLDPf0wr2kwTe5dqDnT8L',#58,'02',$,$,#64,$,$,$,6.);
#60=IFCCARTESIANPOINT((0.,0.,6.));
#61=IFCDIRECTION((0.,0.,1.));
#62=IFCDIRECTION((1.,0.,0.));
#63=IFCAXIS2PLACEMENT3D(#60,#61,#62);
#64=IFCLOCALPLACEMENT(#74,#63);
#65=IFCCARTESIANPOINT((0.,0.,0.));
#66=IFCDIRECTION((0.,0.,1.));
#67=IFCDIRECTION((1.,0.,0.));
#68=IFCAXIS2PLACEMENT3D(#65,#66,#67);
#69=IFCLOCALPLACEMENT($,#68);
#70=IFCCARTESIANPOINT((0.,0.,0.));
#71=IFCDIRECTION((0.,0.,1.));
#72=IFCDIRECTION((1.,0.,0.));
#73=IFCAXIS2PLACEMENT3D(#70,#71,#72);
#74=IFCLOCALPLACEMENT(#69,#73);
#75=IFCCARTESIANPOINT((0.,0.,0.));
#76=IFCCARTESIANPOINT((16.,0.,0.));
#77=IFCCARTESIANPOINT((16.,11.,0.));
#78=IFCCARTESIANPOINT((0.,11.,0.));
#79=IFCCARTESIANPOINT((0.,0.,0.));
#80=IFCPOLYLINE((#75,#76,#77,#78,#79));
#81=IFCARBITRARYCLOSEDPROFILEDEF(.AREA.,$,#80);
#82=IFCCARTESIANPOINT((0.,0.,0.));
#83=IFCDIRECTION((0.,0.,1.));
#84=IFCDIRECTION((1.,0.,0.));
#85=IFCAXIS2PLACEMENT3D(#82,#83,#84);
#86=IFCDIRECTION((0.,0.,1.));
#87=IFCEXTRUDEDAREASOLID(#81,#85,#86,0.20000000000000001);
#88=IFCSHAPEREPRESENTATION(#16,'Body','SweptSolid',(#87));
#89=IFCPRODUCTDEFINITIONSHAPE($,$,(#88));
#90=IFCOWNERHISTORY(#3,#4,.READWRITE.,.MODIFIED.,1789705213,#3,#4,1789705213);
#91=IFCSPACE('3Xd0cpw$n3Uw8kw6sXi0kY',#90,'FD-BR',$,$,#98,#113,'Gruendung',$,.GFA.,$);
#92=IFCOWNERHISTORY(#3,#4,.READWRITE.,.ADDED.,1789705213,#3,#4,1789705213);
#93=IFCRELAGGREGATES('0w7kN4fMP6xAyYIjqGkN3n',#92,$,$,#36,(#91));
#94=IFCCARTESIANPOINT((0.,0.,0.));
#95=IFCDIRECTION((0.,0.,1.));
#96=IFCDIRECTION((1.,0.,0.));
#97=IFCAXIS2PLACEMENT3D(#94,#95,#96);
#98=IFCLOCALPLACEMENT(#43,#97);
#99=IFCCARTESIANPOINT((0.,0.,0.));
#100=IFCCARTESIANPOINT((16.,0.,0.));
#101=IFCCARTESIANPOINT((16.,11.,0.));
#102=IFCCARTESIANPOINT((0.,11.,0.));
#103=IFCCARTESIANPOINT((0.,0.,0.));
#104=IFCPOLYLINE((#99,#100,#101,#102,#103));
#105=IFCARBITRARYCLOSEDPROFILEDEF(.AREA.,$,#104);
#106=IFCCARTESIANPOINT((0.,0.,0.));
#107=IFCDIRECTION((0.,0.,1.));
#108=IFCDIRECTION((1.,0.,0.));
#109=IFCAXIS2PLACEMENT3D(#106,#107,#108);
#110=IFCDIRECTION((0.,0.,1.));
#111=IFCEXTRUDEDAREASOLID(#105,#109,#110,0.5);
#112=IFCSHAPEREPRESENTATION(#16,'Body','SweptSolid',(#111));
#113=IFCPRODUCTDEFINITIONSHAPE($,$,(#112));
#114=IFCOWNERHISTORY(#3,#4,.READWRITE.,.ADDED.,1789705213,#3,#4,1789705213);
#115=IFCELEMENTQUANTITY('0CDt3$0fv1CgiBCFf0eZtX',#114,'Qto_SpaceBaseQuantities',$,'BaseQuantities',(#118,#119,#120));
#116=IFCOWNERHISTORY(#3,#4,.READWRITE.,.ADDED.,1789705213,#3,#4,1789705213);
#117=IFCRELDEFINESBYPROPERTIES('1xHl8Yu895oP1$bVueSOWl',#116,$,$,(#91),#115);
#118=IFCQUANTITYAREA('GrossFloorArea',$,$,176.,$);
#119=IFCQUANTITYVOLUME('GrossVolume',$,$,88.,$);
#120=IFCQUANTITYLENGTH('Height',$,$,0.5,$);
#121=IFCOWNERHISTORY(#3,#4,.READWRITE.,.MODIFIED.,1789705213,#3,#4,1789705213);
#122=IFCSPACE('0EojyB7MX5vA7ei7SDtDWG',#121,'EG-WA',$,$,#129,#146,'Wohnung A',$,.GFA.,$);
#123=IFCOWNERHISTORY(#3,#4,.READWRITE.,.MODIFIED.,1789705213,#3,#4,1789705213);
#124=IFCRELAGGREGATES('2b0FgA24P1oBnqTHllZyup',#123,$,$,#45,(#184,#155,#122));
#125=IFCCARTESIANPOINT((0.,0.,0.));
#126=IFCDIRECTION((0.,0.,1.));
#127=IFCDIRECTION((1.,0.,0.));
#128=IFCAXIS2PLACEMENT3D(#125,#126,#127);
#129=IFCLOCALPLACEMENT(#50,#128);
#130=IFCCARTESIANPOINT((0.,0.,0.));
#131=IFCCARTESIANPOINT((9.1000000000000014,0.,0.));
#132=IFCCARTESIANPOINT((9.1000000000000014,4.,0.));
#133=IFCCARTESIANPOINT((6.9000000000000004,4.,0.));
#134=IFCCARTESIANPOINT((6.9000000000000004,11.,0.));
#135=IFCCARTESIANPOINT((0.,11.,0.));
#136=IFCCARTESIANPOINT((0.,0.,0.));
#137=IFCPOLYLINE((#130,#131,#132,#133,#134,#135,#136));
#138=IFCARBITRARYCLOSEDPROFILEDEF(.AREA.,$,#137);
#139=IFCCARTESIANPOINT((0.,0.,0.));
#140=IFCDIRECTION((0.,0.,1.));
#141=IFCDIRECTION((1.,0.,0.));
#142=IFCAXIS2PLACEMENT3D(#139,#140,#141);
#143=IFCDIRECTION((0.,0.,1.));
#144=IFCEXTRUDEDAREASOLID(#138,#142,#143,3.);
#145=IFCSHAPEREPRESENTATION(#16,'Body','SweptSolid',(#144));
#146=IFCPRODUCTDEFINITIONSHAPE($,$,(#145));
#147=IFCOWNERHISTORY(#3,#4,.READWRITE.,.ADDED.,1789705213,#3,#4,1789705213);
#148=IFCELEMENTQUANTITY('2sWZsJ1TfEsRk3Vr9WdasO',#147,'Qto_SpaceBaseQuantities',$,'BaseQuantities',(#151,#152,#153));
#149=IFCOWNERHISTORY(#3,#4,.READWRITE.,.ADDED.,1789705213,#3,#4,1789705213);
#150=IFCRELDEFINESBYPROPERTIES('1wETGT83bAOftqaPtCLRk9',#149,$,$,(#122),#148);
#151=IFCQUANTITYAREA('GrossFloorArea',$,$,84.700000000000003,$);
#152=IFCQUANTITYVOLUME('GrossVolume',$,$,254.09999999999999,$);
#153=IFCQUANTITYLENGTH('Height',$,$,3.,$);
#154=IFCOWNERHISTORY(#3,#4,.READWRITE.,.MODIFIED.,1789705213,#3,#4,1789705213);
#155=IFCSPACE('3MP1kuCnv6WB9UGCCsxfc$',#154,'EG-TR',$,$,#160,#175,'Treppe',$,.GFA.,$);
#156=IFCCARTESIANPOINT((0.,0.,0.));
#157=IFCDIRECTION((0.,0.,1.));
#158=IFCDIRECTION((1.,0.,0.));
#159=IFCAXIS2PLACEMENT3D(#156,#157,#158);
#160=IFCLOCALPLACEMENT(#50,#159);
#161=IFCCARTESIANPOINT((6.9000000000000004,4.,0.));
#162=IFCCARTESIANPOINT((9.1000000000000014,4.,0.));
#163=IFCCARTESIANPOINT((9.1000000000000014,7.,0.));
#164=IFCCARTESIANPOINT((6.9000000000000004,7.,0.));
#165=IFCCARTESIANPOINT((6.9000000000000004,4.,0.));
#166=IFCPOLYLINE((#161,#162,#163,#164,#165));
#167=IFCARBITRARYCLOSEDPROFILEDEF(.AREA.,$,#166);
#168=IFCCARTESIANPOINT((0.,0.,0.));
#169=IFCDIRECTION((0.,0.,1.));
#170=IFCDIRECTION((1.,0.,0.));
#171=IFCAXIS2PLACEMENT3D(#168,#169,#170);
#172=IFCDIRECTION((0.,0.,1.));
#173=IFCEXTRUDEDAREASOLID(#167,#171,#172,3.);
#174=IFCSHAPEREPRESENTATION(#16,'Body','SweptSolid',(#173));
#175=IFCPRODUCTDEFINITIONSHAPE($,$,(#174));
#176=IFCOWNERHISTORY(#3,#4,.READWRITE.,.ADDED.,1789705213,#3,#4,1789705213);
#177=IFCELEMENTQUANTITY('3VfGoT2cfEIw9$k9o6bLfd',#176,'Qto_SpaceBaseQuantities',$,'BaseQuantities',(#180,#181,#182));
#178=IFCOWNERHISTORY(#3,#4,.READWRITE.,.ADDED.,1789705213,#3,#4,1789705213);
#179=IFCRELDEFINESBYPROPERTIES('282UGrqYf0IRlkyGcBqj8N',#178,$,$,(#155),#177);
#180=IFCQUANTITYAREA('GrossFloorArea',$,$,6.5999999999999996,$);
#181=IFCQUANTITYVOLUME('GrossVolume',$,$,19.800000000000001,$);
#182=IFCQUANTITYLENGTH('Height',$,$,3.,$);
#183=IFCOWNERHISTORY(#3,#4,.READWRITE.,.MODIFIED.,1789705213,#3,#4,1789705213);
#184=IFCSPACE('2izKKztXz7LR7ya4fjMeCt',#183,'EG-WB',$,$,#189,#206,'Wohnung B',$,.GFA.,$);
#185=IFCCARTESIANPOINT((0.,0.,0.));
#186=IFCDIRECTION((0.,0.,1.));
#187=IFCDIRECTION((1.,0.,0.));
#188=IFCAXIS2PLACEMENT3D(#185,#186,#187);
#189=IFCLOCALPLACEMENT(#50,#188);
#190=IFCCARTESIANPOINT((9.1000000000000014,0.,0.));
#191=IFCCARTESIANPOINT((16.,0.,0.));
#192=IFCCARTESIANPOINT((16.,11.,0.));
#193=IFCCARTESIANPOINT((6.9000000000000004,11.,0.));
#194=IFCCARTESIANPOINT((6.9000000000000004,7.,0.));
#195=IFCCARTESIANPOINT((9.1000000000000014,7.,0.));
#196=IFCCARTESIANPOINT((9.1000000000000014,0.,0.));
#197=IFCPOLYLINE((#190,#191,#192,#193,#194,#195,#196));
#198=IFCARBITRARYCLOSEDPROFILEDEF(.AREA.,$,#197);
#199=IFCCARTESIANPOINT((0.,0.,0.));
#200=IFCDIRECTION((0.,0.,1.));
#201=IFCDIRECTION((1.,0.,0.));
#202=IFCAXIS2PLACEMENT3D(#199,#200,#201);
#203=IFCDIRECTION((0.,0.,1.));
#204=IFCEXTRUDEDAREASOLID(#198,#202,#203,3.);
#205=IFCSHAPEREPRESENTATION(#16,'Body','SweptSolid',(#204));
#206=IFCPRODUCTDEFINITIONSHAPE($,$,(#205));
#207=IFCOWNERHISTORY(#3,#4,.READWRITE.,.ADDED.,1789705213,#3,#4,1789705213);
#208=IFCELEMENTQUANTITY('3I_Z8gvbLAtf3DMbGagQ1L',#207,'Qto_SpaceBaseQuantities',$,'BaseQuantities',(#211,#212,#213));
#209=IFCOWNERHISTORY(#3,#4,.READWRITE.,.ADDED.,1789705213,#3,#4,1789705213);
#210=IFCRELDEFINESBYPROPERTIES('2afovxKLj2JOq4yqpY8twH',#209,$,$,(#184),#208);
#211=IFCQUANTITYAREA('GrossFloorArea',$,$,84.700000000000003,$);
#212=IFCQUANTITYVOLUME('GrossVolume',$,$,254.09999999999999,$);
#213=IFCQUANTITYLENGTH('Height',$,$,3.,$);
#214=IFCOWNERHISTORY(#3,#4,.READWRITE.,.MODIFIED.,1789705213,#3,#4,1789705213);
#215=IFCSPACE('3otESGL0L1iAKjUM7FEc5n',#214,'01-WA',$,$,#222,#239,'Wohnung A',$,.GFA.,$);
#216=IFCOWNERHISTORY(#3,#4,.READWRITE.,.MODIFIED.,1789705213,#3,#4,1789705213);
#217=IFCRELAGGREGATES('0UWDdowpH8cAzpCnBel6D4',#216,$,$,#52,(#277,#215,#248));
#218=IFCCARTESIANPOINT((0.,0.,0.));
#219=IFCDIRECTION((0.,0.,1.));
#220=IFCDIRECTION((1.,0.,0.));
#221=IFCAXIS2PLACEMENT3D(#218,#219,#220);
#222=IFCLOCALPLACEMENT(#57,#221);
#223=IFCCARTESIANPOINT((0.,0.,0.));
#224=IFCCARTESIANPOINT((9.1000000000000014,0.,0.));
#225=IFCCARTESIANPOINT((9.1000000000000014,4.,0.));
#226=IFCCARTESIANPOINT((6.9000000000000004,4.,0.));
#227=IFCCARTESIANPOINT((6.9000000000000004,11.,0.));
#228=IFCCARTESIANPOINT((0.,11.,0.));
#229=IFCCARTESIANPOINT((0.,0.,0.));
#230=IFCPOLYLINE((#223,#224,#225,#226,#227,#228,#229));
#231=IFCARBITRARYCLOSEDPROFILEDEF(.AREA.,$,#230);
#232=IFCCARTESIANPOINT((0.,0.,0.));
#233=IFCDIRECTION((0.,0.,1.));
#234=IFCDIRECTION((1.,0.,0.));
#235=IFCAXIS2PLACEMENT3D(#232,#233,#234);
#236=IFCDIRECTION((0.,0.,1.));
#237=IFCEXTRUDEDAREASOLID(#231,#235,#236,3.);
#238=IFCSHAPEREPRESENTATION(#16,'Body','SweptSolid',(#237));
#239=IFCPRODUCTDEFINITIONSHAPE($,$,(#238));
#240=IFCOWNERHISTORY(#3,#4,.READWRITE.,.ADDED.,1789705213,#3,#4,1789705213);
#241=IFCELEMENTQUANTITY('0$Jeu3zkf16QlxP3eN2g9j',#240,'Qto_SpaceBaseQuantities',$,'BaseQuantities',(#244,#245,#246));
#242=IFCOWNERHISTORY(#3,#4,.READWRITE.,.ADDED.,1789705213,#3,#4,1789705213);
#243=IFCRELDEFINESBYPROPERTIES('1P0BdlSlr0sOZIAfubp$JS',#242,$,$,(#215),#241);
#244=IFCQUANTITYAREA('GrossFloorArea',$,$,84.700000000000003,$);
#245=IFCQUANTITYVOLUME('GrossVolume',$,$,254.09999999999999,$);
#246=IFCQUANTITYLENGTH('Height',$,$,3.,$);
#247=IFCOWNERHISTORY(#3,#4,.READWRITE.,.MODIFIED.,1789705213,#3,#4,1789705213);
#248=IFCSPACE('2Nn5c6BbXEggI8j$Ez3cxa',#247,'01-TR',$,$,#253,#268,'Treppe',$,.GFA.,$);
#249=IFCCARTESIANPOINT((0.,0.,0.));
#250=IFCDIRECTION((0.,0.,1.));
#251=IFCDIRECTION((1.,0.,0.));
#252=IFCAXIS2PLACEMENT3D(#249,#250,#251);
#253=IFCLOCALPLACEMENT(#57,#252);
#254=IFCCARTESIANPOINT((6.9000000000000004,4.,0.));
#255=IFCCARTESIANPOINT((9.1000000000000014,4.,0.));
#256=IFCCARTESIANPOINT((9.1000000000000014,7.,0.));
#257=IFCCARTESIANPOINT((6.9000000000000004,7.,0.));
#258=IFCCARTESIANPOINT((6.9000000000000004,4.,0.));
#259=IFCPOLYLINE((#254,#255,#256,#257,#258));
#260=IFCARBITRARYCLOSEDPROFILEDEF(.AREA.,$,#259);
#261=IFCCARTESIANPOINT((0.,0.,0.));
#262=IFCDIRECTION((0.,0.,1.));
#263=IFCDIRECTION((1.,0.,0.));
#264=IFCAXIS2PLACEMENT3D(#261,#262,#263);
#265=IFCDIRECTION((0.,0.,1.));
#266=IFCEXTRUDEDAREASOLID(#260,#264,#265,3.);
#267=IFCSHAPEREPRESENTATION(#16,'Body','SweptSolid',(#266));
#268=IFCPRODUCTDEFINITIONSHAPE($,$,(#267));
#269=IFCOWNERHISTORY(#3,#4,.READWRITE.,.ADDED.,1789705213,#3,#4,1789705213);
#270=IFCELEMENTQUANTITY('0wj_FDa2T479c$ZFOJxuUm',#269,'Qto_SpaceBaseQuantities',$,'BaseQuantities',(#273,#274,#275));
#271=IFCOWNERHISTORY(#3,#4,.READWRITE.,.ADDED.,1789705213,#3,#4,1789705213);
#272=IFCRELDEFINESBYPROPERTIES('0tJ7eTV7j28PypuKJTLEnE',#271,$,$,(#248),#270);
#273=IFCQUANTITYAREA('GrossFloorArea',$,$,6.5999999999999996,$);
#274=IFCQUANTITYVOLUME('GrossVolume',$,$,19.800000000000001,$);
#275=IFCQUANTITYLENGTH('Height',$,$,3.,$);
#276=IFCOWNERHISTORY(#3,#4,.READWRITE.,.MODIFIED.,1789705213,#3,#4,1789705213);
#277=IFCSPACE('2Df2ajE4HCef$7GHv3AXZn',#276,'01-WB',$,$,#282,#299,'Wohnung B',$,.GFA.,$);
#278=IFCCARTESIANPOINT((0.,0.,0.));
#279=IFCDIRECTION((0.,0.,1.));
#280=IFCDIRECTION((1.,0.,0.));
#281=IFCAXIS2PLACEMENT3D(#278,#279,#280);
#282=IFCLOCALPLACEMENT(#57,#281);
#283=IFCCARTESIANPOINT((9.1000000000000014,0.,0.));
#284=IFCCARTESIANPOINT((16.,0.,0.));
#285=IFCCARTESIANPOINT((16.,11.,0.));
#286=IFCCARTESIANPOINT((6.9000000000000004,11.,0.));
#287=IFCCARTESIANPOINT((6.9000000000000004,7.,0.));
#288=IFCCARTESIANPOINT((9.1000000000000014,7.,0.));
#289=IFCCARTESIANPOINT((9.1000000000000014,0.,0.));
#290=IFCPOLYLINE((#283,#284,#285,#286,#287,#288,#289));
#291=IFCARBITRARYCLOSEDPROFILEDEF(.AREA.,$,#290);
#292=IFCCARTESIANPOINT((0.,0.,0.));
#293=IFCDIRECTION((0.,0.,1.));
#294=IFCDIRECTION((1.,0.,0.));
#295=IFCAXIS2PLACEMENT3D(#292,#293,#294);
#296=IFCDIRECTION((0.,0.,1.));
#297=IFCEXTRUDEDAREASOLID(#291,#295,#296,3.);
#298=IFCSHAPEREPRESENTATION(#16,'Body','SweptSolid',(#297));
#299=IFCPRODUCTDEFINITIONSHAPE($,$,(#298));
#300=IFCOWNERHISTORY(#3,#4,.READWRITE.,.ADDED.,1789705213,#3,#4,1789705213);
#301=IFCELEMENTQUANTITY('1Da4qlEiH9GO5996ObSqab',#300,'Qto_SpaceBaseQuantities',$,'BaseQuantities',(#304,#305,#306));
#302=IFCOWNERHISTORY(#3,#4,.READWRITE.,.ADDED.,1789705213,#3,#4,1789705213);
#303=IFCRELDEFINESBYPROPERTIES('0Yv9ELbab8PRXAetBAk9ZQ',#302,$,$,(#277),#301);
#304=IFCQUANTITYAREA('GrossFloorArea',$,$,84.700000000000003,$);
#305=IFCQUANTITYVOLUME('GrossVolume',$,$,254.09999999999999,$);
#306=IFCQUANTITYLENGTH('Height',$,$,3.,$);
#307=IFCOWNERHISTORY(#3,#4,.READWRITE.,.MODIFIED.,1789705213,#3,#4,1789705213);
#308=IFCSPACE('03IrzbzV99vBtp0E5fv3wq',#307,'02-WA',$,$,#315,#332,'Wohnung A',$,.GFA.,$);
#309=IFCOWNERHISTORY(#3,#4,.READWRITE.,.MODIFIED.,1789705213,#3,#4,1789705213);
#310=IFCRELAGGREGATES('31qeRTBR92XA62$eFSk1Ai',#309,$,$,#59,(#370,#308,#341));
#311=IFCCARTESIANPOINT((0.,0.,0.));
#312=IFCDIRECTION((0.,0.,1.));
#313=IFCDIRECTION((1.,0.,0.));
#314=IFCAXIS2PLACEMENT3D(#311,#312,#313);
#315=IFCLOCALPLACEMENT(#64,#314);
#316=IFCCARTESIANPOINT((0.,0.,0.));
#317=IFCCARTESIANPOINT((9.1000000000000014,0.,0.));
#318=IFCCARTESIANPOINT((9.1000000000000014,4.,0.));
#319=IFCCARTESIANPOINT((6.9000000000000004,4.,0.));
#320=IFCCARTESIANPOINT((6.9000000000000004,11.,0.));
#321=IFCCARTESIANPOINT((0.,11.,0.));
#322=IFCCARTESIANPOINT((0.,0.,0.));
#323=IFCPOLYLINE((#316,#317,#318,#319,#320,#321,#322));
#324=IFCARBITRARYCLOSEDPROFILEDEF(.AREA.,$,#323);
#325=IFCCARTESIANPOINT((0.,0.,0.));
#326=IFCDIRECTION((0.,0.,1.));
#327=IFCDIRECTION((1.,0.,0.));
#328=IFCAXIS2PLACEMENT3D(#325,#326,#327);
#329=IFCDIRECTION((0.,0.,1.));
#330=IFCEXTRUDEDAREASOLID(#324,#328,#329,3.);
#331=IFCSHAPEREPRESENTATION(#16,'Body','SweptSolid',(#330));
#332=IFCPRODUCTDEFINITIONSHAPE($,$,(#331));
#333=IFCOWNERHISTORY(#3,#4,.READWRITE.,.ADDED.,1789705213,#3,#4,1789705213);
#334=IFCELEMENTQUANTITY('1ZhVcfFk15ygaekWSErhat',#333,'Qto_SpaceBaseQuantities',$,'BaseQuantities',(#337,#338,#339));
#335=IFCOWNERHISTORY(#3,#4,.READWRITE.,.ADDED.,1789705213,#3,#4,1789705213);
#336=IFCRELDEFINESBYPROPERTIES('2mQvNzGmLD_BroZBDkuhAh',#335,$,$,(#308),#334);
#337=IFCQUANTITYAREA('GrossFloorArea',$,$,84.700000000000003,$);
#338=IFCQUANTITYVOLUME('GrossVolume',$,$,254.09999999999999,$);
#339=IFCQUANTITYLENGTH('Height',$,$,3.,$);
#340=IFCOWNERHISTORY(#3,#4,.READWRITE.,.MODIFIED.,1789705213,#3,#4,1789705213);
#341=IFCSPACE('3xsfXg2TT0wRnO0QJdhQh5',#340,'02-TR',$,$,#346,#361,'Treppe',$,.GFA.,$);
#342=IFCCARTESIANPOINT((0.,0.,0.));
#343=IFCDIRECTION((0.,0.,1.));
#344=IFCDIRECTION((1.,0.,0.));
#345=IFCAXIS2PLACEMENT3D(#342,#343,#344);
#346=IFCLOCALPLACEMENT(#64,#345);
#347=IFCCARTESIANPOINT((6.9000000000000004,4.,0.));
#348=IFCCARTESIANPOINT((9.1000000000000014,4.,0.));
#349=IFCCARTESIANPOINT((9.1000000000000014,7.,0.));
#350=IFCCARTESIANPOINT((6.9000000000000004,7.,0.));
#351=IFCCARTESIANPOINT((6.9000000000000004,4.,0.));
#352=IFCPOLYLINE((#347,#348,#349,#350,#351));
#353=IFCARBITRARYCLOSEDPROFILEDEF(.AREA.,$,#352);
#354=IFCCARTESIANPOINT((0.,0.,0.));
#355=IFCDIRECTION((0.,0.,1.));
#356=IFCDIRECTION((1.,0.,0.));
#357=IFCAXIS2PLACEMENT3D(#354,#355,#356);
#358=IFCDIRECTION((0.,0.,1.));
#359=IFCEXTRUDEDAREASOLID(#353,#357,#358,3.);
#360=IFCSHAPEREPRESENTATION(#16,'Body','SweptSolid',(#359));
#361=IFCPRODUCTDEFINITIONSHAPE($,$,(#360));
#362=IFCOWNERHISTORY(#3,#4,.READWRITE.,.ADDED.,1789705213,#3,#4,1789705213);
#363=IFCELEMENTQUANTITY('17IXdc24X4HxcQZEflS9HA',#362,'Qto_SpaceBaseQuantities',$,'BaseQuantities',(#366,#367,#368));
#364=IFCOWNERHISTORY(#3,#4,.READWRITE.,.ADDED.,1789705213,#3,#4,1789705213);
#365=IFCRELDEFINESBYPROPERTIES('1Y77c$A7z4RhRqadXHYVUu',#364,$,$,(#341),#363);
#366=IFCQUANTITYAREA('GrossFloorArea',$,$,6.5999999999999996,$);
#367=IFCQUANTITYVOLUME('GrossVolume',$,$,19.800000000000001,$);
#368=IFCQUANTITYLENGTH('Height',$,$,3.,$);
#369=IFCOWNERHISTORY(#3,#4,.READWRITE.,.MODIFIED.,1789705213,#3,#4,1789705213);
#370=IFCSPACE('1636uc3XL5mOcPxBiyzwED',#369,'02-WB',$,$,#375,#392,'Wohnung B',$,.GFA.,$);
#371=IFCCARTESIANPOINT((0.,0.,0.));
#372=IFCDIRECTION((0.,0.,1.));
#373=IFCDIRECTION((1.,0.,0.));
#374=IFCAXIS2PLACEMENT3D(#371,#372,#373);
#375=IFCLOCALPLACEMENT(#64,#374);
#376=IFCCARTESIANPOINT((9.1000000000000014,0.,0.));
#377=IFCCARTESIANPOINT((16.,0.,0.));
#378=IFCCARTESIANPOINT((16.,11.,0.));
#379=IFCCARTESIANPOINT((6.9000000000000004,11.,0.));
#380=IFCCARTESIANPOINT((6.9000000000000004,7.,0.));
#381=IFCCARTESIANPOINT((9.1000000000000014,7.,0.));
#382=IFCCARTESIANPOINT((9.1000000000000014,0.,0.));
#383=IFCPOLYLINE((#376,#377,#378,#379,#380,#381,#382));
#384=IFCARBITRARYCLOSEDPROFILEDEF(.AREA.,$,#383);
#385=IFCCARTESIANPOINT((0.,0.,0.));
#386=IFCDIRECTION((0.,0.,1.));
#387=IFCDIRECTION((1.,0.,0.));
#388=IFCAXIS2PLACEMENT3D(#385,#386,#387);
#389=IFCDIRECTION((0.,0.,1.));
#390=IFCEXTRUDEDAREASOLID(#384,#388,#389,3.);
#391=IFCSHAPEREPRESENTATION(#16,'Body','SweptSolid',(#390));
#392=IFCPRODUCTDEFINITIONSHAPE($,$,(#391));
#393=IFCOWNERHISTORY(#3,#4,.READWRITE.,.ADDED.,1789705213,#3,#4,1789705213);
#394=IFCELEMENTQUANTITY('1ac0JMYdH8Fhj$9_5H59Eq',#393,'Qto_SpaceBaseQuantities',$,'BaseQuantities',(#397,#398,#399));
#395=IFCOWNERHISTORY(#3,#4,.READWRITE.,.ADDED.,1789705213,#3,#4,1789705213);
#396=IFCRELDEFINESBYPROPERTIES('0bIquCYK141fn1R7aeTo7c',#395,$,$,(#370),#394);
#397=IFCQUANTITYAREA('GrossFloorArea',$,$,84.700000000000003,$);
#398=IFCQUANTITYVOLUME('GrossVolume',$,$,254.09999999999999,$);
#399=IFCQUANTITYLENGTH('Height',$,$,3.,$);
ENDSEC;
END-ISO-10303-21;
