ISO-10303-21;
HEADER;
FILE_DESCRIPTION(('ViewDefinition[DesignTransferView]'),'2;1');
FILE_NAME('/dev/null','2026-09-13T15:44:54+02:00',(''),(''),'IfcOpenShell 0.8.5','IfcOpenShell 0.8.5','Nobody');
FILE_SCHEMA(('IFC4'));
ENDSEC;
DATA;
#1=IFCPERSON('catalog-pipeline','Pipeline','Catalog',$,$,$,$,$);
#2=IFCORGANIZATION('pragmaticBIM','pragmaticBIM',$,$,$);
#3=IFCPERSONANDORGANIZATION(#1,#2,$);
#4=IFCAPPLICATION(#2,'0.1.0','Catalog IFC Pipeline','catalog-ifc-pipeline');
#5=IFCOWNERHISTORY(#3,#4,.READWRITE.,.ADDED.,1789307094,#3,#4,1789307094);
#6=IFCPROJECT('0rvTgWkLL9VvJSaZwVKmUe',#5,'Catalog \X2\2014\X0\ space-vorsatzschale-01',$,$,$,$,(#15),#10);
#7=IFCSIUNIT(*,.LENGTHUNIT.,$,.METRE.);
#8=IFCSIUNIT(*,.AREAUNIT.,$,.SQUARE_METRE.);
#9=IFCSIUNIT(*,.VOLUMEUNIT.,$,.CUBIC_METRE.);
#10=IFCUNITASSIGNMENT((#7,#8,#9));
#11=IFCCARTESIANPOINT((0.,0.,0.));
#12=IFCDIRECTION((0.,0.,1.));
#13=IFCDIRECTION((1.,0.,0.));
#14=IFCAXIS2PLACEMENT3D(#11,#12,#13);
#15=IFCGEOMETRICREPRESENTATIONCONTEXT($,'Model',3,1.0000000000000001E-05,#14,$);
#16=IFCGEOMETRICREPRESENTATIONSUBCONTEXT('Body','Model',*,*,*,*,#15,$,.MODEL_VIEW.,$);
#17=IFCOWNERHISTORY(#3,#4,.READWRITE.,.MODIFIED.,1789307094,#3,#4,1789307094);
#18=IFCSITE('0XpE1j91P2vOqXC1jqEmIq',#17,'Site',$,$,#29,$,$,$,$,$,$,$,$);
#19=IFCOWNERHISTORY(#3,#4,.READWRITE.,.MODIFIED.,1789307094,#3,#4,1789307094);
#20=IFCBUILDING('2TCotvmeD5UfeWxlALWSo5',#19,'Building',$,$,#34,$,$,$,$,$,$);
#21=IFCOWNERHISTORY(#3,#4,.READWRITE.,.ADDED.,1789307094,#3,#4,1789307094);
#22=IFCRELAGGREGATES('3C7EZbifP4pOCNr2Z_o05G',#21,$,$,#6,(#18));
#23=IFCOWNERHISTORY(#3,#4,.READWRITE.,.ADDED.,1789307094,#3,#4,1789307094);
#24=IFCRELAGGREGATES('22ey1CGBnApPRlTASPLRXV',#23,$,$,#18,(#20));
#25=IFCCARTESIANPOINT((0.,0.,0.));
#26=IFCDIRECTION((0.,0.,1.));
#27=IFCDIRECTION((1.,0.,0.));
#28=IFCAXIS2PLACEMENT3D(#25,#26,#27);
#29=IFCLOCALPLACEMENT($,#28);
#30=IFCCARTESIANPOINT((0.,0.,0.));
#31=IFCDIRECTION((0.,0.,1.));
#32=IFCDIRECTION((1.,0.,0.));
#33=IFCAXIS2PLACEMENT3D(#30,#31,#32);
#34=IFCLOCALPLACEMENT(#29,#33);
#35=IFCOWNERHISTORY(#3,#4,.READWRITE.,.MODIFIED.,1789307094,#3,#4,1789307094);
#36=IFCBUILDINGSTOREY('3v$BdlL7TD2uwH70QqVmhx',#35,'Level 0',$,$,#43,$,$,$,0.);
#37=IFCOWNERHISTORY(#3,#4,.READWRITE.,.ADDED.,1789307094,#3,#4,1789307094);
#38=IFCRELAGGREGATES('3$esBFDcf5G9nJWqUp44mS',#37,$,$,#20,(#36));
#39=IFCCARTESIANPOINT((0.,0.,0.));
#40=IFCDIRECTION((0.,0.,1.));
#41=IFCDIRECTION((1.,0.,0.));
#42=IFCAXIS2PLACEMENT3D(#39,#40,#41);
#43=IFCLOCALPLACEMENT(#34,#42);
#44=IFCOWNERHISTORY(#3,#4,.READWRITE.,.MODIFIED.,1789307094,#3,#4,1789307094);
#45=IFCSPACE('0caZjxixD7xP_EcduYvs$H',#44,'VS-01',$,'Vorsatzschale',#52,#67,$,$,.USERDEFINED.,$);
#46=IFCOWNERHISTORY(#3,#4,.READWRITE.,.ADDED.,1789307094,#3,#4,1789307094);
#47=IFCRELAGGREGATES('3$p0uaQArCkwgIZnaxuaAn',#46,$,$,#36,(#45));
#48=IFCCARTESIANPOINT((0.,0.,0.));
#49=IFCDIRECTION((0.,0.,1.));
#50=IFCDIRECTION((1.,0.,0.));
#51=IFCAXIS2PLACEMENT3D(#48,#49,#50);
#52=IFCLOCALPLACEMENT(#43,#51);
#53=IFCCARTESIANPOINT((0.,0.20000000000000001,0.));
#54=IFCCARTESIANPOINT((2.2000000000000002,0.20000000000000001,0.));
#55=IFCCARTESIANPOINT((2.2000000000000002,0.40000000000000002,0.));
#56=IFCCARTESIANPOINT((0.,0.40000000000000002,0.));
#57=IFCCARTESIANPOINT((0.,0.20000000000000001,0.));
#58=IFCPOLYLINE((#53,#54,#55,#56,#57));
#59=IFCARBITRARYCLOSEDPROFILEDEF(.AREA.,$,#58);
#60=IFCCARTESIANPOINT((0.,0.,0.));
#61=IFCDIRECTION((0.,0.,1.));
#62=IFCDIRECTION((1.,0.,0.));
#63=IFCAXIS2PLACEMENT3D(#60,#61,#62);
#64=IFCDIRECTION((0.,0.,1.));
#65=IFCEXTRUDEDAREASOLID(#59,#63,#64,2.5);
#66=IFCSHAPEREPRESENTATION(#16,'Body','SweptSolid',(#65));
#67=IFCPRODUCTDEFINITIONSHAPE($,$,(#66));
#68=IFCOWNERHISTORY(#3,#4,.READWRITE.,.ADDED.,1789307094,#3,#4,1789307094);
#69=IFCELEMENTQUANTITY('0neeNV1Gz32hBKtOZURIUK',#68,'Qto_SpaceBaseQuantities',$,'BaseQuantities',(#72,#73,#74,#75));
#70=IFCOWNERHISTORY(#3,#4,.READWRITE.,.ADDED.,1789307094,#3,#4,1789307094);
#71=IFCRELDEFINESBYPROPERTIES('2lBGAWdq11yAa3J1M_jW5B',#70,$,$,(#45),#69);
#72=IFCQUANTITYAREA('NetFloorArea',$,$,0.44,$);
#73=IFCQUANTITYLENGTH('Height',$,$,2.5,$);
#74=IFCQUANTITYAREA('GrossFloorArea',$,$,0.44,$);
#75=IFCQUANTITYVOLUME('GrossVolume',$,$,1.1000000000000001,$);
#76=IFCOWNERHISTORY(#3,#4,.READWRITE.,.MODIFIED.,1789307094,#3,#4,1789307094);
#77=IFCSLAB('0rY8NIY810ZA2Pmb9klhS$',#76,'Bad-Bodenplatte',$,$,#84,#99,$,.FLOOR.);
#78=IFCOWNERHISTORY(#3,#4,.READWRITE.,.MODIFIED.,1789307094,#3,#4,1789307094);
#79=IFCRELCONTAINEDINSPATIALSTRUCTURE('2XeGem3Cn8Eu0swRAWeNZz',#78,$,$,(#101,#123,#145,#167,#189,#77),#36);
#80=IFCCARTESIANPOINT((0.,0.,-0.29999999999999999));
#81=IFCDIRECTION((0.,0.,1.));
#82=IFCDIRECTION((1.,0.,0.));
#83=IFCAXIS2PLACEMENT3D(#80,#81,#82);
#84=IFCLOCALPLACEMENT(#43,#83);
#85=IFCCARTESIANPOINT((0.,0.,0.));
#86=IFCCARTESIANPOINT((2.2000000000000002,0.,0.));
#87=IFCCARTESIANPOINT((2.2000000000000002,1.6699999999999999,0.));
#88=IFCCARTESIANPOINT((0.,1.6699999999999999,0.));
#89=IFCCARTESIANPOINT((0.,0.,0.));
#90=IFCPOLYLINE((#85,#86,#87,#88,#89));
#91=IFCARBITRARYCLOSEDPROFILEDEF(.AREA.,$,#90);
#92=IFCCARTESIANPOINT((0.,0.,0.));
#93=IFCDIRECTION((0.,0.,1.));
#94=IFCDIRECTION((1.,0.,0.));
#95=IFCAXIS2PLACEMENT3D(#92,#93,#94);
#96=IFCDIRECTION((0.,0.,1.));
#97=IFCEXTRUDEDAREASOLID(#91,#95,#96,0.29999999999999999);
#98=IFCSHAPEREPRESENTATION(#16,'Body','SweptSolid',(#97));
#99=IFCPRODUCTDEFINITIONSHAPE($,$,(#98));
#100=IFCOWNERHISTORY(#3,#4,.READWRITE.,.MODIFIED.,1789307094,#3,#4,1789307094);
#101=IFCWALL('327ZYBd6L4Dvq$LcrDB4lf',#100,'Tragwand',$,$,#106,#121,$,.SOLIDWALL.);
#102=IFCCARTESIANPOINT((0.,0.,0.));
#103=IFCDIRECTION((0.,0.,1.));
#104=IFCDIRECTION((1.,0.,0.));
#105=IFCAXIS2PLACEMENT3D(#102,#103,#104);
#106=IFCLOCALPLACEMENT(#43,#105);
#107=IFCCARTESIANPOINT((0.,0.,0.));
#108=IFCCARTESIANPOINT((2.2000000000000002,0.,0.));
#109=IFCCARTESIANPOINT((2.2000000000000002,0.20000000000000001,0.));
#110=IFCCARTESIANPOINT((0.,0.20000000000000001,0.));
#111=IFCCARTESIANPOINT((0.,0.,0.));
#112=IFCPOLYLINE((#107,#108,#109,#110,#111));
#113=IFCARBITRARYCLOSEDPROFILEDEF(.AREA.,$,#112);
#114=IFCCARTESIANPOINT((0.,0.,0.));
#115=IFCDIRECTION((0.,0.,1.));
#116=IFCDIRECTION((1.,0.,0.));
#117=IFCAXIS2PLACEMENT3D(#114,#115,#116);
#118=IFCDIRECTION((0.,0.,1.));
#119=IFCEXTRUDEDAREASOLID(#113,#117,#118,2.5);
#120=IFCSHAPEREPRESENTATION(#16,'Body','SweptSolid',(#119));
#121=IFCPRODUCTDEFINITIONSHAPE($,$,(#120));
#122=IFCOWNERHISTORY(#3,#4,.READWRITE.,.MODIFIED.,1789307094,#3,#4,1789307094);
#123=IFCWALL('1pz3QT_Nr64QbkX5fVVvQD',#122,'Vorsatzschale-Bekleidung',$,$,#128,#143,$,.PARTITIONING.);
#124=IFCCARTESIANPOINT((0.,0.40000000000000002,0.));
#125=IFCDIRECTION((0.,0.,1.));
#126=IFCDIRECTION((1.,0.,0.));
#127=IFCAXIS2PLACEMENT3D(#124,#125,#126);
#128=IFCLOCALPLACEMENT(#43,#127);
#129=IFCCARTESIANPOINT((0.,0.,0.));
#130=IFCCARTESIANPOINT((2.2000000000000002,0.,0.));
#131=IFCCARTESIANPOINT((2.2000000000000002,0.070000000000000007,0.));
#132=IFCCARTESIANPOINT((0.,0.070000000000000007,0.));
#133=IFCCARTESIANPOINT((0.,0.,0.));
#134=IFCPOLYLINE((#129,#130,#131,#132,#133));
#135=IFCARBITRARYCLOSEDPROFILEDEF(.AREA.,$,#134);
#136=IFCCARTESIANPOINT((0.,0.,0.));
#137=IFCDIRECTION((0.,0.,1.));
#138=IFCDIRECTION((1.,0.,0.));
#139=IFCAXIS2PLACEMENT3D(#136,#137,#138);
#140=IFCDIRECTION((0.,0.,1.));
#141=IFCEXTRUDEDAREASOLID(#135,#139,#140,2.5);
#142=IFCSHAPEREPRESENTATION(#16,'Body','SweptSolid',(#141));
#143=IFCPRODUCTDEFINITIONSHAPE($,$,(#142));
#144=IFCOWNERHISTORY(#3,#4,.READWRITE.,.MODIFIED.,1789307094,#3,#4,1789307094);
#145=IFCBUILDINGELEMENTPROXY('1yKu5ZWwb7Re$ILyvEtdje',#144,'WC-Spuelkasten',$,'Toilet',#150,#165,$,.USERDEFINED.);
#146=IFCCARTESIANPOINT((0.,0.,0.));
#147=IFCDIRECTION((0.,0.,1.));
#148=IFCDIRECTION((1.,0.,0.));
#149=IFCAXIS2PLACEMENT3D(#146,#147,#148);
#150=IFCLOCALPLACEMENT(#43,#149);
#151=IFCCARTESIANPOINT((0.85000000000000009,0.47000000000000003,0.));
#152=IFCCARTESIANPOINT((1.3500000000000001,0.47000000000000003,0.));
#153=IFCCARTESIANPOINT((1.3500000000000001,0.63,0.));
#154=IFCCARTESIANPOINT((0.85000000000000009,0.63,0.));
#155=IFCCARTESIANPOINT((0.85000000000000009,0.47000000000000003,0.));
#156=IFCPOLYLINE((#151,#152,#153,#154,#155));
#157=IFCARBITRARYCLOSEDPROFILEDEF(.AREA.,$,#156);
#158=IFCCARTESIANPOINT((0.,0.,0.));
#159=IFCDIRECTION((0.,0.,1.));
#160=IFCDIRECTION((1.,0.,0.));
#161=IFCAXIS2PLACEMENT3D(#158,#159,#160);
#162=IFCDIRECTION((0.,0.,1.));
#163=IFCEXTRUDEDAREASOLID(#157,#161,#162,0.84999999999999998);
#164=IFCSHAPEREPRESENTATION(#16,'Body','SweptSolid',(#163));
#165=IFCPRODUCTDEFINITIONSHAPE($,$,(#164));
#166=IFCOWNERHISTORY(#3,#4,.READWRITE.,.MODIFIED.,1789307094,#3,#4,1789307094);
#167=IFCBUILDINGELEMENTPROXY('20VjJLMG90IBbw4oYAXh55',#166,'WC-Schuessel',$,'Toilet',#172,#187,$,.USERDEFINED.);
#168=IFCCARTESIANPOINT((0.,0.,0.));
#169=IFCDIRECTION((0.,0.,1.));
#170=IFCDIRECTION((1.,0.,0.));
#171=IFCAXIS2PLACEMENT3D(#168,#169,#170);
#172=IFCLOCALPLACEMENT(#43,#171);
#173=IFCCARTESIANPOINT((0.92000000000000015,0.63,0.));
#174=IFCCARTESIANPOINT((1.28,0.63,0.));
#175=IFCCARTESIANPOINT((1.28,1.1499999999999999,0.));
#176=IFCCARTESIANPOINT((0.92000000000000015,1.1499999999999999,0.));
#177=IFCCARTESIANPOINT((0.92000000000000015,0.63,0.));
#178=IFCPOLYLINE((#173,#174,#175,#176,#177));
#179=IFCARBITRARYCLOSEDPROFILEDEF(.AREA.,$,#178);
#180=IFCCARTESIANPOINT((0.,0.,0.));
#181=IFCDIRECTION((0.,0.,1.));
#182=IFCDIRECTION((1.,0.,0.));
#183=IFCAXIS2PLACEMENT3D(#180,#181,#182);
#184=IFCDIRECTION((0.,0.,1.));
#185=IFCEXTRUDEDAREASOLID(#179,#183,#184,0.40000000000000002);
#186=IFCSHAPEREPRESENTATION(#16,'Body','SweptSolid',(#185));
#187=IFCPRODUCTDEFINITIONSHAPE($,$,(#186));
#188=IFCOWNERHISTORY(#3,#4,.READWRITE.,.MODIFIED.,1789307094,#3,#4,1789307094);
#189=IFCBUILDINGELEMENTPROXY('2K4PmTiL18Xud48hHH1fb2',#188,'WC-Sitz',$,'Toilet',#194,#209,$,.USERDEFINED.);
#190=IFCCARTESIANPOINT((0.,0.,0.40000000000000002));
#191=IFCDIRECTION((0.,0.,1.));
#192=IFCDIRECTION((1.,0.,0.));
#193=IFCAXIS2PLACEMENT3D(#190,#191,#192);
#194=IFCLOCALPLACEMENT(#43,#193);
#195=IFCCARTESIANPOINT((0.92000000000000015,0.63,0.));
#196=IFCCARTESIANPOINT((1.28,0.63,0.));
#197=IFCCARTESIANPOINT((1.28,1.1099999999999999,0.));
#198=IFCCARTESIANPOINT((0.92000000000000015,1.1099999999999999,0.));
#199=IFCCARTESIANPOINT((0.92000000000000015,0.63,0.));
#200=IFCPOLYLINE((#195,#196,#197,#198,#199));
#201=IFCARBITRARYCLOSEDPROFILEDEF(.AREA.,$,#200);
#202=IFCCARTESIANPOINT((0.,0.,0.));
#203=IFCDIRECTION((0.,0.,1.));
#204=IFCDIRECTION((1.,0.,0.));
#205=IFCAXIS2PLACEMENT3D(#202,#203,#204);
#206=IFCDIRECTION((0.,0.,1.));
#207=IFCEXTRUDEDAREASOLID(#201,#205,#206,0.050000000000000003);
#208=IFCSHAPEREPRESENTATION(#16,'Body','SweptSolid',(#207));
#209=IFCPRODUCTDEFINITIONSHAPE($,$,(#208));
ENDSEC;
END-ISO-10303-21;
