ISO-10303-21;
HEADER;
FILE_DESCRIPTION(('ViewDefinition[DesignTransferView]'),'2;1');
FILE_NAME('/dev/null','2026-09-13T15:44:52+02:00',(''),(''),'IfcOpenShell 0.8.5','IfcOpenShell 0.8.5','Nobody');
FILE_SCHEMA(('IFC4'));
ENDSEC;
DATA;
#1=IFCPERSON('catalog-pipeline','Pipeline','Catalog',$,$,$,$,$);
#2=IFCORGANIZATION('pragmaticBIM','pragmaticBIM',$,$,$);
#3=IFCPERSONANDORGANIZATION(#1,#2,$);
#4=IFCAPPLICATION(#2,'0.1.0','Catalog IFC Pipeline','catalog-ifc-pipeline');
#5=IFCOWNERHISTORY(#3,#4,.READWRITE.,.ADDED.,1789307092,#3,#4,1789307092);
#6=IFCPROJECT('2V$fLdg4L2$Qbi_wGqdFWW',#5,'Catalog \X2\2014\X0\ 201',$,$,$,$,(#15),#10);
#7=IFCSIUNIT(*,.LENGTHUNIT.,$,.METRE.);
#8=IFCSIUNIT(*,.AREAUNIT.,$,.SQUARE_METRE.);
#9=IFCSIUNIT(*,.VOLUMEUNIT.,$,.CUBIC_METRE.);
#10=IFCUNITASSIGNMENT((#9,#7,#8));
#11=IFCCARTESIANPOINT((0.,0.,0.));
#12=IFCDIRECTION((0.,0.,1.));
#13=IFCDIRECTION((1.,0.,0.));
#14=IFCAXIS2PLACEMENT3D(#11,#12,#13);
#15=IFCGEOMETRICREPRESENTATIONCONTEXT($,'Model',3,1.0000000000000001E-05,#14,$);
#16=IFCGEOMETRICREPRESENTATIONSUBCONTEXT('Body','Model',*,*,*,*,#15,$,.MODEL_VIEW.,$);
#17=IFCOWNERHISTORY(#3,#4,.READWRITE.,.MODIFIED.,1789307092,#3,#4,1789307092);
#18=IFCSITE('2i_kRCM_X3JOXtrVd4et9D',#17,'Site',$,$,#29,$,$,$,$,$,$,$,$);
#19=IFCOWNERHISTORY(#3,#4,.READWRITE.,.MODIFIED.,1789307092,#3,#4,1789307092);
#20=IFCBUILDING('1Xz00gxif9$Rt1TQzqtJEd',#19,'Building',$,$,#34,$,$,$,$,$,$);
#21=IFCOWNERHISTORY(#3,#4,.READWRITE.,.ADDED.,1789307092,#3,#4,1789307092);
#22=IFCRELAGGREGATES('1uTNujMHz5whwvcehA6Dza',#21,$,$,#6,(#18));
#23=IFCOWNERHISTORY(#3,#4,.READWRITE.,.ADDED.,1789307092,#3,#4,1789307092);
#24=IFCRELAGGREGATES('0w4qf6c0b6NeXFdGZHfOOm',#23,$,$,#18,(#20));
#25=IFCCARTESIANPOINT((0.,0.,0.));
#26=IFCDIRECTION((0.,0.,1.));
#27=IFCDIRECTION((1.,0.,0.));
#28=IFCAXIS2PLACEMENT3D(#25,#26,#27);
#29=IFCLOCALPLACEMENT($,#28);
#30=IFCCARTESIANPOINT((0.,0.,0.));
#31=IFCDIRECTION((0.,0.,1.));
#32=IFCDIRECTION((1.,0.,0.));
#33=IFCAXIS2PLACEMENT3D(#30,#31,#32);
#34=IFCLOCALPLACEMENT(#29,#33);
#35=IFCOWNERHISTORY(#3,#4,.READWRITE.,.MODIFIED.,1789307092,#3,#4,1789307092);
#36=IFCBUILDINGSTOREY('3CFhunOj16M8ErbUZ8bn7f',#35,'Level 0',$,$,#43,$,$,$,0.);
#37=IFCOWNERHISTORY(#3,#4,.READWRITE.,.ADDED.,1789307092,#3,#4,1789307092);
#38=IFCRELAGGREGATES('0lEBfa2oPEqO5wE7PYXA8R',#37,$,$,#20,(#36));
#39=IFCCARTESIANPOINT((0.,0.,0.));
#40=IFCDIRECTION((0.,0.,1.));
#41=IFCDIRECTION((1.,0.,0.));
#42=IFCAXIS2PLACEMENT3D(#39,#40,#41);
#43=IFCLOCALPLACEMENT(#34,#42);
#44=IFCOWNERHISTORY(#3,#4,.READWRITE.,.MODIFIED.,1789307092,#3,#4,1789307092);
#45=IFCSPACE('0uIigirCD2JQrMI04SLRHU',#44,'201',$,$,#98,#67,'Balkon',$,.EXTERNAL.,$);
#46=IFCOWNERHISTORY(#3,#4,.READWRITE.,.MODIFIED.,1789307092,#3,#4,1789307092);
#47=IFCRELAGGREGATES('0YYY_5Ubz44PJHzIA21PPl',#46,$,$,#36,(#45,#602));
#53=IFCCARTESIANPOINT((2.4199999999999995,0.,0.));
#54=IFCCARTESIANPOINT((3.9199999999999995,0.,0.));
#55=IFCCARTESIANPOINT((3.9199999999999995,5.,0.));
#56=IFCCARTESIANPOINT((2.4199999999999995,5.,0.));
#57=IFCCARTESIANPOINT((2.4199999999999995,0.,0.));
#58=IFCPOLYLINE((#53,#54,#55,#56,#57));
#59=IFCARBITRARYCLOSEDPROFILEDEF(.AREA.,$,#58);
#60=IFCCARTESIANPOINT((0.,0.,0.));
#61=IFCDIRECTION((0.,0.,1.));
#62=IFCDIRECTION((1.,0.,0.));
#63=IFCAXIS2PLACEMENT3D(#60,#61,#62);
#64=IFCDIRECTION((0.,0.,1.));
#65=IFCEXTRUDEDAREASOLID(#59,#63,#64,1.);
#66=IFCSHAPEREPRESENTATION(#16,'Body','SweptSolid',(#65));
#67=IFCPRODUCTDEFINITIONSHAPE($,$,(#66));
#68=IFCOWNERHISTORY(#3,#4,.READWRITE.,.ADDED.,1789307092,#3,#4,1789307092);
#69=IFCELEMENTQUANTITY('3hBBMUtGL1FgkQWGb5980_',#68,'Qto_SpaceBaseQuantities',$,'BaseQuantities',(#72,#73,#74,#75));
#70=IFCOWNERHISTORY(#3,#4,.READWRITE.,.ADDED.,1789307092,#3,#4,1789307092);
#71=IFCRELDEFINESBYPROPERTIES('2XgL2zx4PFJxWWWPI_69RW',#70,$,$,(#45),#69);
#72=IFCQUANTITYAREA('NetFloorArea',$,$,7.5,$);
#73=IFCQUANTITYLENGTH('Height',$,$,1.,$);
#74=IFCQUANTITYAREA('GrossFloorArea',$,$,7.5,$);
#75=IFCQUANTITYVOLUME('GrossVolume',$,$,7.5,$);
#76=IFCOWNERHISTORY(#3,#4,.READWRITE.,.ADDED.,1789307092,#3,#4,1789307092);
#77=IFCPROPERTYSET('0p9bnfX3z4phHB7DJUxPrq',#76,'ePset_Space',$,(#80));
#78=IFCOWNERHISTORY(#3,#4,.READWRITE.,.ADDED.,1789307092,#3,#4,1789307092);
#79=IFCRELDEFINESBYPROPERTIES('25E5TRxqH0whYVdAJX0ycp',#78,$,$,(#45),#77);
#80=IFCPROPERTYSINGLEVALUE('SignageRoomNumber',$,IFCIDENTIFIER('201'),$);
#81=IFCOWNERHISTORY(#3,#4,.READWRITE.,.ADDED.,1789307092,#3,#4,1789307092);
#82=IFCPROPERTYSET('1Y4eqznlTAX8eW$TVdsusH',#81,'Pset_SpaceCommon',$,(#85,#86));
#83=IFCOWNERHISTORY(#3,#4,.READWRITE.,.ADDED.,1789307092,#3,#4,1789307092);
#84=IFCRELDEFINESBYPROPERTIES('1RI7u_R5P6PwtHOfOiLT01',#83,$,$,(#45),#82);
#85=IFCPROPERTYSINGLEVALUE('Reference',$,IFCIDENTIFIER('AGF'),$);
#86=IFCPROPERTYSINGLEVALUE('IsExternal',$,IFCBOOLEAN(.T.),$);
#87=IFCOWNERHISTORY(#3,#4,.READWRITE.,.ADDED.,1789307092,#3,#4,1789307092);
#88=IFCPROPERTYSET('255Een0Vr5cP_s$jpDhxxw',#87,'ePset_SpaceRequirement',$,(#91,#92,#93));
#89=IFCOWNERHISTORY(#3,#4,.READWRITE.,.ADDED.,1789307092,#3,#4,1789307092);
#90=IFCRELDEFINESBYPROPERTIES('3uKIsSa9TD2g_j5k9qOayv',#89,$,$,(#45),#88);
#91=IFCPROPERTYSINGLEVALUE('DesignAreaLoad',$,IFCREAL(3.),$);
#92=IFCPROPERTYSINGLEVALUE('DesignPointLoad',$,IFCREAL(2.),$);
#93=IFCPROPERTYSINGLEVALUE('VibrationRequirements',$,IFCLABEL('ISO Residential (Night)'),$);
#94=IFCCARTESIANPOINT((0.,0.,0.002));
#95=IFCDIRECTION((0.,0.,1.));
#96=IFCDIRECTION((1.,0.,0.));
#97=IFCAXIS2PLACEMENT3D(#94,#95,#96);
#98=IFCLOCALPLACEMENT(#43,#97);
#99=IFCOWNERHISTORY(#3,#4,.READWRITE.,.MODIFIED.,1789307092,#3,#4,1789307092);
#100=IFCSLAB('1KgpbCL458UghSGG4bBVSC',#99,'201-FloorSlab',$,$,#107,#122,$,.FLOOR.);
#101=IFCOWNERHISTORY(#3,#4,.READWRITE.,.MODIFIED.,1789307092,#3,#4,1789307092);
#102=IFCRELCONTAINEDINSPATIALSTRUCTURE('0U_TnHdEv1LeSA9CRqTjGt',#101,$,$,(#485,#146,#350,#591,#100,#473,#124,#168,#190,#212),#36);
#103=IFCCARTESIANPOINT((0.,0.,-0.29999999999999999));
#104=IFCDIRECTION((0.,0.,1.));
#105=IFCDIRECTION((1.,0.,0.));
#106=IFCAXIS2PLACEMENT3D(#103,#104,#105);
#107=IFCLOCALPLACEMENT(#43,#106);
#108=IFCCARTESIANPOINT((0.,0.,0.));
#109=IFCCARTESIANPOINT((2.3599999999999999,0.,0.));
#110=IFCCARTESIANPOINT((2.3599999999999999,5.,0.));
#111=IFCCARTESIANPOINT((0.,5.,0.));
#112=IFCCARTESIANPOINT((0.,0.,0.));
#113=IFCPOLYLINE((#108,#109,#110,#111,#112));
#114=IFCARBITRARYCLOSEDPROFILEDEF(.AREA.,$,#113);
#115=IFCCARTESIANPOINT((0.,0.,0.));
#116=IFCDIRECTION((0.,0.,1.));
#117=IFCDIRECTION((1.,0.,0.));
#118=IFCAXIS2PLACEMENT3D(#115,#116,#117);
#119=IFCDIRECTION((0.,0.,1.));
#120=IFCEXTRUDEDAREASOLID(#114,#118,#119,0.29999999999999999);
#121=IFCSHAPEREPRESENTATION(#16,'Body','SweptSolid',(#120));
#122=IFCPRODUCTDEFINITIONSHAPE($,$,(#121));
#123=IFCOWNERHISTORY(#3,#4,.READWRITE.,.MODIFIED.,1789307092,#3,#4,1789307092);
#124=IFCCOVERING('3fc1UZ0y15xfA8$s8SxMik',#123,'201-CeilingCovering',$,$,#129,#144,$,.CEILING.);
#125=IFCCARTESIANPOINT((0.,0.,2.6000000000000001));
#126=IFCDIRECTION((0.,0.,1.));
#127=IFCDIRECTION((1.,0.,0.));
#128=IFCAXIS2PLACEMENT3D(#125,#126,#127);
#129=IFCLOCALPLACEMENT(#43,#128);
#130=IFCCARTESIANPOINT((0.,0.,0.));
#131=IFCCARTESIANPOINT((2.,0.,0.));
#132=IFCCARTESIANPOINT((2.,5.,0.));
#133=IFCCARTESIANPOINT((0.,5.,0.));
#134=IFCCARTESIANPOINT((0.,0.,0.));
#135=IFCPOLYLINE((#130,#131,#132,#133,#134));
#136=IFCARBITRARYCLOSEDPROFILEDEF(.AREA.,$,#135);
#137=IFCCARTESIANPOINT((0.,0.,0.));
#138=IFCDIRECTION((0.,0.,1.));
#139=IFCDIRECTION((1.,0.,0.));
#140=IFCAXIS2PLACEMENT3D(#137,#138,#139);
#141=IFCDIRECTION((0.,0.,1.));
#142=IFCEXTRUDEDAREASOLID(#136,#140,#141,0.10000000000000001);
#143=IFCSHAPEREPRESENTATION(#16,'Body','SweptSolid',(#142));
#144=IFCPRODUCTDEFINITIONSHAPE($,$,(#143));
#145=IFCOWNERHISTORY(#3,#4,.READWRITE.,.MODIFIED.,1789307092,#3,#4,1789307092);
#146=IFCSLAB('2gUqx3AFL15OWQ4GCwruOU',#145,'201-CeilingSlab',$,$,#151,#166,$,.FLOOR.);
#147=IFCCARTESIANPOINT((0.,0.,2.7999999999999998));
#148=IFCDIRECTION((0.,0.,1.));
#149=IFCDIRECTION((1.,0.,0.));
#150=IFCAXIS2PLACEMENT3D(#147,#148,#149);
#151=IFCLOCALPLACEMENT(#43,#150);
#152=IFCCARTESIANPOINT((0.,0.,0.));
#153=IFCCARTESIANPOINT((2.3599999999999999,0.,0.));
#154=IFCCARTESIANPOINT((2.3599999999999999,5.,0.));
#155=IFCCARTESIANPOINT((0.,5.,0.));
#156=IFCCARTESIANPOINT((0.,0.,0.));
#157=IFCPOLYLINE((#152,#153,#154,#155,#156));
#158=IFCARBITRARYCLOSEDPROFILEDEF(.AREA.,$,#157);
#159=IFCCARTESIANPOINT((0.,0.,0.));
#160=IFCDIRECTION((0.,0.,1.));
#161=IFCDIRECTION((1.,0.,0.));
#162=IFCAXIS2PLACEMENT3D(#159,#160,#161);
#163=IFCDIRECTION((0.,0.,1.));
#164=IFCEXTRUDEDAREASOLID(#158,#162,#163,0.29999999999999999);
#165=IFCSHAPEREPRESENTATION(#16,'Body','SweptSolid',(#164));
#166=IFCPRODUCTDEFINITIONSHAPE($,$,(#165));
#167=IFCOWNERHISTORY(#3,#4,.READWRITE.,.MODIFIED.,1789307092,#3,#4,1789307092);
#168=IFCSLAB('3kgqD7xa11eBCoIWW4CI_v',#167,'201-BalconySlab',$,$,#173,#188,$,.FLOOR.);
#169=IFCCARTESIANPOINT((0.,0.,-0.29999999999999999));
#170=IFCDIRECTION((0.,0.,1.));
#171=IFCDIRECTION((1.,0.,0.));
#172=IFCAXIS2PLACEMENT3D(#169,#170,#171);
#173=IFCLOCALPLACEMENT(#43,#172);
#174=IFCCARTESIANPOINT((2.3599999999999999,0.,0.));
#175=IFCCARTESIANPOINT((3.9199999999999999,0.,0.));
#176=IFCCARTESIANPOINT((3.9199999999999999,5.,0.));
#177=IFCCARTESIANPOINT((2.3599999999999999,5.,0.));
#178=IFCCARTESIANPOINT((2.3599999999999999,0.,0.));
#179=IFCPOLYLINE((#174,#175,#176,#177,#178));
#180=IFCARBITRARYCLOSEDPROFILEDEF(.AREA.,$,#179);
#181=IFCCARTESIANPOINT((0.,0.,0.));
#182=IFCDIRECTION((0.,0.,1.));
#183=IFCDIRECTION((1.,0.,0.));
#184=IFCAXIS2PLACEMENT3D(#181,#182,#183);
#185=IFCDIRECTION((0.,0.,1.));
#186=IFCEXTRUDEDAREASOLID(#180,#184,#185,0.29999999999999999);
#187=IFCSHAPEREPRESENTATION(#16,'Body','SweptSolid',(#186));
#188=IFCPRODUCTDEFINITIONSHAPE($,$,(#187));
#189=IFCOWNERHISTORY(#3,#4,.READWRITE.,.MODIFIED.,1789307092,#3,#4,1789307092);
#190=IFCWALL('1tooKKhKDBeRpJYNcRryvx',#189,'201-ExteriorWall',$,$,#195,#210,$,.SOLIDWALL.);
#191=IFCCARTESIANPOINT((2.3599999999999999,0.,0.));
#192=IFCDIRECTION((0.,0.,1.));
#193=IFCDIRECTION((0.,1.,0.));
#194=IFCAXIS2PLACEMENT3D(#191,#192,#193);
#195=IFCLOCALPLACEMENT(#43,#194);
#196=IFCCARTESIANPOINT((0.,0.,0.));
#197=IFCCARTESIANPOINT((5.,0.,0.));
#198=IFCCARTESIANPOINT((5.,0.35999999999999999,0.));
#199=IFCCARTESIANPOINT((0.,0.35999999999999999,0.));
#200=IFCCARTESIANPOINT((0.,0.,0.));
#201=IFCPOLYLINE((#196,#197,#198,#199,#200));
#202=IFCARBITRARYCLOSEDPROFILEDEF(.AREA.,$,#201);
#203=IFCCARTESIANPOINT((0.,0.,0.));
#204=IFCDIRECTION((0.,0.,1.));
#205=IFCDIRECTION((1.,0.,0.));
#206=IFCAXIS2PLACEMENT3D(#203,#204,#205);
#207=IFCDIRECTION((0.,0.,1.));
#208=IFCEXTRUDEDAREASOLID(#202,#206,#207,2.7999999999999998);
#209=IFCSHAPEREPRESENTATION(#16,'Body','SweptSolid',(#208));
#210=IFCPRODUCTDEFINITIONSHAPE($,$,(#209));
#211=IFCOWNERHISTORY(#3,#4,.READWRITE.,.MODIFIED.,1789307092,#3,#4,1789307092);
#212=IFCCOVERING('0orIf8HZb7ae5qvJz7aH47',#211,'201-Cladding',$,$,#217,#232,$,.CLADDING.);
#213=IFCCARTESIANPOINT((2.4199999999999995,0.,0.));
#214=IFCDIRECTION((0.,0.,1.));
#215=IFCDIRECTION((0.,1.,0.));
#216=IFCAXIS2PLACEMENT3D(#213,#214,#215);
#217=IFCLOCALPLACEMENT(#43,#216);
#218=IFCCARTESIANPOINT((0.,0.,0.));
#219=IFCCARTESIANPOINT((5.,0.,0.));
#220=IFCCARTESIANPOINT((5.,0.050000000000000003,0.));
#221=IFCCARTESIANPOINT((0.,0.050000000000000003,0.));
#222=IFCCARTESIANPOINT((0.,0.,0.));
#223=IFCPOLYLINE((#218,#219,#220,#221,#222));
#224=IFCARBITRARYCLOSEDPROFILEDEF(.AREA.,$,#223);
#225=IFCCARTESIANPOINT((0.,0.,0.));
#226=IFCDIRECTION((0.,0.,1.));
#227=IFCDIRECTION((1.,0.,0.));
#228=IFCAXIS2PLACEMENT3D(#225,#226,#227);
#229=IFCDIRECTION((0.,0.,1.));
#230=IFCEXTRUDEDAREASOLID(#224,#228,#229,3.0999999999999996);
#231=IFCSHAPEREPRESENTATION(#16,'Body','SweptSolid',(#230));
#232=IFCPRODUCTDEFINITIONSHAPE($,$,(#231));
#233=IFCOWNERHISTORY(#3,#4,.READWRITE.,.MODIFIED.,1789307092,#3,#4,1789307092);
#234=IFCOPENINGELEMENT('0adGhsrgj9B9SPya3auftX',#233,'201-DoorOpening',$,$,#261,#254,$,.OPENING.);
#240=IFCCARTESIANPOINT((3.6999999999999997,-0.01,0.));
#241=IFCCARTESIANPOINT((4.5999999999999996,-0.01,0.));
#242=IFCCARTESIANPOINT((4.5999999999999996,0.38,0.));
#243=IFCCARTESIANPOINT((3.6999999999999997,0.38,0.));
#244=IFCCARTESIANPOINT((3.6999999999999997,-0.01,0.));
#245=IFCPOLYLINE((#240,#241,#242,#243,#244));
#246=IFCARBITRARYCLOSEDPROFILEDEF(.AREA.,$,#245);
#247=IFCCARTESIANPOINT((0.,0.,0.));
#248=IFCDIRECTION((0.,0.,1.));
#249=IFCDIRECTION((1.,0.,0.));
#250=IFCAXIS2PLACEMENT3D(#247,#248,#249);
#251=IFCDIRECTION((0.,0.,1.));
#252=IFCEXTRUDEDAREASOLID(#246,#250,#251,2.1000000000000001);
#253=IFCSHAPEREPRESENTATION(#16,'Body','SweptSolid',(#252));
#254=IFCPRODUCTDEFINITIONSHAPE($,$,(#253));
#255=IFCOWNERHISTORY(#3,#4,.READWRITE.,.ADDED.,1789307092,#3,#4,1789307092);
#256=IFCRELVOIDSELEMENT('2Nhb6R3t18sesdc$ZBUnQS',#255,$,$,#190,#234);
#257=IFCCARTESIANPOINT((0.,0.,0.));
#258=IFCDIRECTION((0.,0.,1.));
#259=IFCDIRECTION((1.,0.,0.));
#260=IFCAXIS2PLACEMENT3D(#257,#258,#259);
#261=IFCLOCALPLACEMENT(#195,#260);
#262=IFCOWNERHISTORY(#3,#4,.READWRITE.,.MODIFIED.,1789307092,#3,#4,1789307092);
#263=IFCOPENINGELEMENT('0ftb6$Oxf3rvta4OawOT2B',#262,'201-WindowOpening',$,$,#290,#283,$,.OPENING.);
#269=IFCCARTESIANPOINT((0.40000000000000002,-0.01,0.));
#270=IFCCARTESIANPOINT((1.6000000000000001,-0.01,0.));
#271=IFCCARTESIANPOINT((1.6000000000000001,0.38,0.));
#272=IFCCARTESIANPOINT((0.40000000000000002,0.38,0.));
#273=IFCCARTESIANPOINT((0.40000000000000002,-0.01,0.));
#274=IFCPOLYLINE((#269,#270,#271,#272,#273));
#275=IFCARBITRARYCLOSEDPROFILEDEF(.AREA.,$,#274);
#276=IFCCARTESIANPOINT((0.,0.,0.90000000000000002));
#277=IFCDIRECTION((0.,0.,1.));
#278=IFCDIRECTION((1.,0.,0.));
#279=IFCAXIS2PLACEMENT3D(#276,#277,#278);
#280=IFCDIRECTION((0.,0.,1.));
#281=IFCEXTRUDEDAREASOLID(#275,#279,#280,1.3999999999999999);
#282=IFCSHAPEREPRESENTATION(#16,'Body','SweptSolid',(#281));
#283=IFCPRODUCTDEFINITIONSHAPE($,$,(#282));
#284=IFCOWNERHISTORY(#3,#4,.READWRITE.,.ADDED.,1789307092,#3,#4,1789307092);
#285=IFCRELVOIDSELEMENT('0k2jsWCJLBjfkZr6NT9ahc',#284,$,$,#190,#263);
#286=IFCCARTESIANPOINT((0.,0.,0.));
#287=IFCDIRECTION((0.,0.,1.));
#288=IFCDIRECTION((1.,0.,0.));
#289=IFCAXIS2PLACEMENT3D(#286,#287,#288);
#290=IFCLOCALPLACEMENT(#195,#289);
#291=IFCOWNERHISTORY(#3,#4,.READWRITE.,.MODIFIED.,1789307092,#3,#4,1789307092);
#292=IFCOPENINGELEMENT('3Zatsr0WP0eA35mAIdtfQ0',#291,'201-DoorOpening-Cladding',$,$,#319,#312,$,.OPENING.);
#298=IFCCARTESIANPOINT((3.6999999999999997,-0.01,0.));
#299=IFCCARTESIANPOINT((4.5999999999999996,-0.01,0.));
#300=IFCCARTESIANPOINT((4.5999999999999996,0.070000000000000007,0.));
#301=IFCCARTESIANPOINT((3.6999999999999997,0.070000000000000007,0.));
#302=IFCCARTESIANPOINT((3.6999999999999997,-0.01,0.));
#303=IFCPOLYLINE((#298,#299,#300,#301,#302));
#304=IFCARBITRARYCLOSEDPROFILEDEF(.AREA.,$,#303);
#305=IFCCARTESIANPOINT((0.,0.,0.));
#306=IFCDIRECTION((0.,0.,1.));
#307=IFCDIRECTION((1.,0.,0.));
#308=IFCAXIS2PLACEMENT3D(#305,#306,#307);
#309=IFCDIRECTION((0.,0.,1.));
#310=IFCEXTRUDEDAREASOLID(#304,#308,#309,2.1000000000000001);
#311=IFCSHAPEREPRESENTATION(#16,'Body','SweptSolid',(#310));
#312=IFCPRODUCTDEFINITIONSHAPE($,$,(#311));
#313=IFCOWNERHISTORY(#3,#4,.READWRITE.,.ADDED.,1789307092,#3,#4,1789307092);
#314=IFCRELVOIDSELEMENT('3CeYIv9o51Hgbg3LX5$TVJ',#313,$,$,#212,#292);
#315=IFCCARTESIANPOINT((0.,0.,0.));
#316=IFCDIRECTION((0.,0.,1.));
#317=IFCDIRECTION((1.,0.,0.));
#318=IFCAXIS2PLACEMENT3D(#315,#316,#317);
#319=IFCLOCALPLACEMENT(#217,#318);
#320=IFCOWNERHISTORY(#3,#4,.READWRITE.,.MODIFIED.,1789307092,#3,#4,1789307092);
#321=IFCOPENINGELEMENT('2Jpq79ntb5iwH08OeCRsgh',#320,'201-WindowOpening-Cladding',$,$,#348,#341,$,.OPENING.);
#327=IFCCARTESIANPOINT((0.40000000000000002,-0.01,0.));
#328=IFCCARTESIANPOINT((1.6000000000000001,-0.01,0.));
#329=IFCCARTESIANPOINT((1.6000000000000001,0.070000000000000007,0.));
#330=IFCCARTESIANPOINT((0.40000000000000002,0.070000000000000007,0.));
#331=IFCCARTESIANPOINT((0.40000000000000002,-0.01,0.));
#332=IFCPOLYLINE((#327,#328,#329,#330,#331));
#333=IFCARBITRARYCLOSEDPROFILEDEF(.AREA.,$,#332);
#334=IFCCARTESIANPOINT((0.,0.,0.90000000000000002));
#335=IFCDIRECTION((0.,0.,1.));
#336=IFCDIRECTION((1.,0.,0.));
#337=IFCAXIS2PLACEMENT3D(#334,#335,#336);
#338=IFCDIRECTION((0.,0.,1.));
#339=IFCEXTRUDEDAREASOLID(#333,#337,#338,1.3999999999999999);
#340=IFCSHAPEREPRESENTATION(#16,'Body','SweptSolid',(#339));
#341=IFCPRODUCTDEFINITIONSHAPE($,$,(#340));
#342=IFCOWNERHISTORY(#3,#4,.READWRITE.,.ADDED.,1789307092,#3,#4,1789307092);
#343=IFCRELVOIDSELEMENT('1YzQmThUD71f5gruXtyKQY',#342,$,$,#212,#321);
#344=IFCCARTESIANPOINT((0.,0.,0.));
#345=IFCDIRECTION((0.,0.,1.));
#346=IFCDIRECTION((1.,0.,0.));
#347=IFCAXIS2PLACEMENT3D(#344,#345,#346);
#348=IFCLOCALPLACEMENT(#217,#347);
#349=IFCOWNERHISTORY(#3,#4,.READWRITE.,.MODIFIED.,1789307092,#3,#4,1789307092);
#350=IFCDOOR('1rqT19Agn7QeMHZxFLxHMR',#349,'201-Door',$,$,#355,#462,$,$,$,.DOOR.,$,$);
#351=IFCCARTESIANPOINT((2.3599999999999999,0.,0.));
#352=IFCDIRECTION((0.,0.,1.));
#353=IFCDIRECTION((0.,1.,0.));
#354=IFCAXIS2PLACEMENT3D(#351,#352,#353);
#355=IFCLOCALPLACEMENT(#43,#354);
#356=IFCCARTESIANPOINT((3.6999999999999997,-0.,0.));
#357=IFCCARTESIANPOINT((3.7999999999999998,-0.,0.));
#358=IFCCARTESIANPOINT((3.7999999999999998,0.19800000000000001,0.));
#359=IFCCARTESIANPOINT((3.6999999999999997,0.19800000000000001,0.));
#360=IFCCARTESIANPOINT((3.6999999999999997,-0.,0.));
#361=IFCPOLYLINE((#356,#357,#358,#359,#360));
#362=IFCARBITRARYCLOSEDPROFILEDEF(.AREA.,$,#361);
#363=IFCCARTESIANPOINT((0.,0.,0.));
#364=IFCDIRECTION((0.,0.,1.));
#365=IFCDIRECTION((1.,0.,0.));
#366=IFCAXIS2PLACEMENT3D(#363,#364,#365);
#367=IFCDIRECTION((0.,0.,1.));
#368=IFCEXTRUDEDAREASOLID(#362,#366,#367,2.1000000000000001);
#369=IFCCARTESIANPOINT((4.5,-0.,0.));
#370=IFCCARTESIANPOINT((4.5999999999999996,-0.,0.));
#371=IFCCARTESIANPOINT((4.5999999999999996,0.19800000000000001,0.));
#372=IFCCARTESIANPOINT((4.5,0.19800000000000001,0.));
#373=IFCCARTESIANPOINT((4.5,-0.,0.));
#374=IFCPOLYLINE((#369,#370,#371,#372,#373));
#375=IFCARBITRARYCLOSEDPROFILEDEF(.AREA.,$,#374);
#376=IFCCARTESIANPOINT((0.,0.,0.));
#377=IFCDIRECTION((0.,0.,1.));
#378=IFCDIRECTION((1.,0.,0.));
#379=IFCAXIS2PLACEMENT3D(#376,#377,#378);
#380=IFCDIRECTION((0.,0.,1.));
#381=IFCEXTRUDEDAREASOLID(#375,#379,#380,2.1000000000000001);
#382=IFCCARTESIANPOINT((3.7999999999999998,-0.,0.));
#383=IFCCARTESIANPOINT((4.5,-0.,0.));
#384=IFCCARTESIANPOINT((4.5,0.19800000000000001,0.));
#385=IFCCARTESIANPOINT((3.7999999999999998,0.19800000000000001,0.));
#386=IFCCARTESIANPOINT((3.7999999999999998,-0.,0.));
#387=IFCPOLYLINE((#382,#383,#384,#385,#386));
#388=IFCARBITRARYCLOSEDPROFILEDEF(.AREA.,$,#387);
#389=IFCCARTESIANPOINT((0.,0.,2.));
#390=IFCDIRECTION((0.,0.,1.));
#391=IFCDIRECTION((1.,0.,0.));
#392=IFCAXIS2PLACEMENT3D(#389,#390,#391);
#393=IFCDIRECTION((0.,0.,1.));
#394=IFCEXTRUDEDAREASOLID(#388,#392,#393,0.10000000000000009);
#395=IFCCARTESIANPOINT((3.7999999999999998,-0.,0.));
#396=IFCCARTESIANPOINT((4.5,-0.,0.));
#397=IFCCARTESIANPOINT((4.5,0.19800000000000001,0.));
#398=IFCCARTESIANPOINT((3.7999999999999998,0.19800000000000001,0.));
#399=IFCCARTESIANPOINT((3.7999999999999998,-0.,0.));
#400=IFCPOLYLINE((#395,#396,#397,#398,#399));
#401=IFCARBITRARYCLOSEDPROFILEDEF(.AREA.,$,#400);
#402=IFCCARTESIANPOINT((0.,0.,0.));
#403=IFCDIRECTION((0.,0.,1.));
#404=IFCDIRECTION((1.,0.,0.));
#405=IFCAXIS2PLACEMENT3D(#402,#403,#404);
#406=IFCDIRECTION((0.,0.,1.));
#407=IFCEXTRUDEDAREASOLID(#401,#405,#406,0.025000000000000001);
#408=IFCCARTESIANPOINT((3.7999999999999998,-0.,0.));
#409=IFCCARTESIANPOINT((4.5,-0.,0.));
#410=IFCCARTESIANPOINT((4.5,0.19800000000000001,0.));
#411=IFCCARTESIANPOINT((3.7999999999999998,0.19800000000000001,0.));
#412=IFCCARTESIANPOINT((3.7999999999999998,-0.,0.));
#413=IFCPOLYLINE((#408,#409,#410,#411,#412));
#414=IFCARBITRARYCLOSEDPROFILEDEF(.AREA.,$,#413);
#415=IFCCARTESIANPOINT((0.,0.,1.0662500000000001));
#416=IFCDIRECTION((0.,0.,1.));
#417=IFCDIRECTION((1.,0.,0.));
#418=IFCAXIS2PLACEMENT3D(#415,#416,#417);
#419=IFCDIRECTION((0.,0.,1.));
#420=IFCEXTRUDEDAREASOLID(#414,#418,#419,0.089999999999999858);
#421=IFCCARTESIANPOINT((3.7999999999999998,0.014999999999999999,0.));
#422=IFCCARTESIANPOINT((4.5,0.014999999999999999,0.));
#423=IFCCARTESIANPOINT((4.5,0.055,0.));
#424=IFCCARTESIANPOINT((3.7999999999999998,0.055,0.));
#425=IFCCARTESIANPOINT((3.7999999999999998,0.014999999999999999,0.));
#426=IFCPOLYLINE((#421,#422,#423,#424,#425));
#427=IFCARBITRARYCLOSEDPROFILEDEF(.AREA.,$,#426);
#428=IFCCARTESIANPOINT((0.,0.,0.025000000000000001));
#429=IFCDIRECTION((0.,0.,1.));
#430=IFCDIRECTION((1.,0.,0.));
#431=IFCAXIS2PLACEMENT3D(#428,#429,#430);
#432=IFCDIRECTION((0.,0.,1.));
#433=IFCEXTRUDEDAREASOLID(#427,#431,#432,1.0412500000000002);
#434=IFCCARTESIANPOINT((3.7999999999999998,0.014999999999999999,0.));
#435=IFCCARTESIANPOINT((4.5,0.014999999999999999,0.));
#436=IFCCARTESIANPOINT((4.5,0.055,0.));
#437=IFCCARTESIANPOINT((3.7999999999999998,0.055,0.));
#438=IFCCARTESIANPOINT((3.7999999999999998,0.014999999999999999,0.));
#439=IFCPOLYLINE((#434,#435,#436,#437,#438));
#440=IFCARBITRARYCLOSEDPROFILEDEF(.AREA.,$,#439);
#441=IFCCARTESIANPOINT((0.,0.,1.15625));
#442=IFCDIRECTION((0.,0.,1.));
#443=IFCDIRECTION((1.,0.,0.));
#444=IFCAXIS2PLACEMENT3D(#441,#442,#443);
#445=IFCDIRECTION((0.,0.,1.));
#446=IFCEXTRUDEDAREASOLID(#440,#444,#445,0.84375);
#447=IFCSURFACESTYLE('Frame',.BOTH.,(#448));
#448=IFCSURFACESTYLESHADING(#449,0.);
#449=IFCCOLOURRGB($,1.,1.,1.);
#450=IFCSURFACESTYLE('Glass',.BOTH.,(#451));
#451=IFCSURFACESTYLESHADING(#452,0.69999999999999996);
#452=IFCCOLOURRGB($,0.69999999999999996,0.84999999999999998,0.94999999999999996);
#453=IFCMATERIAL('Frame',$,'metal');
#454=IFCMATERIAL('Glass',$,'glass');
#455=IFCSTYLEDITEM($,(#447),'Frame');
#456=IFCSTYLEDREPRESENTATION(#16,'Body',$,(#455));
#457=IFCMATERIALDEFINITIONREPRESENTATION($,$,(#456),#453);
#458=IFCSTYLEDITEM($,(#450),'Glass');
#459=IFCSTYLEDREPRESENTATION(#16,'Body',$,(#458));
#460=IFCMATERIALDEFINITIONREPRESENTATION($,$,(#459),#454);
#461=IFCSHAPEREPRESENTATION(#16,'Body','SweptSolid',(#368,#381,#394,#407,#420,#433));
#462=IFCPRODUCTDEFINITIONSHAPE($,$,(#461));
#463=IFCSTYLEDITEM(#368,(#447),$);
#464=IFCSTYLEDITEM(#381,(#447),$);
#465=IFCSTYLEDITEM(#394,(#447),$);
#466=IFCSTYLEDITEM(#407,(#447),$);
#467=IFCSTYLEDITEM(#420,(#447),$);
#468=IFCSTYLEDITEM(#433,(#447),$);
#469=IFCOWNERHISTORY(#3,#4,.READWRITE.,.MODIFIED.,1789307092,#3,#4,1789307092);
#470=IFCRELASSOCIATESMATERIAL('1BaT$H$Zf04OEOI5SA4y5d',#469,$,$,(#485,#350),#453);
#471=IFCRELFILLSELEMENT('0MYBbwYCv2S8PKltkE0YMV',$,$,$,#234,#350);
#472=IFCOWNERHISTORY(#3,#4,.READWRITE.,.MODIFIED.,1789307092,#3,#4,1789307092);
#473=IFCPLATE('35Uc7NFwz0Ww8bOKlcVhqf',#472,'201-Door-Glass',$,'Glass',#478,#480,$,.CURTAIN_PANEL.);
#474=IFCCARTESIANPOINT((2.3599999999999999,0.,0.));
#475=IFCDIRECTION((0.,0.,1.));
#476=IFCDIRECTION((0.,1.,0.));
#477=IFCAXIS2PLACEMENT3D(#474,#475,#476);
#478=IFCLOCALPLACEMENT(#43,#477);
#479=IFCSHAPEREPRESENTATION(#16,'Body','SweptSolid',(#446));
#480=IFCPRODUCTDEFINITIONSHAPE($,$,(#479));
#481=IFCSTYLEDITEM(#446,(#450),$);
#482=IFCOWNERHISTORY(#3,#4,.READWRITE.,.MODIFIED.,1789307092,#3,#4,1789307092);
#483=IFCRELASSOCIATESMATERIAL('0uMgF$qP12ERkGY5q4LYVI',#482,$,$,(#473,#591),#454);
#484=IFCOWNERHISTORY(#3,#4,.READWRITE.,.MODIFIED.,1789307092,#3,#4,1789307092);
#485=IFCWINDOW('3bv9iA1dvE7gM652blhcRe',#484,'201-Window',$,$,#490,#583,$,$,$,.WINDOW.,$,$);
#486=IFCCARTESIANPOINT((2.3599999999999999,0.,0.));
#487=IFCDIRECTION((0.,0.,1.));
#488=IFCDIRECTION((0.,1.,0.));
#489=IFCAXIS2PLACEMENT3D(#486,#487,#488);
#490=IFCLOCALPLACEMENT(#43,#489);
#491=IFCCARTESIANPOINT((0.40000000000000002,-0.,0.));
#492=IFCCARTESIANPOINT((0.5,-0.,0.));
#493=IFCCARTESIANPOINT((0.5,0.19800000000000001,0.));
#494=IFCCARTESIANPOINT((0.40000000000000002,0.19800000000000001,0.));
#495=IFCCARTESIANPOINT((0.40000000000000002,-0.,0.));
#496=IFCPOLYLINE((#491,#492,#493,#494,#495));
#497=IFCARBITRARYCLOSEDPROFILEDEF(.AREA.,$,#496);
#498=IFCCARTESIANPOINT((0.,0.,0.90000000000000002));
#499=IFCDIRECTION((0.,0.,1.));
#500=IFCDIRECTION((1.,0.,0.));
#501=IFCAXIS2PLACEMENT3D(#498,#499,#500);
#502=IFCDIRECTION((0.,0.,1.));
#503=IFCEXTRUDEDAREASOLID(#497,#501,#502,1.3999999999999999);
#504=IFCCARTESIANPOINT((1.5,-0.,0.));
#505=IFCCARTESIANPOINT((1.6000000000000001,-0.,0.));
#506=IFCCARTESIANPOINT((1.6000000000000001,0.19800000000000001,0.));
#507=IFCCARTESIANPOINT((1.5,0.19800000000000001,0.));
#508=IFCCARTESIANPOINT((1.5,-0.,0.));
#509=IFCPOLYLINE((#504,#505,#506,#507,#508));
#510=IFCARBITRARYCLOSEDPROFILEDEF(.AREA.,$,#509);
#511=IFCCARTESIANPOINT((0.,0.,0.90000000000000002));
#512=IFCDIRECTION((0.,0.,1.));
#513=IFCDIRECTION((1.,0.,0.));
#514=IFCAXIS2PLACEMENT3D(#511,#512,#513);
#515=IFCDIRECTION((0.,0.,1.));
#516=IFCEXTRUDEDAREASOLID(#510,#514,#515,1.3999999999999999);
#517=IFCCARTESIANPOINT((0.5,-0.,0.));
#518=IFCCARTESIANPOINT((1.5,-0.,0.));
#519=IFCCARTESIANPOINT((1.5,0.19800000000000001,0.));
#520=IFCCARTESIANPOINT((0.5,0.19800000000000001,0.));
#521=IFCCARTESIANPOINT((0.5,-0.,0.));
#522=IFCPOLYLINE((#517,#518,#519,#520,#521));
#523=IFCARBITRARYCLOSEDPROFILEDEF(.AREA.,$,#522);
#524=IFCCARTESIANPOINT((0.,0.,2.1999999999999997));
#525=IFCDIRECTION((0.,0.,1.));
#526=IFCDIRECTION((1.,0.,0.));
#527=IFCAXIS2PLACEMENT3D(#524,#525,#526);
#528=IFCDIRECTION((0.,0.,1.));
#529=IFCEXTRUDEDAREASOLID(#523,#527,#528,0.10000000000000009);
#530=IFCCARTESIANPOINT((0.5,-0.,0.));
#531=IFCCARTESIANPOINT((1.5,-0.,0.));
#532=IFCCARTESIANPOINT((1.5,0.19800000000000001,0.));
#533=IFCCARTESIANPOINT((0.5,0.19800000000000001,0.));
#534=IFCCARTESIANPOINT((0.5,-0.,0.));
#535=IFCPOLYLINE((#530,#531,#532,#533,#534));
#536=IFCARBITRARYCLOSEDPROFILEDEF(.AREA.,$,#535);
#537=IFCCARTESIANPOINT((0.,0.,0.90000000000000002));
#538=IFCDIRECTION((0.,0.,1.));
#539=IFCDIRECTION((1.,0.,0.));
#540=IFCAXIS2PLACEMENT3D(#537,#538,#539);
#541=IFCDIRECTION((0.,0.,1.));
#542=IFCEXTRUDEDAREASOLID(#536,#540,#541,0.099999999999999978);
#543=IFCCARTESIANPOINT((0.95999999999999996,-0.,0.));
#544=IFCCARTESIANPOINT((1.04,-0.,0.));
#545=IFCCARTESIANPOINT((1.04,0.19800000000000001,0.));
#546=IFCCARTESIANPOINT((0.95999999999999996,0.19800000000000001,0.));
#547=IFCCARTESIANPOINT((0.95999999999999996,-0.,0.));
#548=IFCPOLYLINE((#543,#544,#545,#546,#547));
#549=IFCARBITRARYCLOSEDPROFILEDEF(.AREA.,$,#548);
#550=IFCCARTESIANPOINT((0.,0.,1.));
#551=IFCDIRECTION((0.,0.,1.));
#552=IFCDIRECTION((1.,0.,0.));
#553=IFCAXIS2PLACEMENT3D(#550,#551,#552);
#554=IFCDIRECTION((0.,0.,1.));
#555=IFCEXTRUDEDAREASOLID(#549,#553,#554,1.1999999999999997);
#556=IFCCARTESIANPOINT((0.5,0.014999999999999999,0.));
#557=IFCCARTESIANPOINT((0.95999999999999996,0.014999999999999999,0.));
#558=IFCCARTESIANPOINT((0.95999999999999996,0.055,0.));
#559=IFCCARTESIANPOINT((0.5,0.055,0.));
#560=IFCCARTESIANPOINT((0.5,0.014999999999999999,0.));
#561=IFCPOLYLINE((#556,#557,#558,#559,#560));
#562=IFCARBITRARYCLOSEDPROFILEDEF(.AREA.,$,#561);
#563=IFCCARTESIANPOINT((0.,0.,1.));
#564=IFCDIRECTION((0.,0.,1.));
#565=IFCDIRECTION((1.,0.,0.));
#566=IFCAXIS2PLACEMENT3D(#563,#564,#565);
#567=IFCDIRECTION((0.,0.,1.));
#568=IFCEXTRUDEDAREASOLID(#562,#566,#567,1.1999999999999997);
#569=IFCCARTESIANPOINT((1.04,0.014999999999999999,0.));
#570=IFCCARTESIANPOINT((1.5,0.014999999999999999,0.));
#571=IFCCARTESIANPOINT((1.5,0.055,0.));
#572=IFCCARTESIANPOINT((1.04,0.055,0.));
#573=IFCCARTESIANPOINT((1.04,0.014999999999999999,0.));
#574=IFCPOLYLINE((#569,#570,#571,#572,#573));
#575=IFCARBITRARYCLOSEDPROFILEDEF(.AREA.,$,#574);
#576=IFCCARTESIANPOINT((0.,0.,1.));
#577=IFCDIRECTION((0.,0.,1.));
#578=IFCDIRECTION((1.,0.,0.));
#579=IFCAXIS2PLACEMENT3D(#576,#577,#578);
#580=IFCDIRECTION((0.,0.,1.));
#581=IFCEXTRUDEDAREASOLID(#575,#579,#580,1.1999999999999997);
#582=IFCSHAPEREPRESENTATION(#16,'Body','SweptSolid',(#503,#516,#529,#542,#555));
#583=IFCPRODUCTDEFINITIONSHAPE($,$,(#582));
#584=IFCSTYLEDITEM(#503,(#447),$);
#585=IFCSTYLEDITEM(#516,(#447),$);
#586=IFCSTYLEDITEM(#529,(#447),$);
#587=IFCSTYLEDITEM(#542,(#447),$);
#588=IFCSTYLEDITEM(#555,(#447),$);
#589=IFCRELFILLSELEMENT('0Yuq_lg_T4WBf1crcKAnDR',$,$,$,#263,#485);
#590=IFCOWNERHISTORY(#3,#4,.READWRITE.,.MODIFIED.,1789307092,#3,#4,1789307092);
#591=IFCPLATE('0W$rNELez6OwV9v8qoCRDV',#590,'201-Window-Glass',$,'Glass',#596,#598,$,.CURTAIN_PANEL.);
#592=IFCCARTESIANPOINT((2.3599999999999999,0.,0.));
#593=IFCDIRECTION((0.,0.,1.));
#594=IFCDIRECTION((0.,1.,0.));
#595=IFCAXIS2PLACEMENT3D(#592,#593,#594);
#596=IFCLOCALPLACEMENT(#43,#595);
#597=IFCSHAPEREPRESENTATION(#16,'Body','SweptSolid',(#568,#581));
#598=IFCPRODUCTDEFINITIONSHAPE($,$,(#597));
#599=IFCSTYLEDITEM(#568,(#450),$);
#600=IFCSTYLEDITEM(#581,(#450),$);
#601=IFCOWNERHISTORY(#3,#4,.READWRITE.,.MODIFIED.,1789307092,#3,#4,1789307092);
#602=IFCSPACE('2FJ_zuV754Pvmed$DNbD5n',#601,'101',$,$,#607,#622,'Buero',$,.INTERNAL.,$);
#603=IFCCARTESIANPOINT((0.,0.,0.));
#604=IFCDIRECTION((0.,0.,1.));
#605=IFCDIRECTION((1.,0.,0.));
#606=IFCAXIS2PLACEMENT3D(#603,#604,#605);
#607=IFCLOCALPLACEMENT(#43,#606);
#608=IFCCARTESIANPOINT((0.,0.,0.));
#609=IFCCARTESIANPOINT((2.,0.,0.));
#610=IFCCARTESIANPOINT((2.,5.,0.));
#611=IFCCARTESIANPOINT((0.,5.,0.));
#612=IFCCARTESIANPOINT((0.,0.,0.));
#613=IFCPOLYLINE((#608,#609,#610,#611,#612));
#614=IFCARBITRARYCLOSEDPROFILEDEF(.AREA.,$,#613);
#615=IFCCARTESIANPOINT((0.,0.,0.));
#616=IFCDIRECTION((0.,0.,1.));
#617=IFCDIRECTION((1.,0.,0.));
#618=IFCAXIS2PLACEMENT3D(#615,#616,#617);
#619=IFCDIRECTION((0.,0.,1.));
#620=IFCEXTRUDEDAREASOLID(#614,#618,#619,2.7999999999999998);
#621=IFCSHAPEREPRESENTATION(#16,'Body','SweptSolid',(#620));
#622=IFCPRODUCTDEFINITIONSHAPE($,$,(#621));
#623=IFCOWNERHISTORY(#3,#4,.READWRITE.,.ADDED.,1789307092,#3,#4,1789307092);
#624=IFCELEMENTQUANTITY('2IbCc8ncX1$xVUtvGiIOsh',#623,'Qto_SpaceBaseQuantities',$,'BaseQuantities',(#627,#628,#629,#630,#631));
#625=IFCOWNERHISTORY(#3,#4,.READWRITE.,.ADDED.,1789307092,#3,#4,1789307092);
#626=IFCRELDEFINESBYPROPERTIES('2Ise$Fndr9YOKEO7yIGopz',#625,$,$,(#602),#624);
#627=IFCQUANTITYAREA('NetFloorArea',$,$,10.,$);
#628=IFCQUANTITYLENGTH('Height',$,$,2.7999999999999998,$);
#629=IFCQUANTITYLENGTH('FinishCeilingHeight',$,$,2.6000000000000001,$);
#630=IFCQUANTITYAREA('GrossFloorArea',$,$,10.,$);
#631=IFCQUANTITYVOLUME('GrossVolume',$,$,28.,$);
#632=IFCOWNERHISTORY(#3,#4,.READWRITE.,.ADDED.,1789307092,#3,#4,1789307092);
#633=IFCPROPERTYSET('3CATFISrL2yxa6y2QQtHq_',#632,'ePset_Space',$,(#636));
#634=IFCOWNERHISTORY(#3,#4,.READWRITE.,.ADDED.,1789307092,#3,#4,1789307092);
#635=IFCRELDEFINESBYPROPERTIES('2W8FTczfHB9BZRO_eONHbA',#634,$,$,(#602),#633);
#636=IFCPROPERTYSINGLEVALUE('SignageRoomNumber',$,IFCIDENTIFIER('101'),$);
#637=IFCOWNERHISTORY(#3,#4,.READWRITE.,.ADDED.,1789307092,#3,#4,1789307092);
#638=IFCPROPERTYSET('0cfyVrUZ9FLA4D$37OdnaZ',#637,'Pset_SpaceCommon',$,(#641,#642));
#639=IFCOWNERHISTORY(#3,#4,.READWRITE.,.ADDED.,1789307092,#3,#4,1789307092);
#640=IFCRELDEFINESBYPROPERTIES('0pZlaCCvz1NgxjIXgg0V2H',#639,$,$,(#602),#638);
#641=IFCPROPERTYSINGLEVALUE('Reference',$,IFCIDENTIFIER('HNF'),$);
#642=IFCPROPERTYSINGLEVALUE('IsExternal',$,IFCBOOLEAN(.F.),$);
#643=IFCOWNERHISTORY(#3,#4,.READWRITE.,.ADDED.,1789307092,#3,#4,1789307092);
#644=IFCPROPERTYSET('0lnLETOL9ByxEMrtv3XZcL',#643,'Pset_SpaceCoveringRequirements',$,(#647));
#645=IFCOWNERHISTORY(#3,#4,.READWRITE.,.ADDED.,1789307092,#3,#4,1789307092);
#646=IFCRELDEFINESBYPROPERTIES('3Aljeeod5A_8CDcgc7Kj60',#645,$,$,(#602),#644);
#647=IFCPROPERTYSINGLEVALUE('FloorCovering',$,IFCLABEL('Teppich'),$);
#648=IFCOWNERHISTORY(#3,#4,.READWRITE.,.ADDED.,1789307092,#3,#4,1789307092);
#649=IFCPROPERTYSET('0L1NouEz99BfnKOQ6N2iR9',#648,'Pset_SpaceThermalDesign',$,(#652));
#650=IFCOWNERHISTORY(#3,#4,.READWRITE.,.ADDED.,1789307092,#3,#4,1789307092);
#651=IFCRELDEFINESBYPROPERTIES('26mNn9qZz0e8aSQ3ZPk4np',#650,$,$,(#602),#649);
#652=IFCPROPERTYSINGLEVALUE('TotalHeatLoss',$,IFCPOWERMEASURE(1.),$);
#653=IFCOWNERHISTORY(#3,#4,.READWRITE.,.ADDED.,1789307092,#3,#4,1789307092);
#654=IFCPROPERTYSET('27N4bHOu98cerUOdti$2TO',#653,'ePset_SpaceRequirement',$,(#657,#658,#659));
#655=IFCOWNERHISTORY(#3,#4,.READWRITE.,.ADDED.,1789307092,#3,#4,1789307092);
#656=IFCRELDEFINESBYPROPERTIES('1ZUmYYk9b4xh2PwJMjgiWq',#655,$,$,(#602),#654);
#657=IFCPROPERTYSINGLEVALUE('DesignAreaLoad',$,IFCREAL(3.),$);
#658=IFCPROPERTYSINGLEVALUE('DesignPointLoad',$,IFCREAL(2.),$);
#659=IFCPROPERTYSINGLEVALUE('VibrationRequirements',$,IFCLABEL('ISO Office'),$);
#660=IFCOWNERHISTORY(#3,#4,.READWRITE.,.ADDED.,1789307092,#3,#4,1789307092);
#661=IFCPROPERTYSET('0$kbrLO4X4oPcJ9fF0NrtN',#660,'ePset_Space',$,(#664));
#662=IFCOWNERHISTORY(#3,#4,.READWRITE.,.ADDED.,1789307092,#3,#4,1789307092);
#663=IFCRELDEFINESBYPROPERTIES('0l4Dv7eOn4pxVFiNbNAdKv',#662,$,$,(#602),#661);
#664=IFCPROPERTYSINGLEVALUE('Checkliste',$,IFCTEXT('Bodenbelag; Elektro; Beleuchtung'),$);
ENDSEC;
END-ISO-10303-21;
