ISO-10303-21;
HEADER;
FILE_DESCRIPTION(('ViewDefinition[DesignTransferView]'),'2;1');
FILE_NAME('/dev/null','2026-09-13T15:44:54+02:00',(''),(''),'IfcOpenShell 0.8.5','IfcOpenShell 0.8.5','Nobody');
FILE_SCHEMA(('IFC4'));
ENDSEC;
DATA;
#1=IFCPERSON('catalog-pipeline','Pipeline','Catalog',$,$,$,$,$);
#2=IFCORGANIZATION('pragmaticBIM','pragmaticBIM',$,$,$);
#3=IFCPERSONANDORGANIZATION(#1,#2,$);
#4=IFCAPPLICATION(#2,'0.1.0','Catalog IFC Pipeline','catalog-ifc-pipeline');
#5=IFCOWNERHISTORY(#3,#4,.READWRITE.,.ADDED.,1789307094,#3,#4,1789307094);
#6=IFCPROJECT('0toVcW08jFygkHaIbuKZEm',#5,'Catalog \X2\2014\X0\ space-elevator-01',$,$,$,$,(#15),#10);
#7=IFCSIUNIT(*,.LENGTHUNIT.,$,.METRE.);
#8=IFCSIUNIT(*,.AREAUNIT.,$,.SQUARE_METRE.);
#9=IFCSIUNIT(*,.VOLUMEUNIT.,$,.CUBIC_METRE.);
#10=IFCUNITASSIGNMENT((#9,#7,#8));
#11=IFCCARTESIANPOINT((0.,0.,0.));
#12=IFCDIRECTION((0.,0.,1.));
#13=IFCDIRECTION((1.,0.,0.));
#14=IFCAXIS2PLACEMENT3D(#11,#12,#13);
#15=IFCGEOMETRICREPRESENTATIONCONTEXT($,'Model',3,1.0000000000000001E-05,#14,$);
#16=IFCGEOMETRICREPRESENTATIONSUBCONTEXT('Body','Model',*,*,*,*,#15,$,.MODEL_VIEW.,$);
#17=IFCOWNERHISTORY(#3,#4,.READWRITE.,.MODIFIED.,1789307094,#3,#4,1789307094);
#18=IFCSITE('21H2uyr_5DiRFO$009ipPK',#17,'Site',$,$,#29,$,$,$,$,$,$,$,$);
#19=IFCOWNERHISTORY(#3,#4,.READWRITE.,.MODIFIED.,1789307094,#3,#4,1789307094);
#20=IFCBUILDING('3xZzergXL4kvMJzkT5INEv',#19,'Building',$,$,#34,$,$,$,$,$,$);
#21=IFCOWNERHISTORY(#3,#4,.READWRITE.,.ADDED.,1789307094,#3,#4,1789307094);
#22=IFCRELAGGREGATES('2zJ9WBgP1DkBa2OxSa9gAm',#21,$,$,#6,(#18));
#23=IFCOWNERHISTORY(#3,#4,.READWRITE.,.ADDED.,1789307094,#3,#4,1789307094);
#24=IFCRELAGGREGATES('1M$gSc_CvCvxMhWv4V87g8',#23,$,$,#18,(#20));
#25=IFCCARTESIANPOINT((0.,0.,0.));
#26=IFCDIRECTION((0.,0.,1.));
#27=IFCDIRECTION((1.,0.,0.));
#28=IFCAXIS2PLACEMENT3D(#25,#26,#27);
#29=IFCLOCALPLACEMENT($,#28);
#30=IFCCARTESIANPOINT((0.,0.,0.));
#31=IFCDIRECTION((0.,0.,1.));
#32=IFCDIRECTION((1.,0.,0.));
#33=IFCAXIS2PLACEMENT3D(#30,#31,#32);
#34=IFCLOCALPLACEMENT(#29,#33);
#35=IFCOWNERHISTORY(#3,#4,.READWRITE.,.MODIFIED.,1789307094,#3,#4,1789307094);
#36=IFCBUILDINGSTOREY('0aj$Wypz53j8NQoNxw9JhM',#35,'Level 0',$,$,#43,$,$,$,0.);
#37=IFCOWNERHISTORY(#3,#4,.READWRITE.,.ADDED.,1789307094,#3,#4,1789307094);
#38=IFCRELAGGREGATES('3qAYjy72P77fhBr1LeZZ0S',#37,$,$,#20,(#36));
#39=IFCCARTESIANPOINT((0.,0.,0.));
#40=IFCDIRECTION((0.,0.,1.));
#41=IFCDIRECTION((1.,0.,0.));
#42=IFCAXIS2PLACEMENT3D(#39,#40,#41);
#43=IFCLOCALPLACEMENT(#34,#42);
#44=IFCOWNERHISTORY(#3,#4,.READWRITE.,.MODIFIED.,1789307094,#3,#4,1789307094);
#45=IFCSPACE('3bQquUEX55Efy5R4HrxSzn',#44,'A-01',$,$,#52,#67,'Aufzug',$,.INTERNAL.,$);
#46=IFCOWNERHISTORY(#3,#4,.READWRITE.,.MODIFIED.,1789307094,#3,#4,1789307094);
#47=IFCRELAGGREGATES('1dqjMvqgT5zv_qbB$lOcYY',#46,$,$,#36,(#45,#77));
#48=IFCCARTESIANPOINT((0.,0.,0.));
#49=IFCDIRECTION((0.,0.,1.));
#50=IFCDIRECTION((1.,0.,0.));
#51=IFCAXIS2PLACEMENT3D(#48,#49,#50);
#52=IFCLOCALPLACEMENT(#43,#51);
#53=IFCCARTESIANPOINT((0.,0.,0.));
#54=IFCCARTESIANPOINT((1.6000000000000001,0.,0.));
#55=IFCCARTESIANPOINT((1.6000000000000001,2.,0.));
#56=IFCCARTESIANPOINT((0.,2.,0.));
#57=IFCCARTESIANPOINT((0.,0.,0.));
#58=IFCPOLYLINE((#53,#54,#55,#56,#57));
#59=IFCARBITRARYCLOSEDPROFILEDEF(.AREA.,$,#58);
#60=IFCCARTESIANPOINT((0.,0.,0.));
#61=IFCDIRECTION((0.,0.,1.));
#62=IFCDIRECTION((1.,0.,0.));
#63=IFCAXIS2PLACEMENT3D(#60,#61,#62);
#64=IFCDIRECTION((0.,0.,1.));
#65=IFCEXTRUDEDAREASOLID(#59,#63,#64,2.7999999999999998);
#66=IFCSHAPEREPRESENTATION(#16,'Body','SweptSolid',(#65));
#67=IFCPRODUCTDEFINITIONSHAPE($,$,(#66));
#68=IFCOWNERHISTORY(#3,#4,.READWRITE.,.ADDED.,1789307094,#3,#4,1789307094);
#69=IFCELEMENTQUANTITY('31eM2rbmj4Xep_C_QhRKSJ',#68,'Qto_SpaceBaseQuantities',$,'BaseQuantities',(#72,#73,#74,#75));
#70=IFCOWNERHISTORY(#3,#4,.READWRITE.,.ADDED.,1789307094,#3,#4,1789307094);
#71=IFCRELDEFINESBYPROPERTIES('3b9mk2uSHABQXI6fRvhafr',#70,$,$,(#45),#69);
#72=IFCQUANTITYAREA('NetFloorArea',$,$,3.2000000000000002,$);
#73=IFCQUANTITYVOLUME('GrossVolume',$,$,8.9600000000000009,$);
#74=IFCQUANTITYLENGTH('Height',$,$,2.7999999999999998,$);
#75=IFCQUANTITYAREA('GrossFloorArea',$,$,3.2000000000000002,$);
#76=IFCOWNERHISTORY(#3,#4,.READWRITE.,.MODIFIED.,1789307094,#3,#4,1789307094);
#77=IFCSPACE('3AgGm5N4r4UgLbh9T9h_zo',#76,'A-01-OG',$,$,#82,#97,'Aufzug',$,.INTERNAL.,$);
#78=IFCCARTESIANPOINT((0.,0.,2.7999999999999998));
#79=IFCDIRECTION((0.,0.,1.));
#80=IFCDIRECTION((1.,0.,0.));
#81=IFCAXIS2PLACEMENT3D(#78,#79,#80);
#82=IFCLOCALPLACEMENT(#43,#81);
#83=IFCCARTESIANPOINT((0.,0.,0.));
#84=IFCCARTESIANPOINT((1.6000000000000001,0.,0.));
#85=IFCCARTESIANPOINT((1.6000000000000001,2.,0.));
#86=IFCCARTESIANPOINT((0.,2.,0.));
#87=IFCCARTESIANPOINT((0.,0.,0.));
#88=IFCPOLYLINE((#83,#84,#85,#86,#87));
#89=IFCARBITRARYCLOSEDPROFILEDEF(.AREA.,$,#88);
#90=IFCCARTESIANPOINT((0.,0.,0.));
#91=IFCDIRECTION((0.,0.,1.));
#92=IFCDIRECTION((1.,0.,0.));
#93=IFCAXIS2PLACEMENT3D(#90,#91,#92);
#94=IFCDIRECTION((0.,0.,1.));
#95=IFCEXTRUDEDAREASOLID(#89,#93,#94,2.7999999999999998);
#96=IFCSHAPEREPRESENTATION(#16,'Body','SweptSolid',(#95));
#97=IFCPRODUCTDEFINITIONSHAPE($,$,(#96));
#98=IFCOWNERHISTORY(#3,#4,.READWRITE.,.ADDED.,1789307094,#3,#4,1789307094);
#99=IFCELEMENTQUANTITY('14Wh1gd8r4rA6TJlUM43wb',#98,'Qto_SpaceBaseQuantities',$,'BaseQuantities',(#102,#103,#104,#105));
#100=IFCOWNERHISTORY(#3,#4,.READWRITE.,.ADDED.,1789307094,#3,#4,1789307094);
#101=IFCRELDEFINESBYPROPERTIES('1npaeWI8T5B9V4CR6S3XY1',#100,$,$,(#77),#99);
#102=IFCQUANTITYAREA('NetFloorArea',$,$,3.2000000000000002,$);
#103=IFCQUANTITYVOLUME('GrossVolume',$,$,8.9600000000000009,$);
#104=IFCQUANTITYLENGTH('Height',$,$,2.7999999999999998,$);
#105=IFCQUANTITYAREA('GrossFloorArea',$,$,3.2000000000000002,$);
#106=IFCOWNERHISTORY(#3,#4,.READWRITE.,.MODIFIED.,1789307094,#3,#4,1789307094);
#107=IFCSLAB('01Yh9qldH3FxRPyaVa14Xo',#106,'Aufzug-Geschossdecke',$,$,#114,#133,$,.FLOOR.);
#108=IFCOWNERHISTORY(#3,#4,.READWRITE.,.MODIFIED.,1789307094,#3,#4,1789307094);
#109=IFCRELCONTAINEDINSPATIALSTRUCTURE('04l7jYKBz5IPri3De61_RB',#108,$,$,(#230,#107,#157,#135,#252,#179,#274),#36);
#110=IFCCARTESIANPOINT((0.,0.,2.7999999999999998));
#111=IFCDIRECTION((0.,0.,1.));
#112=IFCDIRECTION((1.,0.,0.));
#113=IFCAXIS2PLACEMENT3D(#110,#111,#112);
#114=IFCLOCALPLACEMENT(#43,#113);
#115=IFCCARTESIANPOINT((-1.3999999999999999,-1.3999999999999999,0.));
#116=IFCCARTESIANPOINT((3.,-1.3999999999999999,0.));
#117=IFCCARTESIANPOINT((3.,2.,0.));
#118=IFCCARTESIANPOINT((1.6000000000000001,2.,0.));
#119=IFCCARTESIANPOINT((1.6000000000000001,0.,0.));
#120=IFCCARTESIANPOINT((0.,0.,0.));
#121=IFCCARTESIANPOINT((0.,2.,0.));
#122=IFCCARTESIANPOINT((-1.3999999999999999,2.,0.));
#123=IFCCARTESIANPOINT((-1.3999999999999999,-1.3999999999999999,0.));
#124=IFCPOLYLINE((#115,#116,#117,#118,#119,#120,#121,#122,#123));
#125=IFCARBITRARYCLOSEDPROFILEDEF(.AREA.,$,#124);
#126=IFCCARTESIANPOINT((0.,0.,0.));
#127=IFCDIRECTION((0.,0.,1.));
#128=IFCDIRECTION((1.,0.,0.));
#129=IFCAXIS2PLACEMENT3D(#126,#127,#128);
#130=IFCDIRECTION((0.,0.,1.));
#131=IFCEXTRUDEDAREASOLID(#125,#129,#130,0.29999999999999999);
#132=IFCSHAPEREPRESENTATION(#16,'Body','SweptSolid',(#131));
#133=IFCPRODUCTDEFINITIONSHAPE($,$,(#132));
#134=IFCOWNERHISTORY(#3,#4,.READWRITE.,.MODIFIED.,1789307094,#3,#4,1789307094);
#135=IFCWALL('2HcDDlSHPEE8KCew93Zjdj',#134,'Aufzug-Wand-Hinten-EG',$,$,#140,#155,$,.SOLIDWALL.);
#136=IFCCARTESIANPOINT((1.6000000000000001,0.,0.));
#137=IFCDIRECTION((0.,0.,1.));
#138=IFCDIRECTION((-1.,0.,0.));
#139=IFCAXIS2PLACEMENT3D(#136,#137,#138);
#140=IFCLOCALPLACEMENT(#43,#139);
#141=IFCCARTESIANPOINT((0.,0.,0.));
#142=IFCCARTESIANPOINT((1.6000000000000001,0.,0.));
#143=IFCCARTESIANPOINT((1.6000000000000001,0.20000000000000001,0.));
#144=IFCCARTESIANPOINT((0.,0.20000000000000001,0.));
#145=IFCCARTESIANPOINT((0.,0.,0.));
#146=IFCPOLYLINE((#141,#142,#143,#144,#145));
#147=IFCARBITRARYCLOSEDPROFILEDEF(.AREA.,$,#146);
#148=IFCCARTESIANPOINT((0.,0.,0.));
#149=IFCDIRECTION((0.,0.,1.));
#150=IFCDIRECTION((1.,0.,0.));
#151=IFCAXIS2PLACEMENT3D(#148,#149,#150);
#152=IFCDIRECTION((0.,0.,1.));
#153=IFCEXTRUDEDAREASOLID(#147,#151,#152,2.7999999999999998);
#154=IFCSHAPEREPRESENTATION(#16,'Body','SweptSolid',(#153));
#155=IFCPRODUCTDEFINITIONSHAPE($,$,(#154));
#156=IFCOWNERHISTORY(#3,#4,.READWRITE.,.MODIFIED.,1789307094,#3,#4,1789307094);
#157=IFCWALL('2U8EYxjinB8fEP1FB_SZNc',#156,'Aufzug-Wand-Links-EG',$,$,#162,#177,$,.SOLIDWALL.);
#158=IFCCARTESIANPOINT((0.,-0.20000000000000001,0.));
#159=IFCDIRECTION((0.,0.,1.));
#160=IFCDIRECTION((0.,1.,0.));
#161=IFCAXIS2PLACEMENT3D(#158,#159,#160);
#162=IFCLOCALPLACEMENT(#43,#161);
#163=IFCCARTESIANPOINT((0.,0.,0.));
#164=IFCCARTESIANPOINT((2.2000000000000002,0.,0.));
#165=IFCCARTESIANPOINT((2.2000000000000002,0.20000000000000001,0.));
#166=IFCCARTESIANPOINT((0.,0.20000000000000001,0.));
#167=IFCCARTESIANPOINT((0.,0.,0.));
#168=IFCPOLYLINE((#163,#164,#165,#166,#167));
#169=IFCARBITRARYCLOSEDPROFILEDEF(.AREA.,$,#168);
#170=IFCCARTESIANPOINT((0.,0.,0.));
#171=IFCDIRECTION((0.,0.,1.));
#172=IFCDIRECTION((1.,0.,0.));
#173=IFCAXIS2PLACEMENT3D(#170,#171,#172);
#174=IFCDIRECTION((0.,0.,1.));
#175=IFCEXTRUDEDAREASOLID(#169,#173,#174,2.7999999999999998);
#176=IFCSHAPEREPRESENTATION(#16,'Body','SweptSolid',(#175));
#177=IFCPRODUCTDEFINITIONSHAPE($,$,(#176));
#178=IFCOWNERHISTORY(#3,#4,.READWRITE.,.MODIFIED.,1789307094,#3,#4,1789307094);
#179=IFCWALL('0f64JECHr0Juim9rQo5ij2',#178,'Aufzug-Wand-Rechts-EG',$,$,#184,#199,$,.SOLIDWALL.);
#180=IFCCARTESIANPOINT((1.8,-0.20000000000000001,0.));
#181=IFCDIRECTION((0.,0.,1.));
#182=IFCDIRECTION((0.,1.,0.));
#183=IFCAXIS2PLACEMENT3D(#180,#181,#182);
#184=IFCLOCALPLACEMENT(#43,#183);
#185=IFCCARTESIANPOINT((0.,0.,0.));
#186=IFCCARTESIANPOINT((2.2000000000000002,0.,0.));
#187=IFCCARTESIANPOINT((2.2000000000000002,0.20000000000000001,0.));
#188=IFCCARTESIANPOINT((0.,0.20000000000000001,0.));
#189=IFCCARTESIANPOINT((0.,0.,0.));
#190=IFCPOLYLINE((#185,#186,#187,#188,#189));
#191=IFCARBITRARYCLOSEDPROFILEDEF(.AREA.,$,#190);
#192=IFCCARTESIANPOINT((0.,0.,0.));
#193=IFCDIRECTION((0.,0.,1.));
#194=IFCDIRECTION((1.,0.,0.));
#195=IFCAXIS2PLACEMENT3D(#192,#193,#194);
#196=IFCDIRECTION((0.,0.,1.));
#197=IFCEXTRUDEDAREASOLID(#191,#195,#196,2.7999999999999998);
#198=IFCSHAPEREPRESENTATION(#16,'Body','SweptSolid',(#197));
#199=IFCPRODUCTDEFINITIONSHAPE($,$,(#198));
#200=IFCOWNERHISTORY(#3,#4,.READWRITE.,.MODIFIED.,1789307094,#3,#4,1789307094);
#201=IFCOPENINGELEMENT('16rtnFjDnCC8RkYm$SKBBR',#200,'Aufzug-Oeffnung-EG',$,$,#228,#221,$,.OPENING.);
#207=IFCCARTESIANPOINT((0.65000000000000013,-0.01,0.));
#208=IFCCARTESIANPOINT((1.5500000000000003,-0.01,0.));
#209=IFCCARTESIANPOINT((1.5500000000000003,0.22,0.));
#210=IFCCARTESIANPOINT((0.65000000000000013,0.22,0.));
#211=IFCCARTESIANPOINT((0.65000000000000013,-0.01,0.));
#212=IFCPOLYLINE((#207,#208,#209,#210,#211));
#213=IFCARBITRARYCLOSEDPROFILEDEF(.AREA.,$,#212);
#214=IFCCARTESIANPOINT((0.,0.,0.));
#215=IFCDIRECTION((0.,0.,1.));
#216=IFCDIRECTION((1.,0.,0.));
#217=IFCAXIS2PLACEMENT3D(#214,#215,#216);
#218=IFCDIRECTION((0.,0.,1.));
#219=IFCEXTRUDEDAREASOLID(#213,#217,#218,2.1000000000000001);
#220=IFCSHAPEREPRESENTATION(#16,'Body','SweptSolid',(#219));
#221=IFCPRODUCTDEFINITIONSHAPE($,$,(#220));
#222=IFCOWNERHISTORY(#3,#4,.READWRITE.,.ADDED.,1789307094,#3,#4,1789307094);
#223=IFCRELVOIDSELEMENT('2665ceskr7tPElSwkR1sTl',#222,$,$,#179,#201);
#224=IFCCARTESIANPOINT((0.,0.,0.));
#225=IFCDIRECTION((0.,0.,1.));
#226=IFCDIRECTION((1.,0.,0.));
#227=IFCAXIS2PLACEMENT3D(#224,#225,#226);
#228=IFCLOCALPLACEMENT(#184,#227);
#229=IFCOWNERHISTORY(#3,#4,.READWRITE.,.MODIFIED.,1789307094,#3,#4,1789307094);
#230=IFCWALL('14p7BBhPT8rBNw91g_Pv1g',#229,'Aufzug-Wand-Hinten-OG',$,$,#235,#250,$,.SOLIDWALL.);
#231=IFCCARTESIANPOINT((1.6000000000000001,0.,3.0999999999999996));
#232=IFCDIRECTION((0.,0.,1.));
#233=IFCDIRECTION((-1.,0.,0.));
#234=IFCAXIS2PLACEMENT3D(#231,#232,#233);
#235=IFCLOCALPLACEMENT(#43,#234);
#236=IFCCARTESIANPOINT((0.,0.,0.));
#237=IFCCARTESIANPOINT((1.6000000000000001,0.,0.));
#238=IFCCARTESIANPOINT((1.6000000000000001,0.20000000000000001,0.));
#239=IFCCARTESIANPOINT((0.,0.20000000000000001,0.));
#240=IFCCARTESIANPOINT((0.,0.,0.));
#241=IFCPOLYLINE((#236,#237,#238,#239,#240));
#242=IFCARBITRARYCLOSEDPROFILEDEF(.AREA.,$,#241);
#243=IFCCARTESIANPOINT((0.,0.,0.));
#244=IFCDIRECTION((0.,0.,1.));
#245=IFCDIRECTION((1.,0.,0.));
#246=IFCAXIS2PLACEMENT3D(#243,#244,#245);
#247=IFCDIRECTION((0.,0.,1.));
#248=IFCEXTRUDEDAREASOLID(#242,#246,#247,2.7999999999999998);
#249=IFCSHAPEREPRESENTATION(#16,'Body','SweptSolid',(#248));
#250=IFCPRODUCTDEFINITIONSHAPE($,$,(#249));
#251=IFCOWNERHISTORY(#3,#4,.READWRITE.,.MODIFIED.,1789307094,#3,#4,1789307094);
#252=IFCWALL('3c63N7k8n8zBD1syPNC4TM',#251,'Aufzug-Wand-Links-OG',$,$,#257,#272,$,.SOLIDWALL.);
#253=IFCCARTESIANPOINT((0.,-0.20000000000000001,3.0999999999999996));
#254=IFCDIRECTION((0.,0.,1.));
#255=IFCDIRECTION((0.,1.,0.));
#256=IFCAXIS2PLACEMENT3D(#253,#254,#255);
#257=IFCLOCALPLACEMENT(#43,#256);
#258=IFCCARTESIANPOINT((0.,0.,0.));
#259=IFCCARTESIANPOINT((2.2000000000000002,0.,0.));
#260=IFCCARTESIANPOINT((2.2000000000000002,0.20000000000000001,0.));
#261=IFCCARTESIANPOINT((0.,0.20000000000000001,0.));
#262=IFCCARTESIANPOINT((0.,0.,0.));
#263=IFCPOLYLINE((#258,#259,#260,#261,#262));
#264=IFCARBITRARYCLOSEDPROFILEDEF(.AREA.,$,#263);
#265=IFCCARTESIANPOINT((0.,0.,0.));
#266=IFCDIRECTION((0.,0.,1.));
#267=IFCDIRECTION((1.,0.,0.));
#268=IFCAXIS2PLACEMENT3D(#265,#266,#267);
#269=IFCDIRECTION((0.,0.,1.));
#270=IFCEXTRUDEDAREASOLID(#264,#268,#269,2.7999999999999998);
#271=IFCSHAPEREPRESENTATION(#16,'Body','SweptSolid',(#270));
#272=IFCPRODUCTDEFINITIONSHAPE($,$,(#271));
#273=IFCOWNERHISTORY(#3,#4,.READWRITE.,.MODIFIED.,1789307094,#3,#4,1789307094);
#274=IFCWALL('3kpPSH5er8_xNo7f9Lbqw7',#273,'Aufzug-Wand-Rechts-OG',$,$,#279,#294,$,.SOLIDWALL.);
#275=IFCCARTESIANPOINT((1.8,-0.20000000000000001,3.0999999999999996));
#276=IFCDIRECTION((0.,0.,1.));
#277=IFCDIRECTION((0.,1.,0.));
#278=IFCAXIS2PLACEMENT3D(#275,#276,#277);
#279=IFCLOCALPLACEMENT(#43,#278);
#280=IFCCARTESIANPOINT((0.,0.,0.));
#281=IFCCARTESIANPOINT((2.2000000000000002,0.,0.));
#282=IFCCARTESIANPOINT((2.2000000000000002,0.20000000000000001,0.));
#283=IFCCARTESIANPOINT((0.,0.20000000000000001,0.));
#284=IFCCARTESIANPOINT((0.,0.,0.));
#285=IFCPOLYLINE((#280,#281,#282,#283,#284));
#286=IFCARBITRARYCLOSEDPROFILEDEF(.AREA.,$,#285);
#287=IFCCARTESIANPOINT((0.,0.,0.));
#288=IFCDIRECTION((0.,0.,1.));
#289=IFCDIRECTION((1.,0.,0.));
#290=IFCAXIS2PLACEMENT3D(#287,#288,#289);
#291=IFCDIRECTION((0.,0.,1.));
#292=IFCEXTRUDEDAREASOLID(#286,#290,#291,2.7999999999999998);
#293=IFCSHAPEREPRESENTATION(#16,'Body','SweptSolid',(#292));
#294=IFCPRODUCTDEFINITIONSHAPE($,$,(#293));
#295=IFCOWNERHISTORY(#3,#4,.READWRITE.,.MODIFIED.,1789307094,#3,#4,1789307094);
#296=IFCOPENINGELEMENT('2zMApVYwX0oBHIr36sfOli',#295,'Aufzug-Oeffnung-OG',$,$,#323,#316,$,.OPENING.);
#302=IFCCARTESIANPOINT((0.65000000000000013,-0.01,0.));
#303=IFCCARTESIANPOINT((1.5500000000000003,-0.01,0.));
#304=IFCCARTESIANPOINT((1.5500000000000003,0.22,0.));
#305=IFCCARTESIANPOINT((0.65000000000000013,0.22,0.));
#306=IFCCARTESIANPOINT((0.65000000000000013,-0.01,0.));
#307=IFCPOLYLINE((#302,#303,#304,#305,#306));
#308=IFCARBITRARYCLOSEDPROFILEDEF(.AREA.,$,#307);
#309=IFCCARTESIANPOINT((0.,0.,0.));
#310=IFCDIRECTION((0.,0.,1.));
#311=IFCDIRECTION((1.,0.,0.));
#312=IFCAXIS2PLACEMENT3D(#309,#310,#311);
#313=IFCDIRECTION((0.,0.,1.));
#314=IFCEXTRUDEDAREASOLID(#308,#312,#313,2.1000000000000001);
#315=IFCSHAPEREPRESENTATION(#16,'Body','SweptSolid',(#314));
#316=IFCPRODUCTDEFINITIONSHAPE($,$,(#315));
#317=IFCOWNERHISTORY(#3,#4,.READWRITE.,.ADDED.,1789307094,#3,#4,1789307094);
#318=IFCRELVOIDSELEMENT('2L6cm2yMf25Bq9m6TdY_4C',#317,$,$,#274,#296);
#319=IFCCARTESIANPOINT((0.,0.,0.));
#320=IFCDIRECTION((0.,0.,1.));
#321=IFCDIRECTION((1.,0.,0.));
#322=IFCAXIS2PLACEMENT3D(#319,#320,#321);
#323=IFCLOCALPLACEMENT(#279,#322);
ENDSEC;
END-ISO-10303-21;
