ISO-10303-21;
HEADER;
FILE_DESCRIPTION(('ViewDefinition[DesignTransferView]'),'2;1');
FILE_NAME('/dev/null','2026-09-18T18:30:13+02:00',(''),(''),'IfcOpenShell 0.8.5','IfcOpenShell 0.8.5','Nobody');
FILE_SCHEMA(('IFC4'));
ENDSEC;
DATA;
#1=IFCPERSON('catalog-pipeline','Pipeline','Catalog',$,$,$,$,$);
#2=IFCORGANIZATION('pragmaticBIM','pragmaticBIM',$,$,$);
#3=IFCPERSONANDORGANIZATION(#1,#2,$);
#4=IFCAPPLICATION(#2,'0.1.0','Catalog IFC Pipeline','catalog-ifc-pipeline');
#5=IFCOWNERHISTORY(#3,#4,.READWRITE.,.ADDED.,1789749013,#3,#4,1789749013);
#6=IFCPROJECT('0KKWO$jPj7EOsWAYiudN0o',#5,'Catalog \X2\2014\X0\ 101',$,$,$,$,(#15),#10);
#7=IFCSIUNIT(*,.LENGTHUNIT.,$,.METRE.);
#8=IFCSIUNIT(*,.AREAUNIT.,$,.SQUARE_METRE.);
#9=IFCSIUNIT(*,.VOLUMEUNIT.,$,.CUBIC_METRE.);
#10=IFCUNITASSIGNMENT((#7,#8,#9));
#11=IFCCARTESIANPOINT((0.,0.,0.));
#12=IFCDIRECTION((0.,0.,1.));
#13=IFCDIRECTION((1.,0.,0.));
#14=IFCAXIS2PLACEMENT3D(#11,#12,#13);
#15=IFCGEOMETRICREPRESENTATIONCONTEXT($,'Model',3,1.0000000000000001E-05,#14,$);
#16=IFCGEOMETRICREPRESENTATIONSUBCONTEXT('Body','Model',*,*,*,*,#15,$,.MODEL_VIEW.,$);
#17=IFCOWNERHISTORY(#3,#4,.READWRITE.,.MODIFIED.,1789749013,#3,#4,1789749013);
#18=IFCSITE('3wE9BqdJj3zeiwlm9mq_Jw',#17,'Site',$,$,#29,$,$,$,$,$,$,$,$);
#19=IFCOWNERHISTORY(#3,#4,.READWRITE.,.MODIFIED.,1789749013,#3,#4,1789749013);
#20=IFCBUILDING('2MIgOYO8H5IfbDguZLjI4t',#19,'Building',$,$,#34,$,$,$,$,$,$);
#21=IFCOWNERHISTORY(#3,#4,.READWRITE.,.ADDED.,1789749013,#3,#4,1789749013);
#22=IFCRELAGGREGATES('2B04$tHpLFYxarQNR7O$d2',#21,$,$,#6,(#18));
#23=IFCOWNERHISTORY(#3,#4,.READWRITE.,.ADDED.,1789749013,#3,#4,1789749013);
#24=IFCRELAGGREGATES('3gDfD01GjBbPSMBYtC3ozj',#23,$,$,#18,(#20));
#25=IFCCARTESIANPOINT((0.,0.,0.));
#26=IFCDIRECTION((0.,0.,1.));
#27=IFCDIRECTION((1.,0.,0.));
#28=IFCAXIS2PLACEMENT3D(#25,#26,#27);
#29=IFCLOCALPLACEMENT($,#28);
#30=IFCCARTESIANPOINT((0.,0.,0.));
#31=IFCDIRECTION((0.,0.,1.));
#32=IFCDIRECTION((1.,0.,0.));
#33=IFCAXIS2PLACEMENT3D(#30,#31,#32);
#34=IFCLOCALPLACEMENT(#29,#33);
#35=IFCOWNERHISTORY(#3,#4,.READWRITE.,.MODIFIED.,1789749013,#3,#4,1789749013);
#36=IFCBUILDINGSTOREY('3n394rUWX4M8r7QsiQ$8sF',#35,'Level 0',$,$,#43,$,$,$,0.);
#37=IFCOWNERHISTORY(#3,#4,.READWRITE.,.ADDED.,1789749013,#3,#4,1789749013);
#38=IFCRELAGGREGATES('0ubVXdrBX0BhA_XEnFGwBE',#37,$,$,#20,(#36));
#39=IFCCARTESIANPOINT((0.,0.,0.));
#40=IFCDIRECTION((0.,0.,1.));
#41=IFCDIRECTION((1.,0.,0.));
#42=IFCAXIS2PLACEMENT3D(#39,#40,#41);
#43=IFCLOCALPLACEMENT(#34,#42);
#44=IFCOWNERHISTORY(#3,#4,.READWRITE.,.MODIFIED.,1789749013,#3,#4,1789749013);
#45=IFCSPACE('3Kjv6Wxvz8UBfP_SShCShf',#44,'101',$,$,#52,#67,'Buero',$,.SPACE.,$);
#46=IFCOWNERHISTORY(#3,#4,.READWRITE.,.MODIFIED.,1789749013,#3,#4,1789749013);
#47=IFCRELAGGREGATES('0ezJT68Jv4fPJhH9r2ru7j',#46,$,$,#36,(#45,#585));
#48=IFCCARTESIANPOINT((0.,0.,0.));
#49=IFCDIRECTION((0.,0.,1.));
#50=IFCDIRECTION((1.,0.,0.));
#51=IFCAXIS2PLACEMENT3D(#48,#49,#50);
#52=IFCLOCALPLACEMENT(#43,#51);
#53=IFCCARTESIANPOINT((0.,0.,0.));
#54=IFCCARTESIANPOINT((4.,0.,0.));
#55=IFCCARTESIANPOINT((4.,5.,0.));
#56=IFCCARTESIANPOINT((0.,5.,0.));
#57=IFCCARTESIANPOINT((0.,0.,0.));
#58=IFCPOLYLINE((#53,#54,#55,#56,#57));
#59=IFCARBITRARYCLOSEDPROFILEDEF(.AREA.,$,#58);
#60=IFCCARTESIANPOINT((0.,0.,0.));
#61=IFCDIRECTION((0.,0.,1.));
#62=IFCDIRECTION((1.,0.,0.));
#63=IFCAXIS2PLACEMENT3D(#60,#61,#62);
#64=IFCDIRECTION((0.,0.,1.));
#65=IFCEXTRUDEDAREASOLID(#59,#63,#64,2.7999999999999998);
#66=IFCSHAPEREPRESENTATION(#16,'Body','SweptSolid',(#65));
#67=IFCPRODUCTDEFINITIONSHAPE($,$,(#66));
#68=IFCOWNERHISTORY(#3,#4,.READWRITE.,.ADDED.,1789749013,#3,#4,1789749013);
#69=IFCELEMENTQUANTITY('3_46dPMiX9Jg4VHGRAPB9y',#68,'Qto_SpaceBaseQuantities',$,'BaseQuantities',(#72,#73,#74,#75,#76,#77));
#70=IFCOWNERHISTORY(#3,#4,.READWRITE.,.ADDED.,1789749013,#3,#4,1789749013);
#71=IFCRELDEFINESBYPROPERTIES('0PtnvxpqPBvhh1ZuBl6TDX',#70,$,$,(#45),#69);
#72=IFCQUANTITYAREA('NetFloorArea',$,$,20.,$);
#73=IFCQUANTITYVOLUME('NetVolume',$,$,56.,$);
#74=IFCQUANTITYLENGTH('Height',$,$,2.7999999999999998,$);
#75=IFCQUANTITYLENGTH('FinishCeilingHeight',$,$,2.6000000000000001,$);
#76=IFCQUANTITYAREA('GrossFloorArea',$,$,20.,$);
#77=IFCQUANTITYVOLUME('GrossVolume',$,$,56.,$);
#78=IFCOWNERHISTORY(#3,#4,.READWRITE.,.ADDED.,1789749013,#3,#4,1789749013);
#79=IFCPROPERTYSET('0KlkUHSPP7xPiuLwyTB3sJ',#78,'Pset_SpaceCommon',$,(#82,#83,#84));
#80=IFCOWNERHISTORY(#3,#4,.READWRITE.,.ADDED.,1789749013,#3,#4,1789749013);
#81=IFCRELDEFINESBYPROPERTIES('0PeAUD3XHAShX0FaDeom3u',#80,$,$,(#45),#79);
#82=IFCPROPERTYSINGLEVALUE('Reference',$,IFCIDENTIFIER('HNF'),$);
#83=IFCPROPERTYSINGLEVALUE('IsExternal',$,IFCBOOLEAN(.F.),$);
#84=IFCPROPERTYSINGLEVALUE('NetPlannedArea',$,IFCAREAMEASURE(1.),$);
#85=IFCOWNERHISTORY(#3,#4,.READWRITE.,.ADDED.,1789749013,#3,#4,1789749013);
#86=IFCPROPERTYSET('2eSnK7mPTDCfJiHDVSNe7q',#85,'ePset_Space',$,(#89));
#87=IFCOWNERHISTORY(#3,#4,.READWRITE.,.ADDED.,1789749013,#3,#4,1789749013);
#88=IFCRELDEFINESBYPROPERTIES('0WCvi3fAPEIARisT5SZ14W',#87,$,$,(#45),#86);
#89=IFCPROPERTYSINGLEVALUE('SignageRoomNumber',$,IFCIDENTIFIER('101'),$);
#90=IFCOWNERHISTORY(#3,#4,.READWRITE.,.ADDED.,1789749013,#3,#4,1789749013);
#91=IFCPROPERTYSET('38aqq_j3nFLOApFExWJfZE',#90,'Pset_SpaceCoveringRequirements',$,(#94));
#92=IFCOWNERHISTORY(#3,#4,.READWRITE.,.ADDED.,1789749013,#3,#4,1789749013);
#93=IFCRELDEFINESBYPROPERTIES('1TiSLAUQr2$g4rfq55mUPw',#92,$,$,(#45),#91);
#94=IFCPROPERTYSINGLEVALUE('FloorCovering',$,IFCLABEL('Teppich'),$);
#95=IFCOWNERHISTORY(#3,#4,.READWRITE.,.ADDED.,1789749013,#3,#4,1789749013);
#96=IFCPROPERTYSET('0zv5nMUu1DffYMH9rlmA69',#95,'Pset_SpaceThermalDesign',$,(#99));
#97=IFCOWNERHISTORY(#3,#4,.READWRITE.,.ADDED.,1789749013,#3,#4,1789749013);
#98=IFCRELDEFINESBYPROPERTIES('3D0yn8OPT5ghhx30u_nRc1',#97,$,$,(#45),#96);
#99=IFCPROPERTYSINGLEVALUE('TotalHeatLoss',$,IFCPOWERMEASURE(1.),$);
#100=IFCOWNERHISTORY(#3,#4,.READWRITE.,.ADDED.,1789749013,#3,#4,1789749013);
#101=IFCPROPERTYSET('0q7g8DN75AQfSoXRxETgjZ',#100,'ePset_SpaceRequirement',$,(#104,#105,#106));
#102=IFCOWNERHISTORY(#3,#4,.READWRITE.,.ADDED.,1789749013,#3,#4,1789749013);
#103=IFCRELDEFINESBYPROPERTIES('3nSOhFczXEBhRfSFJAXM1Y',#102,$,$,(#45),#101);
#104=IFCPROPERTYSINGLEVALUE('DesignAreaLoad',$,IFCREAL(3.),$);
#105=IFCPROPERTYSINGLEVALUE('DesignPointLoad',$,IFCREAL(2.),$);
#106=IFCPROPERTYSINGLEVALUE('VibrationRequirements',$,IFCLABEL('ISO Office'),$);
#107=IFCOWNERHISTORY(#3,#4,.READWRITE.,.ADDED.,1789749013,#3,#4,1789749013);
#108=IFCPROPERTYSET('00c4z2FF90c9p_EZaZKkX7',#107,'ePset_Space',$,(#111));
#109=IFCOWNERHISTORY(#3,#4,.READWRITE.,.ADDED.,1789749013,#3,#4,1789749013);
#110=IFCRELDEFINESBYPROPERTIES('0JS0VsKpnBBhambJjvCwA3',#109,$,$,(#45),#108);
#111=IFCPROPERTYSINGLEVALUE('Checkliste',$,IFCTEXT('Bodenbelag; Elektro; Beleuchtung'),$);
#112=IFCOWNERHISTORY(#3,#4,.READWRITE.,.ADDED.,1789749013,#3,#4,1789749013);
#113=IFCPROPERTYSET('2kMLEim_97qxhhn2dmlpX5',#112,'ePset_Space',$,(#116,#117));
#114=IFCOWNERHISTORY(#3,#4,.READWRITE.,.ADDED.,1789749013,#3,#4,1789749013);
#115=IFCRELDEFINESBYPROPERTIES('0Cbv_uJej6mfS4f6vk7fd1',#114,$,$,(#45),#113);
#116=IFCPROPERTYSINGLEVALUE('UsageUnitReference',$,IFCIDENTIFIER('UsageUnitReference'),$);
#117=IFCPROPERTYSINGLEVALUE('FireCompartmentReference',$,IFCIDENTIFIER('FireCompartmentReference'),$);
#118=IFCOWNERHISTORY(#3,#4,.READWRITE.,.MODIFIED.,1789749013,#3,#4,1789749013);
#119=IFCSLAB('14EFeB8j9E0OseXWUI82Ma',#118,'101-FloorSlab',$,$,#126,#141,$,.FLOOR.);
#120=IFCOWNERHISTORY(#3,#4,.READWRITE.,.MODIFIED.,1789749013,#3,#4,1789749013);
#121=IFCRELCONTAINEDINSPATIALSTRUCTURE('2xb5ZIjrf7TPqA930BYgUj',#120,$,$,(#143,#456,#231,#468,#333,#165,#187,#209,#253,#119,#574),#36);
#122=IFCCARTESIANPOINT((0.,0.,-0.40000000000000002));
#123=IFCDIRECTION((0.,0.,1.));
#124=IFCDIRECTION((1.,0.,0.));
#125=IFCAXIS2PLACEMENT3D(#122,#123,#124);
#126=IFCLOCALPLACEMENT(#43,#125);
#127=IFCCARTESIANPOINT((-0.35999999999999999,-0.35999999999999999,0.));
#128=IFCCARTESIANPOINT((7.5600000000000005,-0.35999999999999999,0.));
#129=IFCCARTESIANPOINT((7.5600000000000005,5.,0.));
#130=IFCCARTESIANPOINT((-0.35999999999999999,5.,0.));
#131=IFCCARTESIANPOINT((-0.35999999999999999,-0.35999999999999999,0.));
#132=IFCPOLYLINE((#127,#128,#129,#130,#131));
#133=IFCARBITRARYCLOSEDPROFILEDEF(.AREA.,$,#132);
#134=IFCCARTESIANPOINT((0.,0.,0.));
#135=IFCDIRECTION((0.,0.,1.));
#136=IFCDIRECTION((1.,0.,0.));
#137=IFCAXIS2PLACEMENT3D(#134,#135,#136);
#138=IFCDIRECTION((0.,0.,1.));
#139=IFCEXTRUDEDAREASOLID(#133,#137,#138,0.29999999999999999);
#140=IFCSHAPEREPRESENTATION(#16,'Body','SweptSolid',(#139));
#141=IFCPRODUCTDEFINITIONSHAPE($,$,(#140));
#142=IFCOWNERHISTORY(#3,#4,.READWRITE.,.MODIFIED.,1789749013,#3,#4,1789749013);
#143=IFCCOVERING('1N6svjDL5BK9rODdqHcZRm',#142,'101-FloorCovering',$,$,#148,#163,$,.FLOORING.);
#144=IFCCARTESIANPOINT((0.,0.,-0.10000000000000001));
#145=IFCDIRECTION((0.,0.,1.));
#146=IFCDIRECTION((1.,0.,0.));
#147=IFCAXIS2PLACEMENT3D(#144,#145,#146);
#148=IFCLOCALPLACEMENT(#43,#147);
#149=IFCCARTESIANPOINT((0.,0.,0.));
#150=IFCCARTESIANPOINT((4.,0.,0.));
#151=IFCCARTESIANPOINT((4.,5.,0.));
#152=IFCCARTESIANPOINT((0.,5.,0.));
#153=IFCCARTESIANPOINT((0.,0.,0.));
#154=IFCPOLYLINE((#149,#150,#151,#152,#153));
#155=IFCARBITRARYCLOSEDPROFILEDEF(.AREA.,$,#154);
#156=IFCCARTESIANPOINT((0.,0.,0.));
#157=IFCDIRECTION((0.,0.,1.));
#158=IFCDIRECTION((1.,0.,0.));
#159=IFCAXIS2PLACEMENT3D(#156,#157,#158);
#160=IFCDIRECTION((0.,0.,1.));
#161=IFCEXTRUDEDAREASOLID(#155,#159,#160,0.10000000000000001);
#162=IFCSHAPEREPRESENTATION(#16,'Body','SweptSolid',(#161));
#163=IFCPRODUCTDEFINITIONSHAPE($,$,(#162));
#164=IFCOWNERHISTORY(#3,#4,.READWRITE.,.MODIFIED.,1789749013,#3,#4,1789749013);
#165=IFCCOVERING('2Tk$4tAqr4cwPLAQnNIM9N',#164,'101-N-FloorCovering',$,$,#170,#185,$,.FLOORING.);
#166=IFCCARTESIANPOINT((0.,0.,-0.10000000000000001));
#167=IFCDIRECTION((0.,0.,1.));
#168=IFCDIRECTION((1.,0.,0.));
#169=IFCAXIS2PLACEMENT3D(#166,#167,#168);
#170=IFCLOCALPLACEMENT(#43,#169);
#171=IFCCARTESIANPOINT((4.2000000000000002,0.,0.));
#172=IFCCARTESIANPOINT((7.2000000000000002,0.,0.));
#173=IFCCARTESIANPOINT((7.2000000000000002,5.,0.));
#174=IFCCARTESIANPOINT((4.2000000000000002,5.,0.));
#175=IFCCARTESIANPOINT((4.2000000000000002,0.,0.));
#176=IFCPOLYLINE((#171,#172,#173,#174,#175));
#177=IFCARBITRARYCLOSEDPROFILEDEF(.AREA.,$,#176);
#178=IFCCARTESIANPOINT((0.,0.,0.));
#179=IFCDIRECTION((0.,0.,1.));
#180=IFCDIRECTION((1.,0.,0.));
#181=IFCAXIS2PLACEMENT3D(#178,#179,#180);
#182=IFCDIRECTION((0.,0.,1.));
#183=IFCEXTRUDEDAREASOLID(#177,#181,#182,0.10000000000000001);
#184=IFCSHAPEREPRESENTATION(#16,'Body','SweptSolid',(#183));
#185=IFCPRODUCTDEFINITIONSHAPE($,$,(#184));
#186=IFCOWNERHISTORY(#3,#4,.READWRITE.,.MODIFIED.,1789749013,#3,#4,1789749013);
#187=IFCWALL('2KQR9TrnXCtBYk07_bIavR',#186,'101-Partition',$,$,#192,#207,$,.PARTITIONING.);
#188=IFCCARTESIANPOINT((4.2000000000000002,0.,-0.10000000000000001));
#189=IFCDIRECTION((0.,0.,1.));
#190=IFCDIRECTION((0.,1.,0.));
#191=IFCAXIS2PLACEMENT3D(#188,#189,#190);
#192=IFCLOCALPLACEMENT(#43,#191);
#193=IFCCARTESIANPOINT((0.,0.,0.));
#194=IFCCARTESIANPOINT((5.,0.,0.));
#195=IFCCARTESIANPOINT((5.,0.20000000000000001,0.));
#196=IFCCARTESIANPOINT((0.,0.20000000000000001,0.));
#197=IFCCARTESIANPOINT((0.,0.,0.));
#198=IFCPOLYLINE((#193,#194,#195,#196,#197));
#199=IFCARBITRARYCLOSEDPROFILEDEF(.AREA.,$,#198);
#200=IFCCARTESIANPOINT((0.,0.,0.));
#201=IFCDIRECTION((0.,0.,1.));
#202=IFCDIRECTION((1.,0.,0.));
#203=IFCAXIS2PLACEMENT3D(#200,#201,#202);
#204=IFCDIRECTION((0.,0.,1.));
#205=IFCEXTRUDEDAREASOLID(#199,#203,#204,2.8999999999999999);
#206=IFCSHAPEREPRESENTATION(#16,'Body','SweptSolid',(#205));
#207=IFCPRODUCTDEFINITIONSHAPE($,$,(#206));
#208=IFCOWNERHISTORY(#3,#4,.READWRITE.,.MODIFIED.,1789749013,#3,#4,1789749013);
#209=IFCWALL('1Pe7iZE7r42vs1J7htDpNI',#208,'101-EnvelopeWest',$,$,#214,#229,$,.SOLIDWALL.);
#210=IFCCARTESIANPOINT((0.,0.,-0.10000000000000001));
#211=IFCDIRECTION((0.,0.,1.));
#212=IFCDIRECTION((0.,1.,0.));
#213=IFCAXIS2PLACEMENT3D(#210,#211,#212);
#214=IFCLOCALPLACEMENT(#43,#213);
#215=IFCCARTESIANPOINT((0.,0.,0.));
#216=IFCCARTESIANPOINT((5.,0.,0.));
#217=IFCCARTESIANPOINT((5.,0.35999999999999999,0.));
#218=IFCCARTESIANPOINT((0.,0.35999999999999999,0.));
#219=IFCCARTESIANPOINT((0.,0.,0.));
#220=IFCPOLYLINE((#215,#216,#217,#218,#219));
#221=IFCARBITRARYCLOSEDPROFILEDEF(.AREA.,$,#220);
#222=IFCCARTESIANPOINT((0.,0.,0.));
#223=IFCDIRECTION((0.,0.,1.));
#224=IFCDIRECTION((1.,0.,0.));
#225=IFCAXIS2PLACEMENT3D(#222,#223,#224);
#226=IFCDIRECTION((0.,0.,1.));
#227=IFCEXTRUDEDAREASOLID(#221,#225,#226,2.8999999999999999);
#228=IFCSHAPEREPRESENTATION(#16,'Body','SweptSolid',(#227));
#229=IFCPRODUCTDEFINITIONSHAPE($,$,(#228));
#230=IFCOWNERHISTORY(#3,#4,.READWRITE.,.MODIFIED.,1789749013,#3,#4,1789749013);
#231=IFCWALL('2xA0X_wen4KBs0DesWtQg9',#230,'101-EnvelopeEast',$,$,#236,#251,$,.SOLIDWALL.);
#232=IFCCARTESIANPOINT((7.5600000000000005,0.,-0.10000000000000001));
#233=IFCDIRECTION((0.,0.,1.));
#234=IFCDIRECTION((0.,1.,0.));
#235=IFCAXIS2PLACEMENT3D(#232,#233,#234);
#236=IFCLOCALPLACEMENT(#43,#235);
#237=IFCCARTESIANPOINT((0.,0.,0.));
#238=IFCCARTESIANPOINT((5.,0.,0.));
#239=IFCCARTESIANPOINT((5.,0.35999999999999999,0.));
#240=IFCCARTESIANPOINT((0.,0.35999999999999999,0.));
#241=IFCCARTESIANPOINT((0.,0.,0.));
#242=IFCPOLYLINE((#237,#238,#239,#240,#241));
#243=IFCARBITRARYCLOSEDPROFILEDEF(.AREA.,$,#242);
#244=IFCCARTESIANPOINT((0.,0.,0.));
#245=IFCDIRECTION((0.,0.,1.));
#246=IFCDIRECTION((1.,0.,0.));
#247=IFCAXIS2PLACEMENT3D(#244,#245,#246);
#248=IFCDIRECTION((0.,0.,1.));
#249=IFCEXTRUDEDAREASOLID(#243,#247,#248,2.8999999999999999);
#250=IFCSHAPEREPRESENTATION(#16,'Body','SweptSolid',(#249));
#251=IFCPRODUCTDEFINITIONSHAPE($,$,(#250));
#252=IFCOWNERHISTORY(#3,#4,.READWRITE.,.MODIFIED.,1789749013,#3,#4,1789749013);
#253=IFCWALL('09C0KdMkHFSB1P8aF8ZOtn',#252,'101-EnvelopeSouth',$,$,#258,#273,$,.SOLIDWALL.);
#254=IFCCARTESIANPOINT((-0.35999999999999999,-0.35999999999999999,-0.10000000000000001));
#255=IFCDIRECTION((0.,0.,1.));
#256=IFCDIRECTION((1.,0.,0.));
#257=IFCAXIS2PLACEMENT3D(#254,#255,#256);
#258=IFCLOCALPLACEMENT(#43,#257);
#259=IFCCARTESIANPOINT((0.,0.,0.));
#260=IFCCARTESIANPOINT((7.9199999999999999,0.,0.));
#261=IFCCARTESIANPOINT((7.9199999999999999,0.35999999999999999,0.));
#262=IFCCARTESIANPOINT((0.,0.35999999999999999,0.));
#263=IFCCARTESIANPOINT((0.,0.,0.));
#264=IFCPOLYLINE((#259,#260,#261,#262,#263));
#265=IFCARBITRARYCLOSEDPROFILEDEF(.AREA.,$,#264);
#266=IFCCARTESIANPOINT((0.,0.,0.));
#267=IFCDIRECTION((0.,0.,1.));
#268=IFCDIRECTION((1.,0.,0.));
#269=IFCAXIS2PLACEMENT3D(#266,#267,#268);
#270=IFCDIRECTION((0.,0.,1.));
#271=IFCEXTRUDEDAREASOLID(#265,#269,#270,2.8999999999999999);
#272=IFCSHAPEREPRESENTATION(#16,'Body','SweptSolid',(#271));
#273=IFCPRODUCTDEFINITIONSHAPE($,$,(#272));
#274=IFCOWNERHISTORY(#3,#4,.READWRITE.,.MODIFIED.,1789749013,#3,#4,1789749013);
#275=IFCOPENINGELEMENT('3oBuGiSsDDL8li4gi3HO4u',#274,'101-DoorOpening',$,$,#302,#295,$,.OPENING.);
#281=IFCCARTESIANPOINT((3.6999999999999997,-0.01,0.));
#282=IFCCARTESIANPOINT((4.5999999999999996,-0.01,0.));
#283=IFCCARTESIANPOINT((4.5999999999999996,0.22,0.));
#284=IFCCARTESIANPOINT((3.6999999999999997,0.22,0.));
#285=IFCCARTESIANPOINT((3.6999999999999997,-0.01,0.));
#286=IFCPOLYLINE((#281,#282,#283,#284,#285));
#287=IFCARBITRARYCLOSEDPROFILEDEF(.AREA.,$,#286);
#288=IFCCARTESIANPOINT((0.,0.,0.));
#289=IFCDIRECTION((0.,0.,1.));
#290=IFCDIRECTION((1.,0.,0.));
#291=IFCAXIS2PLACEMENT3D(#288,#289,#290);
#292=IFCDIRECTION((0.,0.,1.));
#293=IFCEXTRUDEDAREASOLID(#287,#291,#292,2.1000000000000001);
#294=IFCSHAPEREPRESENTATION(#16,'Body','SweptSolid',(#293));
#295=IFCPRODUCTDEFINITIONSHAPE($,$,(#294));
#296=IFCOWNERHISTORY(#3,#4,.READWRITE.,.ADDED.,1789749013,#3,#4,1789749013);
#297=IFCRELVOIDSELEMENT('0JKbbNZOn6mxRWCLaQclXN',#296,$,$,#187,#275);
#298=IFCCARTESIANPOINT((0.,0.,0.));
#299=IFCDIRECTION((0.,0.,1.));
#300=IFCDIRECTION((1.,0.,0.));
#301=IFCAXIS2PLACEMENT3D(#298,#299,#300);
#302=IFCLOCALPLACEMENT(#192,#301);
#303=IFCOWNERHISTORY(#3,#4,.READWRITE.,.MODIFIED.,1789749013,#3,#4,1789749013);
#304=IFCOPENINGELEMENT('3IJwB5Z0D48wNSFdnto1tO',#303,'101-WindowOpening',$,$,#331,#324,$,.OPENING.);
#310=IFCCARTESIANPOINT((0.40000000000000002,-0.01,0.));
#311=IFCCARTESIANPOINT((1.6000000000000001,-0.01,0.));
#312=IFCCARTESIANPOINT((1.6000000000000001,0.22,0.));
#313=IFCCARTESIANPOINT((0.40000000000000002,0.22,0.));
#314=IFCCARTESIANPOINT((0.40000000000000002,-0.01,0.));
#315=IFCPOLYLINE((#310,#311,#312,#313,#314));
#316=IFCARBITRARYCLOSEDPROFILEDEF(.AREA.,$,#315);
#317=IFCCARTESIANPOINT((0.,0.,0.90000000000000002));
#318=IFCDIRECTION((0.,0.,1.));
#319=IFCDIRECTION((1.,0.,0.));
#320=IFCAXIS2PLACEMENT3D(#317,#318,#319);
#321=IFCDIRECTION((0.,0.,1.));
#322=IFCEXTRUDEDAREASOLID(#316,#320,#321,1.3999999999999999);
#323=IFCSHAPEREPRESENTATION(#16,'Body','SweptSolid',(#322));
#324=IFCPRODUCTDEFINITIONSHAPE($,$,(#323));
#325=IFCOWNERHISTORY(#3,#4,.READWRITE.,.ADDED.,1789749013,#3,#4,1789749013);
#326=IFCRELVOIDSELEMENT('1ZfKaTOzfByAAlsaZBccDi',#325,$,$,#187,#304);
#327=IFCCARTESIANPOINT((0.,0.,0.));
#328=IFCDIRECTION((0.,0.,1.));
#329=IFCDIRECTION((1.,0.,0.));
#330=IFCAXIS2PLACEMENT3D(#327,#328,#329);
#331=IFCLOCALPLACEMENT(#192,#330);
#332=IFCOWNERHISTORY(#3,#4,.READWRITE.,.MODIFIED.,1789749013,#3,#4,1789749013);
#333=IFCDOOR('1YhjQdtJPFHR62eyU5PDFh',#332,'101-InteriorDoor',$,$,#338,#445,$,$,$,.DOOR.,$,$);
#334=IFCCARTESIANPOINT((4.2000000000000002,0.,-0.10000000000000001));
#335=IFCDIRECTION((0.,0.,1.));
#336=IFCDIRECTION((0.,1.,0.));
#337=IFCAXIS2PLACEMENT3D(#334,#335,#336);
#338=IFCLOCALPLACEMENT(#43,#337);
#339=IFCCARTESIANPOINT((3.6999999999999997,-0.,0.));
#340=IFCCARTESIANPOINT((3.7999999999999998,-0.,0.));
#341=IFCCARTESIANPOINT((3.7999999999999998,0.11000000000000001,0.));
#342=IFCCARTESIANPOINT((3.6999999999999997,0.11000000000000001,0.));
#343=IFCCARTESIANPOINT((3.6999999999999997,-0.,0.));
#344=IFCPOLYLINE((#339,#340,#341,#342,#343));
#345=IFCARBITRARYCLOSEDPROFILEDEF(.AREA.,$,#344);
#346=IFCCARTESIANPOINT((0.,0.,0.));
#347=IFCDIRECTION((0.,0.,1.));
#348=IFCDIRECTION((1.,0.,0.));
#349=IFCAXIS2PLACEMENT3D(#346,#347,#348);
#350=IFCDIRECTION((0.,0.,1.));
#351=IFCEXTRUDEDAREASOLID(#345,#349,#350,2.1000000000000001);
#352=IFCCARTESIANPOINT((4.5,-0.,0.));
#353=IFCCARTESIANPOINT((4.5999999999999996,-0.,0.));
#354=IFCCARTESIANPOINT((4.5999999999999996,0.11000000000000001,0.));
#355=IFCCARTESIANPOINT((4.5,0.11000000000000001,0.));
#356=IFCCARTESIANPOINT((4.5,-0.,0.));
#357=IFCPOLYLINE((#352,#353,#354,#355,#356));
#358=IFCARBITRARYCLOSEDPROFILEDEF(.AREA.,$,#357);
#359=IFCCARTESIANPOINT((0.,0.,0.));
#360=IFCDIRECTION((0.,0.,1.));
#361=IFCDIRECTION((1.,0.,0.));
#362=IFCAXIS2PLACEMENT3D(#359,#360,#361);
#363=IFCDIRECTION((0.,0.,1.));
#364=IFCEXTRUDEDAREASOLID(#358,#362,#363,2.1000000000000001);
#365=IFCCARTESIANPOINT((3.7999999999999998,-0.,0.));
#366=IFCCARTESIANPOINT((4.5,-0.,0.));
#367=IFCCARTESIANPOINT((4.5,0.11000000000000001,0.));
#368=IFCCARTESIANPOINT((3.7999999999999998,0.11000000000000001,0.));
#369=IFCCARTESIANPOINT((3.7999999999999998,-0.,0.));
#370=IFCPOLYLINE((#365,#366,#367,#368,#369));
#371=IFCARBITRARYCLOSEDPROFILEDEF(.AREA.,$,#370);
#372=IFCCARTESIANPOINT((0.,0.,2.));
#373=IFCDIRECTION((0.,0.,1.));
#374=IFCDIRECTION((1.,0.,0.));
#375=IFCAXIS2PLACEMENT3D(#372,#373,#374);
#376=IFCDIRECTION((0.,0.,1.));
#377=IFCEXTRUDEDAREASOLID(#371,#375,#376,0.10000000000000009);
#378=IFCCARTESIANPOINT((3.7999999999999998,-0.,0.));
#379=IFCCARTESIANPOINT((4.5,-0.,0.));
#380=IFCCARTESIANPOINT((4.5,0.11000000000000001,0.));
#381=IFCCARTESIANPOINT((3.7999999999999998,0.11000000000000001,0.));
#382=IFCCARTESIANPOINT((3.7999999999999998,-0.,0.));
#383=IFCPOLYLINE((#378,#379,#380,#381,#382));
#384=IFCARBITRARYCLOSEDPROFILEDEF(.AREA.,$,#383);
#385=IFCCARTESIANPOINT((0.,0.,0.));
#386=IFCDIRECTION((0.,0.,1.));
#387=IFCDIRECTION((1.,0.,0.));
#388=IFCAXIS2PLACEMENT3D(#385,#386,#387);
#389=IFCDIRECTION((0.,0.,1.));
#390=IFCEXTRUDEDAREASOLID(#384,#388,#389,0.025000000000000001);
#391=IFCCARTESIANPOINT((3.7999999999999998,-0.,0.));
#392=IFCCARTESIANPOINT((4.5,-0.,0.));
#393=IFCCARTESIANPOINT((4.5,0.11000000000000001,0.));
#394=IFCCARTESIANPOINT((3.7999999999999998,0.11000000000000001,0.));
#395=IFCCARTESIANPOINT((3.7999999999999998,-0.,0.));
#396=IFCPOLYLINE((#391,#392,#393,#394,#395));
#397=IFCARBITRARYCLOSEDPROFILEDEF(.AREA.,$,#396);
#398=IFCCARTESIANPOINT((0.,0.,1.0662500000000001));
#399=IFCDIRECTION((0.,0.,1.));
#400=IFCDIRECTION((1.,0.,0.));
#401=IFCAXIS2PLACEMENT3D(#398,#399,#400);
#402=IFCDIRECTION((0.,0.,1.));
#403=IFCEXTRUDEDAREASOLID(#397,#401,#402,0.089999999999999858);
#404=IFCCARTESIANPOINT((3.7999999999999998,0.014999999999999999,0.));
#405=IFCCARTESIANPOINT((4.5,0.014999999999999999,0.));
#406=IFCCARTESIANPOINT((4.5,0.055,0.));
#407=IFCCARTESIANPOINT((3.7999999999999998,0.055,0.));
#408=IFCCARTESIANPOINT((3.7999999999999998,0.014999999999999999,0.));
#409=IFCPOLYLINE((#404,#405,#406,#407,#408));
#410=IFCARBITRARYCLOSEDPROFILEDEF(.AREA.,$,#409);
#411=IFCCARTESIANPOINT((0.,0.,0.025000000000000001));
#412=IFCDIRECTION((0.,0.,1.));
#413=IFCDIRECTION((1.,0.,0.));
#414=IFCAXIS2PLACEMENT3D(#411,#412,#413);
#415=IFCDIRECTION((0.,0.,1.));
#416=IFCEXTRUDEDAREASOLID(#410,#414,#415,1.0412500000000002);
#417=IFCCARTESIANPOINT((3.7999999999999998,0.014999999999999999,0.));
#418=IFCCARTESIANPOINT((4.5,0.014999999999999999,0.));
#419=IFCCARTESIANPOINT((4.5,0.055,0.));
#420=IFCCARTESIANPOINT((3.7999999999999998,0.055,0.));
#421=IFCCARTESIANPOINT((3.7999999999999998,0.014999999999999999,0.));
#422=IFCPOLYLINE((#417,#418,#419,#420,#421));
#423=IFCARBITRARYCLOSEDPROFILEDEF(.AREA.,$,#422);
#424=IFCCARTESIANPOINT((0.,0.,1.15625));
#425=IFCDIRECTION((0.,0.,1.));
#426=IFCDIRECTION((1.,0.,0.));
#427=IFCAXIS2PLACEMENT3D(#424,#425,#426);
#428=IFCDIRECTION((0.,0.,1.));
#429=IFCEXTRUDEDAREASOLID(#423,#427,#428,0.84375);
#430=IFCSURFACESTYLE('Frame',.BOTH.,(#431));
#431=IFCSURFACESTYLESHADING(#432,0.);
#432=IFCCOLOURRGB($,1.,1.,1.);
#433=IFCSURFACESTYLE('Glass',.BOTH.,(#434));
#434=IFCSURFACESTYLESHADING(#435,0.69999999999999996);
#435=IFCCOLOURRGB($,0.69999999999999996,0.84999999999999998,0.94999999999999996);
#436=IFCMATERIAL('Frame',$,'metal');
#437=IFCMATERIAL('Glass',$,'glass');
#438=IFCSTYLEDITEM($,(#430),'Frame');
#439=IFCSTYLEDREPRESENTATION(#16,'Body',$,(#438));
#440=IFCMATERIALDEFINITIONREPRESENTATION($,$,(#439),#436);
#441=IFCSTYLEDITEM($,(#433),'Glass');
#442=IFCSTYLEDREPRESENTATION(#16,'Body',$,(#441));
#443=IFCMATERIALDEFINITIONREPRESENTATION($,$,(#442),#437);
#444=IFCSHAPEREPRESENTATION(#16,'Body','SweptSolid',(#351,#364,#377,#390,#403,#416));
#445=IFCPRODUCTDEFINITIONSHAPE($,$,(#444));
#446=IFCSTYLEDITEM(#351,(#430),$);
#447=IFCSTYLEDITEM(#364,(#430),$);
#448=IFCSTYLEDITEM(#377,(#430),$);
#449=IFCSTYLEDITEM(#390,(#430),$);
#450=IFCSTYLEDITEM(#403,(#430),$);
#451=IFCSTYLEDITEM(#416,(#430),$);
#452=IFCOWNERHISTORY(#3,#4,.READWRITE.,.MODIFIED.,1789749013,#3,#4,1789749013);
#453=IFCRELASSOCIATESMATERIAL('3fTHBOnLPCReKR5wKXdIH$',#452,$,$,(#333,#468),#436);
#454=IFCRELFILLSELEMENT('15eE8w7Iv67gel$amKjOpo',$,$,$,#275,#333);
#455=IFCOWNERHISTORY(#3,#4,.READWRITE.,.MODIFIED.,1789749013,#3,#4,1789749013);
#456=IFCPLATE('3f6v8sMYX0pAED1MqsvNoq',#455,'101-InteriorDoor-Glass',$,'Glass',#461,#463,$,.CURTAIN_PANEL.);
#457=IFCCARTESIANPOINT((4.2000000000000002,0.,-0.10000000000000001));
#458=IFCDIRECTION((0.,0.,1.));
#459=IFCDIRECTION((0.,1.,0.));
#460=IFCAXIS2PLACEMENT3D(#457,#458,#459);
#461=IFCLOCALPLACEMENT(#43,#460);
#462=IFCSHAPEREPRESENTATION(#16,'Body','SweptSolid',(#429));
#463=IFCPRODUCTDEFINITIONSHAPE($,$,(#462));
#464=IFCSTYLEDITEM(#429,(#433),$);
#465=IFCOWNERHISTORY(#3,#4,.READWRITE.,.MODIFIED.,1789749013,#3,#4,1789749013);
#466=IFCRELASSOCIATESMATERIAL('29cEto9oDCPAEdwp0W938s',#465,$,$,(#456,#574),#437);
#467=IFCOWNERHISTORY(#3,#4,.READWRITE.,.MODIFIED.,1789749013,#3,#4,1789749013);
#468=IFCWINDOW('31vrcs9HTB3x9GW0HloTmx',#467,'101-InteriorWindow',$,$,#473,#566,$,$,$,.WINDOW.,$,$);
#469=IFCCARTESIANPOINT((4.2000000000000002,0.,-0.10000000000000001));
#470=IFCDIRECTION((0.,0.,1.));
#471=IFCDIRECTION((0.,1.,0.));
#472=IFCAXIS2PLACEMENT3D(#469,#470,#471);
#473=IFCLOCALPLACEMENT(#43,#472);
#474=IFCCARTESIANPOINT((0.40000000000000002,-0.,0.));
#475=IFCCARTESIANPOINT((0.5,-0.,0.));
#476=IFCCARTESIANPOINT((0.5,0.11000000000000001,0.));
#477=IFCCARTESIANPOINT((0.40000000000000002,0.11000000000000001,0.));
#478=IFCCARTESIANPOINT((0.40000000000000002,-0.,0.));
#479=IFCPOLYLINE((#474,#475,#476,#477,#478));
#480=IFCARBITRARYCLOSEDPROFILEDEF(.AREA.,$,#479);
#481=IFCCARTESIANPOINT((0.,0.,0.90000000000000002));
#482=IFCDIRECTION((0.,0.,1.));
#483=IFCDIRECTION((1.,0.,0.));
#484=IFCAXIS2PLACEMENT3D(#481,#482,#483);
#485=IFCDIRECTION((0.,0.,1.));
#486=IFCEXTRUDEDAREASOLID(#480,#484,#485,1.3999999999999999);
#487=IFCCARTESIANPOINT((1.5,-0.,0.));
#488=IFCCARTESIANPOINT((1.6000000000000001,-0.,0.));
#489=IFCCARTESIANPOINT((1.6000000000000001,0.11000000000000001,0.));
#490=IFCCARTESIANPOINT((1.5,0.11000000000000001,0.));
#491=IFCCARTESIANPOINT((1.5,-0.,0.));
#492=IFCPOLYLINE((#487,#488,#489,#490,#491));
#493=IFCARBITRARYCLOSEDPROFILEDEF(.AREA.,$,#492);
#494=IFCCARTESIANPOINT((0.,0.,0.90000000000000002));
#495=IFCDIRECTION((0.,0.,1.));
#496=IFCDIRECTION((1.,0.,0.));
#497=IFCAXIS2PLACEMENT3D(#494,#495,#496);
#498=IFCDIRECTION((0.,0.,1.));
#499=IFCEXTRUDEDAREASOLID(#493,#497,#498,1.3999999999999999);
#500=IFCCARTESIANPOINT((0.5,-0.,0.));
#501=IFCCARTESIANPOINT((1.5,-0.,0.));
#502=IFCCARTESIANPOINT((1.5,0.11000000000000001,0.));
#503=IFCCARTESIANPOINT((0.5,0.11000000000000001,0.));
#504=IFCCARTESIANPOINT((0.5,-0.,0.));
#505=IFCPOLYLINE((#500,#501,#502,#503,#504));
#506=IFCARBITRARYCLOSEDPROFILEDEF(.AREA.,$,#505);
#507=IFCCARTESIANPOINT((0.,0.,2.1999999999999997));
#508=IFCDIRECTION((0.,0.,1.));
#509=IFCDIRECTION((1.,0.,0.));
#510=IFCAXIS2PLACEMENT3D(#507,#508,#509);
#511=IFCDIRECTION((0.,0.,1.));
#512=IFCEXTRUDEDAREASOLID(#506,#510,#511,0.10000000000000009);
#513=IFCCARTESIANPOINT((0.5,-0.,0.));
#514=IFCCARTESIANPOINT((1.5,-0.,0.));
#515=IFCCARTESIANPOINT((1.5,0.11000000000000001,0.));
#516=IFCCARTESIANPOINT((0.5,0.11000000000000001,0.));
#517=IFCCARTESIANPOINT((0.5,-0.,0.));
#518=IFCPOLYLINE((#513,#514,#515,#516,#517));
#519=IFCARBITRARYCLOSEDPROFILEDEF(.AREA.,$,#518);
#520=IFCCARTESIANPOINT((0.,0.,0.90000000000000002));
#521=IFCDIRECTION((0.,0.,1.));
#522=IFCDIRECTION((1.,0.,0.));
#523=IFCAXIS2PLACEMENT3D(#520,#521,#522);
#524=IFCDIRECTION((0.,0.,1.));
#525=IFCEXTRUDEDAREASOLID(#519,#523,#524,0.099999999999999978);
#526=IFCCARTESIANPOINT((0.95999999999999996,-0.,0.));
#527=IFCCARTESIANPOINT((1.04,-0.,0.));
#528=IFCCARTESIANPOINT((1.04,0.11000000000000001,0.));
#529=IFCCARTESIANPOINT((0.95999999999999996,0.11000000000000001,0.));
#530=IFCCARTESIANPOINT((0.95999999999999996,-0.,0.));
#531=IFCPOLYLINE((#526,#527,#528,#529,#530));
#532=IFCARBITRARYCLOSEDPROFILEDEF(.AREA.,$,#531);
#533=IFCCARTESIANPOINT((0.,0.,1.));
#534=IFCDIRECTION((0.,0.,1.));
#535=IFCDIRECTION((1.,0.,0.));
#536=IFCAXIS2PLACEMENT3D(#533,#534,#535);
#537=IFCDIRECTION((0.,0.,1.));
#538=IFCEXTRUDEDAREASOLID(#532,#536,#537,1.1999999999999997);
#539=IFCCARTESIANPOINT((0.5,0.014999999999999999,0.));
#540=IFCCARTESIANPOINT((0.95999999999999996,0.014999999999999999,0.));
#541=IFCCARTESIANPOINT((0.95999999999999996,0.055,0.));
#542=IFCCARTESIANPOINT((0.5,0.055,0.));
#543=IFCCARTESIANPOINT((0.5,0.014999999999999999,0.));
#544=IFCPOLYLINE((#539,#540,#541,#542,#543));
#545=IFCARBITRARYCLOSEDPROFILEDEF(.AREA.,$,#544);
#546=IFCCARTESIANPOINT((0.,0.,1.));
#547=IFCDIRECTION((0.,0.,1.));
#548=IFCDIRECTION((1.,0.,0.));
#549=IFCAXIS2PLACEMENT3D(#546,#547,#548);
#550=IFCDIRECTION((0.,0.,1.));
#551=IFCEXTRUDEDAREASOLID(#545,#549,#550,1.1999999999999997);
#552=IFCCARTESIANPOINT((1.04,0.014999999999999999,0.));
#553=IFCCARTESIANPOINT((1.5,0.014999999999999999,0.));
#554=IFCCARTESIANPOINT((1.5,0.055,0.));
#555=IFCCARTESIANPOINT((1.04,0.055,0.));
#556=IFCCARTESIANPOINT((1.04,0.014999999999999999,0.));
#557=IFCPOLYLINE((#552,#553,#554,#555,#556));
#558=IFCARBITRARYCLOSEDPROFILEDEF(.AREA.,$,#557);
#559=IFCCARTESIANPOINT((0.,0.,1.));
#560=IFCDIRECTION((0.,0.,1.));
#561=IFCDIRECTION((1.,0.,0.));
#562=IFCAXIS2PLACEMENT3D(#559,#560,#561);
#563=IFCDIRECTION((0.,0.,1.));
#564=IFCEXTRUDEDAREASOLID(#558,#562,#563,1.1999999999999997);
#565=IFCSHAPEREPRESENTATION(#16,'Body','SweptSolid',(#486,#499,#512,#525,#538));
#566=IFCPRODUCTDEFINITIONSHAPE($,$,(#565));
#567=IFCSTYLEDITEM(#486,(#430),$);
#568=IFCSTYLEDITEM(#499,(#430),$);
#569=IFCSTYLEDITEM(#512,(#430),$);
#570=IFCSTYLEDITEM(#525,(#430),$);
#571=IFCSTYLEDITEM(#538,(#430),$);
#572=IFCRELFILLSELEMENT('3IMkr$SVf6euYXUOOFzsyS',$,$,$,#304,#468);
#573=IFCOWNERHISTORY(#3,#4,.READWRITE.,.MODIFIED.,1789749013,#3,#4,1789749013);
#574=IFCPLATE('29Il7H4ar6mPSuZbAbkWFl',#573,'101-InteriorWindow-Glass',$,'Glass',#579,#581,$,.CURTAIN_PANEL.);
#575=IFCCARTESIANPOINT((4.2000000000000002,0.,-0.10000000000000001));
#576=IFCDIRECTION((0.,0.,1.));
#577=IFCDIRECTION((0.,1.,0.));
#578=IFCAXIS2PLACEMENT3D(#575,#576,#577);
#579=IFCLOCALPLACEMENT(#43,#578);
#580=IFCSHAPEREPRESENTATION(#16,'Body','SweptSolid',(#551,#564));
#581=IFCPRODUCTDEFINITIONSHAPE($,$,(#580));
#582=IFCSTYLEDITEM(#551,(#433),$);
#583=IFCSTYLEDITEM(#564,(#433),$);
#584=IFCOWNERHISTORY(#3,#4,.READWRITE.,.MODIFIED.,1789749013,#3,#4,1789749013);
#585=IFCSPACE('3ob8J8q9DCWA$m8C$O6O0a',#584,'102',$,$,#590,#605,'Flur',$,.SPACE.,$);
#586=IFCCARTESIANPOINT((0.,0.,0.));
#587=IFCDIRECTION((0.,0.,1.));
#588=IFCDIRECTION((1.,0.,0.));
#589=IFCAXIS2PLACEMENT3D(#586,#587,#588);
#590=IFCLOCALPLACEMENT(#43,#589);
#591=IFCCARTESIANPOINT((4.2000000000000002,0.,0.));
#592=IFCCARTESIANPOINT((7.2000000000000002,0.,0.));
#593=IFCCARTESIANPOINT((7.2000000000000002,5.,0.));
#594=IFCCARTESIANPOINT((4.2000000000000002,5.,0.));
#595=IFCCARTESIANPOINT((4.2000000000000002,0.,0.));
#596=IFCPOLYLINE((#591,#592,#593,#594,#595));
#597=IFCARBITRARYCLOSEDPROFILEDEF(.AREA.,$,#596);
#598=IFCCARTESIANPOINT((0.,0.,0.));
#599=IFCDIRECTION((0.,0.,1.));
#600=IFCDIRECTION((1.,0.,0.));
#601=IFCAXIS2PLACEMENT3D(#598,#599,#600);
#602=IFCDIRECTION((0.,0.,1.));
#603=IFCEXTRUDEDAREASOLID(#597,#601,#602,2.7999999999999998);
#604=IFCSHAPEREPRESENTATION(#16,'Body','SweptSolid',(#603));
#605=IFCPRODUCTDEFINITIONSHAPE($,$,(#604));
#606=IFCOWNERHISTORY(#3,#4,.READWRITE.,.ADDED.,1789749013,#3,#4,1789749013);
#607=IFCELEMENTQUANTITY('2SoqS667PFHhq0o5T4TOoe',#606,'Qto_SpaceBaseQuantities',$,'BaseQuantities',(#610,#611,#612,#613,#614,#615));
#608=IFCOWNERHISTORY(#3,#4,.READWRITE.,.ADDED.,1789749013,#3,#4,1789749013);
#609=IFCRELDEFINESBYPROPERTIES('2WFrgiB85BWeohBsAHSb1C',#608,$,$,(#585),#607);
#610=IFCQUANTITYAREA('NetFloorArea',$,$,15.,$);
#611=IFCQUANTITYVOLUME('NetVolume',$,$,42.,$);
#612=IFCQUANTITYLENGTH('Height',$,$,2.7999999999999998,$);
#613=IFCQUANTITYLENGTH('FinishCeilingHeight',$,$,2.7999999999999998,$);
#614=IFCQUANTITYAREA('GrossFloorArea',$,$,15.,$);
#615=IFCQUANTITYVOLUME('GrossVolume',$,$,42.,$);
#616=IFCOWNERHISTORY(#3,#4,.READWRITE.,.ADDED.,1789749013,#3,#4,1789749013);
#617=IFCPROPERTYSET('2BzDa7er19vfHscZSu$E1h',#616,'Pset_SpaceCommon',$,(#620,#621,#622));
#618=IFCOWNERHISTORY(#3,#4,.READWRITE.,.ADDED.,1789749013,#3,#4,1789749013);
#619=IFCRELDEFINESBYPROPERTIES('3WIna31zj0B8IfkXGnEJs4',#618,$,$,(#585),#617);
#620=IFCPROPERTYSINGLEVALUE('Reference',$,IFCIDENTIFIER('VF'),$);
#621=IFCPROPERTYSINGLEVALUE('IsExternal',$,IFCBOOLEAN(.F.),$);
#622=IFCPROPERTYSINGLEVALUE('NetPlannedArea',$,IFCAREAMEASURE(1.),$);
#623=IFCOWNERHISTORY(#3,#4,.READWRITE.,.ADDED.,1789749013,#3,#4,1789749013);
#624=IFCPROPERTYSET('24kbnZLjj7_vHX1HQdVROf',#623,'ePset_Space',$,(#627));
#625=IFCOWNERHISTORY(#3,#4,.READWRITE.,.ADDED.,1789749013,#3,#4,1789749013);
#626=IFCRELDEFINESBYPROPERTIES('3lfYo64GLAjQ6WGe3fQawv',#625,$,$,(#585),#624);
#627=IFCPROPERTYSINGLEVALUE('SignageRoomNumber',$,IFCIDENTIFIER('102'),$);
#628=IFCOWNERHISTORY(#3,#4,.READWRITE.,.ADDED.,1789749013,#3,#4,1789749013);
#629=IFCPROPERTYSET('0ryXLQMbD9aeZP3phGq4l1',#628,'Pset_SpaceCoveringRequirements',$,(#632));
#630=IFCOWNERHISTORY(#3,#4,.READWRITE.,.ADDED.,1789749013,#3,#4,1789749013);
#631=IFCRELDEFINESBYPROPERTIES('0m1kT7i619OfBrxa5WYfMq',#630,$,$,(#585),#629);
#632=IFCPROPERTYSINGLEVALUE('FloorCovering',$,IFCLABEL('PVC'),$);
#633=IFCOWNERHISTORY(#3,#4,.READWRITE.,.ADDED.,1789749013,#3,#4,1789749013);
#634=IFCPROPERTYSET('2epTu6UtbF2h9XZobQiMMj',#633,'Pset_SpaceThermalDesign',$,(#637));
#635=IFCOWNERHISTORY(#3,#4,.READWRITE.,.ADDED.,1789749013,#3,#4,1789749013);
#636=IFCRELDEFINESBYPROPERTIES('0CBMI5zcr698e3V4Gx36Fb',#635,$,$,(#585),#634);
#637=IFCPROPERTYSINGLEVALUE('TotalHeatLoss',$,IFCPOWERMEASURE(1.),$);
#638=IFCOWNERHISTORY(#3,#4,.READWRITE.,.ADDED.,1789749013,#3,#4,1789749013);
#639=IFCPROPERTYSET('0v3dYZ_wH1Re0i_n3rOHV$',#638,'ePset_SpaceRequirement',$,(#642,#643,#644));
#640=IFCOWNERHISTORY(#3,#4,.READWRITE.,.ADDED.,1789749013,#3,#4,1789749013);
#641=IFCRELDEFINESBYPROPERTIES('3xPQTzxuHCLvgr05cjwJhZ',#640,$,$,(#585),#639);
#642=IFCPROPERTYSINGLEVALUE('DesignAreaLoad',$,IFCREAL(2.),$);
#643=IFCPROPERTYSINGLEVALUE('DesignPointLoad',$,IFCREAL(1.5),$);
#644=IFCPROPERTYSINGLEVALUE('VibrationRequirements',$,IFCLABEL('ISO Workshop'),$);
#645=IFCOWNERHISTORY(#3,#4,.READWRITE.,.ADDED.,1789749013,#3,#4,1789749013);
#646=IFCPROPERTYSET('2A4fONP4HEigBSvGacmAZD',#645,'ePset_Space',$,(#649));
#647=IFCOWNERHISTORY(#3,#4,.READWRITE.,.ADDED.,1789749013,#3,#4,1789749013);
#648=IFCRELDEFINESBYPROPERTIES('0lO9tn1p91Y9R_Sw4UfH86',#647,$,$,(#585),#646);
#649=IFCPROPERTYSINGLEVALUE('Checkliste',$,IFCTEXT('Bodenbelag; Beleuchtung'),$);
#650=IFCOWNERHISTORY(#3,#4,.READWRITE.,.ADDED.,1789749013,#3,#4,1789749013);
#651=IFCPROPERTYSET('3FImw2jGD4nRFzOoAAtRBO',#650,'ePset_Space',$,(#654,#655));
#652=IFCOWNERHISTORY(#3,#4,.READWRITE.,.ADDED.,1789749013,#3,#4,1789749013);
#653=IFCRELDEFINESBYPROPERTIES('1qcGxkAF94B9DDOOq58_tr',#652,$,$,(#585),#651);
#654=IFCPROPERTYSINGLEVALUE('UsageUnitReference',$,IFCIDENTIFIER('UsageUnitReference'),$);
#655=IFCPROPERTYSINGLEVALUE('FireCompartmentReference',$,IFCIDENTIFIER('FireCompartmentReference'),$);
ENDSEC;
END-ISO-10303-21;
