ISO-10303-21;
HEADER;
FILE_DESCRIPTION(('ViewDefinition[DesignTransferView]'),'2;1');
FILE_NAME('/dev/null','2026-09-13T15:45:03+02:00',(''),(''),'IfcOpenShell 0.8.5','IfcOpenShell 0.8.5','Nobody');
FILE_SCHEMA(('IFC4'));
ENDSEC;
DATA;
#1=IFCPERSON('catalog-pipeline','Pipeline','Catalog',$,$,$,$,$);
#2=IFCORGANIZATION('pragmaticBIM','pragmaticBIM',$,$,$);
#3=IFCPERSONANDORGANIZATION(#1,#2,$);
#4=IFCAPPLICATION(#2,'0.1.0','Catalog IFC Pipeline','catalog-ifc-pipeline');
#5=IFCOWNERHISTORY(#3,#4,.READWRITE.,.ADDED.,1789307103,#3,#4,1789307103);
#6=IFCPROJECT('3cwHKZNn14uwLqTwtHkF3l',#5,'survey-ref-points-01',$,$,$,$,(#15),#10);
#7=IFCSIUNIT(*,.LENGTHUNIT.,$,.METRE.);
#8=IFCSIUNIT(*,.AREAUNIT.,$,.SQUARE_METRE.);
#9=IFCSIUNIT(*,.VOLUMEUNIT.,$,.CUBIC_METRE.);
#10=IFCUNITASSIGNMENT((#8,#9,#7));
#11=IFCCARTESIANPOINT((0.,0.,0.));
#12=IFCDIRECTION((0.,0.,1.));
#13=IFCDIRECTION((1.,0.,0.));
#14=IFCAXIS2PLACEMENT3D(#11,#12,#13);
#15=IFCGEOMETRICREPRESENTATIONCONTEXT($,'Model',3,1.0000000000000001E-05,#14,$);
#16=IFCGEOMETRICREPRESENTATIONSUBCONTEXT('Body','Model',*,*,*,*,#15,$,.MODEL_VIEW.,$);
#17=IFCOWNERHISTORY(#3,#4,.READWRITE.,.MODIFIED.,1789307103,#3,#4,1789307103);
#18=IFCSITE('3BgelZMrrD39yQKe8Jb8Mx',#17,'Site',$,$,#50,$,$,$,$,$,$,$,$);
#19=IFCOWNERHISTORY(#3,#4,.READWRITE.,.MODIFIED.,1789307103,#3,#4,1789307103);
#20=IFCBUILDING('1klxi8BM91SwHPpIU_iHPn',#19,'Building',$,$,#60,$,$,$,$,$,$);
#21=IFCOWNERHISTORY(#3,#4,.READWRITE.,.ADDED.,1789307103,#3,#4,1789307103);
#22=IFCRELAGGREGATES('0g$OcWg8T9tOmIAD4Suder',#21,$,$,#6,(#18));
#23=IFCOWNERHISTORY(#3,#4,.READWRITE.,.ADDED.,1789307103,#3,#4,1789307103);
#24=IFCRELAGGREGATES('24IVJnRPP9Ku2$AoD4Iar2',#23,$,$,#18,(#20));
#35=IFCOWNERHISTORY(#3,#4,.READWRITE.,.MODIFIED.,1789307103,#3,#4,1789307103);
#36=IFCBUILDINGSTOREY('1UFDJx5cT2hvleXCcaRGwE',#35,'Level 0',$,$,#70,$,$,$,0.);
#37=IFCOWNERHISTORY(#3,#4,.READWRITE.,.ADDED.,1789307103,#3,#4,1789307103);
#38=IFCRELAGGREGATES('3AXMA5vgz0U8AYEyWqKXnk',#37,$,$,#20,(#36));
#44=IFCPROJECTEDCRS('EPSG:2056','CH1903+ / LV95','CH1903+','LN02','Swiss Oblique Mercator','LV95',$);
#45=IFCMAPCONVERSION(#15,#44,2660156.2349999999,1183629.331,1645.,1.,0.,1.);
#46=IFCCARTESIANPOINT((0.,0.,0.));
#47=IFCDIRECTION((0.,0.,1.));
#48=IFCDIRECTION((1.,0.,0.));
#49=IFCAXIS2PLACEMENT3D(#46,#47,#48);
#50=IFCLOCALPLACEMENT($,#49);
#56=IFCCARTESIANPOINT((0.,0.,0.));
#57=IFCDIRECTION((0.,0.,1.));
#58=IFCDIRECTION((1.,0.,0.));
#59=IFCAXIS2PLACEMENT3D(#56,#57,#58);
#60=IFCLOCALPLACEMENT(#50,#59);
#66=IFCCARTESIANPOINT((0.,0.,0.));
#67=IFCDIRECTION((0.,0.,1.));
#68=IFCDIRECTION((1.,0.,0.));
#69=IFCAXIS2PLACEMENT3D(#66,#67,#68);
#70=IFCLOCALPLACEMENT(#60,#69);
#71=IFCOWNERHISTORY(#3,#4,.READWRITE.,.MODIFIED.,1789307103,#3,#4,1789307103);
#72=IFCBUILDINGELEMENTPROXY('3u0CviPQ5DmxG5xqrakag6',#71,'BP-01',$,'Bezugspunkt',#79,#103,$,.USERDEFINED.);
#73=IFCOWNERHISTORY(#3,#4,.READWRITE.,.MODIFIED.,1789307103,#3,#4,1789307103);
#74=IFCRELCONTAINEDINSPATIALSTRUCTURE('1hrkpbqbvDX8790Yt9PLcS',#73,$,$,(#146,#72,#110),#18);
#75=IFCCARTESIANPOINT((0.,0.,0.));
#76=IFCDIRECTION((0.,0.,1.));
#77=IFCDIRECTION((1.,0.,0.));
#78=IFCAXIS2PLACEMENT3D(#75,#76,#77);
#79=IFCLOCALPLACEMENT(#50,#78);
#80=IFCCARTESIANPOINT((0.,0.,0.));
#81=IFCCARTESIANPOINT((-0.40000000000000002,-0.40000000000000002,1.5));
#82=IFCCARTESIANPOINT((0.40000000000000002,-0.40000000000000002,1.5));
#83=IFCCARTESIANPOINT((0.40000000000000002,0.40000000000000002,1.5));
#84=IFCCARTESIANPOINT((-0.40000000000000002,0.40000000000000002,1.5));
#85=IFCPOLYLOOP((#80,#82,#81));
#86=IFCFACEOUTERBOUND(#85,.T.);
#87=IFCFACE((#86));
#88=IFCPOLYLOOP((#80,#83,#82));
#89=IFCFACEOUTERBOUND(#88,.T.);
#90=IFCFACE((#89));
#91=IFCPOLYLOOP((#80,#84,#83));
#92=IFCFACEOUTERBOUND(#91,.T.);
#93=IFCFACE((#92));
#94=IFCPOLYLOOP((#80,#81,#84));
#95=IFCFACEOUTERBOUND(#94,.T.);
#96=IFCFACE((#95));
#97=IFCPOLYLOOP((#81,#82,#83,#84));
#98=IFCFACEOUTERBOUND(#97,.T.);
#99=IFCFACE((#98));
#100=IFCCLOSEDSHELL((#87,#90,#93,#96,#99));
#101=IFCFACETEDBREP(#100);
#102=IFCSHAPEREPRESENTATION(#16,'Body','Brep',(#101));
#103=IFCPRODUCTDEFINITIONSHAPE($,$,(#102));
#104=IFCOWNERHISTORY(#3,#4,.READWRITE.,.ADDED.,1789307103,#3,#4,1789307103);
#105=IFCPROPERTYSET('3lKam07onE2Ay6_a51Am62',#104,'Pset_BuildingElementProxyCommon',$,(#108));
#106=IFCOWNERHISTORY(#3,#4,.READWRITE.,.ADDED.,1789307103,#3,#4,1789307103);
#107=IFCRELDEFINESBYPROPERTIES('0BdR2b8UbB8gXhruIbI7Gx',#106,$,$,(#72),#105);
#108=IFCPROPERTYSINGLEVALUE('Reference',$,IFCIDENTIFIER('1001'),$);
#109=IFCOWNERHISTORY(#3,#4,.READWRITE.,.MODIFIED.,1789307103,#3,#4,1789307103);
#110=IFCBUILDINGELEMENTPROXY('2LKsPxftPFK8EkJMlVbhv2',#109,'BP-02',$,'Bezugspunkt',#115,#139,$,.USERDEFINED.);
#111=IFCCARTESIANPOINT((30.,4.,0.14999999999999999));
#112=IFCDIRECTION((0.,0.,1.));
#113=IFCDIRECTION((1.,0.,0.));
#114=IFCAXIS2PLACEMENT3D(#111,#112,#113);
#115=IFCLOCALPLACEMENT(#50,#114);
#116=IFCCARTESIANPOINT((0.,0.,0.));
#117=IFCCARTESIANPOINT((-0.40000000000000002,-0.40000000000000002,1.5));
#118=IFCCARTESIANPOINT((0.40000000000000002,-0.40000000000000002,1.5));
#119=IFCCARTESIANPOINT((0.40000000000000002,0.40000000000000002,1.5));
#120=IFCCARTESIANPOINT((-0.40000000000000002,0.40000000000000002,1.5));
#121=IFCPOLYLOOP((#116,#118,#117));
#122=IFCFACEOUTERBOUND(#121,.T.);
#123=IFCFACE((#122));
#124=IFCPOLYLOOP((#116,#119,#118));
#125=IFCFACEOUTERBOUND(#124,.T.);
#126=IFCFACE((#125));
#127=IFCPOLYLOOP((#116,#120,#119));
#128=IFCFACEOUTERBOUND(#127,.T.);
#129=IFCFACE((#128));
#130=IFCPOLYLOOP((#116,#117,#120));
#131=IFCFACEOUTERBOUND(#130,.T.);
#132=IFCFACE((#131));
#133=IFCPOLYLOOP((#117,#118,#119,#120));
#134=IFCFACEOUTERBOUND(#133,.T.);
#135=IFCFACE((#134));
#136=IFCCLOSEDSHELL((#123,#126,#129,#132,#135));
#137=IFCFACETEDBREP(#136);
#138=IFCSHAPEREPRESENTATION(#16,'Body','Brep',(#137));
#139=IFCPRODUCTDEFINITIONSHAPE($,$,(#138));
#140=IFCOWNERHISTORY(#3,#4,.READWRITE.,.ADDED.,1789307103,#3,#4,1789307103);
#141=IFCPROPERTYSET('2bJDgEwun4bwenPV908Txe',#140,'Pset_BuildingElementProxyCommon',$,(#144));
#142=IFCOWNERHISTORY(#3,#4,.READWRITE.,.ADDED.,1789307103,#3,#4,1789307103);
#143=IFCRELDEFINESBYPROPERTIES('2$cSkOHKDEkvkjQ84dVENX',#142,$,$,(#110),#141);
#144=IFCPROPERTYSINGLEVALUE('Reference',$,IFCIDENTIFIER('1002'),$);
#145=IFCOWNERHISTORY(#3,#4,.READWRITE.,.MODIFIED.,1789307103,#3,#4,1789307103);
#146=IFCBUILDINGELEMENTPROXY('3r2lAfYK5F3uQcuxBkVAMR',#145,'BP-03',$,'Bezugspunkt',#151,#175,$,.USERDEFINED.);
#147=IFCCARTESIANPOINT((10.,26.,-0.10000000000000001));
#148=IFCDIRECTION((0.,0.,1.));
#149=IFCDIRECTION((1.,0.,0.));
#150=IFCAXIS2PLACEMENT3D(#147,#148,#149);
#151=IFCLOCALPLACEMENT(#50,#150);
#152=IFCCARTESIANPOINT((0.,0.,0.));
#153=IFCCARTESIANPOINT((-0.40000000000000002,-0.40000000000000002,1.5));
#154=IFCCARTESIANPOINT((0.40000000000000002,-0.40000000000000002,1.5));
#155=IFCCARTESIANPOINT((0.40000000000000002,0.40000000000000002,1.5));
#156=IFCCARTESIANPOINT((-0.40000000000000002,0.40000000000000002,1.5));
#157=IFCPOLYLOOP((#152,#154,#153));
#158=IFCFACEOUTERBOUND(#157,.T.);
#159=IFCFACE((#158));
#160=IFCPOLYLOOP((#152,#155,#154));
#161=IFCFACEOUTERBOUND(#160,.T.);
#162=IFCFACE((#161));
#163=IFCPOLYLOOP((#152,#156,#155));
#164=IFCFACEOUTERBOUND(#163,.T.);
#165=IFCFACE((#164));
#166=IFCPOLYLOOP((#152,#153,#156));
#167=IFCFACEOUTERBOUND(#166,.T.);
#168=IFCFACE((#167));
#169=IFCPOLYLOOP((#153,#154,#155,#156));
#170=IFCFACEOUTERBOUND(#169,.T.);
#171=IFCFACE((#170));
#172=IFCCLOSEDSHELL((#159,#162,#165,#168,#171));
#173=IFCFACETEDBREP(#172);
#174=IFCSHAPEREPRESENTATION(#16,'Body','Brep',(#173));
#175=IFCPRODUCTDEFINITIONSHAPE($,$,(#174));
#176=IFCOWNERHISTORY(#3,#4,.READWRITE.,.ADDED.,1789307103,#3,#4,1789307103);
#177=IFCPROPERTYSET('2$KtPemqr9eOCUbwFxf2IS',#176,'Pset_BuildingElementProxyCommon',$,(#180));
#178=IFCOWNERHISTORY(#3,#4,.READWRITE.,.ADDED.,1789307103,#3,#4,1789307103);
#179=IFCRELDEFINESBYPROPERTIES('2Qy6lx0Hr1q9qSdkTISml8',#178,$,$,(#146),#177);
#180=IFCPROPERTYSINGLEVALUE('Reference',$,IFCIDENTIFIER('1003'),$);
ENDSEC;
END-ISO-10303-21;
